M48
; DRILL file {KiCad 8.0.6} date 2025-01-10T19:45:01+0700
; FORMAT={-:-/ absolute / metric / decimal}
; #@! TF.CreationDate,2025-01-10T19:45:01+07:00
; #@! TF.GenerationSoftware,Kicad,Pcbnew,8.0.6
; #@! TF.FileFunction,Plated,1,2,PTH
FMAT,2
METRIC
; #@! TA.AperFunction,Plated,PTH,ViaDrill
T1C0.300
; #@! TA.AperFunction,Plated,PTH,ComponentDrill
T2C0.300
; #@! TA.AperFunction,Plated,PTH,ComponentDrill
T3C0.600
; #@! TA.AperFunction,Plated,PTH,ComponentDrill
T4C0.800
; #@! TA.AperFunction,Plated,PTH,ComponentDrill
T5C0.889
; #@! TA.AperFunction,Plated,PTH,ComponentDrill
T6C0.900
; #@! TA.AperFunction,Plated,PTH,ComponentDrill
T7C0.990
; #@! TA.AperFunction,Plated,PTH,ComponentDrill
T8C1.000
; #@! TA.AperFunction,Plated,PTH,ComponentDrill
T9C1.100
; #@! TA.AperFunction,Plated,PTH,ComponentDrill
T10C1.300
; #@! TA.AperFunction,Plated,PTH,ComponentDrill
T11C1.397
; #@! TA.AperFunction,Plated,PTH,ComponentDrill
T12C2.200
; #@! TA.AperFunction,Plated,PTH,ComponentDrill
T13C3.200
%
G90
G05
T1
X84.595Y-71.0
X87.0Y-59.0
X87.33Y-100.67
X90.175Y-109.825
X96.5Y-111.0
X98.5Y-106.5
X110.3Y-65.402
X111.78Y-70.72
X112.75Y-84.75
X113.0Y-88.0
X113.25Y-83.75
X113.366Y-87.25
X113.5Y-73.0
X113.72Y-82.78
X113.866Y-81.8
X114.0Y-86.5
X114.5Y-76.0
X116.5Y-73.0
X116.5Y-98.5
X116.5Y-104.5
X119.0Y-110.5
X119.0Y-119.0
X119.5Y-59.0
X122.5Y-57.0
X123.475Y-103.025
X124.765Y-56.25
X131.0Y-73.5
X131.0Y-74.5
X132.3Y-72.7
X133.8Y-115.095
X135.533Y-59.467
X135.795Y-60.79
X139.21Y-86.5
X140.0Y-56.0
X140.11Y-76.0
X141.0Y-105.5
X142.5Y-75.0
X142.705Y-118.905
X142.925Y-117.625
X143.0Y-74.0
X143.5Y-73.0
X144.0Y-72.0
X144.0Y-80.35
X144.0Y-95.5
X144.3Y-122.0
X144.5Y-71.091
X145.0Y-70.061
X145.0Y-81.5
X145.5Y-69.03
X146.0Y-68.015
X146.5Y-67.055
X147.0Y-66.25
X147.0Y-110.0
X147.5Y-65.45
X148.0Y-109.5
X149.0Y-109.0
X150.0Y-108.5
X151.0Y-107.95
X151.5Y-91.0
X151.5Y-92.0
X152.0Y-97.5
X152.75Y-89.689
X152.75Y-90.5
X153.5Y-80.35
X154.5Y-81.5
X154.5Y-96.5
X159.05Y-95.5
X160.5Y-66.5
X163.79Y-83.28
X164.0Y-82.031
X164.5Y-84.0
X165.2Y-69.18
X165.5Y-88.239
X167.0Y-82.0
X179.5Y-99.246
X180.21Y-120.21
X180.5Y-99.5
X181.5Y-99.3
X181.5Y-107.5
X182.5Y-99.5
X183.5Y-99.5
X184.0Y-118.6
X185.5Y-75.5
X186.5Y-78.5
X187.5Y-102.0
X191.25Y-86.5
X195.5Y-113.0
X198.32Y-91.18
X200.5Y-98.5
X208.0Y-57.0
X210.862Y-52.0
X211.5Y-53.5
X211.5Y-63.5
X214.97Y-73.0
X218.0Y-71.5
T2
X127.5Y-100.825
X127.5Y-101.475
X127.5Y-102.125
X129.4Y-100.825
X129.4Y-101.475
X129.4Y-102.125
X138.0Y-115.8
X138.0Y-117.0
X138.0Y-118.2
X139.4Y-115.8
X139.4Y-117.0
X139.4Y-118.2
T4
X124.38Y-106.5
X132.0Y-106.5
T5
X76.84Y-65.96
X76.84Y-68.5
X76.84Y-71.04
X84.46Y-78.66
X87.0Y-78.66
X89.54Y-78.66
X202.84Y-105.58
X202.84Y-108.12
X202.84Y-110.66
X210.46Y-118.28
X213.0Y-118.28
X215.54Y-118.28
T6
X83.825Y-55.8
X83.825Y-60.88
X90.175Y-55.8
X90.175Y-60.88
X209.825Y-95.42
X209.825Y-100.5
X216.175Y-95.42
X216.175Y-100.5
T7
X85.0Y-42.0
X89.5Y-42.0
X218.0Y-42.0
X222.5Y-42.0
T8
X77.0Y-114.17
X81.13Y-111.42
X82.0Y-102.97
X92.0Y-99.17
X92.0Y-129.17
X96.13Y-96.42
X96.13Y-126.42
X97.0Y-87.97
X97.0Y-117.97
X104.45Y-75.27
X104.45Y-77.81
X104.45Y-80.35
X104.45Y-82.89
X104.45Y-85.43
X104.45Y-87.97
X104.45Y-90.51
X104.45Y-93.05
X107.0Y-114.17
X107.76Y-61.66
X107.76Y-64.2
X110.3Y-61.66
X110.3Y-64.2
X111.13Y-111.42
X112.0Y-102.97
X112.84Y-61.66
X112.84Y-64.2
X115.38Y-61.66
X115.38Y-64.2
X117.92Y-61.66
X117.92Y-64.2
X120.46Y-61.66
X120.46Y-64.2
X123.0Y-61.66
X123.0Y-64.2
X125.54Y-61.66
X125.54Y-64.2
X128.08Y-61.66
X128.08Y-64.2
X130.62Y-61.66
X130.62Y-64.2
X143.88Y-59.16
X146.42Y-59.16
X148.96Y-59.16
X151.5Y-59.16
X154.04Y-59.16
X156.58Y-59.16
X159.12Y-59.16
X168.6Y-53.08
X168.6Y-55.62
X168.6Y-58.16
X168.6Y-60.7
X168.6Y-63.24
X168.6Y-65.78
X168.6Y-68.32
X168.6Y-70.86
X168.6Y-73.4
X168.6Y-75.94
X168.6Y-78.48
X168.6Y-81.02
X168.6Y-83.56
X168.6Y-86.1
X168.6Y-88.64
X168.6Y-91.18
X168.6Y-93.72
X168.6Y-96.26
X168.6Y-98.8
X168.6Y-101.34
X168.6Y-103.88
X168.6Y-106.42
X194.0Y-53.08
X194.0Y-55.62
X194.0Y-58.16
X194.0Y-60.7
X194.0Y-63.24
X194.0Y-65.78
X194.0Y-68.32
X194.0Y-70.86
X194.0Y-73.4
X194.0Y-75.94
X194.0Y-78.48
X194.0Y-81.02
X194.0Y-83.56
X194.0Y-86.1
X194.0Y-88.64
X194.0Y-91.18
X194.0Y-93.72
X194.0Y-96.26
X194.0Y-98.8
X194.0Y-101.34
X194.0Y-103.88
X194.0Y-106.42
X204.5Y-74.55
X208.63Y-71.8
X209.5Y-63.35
X219.5Y-59.55
X219.5Y-89.55
X223.63Y-56.8
X223.63Y-86.8
X224.5Y-48.35
X224.5Y-78.35
X234.5Y-74.55
X238.63Y-71.8
X239.5Y-63.35
T9
X144.0Y-100.0
X144.0Y-104.5
X150.5Y-100.0
X150.5Y-104.5
T10
X83.75Y-44.49
X90.76Y-44.49
X121.75Y-89.66
X121.75Y-94.66
X122.0Y-71.0
X122.0Y-76.0
X134.25Y-89.66
X134.25Y-94.66
X134.5Y-71.0
X134.5Y-76.0
X216.75Y-44.49
X223.76Y-44.49
T11
X79.38Y-61.832
X79.38Y-75.167
X94.62Y-61.832
X94.62Y-75.167
X205.38Y-101.453
X205.38Y-114.787
X220.62Y-101.453
X220.62Y-114.787
T12
X140.11Y-60.16
X140.11Y-94.38
X162.89Y-60.16
X162.89Y-94.38
T13
X65.5Y-44.0
X65.5Y-126.0
X238.5Y-44.0
X238.5Y-126.0
T3
G00X147.48Y-123.9
M15
G01X147.48Y-124.5
M16
G05
G00X147.48Y-127.7
M15
G01X147.48Y-128.3
M16
G05
G00X156.12Y-123.9
M15
G01X156.12Y-124.5
M16
G05
G00X156.12Y-127.7
M15
G01X156.12Y-128.3
M16
G05
M30
