%TF.GenerationSoftware,KiCad,Pcbnew,8.0.6*%
%TF.CreationDate,2025-03-04T23:13:55+07:00*%
%TF.ProjectId,micromouse,6d696372-6f6d-46f7-9573-652e6b696361,rev?*%
%TF.SameCoordinates,Original*%
%TF.FileFunction,Paste,Top*%
%TF.FilePolarity,Positive*%
%FSLAX46Y46*%
G04 Gerber Fmt 4.6, Leading zero omitted, Abs format (unit mm)*
G04 Created by KiCad (PCBNEW 8.0.6) date 2025-03-04 23:13:55*
%MOMM*%
%LPD*%
G01*
G04 APERTURE LIST*
G04 Aperture macros list*
%AMRoundRect*
0 Rectangle with rounded corners*
0 $1 Rounding radius*
0 $2 $3 $4 $5 $6 $7 $8 $9 X,Y pos of 4 corners*
0 Add a 4 corners polygon primitive as box body*
4,1,4,$2,$3,$4,$5,$6,$7,$8,$9,$2,$3,0*
0 Add four circle primitives for the rounded corners*
1,1,$1+$1,$2,$3*
1,1,$1+$1,$4,$5*
1,1,$1+$1,$6,$7*
1,1,$1+$1,$8,$9*
0 Add four rect primitives between the rounded corners*
20,1,$1+$1,$2,$3,$4,$5,0*
20,1,$1+$1,$4,$5,$6,$7,0*
20,1,$1+$1,$6,$7,$8,$9,0*
20,1,$1+$1,$8,$9,$2,$3,0*%
G04 Aperture macros list end*
%ADD10RoundRect,0.250000X-0.475000X0.337500X-0.475000X-0.337500X0.475000X-0.337500X0.475000X0.337500X0*%
%ADD11RoundRect,0.150000X-0.800000X-0.150000X0.800000X-0.150000X0.800000X0.150000X-0.800000X0.150000X0*%
%ADD12RoundRect,0.250000X-0.450000X0.325000X-0.450000X-0.325000X0.450000X-0.325000X0.450000X0.325000X0*%
%ADD13RoundRect,0.375000X0.375000X-0.625000X0.375000X0.625000X-0.375000X0.625000X-0.375000X-0.625000X0*%
%ADD14RoundRect,0.500000X1.400000X-0.500000X1.400000X0.500000X-1.400000X0.500000X-1.400000X-0.500000X0*%
%ADD15RoundRect,0.090000X-0.360000X0.660000X-0.360000X-0.660000X0.360000X-0.660000X0.360000X0.660000X0*%
%ADD16RoundRect,0.250000X0.450000X-0.350000X0.450000X0.350000X-0.450000X0.350000X-0.450000X-0.350000X0*%
G04 APERTURE END LIST*
D10*
%TO.C,C3*%
X140300000Y-76087500D03*
X140300000Y-78162500D03*
%TD*%
%TO.C,C1*%
X138299997Y-76087500D03*
X138299997Y-78162500D03*
%TD*%
%TO.C,C9*%
X138300000Y-79962500D03*
X138300000Y-82037500D03*
%TD*%
D11*
%TO.C,U4*%
X144900000Y-87485000D03*
X144900000Y-88755000D03*
X144900000Y-90025000D03*
X144900000Y-91295000D03*
X144900000Y-92565000D03*
X144900000Y-93835000D03*
X144900000Y-95105000D03*
X144900000Y-96375000D03*
X144900000Y-97645000D03*
X144900000Y-98915000D03*
X154100000Y-98915000D03*
X154100000Y-97645000D03*
X154100000Y-96375000D03*
X154100000Y-95105000D03*
X154100000Y-93835000D03*
X154100000Y-92565000D03*
X154100000Y-91295000D03*
X154100000Y-90025000D03*
X154100000Y-88755000D03*
X154100000Y-87485000D03*
%TD*%
D12*
%TO.C,D1*%
X128100000Y-75550002D03*
X128100000Y-77600000D03*
%TD*%
D10*
%TO.C,C11*%
X140300000Y-79962500D03*
X140300000Y-82037500D03*
%TD*%
D13*
%TO.C,U3*%
X137000000Y-90599999D03*
X139300000Y-90599998D03*
D14*
X139300000Y-84300000D03*
D13*
X141600000Y-90599999D03*
%TD*%
D15*
%TO.C,D3*%
X128500000Y-121800000D03*
X125200000Y-121800000D03*
X125200000Y-126700000D03*
X128500000Y-126700000D03*
%TD*%
D16*
%TO.C,R1*%
X128100000Y-81400000D03*
X128100000Y-79400000D03*
%TD*%
M02*
