%TF.GenerationSoftware,KiCad,Pcbnew,8.0.6*%
%TF.CreationDate,2025-03-04T23:13:57+07:00*%
%TF.ProjectId,micromouse,6d696372-6f6d-46f7-9573-652e6b696361,rev?*%
%TF.SameCoordinates,Original*%
%TF.FileFunction,Drillmap*%
%TF.FilePolarity,Positive*%
%FSLAX45Y45*%
G04 Gerber Fmt 4.5, Leading zero omitted, Abs format (unit mm)*
G04 Created by KiCad (PCBNEW 8.0.6) date 2025-03-04 23:13:57*
%MOMM*%
%LPD*%
G01*
G04 APERTURE LIST*
%ADD10C,0.050000*%
%ADD11C,0.200000*%
%ADD12C,0.100000*%
%ADD13C,0.110000*%
G04 APERTURE END LIST*
D10*
X17700000Y-7160000D02*
X18100000Y-7160000D01*
X16750000Y-6960000D02*
X12370000Y-6960000D01*
X10690000Y-6830000D02*
G75*
G02*
X18430000Y-6830000I3870000J-1130000D01*
G01*
X17500000Y-13810000D02*
G75*
G02*
X17300000Y-14010000I-200000J0D01*
G01*
X11820000Y-14010000D02*
G75*
G02*
X11620000Y-13810000I0J200000D01*
G01*
X11970000Y-5960000D02*
X11970000Y-6560000D01*
X11970000Y-5960000D02*
G75*
G02*
X17150000Y-5960000I2590000J-2000000D01*
G01*
X17150000Y-6560000D02*
X16750000Y-6960000D01*
X11020000Y-7160000D02*
X11420000Y-7160000D01*
X17500000Y-7360000D02*
G75*
G02*
X17700000Y-7160000I200000J0D01*
G01*
X11820000Y-14010000D02*
X17300000Y-14010000D01*
X11020000Y-7160000D02*
X10690000Y-6830000D01*
X17150000Y-5960000D02*
X17150000Y-6560000D01*
X11620000Y-13810000D02*
X11620000Y-7360000D01*
X11970000Y-6560000D02*
X12370000Y-6960000D01*
X11420000Y-7160000D02*
G75*
G02*
X11620000Y-7360000I0J-200000D01*
G01*
X18100000Y-7160000D02*
X18430000Y-6830000D01*
X17500000Y-13810000D02*
X17500000Y-7360000D01*
D11*
D12*
X11635000Y-6135000D02*
X11665000Y-6165000D01*
X11665000Y-6135000D02*
X11635000Y-6165000D01*
X11735000Y-5935000D02*
X11765000Y-5965000D01*
X11765000Y-5935000D02*
X11735000Y-5965000D01*
X11835000Y-5885000D02*
X11865000Y-5915000D01*
X11865000Y-5885000D02*
X11835000Y-5915000D01*
X12138500Y-7063500D02*
X12168500Y-7093500D01*
X12168500Y-7063500D02*
X12138500Y-7093500D01*
X12160000Y-7285000D02*
X12190000Y-7315000D01*
X12190000Y-7285000D02*
X12160000Y-7315000D01*
X12160000Y-12685000D02*
X12190000Y-12715000D01*
X12190000Y-12685000D02*
X12160000Y-12715000D01*
X12795000Y-7540000D02*
X12825000Y-7570000D01*
X12825000Y-7540000D02*
X12795000Y-7570000D01*
X12835000Y-12165000D02*
X12865000Y-12195000D01*
X12865000Y-12165000D02*
X12835000Y-12195000D01*
X12835000Y-12655000D02*
X12865000Y-12685000D01*
X12865000Y-12655000D02*
X12835000Y-12685000D01*
X12885000Y-8235000D02*
X12915000Y-8265000D01*
X12915000Y-8235000D02*
X12885000Y-8265000D01*
X12885000Y-13555000D02*
X12915000Y-13585000D01*
X12915000Y-13555000D02*
X12885000Y-13585000D01*
X13395000Y-11915000D02*
X13425000Y-11945000D01*
X13425000Y-11915000D02*
X13395000Y-11945000D01*
X13640000Y-11682500D02*
X13670000Y-11712500D01*
X13670000Y-11682500D02*
X13640000Y-11712500D01*
X13640000Y-11936500D02*
X13670000Y-11966500D01*
X13670000Y-11936500D02*
X13640000Y-11966500D01*
X13640000Y-12190500D02*
X13670000Y-12220500D01*
X13670000Y-12190500D02*
X13640000Y-12220500D01*
X14015000Y-8188750D02*
X14045000Y-8218750D01*
X14045000Y-8188750D02*
X14015000Y-8218750D01*
X14285000Y-7138500D02*
X14315000Y-7168500D01*
X14315000Y-7138500D02*
X14285000Y-7168500D01*
X14310000Y-10010000D02*
X14340000Y-10040000D01*
X14340000Y-10010000D02*
X14310000Y-10040000D01*
X14310000Y-11936500D02*
X14340000Y-11966500D01*
X14340000Y-11936500D02*
X14310000Y-11966500D01*
X14475000Y-8987500D02*
X14505000Y-9017500D01*
X14505000Y-8987500D02*
X14475000Y-9017500D01*
X14475000Y-9241500D02*
X14505000Y-9271500D01*
X14505000Y-9241500D02*
X14475000Y-9271500D01*
X14475000Y-9622500D02*
X14505000Y-9652500D01*
X14505000Y-9622500D02*
X14475000Y-9652500D01*
X14710000Y-10085000D02*
X14740000Y-10115000D01*
X14740000Y-10085000D02*
X14710000Y-10115000D01*
X14730000Y-9035000D02*
X14760000Y-9065000D01*
X14760000Y-9035000D02*
X14730000Y-9065000D01*
X14730000Y-9215000D02*
X14760000Y-9245000D01*
X14760000Y-9215000D02*
X14730000Y-9245000D01*
X14730000Y-9415000D02*
X14760000Y-9445000D01*
X14760000Y-9415000D02*
X14730000Y-9445000D01*
X14730000Y-9595000D02*
X14760000Y-9625000D01*
X14760000Y-9595000D02*
X14730000Y-9625000D01*
X14730000Y-9795000D02*
X14760000Y-9825000D01*
X14760000Y-9795000D02*
X14730000Y-9825000D01*
X14785000Y-12190500D02*
X14815000Y-12220500D01*
X14815000Y-12190500D02*
X14785000Y-12220500D01*
X15110000Y-8840000D02*
X15140000Y-8870000D01*
X15140000Y-8840000D02*
X15110000Y-8870000D01*
X15110000Y-9040000D02*
X15140000Y-9070000D01*
X15140000Y-9040000D02*
X15110000Y-9070000D01*
X15110000Y-9220000D02*
X15140000Y-9250000D01*
X15140000Y-9220000D02*
X15110000Y-9250000D01*
X15110000Y-9420000D02*
X15140000Y-9450000D01*
X15140000Y-9420000D02*
X15110000Y-9450000D01*
X15110000Y-9800000D02*
X15140000Y-9830000D01*
X15140000Y-9800000D02*
X15110000Y-9830000D01*
X15235000Y-7660000D02*
X15265000Y-7690000D01*
X15265000Y-7660000D02*
X15235000Y-7690000D01*
X15310895Y-7634702D02*
X15340895Y-7664702D01*
X15340895Y-7634702D02*
X15310895Y-7664702D01*
X15395000Y-9114500D02*
X15425000Y-9144500D01*
X15425000Y-9114500D02*
X15395000Y-9144500D01*
X15560000Y-8352000D02*
X15590000Y-8382000D01*
X15590000Y-8352000D02*
X15560000Y-8382000D01*
X15857668Y-4687332D02*
X15887668Y-4717332D01*
X15887668Y-4687332D02*
X15857668Y-4717332D01*
X16081967Y-4813033D02*
X16111967Y-4843033D01*
X16111967Y-4813033D02*
X16081967Y-4843033D01*
X16305000Y-12515000D02*
X16335000Y-12545000D01*
X16335000Y-12515000D02*
X16305000Y-12545000D01*
X16310000Y-7827500D02*
X16340000Y-7857500D01*
X16340000Y-7827500D02*
X16310000Y-7857500D01*
X16560000Y-4960000D02*
X16590000Y-4990000D01*
X16590000Y-4960000D02*
X16560000Y-4990000D01*
X16858750Y-11965000D02*
X16888750Y-11995000D01*
X16888750Y-11965000D02*
X16858750Y-11995000D01*
X17285000Y-5935000D02*
X17315000Y-5965000D01*
X17315000Y-5935000D02*
X17285000Y-5965000D01*
X17323206Y-7121794D02*
X17353206Y-7151794D01*
X17353206Y-7121794D02*
X17323206Y-7151794D01*
X17385000Y-5935000D02*
X17415000Y-5965000D01*
X17415000Y-5935000D02*
X17385000Y-5965000D01*
X17485000Y-6135000D02*
X17515000Y-6165000D01*
X17515000Y-6135000D02*
X17485000Y-6165000D01*
X13265000Y-7185000D02*
G75*
G02*
X13195000Y-7185000I-35000J0D01*
G01*
X13195000Y-7185000D02*
G75*
G02*
X13265000Y-7185000I35000J0D01*
G01*
X13270000Y-7150000D02*
X13190000Y-7150000D01*
X13190000Y-7220000D02*
G75*
G02*
X13190000Y-7150000I0J35000D01*
G01*
X13190000Y-7220000D02*
X13270000Y-7220000D01*
X13270000Y-7220000D02*
G75*
G03*
X13270000Y-7150000I0J35000D01*
G01*
X13265000Y-8025000D02*
G75*
G02*
X13195000Y-8025000I-35000J0D01*
G01*
X13195000Y-8025000D02*
G75*
G02*
X13265000Y-8025000I35000J0D01*
G01*
X13270000Y-7990000D02*
X13190000Y-7990000D01*
X13190000Y-8060000D02*
G75*
G02*
X13190000Y-7990000I0J35000D01*
G01*
X13190000Y-8060000D02*
X13270000Y-8060000D01*
X13270000Y-8060000D02*
G75*
G03*
X13270000Y-7990000I0J35000D01*
G01*
X13230000Y-7365000D02*
X13230000Y-7445000D01*
X13190000Y-7405000D02*
X13270000Y-7405000D01*
X13230000Y-7565000D02*
X13230000Y-7645000D01*
X13190000Y-7605000D02*
X13270000Y-7605000D01*
X13230000Y-7765000D02*
X13230000Y-7845000D01*
X13190000Y-7805000D02*
X13270000Y-7805000D01*
X13275000Y-8310000D02*
X13275000Y-8390000D01*
X13235000Y-8350000D02*
X13315000Y-8350000D01*
X13275000Y-8510000D02*
X13275000Y-8590000D01*
X13235000Y-8550000D02*
X13315000Y-8550000D01*
X13275000Y-8889489D02*
X13275000Y-8969489D01*
X13235000Y-8929489D02*
X13315000Y-8929489D01*
X13275000Y-9089489D02*
X13275000Y-9169489D01*
X13235000Y-9129489D02*
X13315000Y-9129489D01*
X14355000Y-8170000D02*
X14355000Y-8250000D01*
X14315000Y-8210000D02*
X14395000Y-8210000D01*
X14355000Y-8370000D02*
X14355000Y-8450000D01*
X14315000Y-8410000D02*
X14395000Y-8410000D01*
X14357500Y-7610000D02*
X14357500Y-7690000D01*
X14317500Y-7650000D02*
X14397500Y-7650000D01*
X14357500Y-7810000D02*
X14357500Y-7890000D01*
X14317500Y-7850000D02*
X14397500Y-7850000D01*
X15880000Y-8900000D02*
X15880000Y-8980000D01*
X15840000Y-8940000D02*
X15920000Y-8940000D01*
X15880000Y-9100000D02*
X15880000Y-9180000D01*
X15840000Y-9140000D02*
X15920000Y-9140000D01*
X16075000Y-7320000D02*
X16075000Y-7400000D01*
X16035000Y-7360000D02*
X16115000Y-7360000D01*
X16275000Y-7320000D02*
X16275000Y-7400000D01*
X16235000Y-7360000D02*
X16315000Y-7360000D01*
X11082176Y-6415311D02*
X11082176Y-6344600D01*
X11011465Y-6344600D01*
X11011465Y-6415311D01*
X11082176Y-6415311D01*
X11209176Y-6195341D02*
X11209176Y-6124630D01*
X11138465Y-6124630D01*
X11138465Y-6195341D01*
X11209176Y-6195341D01*
X11336176Y-5975371D02*
X11336176Y-5904659D01*
X11265465Y-5904659D01*
X11265465Y-5975371D01*
X11336176Y-5975371D01*
X11463176Y-5755400D02*
X11463176Y-5684689D01*
X11392465Y-5684689D01*
X11392465Y-5755400D01*
X11463176Y-5755400D01*
X12355400Y-4866356D02*
X12355400Y-4795644D01*
X12284689Y-4795644D01*
X12284689Y-4866356D01*
X12355400Y-4866356D01*
X12575371Y-4739356D02*
X12575371Y-4668644D01*
X12504659Y-4668644D01*
X12504659Y-4739356D01*
X12575371Y-4739356D01*
X12715356Y-8838356D02*
X12715356Y-8767644D01*
X12644644Y-8767644D01*
X12644644Y-8838356D01*
X12715356Y-8838356D01*
X12715356Y-9092356D02*
X12715356Y-9021644D01*
X12644644Y-9021644D01*
X12644644Y-9092356D01*
X12715356Y-9092356D01*
X12795341Y-4612356D02*
X12795341Y-4541644D01*
X12724629Y-4541644D01*
X12724629Y-4612356D01*
X12795341Y-4612356D01*
X13015311Y-4485356D02*
X13015311Y-4414644D01*
X12944600Y-4414644D01*
X12944600Y-4485356D01*
X13015311Y-4485356D01*
X13672356Y-7400356D02*
X13672356Y-7329644D01*
X13601644Y-7329644D01*
X13601644Y-7400356D01*
X13672356Y-7400356D01*
X13926356Y-7400356D02*
X13926356Y-7329644D01*
X13855644Y-7329644D01*
X13855644Y-7400356D01*
X13926356Y-7400356D01*
X13965356Y-9501356D02*
X13965356Y-9430644D01*
X13894644Y-9430644D01*
X13894644Y-9501356D01*
X13965356Y-9501356D01*
X13965356Y-9755356D02*
X13965356Y-9684644D01*
X13894644Y-9684644D01*
X13894644Y-9755356D01*
X13965356Y-9755356D01*
X14180356Y-7400356D02*
X14180356Y-7329644D01*
X14109644Y-7329644D01*
X14109644Y-7400356D01*
X14180356Y-7400356D01*
X14213356Y-4165356D02*
X14213356Y-4094644D01*
X14142644Y-4094644D01*
X14142644Y-4165356D01*
X14213356Y-4165356D01*
X14434356Y-7400356D02*
X14434356Y-7329644D01*
X14363644Y-7329644D01*
X14363644Y-7400356D01*
X14434356Y-7400356D01*
X14467356Y-4165356D02*
X14467356Y-4094644D01*
X14396644Y-4094644D01*
X14396644Y-4165356D01*
X14467356Y-4165356D01*
X14688356Y-7400356D02*
X14688356Y-7329644D01*
X14617644Y-7329644D01*
X14617644Y-7400356D01*
X14688356Y-7400356D01*
X14721356Y-4165356D02*
X14721356Y-4094644D01*
X14650644Y-4094644D01*
X14650644Y-4165356D01*
X14721356Y-4165356D01*
X14942356Y-7400356D02*
X14942356Y-7329644D01*
X14871644Y-7329644D01*
X14871644Y-7400356D01*
X14942356Y-7400356D01*
X14975356Y-4165356D02*
X14975356Y-4094644D01*
X14904644Y-4094644D01*
X14904644Y-4165356D01*
X14975356Y-4165356D01*
X15196356Y-7400356D02*
X15196356Y-7329644D01*
X15125644Y-7329644D01*
X15125644Y-7400356D01*
X15196356Y-7400356D01*
X15450356Y-7400356D02*
X15450356Y-7329644D01*
X15379644Y-7329644D01*
X15379644Y-7400356D01*
X15450356Y-7400356D01*
X16175444Y-4484356D02*
X16175444Y-4413644D01*
X16104733Y-4413644D01*
X16104733Y-4484356D01*
X16175444Y-4484356D01*
X16395415Y-4611356D02*
X16395415Y-4540644D01*
X16324703Y-4540644D01*
X16324703Y-4611356D01*
X16395415Y-4611356D01*
X16475356Y-8861356D02*
X16475356Y-8790644D01*
X16404644Y-8790644D01*
X16404644Y-8861356D01*
X16475356Y-8861356D01*
X16475356Y-9115356D02*
X16475356Y-9044644D01*
X16404644Y-9044644D01*
X16404644Y-9115356D01*
X16475356Y-9115356D01*
X16615385Y-4738356D02*
X16615385Y-4667644D01*
X16544674Y-4667644D01*
X16544674Y-4738356D01*
X16615385Y-4738356D01*
X16835356Y-4865356D02*
X16835356Y-4794644D01*
X16764644Y-4794644D01*
X16764644Y-4865356D01*
X16835356Y-4865356D01*
X17724356Y-5755444D02*
X17724356Y-5684733D01*
X17653644Y-5684733D01*
X17653644Y-5755444D01*
X17724356Y-5755444D01*
X17851356Y-5975415D02*
X17851356Y-5904703D01*
X17780644Y-5904703D01*
X17780644Y-5975415D01*
X17851356Y-5975415D01*
X17978356Y-6195385D02*
X17978356Y-6124674D01*
X17907644Y-6124674D01*
X17907644Y-6195385D01*
X17978356Y-6195385D01*
X18105356Y-6415356D02*
X18105356Y-6344644D01*
X18034644Y-6344644D01*
X18034644Y-6415356D01*
X18105356Y-6415356D01*
D13*
X16000000Y-7997000D02*
X16055000Y-7942000D01*
X16000000Y-7887000D01*
X15945000Y-7942000D01*
X16000000Y-7997000D01*
X16000000Y-8251000D02*
X16055000Y-8196000D01*
X16000000Y-8141000D01*
X15945000Y-8196000D01*
X16000000Y-8251000D01*
X16000000Y-8505000D02*
X16055000Y-8450000D01*
X16000000Y-8395000D01*
X15945000Y-8450000D01*
X16000000Y-8505000D01*
D11*
X10948277Y-14323984D02*
X10948277Y-14123984D01*
X10948277Y-14123984D02*
X10995896Y-14123984D01*
X10995896Y-14123984D02*
X11024467Y-14133508D01*
X11024467Y-14133508D02*
X11043515Y-14152555D01*
X11043515Y-14152555D02*
X11053039Y-14171603D01*
X11053039Y-14171603D02*
X11062563Y-14209698D01*
X11062563Y-14209698D02*
X11062563Y-14238269D01*
X11062563Y-14238269D02*
X11053039Y-14276365D01*
X11053039Y-14276365D02*
X11043515Y-14295412D01*
X11043515Y-14295412D02*
X11024467Y-14314460D01*
X11024467Y-14314460D02*
X10995896Y-14323984D01*
X10995896Y-14323984D02*
X10948277Y-14323984D01*
X11148277Y-14323984D02*
X11148277Y-14190650D01*
X11148277Y-14228746D02*
X11157801Y-14209698D01*
X11157801Y-14209698D02*
X11167324Y-14200174D01*
X11167324Y-14200174D02*
X11186372Y-14190650D01*
X11186372Y-14190650D02*
X11205420Y-14190650D01*
X11272086Y-14323984D02*
X11272086Y-14190650D01*
X11272086Y-14123984D02*
X11262562Y-14133508D01*
X11262562Y-14133508D02*
X11272086Y-14143031D01*
X11272086Y-14143031D02*
X11281610Y-14133508D01*
X11281610Y-14133508D02*
X11272086Y-14123984D01*
X11272086Y-14123984D02*
X11272086Y-14143031D01*
X11395896Y-14323984D02*
X11376848Y-14314460D01*
X11376848Y-14314460D02*
X11367324Y-14295412D01*
X11367324Y-14295412D02*
X11367324Y-14123984D01*
X11500658Y-14323984D02*
X11481610Y-14314460D01*
X11481610Y-14314460D02*
X11472086Y-14295412D01*
X11472086Y-14295412D02*
X11472086Y-14123984D01*
X11729229Y-14323984D02*
X11729229Y-14123984D01*
X11729229Y-14123984D02*
X11795896Y-14266841D01*
X11795896Y-14266841D02*
X11862562Y-14123984D01*
X11862562Y-14123984D02*
X11862562Y-14323984D01*
X12043515Y-14323984D02*
X12043515Y-14219222D01*
X12043515Y-14219222D02*
X12033991Y-14200174D01*
X12033991Y-14200174D02*
X12014943Y-14190650D01*
X12014943Y-14190650D02*
X11976848Y-14190650D01*
X11976848Y-14190650D02*
X11957801Y-14200174D01*
X12043515Y-14314460D02*
X12024467Y-14323984D01*
X12024467Y-14323984D02*
X11976848Y-14323984D01*
X11976848Y-14323984D02*
X11957801Y-14314460D01*
X11957801Y-14314460D02*
X11948277Y-14295412D01*
X11948277Y-14295412D02*
X11948277Y-14276365D01*
X11948277Y-14276365D02*
X11957801Y-14257317D01*
X11957801Y-14257317D02*
X11976848Y-14247793D01*
X11976848Y-14247793D02*
X12024467Y-14247793D01*
X12024467Y-14247793D02*
X12043515Y-14238269D01*
X12138753Y-14190650D02*
X12138753Y-14390650D01*
X12138753Y-14200174D02*
X12157801Y-14190650D01*
X12157801Y-14190650D02*
X12195896Y-14190650D01*
X12195896Y-14190650D02*
X12214943Y-14200174D01*
X12214943Y-14200174D02*
X12224467Y-14209698D01*
X12224467Y-14209698D02*
X12233991Y-14228746D01*
X12233991Y-14228746D02*
X12233991Y-14285888D01*
X12233991Y-14285888D02*
X12224467Y-14304936D01*
X12224467Y-14304936D02*
X12214943Y-14314460D01*
X12214943Y-14314460D02*
X12195896Y-14323984D01*
X12195896Y-14323984D02*
X12157801Y-14323984D01*
X12157801Y-14323984D02*
X12138753Y-14314460D01*
X12319705Y-14304936D02*
X12329229Y-14314460D01*
X12329229Y-14314460D02*
X12319705Y-14323984D01*
X12319705Y-14323984D02*
X12310182Y-14314460D01*
X12310182Y-14314460D02*
X12319705Y-14304936D01*
X12319705Y-14304936D02*
X12319705Y-14323984D01*
X12319705Y-14200174D02*
X12329229Y-14209698D01*
X12329229Y-14209698D02*
X12319705Y-14219222D01*
X12319705Y-14219222D02*
X12310182Y-14209698D01*
X12310182Y-14209698D02*
X12319705Y-14200174D01*
X12319705Y-14200174D02*
X12319705Y-14219222D01*
D12*
X10657500Y-14637500D02*
X10687500Y-14667500D01*
X10687500Y-14637500D02*
X10657500Y-14667500D01*
D11*
X10986372Y-14543984D02*
X11005420Y-14543984D01*
X11005420Y-14543984D02*
X11024467Y-14553508D01*
X11024467Y-14553508D02*
X11033991Y-14563031D01*
X11033991Y-14563031D02*
X11043515Y-14582079D01*
X11043515Y-14582079D02*
X11053039Y-14620174D01*
X11053039Y-14620174D02*
X11053039Y-14667793D01*
X11053039Y-14667793D02*
X11043515Y-14705888D01*
X11043515Y-14705888D02*
X11033991Y-14724936D01*
X11033991Y-14724936D02*
X11024467Y-14734460D01*
X11024467Y-14734460D02*
X11005420Y-14743984D01*
X11005420Y-14743984D02*
X10986372Y-14743984D01*
X10986372Y-14743984D02*
X10967324Y-14734460D01*
X10967324Y-14734460D02*
X10957801Y-14724936D01*
X10957801Y-14724936D02*
X10948277Y-14705888D01*
X10948277Y-14705888D02*
X10938753Y-14667793D01*
X10938753Y-14667793D02*
X10938753Y-14620174D01*
X10938753Y-14620174D02*
X10948277Y-14582079D01*
X10948277Y-14582079D02*
X10957801Y-14563031D01*
X10957801Y-14563031D02*
X10967324Y-14553508D01*
X10967324Y-14553508D02*
X10986372Y-14543984D01*
X11138753Y-14724936D02*
X11148277Y-14734460D01*
X11148277Y-14734460D02*
X11138753Y-14743984D01*
X11138753Y-14743984D02*
X11129229Y-14734460D01*
X11129229Y-14734460D02*
X11138753Y-14724936D01*
X11138753Y-14724936D02*
X11138753Y-14743984D01*
X11214943Y-14543984D02*
X11338753Y-14543984D01*
X11338753Y-14543984D02*
X11272086Y-14620174D01*
X11272086Y-14620174D02*
X11300658Y-14620174D01*
X11300658Y-14620174D02*
X11319705Y-14629698D01*
X11319705Y-14629698D02*
X11329229Y-14639222D01*
X11329229Y-14639222D02*
X11338753Y-14658269D01*
X11338753Y-14658269D02*
X11338753Y-14705888D01*
X11338753Y-14705888D02*
X11329229Y-14724936D01*
X11329229Y-14724936D02*
X11319705Y-14734460D01*
X11319705Y-14734460D02*
X11300658Y-14743984D01*
X11300658Y-14743984D02*
X11243515Y-14743984D01*
X11243515Y-14743984D02*
X11224467Y-14734460D01*
X11224467Y-14734460D02*
X11214943Y-14724936D01*
X11462562Y-14543984D02*
X11481610Y-14543984D01*
X11481610Y-14543984D02*
X11500658Y-14553508D01*
X11500658Y-14553508D02*
X11510182Y-14563031D01*
X11510182Y-14563031D02*
X11519705Y-14582079D01*
X11519705Y-14582079D02*
X11529229Y-14620174D01*
X11529229Y-14620174D02*
X11529229Y-14667793D01*
X11529229Y-14667793D02*
X11519705Y-14705888D01*
X11519705Y-14705888D02*
X11510182Y-14724936D01*
X11510182Y-14724936D02*
X11500658Y-14734460D01*
X11500658Y-14734460D02*
X11481610Y-14743984D01*
X11481610Y-14743984D02*
X11462562Y-14743984D01*
X11462562Y-14743984D02*
X11443515Y-14734460D01*
X11443515Y-14734460D02*
X11433991Y-14724936D01*
X11433991Y-14724936D02*
X11424467Y-14705888D01*
X11424467Y-14705888D02*
X11414943Y-14667793D01*
X11414943Y-14667793D02*
X11414943Y-14620174D01*
X11414943Y-14620174D02*
X11424467Y-14582079D01*
X11424467Y-14582079D02*
X11433991Y-14563031D01*
X11433991Y-14563031D02*
X11443515Y-14553508D01*
X11443515Y-14553508D02*
X11462562Y-14543984D01*
X11653039Y-14543984D02*
X11672086Y-14543984D01*
X11672086Y-14543984D02*
X11691134Y-14553508D01*
X11691134Y-14553508D02*
X11700658Y-14563031D01*
X11700658Y-14563031D02*
X11710182Y-14582079D01*
X11710182Y-14582079D02*
X11719705Y-14620174D01*
X11719705Y-14620174D02*
X11719705Y-14667793D01*
X11719705Y-14667793D02*
X11710182Y-14705888D01*
X11710182Y-14705888D02*
X11700658Y-14724936D01*
X11700658Y-14724936D02*
X11691134Y-14734460D01*
X11691134Y-14734460D02*
X11672086Y-14743984D01*
X11672086Y-14743984D02*
X11653039Y-14743984D01*
X11653039Y-14743984D02*
X11633991Y-14734460D01*
X11633991Y-14734460D02*
X11624467Y-14724936D01*
X11624467Y-14724936D02*
X11614943Y-14705888D01*
X11614943Y-14705888D02*
X11605420Y-14667793D01*
X11605420Y-14667793D02*
X11605420Y-14620174D01*
X11605420Y-14620174D02*
X11614943Y-14582079D01*
X11614943Y-14582079D02*
X11624467Y-14563031D01*
X11624467Y-14563031D02*
X11633991Y-14553508D01*
X11633991Y-14553508D02*
X11653039Y-14543984D01*
X11805420Y-14743984D02*
X11805420Y-14610650D01*
X11805420Y-14629698D02*
X11814943Y-14620174D01*
X11814943Y-14620174D02*
X11833991Y-14610650D01*
X11833991Y-14610650D02*
X11862563Y-14610650D01*
X11862563Y-14610650D02*
X11881610Y-14620174D01*
X11881610Y-14620174D02*
X11891134Y-14639222D01*
X11891134Y-14639222D02*
X11891134Y-14743984D01*
X11891134Y-14639222D02*
X11900658Y-14620174D01*
X11900658Y-14620174D02*
X11919705Y-14610650D01*
X11919705Y-14610650D02*
X11948277Y-14610650D01*
X11948277Y-14610650D02*
X11967324Y-14620174D01*
X11967324Y-14620174D02*
X11976848Y-14639222D01*
X11976848Y-14639222D02*
X11976848Y-14743984D01*
X12072086Y-14743984D02*
X12072086Y-14610650D01*
X12072086Y-14629698D02*
X12081610Y-14620174D01*
X12081610Y-14620174D02*
X12100658Y-14610650D01*
X12100658Y-14610650D02*
X12129229Y-14610650D01*
X12129229Y-14610650D02*
X12148277Y-14620174D01*
X12148277Y-14620174D02*
X12157801Y-14639222D01*
X12157801Y-14639222D02*
X12157801Y-14743984D01*
X12157801Y-14639222D02*
X12167324Y-14620174D01*
X12167324Y-14620174D02*
X12186372Y-14610650D01*
X12186372Y-14610650D02*
X12214943Y-14610650D01*
X12214943Y-14610650D02*
X12233991Y-14620174D01*
X12233991Y-14620174D02*
X12243515Y-14639222D01*
X12243515Y-14639222D02*
X12243515Y-14743984D01*
X12633991Y-14534460D02*
X12462563Y-14791603D01*
X12891134Y-14543984D02*
X12910182Y-14543984D01*
X12910182Y-14543984D02*
X12929229Y-14553508D01*
X12929229Y-14553508D02*
X12938753Y-14563031D01*
X12938753Y-14563031D02*
X12948277Y-14582079D01*
X12948277Y-14582079D02*
X12957801Y-14620174D01*
X12957801Y-14620174D02*
X12957801Y-14667793D01*
X12957801Y-14667793D02*
X12948277Y-14705888D01*
X12948277Y-14705888D02*
X12938753Y-14724936D01*
X12938753Y-14724936D02*
X12929229Y-14734460D01*
X12929229Y-14734460D02*
X12910182Y-14743984D01*
X12910182Y-14743984D02*
X12891134Y-14743984D01*
X12891134Y-14743984D02*
X12872086Y-14734460D01*
X12872086Y-14734460D02*
X12862563Y-14724936D01*
X12862563Y-14724936D02*
X12853039Y-14705888D01*
X12853039Y-14705888D02*
X12843515Y-14667793D01*
X12843515Y-14667793D02*
X12843515Y-14620174D01*
X12843515Y-14620174D02*
X12853039Y-14582079D01*
X12853039Y-14582079D02*
X12862563Y-14563031D01*
X12862563Y-14563031D02*
X12872086Y-14553508D01*
X12872086Y-14553508D02*
X12891134Y-14543984D01*
X13043515Y-14724936D02*
X13053039Y-14734460D01*
X13053039Y-14734460D02*
X13043515Y-14743984D01*
X13043515Y-14743984D02*
X13033991Y-14734460D01*
X13033991Y-14734460D02*
X13043515Y-14724936D01*
X13043515Y-14724936D02*
X13043515Y-14743984D01*
X13176848Y-14543984D02*
X13195896Y-14543984D01*
X13195896Y-14543984D02*
X13214944Y-14553508D01*
X13214944Y-14553508D02*
X13224467Y-14563031D01*
X13224467Y-14563031D02*
X13233991Y-14582079D01*
X13233991Y-14582079D02*
X13243515Y-14620174D01*
X13243515Y-14620174D02*
X13243515Y-14667793D01*
X13243515Y-14667793D02*
X13233991Y-14705888D01*
X13233991Y-14705888D02*
X13224467Y-14724936D01*
X13224467Y-14724936D02*
X13214944Y-14734460D01*
X13214944Y-14734460D02*
X13195896Y-14743984D01*
X13195896Y-14743984D02*
X13176848Y-14743984D01*
X13176848Y-14743984D02*
X13157801Y-14734460D01*
X13157801Y-14734460D02*
X13148277Y-14724936D01*
X13148277Y-14724936D02*
X13138753Y-14705888D01*
X13138753Y-14705888D02*
X13129229Y-14667793D01*
X13129229Y-14667793D02*
X13129229Y-14620174D01*
X13129229Y-14620174D02*
X13138753Y-14582079D01*
X13138753Y-14582079D02*
X13148277Y-14563031D01*
X13148277Y-14563031D02*
X13157801Y-14553508D01*
X13157801Y-14553508D02*
X13176848Y-14543984D01*
X13433991Y-14743984D02*
X13319706Y-14743984D01*
X13376848Y-14743984D02*
X13376848Y-14543984D01*
X13376848Y-14543984D02*
X13357801Y-14572555D01*
X13357801Y-14572555D02*
X13338753Y-14591603D01*
X13338753Y-14591603D02*
X13319706Y-14601127D01*
X13624467Y-14743984D02*
X13510182Y-14743984D01*
X13567325Y-14743984D02*
X13567325Y-14543984D01*
X13567325Y-14543984D02*
X13548277Y-14572555D01*
X13548277Y-14572555D02*
X13529229Y-14591603D01*
X13529229Y-14591603D02*
X13510182Y-14601127D01*
X13738753Y-14629698D02*
X13719706Y-14620174D01*
X13719706Y-14620174D02*
X13710182Y-14610650D01*
X13710182Y-14610650D02*
X13700658Y-14591603D01*
X13700658Y-14591603D02*
X13700658Y-14582079D01*
X13700658Y-14582079D02*
X13710182Y-14563031D01*
X13710182Y-14563031D02*
X13719706Y-14553508D01*
X13719706Y-14553508D02*
X13738753Y-14543984D01*
X13738753Y-14543984D02*
X13776848Y-14543984D01*
X13776848Y-14543984D02*
X13795896Y-14553508D01*
X13795896Y-14553508D02*
X13805420Y-14563031D01*
X13805420Y-14563031D02*
X13814944Y-14582079D01*
X13814944Y-14582079D02*
X13814944Y-14591603D01*
X13814944Y-14591603D02*
X13805420Y-14610650D01*
X13805420Y-14610650D02*
X13795896Y-14620174D01*
X13795896Y-14620174D02*
X13776848Y-14629698D01*
X13776848Y-14629698D02*
X13738753Y-14629698D01*
X13738753Y-14629698D02*
X13719706Y-14639222D01*
X13719706Y-14639222D02*
X13710182Y-14648746D01*
X13710182Y-14648746D02*
X13700658Y-14667793D01*
X13700658Y-14667793D02*
X13700658Y-14705888D01*
X13700658Y-14705888D02*
X13710182Y-14724936D01*
X13710182Y-14724936D02*
X13719706Y-14734460D01*
X13719706Y-14734460D02*
X13738753Y-14743984D01*
X13738753Y-14743984D02*
X13776848Y-14743984D01*
X13776848Y-14743984D02*
X13795896Y-14734460D01*
X13795896Y-14734460D02*
X13805420Y-14724936D01*
X13805420Y-14724936D02*
X13814944Y-14705888D01*
X13814944Y-14705888D02*
X13814944Y-14667793D01*
X13814944Y-14667793D02*
X13805420Y-14648746D01*
X13805420Y-14648746D02*
X13795896Y-14639222D01*
X13795896Y-14639222D02*
X13776848Y-14629698D01*
X13891134Y-14543984D02*
X13891134Y-14582079D01*
X13967325Y-14543984D02*
X13967325Y-14582079D01*
X14262563Y-14820174D02*
X14253039Y-14810650D01*
X14253039Y-14810650D02*
X14233991Y-14782079D01*
X14233991Y-14782079D02*
X14224468Y-14763031D01*
X14224468Y-14763031D02*
X14214944Y-14734460D01*
X14214944Y-14734460D02*
X14205420Y-14686841D01*
X14205420Y-14686841D02*
X14205420Y-14648746D01*
X14205420Y-14648746D02*
X14214944Y-14601127D01*
X14214944Y-14601127D02*
X14224468Y-14572555D01*
X14224468Y-14572555D02*
X14233991Y-14553508D01*
X14233991Y-14553508D02*
X14253039Y-14524936D01*
X14253039Y-14524936D02*
X14262563Y-14515412D01*
X14424468Y-14610650D02*
X14424468Y-14743984D01*
X14376848Y-14534460D02*
X14329229Y-14677317D01*
X14329229Y-14677317D02*
X14453039Y-14677317D01*
X14557801Y-14629698D02*
X14538753Y-14620174D01*
X14538753Y-14620174D02*
X14529229Y-14610650D01*
X14529229Y-14610650D02*
X14519706Y-14591603D01*
X14519706Y-14591603D02*
X14519706Y-14582079D01*
X14519706Y-14582079D02*
X14529229Y-14563031D01*
X14529229Y-14563031D02*
X14538753Y-14553508D01*
X14538753Y-14553508D02*
X14557801Y-14543984D01*
X14557801Y-14543984D02*
X14595896Y-14543984D01*
X14595896Y-14543984D02*
X14614944Y-14553508D01*
X14614944Y-14553508D02*
X14624468Y-14563031D01*
X14624468Y-14563031D02*
X14633991Y-14582079D01*
X14633991Y-14582079D02*
X14633991Y-14591603D01*
X14633991Y-14591603D02*
X14624468Y-14610650D01*
X14624468Y-14610650D02*
X14614944Y-14620174D01*
X14614944Y-14620174D02*
X14595896Y-14629698D01*
X14595896Y-14629698D02*
X14557801Y-14629698D01*
X14557801Y-14629698D02*
X14538753Y-14639222D01*
X14538753Y-14639222D02*
X14529229Y-14648746D01*
X14529229Y-14648746D02*
X14519706Y-14667793D01*
X14519706Y-14667793D02*
X14519706Y-14705888D01*
X14519706Y-14705888D02*
X14529229Y-14724936D01*
X14529229Y-14724936D02*
X14538753Y-14734460D01*
X14538753Y-14734460D02*
X14557801Y-14743984D01*
X14557801Y-14743984D02*
X14595896Y-14743984D01*
X14595896Y-14743984D02*
X14614944Y-14734460D01*
X14614944Y-14734460D02*
X14624468Y-14724936D01*
X14624468Y-14724936D02*
X14633991Y-14705888D01*
X14633991Y-14705888D02*
X14633991Y-14667793D01*
X14633991Y-14667793D02*
X14624468Y-14648746D01*
X14624468Y-14648746D02*
X14614944Y-14639222D01*
X14614944Y-14639222D02*
X14595896Y-14629698D01*
X14872087Y-14743984D02*
X14872087Y-14543984D01*
X14957801Y-14743984D02*
X14957801Y-14639222D01*
X14957801Y-14639222D02*
X14948277Y-14620174D01*
X14948277Y-14620174D02*
X14929230Y-14610650D01*
X14929230Y-14610650D02*
X14900658Y-14610650D01*
X14900658Y-14610650D02*
X14881610Y-14620174D01*
X14881610Y-14620174D02*
X14872087Y-14629698D01*
X15081610Y-14743984D02*
X15062563Y-14734460D01*
X15062563Y-14734460D02*
X15053039Y-14724936D01*
X15053039Y-14724936D02*
X15043515Y-14705888D01*
X15043515Y-14705888D02*
X15043515Y-14648746D01*
X15043515Y-14648746D02*
X15053039Y-14629698D01*
X15053039Y-14629698D02*
X15062563Y-14620174D01*
X15062563Y-14620174D02*
X15081610Y-14610650D01*
X15081610Y-14610650D02*
X15110182Y-14610650D01*
X15110182Y-14610650D02*
X15129230Y-14620174D01*
X15129230Y-14620174D02*
X15138753Y-14629698D01*
X15138753Y-14629698D02*
X15148277Y-14648746D01*
X15148277Y-14648746D02*
X15148277Y-14705888D01*
X15148277Y-14705888D02*
X15138753Y-14724936D01*
X15138753Y-14724936D02*
X15129230Y-14734460D01*
X15129230Y-14734460D02*
X15110182Y-14743984D01*
X15110182Y-14743984D02*
X15081610Y-14743984D01*
X15262563Y-14743984D02*
X15243515Y-14734460D01*
X15243515Y-14734460D02*
X15233991Y-14715412D01*
X15233991Y-14715412D02*
X15233991Y-14543984D01*
X15414944Y-14734460D02*
X15395896Y-14743984D01*
X15395896Y-14743984D02*
X15357801Y-14743984D01*
X15357801Y-14743984D02*
X15338753Y-14734460D01*
X15338753Y-14734460D02*
X15329230Y-14715412D01*
X15329230Y-14715412D02*
X15329230Y-14639222D01*
X15329230Y-14639222D02*
X15338753Y-14620174D01*
X15338753Y-14620174D02*
X15357801Y-14610650D01*
X15357801Y-14610650D02*
X15395896Y-14610650D01*
X15395896Y-14610650D02*
X15414944Y-14620174D01*
X15414944Y-14620174D02*
X15424468Y-14639222D01*
X15424468Y-14639222D02*
X15424468Y-14658269D01*
X15424468Y-14658269D02*
X15329230Y-14677317D01*
X15500658Y-14734460D02*
X15519706Y-14743984D01*
X15519706Y-14743984D02*
X15557801Y-14743984D01*
X15557801Y-14743984D02*
X15576849Y-14734460D01*
X15576849Y-14734460D02*
X15586372Y-14715412D01*
X15586372Y-14715412D02*
X15586372Y-14705888D01*
X15586372Y-14705888D02*
X15576849Y-14686841D01*
X15576849Y-14686841D02*
X15557801Y-14677317D01*
X15557801Y-14677317D02*
X15529230Y-14677317D01*
X15529230Y-14677317D02*
X15510182Y-14667793D01*
X15510182Y-14667793D02*
X15500658Y-14648746D01*
X15500658Y-14648746D02*
X15500658Y-14639222D01*
X15500658Y-14639222D02*
X15510182Y-14620174D01*
X15510182Y-14620174D02*
X15529230Y-14610650D01*
X15529230Y-14610650D02*
X15557801Y-14610650D01*
X15557801Y-14610650D02*
X15576849Y-14620174D01*
X15653039Y-14820174D02*
X15662563Y-14810650D01*
X15662563Y-14810650D02*
X15681611Y-14782079D01*
X15681611Y-14782079D02*
X15691134Y-14763031D01*
X15691134Y-14763031D02*
X15700658Y-14734460D01*
X15700658Y-14734460D02*
X15710182Y-14686841D01*
X15710182Y-14686841D02*
X15710182Y-14648746D01*
X15710182Y-14648746D02*
X15700658Y-14601127D01*
X15700658Y-14601127D02*
X15691134Y-14572555D01*
X15691134Y-14572555D02*
X15681611Y-14553508D01*
X15681611Y-14553508D02*
X15662563Y-14524936D01*
X15662563Y-14524936D02*
X15653039Y-14515412D01*
D12*
X10687500Y-14916500D02*
G75*
G02*
X10617500Y-14916500I-35000J0D01*
G01*
X10617500Y-14916500D02*
G75*
G02*
X10687500Y-14916500I35000J0D01*
G01*
D11*
X10986372Y-14807984D02*
X11005420Y-14807984D01*
X11005420Y-14807984D02*
X11024467Y-14817508D01*
X11024467Y-14817508D02*
X11033991Y-14827031D01*
X11033991Y-14827031D02*
X11043515Y-14846079D01*
X11043515Y-14846079D02*
X11053039Y-14884174D01*
X11053039Y-14884174D02*
X11053039Y-14931793D01*
X11053039Y-14931793D02*
X11043515Y-14969888D01*
X11043515Y-14969888D02*
X11033991Y-14988936D01*
X11033991Y-14988936D02*
X11024467Y-14998460D01*
X11024467Y-14998460D02*
X11005420Y-15007984D01*
X11005420Y-15007984D02*
X10986372Y-15007984D01*
X10986372Y-15007984D02*
X10967324Y-14998460D01*
X10967324Y-14998460D02*
X10957801Y-14988936D01*
X10957801Y-14988936D02*
X10948277Y-14969888D01*
X10948277Y-14969888D02*
X10938753Y-14931793D01*
X10938753Y-14931793D02*
X10938753Y-14884174D01*
X10938753Y-14884174D02*
X10948277Y-14846079D01*
X10948277Y-14846079D02*
X10957801Y-14827031D01*
X10957801Y-14827031D02*
X10967324Y-14817508D01*
X10967324Y-14817508D02*
X10986372Y-14807984D01*
X11138753Y-14988936D02*
X11148277Y-14998460D01*
X11148277Y-14998460D02*
X11138753Y-15007984D01*
X11138753Y-15007984D02*
X11129229Y-14998460D01*
X11129229Y-14998460D02*
X11138753Y-14988936D01*
X11138753Y-14988936D02*
X11138753Y-15007984D01*
X11214943Y-14807984D02*
X11348277Y-14807984D01*
X11348277Y-14807984D02*
X11262562Y-15007984D01*
X11462562Y-14807984D02*
X11481610Y-14807984D01*
X11481610Y-14807984D02*
X11500658Y-14817508D01*
X11500658Y-14817508D02*
X11510182Y-14827031D01*
X11510182Y-14827031D02*
X11519705Y-14846079D01*
X11519705Y-14846079D02*
X11529229Y-14884174D01*
X11529229Y-14884174D02*
X11529229Y-14931793D01*
X11529229Y-14931793D02*
X11519705Y-14969888D01*
X11519705Y-14969888D02*
X11510182Y-14988936D01*
X11510182Y-14988936D02*
X11500658Y-14998460D01*
X11500658Y-14998460D02*
X11481610Y-15007984D01*
X11481610Y-15007984D02*
X11462562Y-15007984D01*
X11462562Y-15007984D02*
X11443515Y-14998460D01*
X11443515Y-14998460D02*
X11433991Y-14988936D01*
X11433991Y-14988936D02*
X11424467Y-14969888D01*
X11424467Y-14969888D02*
X11414943Y-14931793D01*
X11414943Y-14931793D02*
X11414943Y-14884174D01*
X11414943Y-14884174D02*
X11424467Y-14846079D01*
X11424467Y-14846079D02*
X11433991Y-14827031D01*
X11433991Y-14827031D02*
X11443515Y-14817508D01*
X11443515Y-14817508D02*
X11462562Y-14807984D01*
X11653039Y-14807984D02*
X11672086Y-14807984D01*
X11672086Y-14807984D02*
X11691134Y-14817508D01*
X11691134Y-14817508D02*
X11700658Y-14827031D01*
X11700658Y-14827031D02*
X11710182Y-14846079D01*
X11710182Y-14846079D02*
X11719705Y-14884174D01*
X11719705Y-14884174D02*
X11719705Y-14931793D01*
X11719705Y-14931793D02*
X11710182Y-14969888D01*
X11710182Y-14969888D02*
X11700658Y-14988936D01*
X11700658Y-14988936D02*
X11691134Y-14998460D01*
X11691134Y-14998460D02*
X11672086Y-15007984D01*
X11672086Y-15007984D02*
X11653039Y-15007984D01*
X11653039Y-15007984D02*
X11633991Y-14998460D01*
X11633991Y-14998460D02*
X11624467Y-14988936D01*
X11624467Y-14988936D02*
X11614943Y-14969888D01*
X11614943Y-14969888D02*
X11605420Y-14931793D01*
X11605420Y-14931793D02*
X11605420Y-14884174D01*
X11605420Y-14884174D02*
X11614943Y-14846079D01*
X11614943Y-14846079D02*
X11624467Y-14827031D01*
X11624467Y-14827031D02*
X11633991Y-14817508D01*
X11633991Y-14817508D02*
X11653039Y-14807984D01*
X11805420Y-15007984D02*
X11805420Y-14874650D01*
X11805420Y-14893698D02*
X11814943Y-14884174D01*
X11814943Y-14884174D02*
X11833991Y-14874650D01*
X11833991Y-14874650D02*
X11862563Y-14874650D01*
X11862563Y-14874650D02*
X11881610Y-14884174D01*
X11881610Y-14884174D02*
X11891134Y-14903222D01*
X11891134Y-14903222D02*
X11891134Y-15007984D01*
X11891134Y-14903222D02*
X11900658Y-14884174D01*
X11900658Y-14884174D02*
X11919705Y-14874650D01*
X11919705Y-14874650D02*
X11948277Y-14874650D01*
X11948277Y-14874650D02*
X11967324Y-14884174D01*
X11967324Y-14884174D02*
X11976848Y-14903222D01*
X11976848Y-14903222D02*
X11976848Y-15007984D01*
X12072086Y-15007984D02*
X12072086Y-14874650D01*
X12072086Y-14893698D02*
X12081610Y-14884174D01*
X12081610Y-14884174D02*
X12100658Y-14874650D01*
X12100658Y-14874650D02*
X12129229Y-14874650D01*
X12129229Y-14874650D02*
X12148277Y-14884174D01*
X12148277Y-14884174D02*
X12157801Y-14903222D01*
X12157801Y-14903222D02*
X12157801Y-15007984D01*
X12157801Y-14903222D02*
X12167324Y-14884174D01*
X12167324Y-14884174D02*
X12186372Y-14874650D01*
X12186372Y-14874650D02*
X12214943Y-14874650D01*
X12214943Y-14874650D02*
X12233991Y-14884174D01*
X12233991Y-14884174D02*
X12243515Y-14903222D01*
X12243515Y-14903222D02*
X12243515Y-15007984D01*
X12633991Y-14798460D02*
X12462563Y-15055603D01*
X12891134Y-14807984D02*
X12910182Y-14807984D01*
X12910182Y-14807984D02*
X12929229Y-14817508D01*
X12929229Y-14817508D02*
X12938753Y-14827031D01*
X12938753Y-14827031D02*
X12948277Y-14846079D01*
X12948277Y-14846079D02*
X12957801Y-14884174D01*
X12957801Y-14884174D02*
X12957801Y-14931793D01*
X12957801Y-14931793D02*
X12948277Y-14969888D01*
X12948277Y-14969888D02*
X12938753Y-14988936D01*
X12938753Y-14988936D02*
X12929229Y-14998460D01*
X12929229Y-14998460D02*
X12910182Y-15007984D01*
X12910182Y-15007984D02*
X12891134Y-15007984D01*
X12891134Y-15007984D02*
X12872086Y-14998460D01*
X12872086Y-14998460D02*
X12862563Y-14988936D01*
X12862563Y-14988936D02*
X12853039Y-14969888D01*
X12853039Y-14969888D02*
X12843515Y-14931793D01*
X12843515Y-14931793D02*
X12843515Y-14884174D01*
X12843515Y-14884174D02*
X12853039Y-14846079D01*
X12853039Y-14846079D02*
X12862563Y-14827031D01*
X12862563Y-14827031D02*
X12872086Y-14817508D01*
X12872086Y-14817508D02*
X12891134Y-14807984D01*
X13043515Y-14988936D02*
X13053039Y-14998460D01*
X13053039Y-14998460D02*
X13043515Y-15007984D01*
X13043515Y-15007984D02*
X13033991Y-14998460D01*
X13033991Y-14998460D02*
X13043515Y-14988936D01*
X13043515Y-14988936D02*
X13043515Y-15007984D01*
X13176848Y-14807984D02*
X13195896Y-14807984D01*
X13195896Y-14807984D02*
X13214944Y-14817508D01*
X13214944Y-14817508D02*
X13224467Y-14827031D01*
X13224467Y-14827031D02*
X13233991Y-14846079D01*
X13233991Y-14846079D02*
X13243515Y-14884174D01*
X13243515Y-14884174D02*
X13243515Y-14931793D01*
X13243515Y-14931793D02*
X13233991Y-14969888D01*
X13233991Y-14969888D02*
X13224467Y-14988936D01*
X13224467Y-14988936D02*
X13214944Y-14998460D01*
X13214944Y-14998460D02*
X13195896Y-15007984D01*
X13195896Y-15007984D02*
X13176848Y-15007984D01*
X13176848Y-15007984D02*
X13157801Y-14998460D01*
X13157801Y-14998460D02*
X13148277Y-14988936D01*
X13148277Y-14988936D02*
X13138753Y-14969888D01*
X13138753Y-14969888D02*
X13129229Y-14931793D01*
X13129229Y-14931793D02*
X13129229Y-14884174D01*
X13129229Y-14884174D02*
X13138753Y-14846079D01*
X13138753Y-14846079D02*
X13148277Y-14827031D01*
X13148277Y-14827031D02*
X13157801Y-14817508D01*
X13157801Y-14817508D02*
X13176848Y-14807984D01*
X13319706Y-14827031D02*
X13329229Y-14817508D01*
X13329229Y-14817508D02*
X13348277Y-14807984D01*
X13348277Y-14807984D02*
X13395896Y-14807984D01*
X13395896Y-14807984D02*
X13414944Y-14817508D01*
X13414944Y-14817508D02*
X13424467Y-14827031D01*
X13424467Y-14827031D02*
X13433991Y-14846079D01*
X13433991Y-14846079D02*
X13433991Y-14865127D01*
X13433991Y-14865127D02*
X13424467Y-14893698D01*
X13424467Y-14893698D02*
X13310182Y-15007984D01*
X13310182Y-15007984D02*
X13433991Y-15007984D01*
X13500658Y-14807984D02*
X13633991Y-14807984D01*
X13633991Y-14807984D02*
X13548277Y-15007984D01*
X13795896Y-14807984D02*
X13757801Y-14807984D01*
X13757801Y-14807984D02*
X13738753Y-14817508D01*
X13738753Y-14817508D02*
X13729229Y-14827031D01*
X13729229Y-14827031D02*
X13710182Y-14855603D01*
X13710182Y-14855603D02*
X13700658Y-14893698D01*
X13700658Y-14893698D02*
X13700658Y-14969888D01*
X13700658Y-14969888D02*
X13710182Y-14988936D01*
X13710182Y-14988936D02*
X13719706Y-14998460D01*
X13719706Y-14998460D02*
X13738753Y-15007984D01*
X13738753Y-15007984D02*
X13776848Y-15007984D01*
X13776848Y-15007984D02*
X13795896Y-14998460D01*
X13795896Y-14998460D02*
X13805420Y-14988936D01*
X13805420Y-14988936D02*
X13814944Y-14969888D01*
X13814944Y-14969888D02*
X13814944Y-14922269D01*
X13814944Y-14922269D02*
X13805420Y-14903222D01*
X13805420Y-14903222D02*
X13795896Y-14893698D01*
X13795896Y-14893698D02*
X13776848Y-14884174D01*
X13776848Y-14884174D02*
X13738753Y-14884174D01*
X13738753Y-14884174D02*
X13719706Y-14893698D01*
X13719706Y-14893698D02*
X13710182Y-14903222D01*
X13710182Y-14903222D02*
X13700658Y-14922269D01*
X13891134Y-14807984D02*
X13891134Y-14846079D01*
X13967325Y-14807984D02*
X13967325Y-14846079D01*
X14262563Y-15084174D02*
X14253039Y-15074650D01*
X14253039Y-15074650D02*
X14233991Y-15046079D01*
X14233991Y-15046079D02*
X14224468Y-15027031D01*
X14224468Y-15027031D02*
X14214944Y-14998460D01*
X14214944Y-14998460D02*
X14205420Y-14950841D01*
X14205420Y-14950841D02*
X14205420Y-14912746D01*
X14205420Y-14912746D02*
X14214944Y-14865127D01*
X14214944Y-14865127D02*
X14224468Y-14836555D01*
X14224468Y-14836555D02*
X14233991Y-14817508D01*
X14233991Y-14817508D02*
X14253039Y-14788936D01*
X14253039Y-14788936D02*
X14262563Y-14779412D01*
X14376848Y-14807984D02*
X14395896Y-14807984D01*
X14395896Y-14807984D02*
X14414944Y-14817508D01*
X14414944Y-14817508D02*
X14424468Y-14827031D01*
X14424468Y-14827031D02*
X14433991Y-14846079D01*
X14433991Y-14846079D02*
X14443515Y-14884174D01*
X14443515Y-14884174D02*
X14443515Y-14931793D01*
X14443515Y-14931793D02*
X14433991Y-14969888D01*
X14433991Y-14969888D02*
X14424468Y-14988936D01*
X14424468Y-14988936D02*
X14414944Y-14998460D01*
X14414944Y-14998460D02*
X14395896Y-15007984D01*
X14395896Y-15007984D02*
X14376848Y-15007984D01*
X14376848Y-15007984D02*
X14357801Y-14998460D01*
X14357801Y-14998460D02*
X14348277Y-14988936D01*
X14348277Y-14988936D02*
X14338753Y-14969888D01*
X14338753Y-14969888D02*
X14329229Y-14931793D01*
X14329229Y-14931793D02*
X14329229Y-14884174D01*
X14329229Y-14884174D02*
X14338753Y-14846079D01*
X14338753Y-14846079D02*
X14348277Y-14827031D01*
X14348277Y-14827031D02*
X14357801Y-14817508D01*
X14357801Y-14817508D02*
X14376848Y-14807984D01*
X14681610Y-15007984D02*
X14681610Y-14807984D01*
X14767325Y-15007984D02*
X14767325Y-14903222D01*
X14767325Y-14903222D02*
X14757801Y-14884174D01*
X14757801Y-14884174D02*
X14738753Y-14874650D01*
X14738753Y-14874650D02*
X14710182Y-14874650D01*
X14710182Y-14874650D02*
X14691134Y-14884174D01*
X14691134Y-14884174D02*
X14681610Y-14893698D01*
X14891134Y-15007984D02*
X14872087Y-14998460D01*
X14872087Y-14998460D02*
X14862563Y-14988936D01*
X14862563Y-14988936D02*
X14853039Y-14969888D01*
X14853039Y-14969888D02*
X14853039Y-14912746D01*
X14853039Y-14912746D02*
X14862563Y-14893698D01*
X14862563Y-14893698D02*
X14872087Y-14884174D01*
X14872087Y-14884174D02*
X14891134Y-14874650D01*
X14891134Y-14874650D02*
X14919706Y-14874650D01*
X14919706Y-14874650D02*
X14938753Y-14884174D01*
X14938753Y-14884174D02*
X14948277Y-14893698D01*
X14948277Y-14893698D02*
X14957801Y-14912746D01*
X14957801Y-14912746D02*
X14957801Y-14969888D01*
X14957801Y-14969888D02*
X14948277Y-14988936D01*
X14948277Y-14988936D02*
X14938753Y-14998460D01*
X14938753Y-14998460D02*
X14919706Y-15007984D01*
X14919706Y-15007984D02*
X14891134Y-15007984D01*
X15072087Y-15007984D02*
X15053039Y-14998460D01*
X15053039Y-14998460D02*
X15043515Y-14979412D01*
X15043515Y-14979412D02*
X15043515Y-14807984D01*
X15224468Y-14998460D02*
X15205420Y-15007984D01*
X15205420Y-15007984D02*
X15167325Y-15007984D01*
X15167325Y-15007984D02*
X15148277Y-14998460D01*
X15148277Y-14998460D02*
X15138753Y-14979412D01*
X15138753Y-14979412D02*
X15138753Y-14903222D01*
X15138753Y-14903222D02*
X15148277Y-14884174D01*
X15148277Y-14884174D02*
X15167325Y-14874650D01*
X15167325Y-14874650D02*
X15205420Y-14874650D01*
X15205420Y-14874650D02*
X15224468Y-14884174D01*
X15224468Y-14884174D02*
X15233991Y-14903222D01*
X15233991Y-14903222D02*
X15233991Y-14922269D01*
X15233991Y-14922269D02*
X15138753Y-14941317D01*
X15310182Y-14998460D02*
X15329230Y-15007984D01*
X15329230Y-15007984D02*
X15367325Y-15007984D01*
X15367325Y-15007984D02*
X15386372Y-14998460D01*
X15386372Y-14998460D02*
X15395896Y-14979412D01*
X15395896Y-14979412D02*
X15395896Y-14969888D01*
X15395896Y-14969888D02*
X15386372Y-14950841D01*
X15386372Y-14950841D02*
X15367325Y-14941317D01*
X15367325Y-14941317D02*
X15338753Y-14941317D01*
X15338753Y-14941317D02*
X15319706Y-14931793D01*
X15319706Y-14931793D02*
X15310182Y-14912746D01*
X15310182Y-14912746D02*
X15310182Y-14903222D01*
X15310182Y-14903222D02*
X15319706Y-14884174D01*
X15319706Y-14884174D02*
X15338753Y-14874650D01*
X15338753Y-14874650D02*
X15367325Y-14874650D01*
X15367325Y-14874650D02*
X15386372Y-14884174D01*
X15633992Y-14931793D02*
X15786373Y-14931793D01*
X15710182Y-15007984D02*
X15710182Y-14855603D01*
X16024468Y-14827031D02*
X16033992Y-14817508D01*
X16033992Y-14817508D02*
X16053039Y-14807984D01*
X16053039Y-14807984D02*
X16100658Y-14807984D01*
X16100658Y-14807984D02*
X16119706Y-14817508D01*
X16119706Y-14817508D02*
X16129230Y-14827031D01*
X16129230Y-14827031D02*
X16138753Y-14846079D01*
X16138753Y-14846079D02*
X16138753Y-14865127D01*
X16138753Y-14865127D02*
X16129230Y-14893698D01*
X16129230Y-14893698D02*
X16014944Y-15007984D01*
X16014944Y-15007984D02*
X16138753Y-15007984D01*
X16367325Y-14998460D02*
X16386373Y-15007984D01*
X16386373Y-15007984D02*
X16424468Y-15007984D01*
X16424468Y-15007984D02*
X16443515Y-14998460D01*
X16443515Y-14998460D02*
X16453039Y-14979412D01*
X16453039Y-14979412D02*
X16453039Y-14969888D01*
X16453039Y-14969888D02*
X16443515Y-14950841D01*
X16443515Y-14950841D02*
X16424468Y-14941317D01*
X16424468Y-14941317D02*
X16395896Y-14941317D01*
X16395896Y-14941317D02*
X16376849Y-14931793D01*
X16376849Y-14931793D02*
X16367325Y-14912746D01*
X16367325Y-14912746D02*
X16367325Y-14903222D01*
X16367325Y-14903222D02*
X16376849Y-14884174D01*
X16376849Y-14884174D02*
X16395896Y-14874650D01*
X16395896Y-14874650D02*
X16424468Y-14874650D01*
X16424468Y-14874650D02*
X16443515Y-14884174D01*
X16567325Y-15007984D02*
X16548277Y-14998460D01*
X16548277Y-14998460D02*
X16538754Y-14979412D01*
X16538754Y-14979412D02*
X16538754Y-14807984D01*
X16672087Y-15007984D02*
X16653039Y-14998460D01*
X16653039Y-14998460D02*
X16643515Y-14988936D01*
X16643515Y-14988936D02*
X16633992Y-14969888D01*
X16633992Y-14969888D02*
X16633992Y-14912746D01*
X16633992Y-14912746D02*
X16643515Y-14893698D01*
X16643515Y-14893698D02*
X16653039Y-14884174D01*
X16653039Y-14884174D02*
X16672087Y-14874650D01*
X16672087Y-14874650D02*
X16700658Y-14874650D01*
X16700658Y-14874650D02*
X16719706Y-14884174D01*
X16719706Y-14884174D02*
X16729230Y-14893698D01*
X16729230Y-14893698D02*
X16738754Y-14912746D01*
X16738754Y-14912746D02*
X16738754Y-14969888D01*
X16738754Y-14969888D02*
X16729230Y-14988936D01*
X16729230Y-14988936D02*
X16719706Y-14998460D01*
X16719706Y-14998460D02*
X16700658Y-15007984D01*
X16700658Y-15007984D02*
X16672087Y-15007984D01*
X16795897Y-14874650D02*
X16872087Y-14874650D01*
X16824468Y-14807984D02*
X16824468Y-14979412D01*
X16824468Y-14979412D02*
X16833992Y-14998460D01*
X16833992Y-14998460D02*
X16853039Y-15007984D01*
X16853039Y-15007984D02*
X16872087Y-15007984D01*
X16929230Y-14998460D02*
X16948277Y-15007984D01*
X16948277Y-15007984D02*
X16986373Y-15007984D01*
X16986373Y-15007984D02*
X17005420Y-14998460D01*
X17005420Y-14998460D02*
X17014944Y-14979412D01*
X17014944Y-14979412D02*
X17014944Y-14969888D01*
X17014944Y-14969888D02*
X17005420Y-14950841D01*
X17005420Y-14950841D02*
X16986373Y-14941317D01*
X16986373Y-14941317D02*
X16957801Y-14941317D01*
X16957801Y-14941317D02*
X16938754Y-14931793D01*
X16938754Y-14931793D02*
X16929230Y-14912746D01*
X16929230Y-14912746D02*
X16929230Y-14903222D01*
X16929230Y-14903222D02*
X16938754Y-14884174D01*
X16938754Y-14884174D02*
X16957801Y-14874650D01*
X16957801Y-14874650D02*
X16986373Y-14874650D01*
X16986373Y-14874650D02*
X17005420Y-14884174D01*
X17081611Y-15084174D02*
X17091135Y-15074650D01*
X17091135Y-15074650D02*
X17110182Y-15046079D01*
X17110182Y-15046079D02*
X17119706Y-15027031D01*
X17119706Y-15027031D02*
X17129230Y-14998460D01*
X17129230Y-14998460D02*
X17138754Y-14950841D01*
X17138754Y-14950841D02*
X17138754Y-14912746D01*
X17138754Y-14912746D02*
X17129230Y-14865127D01*
X17129230Y-14865127D02*
X17119706Y-14836555D01*
X17119706Y-14836555D02*
X17110182Y-14817508D01*
X17110182Y-14817508D02*
X17091135Y-14788936D01*
X17091135Y-14788936D02*
X17081611Y-14779412D01*
D12*
X10647500Y-15140500D02*
X10647500Y-15220500D01*
X10607500Y-15180500D02*
X10687500Y-15180500D01*
D11*
X10986372Y-15071984D02*
X11005420Y-15071984D01*
X11005420Y-15071984D02*
X11024467Y-15081508D01*
X11024467Y-15081508D02*
X11033991Y-15091031D01*
X11033991Y-15091031D02*
X11043515Y-15110079D01*
X11043515Y-15110079D02*
X11053039Y-15148174D01*
X11053039Y-15148174D02*
X11053039Y-15195793D01*
X11053039Y-15195793D02*
X11043515Y-15233888D01*
X11043515Y-15233888D02*
X11033991Y-15252936D01*
X11033991Y-15252936D02*
X11024467Y-15262460D01*
X11024467Y-15262460D02*
X11005420Y-15271984D01*
X11005420Y-15271984D02*
X10986372Y-15271984D01*
X10986372Y-15271984D02*
X10967324Y-15262460D01*
X10967324Y-15262460D02*
X10957801Y-15252936D01*
X10957801Y-15252936D02*
X10948277Y-15233888D01*
X10948277Y-15233888D02*
X10938753Y-15195793D01*
X10938753Y-15195793D02*
X10938753Y-15148174D01*
X10938753Y-15148174D02*
X10948277Y-15110079D01*
X10948277Y-15110079D02*
X10957801Y-15091031D01*
X10957801Y-15091031D02*
X10967324Y-15081508D01*
X10967324Y-15081508D02*
X10986372Y-15071984D01*
X11138753Y-15252936D02*
X11148277Y-15262460D01*
X11148277Y-15262460D02*
X11138753Y-15271984D01*
X11138753Y-15271984D02*
X11129229Y-15262460D01*
X11129229Y-15262460D02*
X11138753Y-15252936D01*
X11138753Y-15252936D02*
X11138753Y-15271984D01*
X11262562Y-15157698D02*
X11243515Y-15148174D01*
X11243515Y-15148174D02*
X11233991Y-15138650D01*
X11233991Y-15138650D02*
X11224467Y-15119603D01*
X11224467Y-15119603D02*
X11224467Y-15110079D01*
X11224467Y-15110079D02*
X11233991Y-15091031D01*
X11233991Y-15091031D02*
X11243515Y-15081508D01*
X11243515Y-15081508D02*
X11262562Y-15071984D01*
X11262562Y-15071984D02*
X11300658Y-15071984D01*
X11300658Y-15071984D02*
X11319705Y-15081508D01*
X11319705Y-15081508D02*
X11329229Y-15091031D01*
X11329229Y-15091031D02*
X11338753Y-15110079D01*
X11338753Y-15110079D02*
X11338753Y-15119603D01*
X11338753Y-15119603D02*
X11329229Y-15138650D01*
X11329229Y-15138650D02*
X11319705Y-15148174D01*
X11319705Y-15148174D02*
X11300658Y-15157698D01*
X11300658Y-15157698D02*
X11262562Y-15157698D01*
X11262562Y-15157698D02*
X11243515Y-15167222D01*
X11243515Y-15167222D02*
X11233991Y-15176746D01*
X11233991Y-15176746D02*
X11224467Y-15195793D01*
X11224467Y-15195793D02*
X11224467Y-15233888D01*
X11224467Y-15233888D02*
X11233991Y-15252936D01*
X11233991Y-15252936D02*
X11243515Y-15262460D01*
X11243515Y-15262460D02*
X11262562Y-15271984D01*
X11262562Y-15271984D02*
X11300658Y-15271984D01*
X11300658Y-15271984D02*
X11319705Y-15262460D01*
X11319705Y-15262460D02*
X11329229Y-15252936D01*
X11329229Y-15252936D02*
X11338753Y-15233888D01*
X11338753Y-15233888D02*
X11338753Y-15195793D01*
X11338753Y-15195793D02*
X11329229Y-15176746D01*
X11329229Y-15176746D02*
X11319705Y-15167222D01*
X11319705Y-15167222D02*
X11300658Y-15157698D01*
X11462562Y-15071984D02*
X11481610Y-15071984D01*
X11481610Y-15071984D02*
X11500658Y-15081508D01*
X11500658Y-15081508D02*
X11510182Y-15091031D01*
X11510182Y-15091031D02*
X11519705Y-15110079D01*
X11519705Y-15110079D02*
X11529229Y-15148174D01*
X11529229Y-15148174D02*
X11529229Y-15195793D01*
X11529229Y-15195793D02*
X11519705Y-15233888D01*
X11519705Y-15233888D02*
X11510182Y-15252936D01*
X11510182Y-15252936D02*
X11500658Y-15262460D01*
X11500658Y-15262460D02*
X11481610Y-15271984D01*
X11481610Y-15271984D02*
X11462562Y-15271984D01*
X11462562Y-15271984D02*
X11443515Y-15262460D01*
X11443515Y-15262460D02*
X11433991Y-15252936D01*
X11433991Y-15252936D02*
X11424467Y-15233888D01*
X11424467Y-15233888D02*
X11414943Y-15195793D01*
X11414943Y-15195793D02*
X11414943Y-15148174D01*
X11414943Y-15148174D02*
X11424467Y-15110079D01*
X11424467Y-15110079D02*
X11433991Y-15091031D01*
X11433991Y-15091031D02*
X11443515Y-15081508D01*
X11443515Y-15081508D02*
X11462562Y-15071984D01*
X11653039Y-15071984D02*
X11672086Y-15071984D01*
X11672086Y-15071984D02*
X11691134Y-15081508D01*
X11691134Y-15081508D02*
X11700658Y-15091031D01*
X11700658Y-15091031D02*
X11710182Y-15110079D01*
X11710182Y-15110079D02*
X11719705Y-15148174D01*
X11719705Y-15148174D02*
X11719705Y-15195793D01*
X11719705Y-15195793D02*
X11710182Y-15233888D01*
X11710182Y-15233888D02*
X11700658Y-15252936D01*
X11700658Y-15252936D02*
X11691134Y-15262460D01*
X11691134Y-15262460D02*
X11672086Y-15271984D01*
X11672086Y-15271984D02*
X11653039Y-15271984D01*
X11653039Y-15271984D02*
X11633991Y-15262460D01*
X11633991Y-15262460D02*
X11624467Y-15252936D01*
X11624467Y-15252936D02*
X11614943Y-15233888D01*
X11614943Y-15233888D02*
X11605420Y-15195793D01*
X11605420Y-15195793D02*
X11605420Y-15148174D01*
X11605420Y-15148174D02*
X11614943Y-15110079D01*
X11614943Y-15110079D02*
X11624467Y-15091031D01*
X11624467Y-15091031D02*
X11633991Y-15081508D01*
X11633991Y-15081508D02*
X11653039Y-15071984D01*
X11805420Y-15271984D02*
X11805420Y-15138650D01*
X11805420Y-15157698D02*
X11814943Y-15148174D01*
X11814943Y-15148174D02*
X11833991Y-15138650D01*
X11833991Y-15138650D02*
X11862563Y-15138650D01*
X11862563Y-15138650D02*
X11881610Y-15148174D01*
X11881610Y-15148174D02*
X11891134Y-15167222D01*
X11891134Y-15167222D02*
X11891134Y-15271984D01*
X11891134Y-15167222D02*
X11900658Y-15148174D01*
X11900658Y-15148174D02*
X11919705Y-15138650D01*
X11919705Y-15138650D02*
X11948277Y-15138650D01*
X11948277Y-15138650D02*
X11967324Y-15148174D01*
X11967324Y-15148174D02*
X11976848Y-15167222D01*
X11976848Y-15167222D02*
X11976848Y-15271984D01*
X12072086Y-15271984D02*
X12072086Y-15138650D01*
X12072086Y-15157698D02*
X12081610Y-15148174D01*
X12081610Y-15148174D02*
X12100658Y-15138650D01*
X12100658Y-15138650D02*
X12129229Y-15138650D01*
X12129229Y-15138650D02*
X12148277Y-15148174D01*
X12148277Y-15148174D02*
X12157801Y-15167222D01*
X12157801Y-15167222D02*
X12157801Y-15271984D01*
X12157801Y-15167222D02*
X12167324Y-15148174D01*
X12167324Y-15148174D02*
X12186372Y-15138650D01*
X12186372Y-15138650D02*
X12214943Y-15138650D01*
X12214943Y-15138650D02*
X12233991Y-15148174D01*
X12233991Y-15148174D02*
X12243515Y-15167222D01*
X12243515Y-15167222D02*
X12243515Y-15271984D01*
X12633991Y-15062460D02*
X12462563Y-15319603D01*
X12891134Y-15071984D02*
X12910182Y-15071984D01*
X12910182Y-15071984D02*
X12929229Y-15081508D01*
X12929229Y-15081508D02*
X12938753Y-15091031D01*
X12938753Y-15091031D02*
X12948277Y-15110079D01*
X12948277Y-15110079D02*
X12957801Y-15148174D01*
X12957801Y-15148174D02*
X12957801Y-15195793D01*
X12957801Y-15195793D02*
X12948277Y-15233888D01*
X12948277Y-15233888D02*
X12938753Y-15252936D01*
X12938753Y-15252936D02*
X12929229Y-15262460D01*
X12929229Y-15262460D02*
X12910182Y-15271984D01*
X12910182Y-15271984D02*
X12891134Y-15271984D01*
X12891134Y-15271984D02*
X12872086Y-15262460D01*
X12872086Y-15262460D02*
X12862563Y-15252936D01*
X12862563Y-15252936D02*
X12853039Y-15233888D01*
X12853039Y-15233888D02*
X12843515Y-15195793D01*
X12843515Y-15195793D02*
X12843515Y-15148174D01*
X12843515Y-15148174D02*
X12853039Y-15110079D01*
X12853039Y-15110079D02*
X12862563Y-15091031D01*
X12862563Y-15091031D02*
X12872086Y-15081508D01*
X12872086Y-15081508D02*
X12891134Y-15071984D01*
X13043515Y-15252936D02*
X13053039Y-15262460D01*
X13053039Y-15262460D02*
X13043515Y-15271984D01*
X13043515Y-15271984D02*
X13033991Y-15262460D01*
X13033991Y-15262460D02*
X13043515Y-15252936D01*
X13043515Y-15252936D02*
X13043515Y-15271984D01*
X13176848Y-15071984D02*
X13195896Y-15071984D01*
X13195896Y-15071984D02*
X13214944Y-15081508D01*
X13214944Y-15081508D02*
X13224467Y-15091031D01*
X13224467Y-15091031D02*
X13233991Y-15110079D01*
X13233991Y-15110079D02*
X13243515Y-15148174D01*
X13243515Y-15148174D02*
X13243515Y-15195793D01*
X13243515Y-15195793D02*
X13233991Y-15233888D01*
X13233991Y-15233888D02*
X13224467Y-15252936D01*
X13224467Y-15252936D02*
X13214944Y-15262460D01*
X13214944Y-15262460D02*
X13195896Y-15271984D01*
X13195896Y-15271984D02*
X13176848Y-15271984D01*
X13176848Y-15271984D02*
X13157801Y-15262460D01*
X13157801Y-15262460D02*
X13148277Y-15252936D01*
X13148277Y-15252936D02*
X13138753Y-15233888D01*
X13138753Y-15233888D02*
X13129229Y-15195793D01*
X13129229Y-15195793D02*
X13129229Y-15148174D01*
X13129229Y-15148174D02*
X13138753Y-15110079D01*
X13138753Y-15110079D02*
X13148277Y-15091031D01*
X13148277Y-15091031D02*
X13157801Y-15081508D01*
X13157801Y-15081508D02*
X13176848Y-15071984D01*
X13310182Y-15071984D02*
X13433991Y-15071984D01*
X13433991Y-15071984D02*
X13367325Y-15148174D01*
X13367325Y-15148174D02*
X13395896Y-15148174D01*
X13395896Y-15148174D02*
X13414944Y-15157698D01*
X13414944Y-15157698D02*
X13424467Y-15167222D01*
X13424467Y-15167222D02*
X13433991Y-15186269D01*
X13433991Y-15186269D02*
X13433991Y-15233888D01*
X13433991Y-15233888D02*
X13424467Y-15252936D01*
X13424467Y-15252936D02*
X13414944Y-15262460D01*
X13414944Y-15262460D02*
X13395896Y-15271984D01*
X13395896Y-15271984D02*
X13338753Y-15271984D01*
X13338753Y-15271984D02*
X13319706Y-15262460D01*
X13319706Y-15262460D02*
X13310182Y-15252936D01*
X13624467Y-15271984D02*
X13510182Y-15271984D01*
X13567325Y-15271984D02*
X13567325Y-15071984D01*
X13567325Y-15071984D02*
X13548277Y-15100555D01*
X13548277Y-15100555D02*
X13529229Y-15119603D01*
X13529229Y-15119603D02*
X13510182Y-15129127D01*
X13805420Y-15071984D02*
X13710182Y-15071984D01*
X13710182Y-15071984D02*
X13700658Y-15167222D01*
X13700658Y-15167222D02*
X13710182Y-15157698D01*
X13710182Y-15157698D02*
X13729229Y-15148174D01*
X13729229Y-15148174D02*
X13776848Y-15148174D01*
X13776848Y-15148174D02*
X13795896Y-15157698D01*
X13795896Y-15157698D02*
X13805420Y-15167222D01*
X13805420Y-15167222D02*
X13814944Y-15186269D01*
X13814944Y-15186269D02*
X13814944Y-15233888D01*
X13814944Y-15233888D02*
X13805420Y-15252936D01*
X13805420Y-15252936D02*
X13795896Y-15262460D01*
X13795896Y-15262460D02*
X13776848Y-15271984D01*
X13776848Y-15271984D02*
X13729229Y-15271984D01*
X13729229Y-15271984D02*
X13710182Y-15262460D01*
X13710182Y-15262460D02*
X13700658Y-15252936D01*
X13891134Y-15071984D02*
X13891134Y-15110079D01*
X13967325Y-15071984D02*
X13967325Y-15110079D01*
X14262563Y-15348174D02*
X14253039Y-15338650D01*
X14253039Y-15338650D02*
X14233991Y-15310079D01*
X14233991Y-15310079D02*
X14224468Y-15291031D01*
X14224468Y-15291031D02*
X14214944Y-15262460D01*
X14214944Y-15262460D02*
X14205420Y-15214841D01*
X14205420Y-15214841D02*
X14205420Y-15176746D01*
X14205420Y-15176746D02*
X14214944Y-15129127D01*
X14214944Y-15129127D02*
X14224468Y-15100555D01*
X14224468Y-15100555D02*
X14233991Y-15081508D01*
X14233991Y-15081508D02*
X14253039Y-15052936D01*
X14253039Y-15052936D02*
X14262563Y-15043412D01*
X14443515Y-15271984D02*
X14329229Y-15271984D01*
X14386372Y-15271984D02*
X14386372Y-15071984D01*
X14386372Y-15071984D02*
X14367325Y-15100555D01*
X14367325Y-15100555D02*
X14348277Y-15119603D01*
X14348277Y-15119603D02*
X14329229Y-15129127D01*
X14624468Y-15071984D02*
X14529229Y-15071984D01*
X14529229Y-15071984D02*
X14519706Y-15167222D01*
X14519706Y-15167222D02*
X14529229Y-15157698D01*
X14529229Y-15157698D02*
X14548277Y-15148174D01*
X14548277Y-15148174D02*
X14595896Y-15148174D01*
X14595896Y-15148174D02*
X14614944Y-15157698D01*
X14614944Y-15157698D02*
X14624468Y-15167222D01*
X14624468Y-15167222D02*
X14633991Y-15186269D01*
X14633991Y-15186269D02*
X14633991Y-15233888D01*
X14633991Y-15233888D02*
X14624468Y-15252936D01*
X14624468Y-15252936D02*
X14614944Y-15262460D01*
X14614944Y-15262460D02*
X14595896Y-15271984D01*
X14595896Y-15271984D02*
X14548277Y-15271984D01*
X14548277Y-15271984D02*
X14529229Y-15262460D01*
X14529229Y-15262460D02*
X14519706Y-15252936D01*
X14872087Y-15271984D02*
X14872087Y-15071984D01*
X14957801Y-15271984D02*
X14957801Y-15167222D01*
X14957801Y-15167222D02*
X14948277Y-15148174D01*
X14948277Y-15148174D02*
X14929230Y-15138650D01*
X14929230Y-15138650D02*
X14900658Y-15138650D01*
X14900658Y-15138650D02*
X14881610Y-15148174D01*
X14881610Y-15148174D02*
X14872087Y-15157698D01*
X15081610Y-15271984D02*
X15062563Y-15262460D01*
X15062563Y-15262460D02*
X15053039Y-15252936D01*
X15053039Y-15252936D02*
X15043515Y-15233888D01*
X15043515Y-15233888D02*
X15043515Y-15176746D01*
X15043515Y-15176746D02*
X15053039Y-15157698D01*
X15053039Y-15157698D02*
X15062563Y-15148174D01*
X15062563Y-15148174D02*
X15081610Y-15138650D01*
X15081610Y-15138650D02*
X15110182Y-15138650D01*
X15110182Y-15138650D02*
X15129230Y-15148174D01*
X15129230Y-15148174D02*
X15138753Y-15157698D01*
X15138753Y-15157698D02*
X15148277Y-15176746D01*
X15148277Y-15176746D02*
X15148277Y-15233888D01*
X15148277Y-15233888D02*
X15138753Y-15252936D01*
X15138753Y-15252936D02*
X15129230Y-15262460D01*
X15129230Y-15262460D02*
X15110182Y-15271984D01*
X15110182Y-15271984D02*
X15081610Y-15271984D01*
X15262563Y-15271984D02*
X15243515Y-15262460D01*
X15243515Y-15262460D02*
X15233991Y-15243412D01*
X15233991Y-15243412D02*
X15233991Y-15071984D01*
X15414944Y-15262460D02*
X15395896Y-15271984D01*
X15395896Y-15271984D02*
X15357801Y-15271984D01*
X15357801Y-15271984D02*
X15338753Y-15262460D01*
X15338753Y-15262460D02*
X15329230Y-15243412D01*
X15329230Y-15243412D02*
X15329230Y-15167222D01*
X15329230Y-15167222D02*
X15338753Y-15148174D01*
X15338753Y-15148174D02*
X15357801Y-15138650D01*
X15357801Y-15138650D02*
X15395896Y-15138650D01*
X15395896Y-15138650D02*
X15414944Y-15148174D01*
X15414944Y-15148174D02*
X15424468Y-15167222D01*
X15424468Y-15167222D02*
X15424468Y-15186269D01*
X15424468Y-15186269D02*
X15329230Y-15205317D01*
X15500658Y-15262460D02*
X15519706Y-15271984D01*
X15519706Y-15271984D02*
X15557801Y-15271984D01*
X15557801Y-15271984D02*
X15576849Y-15262460D01*
X15576849Y-15262460D02*
X15586372Y-15243412D01*
X15586372Y-15243412D02*
X15586372Y-15233888D01*
X15586372Y-15233888D02*
X15576849Y-15214841D01*
X15576849Y-15214841D02*
X15557801Y-15205317D01*
X15557801Y-15205317D02*
X15529230Y-15205317D01*
X15529230Y-15205317D02*
X15510182Y-15195793D01*
X15510182Y-15195793D02*
X15500658Y-15176746D01*
X15500658Y-15176746D02*
X15500658Y-15167222D01*
X15500658Y-15167222D02*
X15510182Y-15148174D01*
X15510182Y-15148174D02*
X15529230Y-15138650D01*
X15529230Y-15138650D02*
X15557801Y-15138650D01*
X15557801Y-15138650D02*
X15576849Y-15148174D01*
X15653039Y-15348174D02*
X15662563Y-15338650D01*
X15662563Y-15338650D02*
X15681611Y-15310079D01*
X15681611Y-15310079D02*
X15691134Y-15291031D01*
X15691134Y-15291031D02*
X15700658Y-15262460D01*
X15700658Y-15262460D02*
X15710182Y-15214841D01*
X15710182Y-15214841D02*
X15710182Y-15176746D01*
X15710182Y-15176746D02*
X15700658Y-15129127D01*
X15700658Y-15129127D02*
X15691134Y-15100555D01*
X15691134Y-15100555D02*
X15681611Y-15081508D01*
X15681611Y-15081508D02*
X15662563Y-15052936D01*
X15662563Y-15052936D02*
X15653039Y-15043412D01*
D12*
X10672856Y-15479856D02*
X10672856Y-15409144D01*
X10602144Y-15409144D01*
X10602144Y-15479856D01*
X10672856Y-15479856D01*
D11*
X11053039Y-15535984D02*
X10938753Y-15535984D01*
X10995896Y-15535984D02*
X10995896Y-15335984D01*
X10995896Y-15335984D02*
X10976848Y-15364555D01*
X10976848Y-15364555D02*
X10957801Y-15383603D01*
X10957801Y-15383603D02*
X10938753Y-15393127D01*
X11138753Y-15516936D02*
X11148277Y-15526460D01*
X11148277Y-15526460D02*
X11138753Y-15535984D01*
X11138753Y-15535984D02*
X11129229Y-15526460D01*
X11129229Y-15526460D02*
X11138753Y-15516936D01*
X11138753Y-15516936D02*
X11138753Y-15535984D01*
X11272086Y-15335984D02*
X11291134Y-15335984D01*
X11291134Y-15335984D02*
X11310182Y-15345508D01*
X11310182Y-15345508D02*
X11319705Y-15355031D01*
X11319705Y-15355031D02*
X11329229Y-15374079D01*
X11329229Y-15374079D02*
X11338753Y-15412174D01*
X11338753Y-15412174D02*
X11338753Y-15459793D01*
X11338753Y-15459793D02*
X11329229Y-15497888D01*
X11329229Y-15497888D02*
X11319705Y-15516936D01*
X11319705Y-15516936D02*
X11310182Y-15526460D01*
X11310182Y-15526460D02*
X11291134Y-15535984D01*
X11291134Y-15535984D02*
X11272086Y-15535984D01*
X11272086Y-15535984D02*
X11253039Y-15526460D01*
X11253039Y-15526460D02*
X11243515Y-15516936D01*
X11243515Y-15516936D02*
X11233991Y-15497888D01*
X11233991Y-15497888D02*
X11224467Y-15459793D01*
X11224467Y-15459793D02*
X11224467Y-15412174D01*
X11224467Y-15412174D02*
X11233991Y-15374079D01*
X11233991Y-15374079D02*
X11243515Y-15355031D01*
X11243515Y-15355031D02*
X11253039Y-15345508D01*
X11253039Y-15345508D02*
X11272086Y-15335984D01*
X11462562Y-15335984D02*
X11481610Y-15335984D01*
X11481610Y-15335984D02*
X11500658Y-15345508D01*
X11500658Y-15345508D02*
X11510182Y-15355031D01*
X11510182Y-15355031D02*
X11519705Y-15374079D01*
X11519705Y-15374079D02*
X11529229Y-15412174D01*
X11529229Y-15412174D02*
X11529229Y-15459793D01*
X11529229Y-15459793D02*
X11519705Y-15497888D01*
X11519705Y-15497888D02*
X11510182Y-15516936D01*
X11510182Y-15516936D02*
X11500658Y-15526460D01*
X11500658Y-15526460D02*
X11481610Y-15535984D01*
X11481610Y-15535984D02*
X11462562Y-15535984D01*
X11462562Y-15535984D02*
X11443515Y-15526460D01*
X11443515Y-15526460D02*
X11433991Y-15516936D01*
X11433991Y-15516936D02*
X11424467Y-15497888D01*
X11424467Y-15497888D02*
X11414943Y-15459793D01*
X11414943Y-15459793D02*
X11414943Y-15412174D01*
X11414943Y-15412174D02*
X11424467Y-15374079D01*
X11424467Y-15374079D02*
X11433991Y-15355031D01*
X11433991Y-15355031D02*
X11443515Y-15345508D01*
X11443515Y-15345508D02*
X11462562Y-15335984D01*
X11653039Y-15335984D02*
X11672086Y-15335984D01*
X11672086Y-15335984D02*
X11691134Y-15345508D01*
X11691134Y-15345508D02*
X11700658Y-15355031D01*
X11700658Y-15355031D02*
X11710182Y-15374079D01*
X11710182Y-15374079D02*
X11719705Y-15412174D01*
X11719705Y-15412174D02*
X11719705Y-15459793D01*
X11719705Y-15459793D02*
X11710182Y-15497888D01*
X11710182Y-15497888D02*
X11700658Y-15516936D01*
X11700658Y-15516936D02*
X11691134Y-15526460D01*
X11691134Y-15526460D02*
X11672086Y-15535984D01*
X11672086Y-15535984D02*
X11653039Y-15535984D01*
X11653039Y-15535984D02*
X11633991Y-15526460D01*
X11633991Y-15526460D02*
X11624467Y-15516936D01*
X11624467Y-15516936D02*
X11614943Y-15497888D01*
X11614943Y-15497888D02*
X11605420Y-15459793D01*
X11605420Y-15459793D02*
X11605420Y-15412174D01*
X11605420Y-15412174D02*
X11614943Y-15374079D01*
X11614943Y-15374079D02*
X11624467Y-15355031D01*
X11624467Y-15355031D02*
X11633991Y-15345508D01*
X11633991Y-15345508D02*
X11653039Y-15335984D01*
X11805420Y-15535984D02*
X11805420Y-15402650D01*
X11805420Y-15421698D02*
X11814943Y-15412174D01*
X11814943Y-15412174D02*
X11833991Y-15402650D01*
X11833991Y-15402650D02*
X11862563Y-15402650D01*
X11862563Y-15402650D02*
X11881610Y-15412174D01*
X11881610Y-15412174D02*
X11891134Y-15431222D01*
X11891134Y-15431222D02*
X11891134Y-15535984D01*
X11891134Y-15431222D02*
X11900658Y-15412174D01*
X11900658Y-15412174D02*
X11919705Y-15402650D01*
X11919705Y-15402650D02*
X11948277Y-15402650D01*
X11948277Y-15402650D02*
X11967324Y-15412174D01*
X11967324Y-15412174D02*
X11976848Y-15431222D01*
X11976848Y-15431222D02*
X11976848Y-15535984D01*
X12072086Y-15535984D02*
X12072086Y-15402650D01*
X12072086Y-15421698D02*
X12081610Y-15412174D01*
X12081610Y-15412174D02*
X12100658Y-15402650D01*
X12100658Y-15402650D02*
X12129229Y-15402650D01*
X12129229Y-15402650D02*
X12148277Y-15412174D01*
X12148277Y-15412174D02*
X12157801Y-15431222D01*
X12157801Y-15431222D02*
X12157801Y-15535984D01*
X12157801Y-15431222D02*
X12167324Y-15412174D01*
X12167324Y-15412174D02*
X12186372Y-15402650D01*
X12186372Y-15402650D02*
X12214943Y-15402650D01*
X12214943Y-15402650D02*
X12233991Y-15412174D01*
X12233991Y-15412174D02*
X12243515Y-15431222D01*
X12243515Y-15431222D02*
X12243515Y-15535984D01*
X12633991Y-15326460D02*
X12462563Y-15583603D01*
X12891134Y-15335984D02*
X12910182Y-15335984D01*
X12910182Y-15335984D02*
X12929229Y-15345508D01*
X12929229Y-15345508D02*
X12938753Y-15355031D01*
X12938753Y-15355031D02*
X12948277Y-15374079D01*
X12948277Y-15374079D02*
X12957801Y-15412174D01*
X12957801Y-15412174D02*
X12957801Y-15459793D01*
X12957801Y-15459793D02*
X12948277Y-15497888D01*
X12948277Y-15497888D02*
X12938753Y-15516936D01*
X12938753Y-15516936D02*
X12929229Y-15526460D01*
X12929229Y-15526460D02*
X12910182Y-15535984D01*
X12910182Y-15535984D02*
X12891134Y-15535984D01*
X12891134Y-15535984D02*
X12872086Y-15526460D01*
X12872086Y-15526460D02*
X12862563Y-15516936D01*
X12862563Y-15516936D02*
X12853039Y-15497888D01*
X12853039Y-15497888D02*
X12843515Y-15459793D01*
X12843515Y-15459793D02*
X12843515Y-15412174D01*
X12843515Y-15412174D02*
X12853039Y-15374079D01*
X12853039Y-15374079D02*
X12862563Y-15355031D01*
X12862563Y-15355031D02*
X12872086Y-15345508D01*
X12872086Y-15345508D02*
X12891134Y-15335984D01*
X13043515Y-15516936D02*
X13053039Y-15526460D01*
X13053039Y-15526460D02*
X13043515Y-15535984D01*
X13043515Y-15535984D02*
X13033991Y-15526460D01*
X13033991Y-15526460D02*
X13043515Y-15516936D01*
X13043515Y-15516936D02*
X13043515Y-15535984D01*
X13176848Y-15335984D02*
X13195896Y-15335984D01*
X13195896Y-15335984D02*
X13214944Y-15345508D01*
X13214944Y-15345508D02*
X13224467Y-15355031D01*
X13224467Y-15355031D02*
X13233991Y-15374079D01*
X13233991Y-15374079D02*
X13243515Y-15412174D01*
X13243515Y-15412174D02*
X13243515Y-15459793D01*
X13243515Y-15459793D02*
X13233991Y-15497888D01*
X13233991Y-15497888D02*
X13224467Y-15516936D01*
X13224467Y-15516936D02*
X13214944Y-15526460D01*
X13214944Y-15526460D02*
X13195896Y-15535984D01*
X13195896Y-15535984D02*
X13176848Y-15535984D01*
X13176848Y-15535984D02*
X13157801Y-15526460D01*
X13157801Y-15526460D02*
X13148277Y-15516936D01*
X13148277Y-15516936D02*
X13138753Y-15497888D01*
X13138753Y-15497888D02*
X13129229Y-15459793D01*
X13129229Y-15459793D02*
X13129229Y-15412174D01*
X13129229Y-15412174D02*
X13138753Y-15374079D01*
X13138753Y-15374079D02*
X13148277Y-15355031D01*
X13148277Y-15355031D02*
X13157801Y-15345508D01*
X13157801Y-15345508D02*
X13176848Y-15335984D01*
X13310182Y-15335984D02*
X13433991Y-15335984D01*
X13433991Y-15335984D02*
X13367325Y-15412174D01*
X13367325Y-15412174D02*
X13395896Y-15412174D01*
X13395896Y-15412174D02*
X13414944Y-15421698D01*
X13414944Y-15421698D02*
X13424467Y-15431222D01*
X13424467Y-15431222D02*
X13433991Y-15450269D01*
X13433991Y-15450269D02*
X13433991Y-15497888D01*
X13433991Y-15497888D02*
X13424467Y-15516936D01*
X13424467Y-15516936D02*
X13414944Y-15526460D01*
X13414944Y-15526460D02*
X13395896Y-15535984D01*
X13395896Y-15535984D02*
X13338753Y-15535984D01*
X13338753Y-15535984D02*
X13319706Y-15526460D01*
X13319706Y-15526460D02*
X13310182Y-15516936D01*
X13529229Y-15535984D02*
X13567325Y-15535984D01*
X13567325Y-15535984D02*
X13586372Y-15526460D01*
X13586372Y-15526460D02*
X13595896Y-15516936D01*
X13595896Y-15516936D02*
X13614944Y-15488365D01*
X13614944Y-15488365D02*
X13624467Y-15450269D01*
X13624467Y-15450269D02*
X13624467Y-15374079D01*
X13624467Y-15374079D02*
X13614944Y-15355031D01*
X13614944Y-15355031D02*
X13605420Y-15345508D01*
X13605420Y-15345508D02*
X13586372Y-15335984D01*
X13586372Y-15335984D02*
X13548277Y-15335984D01*
X13548277Y-15335984D02*
X13529229Y-15345508D01*
X13529229Y-15345508D02*
X13519706Y-15355031D01*
X13519706Y-15355031D02*
X13510182Y-15374079D01*
X13510182Y-15374079D02*
X13510182Y-15421698D01*
X13510182Y-15421698D02*
X13519706Y-15440746D01*
X13519706Y-15440746D02*
X13529229Y-15450269D01*
X13529229Y-15450269D02*
X13548277Y-15459793D01*
X13548277Y-15459793D02*
X13586372Y-15459793D01*
X13586372Y-15459793D02*
X13605420Y-15450269D01*
X13605420Y-15450269D02*
X13614944Y-15440746D01*
X13614944Y-15440746D02*
X13624467Y-15421698D01*
X13795896Y-15402650D02*
X13795896Y-15535984D01*
X13748277Y-15326460D02*
X13700658Y-15469317D01*
X13700658Y-15469317D02*
X13824467Y-15469317D01*
X13891134Y-15335984D02*
X13891134Y-15374079D01*
X13967325Y-15335984D02*
X13967325Y-15374079D01*
X14262563Y-15612174D02*
X14253039Y-15602650D01*
X14253039Y-15602650D02*
X14233991Y-15574079D01*
X14233991Y-15574079D02*
X14224468Y-15555031D01*
X14224468Y-15555031D02*
X14214944Y-15526460D01*
X14214944Y-15526460D02*
X14205420Y-15478841D01*
X14205420Y-15478841D02*
X14205420Y-15440746D01*
X14205420Y-15440746D02*
X14214944Y-15393127D01*
X14214944Y-15393127D02*
X14224468Y-15364555D01*
X14224468Y-15364555D02*
X14233991Y-15345508D01*
X14233991Y-15345508D02*
X14253039Y-15316936D01*
X14253039Y-15316936D02*
X14262563Y-15307412D01*
X14319706Y-15335984D02*
X14443515Y-15335984D01*
X14443515Y-15335984D02*
X14376848Y-15412174D01*
X14376848Y-15412174D02*
X14405420Y-15412174D01*
X14405420Y-15412174D02*
X14424468Y-15421698D01*
X14424468Y-15421698D02*
X14433991Y-15431222D01*
X14433991Y-15431222D02*
X14443515Y-15450269D01*
X14443515Y-15450269D02*
X14443515Y-15497888D01*
X14443515Y-15497888D02*
X14433991Y-15516936D01*
X14433991Y-15516936D02*
X14424468Y-15526460D01*
X14424468Y-15526460D02*
X14405420Y-15535984D01*
X14405420Y-15535984D02*
X14348277Y-15535984D01*
X14348277Y-15535984D02*
X14329229Y-15526460D01*
X14329229Y-15526460D02*
X14319706Y-15516936D01*
X14614944Y-15402650D02*
X14614944Y-15535984D01*
X14567325Y-15326460D02*
X14519706Y-15469317D01*
X14519706Y-15469317D02*
X14643515Y-15469317D01*
X14872087Y-15535984D02*
X14872087Y-15335984D01*
X14957801Y-15535984D02*
X14957801Y-15431222D01*
X14957801Y-15431222D02*
X14948277Y-15412174D01*
X14948277Y-15412174D02*
X14929230Y-15402650D01*
X14929230Y-15402650D02*
X14900658Y-15402650D01*
X14900658Y-15402650D02*
X14881610Y-15412174D01*
X14881610Y-15412174D02*
X14872087Y-15421698D01*
X15081610Y-15535984D02*
X15062563Y-15526460D01*
X15062563Y-15526460D02*
X15053039Y-15516936D01*
X15053039Y-15516936D02*
X15043515Y-15497888D01*
X15043515Y-15497888D02*
X15043515Y-15440746D01*
X15043515Y-15440746D02*
X15053039Y-15421698D01*
X15053039Y-15421698D02*
X15062563Y-15412174D01*
X15062563Y-15412174D02*
X15081610Y-15402650D01*
X15081610Y-15402650D02*
X15110182Y-15402650D01*
X15110182Y-15402650D02*
X15129230Y-15412174D01*
X15129230Y-15412174D02*
X15138753Y-15421698D01*
X15138753Y-15421698D02*
X15148277Y-15440746D01*
X15148277Y-15440746D02*
X15148277Y-15497888D01*
X15148277Y-15497888D02*
X15138753Y-15516936D01*
X15138753Y-15516936D02*
X15129230Y-15526460D01*
X15129230Y-15526460D02*
X15110182Y-15535984D01*
X15110182Y-15535984D02*
X15081610Y-15535984D01*
X15262563Y-15535984D02*
X15243515Y-15526460D01*
X15243515Y-15526460D02*
X15233991Y-15507412D01*
X15233991Y-15507412D02*
X15233991Y-15335984D01*
X15414944Y-15526460D02*
X15395896Y-15535984D01*
X15395896Y-15535984D02*
X15357801Y-15535984D01*
X15357801Y-15535984D02*
X15338753Y-15526460D01*
X15338753Y-15526460D02*
X15329230Y-15507412D01*
X15329230Y-15507412D02*
X15329230Y-15431222D01*
X15329230Y-15431222D02*
X15338753Y-15412174D01*
X15338753Y-15412174D02*
X15357801Y-15402650D01*
X15357801Y-15402650D02*
X15395896Y-15402650D01*
X15395896Y-15402650D02*
X15414944Y-15412174D01*
X15414944Y-15412174D02*
X15424468Y-15431222D01*
X15424468Y-15431222D02*
X15424468Y-15450269D01*
X15424468Y-15450269D02*
X15329230Y-15469317D01*
X15500658Y-15526460D02*
X15519706Y-15535984D01*
X15519706Y-15535984D02*
X15557801Y-15535984D01*
X15557801Y-15535984D02*
X15576849Y-15526460D01*
X15576849Y-15526460D02*
X15586372Y-15507412D01*
X15586372Y-15507412D02*
X15586372Y-15497888D01*
X15586372Y-15497888D02*
X15576849Y-15478841D01*
X15576849Y-15478841D02*
X15557801Y-15469317D01*
X15557801Y-15469317D02*
X15529230Y-15469317D01*
X15529230Y-15469317D02*
X15510182Y-15459793D01*
X15510182Y-15459793D02*
X15500658Y-15440746D01*
X15500658Y-15440746D02*
X15500658Y-15431222D01*
X15500658Y-15431222D02*
X15510182Y-15412174D01*
X15510182Y-15412174D02*
X15529230Y-15402650D01*
X15529230Y-15402650D02*
X15557801Y-15402650D01*
X15557801Y-15402650D02*
X15576849Y-15412174D01*
X15653039Y-15612174D02*
X15662563Y-15602650D01*
X15662563Y-15602650D02*
X15681611Y-15574079D01*
X15681611Y-15574079D02*
X15691134Y-15555031D01*
X15691134Y-15555031D02*
X15700658Y-15526460D01*
X15700658Y-15526460D02*
X15710182Y-15478841D01*
X15710182Y-15478841D02*
X15710182Y-15440746D01*
X15710182Y-15440746D02*
X15700658Y-15393127D01*
X15700658Y-15393127D02*
X15691134Y-15364555D01*
X15691134Y-15364555D02*
X15681611Y-15345508D01*
X15681611Y-15345508D02*
X15662563Y-15316936D01*
X15662563Y-15316936D02*
X15653039Y-15307412D01*
D13*
X10632500Y-15763500D02*
X10687500Y-15708500D01*
X10632500Y-15653500D01*
X10577500Y-15708500D01*
X10632500Y-15763500D01*
D11*
X11053039Y-15799984D02*
X10938753Y-15799984D01*
X10995896Y-15799984D02*
X10995896Y-15599984D01*
X10995896Y-15599984D02*
X10976848Y-15628555D01*
X10976848Y-15628555D02*
X10957801Y-15647603D01*
X10957801Y-15647603D02*
X10938753Y-15657127D01*
X11138753Y-15780936D02*
X11148277Y-15790460D01*
X11148277Y-15790460D02*
X11138753Y-15799984D01*
X11138753Y-15799984D02*
X11129229Y-15790460D01*
X11129229Y-15790460D02*
X11138753Y-15780936D01*
X11138753Y-15780936D02*
X11138753Y-15799984D01*
X11338753Y-15799984D02*
X11224467Y-15799984D01*
X11281610Y-15799984D02*
X11281610Y-15599984D01*
X11281610Y-15599984D02*
X11262562Y-15628555D01*
X11262562Y-15628555D02*
X11243515Y-15647603D01*
X11243515Y-15647603D02*
X11224467Y-15657127D01*
X11462562Y-15599984D02*
X11481610Y-15599984D01*
X11481610Y-15599984D02*
X11500658Y-15609508D01*
X11500658Y-15609508D02*
X11510182Y-15619031D01*
X11510182Y-15619031D02*
X11519705Y-15638079D01*
X11519705Y-15638079D02*
X11529229Y-15676174D01*
X11529229Y-15676174D02*
X11529229Y-15723793D01*
X11529229Y-15723793D02*
X11519705Y-15761888D01*
X11519705Y-15761888D02*
X11510182Y-15780936D01*
X11510182Y-15780936D02*
X11500658Y-15790460D01*
X11500658Y-15790460D02*
X11481610Y-15799984D01*
X11481610Y-15799984D02*
X11462562Y-15799984D01*
X11462562Y-15799984D02*
X11443515Y-15790460D01*
X11443515Y-15790460D02*
X11433991Y-15780936D01*
X11433991Y-15780936D02*
X11424467Y-15761888D01*
X11424467Y-15761888D02*
X11414943Y-15723793D01*
X11414943Y-15723793D02*
X11414943Y-15676174D01*
X11414943Y-15676174D02*
X11424467Y-15638079D01*
X11424467Y-15638079D02*
X11433991Y-15619031D01*
X11433991Y-15619031D02*
X11443515Y-15609508D01*
X11443515Y-15609508D02*
X11462562Y-15599984D01*
X11653039Y-15599984D02*
X11672086Y-15599984D01*
X11672086Y-15599984D02*
X11691134Y-15609508D01*
X11691134Y-15609508D02*
X11700658Y-15619031D01*
X11700658Y-15619031D02*
X11710182Y-15638079D01*
X11710182Y-15638079D02*
X11719705Y-15676174D01*
X11719705Y-15676174D02*
X11719705Y-15723793D01*
X11719705Y-15723793D02*
X11710182Y-15761888D01*
X11710182Y-15761888D02*
X11700658Y-15780936D01*
X11700658Y-15780936D02*
X11691134Y-15790460D01*
X11691134Y-15790460D02*
X11672086Y-15799984D01*
X11672086Y-15799984D02*
X11653039Y-15799984D01*
X11653039Y-15799984D02*
X11633991Y-15790460D01*
X11633991Y-15790460D02*
X11624467Y-15780936D01*
X11624467Y-15780936D02*
X11614943Y-15761888D01*
X11614943Y-15761888D02*
X11605420Y-15723793D01*
X11605420Y-15723793D02*
X11605420Y-15676174D01*
X11605420Y-15676174D02*
X11614943Y-15638079D01*
X11614943Y-15638079D02*
X11624467Y-15619031D01*
X11624467Y-15619031D02*
X11633991Y-15609508D01*
X11633991Y-15609508D02*
X11653039Y-15599984D01*
X11805420Y-15799984D02*
X11805420Y-15666650D01*
X11805420Y-15685698D02*
X11814943Y-15676174D01*
X11814943Y-15676174D02*
X11833991Y-15666650D01*
X11833991Y-15666650D02*
X11862563Y-15666650D01*
X11862563Y-15666650D02*
X11881610Y-15676174D01*
X11881610Y-15676174D02*
X11891134Y-15695222D01*
X11891134Y-15695222D02*
X11891134Y-15799984D01*
X11891134Y-15695222D02*
X11900658Y-15676174D01*
X11900658Y-15676174D02*
X11919705Y-15666650D01*
X11919705Y-15666650D02*
X11948277Y-15666650D01*
X11948277Y-15666650D02*
X11967324Y-15676174D01*
X11967324Y-15676174D02*
X11976848Y-15695222D01*
X11976848Y-15695222D02*
X11976848Y-15799984D01*
X12072086Y-15799984D02*
X12072086Y-15666650D01*
X12072086Y-15685698D02*
X12081610Y-15676174D01*
X12081610Y-15676174D02*
X12100658Y-15666650D01*
X12100658Y-15666650D02*
X12129229Y-15666650D01*
X12129229Y-15666650D02*
X12148277Y-15676174D01*
X12148277Y-15676174D02*
X12157801Y-15695222D01*
X12157801Y-15695222D02*
X12157801Y-15799984D01*
X12157801Y-15695222D02*
X12167324Y-15676174D01*
X12167324Y-15676174D02*
X12186372Y-15666650D01*
X12186372Y-15666650D02*
X12214943Y-15666650D01*
X12214943Y-15666650D02*
X12233991Y-15676174D01*
X12233991Y-15676174D02*
X12243515Y-15695222D01*
X12243515Y-15695222D02*
X12243515Y-15799984D01*
X12633991Y-15590460D02*
X12462563Y-15847603D01*
X12891134Y-15599984D02*
X12910182Y-15599984D01*
X12910182Y-15599984D02*
X12929229Y-15609508D01*
X12929229Y-15609508D02*
X12938753Y-15619031D01*
X12938753Y-15619031D02*
X12948277Y-15638079D01*
X12948277Y-15638079D02*
X12957801Y-15676174D01*
X12957801Y-15676174D02*
X12957801Y-15723793D01*
X12957801Y-15723793D02*
X12948277Y-15761888D01*
X12948277Y-15761888D02*
X12938753Y-15780936D01*
X12938753Y-15780936D02*
X12929229Y-15790460D01*
X12929229Y-15790460D02*
X12910182Y-15799984D01*
X12910182Y-15799984D02*
X12891134Y-15799984D01*
X12891134Y-15799984D02*
X12872086Y-15790460D01*
X12872086Y-15790460D02*
X12862563Y-15780936D01*
X12862563Y-15780936D02*
X12853039Y-15761888D01*
X12853039Y-15761888D02*
X12843515Y-15723793D01*
X12843515Y-15723793D02*
X12843515Y-15676174D01*
X12843515Y-15676174D02*
X12853039Y-15638079D01*
X12853039Y-15638079D02*
X12862563Y-15619031D01*
X12862563Y-15619031D02*
X12872086Y-15609508D01*
X12872086Y-15609508D02*
X12891134Y-15599984D01*
X13043515Y-15780936D02*
X13053039Y-15790460D01*
X13053039Y-15790460D02*
X13043515Y-15799984D01*
X13043515Y-15799984D02*
X13033991Y-15790460D01*
X13033991Y-15790460D02*
X13043515Y-15780936D01*
X13043515Y-15780936D02*
X13043515Y-15799984D01*
X13176848Y-15599984D02*
X13195896Y-15599984D01*
X13195896Y-15599984D02*
X13214944Y-15609508D01*
X13214944Y-15609508D02*
X13224467Y-15619031D01*
X13224467Y-15619031D02*
X13233991Y-15638079D01*
X13233991Y-15638079D02*
X13243515Y-15676174D01*
X13243515Y-15676174D02*
X13243515Y-15723793D01*
X13243515Y-15723793D02*
X13233991Y-15761888D01*
X13233991Y-15761888D02*
X13224467Y-15780936D01*
X13224467Y-15780936D02*
X13214944Y-15790460D01*
X13214944Y-15790460D02*
X13195896Y-15799984D01*
X13195896Y-15799984D02*
X13176848Y-15799984D01*
X13176848Y-15799984D02*
X13157801Y-15790460D01*
X13157801Y-15790460D02*
X13148277Y-15780936D01*
X13148277Y-15780936D02*
X13138753Y-15761888D01*
X13138753Y-15761888D02*
X13129229Y-15723793D01*
X13129229Y-15723793D02*
X13129229Y-15676174D01*
X13129229Y-15676174D02*
X13138753Y-15638079D01*
X13138753Y-15638079D02*
X13148277Y-15619031D01*
X13148277Y-15619031D02*
X13157801Y-15609508D01*
X13157801Y-15609508D02*
X13176848Y-15599984D01*
X13414944Y-15666650D02*
X13414944Y-15799984D01*
X13367325Y-15590460D02*
X13319706Y-15733317D01*
X13319706Y-15733317D02*
X13443515Y-15733317D01*
X13500658Y-15599984D02*
X13624467Y-15599984D01*
X13624467Y-15599984D02*
X13557801Y-15676174D01*
X13557801Y-15676174D02*
X13586372Y-15676174D01*
X13586372Y-15676174D02*
X13605420Y-15685698D01*
X13605420Y-15685698D02*
X13614944Y-15695222D01*
X13614944Y-15695222D02*
X13624467Y-15714269D01*
X13624467Y-15714269D02*
X13624467Y-15761888D01*
X13624467Y-15761888D02*
X13614944Y-15780936D01*
X13614944Y-15780936D02*
X13605420Y-15790460D01*
X13605420Y-15790460D02*
X13586372Y-15799984D01*
X13586372Y-15799984D02*
X13529229Y-15799984D01*
X13529229Y-15799984D02*
X13510182Y-15790460D01*
X13510182Y-15790460D02*
X13500658Y-15780936D01*
X13691134Y-15599984D02*
X13814944Y-15599984D01*
X13814944Y-15599984D02*
X13748277Y-15676174D01*
X13748277Y-15676174D02*
X13776848Y-15676174D01*
X13776848Y-15676174D02*
X13795896Y-15685698D01*
X13795896Y-15685698D02*
X13805420Y-15695222D01*
X13805420Y-15695222D02*
X13814944Y-15714269D01*
X13814944Y-15714269D02*
X13814944Y-15761888D01*
X13814944Y-15761888D02*
X13805420Y-15780936D01*
X13805420Y-15780936D02*
X13795896Y-15790460D01*
X13795896Y-15790460D02*
X13776848Y-15799984D01*
X13776848Y-15799984D02*
X13719706Y-15799984D01*
X13719706Y-15799984D02*
X13700658Y-15790460D01*
X13700658Y-15790460D02*
X13691134Y-15780936D01*
X13891134Y-15599984D02*
X13891134Y-15638079D01*
X13967325Y-15599984D02*
X13967325Y-15638079D01*
X14262563Y-15876174D02*
X14253039Y-15866650D01*
X14253039Y-15866650D02*
X14233991Y-15838079D01*
X14233991Y-15838079D02*
X14224468Y-15819031D01*
X14224468Y-15819031D02*
X14214944Y-15790460D01*
X14214944Y-15790460D02*
X14205420Y-15742841D01*
X14205420Y-15742841D02*
X14205420Y-15704746D01*
X14205420Y-15704746D02*
X14214944Y-15657127D01*
X14214944Y-15657127D02*
X14224468Y-15628555D01*
X14224468Y-15628555D02*
X14233991Y-15609508D01*
X14233991Y-15609508D02*
X14253039Y-15580936D01*
X14253039Y-15580936D02*
X14262563Y-15571412D01*
X14319706Y-15599984D02*
X14443515Y-15599984D01*
X14443515Y-15599984D02*
X14376848Y-15676174D01*
X14376848Y-15676174D02*
X14405420Y-15676174D01*
X14405420Y-15676174D02*
X14424468Y-15685698D01*
X14424468Y-15685698D02*
X14433991Y-15695222D01*
X14433991Y-15695222D02*
X14443515Y-15714269D01*
X14443515Y-15714269D02*
X14443515Y-15761888D01*
X14443515Y-15761888D02*
X14433991Y-15780936D01*
X14433991Y-15780936D02*
X14424468Y-15790460D01*
X14424468Y-15790460D02*
X14405420Y-15799984D01*
X14405420Y-15799984D02*
X14348277Y-15799984D01*
X14348277Y-15799984D02*
X14329229Y-15790460D01*
X14329229Y-15790460D02*
X14319706Y-15780936D01*
X14681610Y-15799984D02*
X14681610Y-15599984D01*
X14767325Y-15799984D02*
X14767325Y-15695222D01*
X14767325Y-15695222D02*
X14757801Y-15676174D01*
X14757801Y-15676174D02*
X14738753Y-15666650D01*
X14738753Y-15666650D02*
X14710182Y-15666650D01*
X14710182Y-15666650D02*
X14691134Y-15676174D01*
X14691134Y-15676174D02*
X14681610Y-15685698D01*
X14891134Y-15799984D02*
X14872087Y-15790460D01*
X14872087Y-15790460D02*
X14862563Y-15780936D01*
X14862563Y-15780936D02*
X14853039Y-15761888D01*
X14853039Y-15761888D02*
X14853039Y-15704746D01*
X14853039Y-15704746D02*
X14862563Y-15685698D01*
X14862563Y-15685698D02*
X14872087Y-15676174D01*
X14872087Y-15676174D02*
X14891134Y-15666650D01*
X14891134Y-15666650D02*
X14919706Y-15666650D01*
X14919706Y-15666650D02*
X14938753Y-15676174D01*
X14938753Y-15676174D02*
X14948277Y-15685698D01*
X14948277Y-15685698D02*
X14957801Y-15704746D01*
X14957801Y-15704746D02*
X14957801Y-15761888D01*
X14957801Y-15761888D02*
X14948277Y-15780936D01*
X14948277Y-15780936D02*
X14938753Y-15790460D01*
X14938753Y-15790460D02*
X14919706Y-15799984D01*
X14919706Y-15799984D02*
X14891134Y-15799984D01*
X15072087Y-15799984D02*
X15053039Y-15790460D01*
X15053039Y-15790460D02*
X15043515Y-15771412D01*
X15043515Y-15771412D02*
X15043515Y-15599984D01*
X15224468Y-15790460D02*
X15205420Y-15799984D01*
X15205420Y-15799984D02*
X15167325Y-15799984D01*
X15167325Y-15799984D02*
X15148277Y-15790460D01*
X15148277Y-15790460D02*
X15138753Y-15771412D01*
X15138753Y-15771412D02*
X15138753Y-15695222D01*
X15138753Y-15695222D02*
X15148277Y-15676174D01*
X15148277Y-15676174D02*
X15167325Y-15666650D01*
X15167325Y-15666650D02*
X15205420Y-15666650D01*
X15205420Y-15666650D02*
X15224468Y-15676174D01*
X15224468Y-15676174D02*
X15233991Y-15695222D01*
X15233991Y-15695222D02*
X15233991Y-15714269D01*
X15233991Y-15714269D02*
X15138753Y-15733317D01*
X15310182Y-15790460D02*
X15329230Y-15799984D01*
X15329230Y-15799984D02*
X15367325Y-15799984D01*
X15367325Y-15799984D02*
X15386372Y-15790460D01*
X15386372Y-15790460D02*
X15395896Y-15771412D01*
X15395896Y-15771412D02*
X15395896Y-15761888D01*
X15395896Y-15761888D02*
X15386372Y-15742841D01*
X15386372Y-15742841D02*
X15367325Y-15733317D01*
X15367325Y-15733317D02*
X15338753Y-15733317D01*
X15338753Y-15733317D02*
X15319706Y-15723793D01*
X15319706Y-15723793D02*
X15310182Y-15704746D01*
X15310182Y-15704746D02*
X15310182Y-15695222D01*
X15310182Y-15695222D02*
X15319706Y-15676174D01*
X15319706Y-15676174D02*
X15338753Y-15666650D01*
X15338753Y-15666650D02*
X15367325Y-15666650D01*
X15367325Y-15666650D02*
X15386372Y-15676174D01*
X15462563Y-15876174D02*
X15472087Y-15866650D01*
X15472087Y-15866650D02*
X15491134Y-15838079D01*
X15491134Y-15838079D02*
X15500658Y-15819031D01*
X15500658Y-15819031D02*
X15510182Y-15790460D01*
X15510182Y-15790460D02*
X15519706Y-15742841D01*
X15519706Y-15742841D02*
X15519706Y-15704746D01*
X15519706Y-15704746D02*
X15510182Y-15657127D01*
X15510182Y-15657127D02*
X15500658Y-15628555D01*
X15500658Y-15628555D02*
X15491134Y-15609508D01*
X15491134Y-15609508D02*
X15472087Y-15580936D01*
X15472087Y-15580936D02*
X15462563Y-15571412D01*
M02*
