%TF.GenerationSoftware,KiCad,Pcbnew,8.0.6*%
%TF.CreationDate,2025-03-04T23:13:55+07:00*%
%TF.ProjectId,micromouse,6d696372-6f6d-46f7-9573-652e6b696361,rev?*%
%TF.SameCoordinates,Original*%
%TF.FileFunction,Soldermask,Bot*%
%TF.FilePolarity,Negative*%
%FSLAX46Y46*%
G04 Gerber Fmt 4.6, Leading zero omitted, Abs format (unit mm)*
G04 Created by KiCad (PCBNEW 8.0.6) date 2025-03-04 23:13:55*
%MOMM*%
%LPD*%
G01*
G04 APERTURE LIST*
G04 Aperture macros list*
%AMRoundRect*
0 Rectangle with rounded corners*
0 $1 Rounding radius*
0 $2 $3 $4 $5 $6 $7 $8 $9 X,Y pos of 4 corners*
0 Add a 4 corners polygon primitive as box body*
4,1,4,$2,$3,$4,$5,$6,$7,$8,$9,$2,$3,0*
0 Add four circle primitives for the rounded corners*
1,1,$1+$1,$2,$3*
1,1,$1+$1,$4,$5*
1,1,$1+$1,$6,$7*
1,1,$1+$1,$8,$9*
0 Add four rect primitives between the rounded corners*
20,1,$1+$1,$2,$3,$4,$5,0*
20,1,$1+$1,$4,$5,$6,$7,0*
20,1,$1+$1,$6,$7,$8,$9,0*
20,1,$1+$1,$8,$9,$2,$3,0*%
G04 Aperture macros list end*
%ADD10C,2.200000*%
%ADD11R,1.600000X1.600000*%
%ADD12C,1.600000*%
%ADD13C,1.800000*%
%ADD14C,1.700000*%
%ADD15RoundRect,0.102000X-0.654000X0.654000X-0.654000X-0.654000X0.654000X-0.654000X0.654000X0.654000X0*%
%ADD16C,1.512000*%
%ADD17O,2.664000X1.434000*%
%ADD18R,2.000000X1.905000*%
%ADD19O,2.000000X1.905000*%
%ADD20RoundRect,0.250000X-0.450000X0.350000X-0.450000X-0.350000X0.450000X-0.350000X0.450000X0.350000X0*%
%ADD21RoundRect,0.250000X0.450000X-0.350000X0.450000X0.350000X-0.450000X0.350000X-0.450000X-0.350000X0*%
%ADD22RoundRect,0.250000X-0.475000X0.337500X-0.475000X-0.337500X0.475000X-0.337500X0.475000X0.337500X0*%
%ADD23RoundRect,0.125000X-0.125000X0.125000X-0.125000X-0.125000X0.125000X-0.125000X0.125000X0.125000X0*%
%ADD24RoundRect,0.381000X0.762000X0.381000X-0.762000X0.381000X-0.762000X-0.381000X0.762000X-0.381000X0*%
%ADD25RoundRect,0.381000X-0.762000X-0.381000X0.762000X-0.381000X0.762000X0.381000X-0.762000X0.381000X0*%
%ADD26RoundRect,0.250000X-0.337500X-0.475000X0.337500X-0.475000X0.337500X0.475000X-0.337500X0.475000X0*%
%ADD27RoundRect,0.250000X0.475000X-0.337500X0.475000X0.337500X-0.475000X0.337500X-0.475000X-0.337500X0*%
%ADD28R,1.500000X1.500000*%
%ADD29RoundRect,0.250000X0.350000X0.450000X-0.350000X0.450000X-0.350000X-0.450000X0.350000X-0.450000X0*%
G04 APERTURE END LIST*
D10*
%TO.C,H6*%
X169000000Y-134100000D03*
%TD*%
D11*
%TO.C,C13*%
X143550000Y-82100000D03*
D12*
X143550000Y-84100001D03*
%TD*%
D13*
%TO.C,M1*%
X164400000Y-88259998D03*
X164400000Y-90800000D03*
%TD*%
D14*
%TO.C,U10*%
X154150000Y-73650000D03*
X151610000Y-73650000D03*
X149070001Y-73650000D03*
X146530000Y-73650000D03*
X143990000Y-73650000D03*
X141450000Y-73650000D03*
X138910000Y-73650000D03*
X136369999Y-73650000D03*
%TD*%
D10*
%TO.C,H2*%
X130850000Y-115450000D03*
%TD*%
D15*
%TO.C,SW1*%
X132300000Y-74050000D03*
D16*
X132300000Y-76050001D03*
X132300000Y-78050002D03*
D17*
X132300000Y-71850002D03*
X132300000Y-80250000D03*
%TD*%
D10*
%TO.C,H3*%
X122200000Y-78600000D03*
%TD*%
D18*
%TO.C,U2*%
X160000000Y-84500000D03*
D19*
X160000000Y-81960000D03*
X160000000Y-79420001D03*
%TD*%
D10*
%TO.C,H5*%
X122200000Y-134100000D03*
%TD*%
%TO.C,H1*%
X130850000Y-97450000D03*
%TD*%
D11*
%TO.C,C12*%
X160750000Y-73600000D03*
D12*
X162750000Y-73600000D03*
%TD*%
D11*
%TO.C,C15*%
X132750000Y-89294888D03*
D12*
X132750000Y-91294889D03*
%TD*%
D13*
%TO.C,U6*%
X168000000Y-48300000D03*
X165800295Y-47030000D03*
X163600591Y-45760000D03*
X161400886Y-44490000D03*
%TD*%
D11*
%TO.C,C5*%
X143575000Y-76500000D03*
D12*
X143575000Y-78500001D03*
%TD*%
D13*
%TO.C,BT1*%
X139300000Y-97200000D03*
X139300000Y-94659998D03*
%TD*%
%TO.C,U7*%
X114278205Y-57200444D03*
X113008205Y-59400149D03*
X111738205Y-61599853D03*
X110468205Y-63799558D03*
%TD*%
%TO.C,U9*%
X129799557Y-44500000D03*
X127599852Y-45770000D03*
X125400149Y-47040000D03*
X123200443Y-48310000D03*
%TD*%
D10*
%TO.C,H7*%
X160400000Y-97450000D03*
%TD*%
%TO.C,H8*%
X160400000Y-115450000D03*
%TD*%
D13*
%TO.C,U5*%
X180700000Y-63800000D03*
X179430000Y-61600295D03*
X178160000Y-59400591D03*
X176890000Y-57200886D03*
%TD*%
D11*
%TO.C,C6*%
X132750000Y-85500001D03*
D12*
X132750000Y-83500000D03*
%TD*%
D13*
%TO.C,M2*%
X126800000Y-88029999D03*
X126800000Y-90570001D03*
%TD*%
D10*
%TO.C,H4*%
X169000000Y-78600000D03*
%TD*%
D11*
%TO.C,C14*%
X158800000Y-89399999D03*
D12*
X158800000Y-91400000D03*
%TD*%
D13*
%TO.C,U8*%
X149400000Y-41300000D03*
X146860000Y-41300000D03*
X144320001Y-41300000D03*
X141780000Y-41300000D03*
%TD*%
D20*
%TO.C,R13*%
X163200000Y-129200000D03*
X163200000Y-131200000D03*
%TD*%
D21*
%TO.C,R6*%
X126900000Y-125200000D03*
X126900000Y-123200000D03*
%TD*%
D20*
%TO.C,R12*%
X163200000Y-125300000D03*
X163200000Y-127300000D03*
%TD*%
%TO.C,R11*%
X151250000Y-92350000D03*
X151250000Y-94350000D03*
%TD*%
D22*
%TO.C,C7*%
X134100000Y-117225000D03*
X134100000Y-119300000D03*
%TD*%
%TO.C,C16*%
X131300000Y-133762500D03*
X131300000Y-135837500D03*
%TD*%
D21*
%TO.C,R3*%
X129000000Y-135700000D03*
X129000000Y-133700000D03*
%TD*%
%TO.C,R7*%
X147450000Y-90500000D03*
X147450000Y-88500000D03*
%TD*%
%TO.C,R2*%
X129000000Y-131800000D03*
X129000000Y-129800000D03*
%TD*%
%TO.C,R10*%
X151250000Y-98150000D03*
X151250000Y-96150000D03*
%TD*%
D23*
%TO.C,D2*%
X166800000Y-88500000D03*
X166800000Y-90699998D03*
%TD*%
%TO.C,D4*%
X124000000Y-88200002D03*
X124000000Y-90400000D03*
%TD*%
D22*
%TO.C,C10*%
X163249997Y-78425000D03*
X163249997Y-80500000D03*
%TD*%
D20*
%TO.C,R8*%
X147450000Y-96100000D03*
X147450000Y-98100000D03*
%TD*%
%TO.C,R5*%
X151250000Y-88550000D03*
X151250000Y-90550000D03*
%TD*%
D24*
%TO.C,U1*%
X154550000Y-116975000D03*
X154550000Y-119515000D03*
X154550000Y-122055000D03*
X154550000Y-124595000D03*
X154550000Y-127135000D03*
X154550000Y-129675000D03*
X154550000Y-132215000D03*
X154550000Y-134755000D03*
X154550000Y-137295000D03*
D25*
X136550000Y-137295000D03*
X136550000Y-134755000D03*
X136550000Y-132215000D03*
X136550000Y-129675000D03*
X136550000Y-127135000D03*
X136550000Y-124595000D03*
X136550000Y-122055000D03*
X136550000Y-119515000D03*
X136550000Y-116975000D03*
%TD*%
D22*
%TO.C,C8*%
X165250000Y-78425000D03*
X165250000Y-80500000D03*
%TD*%
D26*
%TO.C,C17*%
X166662500Y-119800000D03*
X168737500Y-119800000D03*
%TD*%
D20*
%TO.C,R4*%
X147450000Y-92300000D03*
X147450000Y-94300000D03*
%TD*%
D27*
%TO.C,C4*%
X165300000Y-84375000D03*
X165300000Y-82300000D03*
%TD*%
%TO.C,C2*%
X163300000Y-84375000D03*
X163300000Y-82300000D03*
%TD*%
D28*
%TO.C,SW2*%
X172100000Y-126300000D03*
X172100000Y-118500002D03*
%TD*%
D29*
%TO.C,R9*%
X168700000Y-124600000D03*
X166700000Y-124600000D03*
%TD*%
M02*
