%TF.GenerationSoftware,KiCad,Pcbnew,8.0.6*%
%TF.CreationDate,2025-03-04T23:13:55+07:00*%
%TF.ProjectId,micromouse,6d696372-6f6d-46f7-9573-652e6b696361,rev?*%
%TF.SameCoordinates,Original*%
%TF.FileFunction,Legend,Bot*%
%TF.FilePolarity,Positive*%
%FSLAX46Y46*%
G04 Gerber Fmt 4.6, Leading zero omitted, Abs format (unit mm)*
G04 Created by KiCad (PCBNEW 8.0.6) date 2025-03-04 23:13:55*
%MOMM*%
%LPD*%
G01*
G04 APERTURE LIST*
%ADD10C,0.150000*%
%ADD11C,0.100000*%
%ADD12C,0.120000*%
G04 APERTURE END LIST*
D10*
X162004819Y-129557142D02*
X161528628Y-129223809D01*
X162004819Y-128985714D02*
X161004819Y-128985714D01*
X161004819Y-128985714D02*
X161004819Y-129366666D01*
X161004819Y-129366666D02*
X161052438Y-129461904D01*
X161052438Y-129461904D02*
X161100057Y-129509523D01*
X161100057Y-129509523D02*
X161195295Y-129557142D01*
X161195295Y-129557142D02*
X161338152Y-129557142D01*
X161338152Y-129557142D02*
X161433390Y-129509523D01*
X161433390Y-129509523D02*
X161481009Y-129461904D01*
X161481009Y-129461904D02*
X161528628Y-129366666D01*
X161528628Y-129366666D02*
X161528628Y-128985714D01*
X162004819Y-130509523D02*
X162004819Y-129938095D01*
X162004819Y-130223809D02*
X161004819Y-130223809D01*
X161004819Y-130223809D02*
X161147676Y-130128571D01*
X161147676Y-130128571D02*
X161242914Y-130033333D01*
X161242914Y-130033333D02*
X161290533Y-129938095D01*
X161004819Y-130842857D02*
X161004819Y-131461904D01*
X161004819Y-131461904D02*
X161385771Y-131128571D01*
X161385771Y-131128571D02*
X161385771Y-131271428D01*
X161385771Y-131271428D02*
X161433390Y-131366666D01*
X161433390Y-131366666D02*
X161481009Y-131414285D01*
X161481009Y-131414285D02*
X161576247Y-131461904D01*
X161576247Y-131461904D02*
X161814342Y-131461904D01*
X161814342Y-131461904D02*
X161909580Y-131414285D01*
X161909580Y-131414285D02*
X161957200Y-131366666D01*
X161957200Y-131366666D02*
X162004819Y-131271428D01*
X162004819Y-131271428D02*
X162004819Y-130985714D01*
X162004819Y-130985714D02*
X161957200Y-130890476D01*
X161957200Y-130890476D02*
X161909580Y-130842857D01*
X129004819Y-124033333D02*
X128528628Y-123700000D01*
X129004819Y-123461905D02*
X128004819Y-123461905D01*
X128004819Y-123461905D02*
X128004819Y-123842857D01*
X128004819Y-123842857D02*
X128052438Y-123938095D01*
X128052438Y-123938095D02*
X128100057Y-123985714D01*
X128100057Y-123985714D02*
X128195295Y-124033333D01*
X128195295Y-124033333D02*
X128338152Y-124033333D01*
X128338152Y-124033333D02*
X128433390Y-123985714D01*
X128433390Y-123985714D02*
X128481009Y-123938095D01*
X128481009Y-123938095D02*
X128528628Y-123842857D01*
X128528628Y-123842857D02*
X128528628Y-123461905D01*
X128004819Y-124890476D02*
X128004819Y-124700000D01*
X128004819Y-124700000D02*
X128052438Y-124604762D01*
X128052438Y-124604762D02*
X128100057Y-124557143D01*
X128100057Y-124557143D02*
X128242914Y-124461905D01*
X128242914Y-124461905D02*
X128433390Y-124414286D01*
X128433390Y-124414286D02*
X128814342Y-124414286D01*
X128814342Y-124414286D02*
X128909580Y-124461905D01*
X128909580Y-124461905D02*
X128957200Y-124509524D01*
X128957200Y-124509524D02*
X129004819Y-124604762D01*
X129004819Y-124604762D02*
X129004819Y-124795238D01*
X129004819Y-124795238D02*
X128957200Y-124890476D01*
X128957200Y-124890476D02*
X128909580Y-124938095D01*
X128909580Y-124938095D02*
X128814342Y-124985714D01*
X128814342Y-124985714D02*
X128576247Y-124985714D01*
X128576247Y-124985714D02*
X128481009Y-124938095D01*
X128481009Y-124938095D02*
X128433390Y-124890476D01*
X128433390Y-124890476D02*
X128385771Y-124795238D01*
X128385771Y-124795238D02*
X128385771Y-124604762D01*
X128385771Y-124604762D02*
X128433390Y-124509524D01*
X128433390Y-124509524D02*
X128481009Y-124461905D01*
X128481009Y-124461905D02*
X128576247Y-124414286D01*
X162004819Y-125657142D02*
X161528628Y-125323809D01*
X162004819Y-125085714D02*
X161004819Y-125085714D01*
X161004819Y-125085714D02*
X161004819Y-125466666D01*
X161004819Y-125466666D02*
X161052438Y-125561904D01*
X161052438Y-125561904D02*
X161100057Y-125609523D01*
X161100057Y-125609523D02*
X161195295Y-125657142D01*
X161195295Y-125657142D02*
X161338152Y-125657142D01*
X161338152Y-125657142D02*
X161433390Y-125609523D01*
X161433390Y-125609523D02*
X161481009Y-125561904D01*
X161481009Y-125561904D02*
X161528628Y-125466666D01*
X161528628Y-125466666D02*
X161528628Y-125085714D01*
X162004819Y-126609523D02*
X162004819Y-126038095D01*
X162004819Y-126323809D02*
X161004819Y-126323809D01*
X161004819Y-126323809D02*
X161147676Y-126228571D01*
X161147676Y-126228571D02*
X161242914Y-126133333D01*
X161242914Y-126133333D02*
X161290533Y-126038095D01*
X161100057Y-126990476D02*
X161052438Y-127038095D01*
X161052438Y-127038095D02*
X161004819Y-127133333D01*
X161004819Y-127133333D02*
X161004819Y-127371428D01*
X161004819Y-127371428D02*
X161052438Y-127466666D01*
X161052438Y-127466666D02*
X161100057Y-127514285D01*
X161100057Y-127514285D02*
X161195295Y-127561904D01*
X161195295Y-127561904D02*
X161290533Y-127561904D01*
X161290533Y-127561904D02*
X161433390Y-127514285D01*
X161433390Y-127514285D02*
X162004819Y-126942857D01*
X162004819Y-126942857D02*
X162004819Y-127561904D01*
X150054819Y-92707142D02*
X149578628Y-92373809D01*
X150054819Y-92135714D02*
X149054819Y-92135714D01*
X149054819Y-92135714D02*
X149054819Y-92516666D01*
X149054819Y-92516666D02*
X149102438Y-92611904D01*
X149102438Y-92611904D02*
X149150057Y-92659523D01*
X149150057Y-92659523D02*
X149245295Y-92707142D01*
X149245295Y-92707142D02*
X149388152Y-92707142D01*
X149388152Y-92707142D02*
X149483390Y-92659523D01*
X149483390Y-92659523D02*
X149531009Y-92611904D01*
X149531009Y-92611904D02*
X149578628Y-92516666D01*
X149578628Y-92516666D02*
X149578628Y-92135714D01*
X150054819Y-93659523D02*
X150054819Y-93088095D01*
X150054819Y-93373809D02*
X149054819Y-93373809D01*
X149054819Y-93373809D02*
X149197676Y-93278571D01*
X149197676Y-93278571D02*
X149292914Y-93183333D01*
X149292914Y-93183333D02*
X149340533Y-93088095D01*
X150054819Y-94611904D02*
X150054819Y-94040476D01*
X150054819Y-94326190D02*
X149054819Y-94326190D01*
X149054819Y-94326190D02*
X149197676Y-94230952D01*
X149197676Y-94230952D02*
X149292914Y-94135714D01*
X149292914Y-94135714D02*
X149340533Y-94040476D01*
X132779581Y-118095833D02*
X132827201Y-118048214D01*
X132827201Y-118048214D02*
X132874820Y-117905357D01*
X132874820Y-117905357D02*
X132874820Y-117810119D01*
X132874820Y-117810119D02*
X132827201Y-117667262D01*
X132827201Y-117667262D02*
X132731962Y-117572024D01*
X132731962Y-117572024D02*
X132636724Y-117524405D01*
X132636724Y-117524405D02*
X132446248Y-117476786D01*
X132446248Y-117476786D02*
X132303391Y-117476786D01*
X132303391Y-117476786D02*
X132112915Y-117524405D01*
X132112915Y-117524405D02*
X132017677Y-117572024D01*
X132017677Y-117572024D02*
X131922439Y-117667262D01*
X131922439Y-117667262D02*
X131874820Y-117810119D01*
X131874820Y-117810119D02*
X131874820Y-117905357D01*
X131874820Y-117905357D02*
X131922439Y-118048214D01*
X131922439Y-118048214D02*
X131970058Y-118095833D01*
X131874820Y-118429167D02*
X131874820Y-119095833D01*
X131874820Y-119095833D02*
X132874820Y-118667262D01*
X133609580Y-134357142D02*
X133657200Y-134309523D01*
X133657200Y-134309523D02*
X133704819Y-134166666D01*
X133704819Y-134166666D02*
X133704819Y-134071428D01*
X133704819Y-134071428D02*
X133657200Y-133928571D01*
X133657200Y-133928571D02*
X133561961Y-133833333D01*
X133561961Y-133833333D02*
X133466723Y-133785714D01*
X133466723Y-133785714D02*
X133276247Y-133738095D01*
X133276247Y-133738095D02*
X133133390Y-133738095D01*
X133133390Y-133738095D02*
X132942914Y-133785714D01*
X132942914Y-133785714D02*
X132847676Y-133833333D01*
X132847676Y-133833333D02*
X132752438Y-133928571D01*
X132752438Y-133928571D02*
X132704819Y-134071428D01*
X132704819Y-134071428D02*
X132704819Y-134166666D01*
X132704819Y-134166666D02*
X132752438Y-134309523D01*
X132752438Y-134309523D02*
X132800057Y-134357142D01*
X133704819Y-135309523D02*
X133704819Y-134738095D01*
X133704819Y-135023809D02*
X132704819Y-135023809D01*
X132704819Y-135023809D02*
X132847676Y-134928571D01*
X132847676Y-134928571D02*
X132942914Y-134833333D01*
X132942914Y-134833333D02*
X132990533Y-134738095D01*
X132704819Y-136166666D02*
X132704819Y-135976190D01*
X132704819Y-135976190D02*
X132752438Y-135880952D01*
X132752438Y-135880952D02*
X132800057Y-135833333D01*
X132800057Y-135833333D02*
X132942914Y-135738095D01*
X132942914Y-135738095D02*
X133133390Y-135690476D01*
X133133390Y-135690476D02*
X133514342Y-135690476D01*
X133514342Y-135690476D02*
X133609580Y-135738095D01*
X133609580Y-135738095D02*
X133657200Y-135785714D01*
X133657200Y-135785714D02*
X133704819Y-135880952D01*
X133704819Y-135880952D02*
X133704819Y-136071428D01*
X133704819Y-136071428D02*
X133657200Y-136166666D01*
X133657200Y-136166666D02*
X133609580Y-136214285D01*
X133609580Y-136214285D02*
X133514342Y-136261904D01*
X133514342Y-136261904D02*
X133276247Y-136261904D01*
X133276247Y-136261904D02*
X133181009Y-136214285D01*
X133181009Y-136214285D02*
X133133390Y-136166666D01*
X133133390Y-136166666D02*
X133085771Y-136071428D01*
X133085771Y-136071428D02*
X133085771Y-135880952D01*
X133085771Y-135880952D02*
X133133390Y-135785714D01*
X133133390Y-135785714D02*
X133181009Y-135738095D01*
X133181009Y-135738095D02*
X133276247Y-135690476D01*
X127704819Y-134583333D02*
X127228628Y-134250000D01*
X127704819Y-134011905D02*
X126704819Y-134011905D01*
X126704819Y-134011905D02*
X126704819Y-134392857D01*
X126704819Y-134392857D02*
X126752438Y-134488095D01*
X126752438Y-134488095D02*
X126800057Y-134535714D01*
X126800057Y-134535714D02*
X126895295Y-134583333D01*
X126895295Y-134583333D02*
X127038152Y-134583333D01*
X127038152Y-134583333D02*
X127133390Y-134535714D01*
X127133390Y-134535714D02*
X127181009Y-134488095D01*
X127181009Y-134488095D02*
X127228628Y-134392857D01*
X127228628Y-134392857D02*
X127228628Y-134011905D01*
X126704819Y-134916667D02*
X126704819Y-135535714D01*
X126704819Y-135535714D02*
X127085771Y-135202381D01*
X127085771Y-135202381D02*
X127085771Y-135345238D01*
X127085771Y-135345238D02*
X127133390Y-135440476D01*
X127133390Y-135440476D02*
X127181009Y-135488095D01*
X127181009Y-135488095D02*
X127276247Y-135535714D01*
X127276247Y-135535714D02*
X127514342Y-135535714D01*
X127514342Y-135535714D02*
X127609580Y-135488095D01*
X127609580Y-135488095D02*
X127657200Y-135440476D01*
X127657200Y-135440476D02*
X127704819Y-135345238D01*
X127704819Y-135345238D02*
X127704819Y-135059524D01*
X127704819Y-135059524D02*
X127657200Y-134964286D01*
X127657200Y-134964286D02*
X127609580Y-134916667D01*
X149554819Y-89333333D02*
X149078628Y-89000000D01*
X149554819Y-88761905D02*
X148554819Y-88761905D01*
X148554819Y-88761905D02*
X148554819Y-89142857D01*
X148554819Y-89142857D02*
X148602438Y-89238095D01*
X148602438Y-89238095D02*
X148650057Y-89285714D01*
X148650057Y-89285714D02*
X148745295Y-89333333D01*
X148745295Y-89333333D02*
X148888152Y-89333333D01*
X148888152Y-89333333D02*
X148983390Y-89285714D01*
X148983390Y-89285714D02*
X149031009Y-89238095D01*
X149031009Y-89238095D02*
X149078628Y-89142857D01*
X149078628Y-89142857D02*
X149078628Y-88761905D01*
X148554819Y-89666667D02*
X148554819Y-90333333D01*
X148554819Y-90333333D02*
X149554819Y-89904762D01*
X131104819Y-130633333D02*
X130628628Y-130300000D01*
X131104819Y-130061905D02*
X130104819Y-130061905D01*
X130104819Y-130061905D02*
X130104819Y-130442857D01*
X130104819Y-130442857D02*
X130152438Y-130538095D01*
X130152438Y-130538095D02*
X130200057Y-130585714D01*
X130200057Y-130585714D02*
X130295295Y-130633333D01*
X130295295Y-130633333D02*
X130438152Y-130633333D01*
X130438152Y-130633333D02*
X130533390Y-130585714D01*
X130533390Y-130585714D02*
X130581009Y-130538095D01*
X130581009Y-130538095D02*
X130628628Y-130442857D01*
X130628628Y-130442857D02*
X130628628Y-130061905D01*
X130200057Y-131014286D02*
X130152438Y-131061905D01*
X130152438Y-131061905D02*
X130104819Y-131157143D01*
X130104819Y-131157143D02*
X130104819Y-131395238D01*
X130104819Y-131395238D02*
X130152438Y-131490476D01*
X130152438Y-131490476D02*
X130200057Y-131538095D01*
X130200057Y-131538095D02*
X130295295Y-131585714D01*
X130295295Y-131585714D02*
X130390533Y-131585714D01*
X130390533Y-131585714D02*
X130533390Y-131538095D01*
X130533390Y-131538095D02*
X131104819Y-130966667D01*
X131104819Y-130966667D02*
X131104819Y-131585714D01*
X153354819Y-96507142D02*
X152878628Y-96173809D01*
X153354819Y-95935714D02*
X152354819Y-95935714D01*
X152354819Y-95935714D02*
X152354819Y-96316666D01*
X152354819Y-96316666D02*
X152402438Y-96411904D01*
X152402438Y-96411904D02*
X152450057Y-96459523D01*
X152450057Y-96459523D02*
X152545295Y-96507142D01*
X152545295Y-96507142D02*
X152688152Y-96507142D01*
X152688152Y-96507142D02*
X152783390Y-96459523D01*
X152783390Y-96459523D02*
X152831009Y-96411904D01*
X152831009Y-96411904D02*
X152878628Y-96316666D01*
X152878628Y-96316666D02*
X152878628Y-95935714D01*
X153354819Y-97459523D02*
X153354819Y-96888095D01*
X153354819Y-97173809D02*
X152354819Y-97173809D01*
X152354819Y-97173809D02*
X152497676Y-97078571D01*
X152497676Y-97078571D02*
X152592914Y-96983333D01*
X152592914Y-96983333D02*
X152640533Y-96888095D01*
X152354819Y-98078571D02*
X152354819Y-98173809D01*
X152354819Y-98173809D02*
X152402438Y-98269047D01*
X152402438Y-98269047D02*
X152450057Y-98316666D01*
X152450057Y-98316666D02*
X152545295Y-98364285D01*
X152545295Y-98364285D02*
X152735771Y-98411904D01*
X152735771Y-98411904D02*
X152973866Y-98411904D01*
X152973866Y-98411904D02*
X153164342Y-98364285D01*
X153164342Y-98364285D02*
X153259580Y-98316666D01*
X153259580Y-98316666D02*
X153307200Y-98269047D01*
X153307200Y-98269047D02*
X153354819Y-98173809D01*
X153354819Y-98173809D02*
X153354819Y-98078571D01*
X153354819Y-98078571D02*
X153307200Y-97983333D01*
X153307200Y-97983333D02*
X153259580Y-97935714D01*
X153259580Y-97935714D02*
X153164342Y-97888095D01*
X153164342Y-97888095D02*
X152973866Y-97840476D01*
X152973866Y-97840476D02*
X152735771Y-97840476D01*
X152735771Y-97840476D02*
X152545295Y-97888095D01*
X152545295Y-97888095D02*
X152450057Y-97935714D01*
X152450057Y-97935714D02*
X152402438Y-97983333D01*
X152402438Y-97983333D02*
X152354819Y-98078571D01*
X167204819Y-91511905D02*
X166204819Y-91511905D01*
X166204819Y-91511905D02*
X166204819Y-91750000D01*
X166204819Y-91750000D02*
X166252438Y-91892857D01*
X166252438Y-91892857D02*
X166347676Y-91988095D01*
X166347676Y-91988095D02*
X166442914Y-92035714D01*
X166442914Y-92035714D02*
X166633390Y-92083333D01*
X166633390Y-92083333D02*
X166776247Y-92083333D01*
X166776247Y-92083333D02*
X166966723Y-92035714D01*
X166966723Y-92035714D02*
X167061961Y-91988095D01*
X167061961Y-91988095D02*
X167157200Y-91892857D01*
X167157200Y-91892857D02*
X167204819Y-91750000D01*
X167204819Y-91750000D02*
X167204819Y-91511905D01*
X166300057Y-92464286D02*
X166252438Y-92511905D01*
X166252438Y-92511905D02*
X166204819Y-92607143D01*
X166204819Y-92607143D02*
X166204819Y-92845238D01*
X166204819Y-92845238D02*
X166252438Y-92940476D01*
X166252438Y-92940476D02*
X166300057Y-92988095D01*
X166300057Y-92988095D02*
X166395295Y-93035714D01*
X166395295Y-93035714D02*
X166490533Y-93035714D01*
X166490533Y-93035714D02*
X166633390Y-92988095D01*
X166633390Y-92988095D02*
X167204819Y-92416667D01*
X167204819Y-92416667D02*
X167204819Y-93035714D01*
X122604818Y-88561906D02*
X121604818Y-88561906D01*
X121604818Y-88561906D02*
X121604818Y-88800001D01*
X121604818Y-88800001D02*
X121652437Y-88942858D01*
X121652437Y-88942858D02*
X121747675Y-89038096D01*
X121747675Y-89038096D02*
X121842913Y-89085715D01*
X121842913Y-89085715D02*
X122033389Y-89133334D01*
X122033389Y-89133334D02*
X122176246Y-89133334D01*
X122176246Y-89133334D02*
X122366722Y-89085715D01*
X122366722Y-89085715D02*
X122461960Y-89038096D01*
X122461960Y-89038096D02*
X122557199Y-88942858D01*
X122557199Y-88942858D02*
X122604818Y-88800001D01*
X122604818Y-88800001D02*
X122604818Y-88561906D01*
X121938151Y-89990477D02*
X122604818Y-89990477D01*
X121557199Y-89752382D02*
X122271484Y-89514287D01*
X122271484Y-89514287D02*
X122271484Y-90133334D01*
X163642857Y-77109580D02*
X163690476Y-77157200D01*
X163690476Y-77157200D02*
X163833333Y-77204819D01*
X163833333Y-77204819D02*
X163928571Y-77204819D01*
X163928571Y-77204819D02*
X164071428Y-77157200D01*
X164071428Y-77157200D02*
X164166666Y-77061961D01*
X164166666Y-77061961D02*
X164214285Y-76966723D01*
X164214285Y-76966723D02*
X164261904Y-76776247D01*
X164261904Y-76776247D02*
X164261904Y-76633390D01*
X164261904Y-76633390D02*
X164214285Y-76442914D01*
X164214285Y-76442914D02*
X164166666Y-76347676D01*
X164166666Y-76347676D02*
X164071428Y-76252438D01*
X164071428Y-76252438D02*
X163928571Y-76204819D01*
X163928571Y-76204819D02*
X163833333Y-76204819D01*
X163833333Y-76204819D02*
X163690476Y-76252438D01*
X163690476Y-76252438D02*
X163642857Y-76300057D01*
X162690476Y-77204819D02*
X163261904Y-77204819D01*
X162976190Y-77204819D02*
X162976190Y-76204819D01*
X162976190Y-76204819D02*
X163071428Y-76347676D01*
X163071428Y-76347676D02*
X163166666Y-76442914D01*
X163166666Y-76442914D02*
X163261904Y-76490533D01*
X162071428Y-76204819D02*
X161976190Y-76204819D01*
X161976190Y-76204819D02*
X161880952Y-76252438D01*
X161880952Y-76252438D02*
X161833333Y-76300057D01*
X161833333Y-76300057D02*
X161785714Y-76395295D01*
X161785714Y-76395295D02*
X161738095Y-76585771D01*
X161738095Y-76585771D02*
X161738095Y-76823866D01*
X161738095Y-76823866D02*
X161785714Y-77014342D01*
X161785714Y-77014342D02*
X161833333Y-77109580D01*
X161833333Y-77109580D02*
X161880952Y-77157200D01*
X161880952Y-77157200D02*
X161976190Y-77204819D01*
X161976190Y-77204819D02*
X162071428Y-77204819D01*
X162071428Y-77204819D02*
X162166666Y-77157200D01*
X162166666Y-77157200D02*
X162214285Y-77109580D01*
X162214285Y-77109580D02*
X162261904Y-77014342D01*
X162261904Y-77014342D02*
X162309523Y-76823866D01*
X162309523Y-76823866D02*
X162309523Y-76585771D01*
X162309523Y-76585771D02*
X162261904Y-76395295D01*
X162261904Y-76395295D02*
X162214285Y-76300057D01*
X162214285Y-76300057D02*
X162166666Y-76252438D01*
X162166666Y-76252438D02*
X162071428Y-76204819D01*
X146254819Y-96933333D02*
X145778628Y-96600000D01*
X146254819Y-96361905D02*
X145254819Y-96361905D01*
X145254819Y-96361905D02*
X145254819Y-96742857D01*
X145254819Y-96742857D02*
X145302438Y-96838095D01*
X145302438Y-96838095D02*
X145350057Y-96885714D01*
X145350057Y-96885714D02*
X145445295Y-96933333D01*
X145445295Y-96933333D02*
X145588152Y-96933333D01*
X145588152Y-96933333D02*
X145683390Y-96885714D01*
X145683390Y-96885714D02*
X145731009Y-96838095D01*
X145731009Y-96838095D02*
X145778628Y-96742857D01*
X145778628Y-96742857D02*
X145778628Y-96361905D01*
X145683390Y-97504762D02*
X145635771Y-97409524D01*
X145635771Y-97409524D02*
X145588152Y-97361905D01*
X145588152Y-97361905D02*
X145492914Y-97314286D01*
X145492914Y-97314286D02*
X145445295Y-97314286D01*
X145445295Y-97314286D02*
X145350057Y-97361905D01*
X145350057Y-97361905D02*
X145302438Y-97409524D01*
X145302438Y-97409524D02*
X145254819Y-97504762D01*
X145254819Y-97504762D02*
X145254819Y-97695238D01*
X145254819Y-97695238D02*
X145302438Y-97790476D01*
X145302438Y-97790476D02*
X145350057Y-97838095D01*
X145350057Y-97838095D02*
X145445295Y-97885714D01*
X145445295Y-97885714D02*
X145492914Y-97885714D01*
X145492914Y-97885714D02*
X145588152Y-97838095D01*
X145588152Y-97838095D02*
X145635771Y-97790476D01*
X145635771Y-97790476D02*
X145683390Y-97695238D01*
X145683390Y-97695238D02*
X145683390Y-97504762D01*
X145683390Y-97504762D02*
X145731009Y-97409524D01*
X145731009Y-97409524D02*
X145778628Y-97361905D01*
X145778628Y-97361905D02*
X145873866Y-97314286D01*
X145873866Y-97314286D02*
X146064342Y-97314286D01*
X146064342Y-97314286D02*
X146159580Y-97361905D01*
X146159580Y-97361905D02*
X146207200Y-97409524D01*
X146207200Y-97409524D02*
X146254819Y-97504762D01*
X146254819Y-97504762D02*
X146254819Y-97695238D01*
X146254819Y-97695238D02*
X146207200Y-97790476D01*
X146207200Y-97790476D02*
X146159580Y-97838095D01*
X146159580Y-97838095D02*
X146064342Y-97885714D01*
X146064342Y-97885714D02*
X145873866Y-97885714D01*
X145873866Y-97885714D02*
X145778628Y-97838095D01*
X145778628Y-97838095D02*
X145731009Y-97790476D01*
X145731009Y-97790476D02*
X145683390Y-97695238D01*
X153204819Y-89383333D02*
X152728628Y-89050000D01*
X153204819Y-88811905D02*
X152204819Y-88811905D01*
X152204819Y-88811905D02*
X152204819Y-89192857D01*
X152204819Y-89192857D02*
X152252438Y-89288095D01*
X152252438Y-89288095D02*
X152300057Y-89335714D01*
X152300057Y-89335714D02*
X152395295Y-89383333D01*
X152395295Y-89383333D02*
X152538152Y-89383333D01*
X152538152Y-89383333D02*
X152633390Y-89335714D01*
X152633390Y-89335714D02*
X152681009Y-89288095D01*
X152681009Y-89288095D02*
X152728628Y-89192857D01*
X152728628Y-89192857D02*
X152728628Y-88811905D01*
X152204819Y-90288095D02*
X152204819Y-89811905D01*
X152204819Y-89811905D02*
X152681009Y-89764286D01*
X152681009Y-89764286D02*
X152633390Y-89811905D01*
X152633390Y-89811905D02*
X152585771Y-89907143D01*
X152585771Y-89907143D02*
X152585771Y-90145238D01*
X152585771Y-90145238D02*
X152633390Y-90240476D01*
X152633390Y-90240476D02*
X152681009Y-90288095D01*
X152681009Y-90288095D02*
X152776247Y-90335714D01*
X152776247Y-90335714D02*
X153014342Y-90335714D01*
X153014342Y-90335714D02*
X153109580Y-90288095D01*
X153109580Y-90288095D02*
X153157200Y-90240476D01*
X153157200Y-90240476D02*
X153204819Y-90145238D01*
X153204819Y-90145238D02*
X153204819Y-89907143D01*
X153204819Y-89907143D02*
X153157200Y-89811905D01*
X153157200Y-89811905D02*
X153109580Y-89764286D01*
D11*
X146111904Y-117832419D02*
X146111904Y-118641942D01*
X146111904Y-118641942D02*
X146064285Y-118737180D01*
X146064285Y-118737180D02*
X146016666Y-118784800D01*
X146016666Y-118784800D02*
X145921428Y-118832419D01*
X145921428Y-118832419D02*
X145730952Y-118832419D01*
X145730952Y-118832419D02*
X145635714Y-118784800D01*
X145635714Y-118784800D02*
X145588095Y-118737180D01*
X145588095Y-118737180D02*
X145540476Y-118641942D01*
X145540476Y-118641942D02*
X145540476Y-117832419D01*
X144540476Y-118832419D02*
X145111904Y-118832419D01*
X144826190Y-118832419D02*
X144826190Y-117832419D01*
X144826190Y-117832419D02*
X144921428Y-117975276D01*
X144921428Y-117975276D02*
X145016666Y-118070514D01*
X145016666Y-118070514D02*
X145111904Y-118118133D01*
D10*
X167359580Y-80333333D02*
X167407200Y-80285714D01*
X167407200Y-80285714D02*
X167454819Y-80142857D01*
X167454819Y-80142857D02*
X167454819Y-80047619D01*
X167454819Y-80047619D02*
X167407200Y-79904762D01*
X167407200Y-79904762D02*
X167311961Y-79809524D01*
X167311961Y-79809524D02*
X167216723Y-79761905D01*
X167216723Y-79761905D02*
X167026247Y-79714286D01*
X167026247Y-79714286D02*
X166883390Y-79714286D01*
X166883390Y-79714286D02*
X166692914Y-79761905D01*
X166692914Y-79761905D02*
X166597676Y-79809524D01*
X166597676Y-79809524D02*
X166502438Y-79904762D01*
X166502438Y-79904762D02*
X166454819Y-80047619D01*
X166454819Y-80047619D02*
X166454819Y-80142857D01*
X166454819Y-80142857D02*
X166502438Y-80285714D01*
X166502438Y-80285714D02*
X166550057Y-80333333D01*
X166883390Y-80904762D02*
X166835771Y-80809524D01*
X166835771Y-80809524D02*
X166788152Y-80761905D01*
X166788152Y-80761905D02*
X166692914Y-80714286D01*
X166692914Y-80714286D02*
X166645295Y-80714286D01*
X166645295Y-80714286D02*
X166550057Y-80761905D01*
X166550057Y-80761905D02*
X166502438Y-80809524D01*
X166502438Y-80809524D02*
X166454819Y-80904762D01*
X166454819Y-80904762D02*
X166454819Y-81095238D01*
X166454819Y-81095238D02*
X166502438Y-81190476D01*
X166502438Y-81190476D02*
X166550057Y-81238095D01*
X166550057Y-81238095D02*
X166645295Y-81285714D01*
X166645295Y-81285714D02*
X166692914Y-81285714D01*
X166692914Y-81285714D02*
X166788152Y-81238095D01*
X166788152Y-81238095D02*
X166835771Y-81190476D01*
X166835771Y-81190476D02*
X166883390Y-81095238D01*
X166883390Y-81095238D02*
X166883390Y-80904762D01*
X166883390Y-80904762D02*
X166931009Y-80809524D01*
X166931009Y-80809524D02*
X166978628Y-80761905D01*
X166978628Y-80761905D02*
X167073866Y-80714286D01*
X167073866Y-80714286D02*
X167264342Y-80714286D01*
X167264342Y-80714286D02*
X167359580Y-80761905D01*
X167359580Y-80761905D02*
X167407200Y-80809524D01*
X167407200Y-80809524D02*
X167454819Y-80904762D01*
X167454819Y-80904762D02*
X167454819Y-81095238D01*
X167454819Y-81095238D02*
X167407200Y-81190476D01*
X167407200Y-81190476D02*
X167359580Y-81238095D01*
X167359580Y-81238095D02*
X167264342Y-81285714D01*
X167264342Y-81285714D02*
X167073866Y-81285714D01*
X167073866Y-81285714D02*
X166978628Y-81238095D01*
X166978628Y-81238095D02*
X166931009Y-81190476D01*
X166931009Y-81190476D02*
X166883390Y-81095238D01*
X168342857Y-121839579D02*
X168390476Y-121887199D01*
X168390476Y-121887199D02*
X168533333Y-121934818D01*
X168533333Y-121934818D02*
X168628571Y-121934818D01*
X168628571Y-121934818D02*
X168771428Y-121887199D01*
X168771428Y-121887199D02*
X168866666Y-121791960D01*
X168866666Y-121791960D02*
X168914285Y-121696722D01*
X168914285Y-121696722D02*
X168961904Y-121506246D01*
X168961904Y-121506246D02*
X168961904Y-121363389D01*
X168961904Y-121363389D02*
X168914285Y-121172913D01*
X168914285Y-121172913D02*
X168866666Y-121077675D01*
X168866666Y-121077675D02*
X168771428Y-120982437D01*
X168771428Y-120982437D02*
X168628571Y-120934818D01*
X168628571Y-120934818D02*
X168533333Y-120934818D01*
X168533333Y-120934818D02*
X168390476Y-120982437D01*
X168390476Y-120982437D02*
X168342857Y-121030056D01*
X167390476Y-121934818D02*
X167961904Y-121934818D01*
X167676190Y-121934818D02*
X167676190Y-120934818D01*
X167676190Y-120934818D02*
X167771428Y-121077675D01*
X167771428Y-121077675D02*
X167866666Y-121172913D01*
X167866666Y-121172913D02*
X167961904Y-121220532D01*
X167057142Y-120934818D02*
X166390476Y-120934818D01*
X166390476Y-120934818D02*
X166819047Y-121934818D01*
X146254819Y-93133333D02*
X145778628Y-92800000D01*
X146254819Y-92561905D02*
X145254819Y-92561905D01*
X145254819Y-92561905D02*
X145254819Y-92942857D01*
X145254819Y-92942857D02*
X145302438Y-93038095D01*
X145302438Y-93038095D02*
X145350057Y-93085714D01*
X145350057Y-93085714D02*
X145445295Y-93133333D01*
X145445295Y-93133333D02*
X145588152Y-93133333D01*
X145588152Y-93133333D02*
X145683390Y-93085714D01*
X145683390Y-93085714D02*
X145731009Y-93038095D01*
X145731009Y-93038095D02*
X145778628Y-92942857D01*
X145778628Y-92942857D02*
X145778628Y-92561905D01*
X145588152Y-93990476D02*
X146254819Y-93990476D01*
X145207200Y-93752381D02*
X145921485Y-93514286D01*
X145921485Y-93514286D02*
X145921485Y-94133333D01*
X167339579Y-83170833D02*
X167387199Y-83123214D01*
X167387199Y-83123214D02*
X167434818Y-82980357D01*
X167434818Y-82980357D02*
X167434818Y-82885119D01*
X167434818Y-82885119D02*
X167387199Y-82742262D01*
X167387199Y-82742262D02*
X167291960Y-82647024D01*
X167291960Y-82647024D02*
X167196722Y-82599405D01*
X167196722Y-82599405D02*
X167006246Y-82551786D01*
X167006246Y-82551786D02*
X166863389Y-82551786D01*
X166863389Y-82551786D02*
X166672913Y-82599405D01*
X166672913Y-82599405D02*
X166577675Y-82647024D01*
X166577675Y-82647024D02*
X166482437Y-82742262D01*
X166482437Y-82742262D02*
X166434818Y-82885119D01*
X166434818Y-82885119D02*
X166434818Y-82980357D01*
X166434818Y-82980357D02*
X166482437Y-83123214D01*
X166482437Y-83123214D02*
X166530056Y-83170833D01*
X166768151Y-84027976D02*
X167434818Y-84027976D01*
X166387199Y-83789881D02*
X167101484Y-83551786D01*
X167101484Y-83551786D02*
X167101484Y-84170833D01*
X162109580Y-83333333D02*
X162157200Y-83285714D01*
X162157200Y-83285714D02*
X162204819Y-83142857D01*
X162204819Y-83142857D02*
X162204819Y-83047619D01*
X162204819Y-83047619D02*
X162157200Y-82904762D01*
X162157200Y-82904762D02*
X162061961Y-82809524D01*
X162061961Y-82809524D02*
X161966723Y-82761905D01*
X161966723Y-82761905D02*
X161776247Y-82714286D01*
X161776247Y-82714286D02*
X161633390Y-82714286D01*
X161633390Y-82714286D02*
X161442914Y-82761905D01*
X161442914Y-82761905D02*
X161347676Y-82809524D01*
X161347676Y-82809524D02*
X161252438Y-82904762D01*
X161252438Y-82904762D02*
X161204819Y-83047619D01*
X161204819Y-83047619D02*
X161204819Y-83142857D01*
X161204819Y-83142857D02*
X161252438Y-83285714D01*
X161252438Y-83285714D02*
X161300057Y-83333333D01*
X161300057Y-83714286D02*
X161252438Y-83761905D01*
X161252438Y-83761905D02*
X161204819Y-83857143D01*
X161204819Y-83857143D02*
X161204819Y-84095238D01*
X161204819Y-84095238D02*
X161252438Y-84190476D01*
X161252438Y-84190476D02*
X161300057Y-84238095D01*
X161300057Y-84238095D02*
X161395295Y-84285714D01*
X161395295Y-84285714D02*
X161490533Y-84285714D01*
X161490533Y-84285714D02*
X161633390Y-84238095D01*
X161633390Y-84238095D02*
X162204819Y-83666667D01*
X162204819Y-83666667D02*
X162204819Y-84285714D01*
X172707200Y-127666667D02*
X172754819Y-127809524D01*
X172754819Y-127809524D02*
X172754819Y-128047619D01*
X172754819Y-128047619D02*
X172707200Y-128142857D01*
X172707200Y-128142857D02*
X172659580Y-128190476D01*
X172659580Y-128190476D02*
X172564342Y-128238095D01*
X172564342Y-128238095D02*
X172469104Y-128238095D01*
X172469104Y-128238095D02*
X172373866Y-128190476D01*
X172373866Y-128190476D02*
X172326247Y-128142857D01*
X172326247Y-128142857D02*
X172278628Y-128047619D01*
X172278628Y-128047619D02*
X172231009Y-127857143D01*
X172231009Y-127857143D02*
X172183390Y-127761905D01*
X172183390Y-127761905D02*
X172135771Y-127714286D01*
X172135771Y-127714286D02*
X172040533Y-127666667D01*
X172040533Y-127666667D02*
X171945295Y-127666667D01*
X171945295Y-127666667D02*
X171850057Y-127714286D01*
X171850057Y-127714286D02*
X171802438Y-127761905D01*
X171802438Y-127761905D02*
X171754819Y-127857143D01*
X171754819Y-127857143D02*
X171754819Y-128095238D01*
X171754819Y-128095238D02*
X171802438Y-128238095D01*
X171754819Y-128571429D02*
X172754819Y-128809524D01*
X172754819Y-128809524D02*
X172040533Y-129000000D01*
X172040533Y-129000000D02*
X172754819Y-129190476D01*
X172754819Y-129190476D02*
X171754819Y-129428572D01*
X171850057Y-129761905D02*
X171802438Y-129809524D01*
X171802438Y-129809524D02*
X171754819Y-129904762D01*
X171754819Y-129904762D02*
X171754819Y-130142857D01*
X171754819Y-130142857D02*
X171802438Y-130238095D01*
X171802438Y-130238095D02*
X171850057Y-130285714D01*
X171850057Y-130285714D02*
X171945295Y-130333333D01*
X171945295Y-130333333D02*
X172040533Y-130333333D01*
X172040533Y-130333333D02*
X172183390Y-130285714D01*
X172183390Y-130285714D02*
X172754819Y-129714286D01*
X172754819Y-129714286D02*
X172754819Y-130333333D01*
X167866666Y-123404819D02*
X168199999Y-122928628D01*
X168438094Y-123404819D02*
X168438094Y-122404819D01*
X168438094Y-122404819D02*
X168057142Y-122404819D01*
X168057142Y-122404819D02*
X167961904Y-122452438D01*
X167961904Y-122452438D02*
X167914285Y-122500057D01*
X167914285Y-122500057D02*
X167866666Y-122595295D01*
X167866666Y-122595295D02*
X167866666Y-122738152D01*
X167866666Y-122738152D02*
X167914285Y-122833390D01*
X167914285Y-122833390D02*
X167961904Y-122881009D01*
X167961904Y-122881009D02*
X168057142Y-122928628D01*
X168057142Y-122928628D02*
X168438094Y-122928628D01*
X167390475Y-123404819D02*
X167199999Y-123404819D01*
X167199999Y-123404819D02*
X167104761Y-123357200D01*
X167104761Y-123357200D02*
X167057142Y-123309580D01*
X167057142Y-123309580D02*
X166961904Y-123166723D01*
X166961904Y-123166723D02*
X166914285Y-122976247D01*
X166914285Y-122976247D02*
X166914285Y-122595295D01*
X166914285Y-122595295D02*
X166961904Y-122500057D01*
X166961904Y-122500057D02*
X167009523Y-122452438D01*
X167009523Y-122452438D02*
X167104761Y-122404819D01*
X167104761Y-122404819D02*
X167295237Y-122404819D01*
X167295237Y-122404819D02*
X167390475Y-122452438D01*
X167390475Y-122452438D02*
X167438094Y-122500057D01*
X167438094Y-122500057D02*
X167485713Y-122595295D01*
X167485713Y-122595295D02*
X167485713Y-122833390D01*
X167485713Y-122833390D02*
X167438094Y-122928628D01*
X167438094Y-122928628D02*
X167390475Y-122976247D01*
X167390475Y-122976247D02*
X167295237Y-123023866D01*
X167295237Y-123023866D02*
X167104761Y-123023866D01*
X167104761Y-123023866D02*
X167009523Y-122976247D01*
X167009523Y-122976247D02*
X166961904Y-122928628D01*
X166961904Y-122928628D02*
X166914285Y-122833390D01*
D12*
%TO.C,R13*%
X162465000Y-130427064D02*
X162465000Y-129972936D01*
X163935000Y-130427064D02*
X163935000Y-129972936D01*
%TO.C,R6*%
X126165000Y-123972936D02*
X126165000Y-124427064D01*
X127635000Y-123972936D02*
X127635000Y-124427064D01*
%TO.C,R12*%
X162465000Y-126527064D02*
X162465000Y-126072936D01*
X163935000Y-126527064D02*
X163935000Y-126072936D01*
%TO.C,R11*%
X150515000Y-93577064D02*
X150515000Y-93122936D01*
X151985000Y-93577064D02*
X151985000Y-93122936D01*
%TO.C,C7*%
X133365000Y-118523753D02*
X133365000Y-118001247D01*
X134835000Y-118523753D02*
X134835000Y-118001247D01*
%TO.C,C16*%
X130565000Y-135061253D02*
X130565000Y-134538747D01*
X132035000Y-135061253D02*
X132035000Y-134538747D01*
%TO.C,R3*%
X128265000Y-134472936D02*
X128265000Y-134927064D01*
X129735000Y-134472936D02*
X129735000Y-134927064D01*
%TO.C,R7*%
X146715000Y-89272936D02*
X146715000Y-89727064D01*
X148185000Y-89272936D02*
X148185000Y-89727064D01*
%TO.C,R2*%
X128265000Y-130572936D02*
X128265000Y-131027064D01*
X129735000Y-130572936D02*
X129735000Y-131027064D01*
%TO.C,R10*%
X150515000Y-96922936D02*
X150515000Y-97377064D01*
X151985000Y-96922936D02*
X151985000Y-97377064D01*
%TO.C,D2*%
X165950000Y-90649999D02*
X165950000Y-87989999D01*
X167650000Y-87989999D02*
X165950000Y-87989999D01*
X167650000Y-90649999D02*
X167650000Y-87989999D01*
%TO.C,D4*%
X123150000Y-90350001D02*
X123150000Y-87690001D01*
X124850000Y-87690001D02*
X123150000Y-87690001D01*
X124850000Y-90350001D02*
X124850000Y-87690001D01*
%TO.C,C10*%
X162514997Y-79723753D02*
X162514997Y-79201247D01*
X163984997Y-79723753D02*
X163984997Y-79201247D01*
%TO.C,R8*%
X146715000Y-97327064D02*
X146715000Y-96872936D01*
X148185000Y-97327064D02*
X148185000Y-96872936D01*
%TO.C,R5*%
X150515000Y-89777064D02*
X150515000Y-89322936D01*
X151985000Y-89777064D02*
X151985000Y-89322936D01*
D11*
%TO.C,U1*%
X136550000Y-116075000D02*
X136550000Y-115375000D01*
X136550000Y-118575000D02*
X136550000Y-117875000D01*
X136550000Y-121175000D02*
X136550000Y-120475000D01*
X136550000Y-123675000D02*
X136550000Y-122975000D01*
X136550000Y-126175000D02*
X136550000Y-125475000D01*
X136550000Y-128775000D02*
X136550000Y-128075000D01*
X136550000Y-131275000D02*
X136550000Y-130575000D01*
X136550000Y-133875000D02*
X136550000Y-133175000D01*
X136550000Y-136375000D02*
X136550000Y-135675000D01*
X136550000Y-138875000D02*
X136550000Y-138175000D01*
X136550000Y-138875000D02*
X154550000Y-138875000D01*
X141050000Y-113875000D02*
X141050000Y-115375000D01*
X141050000Y-120675000D02*
X141050000Y-115375000D01*
X150050000Y-113875000D02*
X141050000Y-113875000D01*
X150050000Y-113875000D02*
X150050000Y-115375000D01*
X150050000Y-120675000D02*
X141050000Y-120675000D01*
X150050000Y-120675000D02*
X150050000Y-115375000D01*
X154550000Y-115375000D02*
X136550000Y-115375000D01*
X154550000Y-116075000D02*
X154550000Y-115375000D01*
X154550000Y-118575000D02*
X154550000Y-117875000D01*
X154550000Y-121175000D02*
X154550000Y-120475000D01*
X154550000Y-123675000D02*
X154550000Y-122975000D01*
X154550000Y-126175000D02*
X154550000Y-125475000D01*
X154550000Y-128775000D02*
X154550000Y-128075000D01*
X154550000Y-131275000D02*
X154550000Y-130575000D01*
X154550000Y-133875000D02*
X154550000Y-133175000D01*
X154550000Y-136375000D02*
X154550000Y-135675000D01*
X154550000Y-138875000D02*
X154550000Y-138175000D01*
D12*
%TO.C,C8*%
X164515000Y-79723753D02*
X164515000Y-79201247D01*
X165985000Y-79723753D02*
X165985000Y-79201247D01*
%TO.C,C17*%
X167961253Y-119065000D02*
X167438747Y-119065000D01*
X167961253Y-120535000D02*
X167438747Y-120535000D01*
%TO.C,R4*%
X146715000Y-93527064D02*
X146715000Y-93072936D01*
X148185000Y-93527064D02*
X148185000Y-93072936D01*
%TO.C,C4*%
X164565000Y-83076247D02*
X164565000Y-83598753D01*
X166035000Y-83076247D02*
X166035000Y-83598753D01*
%TO.C,C2*%
X162565000Y-83076247D02*
X162565000Y-83598753D01*
X164035000Y-83076247D02*
X164035000Y-83598753D01*
%TO.C,SW2*%
X170250000Y-119340001D02*
X173950000Y-119340001D01*
X170250000Y-125460001D02*
X170250000Y-119340001D01*
X173950000Y-119340001D02*
X173950000Y-125460001D01*
X173950000Y-125460001D02*
X170250000Y-125460001D01*
%TO.C,R9*%
X167472936Y-123865000D02*
X167927064Y-123865000D01*
X167472936Y-125335000D02*
X167927064Y-125335000D01*
%TD*%
M02*
