%TF.GenerationSoftware,KiCad,Pcbnew,8.0.6*%
%TF.CreationDate,2025-03-04T23:13:55+07:00*%
%TF.ProjectId,micromouse,6d696372-6f6d-46f7-9573-652e6b696361,rev?*%
%TF.SameCoordinates,Original*%
%TF.FileFunction,Copper,L1,Top*%
%TF.FilePolarity,Positive*%
%FSLAX46Y46*%
G04 Gerber Fmt 4.6, Leading zero omitted, Abs format (unit mm)*
G04 Created by KiCad (PCBNEW 8.0.6) date 2025-03-04 23:13:55*
%MOMM*%
%LPD*%
G01*
G04 APERTURE LIST*
G04 Aperture macros list*
%AMRoundRect*
0 Rectangle with rounded corners*
0 $1 Rounding radius*
0 $2 $3 $4 $5 $6 $7 $8 $9 X,Y pos of 4 corners*
0 Add a 4 corners polygon primitive as box body*
4,1,4,$2,$3,$4,$5,$6,$7,$8,$9,$2,$3,0*
0 Add four circle primitives for the rounded corners*
1,1,$1+$1,$2,$3*
1,1,$1+$1,$4,$5*
1,1,$1+$1,$6,$7*
1,1,$1+$1,$8,$9*
0 Add four rect primitives between the rounded corners*
20,1,$1+$1,$2,$3,$4,$5,0*
20,1,$1+$1,$4,$5,$6,$7,0*
20,1,$1+$1,$6,$7,$8,$9,0*
20,1,$1+$1,$8,$9,$2,$3,0*%
G04 Aperture macros list end*
%TA.AperFunction,SMDPad,CuDef*%
%ADD10RoundRect,0.250000X-0.475000X0.337500X-0.475000X-0.337500X0.475000X-0.337500X0.475000X0.337500X0*%
%TD*%
%TA.AperFunction,ComponentPad*%
%ADD11R,1.600000X1.600000*%
%TD*%
%TA.AperFunction,ComponentPad*%
%ADD12C,1.600000*%
%TD*%
%TA.AperFunction,ComponentPad*%
%ADD13C,1.800000*%
%TD*%
%TA.AperFunction,ComponentPad*%
%ADD14C,1.700000*%
%TD*%
%TA.AperFunction,ComponentPad*%
%ADD15R,1.308000X1.308000*%
%TD*%
%TA.AperFunction,ComponentPad*%
%ADD16C,1.308000*%
%TD*%
%TA.AperFunction,ComponentPad*%
%ADD17O,2.460000X1.230000*%
%TD*%
%TA.AperFunction,ComponentPad*%
%ADD18R,2.000000X1.905000*%
%TD*%
%TA.AperFunction,ComponentPad*%
%ADD19O,2.000000X1.905000*%
%TD*%
%TA.AperFunction,SMDPad,CuDef*%
%ADD20RoundRect,0.150000X-0.800000X-0.150000X0.800000X-0.150000X0.800000X0.150000X-0.800000X0.150000X0*%
%TD*%
%TA.AperFunction,SMDPad,CuDef*%
%ADD21RoundRect,0.250000X-0.450000X0.325000X-0.450000X-0.325000X0.450000X-0.325000X0.450000X0.325000X0*%
%TD*%
%TA.AperFunction,SMDPad,CuDef*%
%ADD22RoundRect,0.375000X0.375000X-0.625000X0.375000X0.625000X-0.375000X0.625000X-0.375000X-0.625000X0*%
%TD*%
%TA.AperFunction,SMDPad,CuDef*%
%ADD23RoundRect,0.500000X1.400000X-0.500000X1.400000X0.500000X-1.400000X0.500000X-1.400000X-0.500000X0*%
%TD*%
%TA.AperFunction,SMDPad,CuDef*%
%ADD24RoundRect,0.090000X-0.360000X0.660000X-0.360000X-0.660000X0.360000X-0.660000X0.360000X0.660000X0*%
%TD*%
%TA.AperFunction,SMDPad,CuDef*%
%ADD25RoundRect,0.250000X0.450000X-0.350000X0.450000X0.350000X-0.450000X0.350000X-0.450000X-0.350000X0*%
%TD*%
%TA.AperFunction,ViaPad*%
%ADD26C,0.600000*%
%TD*%
%TA.AperFunction,Conductor*%
%ADD27C,0.500000*%
%TD*%
%TA.AperFunction,Conductor*%
%ADD28C,0.800000*%
%TD*%
%TA.AperFunction,Conductor*%
%ADD29C,0.300000*%
%TD*%
G04 APERTURE END LIST*
D10*
%TO.P,C3,1*%
%TO.N,/VBAT*%
X140300000Y-76087500D03*
%TO.P,C3,2*%
%TO.N,GND*%
X140300000Y-78162500D03*
%TD*%
D11*
%TO.P,C13,1*%
%TO.N,/5V*%
X143550000Y-82100000D03*
D12*
%TO.P,C13,2*%
%TO.N,GND*%
X143550000Y-84100001D03*
%TD*%
D10*
%TO.P,C1,1*%
%TO.N,/VBAT*%
X138299997Y-76087500D03*
%TO.P,C1,2*%
%TO.N,GND*%
X138299997Y-78162500D03*
%TD*%
%TO.P,C9,1*%
%TO.N,/5V*%
X138300000Y-79962500D03*
%TO.P,C9,2*%
%TO.N,GND*%
X138300000Y-82037500D03*
%TD*%
D13*
%TO.P,M1,1,+*%
%TO.N,Net-(D2-K)*%
X164400000Y-88259998D03*
%TO.P,M1,2,-*%
%TO.N,Net-(D2-A)*%
X164400000Y-90800000D03*
%TD*%
D14*
%TO.P,U10,1,VCC_IN*%
%TO.N,unconnected-(U10-VCC_IN-Pad1)*%
X154150000Y-73650000D03*
%TO.P,U10,2,3.3V*%
%TO.N,/3V3*%
X151610000Y-73650000D03*
%TO.P,U10,3,GND*%
%TO.N,GND*%
X149070001Y-73650000D03*
%TO.P,U10,4,SCL*%
%TO.N,/SCL*%
X146530000Y-73650000D03*
%TO.P,U10,5,SDA*%
%TO.N,/SDA*%
X143990000Y-73650000D03*
%TO.P,U10,6,SYNC*%
%TO.N,unconnected-(U10-SYNC-Pad6)*%
X141450000Y-73650000D03*
%TO.P,U10,7,INTA*%
%TO.N,unconnected-(U10-INTA-Pad7)*%
X138910000Y-73650000D03*
%TO.P,U10,8,DRDY*%
%TO.N,unconnected-(U10-DRDY-Pad8)*%
X136369999Y-73650000D03*
%TD*%
D15*
%TO.P,SW1,1,A*%
%TO.N,/VBAT*%
X132300000Y-74050000D03*
D16*
%TO.P,SW1,2,B*%
%TO.N,Net-(BT1-+)*%
X132300000Y-76050001D03*
%TO.P,SW1,3,C*%
%TO.N,unconnected-(SW1A-C-Pad3)*%
X132300000Y-78050002D03*
D17*
%TO.P,SW1,S1*%
%TO.N,N/C*%
X132300000Y-71850002D03*
%TO.P,SW1,S2*%
X132300000Y-80250000D03*
%TD*%
D18*
%TO.P,U2,1,IN*%
%TO.N,/VBAT*%
X160000000Y-84500000D03*
D19*
%TO.P,U2,2,GND*%
%TO.N,GND*%
X160000000Y-81960000D03*
%TO.P,U2,3,OUT*%
%TO.N,/6V*%
X160000000Y-79420001D03*
%TD*%
D20*
%TO.P,U4,1,EN1*%
%TO.N,/PWM_A*%
X144900000Y-87485000D03*
%TO.P,U4,2,IN1*%
%TO.N,Net-(U4-IN1)*%
X144900000Y-88755000D03*
%TO.P,U4,3,OUT1*%
%TO.N,Net-(D4-K)*%
X144900000Y-90025000D03*
%TO.P,U4,4,GND*%
%TO.N,GND*%
X144900000Y-91295000D03*
%TO.P,U4,5,GND*%
X144900000Y-92565000D03*
%TO.P,U4,6,GND*%
X144900000Y-93835000D03*
%TO.P,U4,7,GND*%
X144900000Y-95105000D03*
%TO.P,U4,8,OUT2*%
%TO.N,Net-(D4-A)*%
X144900000Y-96375000D03*
%TO.P,U4,9,IN2*%
%TO.N,Net-(U4-IN2)*%
X144900000Y-97645000D03*
%TO.P,U4,10,VS*%
%TO.N,/6V*%
X144900000Y-98915000D03*
%TO.P,U4,11,EN2*%
%TO.N,/PWM_B*%
X154100000Y-98915000D03*
%TO.P,U4,12,IN3*%
%TO.N,Net-(U4-IN3)*%
X154100000Y-97645000D03*
%TO.P,U4,13,OUT3*%
%TO.N,Net-(D2-A)*%
X154100000Y-96375000D03*
%TO.P,U4,14,GND*%
%TO.N,GND*%
X154100000Y-95105000D03*
%TO.P,U4,15,GND*%
X154100000Y-93835000D03*
%TO.P,U4,16,GND*%
X154100000Y-92565000D03*
%TO.P,U4,17,GND*%
X154100000Y-91295000D03*
%TO.P,U4,18,OUT4*%
%TO.N,Net-(D2-K)*%
X154100000Y-90025000D03*
%TO.P,U4,19,IN4*%
%TO.N,Net-(U4-IN4)*%
X154100000Y-88755000D03*
%TO.P,U4,20,VSS*%
%TO.N,/5V*%
X154100000Y-87485000D03*
%TD*%
D11*
%TO.P,C12,1*%
%TO.N,/6V*%
X160750000Y-73600000D03*
D12*
%TO.P,C12,2*%
%TO.N,GND*%
X162750000Y-73600000D03*
%TD*%
D11*
%TO.P,C15,1*%
%TO.N,Net-(D4-K)*%
X132750000Y-89294888D03*
D12*
%TO.P,C15,2*%
%TO.N,Net-(D4-A)*%
X132750000Y-91294889D03*
%TD*%
D13*
%TO.P,U6,1,VCC*%
%TO.N,/3V3*%
X168000000Y-48300000D03*
%TO.P,U6,2,GND*%
%TO.N,GND*%
X165800295Y-47030000D03*
%TO.P,U6,3,SCL*%
%TO.N,/SCL*%
X163600591Y-45760000D03*
%TO.P,U6,4,SDA*%
%TO.N,/SDA*%
X161400886Y-44490000D03*
%TD*%
D11*
%TO.P,C5,1*%
%TO.N,/VBAT*%
X143575000Y-76500000D03*
D12*
%TO.P,C5,2*%
%TO.N,GND*%
X143575000Y-78500001D03*
%TD*%
D21*
%TO.P,D1,1,K*%
%TO.N,GND*%
X128100000Y-75550002D03*
%TO.P,D1,2,A*%
%TO.N,Net-(D1-A)*%
X128100000Y-77600000D03*
%TD*%
D10*
%TO.P,C11,1*%
%TO.N,/5V*%
X140300000Y-79962500D03*
%TO.P,C11,2*%
%TO.N,GND*%
X140300000Y-82037500D03*
%TD*%
D13*
%TO.P,BT1,1,+*%
%TO.N,Net-(BT1-+)*%
X139300000Y-97200000D03*
%TO.P,BT1,2,-*%
%TO.N,GND*%
X139300000Y-94659998D03*
%TD*%
%TO.P,U7,1,VCC*%
%TO.N,/3V3*%
X114278205Y-57200444D03*
%TO.P,U7,2,GND*%
%TO.N,GND*%
X113008205Y-59400149D03*
%TO.P,U7,3,SCL*%
%TO.N,/SCL*%
X111738205Y-61599853D03*
%TO.P,U7,4,SDA*%
%TO.N,/SDA*%
X110468205Y-63799558D03*
%TD*%
%TO.P,U9,1,VCC*%
%TO.N,/3V3*%
X129799557Y-44500000D03*
%TO.P,U9,2,GND*%
%TO.N,GND*%
X127599852Y-45770000D03*
%TO.P,U9,3,SCL*%
%TO.N,/SCL*%
X125400149Y-47040000D03*
%TO.P,U9,4,SDA*%
%TO.N,/SDA*%
X123200443Y-48310000D03*
%TD*%
D22*
%TO.P,U3,1,GND*%
%TO.N,GND*%
X137000000Y-90599999D03*
%TO.P,U3,2,VO*%
%TO.N,/5V*%
X139300000Y-90599998D03*
D23*
X139300000Y-84300000D03*
D22*
%TO.P,U3,3,VI*%
%TO.N,/VBAT*%
X141600000Y-90599999D03*
%TD*%
D13*
%TO.P,U5,1,VCC*%
%TO.N,/3V3*%
X180700000Y-63800000D03*
%TO.P,U5,2,GND*%
%TO.N,GND*%
X179430000Y-61600295D03*
%TO.P,U5,3,SCL*%
%TO.N,/SCL*%
X178160000Y-59400591D03*
%TO.P,U5,4,SDA*%
%TO.N,/SDA*%
X176890000Y-57200886D03*
%TD*%
D11*
%TO.P,C6,1*%
%TO.N,/VBAT*%
X132750000Y-85500001D03*
D12*
%TO.P,C6,2*%
%TO.N,GND*%
X132750000Y-83500000D03*
%TD*%
D24*
%TO.P,D3,1,VDD*%
%TO.N,/3V3*%
X128500000Y-121800000D03*
%TO.P,D3,2,DOUT*%
%TO.N,unconnected-(D3-DOUT-Pad2)*%
X125200000Y-121800000D03*
%TO.P,D3,3,VSS*%
%TO.N,GND*%
X125200000Y-126700000D03*
%TO.P,D3,4,DIN*%
%TO.N,/RGB*%
X128500000Y-126700000D03*
%TD*%
D13*
%TO.P,M2,1,+*%
%TO.N,Net-(D4-K)*%
X126800000Y-88029999D03*
%TO.P,M2,2,-*%
%TO.N,Net-(D4-A)*%
X126800000Y-90570001D03*
%TD*%
D25*
%TO.P,R1,1*%
%TO.N,/VBAT*%
X128100000Y-81400000D03*
%TO.P,R1,2*%
%TO.N,Net-(D1-A)*%
X128100000Y-79400000D03*
%TD*%
D11*
%TO.P,C14,1*%
%TO.N,Net-(D2-K)*%
X158800000Y-89399999D03*
D12*
%TO.P,C14,2*%
%TO.N,Net-(D2-A)*%
X158800000Y-91400000D03*
%TD*%
D13*
%TO.P,U8,1,VCC*%
%TO.N,/3V3*%
X149400000Y-41300000D03*
%TO.P,U8,2,GND*%
%TO.N,GND*%
X146860000Y-41300000D03*
%TO.P,U8,3,SCL*%
%TO.N,/SCL*%
X144320001Y-41300000D03*
%TO.P,U8,4,SDA*%
%TO.N,/SDA*%
X141780000Y-41300000D03*
%TD*%
D26*
%TO.N,GND*%
X143250000Y-119515000D03*
X144900000Y-92565000D03*
X134100000Y-119300000D03*
X147450000Y-96100000D03*
X129000000Y-135700000D03*
X168737500Y-119800000D03*
X165750000Y-49750000D03*
X143250000Y-100250000D03*
X128100000Y-75550002D03*
X140300000Y-82037500D03*
X151250000Y-92350000D03*
X143000000Y-71535002D03*
X121535002Y-70785002D03*
X175000000Y-61500000D03*
X117500000Y-59500000D03*
X136550000Y-119515000D03*
X154100000Y-91295000D03*
%TO.N,/VBAT*%
X121750000Y-127000000D03*
%TO.N,/5V*%
X147250000Y-101000000D03*
X136550000Y-116975000D03*
X147450000Y-92300000D03*
X151250000Y-88550000D03*
%TO.N,/6V*%
X163249997Y-78425000D03*
X155750000Y-83670001D03*
%TO.N,/RGB*%
X128500000Y-126700000D03*
%TO.N,/3V3*%
X136550000Y-122055000D03*
X128500000Y-121800000D03*
X163200000Y-125300000D03*
X148000000Y-122055000D03*
X173382057Y-71367943D03*
X118500000Y-59000000D03*
%TO.N,Net-(D4-K)*%
X144900000Y-90025000D03*
%TO.N,Net-(D4-A)*%
X144900000Y-96375000D03*
%TO.N,Net-(U4-IN1)*%
X147450000Y-94300000D03*
%TO.N,Net-(U4-IN4)*%
X151250000Y-90550000D03*
%TO.N,/PWM_A*%
X147450000Y-90500000D03*
%TO.N,Net-(U4-IN2)*%
X147450000Y-98100000D03*
%TO.N,/PWM_B*%
X151250000Y-98150000D03*
%TO.N,/SCL*%
X174000000Y-59500000D03*
X160969669Y-48280331D03*
X116500000Y-61500000D03*
X153258949Y-76497017D03*
%TO.N,/SDA*%
X152500000Y-76750000D03*
X173000000Y-59500000D03*
X121750000Y-73000000D03*
X158726679Y-47023321D03*
%TO.N,Net-(BT1-+)*%
X129000000Y-82500000D03*
%TO.N,Net-(U4-IN3)*%
X151250000Y-94350000D03*
%TD*%
D27*
%TO.N,GND*%
X138300000Y-82037500D02*
X140300000Y-82037500D01*
X149070001Y-73650000D02*
X150720001Y-72000000D01*
X162750000Y-73600000D02*
X169400000Y-73600000D01*
X134250000Y-83500000D02*
X132750000Y-83500000D01*
X146850000Y-96100000D02*
X147450000Y-96100000D01*
X157750000Y-44000000D02*
X149500000Y-44000000D01*
X137000000Y-92359998D02*
X139300000Y-94659998D01*
X154100000Y-95105000D02*
X154100000Y-93835000D01*
X146860000Y-41360000D02*
X146860000Y-41300000D01*
X144900000Y-95105000D02*
X144900000Y-93835000D01*
X154100000Y-92565000D02*
X151465000Y-92565000D01*
X144900000Y-93835000D02*
X144900000Y-92565000D01*
X143000000Y-71535002D02*
X142250000Y-70785002D01*
X140300000Y-78162500D02*
X143237499Y-78162500D01*
X147450000Y-96100000D02*
X148200000Y-96850000D01*
X162750000Y-73100000D02*
X162750000Y-73600000D01*
X137287500Y-82037500D02*
X136500000Y-81250000D01*
X168452500Y-119515000D02*
X143250000Y-119515000D01*
X136500000Y-81250000D02*
X136500000Y-79250000D01*
X113008205Y-59400149D02*
X117400149Y-59400149D01*
X143237499Y-78162500D02*
X143575000Y-78500001D01*
X148200000Y-98550000D02*
X146500000Y-100250000D01*
X138299997Y-78162500D02*
X140300000Y-78162500D01*
X117400149Y-59400149D02*
X117500000Y-59500000D01*
X165750000Y-49750000D02*
X163500000Y-49750000D01*
X125200000Y-131900000D02*
X129000000Y-135700000D01*
X147500000Y-96100000D02*
X151250000Y-92350000D01*
X146500000Y-100250000D02*
X143250000Y-100250000D01*
X154100000Y-92565000D02*
X154100000Y-91295000D01*
X144900000Y-92565000D02*
X144900000Y-91295000D01*
X136500000Y-81250000D02*
X134250000Y-83500000D01*
X125200000Y-126700000D02*
X126700000Y-126700000D01*
X161650000Y-72000000D02*
X162750000Y-73100000D01*
X125200000Y-126700000D02*
X125200000Y-131900000D01*
X148200000Y-96850000D02*
X148200000Y-98550000D01*
X169400000Y-73600000D02*
X175000000Y-68000000D01*
X137587500Y-78162500D02*
X138299997Y-78162500D01*
X148850000Y-73650000D02*
X149070001Y-73650000D01*
X145855000Y-95105000D02*
X146850000Y-96100000D01*
X138300000Y-82037500D02*
X137287500Y-82037500D01*
X154100000Y-95105000D02*
X154100000Y-92565000D01*
X168737500Y-119800000D02*
X168452500Y-119515000D01*
X175000000Y-61500000D02*
X175000000Y-59000000D01*
X136500000Y-79250000D02*
X137587500Y-78162500D01*
X163500000Y-49750000D02*
X157750000Y-44000000D01*
X143250000Y-119515000D02*
X136550000Y-119515000D01*
X137000000Y-90599999D02*
X137000000Y-92359998D01*
X149500000Y-44000000D02*
X146860000Y-41360000D01*
X175000000Y-59000000D02*
X165750000Y-49750000D01*
X151465000Y-92565000D02*
X151250000Y-92350000D01*
X144900000Y-95105000D02*
X145855000Y-95105000D01*
X175000000Y-68000000D02*
X175000000Y-61500000D01*
X142250000Y-70785002D02*
X121535002Y-70785002D01*
X126700000Y-126700000D02*
X134100000Y-119300000D01*
X150720001Y-72000000D02*
X161650000Y-72000000D01*
D28*
%TO.N,/VBAT*%
X128100000Y-81400000D02*
X130320000Y-81400000D01*
X134499999Y-87750000D02*
X132750000Y-86000001D01*
X132250001Y-85500001D02*
X132750000Y-85500001D01*
X134337500Y-76087500D02*
X132300000Y-74050000D01*
X144825000Y-77750000D02*
X154750000Y-77750000D01*
X130320000Y-81400000D02*
X130470000Y-81250000D01*
X138299997Y-76087500D02*
X140300000Y-76087500D01*
X157750000Y-82250000D02*
X160000000Y-84500000D01*
X121750000Y-87750000D02*
X128100000Y-81400000D01*
X130470000Y-81250000D02*
X130470000Y-83720000D01*
X143162500Y-76087500D02*
X143575000Y-76500000D01*
X130470000Y-83720000D02*
X132250001Y-85500001D01*
X138299997Y-76087500D02*
X134337500Y-76087500D01*
X143575000Y-76500000D02*
X144825000Y-77750000D01*
X141600000Y-90599999D02*
X141600000Y-89850000D01*
X139500000Y-87750000D02*
X134499999Y-87750000D01*
X154750000Y-77750000D02*
X157750000Y-80750000D01*
X140300000Y-76087500D02*
X143162500Y-76087500D01*
X130470000Y-75880000D02*
X132300000Y-74050000D01*
X141600000Y-89850000D02*
X139500000Y-87750000D01*
X157750000Y-80750000D02*
X157750000Y-82250000D01*
X130470000Y-81250000D02*
X130470000Y-75880000D01*
X132750000Y-86000001D02*
X132750000Y-85500001D01*
X121750000Y-127000000D02*
X121750000Y-87750000D01*
D27*
%TO.N,/5V*%
X139300000Y-90599998D02*
X139300000Y-91300000D01*
X147250000Y-101000000D02*
X146500000Y-101750000D01*
X141250000Y-101750000D02*
X141250000Y-112275000D01*
X146500000Y-101750000D02*
X141250000Y-101750000D01*
X141250000Y-112275000D02*
X136550000Y-116975000D01*
X141350000Y-84300000D02*
X143550000Y-82100000D01*
X141250000Y-93250000D02*
X141250000Y-101750000D01*
X152315000Y-87485000D02*
X151250000Y-88550000D01*
X141412500Y-79962500D02*
X143550000Y-82100000D01*
D29*
X147450000Y-92300000D02*
X151200000Y-88550000D01*
D27*
X140300000Y-79962500D02*
X141412500Y-79962500D01*
X139300000Y-91300000D02*
X141250000Y-93250000D01*
X139300000Y-84300000D02*
X141350000Y-84300000D01*
X138753122Y-84300000D02*
X139300000Y-84300000D01*
X138300000Y-79962500D02*
X140300000Y-79962500D01*
X154100000Y-87485000D02*
X152315000Y-87485000D01*
%TO.N,/6V*%
X160750000Y-73600000D02*
X161000000Y-73850000D01*
X155750000Y-83670001D02*
X153670001Y-85750000D01*
X161000000Y-78420001D02*
X160995001Y-78425000D01*
X144367316Y-98915000D02*
X144900000Y-98915000D01*
X161000000Y-73850000D02*
X161000000Y-78420001D01*
X144750000Y-85750000D02*
X143000000Y-87500000D01*
X143000000Y-97547684D02*
X144367316Y-98915000D01*
X143000000Y-87500000D02*
X143000000Y-97547684D01*
X163249997Y-78425000D02*
X160995001Y-78425000D01*
X160995001Y-78425000D02*
X160000000Y-79420001D01*
X153670001Y-85750000D02*
X144750000Y-85750000D01*
D28*
%TO.N,Net-(D2-K)*%
X158800000Y-89399999D02*
X163259999Y-89399999D01*
X154100000Y-90025000D02*
X158174999Y-90025000D01*
X163259999Y-89399999D02*
X164400000Y-88259998D01*
X158174999Y-90025000D02*
X158800000Y-89399999D01*
%TO.N,Net-(D2-A)*%
X158800000Y-92950000D02*
X155375000Y-96375000D01*
X158800000Y-91400000D02*
X163800000Y-91400000D01*
X163800000Y-91400000D02*
X164400000Y-90800000D01*
X158800000Y-91400000D02*
X158800000Y-92950000D01*
X155375000Y-96375000D02*
X154100000Y-96375000D01*
D27*
%TO.N,/3V3*%
X166250000Y-49000000D02*
X163750000Y-49000000D01*
X136550000Y-122055000D02*
X144750000Y-122055000D01*
X173382057Y-71367943D02*
X176000000Y-68750000D01*
X163750000Y-49000000D02*
X157750000Y-43000000D01*
X176000000Y-68750000D02*
X176000000Y-63750000D01*
X159955000Y-122055000D02*
X163200000Y-125300000D01*
X144750000Y-122055000D02*
X148000000Y-122055000D01*
X114278205Y-57200444D02*
X116700444Y-57200444D01*
X176050000Y-63800000D02*
X176000000Y-63750000D01*
X167750000Y-50500000D02*
X166250000Y-49000000D01*
X151100000Y-43000000D02*
X149400000Y-41300000D01*
X168000000Y-50750000D02*
X167750000Y-50500000D01*
X116700444Y-57200444D02*
X118500000Y-59000000D01*
X176000000Y-58750000D02*
X168000000Y-50750000D01*
X168000000Y-50250000D02*
X167750000Y-50500000D01*
X157750000Y-43000000D02*
X151100000Y-43000000D01*
X151500000Y-73760000D02*
X151610000Y-73650000D01*
X168000000Y-48300000D02*
X168000000Y-50250000D01*
X180700000Y-63800000D02*
X176050000Y-63800000D01*
X148000000Y-122055000D02*
X159955000Y-122055000D01*
X176000000Y-63750000D02*
X176000000Y-58750000D01*
D28*
%TO.N,Net-(D1-A)*%
X128100000Y-79400000D02*
X128100000Y-77600000D01*
D29*
%TO.N,Net-(U4-IN1)*%
X145849999Y-88755000D02*
X146800000Y-89705001D01*
X146800000Y-89705001D02*
X146800000Y-93650000D01*
X146800000Y-93650000D02*
X147450000Y-94300000D01*
X144900000Y-88755000D02*
X145849999Y-88755000D01*
%TO.N,Net-(U4-IN4)*%
X153045000Y-88755000D02*
X151250000Y-90550000D01*
X154100000Y-88755000D02*
X153045000Y-88755000D01*
%TO.N,/PWM_A*%
X147450000Y-89085001D02*
X147450000Y-90500000D01*
X145849999Y-87485000D02*
X147450000Y-89085001D01*
X144900000Y-87485000D02*
X145849999Y-87485000D01*
%TO.N,Net-(U4-IN2)*%
X146995000Y-97645000D02*
X147450000Y-98100000D01*
X144900000Y-97645000D02*
X146995000Y-97645000D01*
%TO.N,/PWM_B*%
X154100000Y-98915000D02*
X152015000Y-98915000D01*
X152015000Y-98915000D02*
X151250000Y-98150000D01*
%TO.N,/SCL*%
X148930000Y-71250000D02*
X170250000Y-71250000D01*
X146530000Y-73650000D02*
X148930000Y-71250000D01*
X116400147Y-61599853D02*
X116500000Y-61500000D01*
X152261932Y-75500000D02*
X148380000Y-75500000D01*
X163100000Y-50350000D02*
X157750000Y-45000000D01*
X157750000Y-45000000D02*
X148020001Y-45000000D01*
X174000000Y-59500000D02*
X174000000Y-59250000D01*
X148380000Y-75500000D02*
X146530000Y-73650000D01*
X148020001Y-45000000D02*
X144320001Y-41300000D01*
X174000000Y-59250000D02*
X165100000Y-50350000D01*
X165100000Y-50350000D02*
X163100000Y-50350000D01*
X170250000Y-71250000D02*
X174000000Y-67500000D01*
X111738205Y-61599853D02*
X116400147Y-61599853D01*
X174000000Y-67500000D02*
X174000000Y-59500000D01*
X153258949Y-76497017D02*
X152261932Y-75500000D01*
%TO.N,/SDA*%
X146480000Y-46000000D02*
X141780000Y-41300000D01*
X143990000Y-73650000D02*
X142790000Y-72450000D01*
X134550000Y-72450000D02*
X134184998Y-72815002D01*
X134000000Y-73000000D02*
X121750000Y-73000000D01*
X152500000Y-76750000D02*
X152000000Y-76250000D01*
X152000000Y-76250000D02*
X146590000Y-76250000D01*
X157703358Y-46000000D02*
X146480000Y-46000000D01*
X143990000Y-73650000D02*
X146890000Y-70750000D01*
X169750000Y-70750000D02*
X173000000Y-67500000D01*
X158726679Y-47023321D02*
X157703358Y-46000000D01*
X146590000Y-76250000D02*
X143990000Y-73650000D01*
X142790000Y-72450000D02*
X134550000Y-72450000D01*
X173000000Y-59500000D02*
X164350000Y-50850000D01*
X164350000Y-50850000D02*
X162553358Y-50850000D01*
X146890000Y-70750000D02*
X169750000Y-70750000D01*
X162553358Y-50850000D02*
X158726679Y-47023321D01*
X134184998Y-72815002D02*
X134000000Y-73000000D01*
X173000000Y-67500000D02*
X173000000Y-59500000D01*
D28*
%TO.N,Net-(BT1-+)*%
X135700000Y-97200000D02*
X139300000Y-97200000D01*
X129000000Y-82500000D02*
X129000000Y-90500000D01*
X129000000Y-90500000D02*
X135700000Y-97200000D01*
D29*
%TO.N,Net-(U4-IN3)*%
X154100000Y-97645000D02*
X153708738Y-97645000D01*
X152500000Y-96436262D02*
X153708738Y-97645000D01*
X151250000Y-94350000D02*
X151600000Y-94350000D01*
X151600000Y-94350000D02*
X152500000Y-95250000D01*
X152500000Y-95250000D02*
X152500000Y-96436262D01*
%TD*%
%TA.AperFunction,Conductor*%
%TO.N,GND*%
G36*
X165954809Y-49770185D02*
G01*
X165975451Y-49786819D01*
X167162707Y-50974074D01*
X167162717Y-50974085D01*
X167167047Y-50978415D01*
X167167048Y-50978416D01*
X167412717Y-51224084D01*
X167412736Y-51224105D01*
X175213181Y-59024548D01*
X175246666Y-59085871D01*
X175249500Y-59112229D01*
X175249500Y-68387769D01*
X175229815Y-68454808D01*
X175213181Y-68475450D01*
X173073994Y-70614636D01*
X173037930Y-70637313D01*
X173038807Y-70639134D01*
X173032532Y-70642155D01*
X172879794Y-70738127D01*
X172752241Y-70865680D01*
X172656268Y-71018419D01*
X172596688Y-71188688D01*
X172596687Y-71188693D01*
X172576492Y-71367939D01*
X172576492Y-71367946D01*
X172596687Y-71547192D01*
X172596688Y-71547197D01*
X172656268Y-71717466D01*
X172726129Y-71828648D01*
X172752241Y-71870205D01*
X172879795Y-71997759D01*
X172970137Y-72054525D01*
X173019430Y-72085498D01*
X173032535Y-72093732D01*
X173177450Y-72144440D01*
X173202802Y-72153311D01*
X173202807Y-72153312D01*
X173382053Y-72173508D01*
X173382057Y-72173508D01*
X173382061Y-72173508D01*
X173561306Y-72153312D01*
X173561309Y-72153311D01*
X173561312Y-72153311D01*
X173731579Y-72093732D01*
X173884319Y-71997759D01*
X174011873Y-71870205D01*
X174107846Y-71717465D01*
X174107849Y-71717453D01*
X174110867Y-71711191D01*
X174112707Y-71712077D01*
X174135362Y-71676004D01*
X176582951Y-69228416D01*
X176665084Y-69105495D01*
X176721658Y-68968913D01*
X176750500Y-68823918D01*
X176750500Y-64674500D01*
X176770185Y-64607461D01*
X176822989Y-64561706D01*
X176874500Y-64550500D01*
X179450315Y-64550500D01*
X179517354Y-64570185D01*
X179554123Y-64606678D01*
X179591015Y-64663145D01*
X179591017Y-64663147D01*
X179591021Y-64663153D01*
X179748216Y-64833913D01*
X179748219Y-64833915D01*
X179748222Y-64833918D01*
X179931365Y-64976464D01*
X179931371Y-64976468D01*
X179931374Y-64976470D01*
X180135497Y-65086936D01*
X180249487Y-65126068D01*
X180355015Y-65162297D01*
X180355017Y-65162297D01*
X180355019Y-65162298D01*
X180583951Y-65200500D01*
X180583952Y-65200500D01*
X180816048Y-65200500D01*
X180816049Y-65200500D01*
X181044981Y-65162298D01*
X181264503Y-65086936D01*
X181468626Y-64976470D01*
X181469197Y-64976026D01*
X181530129Y-64928600D01*
X181651784Y-64833913D01*
X181808979Y-64663153D01*
X181935924Y-64468849D01*
X182029157Y-64256300D01*
X182053384Y-64160630D01*
X182088922Y-64100476D01*
X182151342Y-64069083D01*
X182220826Y-64076421D01*
X182275312Y-64120159D01*
X182288091Y-64143477D01*
X182546873Y-64766056D01*
X182574896Y-64833476D01*
X182600421Y-64894883D01*
X182601833Y-64898435D01*
X183019865Y-66000501D01*
X183043618Y-66063121D01*
X183044940Y-66066781D01*
X183350730Y-66956146D01*
X183445079Y-67230554D01*
X183449932Y-67244667D01*
X183451140Y-67248366D01*
X183710670Y-68088003D01*
X183711661Y-68157866D01*
X183679881Y-68212303D01*
X180829005Y-71063181D01*
X180767682Y-71096666D01*
X180741324Y-71099500D01*
X176848746Y-71099500D01*
X176698598Y-71117731D01*
X176548449Y-71135963D01*
X176429602Y-71165255D01*
X176254727Y-71208358D01*
X175971882Y-71315628D01*
X175704035Y-71456206D01*
X175704026Y-71456212D01*
X175455078Y-71628047D01*
X175455072Y-71628052D01*
X175228648Y-71828646D01*
X175228646Y-71828648D01*
X175028052Y-72055072D01*
X175028047Y-72055078D01*
X174856212Y-72304026D01*
X174856206Y-72304035D01*
X174715628Y-72571882D01*
X174608358Y-72854727D01*
X174570634Y-73007783D01*
X174535963Y-73148449D01*
X174522832Y-73256593D01*
X174499500Y-73448745D01*
X174499500Y-138095572D01*
X174499184Y-138104419D01*
X174484869Y-138304557D01*
X174482351Y-138322068D01*
X174440646Y-138513787D01*
X174435662Y-138530763D01*
X174367090Y-138714609D01*
X174359740Y-138730701D01*
X174265711Y-138902904D01*
X174256146Y-138917789D01*
X174138558Y-139074867D01*
X174126972Y-139088237D01*
X173988237Y-139226972D01*
X173974867Y-139238558D01*
X173817789Y-139356146D01*
X173802904Y-139365711D01*
X173630701Y-139459740D01*
X173614609Y-139467090D01*
X173430763Y-139535662D01*
X173413787Y-139540646D01*
X173222068Y-139582351D01*
X173204557Y-139584869D01*
X173023779Y-139597799D01*
X173004417Y-139599184D01*
X172995572Y-139599500D01*
X165124000Y-139599500D01*
X165056961Y-139579815D01*
X165011206Y-139527011D01*
X165000000Y-139475500D01*
X165000000Y-136500000D01*
X164999998Y-136499999D01*
X126250000Y-136249999D01*
X126250000Y-139475500D01*
X126230315Y-139542539D01*
X126177511Y-139588294D01*
X126126000Y-139599500D01*
X118204428Y-139599500D01*
X118195582Y-139599184D01*
X118173622Y-139597613D01*
X117995442Y-139584869D01*
X117977931Y-139582351D01*
X117786212Y-139540646D01*
X117769236Y-139535662D01*
X117585390Y-139467090D01*
X117569298Y-139459740D01*
X117397095Y-139365711D01*
X117382210Y-139356146D01*
X117225132Y-139238558D01*
X117211762Y-139226972D01*
X117073027Y-139088237D01*
X117061441Y-139074867D01*
X116943849Y-138917784D01*
X116934288Y-138902904D01*
X116840259Y-138730701D01*
X116832909Y-138714609D01*
X116772091Y-138551551D01*
X116764334Y-138530755D01*
X116759355Y-138513797D01*
X116717647Y-138322063D01*
X116715130Y-138304556D01*
X116700816Y-138104418D01*
X116700500Y-138095572D01*
X116700500Y-133993713D01*
X120849500Y-133993713D01*
X120849500Y-134206286D01*
X120882753Y-134416239D01*
X120948444Y-134618414D01*
X121044951Y-134807820D01*
X121169890Y-134979786D01*
X121320213Y-135130109D01*
X121492179Y-135255048D01*
X121492181Y-135255049D01*
X121492184Y-135255051D01*
X121681588Y-135351557D01*
X121883757Y-135417246D01*
X122093713Y-135450500D01*
X122093714Y-135450500D01*
X122306286Y-135450500D01*
X122306287Y-135450500D01*
X122516243Y-135417246D01*
X122718412Y-135351557D01*
X122907816Y-135255051D01*
X122929789Y-135239086D01*
X123079786Y-135130109D01*
X123079788Y-135130106D01*
X123079792Y-135130104D01*
X123230104Y-134979792D01*
X123230106Y-134979788D01*
X123230109Y-134979786D01*
X123355048Y-134807820D01*
X123355047Y-134807820D01*
X123355051Y-134807816D01*
X123451557Y-134618412D01*
X123517246Y-134416243D01*
X123550500Y-134206287D01*
X123550500Y-133993713D01*
X167649500Y-133993713D01*
X167649500Y-134206286D01*
X167682753Y-134416239D01*
X167748444Y-134618414D01*
X167844951Y-134807820D01*
X167969890Y-134979786D01*
X168120213Y-135130109D01*
X168292179Y-135255048D01*
X168292181Y-135255049D01*
X168292184Y-135255051D01*
X168481588Y-135351557D01*
X168683757Y-135417246D01*
X168893713Y-135450500D01*
X168893714Y-135450500D01*
X169106286Y-135450500D01*
X169106287Y-135450500D01*
X169316243Y-135417246D01*
X169518412Y-135351557D01*
X169707816Y-135255051D01*
X169729789Y-135239086D01*
X169879786Y-135130109D01*
X169879788Y-135130106D01*
X169879792Y-135130104D01*
X170030104Y-134979792D01*
X170030106Y-134979788D01*
X170030109Y-134979786D01*
X170155048Y-134807820D01*
X170155047Y-134807820D01*
X170155051Y-134807816D01*
X170251557Y-134618412D01*
X170317246Y-134416243D01*
X170350500Y-134206287D01*
X170350500Y-133993713D01*
X170317246Y-133783757D01*
X170251557Y-133581588D01*
X170155051Y-133392184D01*
X170155049Y-133392181D01*
X170155048Y-133392179D01*
X170030109Y-133220213D01*
X169879786Y-133069890D01*
X169707820Y-132944951D01*
X169518414Y-132848444D01*
X169518413Y-132848443D01*
X169518412Y-132848443D01*
X169316243Y-132782754D01*
X169316241Y-132782753D01*
X169316240Y-132782753D01*
X169154957Y-132757208D01*
X169106287Y-132749500D01*
X168893713Y-132749500D01*
X168845042Y-132757208D01*
X168683760Y-132782753D01*
X168481585Y-132848444D01*
X168292179Y-132944951D01*
X168120213Y-133069890D01*
X167969890Y-133220213D01*
X167844951Y-133392179D01*
X167748444Y-133581585D01*
X167682753Y-133783760D01*
X167649500Y-133993713D01*
X123550500Y-133993713D01*
X123517246Y-133783757D01*
X123451557Y-133581588D01*
X123355051Y-133392184D01*
X123355049Y-133392181D01*
X123355048Y-133392179D01*
X123230109Y-133220213D01*
X123079786Y-133069890D01*
X122907820Y-132944951D01*
X122718414Y-132848444D01*
X122718413Y-132848443D01*
X122718412Y-132848443D01*
X122516243Y-132782754D01*
X122516241Y-132782753D01*
X122516240Y-132782753D01*
X122354957Y-132757208D01*
X122306287Y-132749500D01*
X122093713Y-132749500D01*
X122045042Y-132757208D01*
X121883760Y-132782753D01*
X121681585Y-132848444D01*
X121492179Y-132944951D01*
X121320213Y-133069890D01*
X121169890Y-133220213D01*
X121044951Y-133392179D01*
X120948444Y-133581585D01*
X120882753Y-133783760D01*
X120849500Y-133993713D01*
X116700500Y-133993713D01*
X116700500Y-78493713D01*
X120849500Y-78493713D01*
X120849500Y-78706286D01*
X120880181Y-78900001D01*
X120882754Y-78916243D01*
X120938725Y-79088504D01*
X120948444Y-79118414D01*
X121044951Y-79307820D01*
X121169890Y-79479786D01*
X121320213Y-79630109D01*
X121492179Y-79755048D01*
X121492181Y-79755049D01*
X121492184Y-79755051D01*
X121681588Y-79851557D01*
X121883757Y-79917246D01*
X122093713Y-79950500D01*
X122093714Y-79950500D01*
X122306286Y-79950500D01*
X122306287Y-79950500D01*
X122516243Y-79917246D01*
X122718412Y-79851557D01*
X122907816Y-79755051D01*
X122947437Y-79726265D01*
X123079786Y-79630109D01*
X123079788Y-79630106D01*
X123079792Y-79630104D01*
X123230104Y-79479792D01*
X123230106Y-79479788D01*
X123230109Y-79479786D01*
X123355048Y-79307820D01*
X123355047Y-79307820D01*
X123355051Y-79307816D01*
X123451557Y-79118412D01*
X123517246Y-78916243D01*
X123550500Y-78706287D01*
X123550500Y-78493713D01*
X123517246Y-78283757D01*
X123451557Y-78081588D01*
X123355051Y-77892184D01*
X123355049Y-77892181D01*
X123355048Y-77892179D01*
X123230109Y-77720213D01*
X123079786Y-77569890D01*
X122907820Y-77444951D01*
X122718414Y-77348444D01*
X122718413Y-77348443D01*
X122718412Y-77348443D01*
X122516243Y-77282754D01*
X122516241Y-77282753D01*
X122516240Y-77282753D01*
X122354957Y-77257208D01*
X122306287Y-77249500D01*
X122093713Y-77249500D01*
X122045042Y-77257208D01*
X121883760Y-77282753D01*
X121681585Y-77348444D01*
X121492179Y-77444951D01*
X121320213Y-77569890D01*
X121169890Y-77720213D01*
X121044951Y-77892179D01*
X120948444Y-78081585D01*
X120882753Y-78283760D01*
X120849500Y-78493713D01*
X116700500Y-78493713D01*
X116700500Y-75175015D01*
X126900000Y-75175015D01*
X126900000Y-75300002D01*
X127850000Y-75300002D01*
X128350000Y-75300002D01*
X129299999Y-75300002D01*
X129299999Y-75175030D01*
X129299998Y-75175015D01*
X129289505Y-75072304D01*
X129234358Y-74905882D01*
X129234356Y-74905877D01*
X129142315Y-74756656D01*
X129018345Y-74632686D01*
X128869124Y-74540645D01*
X128869119Y-74540643D01*
X128702697Y-74485496D01*
X128702690Y-74485495D01*
X128599986Y-74475002D01*
X128350000Y-74475002D01*
X128350000Y-75300002D01*
X127850000Y-75300002D01*
X127850000Y-74475002D01*
X127600029Y-74475002D01*
X127600012Y-74475003D01*
X127497302Y-74485496D01*
X127330880Y-74540643D01*
X127330875Y-74540645D01*
X127181654Y-74632686D01*
X127057684Y-74756656D01*
X126965643Y-74905877D01*
X126965641Y-74905882D01*
X126910494Y-75072304D01*
X126910493Y-75072311D01*
X126900000Y-75175015D01*
X116700500Y-75175015D01*
X116700500Y-73448745D01*
X116682007Y-73296447D01*
X116664037Y-73148449D01*
X116591643Y-72854734D01*
X116591642Y-72854731D01*
X116591641Y-72854727D01*
X116484371Y-72571882D01*
X116343793Y-72304035D01*
X116343787Y-72304026D01*
X116171952Y-72055078D01*
X116171947Y-72055072D01*
X115971353Y-71828648D01*
X115971351Y-71828646D01*
X115744927Y-71628052D01*
X115744921Y-71628047D01*
X115495973Y-71456212D01*
X115495964Y-71456206D01*
X115228117Y-71315628D01*
X114945272Y-71208358D01*
X114829820Y-71179902D01*
X114651551Y-71135963D01*
X114471371Y-71114085D01*
X114351254Y-71099500D01*
X114351252Y-71099500D01*
X114265892Y-71099500D01*
X110458676Y-71099500D01*
X110391637Y-71079815D01*
X110370995Y-71063181D01*
X107520117Y-68212303D01*
X107486632Y-68150980D01*
X107489327Y-68088005D01*
X107748881Y-67248298D01*
X107750044Y-67244737D01*
X108155066Y-66066760D01*
X108156353Y-66063195D01*
X108598186Y-64898381D01*
X108599551Y-64894948D01*
X108892220Y-64190840D01*
X108936127Y-64136493D01*
X109002448Y-64114510D01*
X109070126Y-64131872D01*
X109117673Y-64183068D01*
X109126926Y-64207994D01*
X109139046Y-64255855D01*
X109232280Y-64468406D01*
X109359221Y-64662705D01*
X109359224Y-64662709D01*
X109359226Y-64662711D01*
X109516421Y-64833471D01*
X109516424Y-64833473D01*
X109516427Y-64833476D01*
X109699570Y-64976022D01*
X109699576Y-64976026D01*
X109699579Y-64976028D01*
X109903702Y-65086494D01*
X110017692Y-65125626D01*
X110123220Y-65161855D01*
X110123222Y-65161855D01*
X110123224Y-65161856D01*
X110352156Y-65200058D01*
X110352157Y-65200058D01*
X110584253Y-65200058D01*
X110584254Y-65200058D01*
X110813186Y-65161856D01*
X111032708Y-65086494D01*
X111236831Y-64976028D01*
X111419989Y-64833471D01*
X111577184Y-64662711D01*
X111704129Y-64468407D01*
X111797362Y-64255858D01*
X111854339Y-64030863D01*
X111854340Y-64030855D01*
X111873505Y-63799564D01*
X111873505Y-63799551D01*
X111854340Y-63568260D01*
X111854338Y-63568249D01*
X111797362Y-63343257D01*
X111723190Y-63174163D01*
X111714287Y-63104863D01*
X111744264Y-63041751D01*
X111803603Y-63004864D01*
X111836746Y-63000353D01*
X111854253Y-63000353D01*
X111854254Y-63000353D01*
X112083186Y-62962151D01*
X112302708Y-62886789D01*
X112506831Y-62776323D01*
X112689989Y-62633766D01*
X112847184Y-62463006D01*
X112949414Y-62306531D01*
X113002559Y-62261175D01*
X113053222Y-62250353D01*
X116199608Y-62250353D01*
X116240562Y-62257311D01*
X116251605Y-62261175D01*
X116320745Y-62285368D01*
X116320751Y-62285368D01*
X116320753Y-62285369D01*
X116499996Y-62305565D01*
X116500000Y-62305565D01*
X116500004Y-62305565D01*
X116679249Y-62285369D01*
X116679252Y-62285368D01*
X116679255Y-62285368D01*
X116849522Y-62225789D01*
X117002262Y-62129816D01*
X117129816Y-62002262D01*
X117225789Y-61849522D01*
X117285368Y-61679255D01*
X117294265Y-61600295D01*
X117305565Y-61500003D01*
X117305565Y-61499996D01*
X117285369Y-61320750D01*
X117285368Y-61320745D01*
X117225788Y-61150476D01*
X117129815Y-60997737D01*
X117002262Y-60870184D01*
X116849523Y-60774211D01*
X116679254Y-60714631D01*
X116679249Y-60714630D01*
X116500004Y-60694435D01*
X116499996Y-60694435D01*
X116320750Y-60714630D01*
X116320745Y-60714631D01*
X116150476Y-60774211D01*
X115997737Y-60870184D01*
X115954888Y-60913034D01*
X115893565Y-60946519D01*
X115867207Y-60949353D01*
X113550300Y-60949353D01*
X113483261Y-60929668D01*
X113437506Y-60876864D01*
X113427562Y-60807706D01*
X113456587Y-60744150D01*
X113510037Y-60708072D01*
X113572498Y-60686628D01*
X113572507Y-60686625D01*
X113776556Y-60576199D01*
X113776560Y-60576196D01*
X113959642Y-60433697D01*
X113959646Y-60433694D01*
X114116790Y-60262991D01*
X114243688Y-60068758D01*
X114336887Y-59856284D01*
X114393843Y-59631367D01*
X114413003Y-59400154D01*
X114413003Y-59400143D01*
X114403470Y-59285108D01*
X113491167Y-59529557D01*
X113508205Y-59465975D01*
X113508205Y-59334323D01*
X113474130Y-59207156D01*
X113408304Y-59093142D01*
X113361756Y-59046594D01*
X114274594Y-58802000D01*
X114262643Y-58774754D01*
X114253740Y-58705453D01*
X114283718Y-58642341D01*
X114343057Y-58605455D01*
X114376199Y-58600944D01*
X114394253Y-58600944D01*
X114394254Y-58600944D01*
X114623186Y-58562742D01*
X114842708Y-58487380D01*
X115046831Y-58376914D01*
X115229989Y-58234357D01*
X115387184Y-58063597D01*
X115407544Y-58032434D01*
X115424082Y-58007122D01*
X115477228Y-57961766D01*
X115527890Y-57950944D01*
X116338214Y-57950944D01*
X116405253Y-57970629D01*
X116425895Y-57987263D01*
X117746692Y-59308059D01*
X117769358Y-59344125D01*
X117771188Y-59343244D01*
X117774209Y-59349518D01*
X117774211Y-59349522D01*
X117870184Y-59502262D01*
X117997738Y-59629816D01*
X118068652Y-59674374D01*
X118114844Y-59703399D01*
X118150478Y-59725789D01*
X118237268Y-59756158D01*
X118320745Y-59785368D01*
X118320750Y-59785369D01*
X118499996Y-59805565D01*
X118500000Y-59805565D01*
X118500004Y-59805565D01*
X118679249Y-59785369D01*
X118679252Y-59785368D01*
X118679255Y-59785368D01*
X118849522Y-59725789D01*
X119002262Y-59629816D01*
X119002262Y-59629815D01*
X119008158Y-59626111D01*
X119009602Y-59628409D01*
X119062849Y-59606659D01*
X119131547Y-59619401D01*
X119182450Y-59667261D01*
X119199500Y-59730012D01*
X119199500Y-65665891D01*
X119233608Y-65793187D01*
X119266554Y-65850250D01*
X119299500Y-65907314D01*
X119299501Y-65907315D01*
X119299502Y-65907316D01*
X123295159Y-69902972D01*
X123295169Y-69902983D01*
X123299499Y-69907313D01*
X123299500Y-69907314D01*
X123392686Y-70000500D01*
X123506814Y-70066392D01*
X123634107Y-70100500D01*
X123634108Y-70100500D01*
X146320191Y-70100500D01*
X146387230Y-70120185D01*
X146432985Y-70172989D01*
X146442929Y-70242147D01*
X146413904Y-70305703D01*
X146407872Y-70312181D01*
X144417762Y-72302290D01*
X144356439Y-72335775D01*
X144297989Y-72334384D01*
X144225416Y-72314939D01*
X144225412Y-72314938D01*
X144225408Y-72314937D01*
X144225406Y-72314936D01*
X144225403Y-72314936D01*
X143990001Y-72294341D01*
X143989999Y-72294341D01*
X143754590Y-72314937D01*
X143754589Y-72314937D01*
X143682008Y-72334384D01*
X143612158Y-72332720D01*
X143562236Y-72302290D01*
X143204674Y-71944727D01*
X143204673Y-71944726D01*
X143204669Y-71944723D01*
X143098127Y-71873535D01*
X143098122Y-71873533D01*
X142979744Y-71824499D01*
X142979738Y-71824497D01*
X142854071Y-71799500D01*
X142854069Y-71799500D01*
X134485931Y-71799500D01*
X134485929Y-71799500D01*
X134360261Y-71824497D01*
X134360251Y-71824500D01*
X134249910Y-71870205D01*
X134241876Y-71873533D01*
X134223390Y-71885885D01*
X134156712Y-71906762D01*
X134089332Y-71888277D01*
X134042643Y-71836298D01*
X134030500Y-71782782D01*
X134030500Y-71762211D01*
X134029402Y-71755277D01*
X134003032Y-71588789D01*
X134003031Y-71588785D01*
X134003031Y-71588784D01*
X133948775Y-71421801D01*
X133948774Y-71421798D01*
X133869060Y-71265352D01*
X133827651Y-71208358D01*
X133765855Y-71123303D01*
X133641699Y-70999147D01*
X133499649Y-70895941D01*
X133343203Y-70816227D01*
X133343200Y-70816226D01*
X133176215Y-70761970D01*
X133060599Y-70743658D01*
X133002792Y-70734502D01*
X131597208Y-70734502D01*
X131539401Y-70743658D01*
X131423785Y-70761970D01*
X131423782Y-70761970D01*
X131256799Y-70816226D01*
X131256796Y-70816227D01*
X131100350Y-70895941D01*
X130958299Y-70999148D01*
X130834146Y-71123301D01*
X130730939Y-71265352D01*
X130651225Y-71421798D01*
X130651224Y-71421801D01*
X130596968Y-71588784D01*
X130596968Y-71588787D01*
X130596968Y-71588789D01*
X130569500Y-71762210D01*
X130569500Y-71937794D01*
X130570598Y-71944726D01*
X130596968Y-72111216D01*
X130596969Y-72111223D01*
X130621650Y-72187183D01*
X130623645Y-72257024D01*
X130587564Y-72316856D01*
X130524863Y-72347684D01*
X130503719Y-72349500D01*
X122255068Y-72349500D01*
X122189096Y-72330494D01*
X122099522Y-72274210D01*
X122099518Y-72274209D01*
X121929262Y-72214633D01*
X121929249Y-72214630D01*
X121750004Y-72194435D01*
X121749996Y-72194435D01*
X121570750Y-72214630D01*
X121570745Y-72214631D01*
X121400476Y-72274211D01*
X121247737Y-72370184D01*
X121120184Y-72497737D01*
X121024211Y-72650476D01*
X120964631Y-72820745D01*
X120964630Y-72820750D01*
X120944435Y-72999996D01*
X120944435Y-73000003D01*
X120964630Y-73179249D01*
X120964631Y-73179254D01*
X121024211Y-73349523D01*
X121086557Y-73448745D01*
X121120184Y-73502262D01*
X121247738Y-73629816D01*
X121284096Y-73652661D01*
X121396021Y-73722989D01*
X121400478Y-73725789D01*
X121539686Y-73774500D01*
X121570745Y-73785368D01*
X121570750Y-73785369D01*
X121749996Y-73805565D01*
X121750000Y-73805565D01*
X121750004Y-73805565D01*
X121929249Y-73785369D01*
X121929251Y-73785368D01*
X121929255Y-73785368D01*
X121929258Y-73785366D01*
X121929262Y-73785366D01*
X122065539Y-73737680D01*
X122099522Y-73725789D01*
X122189096Y-73669505D01*
X122255068Y-73650500D01*
X131021500Y-73650500D01*
X131088539Y-73670185D01*
X131134294Y-73722989D01*
X131145500Y-73774500D01*
X131145500Y-73879637D01*
X131125815Y-73946676D01*
X131109181Y-73967318D01*
X129770537Y-75305962D01*
X129740755Y-75350536D01*
X129740754Y-75350537D01*
X129671985Y-75453455D01*
X129638046Y-75535393D01*
X129604106Y-75617329D01*
X129604105Y-75617333D01*
X129604105Y-75617334D01*
X129578766Y-75744724D01*
X129575677Y-75760252D01*
X129569500Y-75791307D01*
X129569500Y-80375500D01*
X129549815Y-80442539D01*
X129497011Y-80488294D01*
X129445500Y-80499500D01*
X129161230Y-80499500D01*
X129094191Y-80479815D01*
X129048436Y-80427011D01*
X129038492Y-80357853D01*
X129067517Y-80294297D01*
X129073549Y-80287819D01*
X129085665Y-80275703D01*
X129142712Y-80218656D01*
X129234814Y-80069334D01*
X129289999Y-79902797D01*
X129300500Y-79800009D01*
X129300499Y-78999992D01*
X129289999Y-78897203D01*
X129234814Y-78730666D01*
X129142712Y-78581344D01*
X129136549Y-78575181D01*
X129103064Y-78513858D01*
X129108048Y-78444166D01*
X129136549Y-78399819D01*
X129142712Y-78393656D01*
X129234814Y-78244334D01*
X129289999Y-78077797D01*
X129300500Y-77975009D01*
X129300499Y-77224992D01*
X129289999Y-77122203D01*
X129234814Y-76955666D01*
X129142712Y-76806344D01*
X129018656Y-76682288D01*
X129015347Y-76680247D01*
X129013554Y-76678253D01*
X129012989Y-76677807D01*
X129013065Y-76677710D01*
X128968621Y-76628301D01*
X128957397Y-76559339D01*
X128985239Y-76495256D01*
X129015352Y-76469164D01*
X129018344Y-76467318D01*
X129142315Y-76343347D01*
X129234356Y-76194126D01*
X129234358Y-76194121D01*
X129289505Y-76027699D01*
X129289506Y-76027692D01*
X129299999Y-75924988D01*
X129300000Y-75924975D01*
X129300000Y-75800002D01*
X126900001Y-75800002D01*
X126900001Y-75924988D01*
X126910494Y-76027699D01*
X126965641Y-76194121D01*
X126965643Y-76194126D01*
X127057684Y-76343347D01*
X127181655Y-76467318D01*
X127181659Y-76467321D01*
X127184656Y-76469170D01*
X127186278Y-76470974D01*
X127187323Y-76471800D01*
X127187181Y-76471978D01*
X127231380Y-76521119D01*
X127242600Y-76590082D01*
X127214755Y-76654163D01*
X127184661Y-76680241D01*
X127181348Y-76682284D01*
X127181343Y-76682288D01*
X127057289Y-76806342D01*
X126965187Y-76955663D01*
X126965185Y-76955668D01*
X126946492Y-77012080D01*
X126910001Y-77122203D01*
X126910001Y-77122204D01*
X126910000Y-77122204D01*
X126899500Y-77224983D01*
X126899500Y-77975001D01*
X126899501Y-77975019D01*
X126910000Y-78077796D01*
X126910001Y-78077799D01*
X126965185Y-78244331D01*
X126965187Y-78244336D01*
X126989502Y-78283757D01*
X127027651Y-78345607D01*
X127057289Y-78393657D01*
X127063451Y-78399819D01*
X127096936Y-78461142D01*
X127091952Y-78530834D01*
X127063451Y-78575181D01*
X127057289Y-78581342D01*
X126965187Y-78730663D01*
X126965185Y-78730668D01*
X126950653Y-78774523D01*
X126910001Y-78897203D01*
X126910001Y-78897204D01*
X126910000Y-78897204D01*
X126899500Y-78999983D01*
X126899500Y-79800001D01*
X126899501Y-79800019D01*
X126910000Y-79902796D01*
X126910001Y-79902799D01*
X126938495Y-79988787D01*
X126965186Y-80069334D01*
X127022471Y-80162209D01*
X127057289Y-80218657D01*
X127150951Y-80312319D01*
X127184436Y-80373642D01*
X127179452Y-80443334D01*
X127150951Y-80487681D01*
X127057289Y-80581342D01*
X126965187Y-80730663D01*
X126965185Y-80730668D01*
X126945317Y-80790627D01*
X126910001Y-80897203D01*
X126910001Y-80897204D01*
X126910000Y-80897204D01*
X126899500Y-80999983D01*
X126899500Y-81275637D01*
X126879815Y-81342676D01*
X126863181Y-81363318D01*
X121050537Y-87175962D01*
X121050536Y-87175964D01*
X121049929Y-87176873D01*
X120951988Y-87323450D01*
X120951987Y-87323452D01*
X120937057Y-87359497D01*
X120937057Y-87359498D01*
X120909477Y-87426082D01*
X120884105Y-87487334D01*
X120857276Y-87622216D01*
X120857276Y-87622217D01*
X120849500Y-87661307D01*
X120849500Y-127088695D01*
X120884103Y-127262658D01*
X120884106Y-127262667D01*
X120951983Y-127426540D01*
X120951990Y-127426553D01*
X121050535Y-127574034D01*
X121050538Y-127574038D01*
X121175961Y-127699461D01*
X121175965Y-127699464D01*
X121323446Y-127798009D01*
X121323459Y-127798016D01*
X121446363Y-127848923D01*
X121487334Y-127865894D01*
X121487336Y-127865894D01*
X121487341Y-127865896D01*
X121661304Y-127900499D01*
X121661307Y-127900500D01*
X121661309Y-127900500D01*
X121838693Y-127900500D01*
X121838694Y-127900499D01*
X121896682Y-127888964D01*
X122012658Y-127865896D01*
X122012661Y-127865894D01*
X122012666Y-127865894D01*
X122176547Y-127798013D01*
X122324035Y-127699464D01*
X122449464Y-127574035D01*
X122548013Y-127426547D01*
X122559560Y-127398670D01*
X124250000Y-127398670D01*
X124265185Y-127514019D01*
X124265187Y-127514024D01*
X124324633Y-127657541D01*
X124324633Y-127657542D01*
X124419207Y-127780792D01*
X124542458Y-127875366D01*
X124685975Y-127934812D01*
X124685980Y-127934814D01*
X124801329Y-127950000D01*
X124950000Y-127950000D01*
X125450000Y-127950000D01*
X125598671Y-127950000D01*
X125714019Y-127934814D01*
X125714024Y-127934812D01*
X125857541Y-127875366D01*
X125857542Y-127875366D01*
X125980792Y-127780792D01*
X126075366Y-127657542D01*
X126075366Y-127657541D01*
X126134812Y-127514024D01*
X126134814Y-127514019D01*
X126150000Y-127398670D01*
X126150000Y-126950000D01*
X125450000Y-126950000D01*
X125450000Y-127950000D01*
X124950000Y-127950000D01*
X124950000Y-126950000D01*
X124250000Y-126950000D01*
X124250000Y-127398670D01*
X122559560Y-127398670D01*
X122615894Y-127262666D01*
X122650500Y-127088691D01*
X122650500Y-126001329D01*
X124250000Y-126001329D01*
X124250000Y-126450000D01*
X124950000Y-126450000D01*
X125450000Y-126450000D01*
X126150000Y-126450000D01*
X126150000Y-126001329D01*
X126149996Y-126001298D01*
X127549500Y-126001298D01*
X127549500Y-127398703D01*
X127564696Y-127514142D01*
X127564699Y-127514151D01*
X127624093Y-127657541D01*
X127624200Y-127657798D01*
X127718851Y-127781149D01*
X127842202Y-127875800D01*
X127985849Y-127935301D01*
X128101299Y-127950500D01*
X128898700Y-127950499D01*
X128898703Y-127950499D01*
X129014142Y-127935303D01*
X129014146Y-127935301D01*
X129014151Y-127935301D01*
X129157798Y-127875800D01*
X129281149Y-127781149D01*
X129375800Y-127657798D01*
X129435301Y-127514151D01*
X129450500Y-127398701D01*
X129450499Y-126001300D01*
X129450499Y-126001298D01*
X129450499Y-126001296D01*
X129435303Y-125885857D01*
X129435301Y-125885850D01*
X129435301Y-125885849D01*
X129375800Y-125742202D01*
X129281149Y-125618851D01*
X129157798Y-125524200D01*
X129157794Y-125524198D01*
X129014151Y-125464699D01*
X129014149Y-125464698D01*
X128898701Y-125449500D01*
X128101296Y-125449500D01*
X127985857Y-125464696D01*
X127985848Y-125464699D01*
X127842205Y-125524198D01*
X127842202Y-125524199D01*
X127842202Y-125524200D01*
X127718851Y-125618851D01*
X127695316Y-125649523D01*
X127624198Y-125742205D01*
X127564699Y-125885848D01*
X127564698Y-125885850D01*
X127549500Y-126001298D01*
X126149996Y-126001298D01*
X126134814Y-125885980D01*
X126134812Y-125885975D01*
X126075366Y-125742458D01*
X126075366Y-125742457D01*
X125980792Y-125619207D01*
X125857541Y-125524633D01*
X125714024Y-125465187D01*
X125714019Y-125465185D01*
X125598671Y-125450000D01*
X125450000Y-125450000D01*
X125450000Y-126450000D01*
X124950000Y-126450000D01*
X124950000Y-125450000D01*
X124801329Y-125450000D01*
X124685980Y-125465185D01*
X124685975Y-125465187D01*
X124542458Y-125524633D01*
X124542457Y-125524633D01*
X124419207Y-125619207D01*
X124324633Y-125742457D01*
X124324633Y-125742458D01*
X124265187Y-125885975D01*
X124265185Y-125885980D01*
X124250000Y-126001329D01*
X122650500Y-126001329D01*
X122650500Y-121101298D01*
X124249500Y-121101298D01*
X124249500Y-122498703D01*
X124264696Y-122614142D01*
X124264699Y-122614151D01*
X124293969Y-122684816D01*
X124324200Y-122757798D01*
X124418851Y-122881149D01*
X124542202Y-122975800D01*
X124685849Y-123035301D01*
X124801299Y-123050500D01*
X125598700Y-123050499D01*
X125598703Y-123050499D01*
X125714142Y-123035303D01*
X125714146Y-123035301D01*
X125714151Y-123035301D01*
X125857798Y-122975800D01*
X125981149Y-122881149D01*
X126075800Y-122757798D01*
X126135301Y-122614151D01*
X126150500Y-122498701D01*
X126150499Y-121101300D01*
X126150499Y-121101298D01*
X127549500Y-121101298D01*
X127549500Y-122498703D01*
X127564696Y-122614142D01*
X127564699Y-122614151D01*
X127593969Y-122684816D01*
X127624200Y-122757798D01*
X127718851Y-122881149D01*
X127842202Y-122975800D01*
X127985849Y-123035301D01*
X128101299Y-123050500D01*
X128898700Y-123050499D01*
X128898703Y-123050499D01*
X129014142Y-123035303D01*
X129014146Y-123035301D01*
X129014151Y-123035301D01*
X129157798Y-122975800D01*
X129281149Y-122881149D01*
X129375800Y-122757798D01*
X129435301Y-122614151D01*
X129450500Y-122498701D01*
X129450500Y-122054996D01*
X135744435Y-122054996D01*
X135744435Y-122055003D01*
X135764630Y-122234249D01*
X135764631Y-122234254D01*
X135824211Y-122404523D01*
X135883389Y-122498703D01*
X135920184Y-122557262D01*
X136047738Y-122684816D01*
X136200478Y-122780789D01*
X136370745Y-122840368D01*
X136370750Y-122840369D01*
X136549996Y-122860565D01*
X136550000Y-122860565D01*
X136550004Y-122860565D01*
X136729249Y-122840369D01*
X136729252Y-122840368D01*
X136729255Y-122840368D01*
X136809017Y-122812457D01*
X136849972Y-122805500D01*
X144676082Y-122805500D01*
X147700028Y-122805500D01*
X147740982Y-122812457D01*
X147820745Y-122840368D01*
X147820750Y-122840369D01*
X147999996Y-122860565D01*
X148000000Y-122860565D01*
X148000004Y-122860565D01*
X148179249Y-122840369D01*
X148179252Y-122840368D01*
X148179255Y-122840368D01*
X148259017Y-122812457D01*
X148299972Y-122805500D01*
X159592770Y-122805500D01*
X159659809Y-122825185D01*
X159680451Y-122841819D01*
X162446692Y-125608060D01*
X162469356Y-125644129D01*
X162471188Y-125643247D01*
X162474207Y-125649516D01*
X162532446Y-125742202D01*
X162570184Y-125802262D01*
X162697738Y-125929816D01*
X162788080Y-125986582D01*
X162811497Y-126001296D01*
X162850478Y-126025789D01*
X163020745Y-126085368D01*
X163020750Y-126085369D01*
X163199996Y-126105565D01*
X163200000Y-126105565D01*
X163200004Y-126105565D01*
X163379249Y-126085369D01*
X163379252Y-126085368D01*
X163379255Y-126085368D01*
X163549522Y-126025789D01*
X163702262Y-125929816D01*
X163829816Y-125802262D01*
X163925789Y-125649522D01*
X163985368Y-125479255D01*
X163986953Y-125465187D01*
X164005565Y-125300003D01*
X164005565Y-125299996D01*
X163985369Y-125120750D01*
X163985368Y-125120745D01*
X163925788Y-124950476D01*
X163829815Y-124797737D01*
X163702262Y-124670184D01*
X163549516Y-124574207D01*
X163543247Y-124571188D01*
X163544129Y-124569356D01*
X163508060Y-124546692D01*
X160433421Y-121472052D01*
X160433414Y-121472046D01*
X160359729Y-121422812D01*
X160359729Y-121422813D01*
X160310491Y-121389913D01*
X160173917Y-121333343D01*
X160173907Y-121333340D01*
X160028920Y-121304500D01*
X160028918Y-121304500D01*
X148299972Y-121304500D01*
X148259017Y-121297542D01*
X148179254Y-121269631D01*
X148179249Y-121269630D01*
X148000004Y-121249435D01*
X147999996Y-121249435D01*
X147820750Y-121269630D01*
X147820745Y-121269631D01*
X147740983Y-121297542D01*
X147700028Y-121304500D01*
X136849972Y-121304500D01*
X136809017Y-121297542D01*
X136729254Y-121269631D01*
X136729249Y-121269630D01*
X136550004Y-121249435D01*
X136549996Y-121249435D01*
X136370750Y-121269630D01*
X136370745Y-121269631D01*
X136200476Y-121329211D01*
X136047737Y-121425184D01*
X135920184Y-121552737D01*
X135824211Y-121705476D01*
X135764631Y-121875745D01*
X135764630Y-121875750D01*
X135744435Y-122054996D01*
X129450500Y-122054996D01*
X129450499Y-121101300D01*
X129450499Y-121101298D01*
X129450499Y-121101296D01*
X129435303Y-120985857D01*
X129435301Y-120985850D01*
X129435301Y-120985849D01*
X129375800Y-120842202D01*
X129281149Y-120718851D01*
X129157798Y-120624200D01*
X129157794Y-120624198D01*
X129014151Y-120564699D01*
X129014149Y-120564698D01*
X128898701Y-120549500D01*
X128101296Y-120549500D01*
X127985857Y-120564696D01*
X127985848Y-120564699D01*
X127842205Y-120624198D01*
X127718851Y-120718851D01*
X127624198Y-120842205D01*
X127564699Y-120985848D01*
X127564698Y-120985850D01*
X127549500Y-121101298D01*
X126150499Y-121101298D01*
X126150499Y-121101296D01*
X126135303Y-120985857D01*
X126135301Y-120985850D01*
X126135301Y-120985849D01*
X126075800Y-120842202D01*
X125981149Y-120718851D01*
X125857798Y-120624200D01*
X125857794Y-120624198D01*
X125714151Y-120564699D01*
X125714149Y-120564698D01*
X125598701Y-120549500D01*
X124801296Y-120549500D01*
X124685857Y-120564696D01*
X124685848Y-120564699D01*
X124542205Y-120624198D01*
X124418851Y-120718851D01*
X124324198Y-120842205D01*
X124264699Y-120985848D01*
X124264698Y-120985850D01*
X124249500Y-121101298D01*
X122650500Y-121101298D01*
X122650500Y-115343713D01*
X129499500Y-115343713D01*
X129499500Y-115556286D01*
X129532753Y-115766239D01*
X129598444Y-115968414D01*
X129694951Y-116157820D01*
X129819890Y-116329786D01*
X129970213Y-116480109D01*
X130142179Y-116605048D01*
X130142181Y-116605049D01*
X130142184Y-116605051D01*
X130331588Y-116701557D01*
X130533757Y-116767246D01*
X130743713Y-116800500D01*
X130743714Y-116800500D01*
X130956286Y-116800500D01*
X130956287Y-116800500D01*
X131166243Y-116767246D01*
X131368412Y-116701557D01*
X131557816Y-116605051D01*
X131579789Y-116589086D01*
X131729786Y-116480109D01*
X131729788Y-116480106D01*
X131729792Y-116480104D01*
X131880104Y-116329792D01*
X131880106Y-116329788D01*
X131880109Y-116329786D01*
X132005048Y-116157820D01*
X132005047Y-116157820D01*
X132005051Y-116157816D01*
X132101557Y-115968412D01*
X132167246Y-115766243D01*
X132200500Y-115556287D01*
X132200500Y-115343713D01*
X132167246Y-115133757D01*
X132101557Y-114931588D01*
X132005051Y-114742184D01*
X132005049Y-114742181D01*
X132005048Y-114742179D01*
X131880109Y-114570213D01*
X131729786Y-114419890D01*
X131557820Y-114294951D01*
X131368414Y-114198444D01*
X131368413Y-114198443D01*
X131368412Y-114198443D01*
X131166243Y-114132754D01*
X131166241Y-114132753D01*
X131166240Y-114132753D01*
X131004957Y-114107208D01*
X130956287Y-114099500D01*
X130743713Y-114099500D01*
X130695042Y-114107208D01*
X130533760Y-114132753D01*
X130331585Y-114198444D01*
X130142179Y-114294951D01*
X129970213Y-114419890D01*
X129819890Y-114570213D01*
X129694951Y-114742179D01*
X129598444Y-114931585D01*
X129532753Y-115133760D01*
X129499500Y-115343713D01*
X122650500Y-115343713D01*
X122650500Y-97343713D01*
X129499500Y-97343713D01*
X129499500Y-97556286D01*
X129530256Y-97750476D01*
X129532754Y-97766243D01*
X129590245Y-97943182D01*
X129598444Y-97968414D01*
X129694951Y-98157820D01*
X129819890Y-98329786D01*
X129970213Y-98480109D01*
X130142179Y-98605048D01*
X130142181Y-98605049D01*
X130142184Y-98605051D01*
X130331588Y-98701557D01*
X130533757Y-98767246D01*
X130743713Y-98800500D01*
X130743714Y-98800500D01*
X130956286Y-98800500D01*
X130956287Y-98800500D01*
X131166243Y-98767246D01*
X131368412Y-98701557D01*
X131557816Y-98605051D01*
X131616662Y-98562297D01*
X131729786Y-98480109D01*
X131729788Y-98480106D01*
X131729792Y-98480104D01*
X131880104Y-98329792D01*
X131880106Y-98329788D01*
X131880109Y-98329786D01*
X132005048Y-98157820D01*
X132005047Y-98157820D01*
X132005051Y-98157816D01*
X132101557Y-97968412D01*
X132167246Y-97766243D01*
X132200500Y-97556287D01*
X132200500Y-97343713D01*
X132167246Y-97133757D01*
X132101557Y-96931588D01*
X132005051Y-96742184D01*
X132005049Y-96742181D01*
X132005048Y-96742179D01*
X131880109Y-96570213D01*
X131729786Y-96419890D01*
X131557820Y-96294951D01*
X131368414Y-96198444D01*
X131368413Y-96198443D01*
X131368412Y-96198443D01*
X131166243Y-96132754D01*
X131166241Y-96132753D01*
X131166240Y-96132753D01*
X131004957Y-96107208D01*
X130956287Y-96099500D01*
X130743713Y-96099500D01*
X130695042Y-96107208D01*
X130533760Y-96132753D01*
X130331585Y-96198444D01*
X130142179Y-96294951D01*
X129970213Y-96419890D01*
X129970209Y-96419894D01*
X129819897Y-96570207D01*
X129819890Y-96570213D01*
X129694951Y-96742179D01*
X129598444Y-96931585D01*
X129598443Y-96931587D01*
X129598443Y-96931588D01*
X129569879Y-97019499D01*
X129532753Y-97133760D01*
X129499500Y-97343713D01*
X122650500Y-97343713D01*
X122650500Y-88174362D01*
X122670185Y-88107323D01*
X122686819Y-88086681D01*
X127887819Y-82885681D01*
X127949142Y-82852196D01*
X128018834Y-82857180D01*
X128074767Y-82899052D01*
X128099184Y-82964516D01*
X128099500Y-82973362D01*
X128099500Y-87056022D01*
X128079815Y-87123061D01*
X128027011Y-87168816D01*
X127957853Y-87178760D01*
X127894297Y-87149735D01*
X127884270Y-87140005D01*
X127832284Y-87083533D01*
X127751784Y-86996086D01*
X127751779Y-86996082D01*
X127751777Y-86996080D01*
X127568634Y-86853534D01*
X127568628Y-86853530D01*
X127364504Y-86743063D01*
X127364495Y-86743060D01*
X127144984Y-86667701D01*
X126973282Y-86639049D01*
X126916049Y-86629499D01*
X126683951Y-86629499D01*
X126638164Y-86637139D01*
X126455015Y-86667701D01*
X126235504Y-86743060D01*
X126235495Y-86743063D01*
X126031371Y-86853530D01*
X126031365Y-86853534D01*
X125848222Y-86996080D01*
X125848219Y-86996083D01*
X125691016Y-87166851D01*
X125564075Y-87361150D01*
X125470842Y-87573698D01*
X125413866Y-87798690D01*
X125413864Y-87798701D01*
X125394700Y-88029992D01*
X125394700Y-88030005D01*
X125413864Y-88261296D01*
X125413866Y-88261307D01*
X125470842Y-88486299D01*
X125564075Y-88698847D01*
X125691016Y-88893146D01*
X125691019Y-88893150D01*
X125691021Y-88893152D01*
X125848216Y-89063912D01*
X125848219Y-89063914D01*
X125848222Y-89063917D01*
X126025819Y-89202147D01*
X126066632Y-89258857D01*
X126070307Y-89328630D01*
X126035675Y-89389313D01*
X126025819Y-89397853D01*
X125848222Y-89536082D01*
X125848219Y-89536085D01*
X125691016Y-89706853D01*
X125564075Y-89901152D01*
X125470842Y-90113700D01*
X125413866Y-90338692D01*
X125413864Y-90338703D01*
X125394700Y-90569994D01*
X125394700Y-90570007D01*
X125413864Y-90801298D01*
X125413866Y-90801309D01*
X125470842Y-91026301D01*
X125564075Y-91238849D01*
X125691016Y-91433148D01*
X125691019Y-91433152D01*
X125691021Y-91433154D01*
X125848216Y-91603914D01*
X125848219Y-91603916D01*
X125848222Y-91603919D01*
X126031365Y-91746465D01*
X126031371Y-91746469D01*
X126031374Y-91746471D01*
X126192952Y-91833913D01*
X126217809Y-91847365D01*
X126235497Y-91856937D01*
X126322229Y-91886712D01*
X126455015Y-91932298D01*
X126455017Y-91932298D01*
X126455019Y-91932299D01*
X126683951Y-91970501D01*
X126683952Y-91970501D01*
X126916048Y-91970501D01*
X126916049Y-91970501D01*
X127144981Y-91932299D01*
X127364503Y-91856937D01*
X127568626Y-91746471D01*
X127751784Y-91603914D01*
X127908979Y-91433154D01*
X128035924Y-91238850D01*
X128094017Y-91106409D01*
X128138972Y-91052926D01*
X128205707Y-91032236D01*
X128273035Y-91050910D01*
X128295423Y-91070532D01*
X128296228Y-91069728D01*
X135125960Y-97899461D01*
X135125964Y-97899464D01*
X135273446Y-97998009D01*
X135273452Y-97998012D01*
X135273453Y-97998013D01*
X135437334Y-98065895D01*
X135608774Y-98099996D01*
X135611303Y-98100499D01*
X135611307Y-98100500D01*
X135611308Y-98100500D01*
X135611309Y-98100500D01*
X138171009Y-98100500D01*
X138238048Y-98120185D01*
X138262238Y-98140517D01*
X138348212Y-98233909D01*
X138348222Y-98233918D01*
X138531365Y-98376464D01*
X138531371Y-98376468D01*
X138531374Y-98376470D01*
X138602383Y-98414898D01*
X138722872Y-98480104D01*
X138735497Y-98486936D01*
X138849487Y-98526068D01*
X138955015Y-98562297D01*
X138955017Y-98562297D01*
X138955019Y-98562298D01*
X139183951Y-98600500D01*
X139183952Y-98600500D01*
X139416048Y-98600500D01*
X139416049Y-98600500D01*
X139644981Y-98562298D01*
X139864503Y-98486936D01*
X140068626Y-98376470D01*
X140079523Y-98367989D01*
X140160615Y-98304872D01*
X140251784Y-98233913D01*
X140284272Y-98198620D01*
X140344156Y-98162632D01*
X140413994Y-98164731D01*
X140471610Y-98204255D01*
X140498713Y-98268654D01*
X140499500Y-98282605D01*
X140499500Y-111912769D01*
X140479815Y-111979808D01*
X140463181Y-112000450D01*
X136241937Y-116221693D01*
X136205876Y-116244362D01*
X136206756Y-116246188D01*
X136200478Y-116249211D01*
X136047737Y-116345184D01*
X135920184Y-116472737D01*
X135824211Y-116625476D01*
X135764631Y-116795745D01*
X135764630Y-116795750D01*
X135744435Y-116974996D01*
X135744435Y-116975003D01*
X135764630Y-117154249D01*
X135764631Y-117154254D01*
X135824211Y-117324523D01*
X135920184Y-117477262D01*
X136047738Y-117604816D01*
X136200478Y-117700789D01*
X136370745Y-117760368D01*
X136370750Y-117760369D01*
X136549996Y-117780565D01*
X136550000Y-117780565D01*
X136550004Y-117780565D01*
X136729249Y-117760369D01*
X136729252Y-117760368D01*
X136729255Y-117760368D01*
X136899522Y-117700789D01*
X137052262Y-117604816D01*
X137179816Y-117477262D01*
X137275789Y-117324522D01*
X137275790Y-117324518D01*
X137278811Y-117318246D01*
X137280655Y-117319134D01*
X137303305Y-117283061D01*
X139242654Y-115343713D01*
X159049500Y-115343713D01*
X159049500Y-115556286D01*
X159082753Y-115766239D01*
X159148444Y-115968414D01*
X159244951Y-116157820D01*
X159369890Y-116329786D01*
X159520213Y-116480109D01*
X159692179Y-116605048D01*
X159692181Y-116605049D01*
X159692184Y-116605051D01*
X159881588Y-116701557D01*
X160083757Y-116767246D01*
X160293713Y-116800500D01*
X160293714Y-116800500D01*
X160506286Y-116800500D01*
X160506287Y-116800500D01*
X160716243Y-116767246D01*
X160918412Y-116701557D01*
X161107816Y-116605051D01*
X161129789Y-116589086D01*
X161279786Y-116480109D01*
X161279788Y-116480106D01*
X161279792Y-116480104D01*
X161430104Y-116329792D01*
X161430106Y-116329788D01*
X161430109Y-116329786D01*
X161555048Y-116157820D01*
X161555047Y-116157820D01*
X161555051Y-116157816D01*
X161651557Y-115968412D01*
X161717246Y-115766243D01*
X161750500Y-115556287D01*
X161750500Y-115343713D01*
X161717246Y-115133757D01*
X161651557Y-114931588D01*
X161555051Y-114742184D01*
X161555049Y-114742181D01*
X161555048Y-114742179D01*
X161430109Y-114570213D01*
X161279786Y-114419890D01*
X161107820Y-114294951D01*
X160918414Y-114198444D01*
X160918413Y-114198443D01*
X160918412Y-114198443D01*
X160716243Y-114132754D01*
X160716241Y-114132753D01*
X160716240Y-114132753D01*
X160554957Y-114107208D01*
X160506287Y-114099500D01*
X160293713Y-114099500D01*
X160245042Y-114107208D01*
X160083760Y-114132753D01*
X159881585Y-114198444D01*
X159692179Y-114294951D01*
X159520213Y-114419890D01*
X159369890Y-114570213D01*
X159244951Y-114742179D01*
X159148444Y-114931585D01*
X159082753Y-115133760D01*
X159049500Y-115343713D01*
X139242654Y-115343713D01*
X141832952Y-112753416D01*
X141882186Y-112679729D01*
X141915084Y-112630495D01*
X141938518Y-112573920D01*
X141971659Y-112493912D01*
X142000500Y-112348917D01*
X142000500Y-112201082D01*
X142000500Y-102624500D01*
X142020185Y-102557461D01*
X142072989Y-102511706D01*
X142124500Y-102500500D01*
X146573920Y-102500500D01*
X146671462Y-102481096D01*
X146718913Y-102471658D01*
X146855495Y-102415084D01*
X146904729Y-102382186D01*
X146978416Y-102332952D01*
X147558059Y-101753306D01*
X147594132Y-101730657D01*
X147593244Y-101728813D01*
X147599515Y-101725792D01*
X147599516Y-101725790D01*
X147599522Y-101725789D01*
X147752262Y-101629816D01*
X147879816Y-101502262D01*
X147975789Y-101349522D01*
X148035368Y-101179255D01*
X148055565Y-101000000D01*
X148055189Y-100996666D01*
X148035369Y-100820750D01*
X148035368Y-100820745D01*
X147977986Y-100656758D01*
X147975789Y-100650478D01*
X147879816Y-100497738D01*
X147752262Y-100370184D01*
X147599523Y-100274211D01*
X147429254Y-100214631D01*
X147429249Y-100214630D01*
X147250004Y-100194435D01*
X147249996Y-100194435D01*
X147070750Y-100214630D01*
X147070745Y-100214631D01*
X146900476Y-100274211D01*
X146747737Y-100370184D01*
X146620184Y-100497737D01*
X146524208Y-100650483D01*
X146521186Y-100656758D01*
X146519361Y-100655878D01*
X146496692Y-100691939D01*
X146225451Y-100963181D01*
X146164128Y-100996666D01*
X146137770Y-100999500D01*
X142124500Y-100999500D01*
X142057461Y-100979815D01*
X142011706Y-100927011D01*
X142000500Y-100875500D01*
X142000500Y-93176079D01*
X141971659Y-93031092D01*
X141971658Y-93031091D01*
X141971658Y-93031087D01*
X141948508Y-92975198D01*
X141915087Y-92894511D01*
X141915080Y-92894498D01*
X141832952Y-92771585D01*
X141805239Y-92743872D01*
X141728416Y-92667049D01*
X141575676Y-92514309D01*
X141373547Y-92312179D01*
X141340062Y-92250856D01*
X141345046Y-92181164D01*
X141386918Y-92125231D01*
X141452382Y-92100814D01*
X141461228Y-92100498D01*
X142051123Y-92100498D01*
X142051123Y-92100497D01*
X142093889Y-92097599D01*
X142095561Y-92097183D01*
X142096333Y-92097215D01*
X142099285Y-92096752D01*
X142099377Y-92097342D01*
X142165368Y-92100098D01*
X142222519Y-92140292D01*
X142248867Y-92205003D01*
X142249500Y-92217514D01*
X142249500Y-97621602D01*
X142249500Y-97621604D01*
X142249499Y-97621604D01*
X142278340Y-97766591D01*
X142278343Y-97766601D01*
X142334914Y-97903176D01*
X142361644Y-97943180D01*
X142361645Y-97943183D01*
X142417046Y-98026098D01*
X142417052Y-98026105D01*
X143413181Y-99022233D01*
X143446666Y-99083556D01*
X143449500Y-99109914D01*
X143449500Y-99130701D01*
X143452401Y-99167567D01*
X143452402Y-99167573D01*
X143498254Y-99325393D01*
X143498255Y-99325396D01*
X143581917Y-99466862D01*
X143581923Y-99466870D01*
X143698129Y-99583076D01*
X143698133Y-99583079D01*
X143698135Y-99583081D01*
X143839602Y-99666744D01*
X143881224Y-99678836D01*
X143997426Y-99712597D01*
X143997429Y-99712597D01*
X143997431Y-99712598D01*
X144034306Y-99715500D01*
X144034314Y-99715500D01*
X145765686Y-99715500D01*
X145765694Y-99715500D01*
X145802569Y-99712598D01*
X145802571Y-99712597D01*
X145802573Y-99712597D01*
X145844191Y-99700505D01*
X145960398Y-99666744D01*
X146101865Y-99583081D01*
X146218081Y-99466865D01*
X146301744Y-99325398D01*
X146347598Y-99167569D01*
X146350500Y-99130694D01*
X146350500Y-98699306D01*
X146347598Y-98662431D01*
X146344644Y-98652262D01*
X146301746Y-98504607D01*
X146301744Y-98504603D01*
X146301744Y-98504602D01*
X146288743Y-98482618D01*
X146271561Y-98414898D01*
X146293720Y-98348635D01*
X146348186Y-98304872D01*
X146395476Y-98295500D01*
X146582334Y-98295500D01*
X146649373Y-98315185D01*
X146695128Y-98367989D01*
X146699375Y-98378545D01*
X146724210Y-98449521D01*
X146724212Y-98449524D01*
X146758823Y-98504607D01*
X146820184Y-98602262D01*
X146947738Y-98729816D01*
X147100478Y-98825789D01*
X147243367Y-98875788D01*
X147270745Y-98885368D01*
X147270750Y-98885369D01*
X147449996Y-98905565D01*
X147450000Y-98905565D01*
X147450004Y-98905565D01*
X147629249Y-98885369D01*
X147629252Y-98885368D01*
X147629255Y-98885368D01*
X147799522Y-98825789D01*
X147952262Y-98729816D01*
X148079816Y-98602262D01*
X148175789Y-98449522D01*
X148235368Y-98279255D01*
X148235369Y-98279249D01*
X148255565Y-98100003D01*
X148255565Y-98099996D01*
X148235369Y-97920750D01*
X148235368Y-97920745D01*
X148193284Y-97800476D01*
X148175789Y-97750478D01*
X148079816Y-97597738D01*
X147952262Y-97470184D01*
X147887205Y-97429306D01*
X147799521Y-97374210D01*
X147629255Y-97314632D01*
X147629246Y-97314630D01*
X147622012Y-97313815D01*
X147557600Y-97286744D01*
X147548232Y-97278286D01*
X147409669Y-97139723D01*
X147303127Y-97068535D01*
X147184744Y-97019499D01*
X147184738Y-97019497D01*
X147059071Y-96994500D01*
X147059069Y-96994500D01*
X146395476Y-96994500D01*
X146328437Y-96974815D01*
X146282682Y-96922011D01*
X146272738Y-96852853D01*
X146288742Y-96807382D01*
X146301744Y-96785398D01*
X146313659Y-96744389D01*
X146347597Y-96627573D01*
X146347598Y-96627567D01*
X146347721Y-96626006D01*
X146350500Y-96590694D01*
X146350500Y-96159306D01*
X146347598Y-96122431D01*
X146317546Y-96018994D01*
X146301745Y-95964606D01*
X146301744Y-95964603D01*
X146301744Y-95964602D01*
X146218081Y-95823135D01*
X146218078Y-95823132D01*
X146213298Y-95816969D01*
X146215635Y-95815155D01*
X146188798Y-95766050D01*
X146193756Y-95696356D01*
X146214554Y-95663998D01*
X146212903Y-95662717D01*
X146217686Y-95656550D01*
X146301281Y-95515198D01*
X146347100Y-95357486D01*
X146347295Y-95355001D01*
X146347295Y-95355000D01*
X144774000Y-95355000D01*
X144706961Y-95335315D01*
X144661206Y-95282511D01*
X144650000Y-95231000D01*
X144650000Y-91169000D01*
X144669685Y-91101961D01*
X144722489Y-91056206D01*
X144774000Y-91045000D01*
X145026000Y-91045000D01*
X145093039Y-91064685D01*
X145138794Y-91117489D01*
X145150000Y-91169000D01*
X145150000Y-94855000D01*
X146347295Y-94855000D01*
X146347295Y-94854998D01*
X146347100Y-94852513D01*
X146301281Y-94694801D01*
X146217685Y-94553447D01*
X146212900Y-94547278D01*
X146215252Y-94545453D01*
X146188445Y-94496405D01*
X146193402Y-94426712D01*
X146214465Y-94393936D01*
X146212900Y-94392722D01*
X146217683Y-94386555D01*
X146284556Y-94273477D01*
X146335625Y-94225793D01*
X146404367Y-94213289D01*
X146468956Y-94239934D01*
X146478970Y-94248916D01*
X146628277Y-94398223D01*
X146661762Y-94459546D01*
X146663815Y-94472012D01*
X146664630Y-94479246D01*
X146664632Y-94479255D01*
X146724210Y-94649521D01*
X146762676Y-94710739D01*
X146820184Y-94802262D01*
X146947738Y-94929816D01*
X147100478Y-95025789D01*
X147198525Y-95060097D01*
X147270745Y-95085368D01*
X147270750Y-95085369D01*
X147449996Y-95105565D01*
X147450000Y-95105565D01*
X147450004Y-95105565D01*
X147629249Y-95085369D01*
X147629252Y-95085368D01*
X147629255Y-95085368D01*
X147799522Y-95025789D01*
X147952262Y-94929816D01*
X148079816Y-94802262D01*
X148175789Y-94649522D01*
X148235368Y-94479255D01*
X148236184Y-94472012D01*
X148255565Y-94300003D01*
X148255565Y-94299996D01*
X148235369Y-94120750D01*
X148235368Y-94120745D01*
X148190104Y-93991388D01*
X148175789Y-93950478D01*
X148079816Y-93797738D01*
X147952262Y-93670184D01*
X147799521Y-93574210D01*
X147629255Y-93514632D01*
X147629246Y-93514630D01*
X147622012Y-93513815D01*
X147557600Y-93486744D01*
X147548223Y-93478277D01*
X147486819Y-93416873D01*
X147453334Y-93355550D01*
X147450500Y-93329192D01*
X147450500Y-93216321D01*
X147470185Y-93149282D01*
X147522989Y-93103527D01*
X147560612Y-93093101D01*
X147629255Y-93085368D01*
X147799522Y-93025789D01*
X147952262Y-92929816D01*
X148067077Y-92815001D01*
X152652704Y-92815001D01*
X152652899Y-92817486D01*
X152698718Y-92975198D01*
X152782314Y-93116552D01*
X152787100Y-93122722D01*
X152784753Y-93124542D01*
X152811564Y-93173642D01*
X152806580Y-93243334D01*
X152785541Y-93276069D01*
X152787100Y-93277278D01*
X152782314Y-93283447D01*
X152698718Y-93424801D01*
X152652899Y-93582513D01*
X152652704Y-93584998D01*
X152652705Y-93585000D01*
X153850000Y-93585000D01*
X154350000Y-93585000D01*
X155547295Y-93585000D01*
X155547295Y-93584998D01*
X155547100Y-93582513D01*
X155501281Y-93424801D01*
X155417685Y-93283447D01*
X155412900Y-93277278D01*
X155415252Y-93275453D01*
X155388445Y-93226405D01*
X155393402Y-93156712D01*
X155414465Y-93123936D01*
X155412900Y-93122722D01*
X155417685Y-93116552D01*
X155501281Y-92975198D01*
X155547100Y-92817486D01*
X155547295Y-92815001D01*
X155547295Y-92815000D01*
X154350000Y-92815000D01*
X154350000Y-93585000D01*
X153850000Y-93585000D01*
X153850000Y-92815000D01*
X152652705Y-92815000D01*
X152652704Y-92815001D01*
X148067077Y-92815001D01*
X148079816Y-92802262D01*
X148175789Y-92649522D01*
X148235368Y-92479255D01*
X148236182Y-92472025D01*
X148263245Y-92407611D01*
X148271712Y-92398232D01*
X149124943Y-91545001D01*
X152652704Y-91545001D01*
X152652899Y-91547486D01*
X152698718Y-91705198D01*
X152782314Y-91846552D01*
X152787100Y-91852722D01*
X152784753Y-91854542D01*
X152811564Y-91903642D01*
X152806580Y-91973334D01*
X152785541Y-92006069D01*
X152787100Y-92007278D01*
X152782314Y-92013447D01*
X152698718Y-92154801D01*
X152652899Y-92312513D01*
X152652704Y-92314998D01*
X152652705Y-92315000D01*
X153850000Y-92315000D01*
X154350000Y-92315000D01*
X155547295Y-92315000D01*
X155547295Y-92314998D01*
X155547100Y-92312513D01*
X155501281Y-92154801D01*
X155417685Y-92013447D01*
X155412900Y-92007278D01*
X155415252Y-92005453D01*
X155388445Y-91956405D01*
X155393402Y-91886712D01*
X155414465Y-91853936D01*
X155412900Y-91852722D01*
X155417685Y-91846552D01*
X155501281Y-91705198D01*
X155547100Y-91547486D01*
X155547295Y-91545001D01*
X155547295Y-91545000D01*
X154350000Y-91545000D01*
X154350000Y-92315000D01*
X153850000Y-92315000D01*
X153850000Y-91545000D01*
X152652705Y-91545000D01*
X152652704Y-91545001D01*
X149124943Y-91545001D01*
X150235062Y-90434882D01*
X150296383Y-90401399D01*
X150366075Y-90406383D01*
X150422008Y-90448255D01*
X150446425Y-90513719D01*
X150445962Y-90536445D01*
X150444435Y-90550000D01*
X150444435Y-90550003D01*
X150464630Y-90729249D01*
X150464631Y-90729254D01*
X150524211Y-90899523D01*
X150607011Y-91031297D01*
X150620184Y-91052262D01*
X150747738Y-91179816D01*
X150900478Y-91275789D01*
X150972870Y-91301120D01*
X151070745Y-91335368D01*
X151070750Y-91335369D01*
X151249996Y-91355565D01*
X151250000Y-91355565D01*
X151250004Y-91355565D01*
X151429249Y-91335369D01*
X151429252Y-91335368D01*
X151429255Y-91335368D01*
X151599522Y-91275789D01*
X151752262Y-91179816D01*
X151879816Y-91052262D01*
X151975789Y-90899522D01*
X152035368Y-90729255D01*
X152036182Y-90722025D01*
X152063245Y-90657611D01*
X152071712Y-90648232D01*
X152456862Y-90263082D01*
X152518182Y-90229600D01*
X152587874Y-90234584D01*
X152643807Y-90276456D01*
X152663616Y-90316170D01*
X152698254Y-90435395D01*
X152698255Y-90435396D01*
X152698256Y-90435398D01*
X152708331Y-90452434D01*
X152781917Y-90576862D01*
X152786702Y-90583031D01*
X152784369Y-90584840D01*
X152811210Y-90633995D01*
X152806226Y-90703687D01*
X152785470Y-90736021D01*
X152787097Y-90737283D01*
X152782313Y-90743449D01*
X152698718Y-90884801D01*
X152652899Y-91042513D01*
X152652704Y-91044998D01*
X152652705Y-91045000D01*
X155547295Y-91045000D01*
X155552612Y-91039248D01*
X155562780Y-90990850D01*
X155611833Y-90941094D01*
X155672033Y-90925500D01*
X157419165Y-90925500D01*
X157486204Y-90945185D01*
X157531959Y-90997989D01*
X157541903Y-91067147D01*
X157538940Y-91081593D01*
X157514366Y-91173303D01*
X157514364Y-91173313D01*
X157494532Y-91399998D01*
X157494532Y-91400001D01*
X157514364Y-91626686D01*
X157514366Y-91626697D01*
X157573258Y-91846488D01*
X157573261Y-91846497D01*
X157669431Y-92052732D01*
X157669432Y-92052734D01*
X157799951Y-92239137D01*
X157799952Y-92239138D01*
X157799953Y-92239139D01*
X157863182Y-92302368D01*
X157896666Y-92363689D01*
X157899500Y-92390048D01*
X157899500Y-92525638D01*
X157879815Y-92592677D01*
X157863181Y-92613319D01*
X155712670Y-94763829D01*
X155651347Y-94797314D01*
X155581655Y-94792330D01*
X155525722Y-94750458D01*
X155505911Y-94710739D01*
X155501281Y-94694801D01*
X155417685Y-94553447D01*
X155412900Y-94547278D01*
X155415252Y-94545453D01*
X155388445Y-94496405D01*
X155393402Y-94426712D01*
X155414465Y-94393936D01*
X155412900Y-94392722D01*
X155417685Y-94386552D01*
X155501281Y-94245198D01*
X155547100Y-94087486D01*
X155547295Y-94085001D01*
X155547295Y-94085000D01*
X154350000Y-94085000D01*
X154350000Y-95231000D01*
X154330315Y-95298039D01*
X154277511Y-95343794D01*
X154226000Y-95355000D01*
X153974000Y-95355000D01*
X153906961Y-95335315D01*
X153861206Y-95282511D01*
X153850000Y-95231000D01*
X153850000Y-94085000D01*
X152652705Y-94085000D01*
X152652704Y-94085001D01*
X152652899Y-94087488D01*
X152652900Y-94087494D01*
X152680102Y-94181122D01*
X152679903Y-94250992D01*
X152641961Y-94309662D01*
X152578322Y-94338505D01*
X152509192Y-94328364D01*
X152473345Y-94303398D01*
X152014673Y-93844726D01*
X152007217Y-93839744D01*
X151908127Y-93773535D01*
X151789744Y-93724499D01*
X151789742Y-93724498D01*
X151789737Y-93724496D01*
X151767371Y-93720048D01*
X151725590Y-93703425D01*
X151599523Y-93624211D01*
X151429254Y-93564631D01*
X151429249Y-93564630D01*
X151250004Y-93544435D01*
X151249996Y-93544435D01*
X151070750Y-93564630D01*
X151070745Y-93564631D01*
X150900476Y-93624211D01*
X150747737Y-93720184D01*
X150620184Y-93847737D01*
X150524211Y-94000476D01*
X150464631Y-94170745D01*
X150464630Y-94170750D01*
X150444435Y-94349996D01*
X150444435Y-94350003D01*
X150464630Y-94529249D01*
X150464631Y-94529254D01*
X150524211Y-94699523D01*
X150620184Y-94852262D01*
X150747738Y-94979816D01*
X150900478Y-95075789D01*
X150985573Y-95105565D01*
X151070745Y-95135368D01*
X151070750Y-95135369D01*
X151249996Y-95155565D01*
X151250000Y-95155565D01*
X151250004Y-95155565D01*
X151402422Y-95138392D01*
X151471244Y-95150447D01*
X151503986Y-95173931D01*
X151813181Y-95483126D01*
X151846666Y-95544449D01*
X151849500Y-95570807D01*
X151849500Y-96500332D01*
X151863400Y-96570207D01*
X151863400Y-96570209D01*
X151874497Y-96625998D01*
X151874499Y-96626006D01*
X151922621Y-96742184D01*
X151923535Y-96744389D01*
X151994723Y-96850931D01*
X151994726Y-96850935D01*
X151994727Y-96850936D01*
X152613181Y-97469389D01*
X152646666Y-97530712D01*
X152649500Y-97557070D01*
X152649500Y-97860701D01*
X152652401Y-97897567D01*
X152652402Y-97897573D01*
X152698253Y-98055392D01*
X152698255Y-98055396D01*
X152698256Y-98055398D01*
X152711256Y-98077381D01*
X152728439Y-98145102D01*
X152706280Y-98211365D01*
X152651814Y-98255128D01*
X152604524Y-98264500D01*
X152335808Y-98264500D01*
X152268769Y-98244815D01*
X152248127Y-98228181D01*
X152071722Y-98051776D01*
X152038237Y-97990453D01*
X152036182Y-97977973D01*
X152035368Y-97970745D01*
X151975789Y-97800478D01*
X151879816Y-97647738D01*
X151752262Y-97520184D01*
X151672688Y-97470184D01*
X151599523Y-97424211D01*
X151429254Y-97364631D01*
X151429249Y-97364630D01*
X151250004Y-97344435D01*
X151249996Y-97344435D01*
X151070750Y-97364630D01*
X151070745Y-97364631D01*
X150900476Y-97424211D01*
X150747737Y-97520184D01*
X150620184Y-97647737D01*
X150524211Y-97800476D01*
X150464631Y-97970745D01*
X150464630Y-97970750D01*
X150444435Y-98149996D01*
X150444435Y-98150003D01*
X150464630Y-98329249D01*
X150464631Y-98329254D01*
X150524211Y-98499523D01*
X150587660Y-98600500D01*
X150620184Y-98652262D01*
X150747738Y-98779816D01*
X150900478Y-98875789D01*
X151070745Y-98935368D01*
X151077974Y-98936182D01*
X151142388Y-98963246D01*
X151151776Y-98971722D01*
X151600324Y-99420271D01*
X151600327Y-99420274D01*
X151600330Y-99420276D01*
X151670056Y-99466865D01*
X151706873Y-99491465D01*
X151825256Y-99540501D01*
X151825260Y-99540501D01*
X151825261Y-99540502D01*
X151950928Y-99565500D01*
X151950931Y-99565500D01*
X152834484Y-99565500D01*
X152897605Y-99582768D01*
X152958167Y-99618583D01*
X153039602Y-99666744D01*
X153081224Y-99678836D01*
X153197426Y-99712597D01*
X153197429Y-99712597D01*
X153197431Y-99712598D01*
X153234306Y-99715500D01*
X153234314Y-99715500D01*
X154965686Y-99715500D01*
X154965694Y-99715500D01*
X155002569Y-99712598D01*
X155002571Y-99712597D01*
X155002573Y-99712597D01*
X155044191Y-99700505D01*
X155160398Y-99666744D01*
X155301865Y-99583081D01*
X155418081Y-99466865D01*
X155501744Y-99325398D01*
X155547598Y-99167569D01*
X155550500Y-99130694D01*
X155550500Y-98699306D01*
X155547598Y-98662431D01*
X155530927Y-98605051D01*
X155501745Y-98504606D01*
X155501744Y-98504603D01*
X155501744Y-98504602D01*
X155418081Y-98363135D01*
X155418078Y-98363132D01*
X155413298Y-98356969D01*
X155415750Y-98355066D01*
X155389155Y-98306421D01*
X155394104Y-98236726D01*
X155414940Y-98204304D01*
X155413298Y-98203031D01*
X155418075Y-98196870D01*
X155418081Y-98196865D01*
X155501744Y-98055398D01*
X155545969Y-97903176D01*
X155547597Y-97897573D01*
X155547598Y-97897567D01*
X155550499Y-97860701D01*
X155550500Y-97860694D01*
X155550500Y-97429306D01*
X155547598Y-97392431D01*
X155547597Y-97392429D01*
X155546460Y-97386201D01*
X155548652Y-97385800D01*
X155548763Y-97343713D01*
X159049500Y-97343713D01*
X159049500Y-97556286D01*
X159080256Y-97750476D01*
X159082754Y-97766243D01*
X159140245Y-97943182D01*
X159148444Y-97968414D01*
X159244951Y-98157820D01*
X159369890Y-98329786D01*
X159520213Y-98480109D01*
X159692179Y-98605048D01*
X159692181Y-98605049D01*
X159692184Y-98605051D01*
X159881588Y-98701557D01*
X160083757Y-98767246D01*
X160293713Y-98800500D01*
X160293714Y-98800500D01*
X160506286Y-98800500D01*
X160506287Y-98800500D01*
X160716243Y-98767246D01*
X160918412Y-98701557D01*
X161107816Y-98605051D01*
X161166662Y-98562297D01*
X161279786Y-98480109D01*
X161279788Y-98480106D01*
X161279792Y-98480104D01*
X161430104Y-98329792D01*
X161430106Y-98329788D01*
X161430109Y-98329786D01*
X161555048Y-98157820D01*
X161555047Y-98157820D01*
X161555051Y-98157816D01*
X161651557Y-97968412D01*
X161717246Y-97766243D01*
X161750500Y-97556287D01*
X161750500Y-97343713D01*
X161717246Y-97133757D01*
X161651557Y-96931588D01*
X161555051Y-96742184D01*
X161555049Y-96742181D01*
X161555048Y-96742179D01*
X161430109Y-96570213D01*
X161279786Y-96419890D01*
X161107820Y-96294951D01*
X160918414Y-96198444D01*
X160918413Y-96198443D01*
X160918412Y-96198443D01*
X160716243Y-96132754D01*
X160716241Y-96132753D01*
X160716240Y-96132753D01*
X160554957Y-96107208D01*
X160506287Y-96099500D01*
X160293713Y-96099500D01*
X160245042Y-96107208D01*
X160083760Y-96132753D01*
X159881585Y-96198444D01*
X159692179Y-96294951D01*
X159520213Y-96419890D01*
X159520209Y-96419894D01*
X159369897Y-96570207D01*
X159369890Y-96570213D01*
X159244951Y-96742179D01*
X159148444Y-96931585D01*
X159148443Y-96931587D01*
X159148443Y-96931588D01*
X159119879Y-97019499D01*
X159082753Y-97133760D01*
X159049500Y-97343713D01*
X155548763Y-97343713D01*
X155548810Y-97326104D01*
X155586739Y-97267425D01*
X155632579Y-97245112D01*
X155631837Y-97242663D01*
X155637653Y-97240897D01*
X155637666Y-97240895D01*
X155719606Y-97206953D01*
X155801547Y-97173013D01*
X155893894Y-97111308D01*
X155949036Y-97074464D01*
X159499463Y-93524036D01*
X159536296Y-93468912D01*
X159598013Y-93376547D01*
X159665894Y-93212666D01*
X159673657Y-93173642D01*
X159691215Y-93085368D01*
X159700500Y-93038691D01*
X159700500Y-92424500D01*
X159720185Y-92357461D01*
X159772989Y-92311706D01*
X159824500Y-92300500D01*
X163888693Y-92300500D01*
X163888694Y-92300499D01*
X164062666Y-92265895D01*
X164144606Y-92231953D01*
X164205931Y-92206551D01*
X164273795Y-92198805D01*
X164283951Y-92200500D01*
X164283953Y-92200500D01*
X164516048Y-92200500D01*
X164516049Y-92200500D01*
X164744981Y-92162298D01*
X164964503Y-92086936D01*
X165168626Y-91976470D01*
X165181300Y-91966606D01*
X165262196Y-91903642D01*
X165351784Y-91833913D01*
X165508979Y-91663153D01*
X165635924Y-91468849D01*
X165729157Y-91256300D01*
X165786134Y-91031305D01*
X165786549Y-91026301D01*
X165805300Y-90800006D01*
X165805300Y-90799993D01*
X165786135Y-90568702D01*
X165786133Y-90568691D01*
X165729157Y-90343699D01*
X165635924Y-90131151D01*
X165508983Y-89936852D01*
X165508980Y-89936849D01*
X165508979Y-89936847D01*
X165351784Y-89766087D01*
X165174179Y-89627852D01*
X165133367Y-89571142D01*
X165129692Y-89501369D01*
X165164323Y-89440686D01*
X165174180Y-89432145D01*
X165218237Y-89397854D01*
X165351784Y-89293911D01*
X165508979Y-89123151D01*
X165520959Y-89104815D01*
X165555457Y-89052011D01*
X165635924Y-88928847D01*
X165729157Y-88716298D01*
X165786134Y-88491303D01*
X165787086Y-88479814D01*
X165805300Y-88260004D01*
X165805300Y-88259991D01*
X165786135Y-88028700D01*
X165786133Y-88028689D01*
X165729157Y-87803697D01*
X165635924Y-87591149D01*
X165508983Y-87396850D01*
X165508980Y-87396847D01*
X165508979Y-87396845D01*
X165351784Y-87226085D01*
X165351779Y-87226081D01*
X165351777Y-87226079D01*
X165168634Y-87083533D01*
X165168628Y-87083529D01*
X164964504Y-86973062D01*
X164964495Y-86973059D01*
X164744984Y-86897700D01*
X164573282Y-86869048D01*
X164516049Y-86859498D01*
X164283951Y-86859498D01*
X164238164Y-86867138D01*
X164055015Y-86897700D01*
X163835504Y-86973059D01*
X163835495Y-86973062D01*
X163631371Y-87083529D01*
X163631365Y-87083533D01*
X163448222Y-87226079D01*
X163448219Y-87226082D01*
X163448216Y-87226084D01*
X163448216Y-87226085D01*
X163408422Y-87269313D01*
X163291016Y-87396850D01*
X163164075Y-87591149D01*
X163070842Y-87803697D01*
X163013866Y-88028689D01*
X163013864Y-88028700D01*
X162994700Y-88259991D01*
X162994700Y-88259992D01*
X162994700Y-88259998D01*
X163000039Y-88324433D01*
X162985957Y-88392869D01*
X162964144Y-88422352D01*
X162923318Y-88463179D01*
X162861996Y-88496665D01*
X162835636Y-88499499D01*
X160182791Y-88499499D01*
X160115752Y-88479814D01*
X160069997Y-88427010D01*
X160066609Y-88418832D01*
X160043797Y-88357670D01*
X160043793Y-88357663D01*
X159957547Y-88242454D01*
X159957544Y-88242451D01*
X159842335Y-88156205D01*
X159842328Y-88156201D01*
X159707482Y-88105907D01*
X159707483Y-88105907D01*
X159647883Y-88099500D01*
X159647881Y-88099499D01*
X159647873Y-88099499D01*
X159647864Y-88099499D01*
X157952129Y-88099499D01*
X157952123Y-88099500D01*
X157892516Y-88105907D01*
X157757671Y-88156201D01*
X157757664Y-88156205D01*
X157642455Y-88242451D01*
X157642452Y-88242454D01*
X157556206Y-88357663D01*
X157556202Y-88357670D01*
X157505908Y-88492516D01*
X157499501Y-88552115D01*
X157499500Y-88552134D01*
X157499500Y-89000500D01*
X157479815Y-89067539D01*
X157427011Y-89113294D01*
X157375500Y-89124500D01*
X155672538Y-89124500D01*
X155605499Y-89104815D01*
X155559744Y-89052011D01*
X155548920Y-88990772D01*
X155550499Y-88970701D01*
X155550500Y-88970694D01*
X155550500Y-88539306D01*
X155547598Y-88502431D01*
X155546746Y-88499499D01*
X155505540Y-88357668D01*
X155501744Y-88344602D01*
X155418081Y-88203135D01*
X155418078Y-88203132D01*
X155413298Y-88196969D01*
X155415750Y-88195066D01*
X155389155Y-88146421D01*
X155394104Y-88076726D01*
X155414940Y-88044304D01*
X155413298Y-88043031D01*
X155418075Y-88036870D01*
X155418081Y-88036865D01*
X155501744Y-87895398D01*
X155547598Y-87737569D01*
X155550500Y-87700694D01*
X155550500Y-87269306D01*
X155547598Y-87232431D01*
X155545754Y-87226085D01*
X155504339Y-87083533D01*
X155501744Y-87074602D01*
X155418081Y-86933135D01*
X155418079Y-86933133D01*
X155418076Y-86933129D01*
X155301870Y-86816923D01*
X155301862Y-86816917D01*
X155223681Y-86770681D01*
X155160398Y-86733256D01*
X155160397Y-86733255D01*
X155160396Y-86733255D01*
X155160393Y-86733254D01*
X155002573Y-86687402D01*
X155002567Y-86687401D01*
X154965701Y-86684500D01*
X154965694Y-86684500D01*
X153998458Y-86684500D01*
X153931419Y-86664815D01*
X153885664Y-86612011D01*
X153875720Y-86542853D01*
X153904745Y-86479297D01*
X153951006Y-86445939D01*
X154025491Y-86415086D01*
X154025490Y-86415086D01*
X154025496Y-86415084D01*
X154074730Y-86382186D01*
X154148417Y-86332952D01*
X156058061Y-84423306D01*
X156094134Y-84400656D01*
X156093246Y-84398812D01*
X156099518Y-84395791D01*
X156099522Y-84395790D01*
X156252262Y-84299817D01*
X156379816Y-84172263D01*
X156475789Y-84019523D01*
X156535368Y-83849256D01*
X156535369Y-83849250D01*
X156555565Y-83670004D01*
X156555565Y-83669997D01*
X156535369Y-83490751D01*
X156535368Y-83490746D01*
X156475789Y-83320479D01*
X156466170Y-83305171D01*
X156393775Y-83189955D01*
X156379816Y-83167739D01*
X156252262Y-83040185D01*
X156200216Y-83007482D01*
X156099523Y-82944212D01*
X155929254Y-82884632D01*
X155929249Y-82884631D01*
X155750004Y-82864436D01*
X155749996Y-82864436D01*
X155570750Y-82884631D01*
X155570745Y-82884632D01*
X155400476Y-82944212D01*
X155247737Y-83040185D01*
X155120184Y-83167738D01*
X155024211Y-83320479D01*
X155021188Y-83326757D01*
X155019362Y-83325877D01*
X154996693Y-83361938D01*
X153395452Y-84963181D01*
X153334129Y-84996666D01*
X153307771Y-84999500D01*
X144745373Y-84999500D01*
X144678334Y-84979815D01*
X144632579Y-84927011D01*
X144622635Y-84857853D01*
X144643798Y-84804376D01*
X144680134Y-84752483D01*
X144776265Y-84546327D01*
X144776269Y-84546318D01*
X144835139Y-84326611D01*
X144835141Y-84326600D01*
X144854966Y-84100003D01*
X144854966Y-84099998D01*
X144835141Y-83873401D01*
X144835139Y-83873390D01*
X144776269Y-83653683D01*
X144776265Y-83653674D01*
X144680133Y-83447517D01*
X144671189Y-83434744D01*
X144648861Y-83368538D01*
X144665870Y-83300771D01*
X144698451Y-83264354D01*
X144707546Y-83257546D01*
X144793796Y-83142331D01*
X144844091Y-83007483D01*
X144850500Y-82947873D01*
X144850499Y-81252128D01*
X144844091Y-81192517D01*
X144837319Y-81174361D01*
X144793797Y-81057671D01*
X144793793Y-81057664D01*
X144707547Y-80942455D01*
X144707544Y-80942452D01*
X144592335Y-80856206D01*
X144592328Y-80856202D01*
X144457482Y-80805908D01*
X144457483Y-80805908D01*
X144397883Y-80799501D01*
X144397881Y-80799500D01*
X144397873Y-80799500D01*
X144397865Y-80799500D01*
X143362230Y-80799500D01*
X143295191Y-80779815D01*
X143274549Y-80763181D01*
X141890921Y-79379552D01*
X141890920Y-79379551D01*
X141796610Y-79316536D01*
X141767995Y-79297416D01*
X141767988Y-79297412D01*
X141631417Y-79240843D01*
X141631407Y-79240840D01*
X141486420Y-79212000D01*
X141486418Y-79212000D01*
X141471248Y-79212000D01*
X141404209Y-79192315D01*
X141373468Y-79161002D01*
X141372193Y-79162011D01*
X141367711Y-79156343D01*
X141361195Y-79149827D01*
X141327710Y-79088504D01*
X141332694Y-79018812D01*
X141361203Y-78974457D01*
X141367315Y-78968345D01*
X141459356Y-78819124D01*
X141459358Y-78819119D01*
X141514505Y-78652697D01*
X141514506Y-78652690D01*
X141524999Y-78549986D01*
X141525000Y-78549973D01*
X141525000Y-78412500D01*
X137074998Y-78412500D01*
X137074998Y-78549986D01*
X137085491Y-78652697D01*
X137140638Y-78819119D01*
X137140640Y-78819124D01*
X137232681Y-78968345D01*
X137238803Y-78974467D01*
X137272288Y-79035790D01*
X137267304Y-79105482D01*
X137238803Y-79149829D01*
X137232289Y-79156342D01*
X137140187Y-79305663D01*
X137140185Y-79305668D01*
X137139472Y-79307820D01*
X137085001Y-79472203D01*
X137085001Y-79472204D01*
X137085000Y-79472204D01*
X137074500Y-79574983D01*
X137074500Y-80350001D01*
X137074501Y-80350019D01*
X137085000Y-80452796D01*
X137085001Y-80452799D01*
X137127597Y-80581342D01*
X137140186Y-80619334D01*
X137232288Y-80768656D01*
X137356344Y-80892712D01*
X137359628Y-80894737D01*
X137359653Y-80894753D01*
X137361445Y-80896746D01*
X137362011Y-80897193D01*
X137361934Y-80897289D01*
X137406379Y-80946699D01*
X137417603Y-81015661D01*
X137389761Y-81079744D01*
X137359665Y-81105826D01*
X137356660Y-81107679D01*
X137356655Y-81107683D01*
X137232684Y-81231654D01*
X137140643Y-81380875D01*
X137140641Y-81380880D01*
X137085494Y-81547302D01*
X137085493Y-81547309D01*
X137075000Y-81650013D01*
X137075000Y-81787500D01*
X141524999Y-81787500D01*
X141524999Y-81650028D01*
X141524998Y-81650013D01*
X141514505Y-81547302D01*
X141470220Y-81413659D01*
X141467818Y-81343831D01*
X141503550Y-81283789D01*
X141566070Y-81252596D01*
X141635529Y-81260156D01*
X141675607Y-81286974D01*
X142213181Y-81824548D01*
X142246666Y-81885871D01*
X142249500Y-81912229D01*
X142249500Y-82287769D01*
X142229815Y-82354808D01*
X142213181Y-82375450D01*
X141539148Y-83049482D01*
X141477825Y-83082967D01*
X141408133Y-83077983D01*
X141373108Y-83057904D01*
X141358100Y-83045667D01*
X141318582Y-82988047D01*
X141316489Y-82918209D01*
X141348780Y-82861881D01*
X141367314Y-82843347D01*
X141459356Y-82694124D01*
X141459358Y-82694119D01*
X141514505Y-82527697D01*
X141514506Y-82527690D01*
X141524999Y-82424986D01*
X141525000Y-82424973D01*
X141525000Y-82287500D01*
X137075001Y-82287500D01*
X137075001Y-82424986D01*
X137085494Y-82527697D01*
X137140641Y-82694119D01*
X137140643Y-82694124D01*
X137232684Y-82843345D01*
X137251222Y-82861883D01*
X137284707Y-82923206D01*
X137279723Y-82992898D01*
X137241902Y-83045666D01*
X137188890Y-83088890D01*
X137060304Y-83246590D01*
X137060302Y-83246593D01*
X137021708Y-83320477D01*
X136966089Y-83426954D01*
X136910114Y-83622583D01*
X136910113Y-83622586D01*
X136899500Y-83741966D01*
X136899500Y-84858028D01*
X136899501Y-84858034D01*
X136910113Y-84977415D01*
X136966089Y-85173045D01*
X136966090Y-85173048D01*
X136966091Y-85173049D01*
X137060302Y-85353407D01*
X137088743Y-85388287D01*
X137188890Y-85511109D01*
X137248829Y-85559982D01*
X137346593Y-85639698D01*
X137526951Y-85733909D01*
X137722582Y-85789886D01*
X137841963Y-85800500D01*
X140758036Y-85800499D01*
X140877418Y-85789886D01*
X141073049Y-85733909D01*
X141253407Y-85639698D01*
X141411109Y-85511109D01*
X141539698Y-85353407D01*
X141633909Y-85173049D01*
X141678049Y-85018784D01*
X141715415Y-84959749D01*
X141728355Y-84949808D01*
X141763170Y-84926547D01*
X141828416Y-84882952D01*
X142148047Y-84563319D01*
X142209368Y-84529837D01*
X142279059Y-84534821D01*
X142334993Y-84576692D01*
X142348108Y-84598599D01*
X142419863Y-84752479D01*
X142470974Y-84825473D01*
X143150000Y-84146447D01*
X143150000Y-84152662D01*
X143177259Y-84254395D01*
X143229920Y-84345607D01*
X143304394Y-84420081D01*
X143395606Y-84472742D01*
X143497339Y-84500001D01*
X143503551Y-84500001D01*
X142824526Y-85179026D01*
X142897513Y-85230133D01*
X142897521Y-85230137D01*
X143103668Y-85326265D01*
X143103682Y-85326270D01*
X143323389Y-85385140D01*
X143323400Y-85385142D01*
X143549998Y-85404967D01*
X143550001Y-85404967D01*
X143740645Y-85388287D01*
X143809145Y-85402053D01*
X143859328Y-85450668D01*
X143875262Y-85518697D01*
X143851887Y-85584541D01*
X143839134Y-85599496D01*
X142417049Y-87021581D01*
X142375658Y-87083527D01*
X142375659Y-87083528D01*
X142334914Y-87144508D01*
X142278343Y-87281082D01*
X142278340Y-87281092D01*
X142249500Y-87426079D01*
X142249500Y-88926638D01*
X142229815Y-88993677D01*
X142177011Y-89039432D01*
X142107853Y-89049376D01*
X142044297Y-89020351D01*
X142037819Y-89014319D01*
X140074041Y-87050540D01*
X140074038Y-87050537D01*
X139992544Y-86996085D01*
X139926544Y-86951985D01*
X139926542Y-86951984D01*
X139842199Y-86917049D01*
X139762666Y-86884105D01*
X139762658Y-86884103D01*
X139588696Y-86849500D01*
X139588692Y-86849500D01*
X139588691Y-86849500D01*
X134924360Y-86849500D01*
X134857321Y-86829815D01*
X134836679Y-86813181D01*
X134086818Y-86063320D01*
X134053333Y-86001997D01*
X134050499Y-85975639D01*
X134050499Y-84652130D01*
X134050498Y-84652124D01*
X134048730Y-84635680D01*
X134044091Y-84592518D01*
X134038188Y-84576692D01*
X133993797Y-84457672D01*
X133993793Y-84457665D01*
X133907548Y-84342457D01*
X133907546Y-84342456D01*
X133907546Y-84342455D01*
X133898450Y-84335646D01*
X133856581Y-84279714D01*
X133851597Y-84210023D01*
X133871191Y-84165253D01*
X133880136Y-84152478D01*
X133976264Y-83946331D01*
X133976269Y-83946317D01*
X134035139Y-83726610D01*
X134035141Y-83726599D01*
X134054966Y-83500002D01*
X134054966Y-83499997D01*
X134035141Y-83273400D01*
X134035139Y-83273389D01*
X133976269Y-83053682D01*
X133976264Y-83053668D01*
X133880136Y-82847521D01*
X133880132Y-82847513D01*
X133829025Y-82774526D01*
X133150000Y-83453551D01*
X133150000Y-83447339D01*
X133122741Y-83345606D01*
X133070080Y-83254394D01*
X132995606Y-83179920D01*
X132904394Y-83127259D01*
X132802661Y-83100000D01*
X132796448Y-83100000D01*
X133475472Y-82420974D01*
X133402478Y-82369863D01*
X133196331Y-82273735D01*
X133196317Y-82273730D01*
X132976610Y-82214860D01*
X132976599Y-82214858D01*
X132750002Y-82195034D01*
X132749998Y-82195034D01*
X132523400Y-82214858D01*
X132523389Y-82214860D01*
X132303682Y-82273730D01*
X132303673Y-82273734D01*
X132097516Y-82369866D01*
X132097512Y-82369868D01*
X132024526Y-82420973D01*
X132024526Y-82420974D01*
X132703553Y-83100000D01*
X132697339Y-83100000D01*
X132595606Y-83127259D01*
X132504394Y-83179920D01*
X132429920Y-83254394D01*
X132377259Y-83345606D01*
X132350000Y-83447339D01*
X132350000Y-83453552D01*
X131670974Y-82774526D01*
X131670973Y-82774526D01*
X131619868Y-82847512D01*
X131619868Y-82847513D01*
X131606882Y-82875362D01*
X131560709Y-82927801D01*
X131493515Y-82946952D01*
X131426634Y-82926736D01*
X131381300Y-82873570D01*
X131370500Y-82822956D01*
X131370500Y-81474777D01*
X131390185Y-81407738D01*
X131442989Y-81361983D01*
X131512147Y-81352039D01*
X131513792Y-81352287D01*
X131597208Y-81365500D01*
X131597210Y-81365500D01*
X133002791Y-81365500D01*
X133002792Y-81365500D01*
X133176213Y-81338032D01*
X133176216Y-81338031D01*
X133176217Y-81338031D01*
X133343200Y-81283775D01*
X133343203Y-81283774D01*
X133359173Y-81275637D01*
X133499649Y-81204061D01*
X133641699Y-81100855D01*
X133765855Y-80976699D01*
X133869061Y-80834649D01*
X133948774Y-80678203D01*
X133954263Y-80661309D01*
X134003031Y-80511217D01*
X134003031Y-80511216D01*
X134003032Y-80511213D01*
X134030500Y-80337792D01*
X134030500Y-80162208D01*
X134003032Y-79988787D01*
X134003031Y-79988783D01*
X134003031Y-79988782D01*
X133948775Y-79821799D01*
X133948774Y-79821796D01*
X133869060Y-79665350D01*
X133843452Y-79630104D01*
X133765855Y-79523301D01*
X133641699Y-79399145D01*
X133499649Y-79295939D01*
X133343203Y-79216225D01*
X133343200Y-79216224D01*
X133176215Y-79161968D01*
X133105249Y-79150728D01*
X133042114Y-79120799D01*
X133005183Y-79061487D01*
X133006181Y-78991624D01*
X133041107Y-78936620D01*
X133156841Y-78831116D01*
X133285781Y-78660372D01*
X133381151Y-78468842D01*
X133381151Y-78468839D01*
X133381153Y-78468837D01*
X133425857Y-78311717D01*
X133439704Y-78263050D01*
X133459446Y-78050002D01*
X133452497Y-77975016D01*
X133439704Y-77836954D01*
X133439703Y-77836951D01*
X133381153Y-77631166D01*
X133381150Y-77631160D01*
X133340986Y-77550500D01*
X133285781Y-77439632D01*
X133156841Y-77268888D01*
X133117121Y-77232679D01*
X133017254Y-77141638D01*
X132980972Y-77081927D01*
X132982733Y-77012080D01*
X133017251Y-76958367D01*
X133156841Y-76831115D01*
X133285781Y-76660371D01*
X133325671Y-76580258D01*
X133373172Y-76529025D01*
X133440834Y-76511603D01*
X133507175Y-76533528D01*
X133524351Y-76547852D01*
X133763458Y-76786959D01*
X133763461Y-76786961D01*
X133763464Y-76786964D01*
X133785279Y-76801540D01*
X133785280Y-76801541D01*
X133856583Y-76849184D01*
X133910953Y-76885513D01*
X133992893Y-76919453D01*
X134074834Y-76953395D01*
X134184754Y-76975259D01*
X134248803Y-76987999D01*
X134248807Y-76988000D01*
X134248808Y-76988000D01*
X134248809Y-76988000D01*
X137275664Y-76988000D01*
X137342703Y-77007685D01*
X137352575Y-77014734D01*
X137356337Y-77017708D01*
X137356341Y-77017712D01*
X137359625Y-77019737D01*
X137359650Y-77019753D01*
X137361442Y-77021746D01*
X137362008Y-77022193D01*
X137361931Y-77022289D01*
X137406376Y-77071699D01*
X137417600Y-77140661D01*
X137389758Y-77204744D01*
X137359662Y-77230826D01*
X137356657Y-77232679D01*
X137356652Y-77232683D01*
X137232681Y-77356654D01*
X137140640Y-77505875D01*
X137140638Y-77505880D01*
X137085491Y-77672302D01*
X137085490Y-77672309D01*
X137074997Y-77775013D01*
X137074997Y-77912500D01*
X141524999Y-77912500D01*
X141524999Y-77775028D01*
X141524998Y-77775013D01*
X141514505Y-77672302D01*
X141459358Y-77505880D01*
X141459356Y-77505875D01*
X141367315Y-77356654D01*
X141243344Y-77232683D01*
X141243341Y-77232681D01*
X141240339Y-77230829D01*
X141238713Y-77229021D01*
X141237677Y-77228202D01*
X141237817Y-77228024D01*
X141193617Y-77178880D01*
X141182397Y-77109917D01*
X141210243Y-77045836D01*
X141240344Y-77019754D01*
X141243656Y-77017712D01*
X141243662Y-77017706D01*
X141247422Y-77014734D01*
X141312217Y-76988593D01*
X141324333Y-76988000D01*
X142150501Y-76988000D01*
X142217540Y-77007685D01*
X142263295Y-77060489D01*
X142274501Y-77112000D01*
X142274501Y-77347876D01*
X142280908Y-77407483D01*
X142331202Y-77542328D01*
X142331206Y-77542335D01*
X142415410Y-77654815D01*
X142417454Y-77657546D01*
X142426548Y-77664353D01*
X142468417Y-77720285D01*
X142473402Y-77789976D01*
X142453814Y-77834737D01*
X142444870Y-77847511D01*
X142444865Y-77847519D01*
X142348734Y-78053674D01*
X142348730Y-78053683D01*
X142289860Y-78273390D01*
X142289858Y-78273401D01*
X142270034Y-78499998D01*
X142270034Y-78500003D01*
X142289858Y-78726600D01*
X142289860Y-78726611D01*
X142348730Y-78946318D01*
X142348735Y-78946332D01*
X142444863Y-79152479D01*
X142495974Y-79225473D01*
X143175000Y-78546447D01*
X143175000Y-78552662D01*
X143202259Y-78654395D01*
X143254920Y-78745607D01*
X143329394Y-78820081D01*
X143420606Y-78872742D01*
X143522339Y-78900001D01*
X143528553Y-78900001D01*
X142849526Y-79579026D01*
X142922513Y-79630133D01*
X142922521Y-79630137D01*
X143128668Y-79726265D01*
X143128682Y-79726270D01*
X143348389Y-79785140D01*
X143348400Y-79785142D01*
X143574998Y-79804967D01*
X143575002Y-79804967D01*
X143801599Y-79785142D01*
X143801610Y-79785140D01*
X144021317Y-79726270D01*
X144021331Y-79726265D01*
X144227478Y-79630137D01*
X144300471Y-79579025D01*
X143621447Y-78900001D01*
X143627661Y-78900001D01*
X143729394Y-78872742D01*
X143820606Y-78820081D01*
X143895080Y-78745607D01*
X143947741Y-78654395D01*
X143975000Y-78552662D01*
X143975000Y-78546448D01*
X144654024Y-79225472D01*
X144705136Y-79152479D01*
X144801264Y-78946332D01*
X144801269Y-78946318D01*
X144855907Y-78742407D01*
X144892272Y-78682746D01*
X144955119Y-78652217D01*
X144975682Y-78650500D01*
X154325638Y-78650500D01*
X154392677Y-78670185D01*
X154413319Y-78686819D01*
X156813181Y-81086680D01*
X156846666Y-81148003D01*
X156849500Y-81174361D01*
X156849500Y-82338696D01*
X156884103Y-82512659D01*
X156884104Y-82512663D01*
X156884105Y-82512666D01*
X156911340Y-82578415D01*
X156911339Y-82578415D01*
X156911340Y-82578416D01*
X156951984Y-82676542D01*
X156951985Y-82676544D01*
X157011063Y-82764960D01*
X157050537Y-82824038D01*
X157050540Y-82824041D01*
X158463181Y-84236680D01*
X158496666Y-84298003D01*
X158499500Y-84324361D01*
X158499500Y-85500370D01*
X158499501Y-85500376D01*
X158505908Y-85559983D01*
X158556202Y-85694828D01*
X158556206Y-85694835D01*
X158642452Y-85810044D01*
X158642455Y-85810047D01*
X158757664Y-85896293D01*
X158757671Y-85896297D01*
X158892517Y-85946591D01*
X158892516Y-85946591D01*
X158899444Y-85947335D01*
X158952127Y-85953000D01*
X161047872Y-85952999D01*
X161107483Y-85946591D01*
X161242331Y-85896296D01*
X161357546Y-85810046D01*
X161443796Y-85694831D01*
X161494091Y-85559983D01*
X161500500Y-85500373D01*
X161500499Y-83499628D01*
X161494091Y-83440017D01*
X161492124Y-83434744D01*
X161443797Y-83305171D01*
X161443793Y-83305164D01*
X161357547Y-83189955D01*
X161357544Y-83189952D01*
X161242335Y-83103706D01*
X161242326Y-83103701D01*
X161213974Y-83093127D01*
X161158040Y-83051257D01*
X161133622Y-82985792D01*
X161148473Y-82917519D01*
X161156988Y-82904059D01*
X161289788Y-82721276D01*
X161393582Y-82517570D01*
X161464234Y-82300128D01*
X161478509Y-82210000D01*
X160490748Y-82210000D01*
X160512518Y-82172292D01*
X160550000Y-82032409D01*
X160550000Y-81887591D01*
X160512518Y-81747708D01*
X160490748Y-81710000D01*
X161478509Y-81710000D01*
X161464234Y-81619871D01*
X161393582Y-81402429D01*
X161289788Y-81198723D01*
X161155402Y-81013757D01*
X160993742Y-80852097D01*
X160909136Y-80790627D01*
X160866471Y-80735297D01*
X160860492Y-80665684D01*
X160893098Y-80603889D01*
X160909132Y-80589995D01*
X160994066Y-80528287D01*
X161155786Y-80366567D01*
X161290217Y-80181539D01*
X161394048Y-79977759D01*
X161418405Y-79902795D01*
X161464721Y-79760250D01*
X161464721Y-79760249D01*
X161464722Y-79760246D01*
X161500500Y-79534355D01*
X161500500Y-79305647D01*
X161500500Y-79300775D01*
X161502551Y-79300775D01*
X161515162Y-79240822D01*
X161564227Y-79191079D01*
X161624400Y-79175500D01*
X162950025Y-79175500D01*
X162990979Y-79182457D01*
X163070742Y-79210368D01*
X163070747Y-79210369D01*
X163249993Y-79230565D01*
X163249997Y-79230565D01*
X163250001Y-79230565D01*
X163429246Y-79210369D01*
X163429249Y-79210368D01*
X163429252Y-79210368D01*
X163599519Y-79150789D01*
X163752259Y-79054816D01*
X163879813Y-78927262D01*
X163975786Y-78774522D01*
X164035365Y-78604255D01*
X164035366Y-78604249D01*
X164047820Y-78493713D01*
X167649500Y-78493713D01*
X167649500Y-78706286D01*
X167680181Y-78900001D01*
X167682754Y-78916243D01*
X167738725Y-79088504D01*
X167748444Y-79118414D01*
X167844951Y-79307820D01*
X167969890Y-79479786D01*
X168120213Y-79630109D01*
X168292179Y-79755048D01*
X168292181Y-79755049D01*
X168292184Y-79755051D01*
X168481588Y-79851557D01*
X168683757Y-79917246D01*
X168893713Y-79950500D01*
X168893714Y-79950500D01*
X169106286Y-79950500D01*
X169106287Y-79950500D01*
X169316243Y-79917246D01*
X169518412Y-79851557D01*
X169707816Y-79755051D01*
X169747437Y-79726265D01*
X169879786Y-79630109D01*
X169879788Y-79630106D01*
X169879792Y-79630104D01*
X170030104Y-79479792D01*
X170030106Y-79479788D01*
X170030109Y-79479786D01*
X170155048Y-79307820D01*
X170155047Y-79307820D01*
X170155051Y-79307816D01*
X170251557Y-79118412D01*
X170317246Y-78916243D01*
X170350500Y-78706287D01*
X170350500Y-78493713D01*
X170317246Y-78283757D01*
X170251557Y-78081588D01*
X170155051Y-77892184D01*
X170155049Y-77892181D01*
X170155048Y-77892179D01*
X170030109Y-77720213D01*
X169879786Y-77569890D01*
X169707820Y-77444951D01*
X169518414Y-77348444D01*
X169518413Y-77348443D01*
X169518412Y-77348443D01*
X169316243Y-77282754D01*
X169316241Y-77282753D01*
X169316240Y-77282753D01*
X169154957Y-77257208D01*
X169106287Y-77249500D01*
X168893713Y-77249500D01*
X168845042Y-77257208D01*
X168683760Y-77282753D01*
X168481585Y-77348444D01*
X168292179Y-77444951D01*
X168120213Y-77569890D01*
X167969890Y-77720213D01*
X167844951Y-77892179D01*
X167748444Y-78081585D01*
X167682753Y-78283760D01*
X167649500Y-78493713D01*
X164047820Y-78493713D01*
X164055562Y-78425003D01*
X164055562Y-78424996D01*
X164035366Y-78245750D01*
X164035365Y-78245745D01*
X163976597Y-78077796D01*
X163975786Y-78075478D01*
X163974512Y-78073451D01*
X163879812Y-77922737D01*
X163752259Y-77795184D01*
X163599520Y-77699211D01*
X163429251Y-77639631D01*
X163429246Y-77639630D01*
X163250001Y-77619435D01*
X163249993Y-77619435D01*
X163070747Y-77639630D01*
X163070742Y-77639631D01*
X162990980Y-77667542D01*
X162950025Y-77674500D01*
X161874500Y-77674500D01*
X161807461Y-77654815D01*
X161761706Y-77602011D01*
X161750500Y-77550500D01*
X161750500Y-74937180D01*
X161770185Y-74870141D01*
X161800187Y-74837914D01*
X161907546Y-74757546D01*
X161914350Y-74748455D01*
X161970280Y-74706584D01*
X162039971Y-74701597D01*
X162084740Y-74721188D01*
X162097512Y-74730130D01*
X162097518Y-74730134D01*
X162303673Y-74826265D01*
X162303682Y-74826269D01*
X162523389Y-74885139D01*
X162523400Y-74885141D01*
X162749998Y-74904966D01*
X162750002Y-74904966D01*
X162976599Y-74885141D01*
X162976610Y-74885139D01*
X163196317Y-74826269D01*
X163196331Y-74826264D01*
X163402478Y-74730136D01*
X163475471Y-74679024D01*
X162796447Y-74000000D01*
X162802661Y-74000000D01*
X162904394Y-73972741D01*
X162995606Y-73920080D01*
X163070080Y-73845606D01*
X163122741Y-73754394D01*
X163150000Y-73652661D01*
X163150000Y-73646447D01*
X163829024Y-74325471D01*
X163880136Y-74252478D01*
X163976264Y-74046331D01*
X163976269Y-74046317D01*
X164035139Y-73826610D01*
X164035141Y-73826599D01*
X164054966Y-73600002D01*
X164054966Y-73599997D01*
X164035141Y-73373400D01*
X164035139Y-73373389D01*
X163976269Y-73153682D01*
X163976264Y-73153668D01*
X163880136Y-72947521D01*
X163880132Y-72947513D01*
X163829025Y-72874526D01*
X163150000Y-73553551D01*
X163150000Y-73547339D01*
X163122741Y-73445606D01*
X163070080Y-73354394D01*
X162995606Y-73279920D01*
X162904394Y-73227259D01*
X162802661Y-73200000D01*
X162796447Y-73200000D01*
X163475472Y-72520974D01*
X163402478Y-72469863D01*
X163196331Y-72373735D01*
X163196317Y-72373730D01*
X162976610Y-72314860D01*
X162976599Y-72314858D01*
X162750002Y-72295034D01*
X162749998Y-72295034D01*
X162523400Y-72314858D01*
X162523389Y-72314860D01*
X162303682Y-72373730D01*
X162303673Y-72373734D01*
X162097512Y-72469868D01*
X162097507Y-72469871D01*
X162084736Y-72478813D01*
X162018529Y-72501138D01*
X161950763Y-72484124D01*
X161914352Y-72451546D01*
X161907546Y-72442454D01*
X161907544Y-72442453D01*
X161907544Y-72442452D01*
X161792335Y-72356206D01*
X161792328Y-72356202D01*
X161657482Y-72305908D01*
X161657483Y-72305908D01*
X161597883Y-72299501D01*
X161597881Y-72299500D01*
X161597873Y-72299500D01*
X161597864Y-72299500D01*
X159902129Y-72299500D01*
X159902123Y-72299501D01*
X159842516Y-72305908D01*
X159707671Y-72356202D01*
X159707664Y-72356206D01*
X159592455Y-72442452D01*
X159592452Y-72442455D01*
X159506206Y-72557664D01*
X159506202Y-72557671D01*
X159455908Y-72692517D01*
X159449501Y-72752116D01*
X159449500Y-72752135D01*
X159449500Y-74447870D01*
X159449501Y-74447876D01*
X159455908Y-74507483D01*
X159506202Y-74642328D01*
X159506206Y-74642335D01*
X159592452Y-74757544D01*
X159592455Y-74757547D01*
X159707664Y-74843793D01*
X159707671Y-74843797D01*
X159749497Y-74859397D01*
X159842517Y-74894091D01*
X159902127Y-74900500D01*
X160125500Y-74900499D01*
X160192539Y-74920183D01*
X160238294Y-74972987D01*
X160249500Y-75024499D01*
X160249500Y-77843001D01*
X160229815Y-77910040D01*
X160177011Y-77955795D01*
X160125500Y-77967001D01*
X159838146Y-77967001D01*
X159787586Y-77975009D01*
X159612253Y-78002779D01*
X159612250Y-78002779D01*
X159394744Y-78073451D01*
X159190961Y-78177284D01*
X159098680Y-78244331D01*
X159005934Y-78311715D01*
X159005932Y-78311717D01*
X159005931Y-78311717D01*
X158844216Y-78473432D01*
X158844216Y-78473433D01*
X158844214Y-78473435D01*
X158814845Y-78513858D01*
X158709783Y-78658462D01*
X158605950Y-78862245D01*
X158535278Y-79079751D01*
X158535278Y-79079754D01*
X158499500Y-79305647D01*
X158499500Y-79534354D01*
X158535278Y-79760247D01*
X158535278Y-79760250D01*
X158605950Y-79977756D01*
X158618990Y-80003348D01*
X158631886Y-80072018D01*
X158605609Y-80136758D01*
X158548503Y-80177015D01*
X158478697Y-80180007D01*
X158420824Y-80147325D01*
X158410257Y-80136758D01*
X158324035Y-80050536D01*
X157574274Y-79300775D01*
X155324039Y-77050538D01*
X155324038Y-77050537D01*
X155280948Y-77021746D01*
X155247324Y-76999279D01*
X155176547Y-76951987D01*
X155176540Y-76951983D01*
X155079252Y-76911686D01*
X155012666Y-76884105D01*
X155012658Y-76884103D01*
X154838696Y-76849500D01*
X154838692Y-76849500D01*
X154838691Y-76849500D01*
X154158464Y-76849500D01*
X154091425Y-76829815D01*
X154045670Y-76777011D01*
X154035726Y-76707853D01*
X154041423Y-76684544D01*
X154044316Y-76676276D01*
X154044318Y-76676266D01*
X154064514Y-76497020D01*
X154064514Y-76497013D01*
X154044318Y-76317767D01*
X154044317Y-76317762D01*
X153984737Y-76147493D01*
X153909465Y-76027699D01*
X153888765Y-75994755D01*
X153761211Y-75867201D01*
X153640427Y-75791307D01*
X153608470Y-75771227D01*
X153438204Y-75711649D01*
X153438195Y-75711647D01*
X153430961Y-75710832D01*
X153366549Y-75683761D01*
X153357172Y-75675294D01*
X152676606Y-74994727D01*
X152676605Y-74994726D01*
X152670506Y-74990651D01*
X152625165Y-74960355D01*
X152570057Y-74923533D01*
X152511957Y-74899468D01*
X152457554Y-74855627D01*
X152435489Y-74789333D01*
X152452768Y-74721633D01*
X152477621Y-74692371D01*
X152477573Y-74692323D01*
X152478171Y-74691724D01*
X152479711Y-74689912D01*
X152481388Y-74688504D01*
X152481401Y-74688495D01*
X152648495Y-74521401D01*
X152778426Y-74335841D01*
X152833002Y-74292217D01*
X152902500Y-74285023D01*
X152964855Y-74316546D01*
X152981575Y-74335842D01*
X153111500Y-74521395D01*
X153111505Y-74521401D01*
X153278599Y-74688495D01*
X153364235Y-74748458D01*
X153472165Y-74824032D01*
X153472167Y-74824033D01*
X153472170Y-74824035D01*
X153686337Y-74923903D01*
X153914592Y-74985063D01*
X154079627Y-74999502D01*
X154149999Y-75005659D01*
X154150000Y-75005659D01*
X154150001Y-75005659D01*
X154189234Y-75002226D01*
X154385408Y-74985063D01*
X154613663Y-74923903D01*
X154827830Y-74824035D01*
X155021401Y-74688495D01*
X155188495Y-74521401D01*
X155324035Y-74327830D01*
X155423903Y-74113663D01*
X155485063Y-73885408D01*
X155505659Y-73650000D01*
X155485063Y-73414592D01*
X155423903Y-73186337D01*
X155324035Y-72972171D01*
X155318731Y-72964595D01*
X155188494Y-72778597D01*
X155021402Y-72611506D01*
X155021395Y-72611501D01*
X154827834Y-72475967D01*
X154827830Y-72475965D01*
X154775459Y-72451544D01*
X154613663Y-72376097D01*
X154613659Y-72376096D01*
X154613655Y-72376094D01*
X154385413Y-72314938D01*
X154385403Y-72314936D01*
X154150001Y-72294341D01*
X154149999Y-72294341D01*
X153914596Y-72314936D01*
X153914586Y-72314938D01*
X153686344Y-72376094D01*
X153686335Y-72376098D01*
X153472171Y-72475964D01*
X153472169Y-72475965D01*
X153278597Y-72611505D01*
X153111505Y-72778597D01*
X152981575Y-72964158D01*
X152926998Y-73007783D01*
X152857500Y-73014977D01*
X152795145Y-72983454D01*
X152778425Y-72964158D01*
X152648494Y-72778597D01*
X152481402Y-72611506D01*
X152481395Y-72611501D01*
X152287834Y-72475967D01*
X152287830Y-72475965D01*
X152235459Y-72451544D01*
X152073663Y-72376097D01*
X152073659Y-72376096D01*
X152073655Y-72376094D01*
X151845413Y-72314938D01*
X151845403Y-72314936D01*
X151610001Y-72294341D01*
X151609999Y-72294341D01*
X151374596Y-72314936D01*
X151374586Y-72314938D01*
X151146344Y-72376094D01*
X151146335Y-72376098D01*
X150932171Y-72475964D01*
X150932169Y-72475965D01*
X150738597Y-72611505D01*
X150571508Y-72778594D01*
X150441269Y-72964595D01*
X150386692Y-73008219D01*
X150317193Y-73015412D01*
X150254839Y-72983890D01*
X150238118Y-72964594D01*
X150184925Y-72888626D01*
X149552963Y-73520589D01*
X149535926Y-73457007D01*
X149470100Y-73342993D01*
X149377008Y-73249901D01*
X149262994Y-73184075D01*
X149199410Y-73167037D01*
X149831374Y-72535073D01*
X149831374Y-72535072D01*
X149747584Y-72476402D01*
X149747580Y-72476400D01*
X149533493Y-72376570D01*
X149533484Y-72376566D01*
X149305327Y-72315432D01*
X149305317Y-72315430D01*
X149091319Y-72296708D01*
X149026251Y-72271255D01*
X148985272Y-72214665D01*
X148981394Y-72144903D01*
X149014443Y-72085502D01*
X149163129Y-71936816D01*
X149224450Y-71903334D01*
X149250808Y-71900500D01*
X170314071Y-71900500D01*
X170398615Y-71883682D01*
X170439744Y-71875501D01*
X170558127Y-71826465D01*
X170598482Y-71799501D01*
X170664669Y-71755277D01*
X174505277Y-67914669D01*
X174576465Y-67808127D01*
X174625501Y-67689744D01*
X174650500Y-67564069D01*
X174650500Y-60005067D01*
X174669507Y-59939094D01*
X174725788Y-59849524D01*
X174741170Y-59805565D01*
X174785368Y-59679255D01*
X174785918Y-59674374D01*
X174805565Y-59500003D01*
X174805565Y-59499996D01*
X174785369Y-59320750D01*
X174785368Y-59320745D01*
X174769232Y-59274630D01*
X174725789Y-59150478D01*
X174629816Y-58997738D01*
X174590163Y-58958085D01*
X174574745Y-58939299D01*
X174505277Y-58835331D01*
X174505275Y-58835329D01*
X174505273Y-58835326D01*
X165632128Y-49962181D01*
X165598643Y-49900858D01*
X165603627Y-49831166D01*
X165645499Y-49775233D01*
X165710963Y-49750816D01*
X165719809Y-49750500D01*
X165887770Y-49750500D01*
X165954809Y-49770185D01*
G37*
%TD.AperFunction*%
%TA.AperFunction,Conductor*%
G36*
X134221946Y-88609520D02*
G01*
X134237333Y-88615894D01*
X134237337Y-88615894D01*
X134237338Y-88615895D01*
X134411304Y-88650500D01*
X134411307Y-88650500D01*
X134411308Y-88650500D01*
X139075638Y-88650500D01*
X139142677Y-88670185D01*
X139163319Y-88686819D01*
X139364317Y-88887817D01*
X139397802Y-88949140D01*
X139392818Y-89018832D01*
X139350946Y-89074765D01*
X139285482Y-89099182D01*
X139276636Y-89099498D01*
X138848877Y-89099498D01*
X138848874Y-89099499D01*
X138806113Y-89102397D01*
X138806112Y-89102397D01*
X138621303Y-89148358D01*
X138450707Y-89232965D01*
X138450704Y-89232967D01*
X138302280Y-89352274D01*
X138246326Y-89421883D01*
X138188982Y-89461801D01*
X138119160Y-89464381D01*
X138059027Y-89428802D01*
X138053032Y-89421882D01*
X137997367Y-89352632D01*
X137997366Y-89352631D01*
X137849025Y-89233391D01*
X137849022Y-89233389D01*
X137678523Y-89148830D01*
X137493824Y-89102896D01*
X137451097Y-89099999D01*
X137250000Y-89099999D01*
X137250000Y-92099999D01*
X137451097Y-92099999D01*
X137493824Y-92097101D01*
X137678523Y-92051167D01*
X137849022Y-91966608D01*
X137849025Y-91966606D01*
X137997366Y-91847366D01*
X137997367Y-91847365D01*
X138053033Y-91778114D01*
X138110376Y-91738195D01*
X138180198Y-91735615D01*
X138240331Y-91771193D01*
X138246327Y-91778114D01*
X138302277Y-91847719D01*
X138302278Y-91847720D01*
X138450704Y-91967028D01*
X138450707Y-91967030D01*
X138621302Y-92051637D01*
X138621303Y-92051637D01*
X138621307Y-92051639D01*
X138806111Y-92097598D01*
X138848877Y-92100498D01*
X138987766Y-92100497D01*
X139054806Y-92120181D01*
X139075448Y-92136816D01*
X139756118Y-92817486D01*
X140254082Y-93315449D01*
X140287567Y-93376772D01*
X140282583Y-93446464D01*
X140240711Y-93502397D01*
X140175247Y-93526814D01*
X140106974Y-93511962D01*
X140090239Y-93500984D01*
X140068349Y-93483947D01*
X139864302Y-93373521D01*
X139864293Y-93373518D01*
X139644860Y-93298186D01*
X139416007Y-93259998D01*
X139183993Y-93259998D01*
X138955139Y-93298186D01*
X138735706Y-93373518D01*
X138735697Y-93373521D01*
X138531650Y-93483947D01*
X138501200Y-93507645D01*
X139170590Y-94177035D01*
X139107007Y-94194073D01*
X138992993Y-94259899D01*
X138899901Y-94352991D01*
X138834075Y-94467005D01*
X138817037Y-94530589D01*
X138148811Y-93862363D01*
X138064516Y-93991388D01*
X137971317Y-94203862D01*
X137914361Y-94428779D01*
X137895202Y-94659992D01*
X137895202Y-94660003D01*
X137914361Y-94891216D01*
X137971317Y-95116133D01*
X138064515Y-95328604D01*
X138148812Y-95457631D01*
X138817037Y-94789406D01*
X138834075Y-94852991D01*
X138899901Y-94967005D01*
X138992993Y-95060097D01*
X139107007Y-95125923D01*
X139170590Y-95142960D01*
X138501201Y-95812349D01*
X138526227Y-95831827D01*
X138567040Y-95888538D01*
X138570715Y-95958311D01*
X138536084Y-96018994D01*
X138526228Y-96027534D01*
X138348217Y-96166086D01*
X138348212Y-96166090D01*
X138262238Y-96259483D01*
X138202351Y-96295474D01*
X138171009Y-96299500D01*
X136124362Y-96299500D01*
X136057323Y-96279815D01*
X136036681Y-96263181D01*
X132578695Y-92805195D01*
X132545210Y-92743872D01*
X132550194Y-92674180D01*
X132592066Y-92618247D01*
X132657530Y-92593830D01*
X132677178Y-92593985D01*
X132737423Y-92599256D01*
X132749999Y-92600357D01*
X132750000Y-92600357D01*
X132750002Y-92600357D01*
X132806673Y-92595398D01*
X132976692Y-92580524D01*
X133196496Y-92521628D01*
X133402734Y-92425457D01*
X133589139Y-92294936D01*
X133750047Y-92134028D01*
X133880568Y-91947623D01*
X133976739Y-91741385D01*
X134035635Y-91521581D01*
X134054925Y-91301095D01*
X135750000Y-91301095D01*
X135752897Y-91343823D01*
X135798831Y-91528522D01*
X135883390Y-91699021D01*
X135883392Y-91699024D01*
X136002632Y-91847365D01*
X136002633Y-91847366D01*
X136150974Y-91966606D01*
X136150977Y-91966608D01*
X136321476Y-92051167D01*
X136506175Y-92097101D01*
X136548903Y-92099999D01*
X136750000Y-92099999D01*
X136750000Y-90849999D01*
X135750000Y-90849999D01*
X135750000Y-91301095D01*
X134054925Y-91301095D01*
X134055468Y-91294889D01*
X134035635Y-91068197D01*
X133976739Y-90848393D01*
X133880568Y-90642155D01*
X133871586Y-90629328D01*
X133849261Y-90563126D01*
X133866271Y-90495359D01*
X133898852Y-90458942D01*
X133907546Y-90452434D01*
X133993796Y-90337219D01*
X134044091Y-90202371D01*
X134050500Y-90142761D01*
X134050500Y-89898902D01*
X135750000Y-89898902D01*
X135750000Y-90349999D01*
X136750000Y-90349999D01*
X136750000Y-89099999D01*
X136548903Y-89099999D01*
X136506175Y-89102896D01*
X136321476Y-89148830D01*
X136150977Y-89233389D01*
X136150974Y-89233391D01*
X136002633Y-89352631D01*
X136002632Y-89352632D01*
X135883392Y-89500973D01*
X135883390Y-89500976D01*
X135798831Y-89671475D01*
X135752897Y-89856174D01*
X135750000Y-89898902D01*
X134050500Y-89898902D01*
X134050499Y-88724082D01*
X134070184Y-88657044D01*
X134122987Y-88611289D01*
X134192146Y-88601345D01*
X134221946Y-88609520D01*
G37*
%TD.AperFunction*%
%TA.AperFunction,Conductor*%
G36*
X140463181Y-95469626D02*
G01*
X140496666Y-95530949D01*
X140499500Y-95557307D01*
X140499500Y-96117394D01*
X140479815Y-96184433D01*
X140427011Y-96230188D01*
X140357853Y-96240132D01*
X140294297Y-96211107D01*
X140284275Y-96201382D01*
X140251784Y-96166087D01*
X140251779Y-96166083D01*
X140251777Y-96166081D01*
X140073773Y-96027535D01*
X140032960Y-95970825D01*
X140029285Y-95901052D01*
X140063917Y-95840369D01*
X140073771Y-95831830D01*
X140098797Y-95812350D01*
X140098798Y-95812348D01*
X139429410Y-95142960D01*
X139492993Y-95125923D01*
X139607007Y-95060097D01*
X139700099Y-94967005D01*
X139765925Y-94852991D01*
X139782962Y-94789407D01*
X140463181Y-95469626D01*
G37*
%TD.AperFunction*%
%TA.AperFunction,Conductor*%
G36*
X150184926Y-74411373D02*
G01*
X150238120Y-74335405D01*
X150292697Y-74291781D01*
X150362196Y-74284588D01*
X150424550Y-74316110D01*
X150441268Y-74335404D01*
X150441575Y-74335842D01*
X150571501Y-74521396D01*
X150571506Y-74521402D01*
X150687923Y-74637819D01*
X150721408Y-74699142D01*
X150716424Y-74768834D01*
X150674552Y-74824767D01*
X150609088Y-74849184D01*
X150600242Y-74849500D01*
X149959297Y-74849500D01*
X149892258Y-74829815D01*
X149866255Y-74799806D01*
X149199411Y-74132962D01*
X149262994Y-74115925D01*
X149377008Y-74050099D01*
X149470100Y-73957007D01*
X149535926Y-73842993D01*
X149552963Y-73779409D01*
X150184926Y-74411373D01*
G37*
%TD.AperFunction*%
%TA.AperFunction,Conductor*%
G36*
X176955703Y-60126558D02*
G01*
X176978309Y-60152450D01*
X177051016Y-60263738D01*
X177051019Y-60263742D01*
X177051021Y-60263744D01*
X177208216Y-60434504D01*
X177208219Y-60434506D01*
X177208222Y-60434509D01*
X177391365Y-60577055D01*
X177391371Y-60577059D01*
X177391374Y-60577061D01*
X177595497Y-60687527D01*
X177709487Y-60726659D01*
X177815015Y-60762888D01*
X177815017Y-60762888D01*
X177815019Y-60762889D01*
X178043951Y-60801091D01*
X178043952Y-60801091D01*
X178062004Y-60801091D01*
X178129043Y-60820776D01*
X178174798Y-60873580D01*
X178184742Y-60942738D01*
X178175560Y-60974902D01*
X178163609Y-61002147D01*
X179076448Y-61246740D01*
X179029901Y-61293288D01*
X178964075Y-61407302D01*
X178930000Y-61534469D01*
X178930000Y-61666121D01*
X178947037Y-61729703D01*
X178034734Y-61485254D01*
X178025202Y-61600300D01*
X178044361Y-61831513D01*
X178101317Y-62056430D01*
X178194516Y-62268904D01*
X178321414Y-62463137D01*
X178478558Y-62633840D01*
X178478562Y-62633843D01*
X178661644Y-62776342D01*
X178661653Y-62776348D01*
X178735746Y-62816445D01*
X178785337Y-62865664D01*
X178800445Y-62933881D01*
X178776275Y-62999437D01*
X178720499Y-63041518D01*
X178676729Y-63049500D01*
X176874500Y-63049500D01*
X176807461Y-63029815D01*
X176761706Y-62977011D01*
X176750500Y-62925500D01*
X176750500Y-60220271D01*
X176770185Y-60153232D01*
X176822989Y-60107477D01*
X176892147Y-60097533D01*
X176955703Y-60126558D01*
G37*
%TD.AperFunction*%
%TA.AperFunction,Conductor*%
G36*
X181029335Y-61463145D02*
G01*
X181067444Y-61508564D01*
X181497114Y-62383043D01*
X181509010Y-62451892D01*
X181481795Y-62516244D01*
X181424109Y-62555666D01*
X181354268Y-62557643D01*
X181326806Y-62546780D01*
X181264503Y-62513064D01*
X181264495Y-62513061D01*
X181044984Y-62437702D01*
X180873282Y-62409050D01*
X180816049Y-62399500D01*
X180797994Y-62399500D01*
X180730955Y-62379815D01*
X180685200Y-62327011D01*
X180675256Y-62257853D01*
X180684438Y-62225691D01*
X180696389Y-62198442D01*
X179783552Y-61953848D01*
X179830099Y-61907302D01*
X179895925Y-61793288D01*
X179930000Y-61666121D01*
X179930000Y-61534469D01*
X179912962Y-61470883D01*
X180825265Y-61715334D01*
X180834798Y-61600300D01*
X180834798Y-61600295D01*
X180832576Y-61573490D01*
X180846655Y-61505053D01*
X180895499Y-61455093D01*
X180963599Y-61439470D01*
X181029335Y-61463145D01*
G37*
%TD.AperFunction*%
%TA.AperFunction,Conductor*%
G36*
X179750684Y-59152924D02*
G01*
X179783155Y-59188120D01*
X179847828Y-59293404D01*
X179849813Y-59296751D01*
X179912753Y-59406814D01*
X180416127Y-60287069D01*
X180420463Y-60294650D01*
X180436654Y-60362618D01*
X180413529Y-60428550D01*
X180358430Y-60471513D01*
X180288850Y-60477867D01*
X180236659Y-60454060D01*
X180198354Y-60424247D01*
X180198351Y-60424244D01*
X180028560Y-60332358D01*
X179783552Y-61246741D01*
X179737007Y-61200196D01*
X179622993Y-61134370D01*
X179495826Y-61100295D01*
X179364174Y-61100295D01*
X179300588Y-61117333D01*
X179546296Y-60200342D01*
X179546013Y-60200295D01*
X179528322Y-60200295D01*
X179461283Y-60180610D01*
X179415528Y-60127806D01*
X179405584Y-60058648D01*
X179414766Y-60026485D01*
X179489157Y-59856891D01*
X179546133Y-59631899D01*
X179546135Y-59631888D01*
X179565300Y-59400597D01*
X179565300Y-59400585D01*
X179553921Y-59263263D01*
X179568002Y-59194827D01*
X179616847Y-59144868D01*
X179684948Y-59129247D01*
X179750684Y-59152924D01*
G37*
%TD.AperFunction*%
%TA.AperFunction,Conductor*%
G36*
X111565567Y-59216632D02*
G01*
X111604530Y-59274630D01*
X111609864Y-59322218D01*
X111603407Y-59400143D01*
X111612939Y-59515188D01*
X112525243Y-59270737D01*
X112508205Y-59334323D01*
X112508205Y-59465975D01*
X112542280Y-59593142D01*
X112608106Y-59707156D01*
X112654651Y-59753701D01*
X111741813Y-59998296D01*
X111753765Y-60025543D01*
X111762668Y-60094843D01*
X111732691Y-60157955D01*
X111673351Y-60194842D01*
X111640209Y-60199353D01*
X111622156Y-60199353D01*
X111576369Y-60206993D01*
X111393220Y-60237555D01*
X111173709Y-60312914D01*
X111173695Y-60312920D01*
X110970399Y-60422938D01*
X110902071Y-60437533D01*
X110836699Y-60412870D01*
X110795038Y-60356779D01*
X110790316Y-60287069D01*
X110803739Y-60252328D01*
X110834033Y-60199353D01*
X111350194Y-59296738D01*
X111352145Y-59293446D01*
X111380631Y-59247073D01*
X111432493Y-59200255D01*
X111501434Y-59188907D01*
X111565567Y-59216632D01*
G37*
%TD.AperFunction*%
%TA.AperFunction,Conductor*%
G36*
X140764529Y-40101114D02*
G01*
X140815797Y-40148584D01*
X140833261Y-40216236D01*
X140811377Y-40282591D01*
X140800558Y-40296131D01*
X140671018Y-40436849D01*
X140544075Y-40631151D01*
X140450842Y-40843699D01*
X140393866Y-41068691D01*
X140393864Y-41068702D01*
X140374700Y-41299993D01*
X140374700Y-41300006D01*
X140393864Y-41531297D01*
X140393866Y-41531308D01*
X140450842Y-41756300D01*
X140544075Y-41968848D01*
X140671016Y-42163147D01*
X140671018Y-42163149D01*
X140671021Y-42163153D01*
X140828216Y-42333913D01*
X140828219Y-42333915D01*
X140828222Y-42333918D01*
X141011365Y-42476464D01*
X141011371Y-42476468D01*
X141011374Y-42476470D01*
X141173682Y-42564307D01*
X141214652Y-42586479D01*
X141215497Y-42586936D01*
X141329487Y-42626068D01*
X141435015Y-42662297D01*
X141435017Y-42662297D01*
X141435019Y-42662298D01*
X141663951Y-42700500D01*
X141663952Y-42700500D01*
X141896048Y-42700500D01*
X141896049Y-42700500D01*
X142124981Y-42662298D01*
X142129944Y-42661041D01*
X142130257Y-42662280D01*
X142194032Y-42659390D01*
X142252200Y-42692146D01*
X145724653Y-46164599D01*
X145758138Y-46225922D01*
X145753154Y-46295614D01*
X145711282Y-46351547D01*
X145645818Y-46375964D01*
X145636972Y-46376280D01*
X145038071Y-46376280D01*
X143914854Y-46414285D01*
X142793586Y-46490251D01*
X141675515Y-46604094D01*
X140561923Y-46755683D01*
X139454092Y-46944844D01*
X138353332Y-47171352D01*
X137260803Y-47434969D01*
X136177862Y-47735369D01*
X135480885Y-47954344D01*
X135105673Y-48072227D01*
X135105665Y-48072229D01*
X135105658Y-48072232D01*
X134045501Y-48445145D01*
X132998525Y-48853711D01*
X131966015Y-49297429D01*
X131965998Y-49297436D01*
X131965991Y-49297440D01*
X130950322Y-49775233D01*
X130949019Y-49775846D01*
X129948855Y-50288346D01*
X128966581Y-50834382D01*
X128003315Y-51413335D01*
X127060176Y-52024534D01*
X126138260Y-52667268D01*
X125369218Y-53243027D01*
X125238606Y-53340812D01*
X124940014Y-53580533D01*
X124362224Y-54044407D01*
X123510170Y-54777212D01*
X122683375Y-55538419D01*
X121882782Y-56327162D01*
X121109319Y-57142530D01*
X120363882Y-57983577D01*
X119647311Y-58849352D01*
X119521355Y-59012457D01*
X119464800Y-59053485D01*
X119395042Y-59057425D01*
X119334228Y-59023024D01*
X119301665Y-58961206D01*
X119299993Y-58950550D01*
X119299015Y-58941873D01*
X119294060Y-58897893D01*
X119285369Y-58820749D01*
X119285368Y-58820745D01*
X119269275Y-58774754D01*
X119225789Y-58650478D01*
X119129816Y-58497738D01*
X119002262Y-58370184D01*
X118849522Y-58274211D01*
X118849518Y-58274209D01*
X118843244Y-58271188D01*
X118844125Y-58269358D01*
X118808059Y-58246692D01*
X117993561Y-57432194D01*
X117178860Y-56617492D01*
X117178859Y-56617491D01*
X117178857Y-56617489D01*
X117129623Y-56584594D01*
X117096799Y-56562662D01*
X117055939Y-56535360D01*
X117055938Y-56535359D01*
X117055936Y-56535358D01*
X117055934Y-56535357D01*
X116919361Y-56478787D01*
X116919351Y-56478784D01*
X116774364Y-56449944D01*
X116774362Y-56449944D01*
X115527890Y-56449944D01*
X115460851Y-56430259D01*
X115424082Y-56393766D01*
X115387189Y-56337298D01*
X115387187Y-56337296D01*
X115387184Y-56337291D01*
X115229989Y-56166531D01*
X115229984Y-56166527D01*
X115229982Y-56166525D01*
X115046839Y-56023979D01*
X115046833Y-56023975D01*
X114842709Y-55913508D01*
X114842700Y-55913505D01*
X114623189Y-55838146D01*
X114451487Y-55809494D01*
X114394254Y-55799944D01*
X114162156Y-55799944D01*
X114013742Y-55824710D01*
X113928166Y-55838990D01*
X113927955Y-55837730D01*
X113864141Y-55835316D01*
X113806833Y-55795346D01*
X113780233Y-55730738D01*
X113792784Y-55662005D01*
X113804454Y-55643207D01*
X114161722Y-55168331D01*
X114164057Y-55165326D01*
X114943844Y-54193862D01*
X114946254Y-54190954D01*
X115756117Y-53244462D01*
X115758605Y-53241644D01*
X116597788Y-52321008D01*
X116600393Y-52318238D01*
X117468021Y-51424417D01*
X117470731Y-51421712D01*
X118365946Y-50555586D01*
X118368722Y-50552982D01*
X119290758Y-49715296D01*
X119293563Y-49712827D01*
X120241424Y-48904489D01*
X120244316Y-48902100D01*
X121217074Y-48123902D01*
X121220041Y-48121604D01*
X121659450Y-47792150D01*
X121724894Y-47767685D01*
X121793178Y-47782485D01*
X121842620Y-47831853D01*
X121857524Y-47900115D01*
X121854039Y-47921802D01*
X121814309Y-48078690D01*
X121814307Y-48078702D01*
X121795143Y-48309993D01*
X121795143Y-48310006D01*
X121814307Y-48541297D01*
X121814309Y-48541308D01*
X121871285Y-48766300D01*
X121964518Y-48978848D01*
X122091459Y-49173147D01*
X122091462Y-49173151D01*
X122091464Y-49173153D01*
X122248659Y-49343913D01*
X122248662Y-49343915D01*
X122248665Y-49343918D01*
X122431808Y-49486464D01*
X122431814Y-49486468D01*
X122431817Y-49486470D01*
X122635940Y-49596936D01*
X122749930Y-49636068D01*
X122855458Y-49672297D01*
X122855460Y-49672297D01*
X122855462Y-49672298D01*
X123084394Y-49710500D01*
X123084395Y-49710500D01*
X123316491Y-49710500D01*
X123316492Y-49710500D01*
X123545424Y-49672298D01*
X123764946Y-49596936D01*
X123969069Y-49486470D01*
X123969315Y-49486279D01*
X124030572Y-49438600D01*
X124152227Y-49343913D01*
X124309422Y-49173153D01*
X124436367Y-48978849D01*
X124529600Y-48766300D01*
X124586577Y-48541305D01*
X124598594Y-48396277D01*
X124623747Y-48331095D01*
X124680148Y-48289856D01*
X124749892Y-48285658D01*
X124781188Y-48297465D01*
X124835635Y-48326931D01*
X124835641Y-48326933D01*
X124835646Y-48326936D01*
X124949636Y-48366068D01*
X125055164Y-48402297D01*
X125055166Y-48402297D01*
X125055168Y-48402298D01*
X125284100Y-48440500D01*
X125284101Y-48440500D01*
X125516197Y-48440500D01*
X125516198Y-48440500D01*
X125745130Y-48402298D01*
X125964652Y-48326936D01*
X126168775Y-48216470D01*
X126351933Y-48073913D01*
X126509128Y-47903153D01*
X126636073Y-47708849D01*
X126729306Y-47496300D01*
X126786283Y-47271305D01*
X126798344Y-47125735D01*
X126823498Y-47060553D01*
X126879899Y-47019314D01*
X126949643Y-47015116D01*
X126980939Y-47026922D01*
X127001290Y-47037935D01*
X127246297Y-46123551D01*
X127292845Y-46170099D01*
X127406859Y-46235925D01*
X127534026Y-46270000D01*
X127665678Y-46270000D01*
X127729260Y-46252962D01*
X127483554Y-47169951D01*
X127483843Y-47169999D01*
X127483844Y-47170000D01*
X127715859Y-47170000D01*
X127944712Y-47131811D01*
X128164145Y-47056479D01*
X128164154Y-47056476D01*
X128368203Y-46946050D01*
X128368207Y-46946047D01*
X128551289Y-46803548D01*
X128551293Y-46803545D01*
X128708437Y-46632842D01*
X128835334Y-46438610D01*
X128835335Y-46438609D01*
X128866241Y-46368147D01*
X127953404Y-46123553D01*
X127999951Y-46077007D01*
X128065777Y-45962993D01*
X128099852Y-45835826D01*
X128099852Y-45704174D01*
X128082814Y-45640588D01*
X128995117Y-45885039D01*
X128997522Y-45856019D01*
X129022675Y-45790834D01*
X129079077Y-45749596D01*
X129148820Y-45745398D01*
X129180113Y-45757203D01*
X129235054Y-45786936D01*
X129312788Y-45813622D01*
X129454572Y-45862297D01*
X129454574Y-45862297D01*
X129454576Y-45862298D01*
X129683508Y-45900500D01*
X129683509Y-45900500D01*
X129915605Y-45900500D01*
X129915606Y-45900500D01*
X130144538Y-45862298D01*
X130364060Y-45786936D01*
X130568183Y-45676470D01*
X130590272Y-45659278D01*
X130685547Y-45585122D01*
X130751341Y-45533913D01*
X130908536Y-45363153D01*
X131035481Y-45168849D01*
X131128714Y-44956300D01*
X131185691Y-44731305D01*
X131185692Y-44731297D01*
X131204857Y-44500006D01*
X131204857Y-44499993D01*
X131185692Y-44268702D01*
X131185690Y-44268691D01*
X131128714Y-44043699D01*
X131035481Y-43831151D01*
X130908540Y-43636852D01*
X130908537Y-43636849D01*
X130908536Y-43636847D01*
X130751341Y-43466087D01*
X130751336Y-43466083D01*
X130751334Y-43466081D01*
X130568191Y-43323535D01*
X130568185Y-43323531D01*
X130364061Y-43213064D01*
X130364052Y-43213061D01*
X130155352Y-43141413D01*
X130098336Y-43101027D01*
X130072206Y-43036228D01*
X130085258Y-42967588D01*
X130133347Y-42916900D01*
X130148195Y-42909557D01*
X130955799Y-42575426D01*
X130959329Y-42574030D01*
X132124786Y-42134144D01*
X132128351Y-42132863D01*
X133306970Y-41729786D01*
X133310578Y-41728614D01*
X134501316Y-41362702D01*
X134505023Y-41361627D01*
X135706614Y-41033270D01*
X135710264Y-41032334D01*
X136921576Y-40741840D01*
X136925353Y-40740997D01*
X138145157Y-40488659D01*
X138148958Y-40487936D01*
X139376040Y-40274003D01*
X139379808Y-40273406D01*
X140613131Y-40098065D01*
X140616880Y-40097592D01*
X140695736Y-40088896D01*
X140764529Y-40101114D01*
G37*
%TD.AperFunction*%
%TA.AperFunction,Conductor*%
G36*
X112840013Y-57219893D02*
G01*
X112877136Y-57279084D01*
X112881357Y-57302464D01*
X112892069Y-57431740D01*
X112892071Y-57431752D01*
X112949047Y-57656744D01*
X113023439Y-57826339D01*
X113032342Y-57895639D01*
X113002365Y-57958751D01*
X112943025Y-57995638D01*
X112909883Y-58000149D01*
X112892203Y-58000149D01*
X112891908Y-58000197D01*
X113137614Y-58917186D01*
X113074031Y-58900149D01*
X112942379Y-58900149D01*
X112815212Y-58934224D01*
X112701198Y-59000050D01*
X112654650Y-59046597D01*
X112409643Y-58132212D01*
X112409642Y-58132212D01*
X112315534Y-58183141D01*
X112247206Y-58197736D01*
X112181834Y-58173073D01*
X112140173Y-58116983D01*
X112135451Y-58047273D01*
X112152944Y-58005905D01*
X112654214Y-57244515D01*
X112707517Y-57199348D01*
X112776781Y-57190168D01*
X112840013Y-57219893D01*
G37*
%TD.AperFunction*%
%TA.AperFunction,Conductor*%
G36*
X165300295Y-46964174D02*
G01*
X165300295Y-47095826D01*
X165334370Y-47222993D01*
X165400196Y-47337007D01*
X165446741Y-47383552D01*
X164533903Y-47628147D01*
X164564811Y-47698609D01*
X164691709Y-47892842D01*
X164828575Y-48041517D01*
X164859497Y-48104171D01*
X164851637Y-48173598D01*
X164807490Y-48227753D01*
X164741072Y-48249444D01*
X164737345Y-48249500D01*
X164112229Y-48249500D01*
X164045190Y-48229815D01*
X164024548Y-48213181D01*
X163142881Y-47331514D01*
X163109396Y-47270191D01*
X163114380Y-47200499D01*
X163156252Y-47144566D01*
X163221716Y-47120149D01*
X163250972Y-47121524D01*
X163255609Y-47122297D01*
X163255610Y-47122298D01*
X163484542Y-47160500D01*
X163484543Y-47160500D01*
X163716639Y-47160500D01*
X163716640Y-47160500D01*
X163945572Y-47122298D01*
X164165094Y-47046936D01*
X164220032Y-47017204D01*
X164288355Y-47002610D01*
X164353728Y-47027271D01*
X164395390Y-47083361D01*
X164402623Y-47116020D01*
X164405027Y-47145039D01*
X164405028Y-47145040D01*
X165317333Y-46900588D01*
X165300295Y-46964174D01*
G37*
%TD.AperFunction*%
%TA.AperFunction,Conductor*%
G36*
X167176221Y-46141855D02*
G01*
X167849759Y-46583700D01*
X167957435Y-46654336D01*
X167960647Y-46656516D01*
X167980122Y-46670185D01*
X167985563Y-46674004D01*
X168029127Y-46728629D01*
X168036243Y-46798136D01*
X168004652Y-46860455D01*
X167944383Y-46895802D01*
X167914327Y-46899500D01*
X167883951Y-46899500D01*
X167838164Y-46907140D01*
X167655015Y-46937702D01*
X167435504Y-47013061D01*
X167435490Y-47013067D01*
X167380558Y-47042795D01*
X167312230Y-47057390D01*
X167246858Y-47032727D01*
X167205197Y-46976636D01*
X167197965Y-46943980D01*
X167195560Y-46914959D01*
X166283257Y-47159408D01*
X166300295Y-47095826D01*
X166300295Y-46964174D01*
X166266220Y-46837007D01*
X166200394Y-46722993D01*
X166153846Y-46676445D01*
X167066684Y-46431851D01*
X167035779Y-46361393D01*
X167004398Y-46313360D01*
X166984211Y-46246470D01*
X167003391Y-46179284D01*
X167055849Y-46133134D01*
X167124931Y-46122671D01*
X167176221Y-46141855D01*
G37*
%TD.AperFunction*%
%TA.AperFunction,Conductor*%
G36*
X164918214Y-44787800D02*
G01*
X165762621Y-45268834D01*
X165846877Y-45316832D01*
X165850228Y-45318812D01*
X165983271Y-45400236D01*
X166030176Y-45452020D01*
X166041638Y-45520944D01*
X166014018Y-45585122D01*
X165956085Y-45624180D01*
X165918542Y-45630000D01*
X165684293Y-45630000D01*
X165683998Y-45630048D01*
X165929704Y-46547037D01*
X165866121Y-46530000D01*
X165734469Y-46530000D01*
X165607302Y-46564075D01*
X165493288Y-46629901D01*
X165446740Y-46676448D01*
X165201733Y-45762063D01*
X165201732Y-45762062D01*
X165181380Y-45773077D01*
X165113052Y-45787672D01*
X165047680Y-45763009D01*
X165006019Y-45706918D01*
X164998787Y-45674265D01*
X164986725Y-45528695D01*
X164957059Y-45411546D01*
X164929748Y-45303699D01*
X164870596Y-45168848D01*
X164836515Y-45091151D01*
X164753028Y-44963365D01*
X164732842Y-44896477D01*
X164752022Y-44829292D01*
X164804480Y-44783141D01*
X164873562Y-44772678D01*
X164918214Y-44787800D01*
G37*
%TD.AperFunction*%
%TA.AperFunction,Conductor*%
G36*
X126427734Y-44788083D02*
G01*
X126470606Y-44843253D01*
X126476846Y-44912843D01*
X126459033Y-44956494D01*
X126364371Y-45101386D01*
X126333461Y-45171852D01*
X127246300Y-45416445D01*
X127199753Y-45462993D01*
X127133927Y-45577007D01*
X127099852Y-45704174D01*
X127099852Y-45835826D01*
X127116889Y-45899409D01*
X126204585Y-45654958D01*
X126204584Y-45654959D01*
X126202180Y-45683978D01*
X126177027Y-45749163D01*
X126120625Y-45790401D01*
X126050881Y-45794599D01*
X126019587Y-45782793D01*
X125964658Y-45753067D01*
X125964655Y-45753066D01*
X125964652Y-45753064D01*
X125964646Y-45753062D01*
X125964644Y-45753061D01*
X125745133Y-45677702D01*
X125573431Y-45649050D01*
X125516198Y-45639500D01*
X125284100Y-45639500D01*
X125284096Y-45639500D01*
X125283383Y-45639619D01*
X125283088Y-45639583D01*
X125278989Y-45639923D01*
X125278919Y-45639079D01*
X125214018Y-45631236D01*
X125160197Y-45586681D01*
X125139008Y-45520102D01*
X125157179Y-45452636D01*
X125198248Y-45411546D01*
X125349771Y-45318812D01*
X125353082Y-45316855D01*
X126293849Y-44780928D01*
X126361840Y-44764850D01*
X126427734Y-44788083D01*
G37*
%TD.AperFunction*%
%TA.AperFunction,Conductor*%
G36*
X128513435Y-43720415D02*
G01*
X128552763Y-43778166D01*
X128554625Y-43848010D01*
X128548315Y-43866069D01*
X128470400Y-44043699D01*
X128413423Y-44268691D01*
X128413421Y-44268703D01*
X128401360Y-44414263D01*
X128376207Y-44479448D01*
X128319805Y-44520686D01*
X128250061Y-44524884D01*
X128218766Y-44513078D01*
X128198412Y-44502063D01*
X127953404Y-45416446D01*
X127906859Y-45369901D01*
X127792845Y-45304075D01*
X127665678Y-45270000D01*
X127534026Y-45270000D01*
X127470440Y-45287038D01*
X127716148Y-44370047D01*
X127715865Y-44370000D01*
X127559587Y-44370000D01*
X127492548Y-44350315D01*
X127446793Y-44297511D01*
X127436849Y-44228353D01*
X127465874Y-44164797D01*
X127501618Y-44136385D01*
X127539945Y-44116116D01*
X127543367Y-44114374D01*
X128380264Y-43704877D01*
X128449129Y-43693094D01*
X128513435Y-43720415D01*
G37*
%TD.AperFunction*%
%TA.AperFunction,Conductor*%
G36*
X148011185Y-42097632D02*
G01*
X148025891Y-42075125D01*
X148079037Y-42029768D01*
X148148268Y-42020344D01*
X148211604Y-42049846D01*
X148233508Y-42075123D01*
X148291021Y-42163153D01*
X148448216Y-42333913D01*
X148448219Y-42333915D01*
X148448222Y-42333918D01*
X148631365Y-42476464D01*
X148631371Y-42476468D01*
X148631374Y-42476470D01*
X148793682Y-42564307D01*
X148834652Y-42586479D01*
X148835497Y-42586936D01*
X148949487Y-42626068D01*
X149055015Y-42662297D01*
X149055017Y-42662297D01*
X149055019Y-42662298D01*
X149283951Y-42700500D01*
X149283952Y-42700500D01*
X149516047Y-42700500D01*
X149516049Y-42700500D01*
X149644274Y-42679102D01*
X149713635Y-42687483D01*
X149752362Y-42713730D01*
X150621586Y-43582954D01*
X150651932Y-43603229D01*
X150667106Y-43613368D01*
X150744505Y-43665084D01*
X150881087Y-43721658D01*
X150881091Y-43721658D01*
X150881092Y-43721659D01*
X151026079Y-43750500D01*
X151026082Y-43750500D01*
X151026083Y-43750500D01*
X151173917Y-43750500D01*
X157387770Y-43750500D01*
X157454809Y-43770185D01*
X157475451Y-43786819D01*
X157826451Y-44137819D01*
X157859936Y-44199142D01*
X157854952Y-44268834D01*
X157813080Y-44324767D01*
X157747616Y-44349184D01*
X157738770Y-44349500D01*
X148340808Y-44349500D01*
X148273769Y-44329815D01*
X148253127Y-44313181D01*
X146851628Y-42911681D01*
X146818143Y-42850358D01*
X146823127Y-42780666D01*
X146864999Y-42724733D01*
X146930463Y-42700316D01*
X146939309Y-42700000D01*
X146976007Y-42700000D01*
X147204860Y-42661811D01*
X147424293Y-42586479D01*
X147424301Y-42586476D01*
X147628355Y-42476047D01*
X147658797Y-42452351D01*
X147658798Y-42452351D01*
X146989409Y-41782962D01*
X147052993Y-41765925D01*
X147167007Y-41700099D01*
X147260099Y-41607007D01*
X147325925Y-41492993D01*
X147342962Y-41429409D01*
X148011185Y-42097632D01*
G37*
%TD.AperFunction*%
%TA.AperFunction,Conductor*%
G36*
X146213417Y-39794126D02*
G01*
X146280139Y-39814860D01*
X146325060Y-39868376D01*
X146333917Y-39937682D01*
X146303898Y-40000774D01*
X146270489Y-40027166D01*
X146091650Y-40123949D01*
X146061200Y-40147647D01*
X146730591Y-40817037D01*
X146667007Y-40834075D01*
X146552993Y-40899901D01*
X146459901Y-40992993D01*
X146394075Y-41107007D01*
X146377037Y-41170590D01*
X145708811Y-40502365D01*
X145694106Y-40524873D01*
X145640959Y-40570230D01*
X145571728Y-40579653D01*
X145508392Y-40550150D01*
X145486490Y-40524873D01*
X145428985Y-40436854D01*
X145428984Y-40436852D01*
X145428981Y-40436849D01*
X145428980Y-40436847D01*
X145271785Y-40266087D01*
X145271780Y-40266083D01*
X145271778Y-40266081D01*
X145088635Y-40123535D01*
X145088624Y-40123528D01*
X144922342Y-40033541D01*
X144911095Y-40027454D01*
X144861505Y-39978236D01*
X144846397Y-39910019D01*
X144870567Y-39844463D01*
X144926343Y-39802382D01*
X144968166Y-39794415D01*
X145598088Y-39784530D01*
X145601912Y-39784530D01*
X146213417Y-39794126D01*
G37*
%TD.AperFunction*%
%TA.AperFunction,Conductor*%
G36*
X148095488Y-39862810D02*
G01*
X148099344Y-39863053D01*
X148567732Y-39899877D01*
X148633021Y-39924756D01*
X148674497Y-39980983D01*
X148678989Y-40050709D01*
X148645072Y-40111794D01*
X148634175Y-40121349D01*
X148448218Y-40266085D01*
X148448216Y-40266086D01*
X148448216Y-40266087D01*
X148363955Y-40357620D01*
X148291015Y-40436854D01*
X148233509Y-40524874D01*
X148180363Y-40570230D01*
X148111132Y-40579654D01*
X148047796Y-40550152D01*
X148025892Y-40524874D01*
X148011186Y-40502365D01*
X147342962Y-41170589D01*
X147325925Y-41107007D01*
X147260099Y-40992993D01*
X147167007Y-40899901D01*
X147052993Y-40834075D01*
X146989409Y-40817037D01*
X147658797Y-40147647D01*
X147658797Y-40147645D01*
X147628360Y-40123955D01*
X147628345Y-40123945D01*
X147532873Y-40072278D01*
X147483283Y-40023059D01*
X147468175Y-39954842D01*
X147492346Y-39889287D01*
X147548122Y-39847206D01*
X147597722Y-39839361D01*
X148095488Y-39862810D01*
G37*
%TD.AperFunction*%
%TD*%
M02*
