%TF.GenerationSoftware,KiCad,Pcbnew,8.0.6*%
%TF.CreationDate,2025-03-04T23:13:55+07:00*%
%TF.ProjectId,micromouse,6d696372-6f6d-46f7-9573-652e6b696361,rev?*%
%TF.SameCoordinates,Original*%
%TF.FileFunction,Paste,Bot*%
%TF.FilePolarity,Positive*%
%FSLAX46Y46*%
G04 Gerber Fmt 4.6, Leading zero omitted, Abs format (unit mm)*
G04 Created by KiCad (PCBNEW 8.0.6) date 2025-03-04 23:13:55*
%MOMM*%
%LPD*%
G01*
G04 APERTURE LIST*
G04 Aperture macros list*
%AMRoundRect*
0 Rectangle with rounded corners*
0 $1 Rounding radius*
0 $2 $3 $4 $5 $6 $7 $8 $9 X,Y pos of 4 corners*
0 Add a 4 corners polygon primitive as box body*
4,1,4,$2,$3,$4,$5,$6,$7,$8,$9,$2,$3,0*
0 Add four circle primitives for the rounded corners*
1,1,$1+$1,$2,$3*
1,1,$1+$1,$4,$5*
1,1,$1+$1,$6,$7*
1,1,$1+$1,$8,$9*
0 Add four rect primitives between the rounded corners*
20,1,$1+$1,$2,$3,$4,$5,0*
20,1,$1+$1,$4,$5,$6,$7,0*
20,1,$1+$1,$6,$7,$8,$9,0*
20,1,$1+$1,$8,$9,$2,$3,0*%
G04 Aperture macros list end*
%ADD10RoundRect,0.250000X-0.450000X0.350000X-0.450000X-0.350000X0.450000X-0.350000X0.450000X0.350000X0*%
%ADD11RoundRect,0.250000X0.450000X-0.350000X0.450000X0.350000X-0.450000X0.350000X-0.450000X-0.350000X0*%
%ADD12RoundRect,0.250000X-0.475000X0.337500X-0.475000X-0.337500X0.475000X-0.337500X0.475000X0.337500X0*%
%ADD13RoundRect,0.125000X-0.125000X0.125000X-0.125000X-0.125000X0.125000X-0.125000X0.125000X0.125000X0*%
%ADD14RoundRect,0.381000X0.762000X0.381000X-0.762000X0.381000X-0.762000X-0.381000X0.762000X-0.381000X0*%
%ADD15RoundRect,0.381000X-0.762000X-0.381000X0.762000X-0.381000X0.762000X0.381000X-0.762000X0.381000X0*%
%ADD16RoundRect,0.250000X-0.337500X-0.475000X0.337500X-0.475000X0.337500X0.475000X-0.337500X0.475000X0*%
%ADD17RoundRect,0.250000X0.475000X-0.337500X0.475000X0.337500X-0.475000X0.337500X-0.475000X-0.337500X0*%
%ADD18R,1.500000X1.500000*%
%ADD19RoundRect,0.250000X0.350000X0.450000X-0.350000X0.450000X-0.350000X-0.450000X0.350000X-0.450000X0*%
G04 APERTURE END LIST*
D10*
%TO.C,R13*%
X163200000Y-129200000D03*
X163200000Y-131200000D03*
%TD*%
D11*
%TO.C,R6*%
X126900000Y-125200000D03*
X126900000Y-123200000D03*
%TD*%
D10*
%TO.C,R12*%
X163200000Y-125300000D03*
X163200000Y-127300000D03*
%TD*%
%TO.C,R11*%
X151250000Y-92350000D03*
X151250000Y-94350000D03*
%TD*%
D12*
%TO.C,C7*%
X134100000Y-117225000D03*
X134100000Y-119300000D03*
%TD*%
%TO.C,C16*%
X131300000Y-133762500D03*
X131300000Y-135837500D03*
%TD*%
D11*
%TO.C,R3*%
X129000000Y-135700000D03*
X129000000Y-133700000D03*
%TD*%
%TO.C,R7*%
X147450000Y-90500000D03*
X147450000Y-88500000D03*
%TD*%
%TO.C,R2*%
X129000000Y-131800000D03*
X129000000Y-129800000D03*
%TD*%
%TO.C,R10*%
X151250000Y-98150000D03*
X151250000Y-96150000D03*
%TD*%
D13*
%TO.C,D2*%
X166800000Y-88500000D03*
X166800000Y-90699998D03*
%TD*%
%TO.C,D4*%
X124000000Y-88200002D03*
X124000000Y-90400000D03*
%TD*%
D12*
%TO.C,C10*%
X163249997Y-78425000D03*
X163249997Y-80500000D03*
%TD*%
D10*
%TO.C,R8*%
X147450000Y-96100000D03*
X147450000Y-98100000D03*
%TD*%
%TO.C,R5*%
X151250000Y-88550000D03*
X151250000Y-90550000D03*
%TD*%
D14*
%TO.C,U1*%
X154550000Y-116975000D03*
X154550000Y-119515000D03*
X154550000Y-122055000D03*
X154550000Y-124595000D03*
X154550000Y-127135000D03*
X154550000Y-129675000D03*
X154550000Y-132215000D03*
X154550000Y-134755000D03*
X154550000Y-137295000D03*
D15*
X136550000Y-137295000D03*
X136550000Y-134755000D03*
X136550000Y-132215000D03*
X136550000Y-129675000D03*
X136550000Y-127135000D03*
X136550000Y-124595000D03*
X136550000Y-122055000D03*
X136550000Y-119515000D03*
X136550000Y-116975000D03*
%TD*%
D12*
%TO.C,C8*%
X165250000Y-78425000D03*
X165250000Y-80500000D03*
%TD*%
D16*
%TO.C,C17*%
X166662500Y-119800000D03*
X168737500Y-119800000D03*
%TD*%
D10*
%TO.C,R4*%
X147450000Y-92300000D03*
X147450000Y-94300000D03*
%TD*%
D17*
%TO.C,C4*%
X165300000Y-84375000D03*
X165300000Y-82300000D03*
%TD*%
%TO.C,C2*%
X163300000Y-84375000D03*
X163300000Y-82300000D03*
%TD*%
D18*
%TO.C,SW2*%
X172100000Y-126300000D03*
X172100000Y-118500002D03*
%TD*%
D19*
%TO.C,R9*%
X168700000Y-124600000D03*
X166700000Y-124600000D03*
%TD*%
M02*
