%TF.GenerationSoftware,KiCad,Pcbnew,8.0.6*%
%TF.CreationDate,2025-03-04T23:13:55+07:00*%
%TF.ProjectId,micromouse,6d696372-6f6d-46f7-9573-652e6b696361,rev?*%
%TF.SameCoordinates,Original*%
%TF.FileFunction,Legend,Top*%
%TF.FilePolarity,Positive*%
%FSLAX46Y46*%
G04 Gerber Fmt 4.6, Leading zero omitted, Abs format (unit mm)*
G04 Created by KiCad (PCBNEW 8.0.6) date 2025-03-04 23:13:55*
%MOMM*%
%LPD*%
G01*
G04 APERTURE LIST*
%ADD10C,0.100000*%
%ADD11C,0.700000*%
%ADD12C,0.150000*%
%ADD13C,0.120000*%
%ADD14C,0.127000*%
%ADD15C,0.200000*%
G04 APERTURE END LIST*
D10*
X127099371Y-95643524D02*
G75*
G02*
X130850000Y-93950000I3750629J-3306476D01*
G01*
X157500000Y-139500000D02*
X161000000Y-135500000D01*
X165000000Y-131100000D02*
G75*
G02*
X167000000Y-129100000I2000000J0D01*
G01*
X164650000Y-96970000D02*
X164650000Y-115934000D01*
X123200000Y-129100000D02*
X118200000Y-129100000D01*
X134000000Y-117500000D02*
X131000000Y-120500000D01*
X134600629Y-95643524D02*
X135100000Y-96966000D01*
X140000000Y-117500000D02*
X131000000Y-126500000D01*
X126200000Y-136100000D02*
X126200000Y-131100000D01*
X127099371Y-117252476D02*
X126600000Y-115930000D01*
X131000000Y-135500000D02*
X149000000Y-117500000D01*
X131000000Y-129500000D02*
X143000000Y-117500000D01*
X171000000Y-74600000D02*
G75*
G02*
X173000000Y-76600000I0J-2000000D01*
G01*
X173000000Y-76600000D02*
X173000000Y-136100000D01*
X165000000Y-136100000D02*
X165000000Y-131100000D01*
X126200000Y-76600000D02*
X126200000Y-81600000D01*
X160400000Y-93954000D02*
G75*
G02*
X164150629Y-95647524I0J-5000000D01*
G01*
X120200000Y-138100000D02*
G75*
G02*
X118200000Y-136100000I0J2000000D01*
G01*
X120200000Y-138100000D02*
X124200000Y-138100000D01*
X124200000Y-129100000D02*
G75*
G02*
X126200000Y-131100000I0J-2000000D01*
G01*
X142500000Y-139500000D02*
X161000000Y-120500000D01*
X156649371Y-95647524D02*
G75*
G02*
X160400000Y-93954000I3750629J-3306476D01*
G01*
X124200000Y-83600000D02*
X123200000Y-83600000D01*
X164150629Y-95647524D02*
X164650000Y-96970000D01*
X145500000Y-139500000D02*
X161000000Y-123500000D01*
X168000000Y-83600000D02*
X168000000Y-129100000D01*
X130850000Y-118946000D02*
G75*
G02*
X127099371Y-117252476I0J5000000D01*
G01*
X134600629Y-117252476D02*
X135100000Y-115930000D01*
X160400000Y-118950000D02*
G75*
G02*
X156649371Y-117256476I0J5000000D01*
G01*
X164150629Y-117256476D02*
X164650000Y-115934000D01*
X164150629Y-117256476D02*
G75*
G02*
X160400000Y-118950000I-3750629J3306476D01*
G01*
X135100000Y-115930000D02*
X135100000Y-96966000D01*
X134600629Y-117252476D02*
G75*
G02*
X130850000Y-118946000I-3750629J3306476D01*
G01*
X152000000Y-117500000D02*
X150000000Y-119500000D01*
X131000000Y-132500000D02*
X146000000Y-117500000D01*
X131000000Y-138500000D02*
X152000000Y-117500000D01*
X155000000Y-117500000D02*
X133500000Y-139500000D01*
X139500000Y-139500000D02*
X161000000Y-117500000D01*
X167000000Y-83600000D02*
X168000000Y-83600000D01*
X161000000Y-132500000D02*
X154500000Y-139500000D01*
X118200000Y-76600000D02*
X118200000Y-136100000D01*
X156649371Y-95647524D02*
X156150000Y-96970000D01*
X171000000Y-138100000D02*
X167000000Y-138100000D01*
X160500000Y-139500000D02*
X161000000Y-139000000D01*
X126600000Y-96966000D02*
X126600000Y-115930000D01*
X167000000Y-138100000D02*
G75*
G02*
X165000000Y-136100000I0J2000000D01*
G01*
X168000000Y-129100000D02*
X173000000Y-129100000D01*
X136500000Y-139500000D02*
X158000000Y-117500000D01*
X124200000Y-74600000D02*
G75*
G02*
X126200000Y-76600000I0J-2000000D01*
G01*
X131000000Y-117500000D02*
X161000000Y-117500000D01*
X161000000Y-139500000D01*
X131000000Y-139500000D01*
X131000000Y-117500000D01*
X118200000Y-76600000D02*
G75*
G02*
X120200000Y-74600000I2000000J0D01*
G01*
X151500000Y-139500000D02*
X161000000Y-129500000D01*
X131000000Y-123500000D02*
X137000000Y-117500000D01*
X126200000Y-136100000D02*
G75*
G02*
X124200000Y-138100000I-2000000J0D01*
G01*
X127099371Y-95643524D02*
X126600000Y-96966000D01*
X167000000Y-83600000D02*
G75*
G02*
X165000000Y-81600000I0J2000000D01*
G01*
X120200000Y-74600000D02*
X124200000Y-74600000D01*
X156150000Y-96970000D02*
X156150000Y-115934000D01*
X171000000Y-74600000D02*
X167000000Y-74600000D01*
X117050000Y-100450000D02*
X142050000Y-100450000D01*
X142050000Y-112450000D01*
X117050000Y-112450000D01*
X117050000Y-100450000D01*
X123200000Y-83600000D02*
X123200000Y-129100000D01*
X173000000Y-136100000D02*
G75*
G02*
X171000000Y-138100000I-2000000J0D01*
G01*
X167000000Y-129100000D02*
X168000000Y-129100000D01*
X161000000Y-126500000D02*
X148500000Y-139500000D01*
X156649371Y-117256476D02*
X156150000Y-115934000D01*
X124200000Y-129100000D02*
X123200000Y-129100000D01*
X130850000Y-93950000D02*
G75*
G02*
X134600629Y-95643524I0J-5000000D01*
G01*
X149200000Y-100450000D02*
X174200000Y-100450000D01*
X174200000Y-112450000D01*
X149200000Y-112450000D01*
X149200000Y-100450000D01*
X143000000Y-117500000D02*
X141500000Y-119000000D01*
X165000000Y-76600000D02*
G75*
G02*
X167000000Y-74600000I2000000J0D01*
G01*
X126200000Y-81600000D02*
G75*
G02*
X124200000Y-83600000I-2000000J0D01*
G01*
X165000000Y-76600000D02*
X165000000Y-81600000D01*
D11*
X136250000Y-128218838D02*
X136821428Y-128409314D01*
X136821428Y-128409314D02*
X137011905Y-128599790D01*
X137011905Y-128599790D02*
X137202381Y-128980742D01*
X137202381Y-128980742D02*
X137202381Y-129552171D01*
X137202381Y-129552171D02*
X137011905Y-129933123D01*
X137011905Y-129933123D02*
X136821428Y-130123600D01*
X136821428Y-130123600D02*
X136440476Y-130314076D01*
X136440476Y-130314076D02*
X134916666Y-130314076D01*
X134916666Y-130314076D02*
X134916666Y-126314076D01*
X134916666Y-126314076D02*
X136250000Y-126314076D01*
X136250000Y-126314076D02*
X136630952Y-126504552D01*
X136630952Y-126504552D02*
X136821428Y-126695028D01*
X136821428Y-126695028D02*
X137011905Y-127075980D01*
X137011905Y-127075980D02*
X137011905Y-127456933D01*
X137011905Y-127456933D02*
X136821428Y-127837885D01*
X136821428Y-127837885D02*
X136630952Y-128028361D01*
X136630952Y-128028361D02*
X136250000Y-128218838D01*
X136250000Y-128218838D02*
X134916666Y-128218838D01*
X138726190Y-129171219D02*
X140630952Y-129171219D01*
X138345238Y-130314076D02*
X139678571Y-126314076D01*
X139678571Y-126314076D02*
X141011905Y-130314076D01*
X141773809Y-126314076D02*
X144059523Y-126314076D01*
X142916666Y-130314076D02*
X142916666Y-126314076D01*
X144821428Y-126314076D02*
X147107142Y-126314076D01*
X145964285Y-130314076D02*
X145964285Y-126314076D01*
X148440475Y-128218838D02*
X149773809Y-128218838D01*
X150345237Y-130314076D02*
X148440475Y-130314076D01*
X148440475Y-130314076D02*
X148440475Y-126314076D01*
X148440475Y-126314076D02*
X150345237Y-126314076D01*
X154345238Y-130314076D02*
X153011904Y-128409314D01*
X152059523Y-130314076D02*
X152059523Y-126314076D01*
X152059523Y-126314076D02*
X153583333Y-126314076D01*
X153583333Y-126314076D02*
X153964285Y-126504552D01*
X153964285Y-126504552D02*
X154154762Y-126695028D01*
X154154762Y-126695028D02*
X154345238Y-127075980D01*
X154345238Y-127075980D02*
X154345238Y-127647409D01*
X154345238Y-127647409D02*
X154154762Y-128028361D01*
X154154762Y-128028361D02*
X153964285Y-128218838D01*
X153964285Y-128218838D02*
X153583333Y-128409314D01*
X153583333Y-128409314D02*
X152059523Y-128409314D01*
X156821428Y-128409314D02*
X156821428Y-130314076D01*
X155488095Y-126314076D02*
X156821428Y-128409314D01*
X156821428Y-128409314D02*
X158154762Y-126314076D01*
D12*
X142339579Y-77291666D02*
X142387199Y-77339285D01*
X142387199Y-77339285D02*
X142434818Y-77482142D01*
X142434818Y-77482142D02*
X142434818Y-77577380D01*
X142434818Y-77577380D02*
X142387199Y-77720237D01*
X142387199Y-77720237D02*
X142291960Y-77815475D01*
X142291960Y-77815475D02*
X142196722Y-77863094D01*
X142196722Y-77863094D02*
X142006246Y-77910713D01*
X142006246Y-77910713D02*
X141863389Y-77910713D01*
X141863389Y-77910713D02*
X141672913Y-77863094D01*
X141672913Y-77863094D02*
X141577675Y-77815475D01*
X141577675Y-77815475D02*
X141482437Y-77720237D01*
X141482437Y-77720237D02*
X141434818Y-77577380D01*
X141434818Y-77577380D02*
X141434818Y-77482142D01*
X141434818Y-77482142D02*
X141482437Y-77339285D01*
X141482437Y-77339285D02*
X141530056Y-77291666D01*
X141434818Y-76958332D02*
X141434818Y-76339285D01*
X141434818Y-76339285D02*
X141815770Y-76672618D01*
X141815770Y-76672618D02*
X141815770Y-76529761D01*
X141815770Y-76529761D02*
X141863389Y-76434523D01*
X141863389Y-76434523D02*
X141911008Y-76386904D01*
X141911008Y-76386904D02*
X142006246Y-76339285D01*
X142006246Y-76339285D02*
X142244341Y-76339285D01*
X142244341Y-76339285D02*
X142339579Y-76386904D01*
X142339579Y-76386904D02*
X142387199Y-76434523D01*
X142387199Y-76434523D02*
X142434818Y-76529761D01*
X142434818Y-76529761D02*
X142434818Y-76815475D01*
X142434818Y-76815475D02*
X142387199Y-76910713D01*
X142387199Y-76910713D02*
X142339579Y-76958332D01*
X147259580Y-83542857D02*
X147307200Y-83590476D01*
X147307200Y-83590476D02*
X147354819Y-83733333D01*
X147354819Y-83733333D02*
X147354819Y-83828571D01*
X147354819Y-83828571D02*
X147307200Y-83971428D01*
X147307200Y-83971428D02*
X147211961Y-84066666D01*
X147211961Y-84066666D02*
X147116723Y-84114285D01*
X147116723Y-84114285D02*
X146926247Y-84161904D01*
X146926247Y-84161904D02*
X146783390Y-84161904D01*
X146783390Y-84161904D02*
X146592914Y-84114285D01*
X146592914Y-84114285D02*
X146497676Y-84066666D01*
X146497676Y-84066666D02*
X146402438Y-83971428D01*
X146402438Y-83971428D02*
X146354819Y-83828571D01*
X146354819Y-83828571D02*
X146354819Y-83733333D01*
X146354819Y-83733333D02*
X146402438Y-83590476D01*
X146402438Y-83590476D02*
X146450057Y-83542857D01*
X147354819Y-82590476D02*
X147354819Y-83161904D01*
X147354819Y-82876190D02*
X146354819Y-82876190D01*
X146354819Y-82876190D02*
X146497676Y-82971428D01*
X146497676Y-82971428D02*
X146592914Y-83066666D01*
X146592914Y-83066666D02*
X146640533Y-83161904D01*
X146354819Y-82257142D02*
X146354819Y-81638095D01*
X146354819Y-81638095D02*
X146735771Y-81971428D01*
X146735771Y-81971428D02*
X146735771Y-81828571D01*
X146735771Y-81828571D02*
X146783390Y-81733333D01*
X146783390Y-81733333D02*
X146831009Y-81685714D01*
X146831009Y-81685714D02*
X146926247Y-81638095D01*
X146926247Y-81638095D02*
X147164342Y-81638095D01*
X147164342Y-81638095D02*
X147259580Y-81685714D01*
X147259580Y-81685714D02*
X147307200Y-81733333D01*
X147307200Y-81733333D02*
X147354819Y-81828571D01*
X147354819Y-81828571D02*
X147354819Y-82114285D01*
X147354819Y-82114285D02*
X147307200Y-82209523D01*
X147307200Y-82209523D02*
X147259580Y-82257142D01*
X136859580Y-77291666D02*
X136907200Y-77339285D01*
X136907200Y-77339285D02*
X136954819Y-77482142D01*
X136954819Y-77482142D02*
X136954819Y-77577380D01*
X136954819Y-77577380D02*
X136907200Y-77720237D01*
X136907200Y-77720237D02*
X136811961Y-77815475D01*
X136811961Y-77815475D02*
X136716723Y-77863094D01*
X136716723Y-77863094D02*
X136526247Y-77910713D01*
X136526247Y-77910713D02*
X136383390Y-77910713D01*
X136383390Y-77910713D02*
X136192914Y-77863094D01*
X136192914Y-77863094D02*
X136097676Y-77815475D01*
X136097676Y-77815475D02*
X136002438Y-77720237D01*
X136002438Y-77720237D02*
X135954819Y-77577380D01*
X135954819Y-77577380D02*
X135954819Y-77482142D01*
X135954819Y-77482142D02*
X136002438Y-77339285D01*
X136002438Y-77339285D02*
X136050057Y-77291666D01*
X136954819Y-76339285D02*
X136954819Y-76910713D01*
X136954819Y-76624999D02*
X135954819Y-76624999D01*
X135954819Y-76624999D02*
X136097676Y-76720237D01*
X136097676Y-76720237D02*
X136192914Y-76815475D01*
X136192914Y-76815475D02*
X136240533Y-76910713D01*
X136859580Y-80916666D02*
X136907200Y-80964285D01*
X136907200Y-80964285D02*
X136954819Y-81107142D01*
X136954819Y-81107142D02*
X136954819Y-81202380D01*
X136954819Y-81202380D02*
X136907200Y-81345237D01*
X136907200Y-81345237D02*
X136811961Y-81440475D01*
X136811961Y-81440475D02*
X136716723Y-81488094D01*
X136716723Y-81488094D02*
X136526247Y-81535713D01*
X136526247Y-81535713D02*
X136383390Y-81535713D01*
X136383390Y-81535713D02*
X136192914Y-81488094D01*
X136192914Y-81488094D02*
X136097676Y-81440475D01*
X136097676Y-81440475D02*
X136002438Y-81345237D01*
X136002438Y-81345237D02*
X135954819Y-81202380D01*
X135954819Y-81202380D02*
X135954819Y-81107142D01*
X135954819Y-81107142D02*
X136002438Y-80964285D01*
X136002438Y-80964285D02*
X136050057Y-80916666D01*
X136954819Y-80440475D02*
X136954819Y-80249999D01*
X136954819Y-80249999D02*
X136907200Y-80154761D01*
X136907200Y-80154761D02*
X136859580Y-80107142D01*
X136859580Y-80107142D02*
X136716723Y-80011904D01*
X136716723Y-80011904D02*
X136526247Y-79964285D01*
X136526247Y-79964285D02*
X136145295Y-79964285D01*
X136145295Y-79964285D02*
X136050057Y-80011904D01*
X136050057Y-80011904D02*
X136002438Y-80059523D01*
X136002438Y-80059523D02*
X135954819Y-80154761D01*
X135954819Y-80154761D02*
X135954819Y-80345237D01*
X135954819Y-80345237D02*
X136002438Y-80440475D01*
X136002438Y-80440475D02*
X136050057Y-80488094D01*
X136050057Y-80488094D02*
X136145295Y-80535713D01*
X136145295Y-80535713D02*
X136383390Y-80535713D01*
X136383390Y-80535713D02*
X136478628Y-80488094D01*
X136478628Y-80488094D02*
X136526247Y-80440475D01*
X136526247Y-80440475D02*
X136573866Y-80345237D01*
X136573866Y-80345237D02*
X136573866Y-80154761D01*
X136573866Y-80154761D02*
X136526247Y-80059523D01*
X136526247Y-80059523D02*
X136478628Y-80011904D01*
X136478628Y-80011904D02*
X136383390Y-79964285D01*
D10*
X165742580Y-88770475D02*
X166742580Y-88770475D01*
X166742580Y-88770475D02*
X166028295Y-89103808D01*
X166028295Y-89103808D02*
X166742580Y-89437141D01*
X166742580Y-89437141D02*
X165742580Y-89437141D01*
X165742580Y-90437141D02*
X165742580Y-89865713D01*
X165742580Y-90151427D02*
X166742580Y-90151427D01*
X166742580Y-90151427D02*
X166599723Y-90056189D01*
X166599723Y-90056189D02*
X166504485Y-89960951D01*
X166504485Y-89960951D02*
X166456866Y-89865713D01*
X152561905Y-70757419D02*
X152561905Y-71566942D01*
X152561905Y-71566942D02*
X152609524Y-71662180D01*
X152609524Y-71662180D02*
X152657143Y-71709800D01*
X152657143Y-71709800D02*
X152752381Y-71757419D01*
X152752381Y-71757419D02*
X152942857Y-71757419D01*
X152942857Y-71757419D02*
X153038095Y-71709800D01*
X153038095Y-71709800D02*
X153085714Y-71662180D01*
X153085714Y-71662180D02*
X153133333Y-71566942D01*
X153133333Y-71566942D02*
X153133333Y-70757419D01*
X154133333Y-71757419D02*
X153561905Y-71757419D01*
X153847619Y-71757419D02*
X153847619Y-70757419D01*
X153847619Y-70757419D02*
X153752381Y-70900276D01*
X153752381Y-70900276D02*
X153657143Y-70995514D01*
X153657143Y-70995514D02*
X153561905Y-71043133D01*
X154752381Y-70757419D02*
X154847619Y-70757419D01*
X154847619Y-70757419D02*
X154942857Y-70805038D01*
X154942857Y-70805038D02*
X154990476Y-70852657D01*
X154990476Y-70852657D02*
X155038095Y-70947895D01*
X155038095Y-70947895D02*
X155085714Y-71138371D01*
X155085714Y-71138371D02*
X155085714Y-71376466D01*
X155085714Y-71376466D02*
X155038095Y-71566942D01*
X155038095Y-71566942D02*
X154990476Y-71662180D01*
X154990476Y-71662180D02*
X154942857Y-71709800D01*
X154942857Y-71709800D02*
X154847619Y-71757419D01*
X154847619Y-71757419D02*
X154752381Y-71757419D01*
X154752381Y-71757419D02*
X154657143Y-71709800D01*
X154657143Y-71709800D02*
X154609524Y-71662180D01*
X154609524Y-71662180D02*
X154561905Y-71566942D01*
X154561905Y-71566942D02*
X154514286Y-71376466D01*
X154514286Y-71376466D02*
X154514286Y-71138371D01*
X154514286Y-71138371D02*
X154561905Y-70947895D01*
X154561905Y-70947895D02*
X154609524Y-70852657D01*
X154609524Y-70852657D02*
X154657143Y-70805038D01*
X154657143Y-70805038D02*
X154752381Y-70757419D01*
D12*
X134157200Y-77933332D02*
X134204819Y-77790475D01*
X134204819Y-77790475D02*
X134204819Y-77552380D01*
X134204819Y-77552380D02*
X134157200Y-77457142D01*
X134157200Y-77457142D02*
X134109580Y-77409523D01*
X134109580Y-77409523D02*
X134014342Y-77361904D01*
X134014342Y-77361904D02*
X133919104Y-77361904D01*
X133919104Y-77361904D02*
X133823866Y-77409523D01*
X133823866Y-77409523D02*
X133776247Y-77457142D01*
X133776247Y-77457142D02*
X133728628Y-77552380D01*
X133728628Y-77552380D02*
X133681009Y-77742856D01*
X133681009Y-77742856D02*
X133633390Y-77838094D01*
X133633390Y-77838094D02*
X133585771Y-77885713D01*
X133585771Y-77885713D02*
X133490533Y-77933332D01*
X133490533Y-77933332D02*
X133395295Y-77933332D01*
X133395295Y-77933332D02*
X133300057Y-77885713D01*
X133300057Y-77885713D02*
X133252438Y-77838094D01*
X133252438Y-77838094D02*
X133204819Y-77742856D01*
X133204819Y-77742856D02*
X133204819Y-77504761D01*
X133204819Y-77504761D02*
X133252438Y-77361904D01*
X133204819Y-77028570D02*
X134204819Y-76790475D01*
X134204819Y-76790475D02*
X133490533Y-76599999D01*
X133490533Y-76599999D02*
X134204819Y-76409523D01*
X134204819Y-76409523D02*
X133204819Y-76171428D01*
X134204819Y-75266666D02*
X134204819Y-75838094D01*
X134204819Y-75552380D02*
X133204819Y-75552380D01*
X133204819Y-75552380D02*
X133347676Y-75647618D01*
X133347676Y-75647618D02*
X133442914Y-75742856D01*
X133442914Y-75742856D02*
X133490533Y-75838094D01*
X156738095Y-75454819D02*
X156738095Y-76264342D01*
X156738095Y-76264342D02*
X156785714Y-76359580D01*
X156785714Y-76359580D02*
X156833333Y-76407200D01*
X156833333Y-76407200D02*
X156928571Y-76454819D01*
X156928571Y-76454819D02*
X157119047Y-76454819D01*
X157119047Y-76454819D02*
X157214285Y-76407200D01*
X157214285Y-76407200D02*
X157261904Y-76359580D01*
X157261904Y-76359580D02*
X157309523Y-76264342D01*
X157309523Y-76264342D02*
X157309523Y-75454819D01*
X157738095Y-75550057D02*
X157785714Y-75502438D01*
X157785714Y-75502438D02*
X157880952Y-75454819D01*
X157880952Y-75454819D02*
X158119047Y-75454819D01*
X158119047Y-75454819D02*
X158214285Y-75502438D01*
X158214285Y-75502438D02*
X158261904Y-75550057D01*
X158261904Y-75550057D02*
X158309523Y-75645295D01*
X158309523Y-75645295D02*
X158309523Y-75740533D01*
X158309523Y-75740533D02*
X158261904Y-75883390D01*
X158261904Y-75883390D02*
X157690476Y-76454819D01*
X157690476Y-76454819D02*
X158309523Y-76454819D01*
X148688095Y-89504819D02*
X148688095Y-90314342D01*
X148688095Y-90314342D02*
X148735714Y-90409580D01*
X148735714Y-90409580D02*
X148783333Y-90457200D01*
X148783333Y-90457200D02*
X148878571Y-90504819D01*
X148878571Y-90504819D02*
X149069047Y-90504819D01*
X149069047Y-90504819D02*
X149164285Y-90457200D01*
X149164285Y-90457200D02*
X149211904Y-90409580D01*
X149211904Y-90409580D02*
X149259523Y-90314342D01*
X149259523Y-90314342D02*
X149259523Y-89504819D01*
X150164285Y-89838152D02*
X150164285Y-90504819D01*
X149926190Y-89457200D02*
X149688095Y-90171485D01*
X149688095Y-90171485D02*
X150307142Y-90171485D01*
X164607142Y-71859580D02*
X164559523Y-71907200D01*
X164559523Y-71907200D02*
X164416666Y-71954819D01*
X164416666Y-71954819D02*
X164321428Y-71954819D01*
X164321428Y-71954819D02*
X164178571Y-71907200D01*
X164178571Y-71907200D02*
X164083333Y-71811961D01*
X164083333Y-71811961D02*
X164035714Y-71716723D01*
X164035714Y-71716723D02*
X163988095Y-71526247D01*
X163988095Y-71526247D02*
X163988095Y-71383390D01*
X163988095Y-71383390D02*
X164035714Y-71192914D01*
X164035714Y-71192914D02*
X164083333Y-71097676D01*
X164083333Y-71097676D02*
X164178571Y-71002438D01*
X164178571Y-71002438D02*
X164321428Y-70954819D01*
X164321428Y-70954819D02*
X164416666Y-70954819D01*
X164416666Y-70954819D02*
X164559523Y-71002438D01*
X164559523Y-71002438D02*
X164607142Y-71050057D01*
X165559523Y-71954819D02*
X164988095Y-71954819D01*
X165273809Y-71954819D02*
X165273809Y-70954819D01*
X165273809Y-70954819D02*
X165178571Y-71097676D01*
X165178571Y-71097676D02*
X165083333Y-71192914D01*
X165083333Y-71192914D02*
X164988095Y-71240533D01*
X165940476Y-71050057D02*
X165988095Y-71002438D01*
X165988095Y-71002438D02*
X166083333Y-70954819D01*
X166083333Y-70954819D02*
X166321428Y-70954819D01*
X166321428Y-70954819D02*
X166416666Y-71002438D01*
X166416666Y-71002438D02*
X166464285Y-71050057D01*
X166464285Y-71050057D02*
X166511904Y-71145295D01*
X166511904Y-71145295D02*
X166511904Y-71240533D01*
X166511904Y-71240533D02*
X166464285Y-71383390D01*
X166464285Y-71383390D02*
X165892857Y-71954819D01*
X165892857Y-71954819D02*
X166511904Y-71954819D01*
X134357142Y-94109580D02*
X134309523Y-94157200D01*
X134309523Y-94157200D02*
X134166666Y-94204819D01*
X134166666Y-94204819D02*
X134071428Y-94204819D01*
X134071428Y-94204819D02*
X133928571Y-94157200D01*
X133928571Y-94157200D02*
X133833333Y-94061961D01*
X133833333Y-94061961D02*
X133785714Y-93966723D01*
X133785714Y-93966723D02*
X133738095Y-93776247D01*
X133738095Y-93776247D02*
X133738095Y-93633390D01*
X133738095Y-93633390D02*
X133785714Y-93442914D01*
X133785714Y-93442914D02*
X133833333Y-93347676D01*
X133833333Y-93347676D02*
X133928571Y-93252438D01*
X133928571Y-93252438D02*
X134071428Y-93204819D01*
X134071428Y-93204819D02*
X134166666Y-93204819D01*
X134166666Y-93204819D02*
X134309523Y-93252438D01*
X134309523Y-93252438D02*
X134357142Y-93300057D01*
X135309523Y-94204819D02*
X134738095Y-94204819D01*
X135023809Y-94204819D02*
X135023809Y-93204819D01*
X135023809Y-93204819D02*
X134928571Y-93347676D01*
X134928571Y-93347676D02*
X134833333Y-93442914D01*
X134833333Y-93442914D02*
X134738095Y-93490533D01*
X136214285Y-93204819D02*
X135738095Y-93204819D01*
X135738095Y-93204819D02*
X135690476Y-93681009D01*
X135690476Y-93681009D02*
X135738095Y-93633390D01*
X135738095Y-93633390D02*
X135833333Y-93585771D01*
X135833333Y-93585771D02*
X136071428Y-93585771D01*
X136071428Y-93585771D02*
X136166666Y-93633390D01*
X136166666Y-93633390D02*
X136214285Y-93681009D01*
X136214285Y-93681009D02*
X136261904Y-93776247D01*
X136261904Y-93776247D02*
X136261904Y-94014342D01*
X136261904Y-94014342D02*
X136214285Y-94109580D01*
X136214285Y-94109580D02*
X136166666Y-94157200D01*
X136166666Y-94157200D02*
X136071428Y-94204819D01*
X136071428Y-94204819D02*
X135833333Y-94204819D01*
X135833333Y-94204819D02*
X135738095Y-94157200D01*
X135738095Y-94157200D02*
X135690476Y-94109580D01*
D10*
X170850841Y-48861461D02*
X170149773Y-48456699D01*
X170149773Y-48456699D02*
X170043484Y-48450319D01*
X170043484Y-48450319D02*
X169978436Y-48467749D01*
X169978436Y-48467749D02*
X169889577Y-48526418D01*
X169889577Y-48526418D02*
X169794339Y-48691376D01*
X169794339Y-48691376D02*
X169787959Y-48797664D01*
X169787959Y-48797664D02*
X169805389Y-48862712D01*
X169805389Y-48862712D02*
X169864058Y-48951571D01*
X169864058Y-48951571D02*
X170565126Y-49356333D01*
X170112746Y-50139880D02*
X170207984Y-49974922D01*
X170207984Y-49974922D02*
X170214363Y-49868634D01*
X170214363Y-49868634D02*
X170196934Y-49803585D01*
X170196934Y-49803585D02*
X170120835Y-49649678D01*
X170120835Y-49649678D02*
X169979687Y-49513201D01*
X169979687Y-49513201D02*
X169649773Y-49322725D01*
X169649773Y-49322725D02*
X169543484Y-49316345D01*
X169543484Y-49316345D02*
X169478436Y-49333775D01*
X169478436Y-49333775D02*
X169389577Y-49392444D01*
X169389577Y-49392444D02*
X169294339Y-49557401D01*
X169294339Y-49557401D02*
X169287959Y-49663689D01*
X169287959Y-49663689D02*
X169305389Y-49728738D01*
X169305389Y-49728738D02*
X169364058Y-49817596D01*
X169364058Y-49817596D02*
X169570255Y-49936644D01*
X169570255Y-49936644D02*
X169676543Y-49943024D01*
X169676543Y-49943024D02*
X169741592Y-49925594D01*
X169741592Y-49925594D02*
X169830450Y-49866925D01*
X169830450Y-49866925D02*
X169925688Y-49701967D01*
X169925688Y-49701967D02*
X169932068Y-49595679D01*
X169932068Y-49595679D02*
X169914638Y-49530631D01*
X169914638Y-49530631D02*
X169855969Y-49441772D01*
D12*
X147759580Y-77666666D02*
X147807200Y-77714285D01*
X147807200Y-77714285D02*
X147854819Y-77857142D01*
X147854819Y-77857142D02*
X147854819Y-77952380D01*
X147854819Y-77952380D02*
X147807200Y-78095237D01*
X147807200Y-78095237D02*
X147711961Y-78190475D01*
X147711961Y-78190475D02*
X147616723Y-78238094D01*
X147616723Y-78238094D02*
X147426247Y-78285713D01*
X147426247Y-78285713D02*
X147283390Y-78285713D01*
X147283390Y-78285713D02*
X147092914Y-78238094D01*
X147092914Y-78238094D02*
X146997676Y-78190475D01*
X146997676Y-78190475D02*
X146902438Y-78095237D01*
X146902438Y-78095237D02*
X146854819Y-77952380D01*
X146854819Y-77952380D02*
X146854819Y-77857142D01*
X146854819Y-77857142D02*
X146902438Y-77714285D01*
X146902438Y-77714285D02*
X146950057Y-77666666D01*
X146854819Y-76761904D02*
X146854819Y-77238094D01*
X146854819Y-77238094D02*
X147331009Y-77285713D01*
X147331009Y-77285713D02*
X147283390Y-77238094D01*
X147283390Y-77238094D02*
X147235771Y-77142856D01*
X147235771Y-77142856D02*
X147235771Y-76904761D01*
X147235771Y-76904761D02*
X147283390Y-76809523D01*
X147283390Y-76809523D02*
X147331009Y-76761904D01*
X147331009Y-76761904D02*
X147426247Y-76714285D01*
X147426247Y-76714285D02*
X147664342Y-76714285D01*
X147664342Y-76714285D02*
X147759580Y-76761904D01*
X147759580Y-76761904D02*
X147807200Y-76809523D01*
X147807200Y-76809523D02*
X147854819Y-76904761D01*
X147854819Y-76904761D02*
X147854819Y-77142856D01*
X147854819Y-77142856D02*
X147807200Y-77238094D01*
X147807200Y-77238094D02*
X147759580Y-77285713D01*
X128204819Y-74238094D02*
X127204819Y-74238094D01*
X127204819Y-74238094D02*
X127204819Y-73999999D01*
X127204819Y-73999999D02*
X127252438Y-73857142D01*
X127252438Y-73857142D02*
X127347676Y-73761904D01*
X127347676Y-73761904D02*
X127442914Y-73714285D01*
X127442914Y-73714285D02*
X127633390Y-73666666D01*
X127633390Y-73666666D02*
X127776247Y-73666666D01*
X127776247Y-73666666D02*
X127966723Y-73714285D01*
X127966723Y-73714285D02*
X128061961Y-73761904D01*
X128061961Y-73761904D02*
X128157200Y-73857142D01*
X128157200Y-73857142D02*
X128204819Y-73999999D01*
X128204819Y-73999999D02*
X128204819Y-74238094D01*
X128204819Y-72714285D02*
X128204819Y-73285713D01*
X128204819Y-72999999D02*
X127204819Y-72999999D01*
X127204819Y-72999999D02*
X127347676Y-73095237D01*
X127347676Y-73095237D02*
X127442914Y-73190475D01*
X127442914Y-73190475D02*
X127490533Y-73285713D01*
X142359580Y-81392857D02*
X142407200Y-81440476D01*
X142407200Y-81440476D02*
X142454819Y-81583333D01*
X142454819Y-81583333D02*
X142454819Y-81678571D01*
X142454819Y-81678571D02*
X142407200Y-81821428D01*
X142407200Y-81821428D02*
X142311961Y-81916666D01*
X142311961Y-81916666D02*
X142216723Y-81964285D01*
X142216723Y-81964285D02*
X142026247Y-82011904D01*
X142026247Y-82011904D02*
X141883390Y-82011904D01*
X141883390Y-82011904D02*
X141692914Y-81964285D01*
X141692914Y-81964285D02*
X141597676Y-81916666D01*
X141597676Y-81916666D02*
X141502438Y-81821428D01*
X141502438Y-81821428D02*
X141454819Y-81678571D01*
X141454819Y-81678571D02*
X141454819Y-81583333D01*
X141454819Y-81583333D02*
X141502438Y-81440476D01*
X141502438Y-81440476D02*
X141550057Y-81392857D01*
X142454819Y-80440476D02*
X142454819Y-81011904D01*
X142454819Y-80726190D02*
X141454819Y-80726190D01*
X141454819Y-80726190D02*
X141597676Y-80821428D01*
X141597676Y-80821428D02*
X141692914Y-80916666D01*
X141692914Y-80916666D02*
X141740533Y-81011904D01*
X142454819Y-79488095D02*
X142454819Y-80059523D01*
X142454819Y-79773809D02*
X141454819Y-79773809D01*
X141454819Y-79773809D02*
X141597676Y-79869047D01*
X141597676Y-79869047D02*
X141692914Y-79964285D01*
X141692914Y-79964285D02*
X141740533Y-80059523D01*
D10*
X138514285Y-92743607D02*
X138657142Y-92791226D01*
X138657142Y-92791226D02*
X138704761Y-92838845D01*
X138704761Y-92838845D02*
X138752380Y-92934083D01*
X138752380Y-92934083D02*
X138752380Y-93076940D01*
X138752380Y-93076940D02*
X138704761Y-93172178D01*
X138704761Y-93172178D02*
X138657142Y-93219798D01*
X138657142Y-93219798D02*
X138561904Y-93267417D01*
X138561904Y-93267417D02*
X138180952Y-93267417D01*
X138180952Y-93267417D02*
X138180952Y-92267417D01*
X138180952Y-92267417D02*
X138514285Y-92267417D01*
X138514285Y-92267417D02*
X138609523Y-92315036D01*
X138609523Y-92315036D02*
X138657142Y-92362655D01*
X138657142Y-92362655D02*
X138704761Y-92457893D01*
X138704761Y-92457893D02*
X138704761Y-92553131D01*
X138704761Y-92553131D02*
X138657142Y-92648369D01*
X138657142Y-92648369D02*
X138609523Y-92695988D01*
X138609523Y-92695988D02*
X138514285Y-92743607D01*
X138514285Y-92743607D02*
X138180952Y-92743607D01*
X139038095Y-92267417D02*
X139609523Y-92267417D01*
X139323809Y-93267417D02*
X139323809Y-92267417D01*
X140466666Y-93267417D02*
X139895238Y-93267417D01*
X140180952Y-93267417D02*
X140180952Y-92267417D01*
X140180952Y-92267417D02*
X140085714Y-92410274D01*
X140085714Y-92410274D02*
X139990476Y-92505512D01*
X139990476Y-92505512D02*
X139895238Y-92553131D01*
X106516461Y-68720368D02*
X106111699Y-69421436D01*
X106111699Y-69421436D02*
X106105319Y-69527725D01*
X106105319Y-69527725D02*
X106122749Y-69592773D01*
X106122749Y-69592773D02*
X106181418Y-69681632D01*
X106181418Y-69681632D02*
X106346376Y-69776870D01*
X106346376Y-69776870D02*
X106452664Y-69783250D01*
X106452664Y-69783250D02*
X106517712Y-69765820D01*
X106517712Y-69765820D02*
X106606571Y-69707151D01*
X106606571Y-69707151D02*
X107011333Y-69006083D01*
X107341247Y-69196559D02*
X107918597Y-69529892D01*
X107918597Y-69529892D02*
X107047444Y-70181632D01*
X120838936Y-48568880D02*
X120137868Y-48973642D01*
X120137868Y-48973642D02*
X120079199Y-49062500D01*
X120079199Y-49062500D02*
X120061769Y-49127549D01*
X120061769Y-49127549D02*
X120068149Y-49233837D01*
X120068149Y-49233837D02*
X120163387Y-49398795D01*
X120163387Y-49398795D02*
X120252245Y-49457464D01*
X120252245Y-49457464D02*
X120317294Y-49474893D01*
X120317294Y-49474893D02*
X120423582Y-49468514D01*
X120423582Y-49468514D02*
X121124650Y-49063752D01*
X120520530Y-50017384D02*
X120615768Y-50182341D01*
X120615768Y-50182341D02*
X120704626Y-50241010D01*
X120704626Y-50241010D02*
X120769675Y-50258440D01*
X120769675Y-50258440D02*
X120941012Y-50269490D01*
X120941012Y-50269490D02*
X121129779Y-50215491D01*
X121129779Y-50215491D02*
X121459693Y-50025015D01*
X121459693Y-50025015D02*
X121518362Y-49936157D01*
X121518362Y-49936157D02*
X121535792Y-49871108D01*
X121535792Y-49871108D02*
X121529412Y-49764820D01*
X121529412Y-49764820D02*
X121434174Y-49599863D01*
X121434174Y-49599863D02*
X121345316Y-49541194D01*
X121345316Y-49541194D02*
X121280267Y-49523764D01*
X121280267Y-49523764D02*
X121173979Y-49530144D01*
X121173979Y-49530144D02*
X120967782Y-49649191D01*
X120967782Y-49649191D02*
X120909113Y-49738050D01*
X120909113Y-49738050D02*
X120891683Y-49803098D01*
X120891683Y-49803098D02*
X120898063Y-49909387D01*
X120898063Y-49909387D02*
X120993301Y-50074344D01*
X120993301Y-50074344D02*
X121082160Y-50133013D01*
X121082160Y-50133013D02*
X121147208Y-50150443D01*
X121147208Y-50150443D02*
X121253497Y-50144063D01*
D12*
X134704819Y-88211903D02*
X135514342Y-88211903D01*
X135514342Y-88211903D02*
X135609580Y-88164284D01*
X135609580Y-88164284D02*
X135657200Y-88116665D01*
X135657200Y-88116665D02*
X135704819Y-88021427D01*
X135704819Y-88021427D02*
X135704819Y-87830951D01*
X135704819Y-87830951D02*
X135657200Y-87735713D01*
X135657200Y-87735713D02*
X135609580Y-87688094D01*
X135609580Y-87688094D02*
X135514342Y-87640475D01*
X135514342Y-87640475D02*
X134704819Y-87640475D01*
X134704819Y-87259522D02*
X134704819Y-86640475D01*
X134704819Y-86640475D02*
X135085771Y-86973808D01*
X135085771Y-86973808D02*
X135085771Y-86830951D01*
X135085771Y-86830951D02*
X135133390Y-86735713D01*
X135133390Y-86735713D02*
X135181009Y-86688094D01*
X135181009Y-86688094D02*
X135276247Y-86640475D01*
X135276247Y-86640475D02*
X135514342Y-86640475D01*
X135514342Y-86640475D02*
X135609580Y-86688094D01*
X135609580Y-86688094D02*
X135657200Y-86735713D01*
X135657200Y-86735713D02*
X135704819Y-86830951D01*
X135704819Y-86830951D02*
X135704819Y-87116665D01*
X135704819Y-87116665D02*
X135657200Y-87211903D01*
X135657200Y-87211903D02*
X135609580Y-87259522D01*
D10*
X182931119Y-65838936D02*
X182526357Y-65137868D01*
X182526357Y-65137868D02*
X182437499Y-65079199D01*
X182437499Y-65079199D02*
X182372450Y-65061769D01*
X182372450Y-65061769D02*
X182266162Y-65068149D01*
X182266162Y-65068149D02*
X182101204Y-65163387D01*
X182101204Y-65163387D02*
X182042535Y-65252245D01*
X182042535Y-65252245D02*
X182025106Y-65317294D01*
X182025106Y-65317294D02*
X182031485Y-65423582D01*
X182031485Y-65423582D02*
X182436247Y-66124650D01*
X181611461Y-66600841D02*
X182023854Y-66362746D01*
X182023854Y-66362746D02*
X181826998Y-65926543D01*
X181826998Y-65926543D02*
X181809568Y-65991592D01*
X181809568Y-65991592D02*
X181750899Y-66080450D01*
X181750899Y-66080450D02*
X181544703Y-66199498D01*
X181544703Y-66199498D02*
X181438415Y-66205877D01*
X181438415Y-66205877D02*
X181373366Y-66188448D01*
X181373366Y-66188448D02*
X181284508Y-66129779D01*
X181284508Y-66129779D02*
X181165460Y-65923582D01*
X181165460Y-65923582D02*
X181159080Y-65817294D01*
X181159080Y-65817294D02*
X181176510Y-65752245D01*
X181176510Y-65752245D02*
X181235179Y-65663387D01*
X181235179Y-65663387D02*
X181441376Y-65544339D01*
X181441376Y-65544339D02*
X181547664Y-65537959D01*
X181547664Y-65537959D02*
X181612713Y-65555389D01*
D12*
X129609580Y-84416666D02*
X129657200Y-84464285D01*
X129657200Y-84464285D02*
X129704819Y-84607142D01*
X129704819Y-84607142D02*
X129704819Y-84702380D01*
X129704819Y-84702380D02*
X129657200Y-84845237D01*
X129657200Y-84845237D02*
X129561961Y-84940475D01*
X129561961Y-84940475D02*
X129466723Y-84988094D01*
X129466723Y-84988094D02*
X129276247Y-85035713D01*
X129276247Y-85035713D02*
X129133390Y-85035713D01*
X129133390Y-85035713D02*
X128942914Y-84988094D01*
X128942914Y-84988094D02*
X128847676Y-84940475D01*
X128847676Y-84940475D02*
X128752438Y-84845237D01*
X128752438Y-84845237D02*
X128704819Y-84702380D01*
X128704819Y-84702380D02*
X128704819Y-84607142D01*
X128704819Y-84607142D02*
X128752438Y-84464285D01*
X128752438Y-84464285D02*
X128800057Y-84416666D01*
X128704819Y-83559523D02*
X128704819Y-83749999D01*
X128704819Y-83749999D02*
X128752438Y-83845237D01*
X128752438Y-83845237D02*
X128800057Y-83892856D01*
X128800057Y-83892856D02*
X128942914Y-83988094D01*
X128942914Y-83988094D02*
X129133390Y-84035713D01*
X129133390Y-84035713D02*
X129514342Y-84035713D01*
X129514342Y-84035713D02*
X129609580Y-83988094D01*
X129609580Y-83988094D02*
X129657200Y-83940475D01*
X129657200Y-83940475D02*
X129704819Y-83845237D01*
X129704819Y-83845237D02*
X129704819Y-83654761D01*
X129704819Y-83654761D02*
X129657200Y-83559523D01*
X129657200Y-83559523D02*
X129609580Y-83511904D01*
X129609580Y-83511904D02*
X129514342Y-83464285D01*
X129514342Y-83464285D02*
X129276247Y-83464285D01*
X129276247Y-83464285D02*
X129181009Y-83511904D01*
X129181009Y-83511904D02*
X129133390Y-83559523D01*
X129133390Y-83559523D02*
X129085771Y-83654761D01*
X129085771Y-83654761D02*
X129085771Y-83845237D01*
X129085771Y-83845237D02*
X129133390Y-83940475D01*
X129133390Y-83940475D02*
X129181009Y-83988094D01*
X129181009Y-83988094D02*
X129276247Y-84035713D01*
X130804819Y-124988094D02*
X129804819Y-124988094D01*
X129804819Y-124988094D02*
X129804819Y-124749999D01*
X129804819Y-124749999D02*
X129852438Y-124607142D01*
X129852438Y-124607142D02*
X129947676Y-124511904D01*
X129947676Y-124511904D02*
X130042914Y-124464285D01*
X130042914Y-124464285D02*
X130233390Y-124416666D01*
X130233390Y-124416666D02*
X130376247Y-124416666D01*
X130376247Y-124416666D02*
X130566723Y-124464285D01*
X130566723Y-124464285D02*
X130661961Y-124511904D01*
X130661961Y-124511904D02*
X130757200Y-124607142D01*
X130757200Y-124607142D02*
X130804819Y-124749999D01*
X130804819Y-124749999D02*
X130804819Y-124988094D01*
X129804819Y-124083332D02*
X129804819Y-123464285D01*
X129804819Y-123464285D02*
X130185771Y-123797618D01*
X130185771Y-123797618D02*
X130185771Y-123654761D01*
X130185771Y-123654761D02*
X130233390Y-123559523D01*
X130233390Y-123559523D02*
X130281009Y-123511904D01*
X130281009Y-123511904D02*
X130376247Y-123464285D01*
X130376247Y-123464285D02*
X130614342Y-123464285D01*
X130614342Y-123464285D02*
X130709580Y-123511904D01*
X130709580Y-123511904D02*
X130757200Y-123559523D01*
X130757200Y-123559523D02*
X130804819Y-123654761D01*
X130804819Y-123654761D02*
X130804819Y-123940475D01*
X130804819Y-123940475D02*
X130757200Y-124035713D01*
X130757200Y-124035713D02*
X130709580Y-124083332D01*
X128904819Y-119814285D02*
X128904819Y-120385713D01*
X128904819Y-120099999D02*
X127904819Y-120099999D01*
X127904819Y-120099999D02*
X128047676Y-120195237D01*
X128047676Y-120195237D02*
X128142914Y-120290475D01*
X128142914Y-120290475D02*
X128190533Y-120385713D01*
D10*
X128092580Y-88440476D02*
X129092580Y-88440476D01*
X129092580Y-88440476D02*
X128378295Y-88773809D01*
X128378295Y-88773809D02*
X129092580Y-89107142D01*
X129092580Y-89107142D02*
X128092580Y-89107142D01*
X128997342Y-89535714D02*
X129044961Y-89583333D01*
X129044961Y-89583333D02*
X129092580Y-89678571D01*
X129092580Y-89678571D02*
X129092580Y-89916666D01*
X129092580Y-89916666D02*
X129044961Y-90011904D01*
X129044961Y-90011904D02*
X128997342Y-90059523D01*
X128997342Y-90059523D02*
X128902104Y-90107142D01*
X128902104Y-90107142D02*
X128806866Y-90107142D01*
X128806866Y-90107142D02*
X128664009Y-90059523D01*
X128664009Y-90059523D02*
X128092580Y-89488095D01*
X128092580Y-89488095D02*
X128092580Y-90107142D01*
D12*
X127333333Y-83204819D02*
X127000000Y-82728628D01*
X126761905Y-83204819D02*
X126761905Y-82204819D01*
X126761905Y-82204819D02*
X127142857Y-82204819D01*
X127142857Y-82204819D02*
X127238095Y-82252438D01*
X127238095Y-82252438D02*
X127285714Y-82300057D01*
X127285714Y-82300057D02*
X127333333Y-82395295D01*
X127333333Y-82395295D02*
X127333333Y-82538152D01*
X127333333Y-82538152D02*
X127285714Y-82633390D01*
X127285714Y-82633390D02*
X127238095Y-82681009D01*
X127238095Y-82681009D02*
X127142857Y-82728628D01*
X127142857Y-82728628D02*
X126761905Y-82728628D01*
X128285714Y-83204819D02*
X127714286Y-83204819D01*
X128000000Y-83204819D02*
X128000000Y-82204819D01*
X128000000Y-82204819D02*
X127904762Y-82347676D01*
X127904762Y-82347676D02*
X127809524Y-82442914D01*
X127809524Y-82442914D02*
X127714286Y-82490533D01*
X156107142Y-94109580D02*
X156059523Y-94157200D01*
X156059523Y-94157200D02*
X155916666Y-94204819D01*
X155916666Y-94204819D02*
X155821428Y-94204819D01*
X155821428Y-94204819D02*
X155678571Y-94157200D01*
X155678571Y-94157200D02*
X155583333Y-94061961D01*
X155583333Y-94061961D02*
X155535714Y-93966723D01*
X155535714Y-93966723D02*
X155488095Y-93776247D01*
X155488095Y-93776247D02*
X155488095Y-93633390D01*
X155488095Y-93633390D02*
X155535714Y-93442914D01*
X155535714Y-93442914D02*
X155583333Y-93347676D01*
X155583333Y-93347676D02*
X155678571Y-93252438D01*
X155678571Y-93252438D02*
X155821428Y-93204819D01*
X155821428Y-93204819D02*
X155916666Y-93204819D01*
X155916666Y-93204819D02*
X156059523Y-93252438D01*
X156059523Y-93252438D02*
X156107142Y-93300057D01*
X157059523Y-94204819D02*
X156488095Y-94204819D01*
X156773809Y-94204819D02*
X156773809Y-93204819D01*
X156773809Y-93204819D02*
X156678571Y-93347676D01*
X156678571Y-93347676D02*
X156583333Y-93442914D01*
X156583333Y-93442914D02*
X156488095Y-93490533D01*
X157916666Y-93538152D02*
X157916666Y-94204819D01*
X157678571Y-93157200D02*
X157440476Y-93871485D01*
X157440476Y-93871485D02*
X158059523Y-93871485D01*
D10*
X140042580Y-40488095D02*
X139233057Y-40488095D01*
X139233057Y-40488095D02*
X139137819Y-40535714D01*
X139137819Y-40535714D02*
X139090200Y-40583333D01*
X139090200Y-40583333D02*
X139042580Y-40678571D01*
X139042580Y-40678571D02*
X139042580Y-40869047D01*
X139042580Y-40869047D02*
X139090200Y-40964285D01*
X139090200Y-40964285D02*
X139137819Y-41011904D01*
X139137819Y-41011904D02*
X139233057Y-41059523D01*
X139233057Y-41059523D02*
X140042580Y-41059523D01*
X139614009Y-41678571D02*
X139661628Y-41583333D01*
X139661628Y-41583333D02*
X139709247Y-41535714D01*
X139709247Y-41535714D02*
X139804485Y-41488095D01*
X139804485Y-41488095D02*
X139852104Y-41488095D01*
X139852104Y-41488095D02*
X139947342Y-41535714D01*
X139947342Y-41535714D02*
X139994961Y-41583333D01*
X139994961Y-41583333D02*
X140042580Y-41678571D01*
X140042580Y-41678571D02*
X140042580Y-41869047D01*
X140042580Y-41869047D02*
X139994961Y-41964285D01*
X139994961Y-41964285D02*
X139947342Y-42011904D01*
X139947342Y-42011904D02*
X139852104Y-42059523D01*
X139852104Y-42059523D02*
X139804485Y-42059523D01*
X139804485Y-42059523D02*
X139709247Y-42011904D01*
X139709247Y-42011904D02*
X139661628Y-41964285D01*
X139661628Y-41964285D02*
X139614009Y-41869047D01*
X139614009Y-41869047D02*
X139614009Y-41678571D01*
X139614009Y-41678571D02*
X139566390Y-41583333D01*
X139566390Y-41583333D02*
X139518771Y-41535714D01*
X139518771Y-41535714D02*
X139423533Y-41488095D01*
X139423533Y-41488095D02*
X139233057Y-41488095D01*
X139233057Y-41488095D02*
X139137819Y-41535714D01*
X139137819Y-41535714D02*
X139090200Y-41583333D01*
X139090200Y-41583333D02*
X139042580Y-41678571D01*
X139042580Y-41678571D02*
X139042580Y-41869047D01*
X139042580Y-41869047D02*
X139090200Y-41964285D01*
X139090200Y-41964285D02*
X139137819Y-42011904D01*
X139137819Y-42011904D02*
X139233057Y-42059523D01*
X139233057Y-42059523D02*
X139423533Y-42059523D01*
X139423533Y-42059523D02*
X139518771Y-42011904D01*
X139518771Y-42011904D02*
X139566390Y-41964285D01*
X139566390Y-41964285D02*
X139614009Y-41869047D01*
D13*
%TO.C,C3*%
X139565000Y-76863747D02*
X139565000Y-77386253D01*
X141035000Y-76863747D02*
X141035000Y-77386253D01*
D10*
%TO.C,C13*%
X145450000Y-81700000D02*
X145449999Y-82600000D01*
X145900000Y-82150000D02*
X145000000Y-82150000D01*
X155800000Y-85600000D02*
X144700000Y-85600000D01*
X144700000Y-80600000D01*
X155800000Y-80600000D01*
X155800000Y-85600000D01*
D13*
%TO.C,C1*%
X137564997Y-76863747D02*
X137564997Y-77386253D01*
X139034997Y-76863747D02*
X139034997Y-77386253D01*
%TO.C,C9*%
X137565000Y-80738747D02*
X137565000Y-81261253D01*
X139035000Y-80738747D02*
X139035000Y-81261253D01*
D10*
%TO.C,M1*%
X161850000Y-85529999D02*
X161850000Y-93529999D01*
X167000001Y-85529999D02*
X161850000Y-85529999D01*
X167000001Y-93529999D02*
X161850000Y-93529999D01*
X167000001Y-93529999D02*
X167000001Y-85529999D01*
D14*
%TO.C,SW1*%
X130000000Y-71650001D02*
X130000000Y-80450001D01*
X130000000Y-71650001D02*
X130750000Y-71650001D01*
X130000000Y-80450001D02*
X130750000Y-80450001D01*
X134600000Y-71650001D02*
X133850000Y-71650001D01*
X134600000Y-80450001D02*
X133850000Y-80450001D01*
X134600000Y-80450001D02*
X134600000Y-71650001D01*
D15*
X129400000Y-74050001D02*
G75*
G02*
X129200000Y-74050001I-100000J0D01*
G01*
X129200000Y-74050001D02*
G75*
G02*
X129400000Y-74050001I100000J0D01*
G01*
D13*
%TO.C,U2*%
X156730000Y-76840000D02*
X161370999Y-76840000D01*
X156730000Y-80109000D02*
X158240000Y-80109000D01*
X156730000Y-83810000D02*
X158240000Y-83810000D01*
X156730000Y-87080000D02*
X156730000Y-76840000D01*
X156730000Y-87080000D02*
X161371000Y-87080000D01*
X158240001Y-87080000D02*
X158240000Y-76840000D01*
X161371000Y-87080000D02*
X161370999Y-76840000D01*
%TO.C,U4*%
X145640000Y-86690000D02*
X145640000Y-86925000D01*
X145640000Y-99710000D02*
X145640000Y-99475000D01*
X149500000Y-86690000D02*
X145640000Y-86690000D01*
X149500000Y-86690000D02*
X153360000Y-86690000D01*
X149500000Y-99710000D02*
X145640000Y-99710000D01*
X149500000Y-99710000D02*
X153360000Y-99710000D01*
X153360000Y-86690000D02*
X153360000Y-86925000D01*
X153360000Y-99710000D02*
X153360000Y-99475000D01*
X144850000Y-86924999D02*
X144510000Y-86455000D01*
X145190000Y-86455000D01*
X144850000Y-86924999D01*
G36*
X144850000Y-86924999D02*
G01*
X144510000Y-86455000D01*
X145190000Y-86455000D01*
X144850000Y-86924999D01*
G37*
%TO.C,C12*%
X158945225Y-72125000D02*
X159445225Y-72125000D01*
X159195225Y-71875000D02*
X159195225Y-72375000D01*
X161750000Y-71020000D02*
X161750000Y-72560000D01*
X161750000Y-74640000D02*
X161750000Y-76180000D01*
X161790000Y-71020000D02*
X161790000Y-72560000D01*
X161790000Y-74640000D02*
X161790000Y-76180000D01*
X161830000Y-71021000D02*
X161830000Y-72560000D01*
X161830000Y-74640000D02*
X161830000Y-76179000D01*
X161870000Y-71022000D02*
X161870000Y-72560000D01*
X161870000Y-74640000D02*
X161870000Y-76178000D01*
X161910000Y-71024000D02*
X161910000Y-72560000D01*
X161910000Y-74640000D02*
X161910000Y-76176000D01*
X161950000Y-71027000D02*
X161950000Y-72560000D01*
X161950000Y-74640000D02*
X161950000Y-76173000D01*
X161990000Y-71031000D02*
X161990000Y-72560000D01*
X161990000Y-74640000D02*
X161990000Y-76169000D01*
X162030000Y-71035000D02*
X162030000Y-72560000D01*
X162030000Y-74640000D02*
X162030000Y-76165000D01*
X162070000Y-71039000D02*
X162070000Y-72560000D01*
X162070000Y-74640000D02*
X162070000Y-76161000D01*
X162110000Y-71044000D02*
X162110000Y-72560000D01*
X162110000Y-74640000D02*
X162110000Y-76156000D01*
X162150000Y-71050000D02*
X162150000Y-72560000D01*
X162150000Y-74640000D02*
X162150000Y-76150000D01*
X162190000Y-71057000D02*
X162190000Y-72560000D01*
X162190000Y-74640000D02*
X162190000Y-76143000D01*
X162230000Y-71064000D02*
X162230000Y-72560000D01*
X162230000Y-74640000D02*
X162230000Y-76136000D01*
X162270000Y-71072000D02*
X162270000Y-72560000D01*
X162270000Y-74640000D02*
X162270000Y-76128000D01*
X162310000Y-71080000D02*
X162310000Y-72560000D01*
X162310000Y-74640000D02*
X162310000Y-76120000D01*
X162350000Y-71089000D02*
X162350000Y-72560000D01*
X162350000Y-74640000D02*
X162350000Y-76111000D01*
X162390000Y-71099000D02*
X162390000Y-72560000D01*
X162390000Y-74640000D02*
X162390000Y-76101000D01*
X162430000Y-71109000D02*
X162430000Y-72560000D01*
X162430000Y-74640000D02*
X162430000Y-76091000D01*
X162471000Y-71120000D02*
X162471000Y-72560000D01*
X162471000Y-74640000D02*
X162471000Y-76080000D01*
X162511000Y-71132000D02*
X162511000Y-72560000D01*
X162511000Y-74640000D02*
X162511000Y-76068000D01*
X162551000Y-71145000D02*
X162551000Y-72560000D01*
X162551000Y-74640000D02*
X162551000Y-76055000D01*
X162591000Y-71158000D02*
X162591000Y-72560000D01*
X162591000Y-74640000D02*
X162591000Y-76042000D01*
X162631000Y-71172000D02*
X162631000Y-72560000D01*
X162631000Y-74640000D02*
X162631000Y-76028000D01*
X162671000Y-71186000D02*
X162671000Y-72560000D01*
X162671000Y-74640000D02*
X162671000Y-76014000D01*
X162711000Y-71202000D02*
X162711000Y-72560000D01*
X162711000Y-74640000D02*
X162711000Y-75998000D01*
X162751000Y-71218000D02*
X162751000Y-72560000D01*
X162751000Y-74640000D02*
X162751000Y-75982000D01*
X162791000Y-71235000D02*
X162791000Y-72560000D01*
X162791000Y-74640000D02*
X162791000Y-75965000D01*
X162831000Y-71252000D02*
X162831000Y-72560000D01*
X162831000Y-74640000D02*
X162831000Y-75948000D01*
X162871000Y-71271000D02*
X162871000Y-72560000D01*
X162871000Y-74640000D02*
X162871000Y-75929000D01*
X162911000Y-71290000D02*
X162911000Y-72560000D01*
X162911000Y-74640000D02*
X162911000Y-75910000D01*
X162951000Y-71310000D02*
X162951000Y-72560000D01*
X162951000Y-74640000D02*
X162951000Y-75890000D01*
X162991000Y-71332000D02*
X162991000Y-72560000D01*
X162991000Y-74640000D02*
X162991000Y-75868000D01*
X163031000Y-71353000D02*
X163031000Y-72560000D01*
X163031000Y-74640000D02*
X163031000Y-75847000D01*
X163071000Y-71376000D02*
X163071000Y-72560000D01*
X163071000Y-74640000D02*
X163071000Y-75824000D01*
X163111000Y-71400000D02*
X163111000Y-72560000D01*
X163111000Y-74640000D02*
X163111000Y-75800000D01*
X163151000Y-71425000D02*
X163151000Y-72560000D01*
X163151000Y-74640000D02*
X163151000Y-75775000D01*
X163191000Y-71451000D02*
X163191000Y-72560000D01*
X163191000Y-74640000D02*
X163191000Y-75749000D01*
X163231000Y-71478000D02*
X163231000Y-72560000D01*
X163231000Y-74640000D02*
X163231000Y-75722000D01*
X163271000Y-71505000D02*
X163271000Y-72560000D01*
X163271000Y-74640000D02*
X163271000Y-75695000D01*
X163311000Y-71535000D02*
X163311000Y-72560000D01*
X163311000Y-74640000D02*
X163311000Y-75665000D01*
X163351000Y-71565000D02*
X163351000Y-72560000D01*
X163351000Y-74640000D02*
X163351000Y-75635000D01*
X163391000Y-71596000D02*
X163391000Y-72560000D01*
X163391000Y-74640000D02*
X163391000Y-75604000D01*
X163431000Y-71629000D02*
X163431000Y-72560000D01*
X163431000Y-74640000D02*
X163431000Y-75571000D01*
X163471000Y-71663000D02*
X163471000Y-72560000D01*
X163471000Y-74640000D02*
X163471000Y-75537000D01*
X163511000Y-71699000D02*
X163511000Y-72560000D01*
X163511000Y-74640000D02*
X163511000Y-75501000D01*
X163551000Y-71736000D02*
X163551000Y-72560000D01*
X163551000Y-74640000D02*
X163551000Y-75464000D01*
X163591000Y-71774000D02*
X163591000Y-72560000D01*
X163591000Y-74640000D02*
X163591000Y-75426000D01*
X163631000Y-71815000D02*
X163631000Y-72560000D01*
X163631000Y-74640000D02*
X163631000Y-75385000D01*
X163671000Y-71857000D02*
X163671000Y-72560000D01*
X163671000Y-74640000D02*
X163671000Y-75343000D01*
X163711000Y-71901000D02*
X163711000Y-72560000D01*
X163711000Y-74640000D02*
X163711000Y-75299000D01*
X163751000Y-71947000D02*
X163751000Y-72560000D01*
X163751000Y-74640000D02*
X163751000Y-75253000D01*
X163791000Y-71995000D02*
X163791000Y-75205000D01*
X163831000Y-72046000D02*
X163831000Y-75154000D01*
X163871000Y-72100000D02*
X163871000Y-75100000D01*
X163911000Y-72157000D02*
X163911000Y-75043000D01*
X163951000Y-72217000D02*
X163951000Y-74983000D01*
X163991000Y-72281000D02*
X163991000Y-74919000D01*
X164031000Y-72349000D02*
X164031000Y-74851000D01*
X164071000Y-72422000D02*
X164071000Y-74778000D01*
X164111000Y-72502000D02*
X164111000Y-74698000D01*
X164151000Y-72589000D02*
X164151000Y-74611000D01*
X164191000Y-72685000D02*
X164191000Y-74515000D01*
X164231000Y-72795000D02*
X164231000Y-74405000D01*
X164271000Y-72923000D02*
X164271000Y-74277000D01*
X164311000Y-73082000D02*
X164311000Y-74118000D01*
X164351000Y-73316000D02*
X164351000Y-73884000D01*
X164370000Y-73600000D02*
G75*
G02*
X159130000Y-73600000I-2620000J0D01*
G01*
X159130000Y-73600000D02*
G75*
G02*
X164370000Y-73600000I2620000J0D01*
G01*
%TO.C,C15*%
X131709999Y-90694888D02*
X130200000Y-90694888D01*
X131709999Y-91415888D02*
X130421000Y-91415888D01*
X131709999Y-91855888D02*
X130685000Y-91855888D01*
X131709999Y-92015888D02*
X130813000Y-92015888D01*
X131709999Y-92295888D02*
X131097000Y-92295888D01*
X131710000Y-90294888D02*
X130170000Y-90294888D01*
X131710000Y-90334888D02*
X130170000Y-90334889D01*
X131710000Y-90374888D02*
X130171000Y-90374888D01*
X131710000Y-90414889D02*
X130172000Y-90414888D01*
X131710000Y-90454888D02*
X130174000Y-90454888D01*
X131710000Y-90494888D02*
X130177000Y-90494888D01*
X131710000Y-90534887D02*
X130181000Y-90534888D01*
X131710000Y-90574888D02*
X130185000Y-90574888D01*
X131710000Y-90614888D02*
X130189000Y-90614887D01*
X131710000Y-90654888D02*
X130194000Y-90654888D01*
X131710000Y-90734888D02*
X130207000Y-90734888D01*
X131710000Y-90774888D02*
X130214000Y-90774888D01*
X131710000Y-90814888D02*
X130222000Y-90814888D01*
X131710000Y-90854889D02*
X130229999Y-90854888D01*
X131710000Y-90894888D02*
X130239000Y-90894888D01*
X131710000Y-90934888D02*
X130249000Y-90934888D01*
X131710000Y-90974887D02*
X130259000Y-90974887D01*
X131710000Y-91015888D02*
X130270000Y-91015888D01*
X131710000Y-91055888D02*
X130282000Y-91055889D01*
X131710000Y-91095888D02*
X130295000Y-91095888D01*
X131710000Y-91135889D02*
X130308000Y-91135888D01*
X131710000Y-91175888D02*
X130322000Y-91175888D01*
X131710000Y-91215888D02*
X130336000Y-91215888D01*
X131710000Y-91255887D02*
X130352000Y-91255887D01*
X131710000Y-91295888D02*
X130368000Y-91295888D01*
X131710000Y-91335888D02*
X130385000Y-91335887D01*
X131710000Y-91375888D02*
X130402000Y-91375888D01*
X131710000Y-91455888D02*
X130440000Y-91455888D01*
X131710000Y-91495888D02*
X130459999Y-91495888D01*
X131710000Y-91535888D02*
X130482000Y-91535888D01*
X131710000Y-91575889D02*
X130503000Y-91575889D01*
X131710000Y-91615888D02*
X130526000Y-91615888D01*
X131710000Y-91655888D02*
X130550000Y-91655888D01*
X131710000Y-91695887D02*
X130575000Y-91695888D01*
X131710000Y-91735888D02*
X130601000Y-91735888D01*
X131710000Y-91775888D02*
X130627999Y-91775888D01*
X131710000Y-91815888D02*
X130655000Y-91815888D01*
X131710000Y-91895888D02*
X130715000Y-91895888D01*
X131710000Y-91935888D02*
X130746000Y-91935888D01*
X131710000Y-91975888D02*
X130779000Y-91975888D01*
X131710000Y-92055888D02*
X130849000Y-92055888D01*
X131710000Y-92095888D02*
X130886000Y-92095888D01*
X131710000Y-92135887D02*
X130924000Y-92135887D01*
X131710000Y-92175889D02*
X130965000Y-92175888D01*
X131710000Y-92215888D02*
X131007000Y-92215888D01*
X131710000Y-92255888D02*
X131051000Y-92255888D01*
X133034000Y-92895888D02*
X132466000Y-92895888D01*
X133268000Y-92855888D02*
X132232000Y-92855888D01*
X133427000Y-92815888D02*
X132073000Y-92815888D01*
X133555000Y-92775888D02*
X131945000Y-92775888D01*
X133665000Y-92735888D02*
X131835000Y-92735888D01*
X133761000Y-92695888D02*
X131739000Y-92695888D01*
X133848000Y-92655888D02*
X131652000Y-92655888D01*
X133928000Y-92615888D02*
X131572000Y-92615888D01*
X134001000Y-92575888D02*
X131499000Y-92575888D01*
X134069000Y-92535888D02*
X131431000Y-92535888D01*
X134133000Y-92495888D02*
X131367000Y-92495888D01*
X134193001Y-92455888D02*
X131306999Y-92455888D01*
X134225000Y-87490113D02*
X134225000Y-87990113D01*
X134250000Y-92415888D02*
X131250000Y-92415888D01*
X134304000Y-92375888D02*
X131196000Y-92375888D01*
X134355000Y-92335888D02*
X131145000Y-92335888D01*
X134403000Y-92295888D02*
X133790001Y-92295888D01*
X134449000Y-92255888D02*
X133790000Y-92255888D01*
X134475000Y-87740113D02*
X133975000Y-87740113D01*
X134493000Y-92215888D02*
X133790000Y-92215888D01*
X134535000Y-92175888D02*
X133790000Y-92175889D01*
X134576000Y-92135887D02*
X133790000Y-92135887D01*
X134614000Y-92095888D02*
X133790000Y-92095888D01*
X134651000Y-92055888D02*
X133790000Y-92055888D01*
X134687000Y-92015888D02*
X133790001Y-92015888D01*
X134721000Y-91975888D02*
X133790000Y-91975888D01*
X134754000Y-91935888D02*
X133790000Y-91935888D01*
X134785000Y-91895888D02*
X133790000Y-91895888D01*
X134815000Y-91855888D02*
X133790001Y-91855888D01*
X134845000Y-91815888D02*
X133790000Y-91815888D01*
X134872001Y-91775888D02*
X133790000Y-91775888D01*
X134899000Y-91735888D02*
X133790000Y-91735888D01*
X134925000Y-91695888D02*
X133790000Y-91695887D01*
X134950000Y-91655888D02*
X133790000Y-91655888D01*
X134974000Y-91615888D02*
X133790000Y-91615888D01*
X134997000Y-91575889D02*
X133790000Y-91575889D01*
X135018000Y-91535888D02*
X133790000Y-91535888D01*
X135040001Y-91495888D02*
X133790000Y-91495888D01*
X135060000Y-91455888D02*
X133790000Y-91455888D01*
X135079000Y-91415888D02*
X133790001Y-91415888D01*
X135098000Y-91375888D02*
X133790000Y-91375888D01*
X135115000Y-91335887D02*
X133790000Y-91335888D01*
X135132000Y-91295888D02*
X133790000Y-91295888D01*
X135148000Y-91255887D02*
X133790000Y-91255887D01*
X135164000Y-91215888D02*
X133790000Y-91215888D01*
X135178000Y-91175888D02*
X133790000Y-91175888D01*
X135192000Y-91135888D02*
X133790000Y-91135889D01*
X135205000Y-91095888D02*
X133790000Y-91095888D01*
X135218000Y-91055889D02*
X133790000Y-91055888D01*
X135230000Y-91015888D02*
X133790000Y-91015888D01*
X135241000Y-90974887D02*
X133790000Y-90974887D01*
X135251000Y-90934888D02*
X133790000Y-90934888D01*
X135261000Y-90894888D02*
X133790000Y-90894888D01*
X135270001Y-90854888D02*
X133790000Y-90854889D01*
X135278000Y-90814888D02*
X133790000Y-90814888D01*
X135286000Y-90774888D02*
X133790000Y-90774888D01*
X135293000Y-90734888D02*
X133790000Y-90734888D01*
X135300000Y-90694888D02*
X133790001Y-90694888D01*
X135306000Y-90654888D02*
X133790000Y-90654888D01*
X135311000Y-90614887D02*
X133790000Y-90614888D01*
X135315000Y-90574888D02*
X133790000Y-90574888D01*
X135319000Y-90534888D02*
X133790000Y-90534887D01*
X135323000Y-90494888D02*
X133790000Y-90494888D01*
X135326000Y-90454888D02*
X133790000Y-90454888D01*
X135328000Y-90414888D02*
X133790000Y-90414889D01*
X135329000Y-90374888D02*
X133790000Y-90374888D01*
X135330000Y-90294888D02*
X133790000Y-90294888D01*
X135330000Y-90334889D02*
X133790000Y-90334888D01*
X135370001Y-90294888D02*
G75*
G02*
X130129999Y-90294888I-2620001J0D01*
G01*
X130129999Y-90294888D02*
G75*
G02*
X135370001Y-90294888I2620001J0D01*
G01*
D10*
%TO.C,U6*%
X160903810Y-42470962D02*
X159603810Y-44722628D01*
X168697077Y-49972628D02*
X159603810Y-44722628D01*
X169997077Y-47720962D02*
X160903810Y-42470962D01*
X169997077Y-47720962D02*
X168697077Y-49972628D01*
%TO.C,C5*%
X145275000Y-76199999D02*
X145275000Y-76800001D01*
X145575001Y-76500000D02*
X144974999Y-76500000D01*
X155775000Y-80200000D02*
X144675000Y-80200001D01*
X144675000Y-75200000D01*
X155775000Y-75200000D01*
X155775000Y-80200000D01*
D13*
%TO.C,D1*%
X127140000Y-74715001D02*
X127140000Y-77575001D01*
X129060000Y-74715001D02*
X127140000Y-74715001D01*
X129060000Y-77575001D02*
X129060000Y-74715001D01*
%TO.C,C11*%
X139565000Y-80738747D02*
X139565000Y-81261253D01*
X141035000Y-80738747D02*
X141035000Y-81261253D01*
D10*
%TO.C,BT1*%
X136699999Y-91929999D02*
X136699999Y-99929999D01*
X136699999Y-91929999D02*
X141850000Y-91929999D01*
X136699999Y-99929999D02*
X141850000Y-99929999D01*
X141850000Y-99929999D02*
X141850000Y-91929999D01*
%TO.C,U7*%
X108449167Y-64296634D02*
X110700833Y-65596634D01*
X113699167Y-55203367D02*
X108449167Y-64296634D01*
X113699167Y-55203367D02*
X115950833Y-56503367D01*
X115950833Y-56503367D02*
X110700833Y-65596634D01*
%TO.C,U9*%
X121203367Y-47730962D02*
X122503367Y-49982628D01*
X130296634Y-42480962D02*
X121203367Y-47730962D01*
X130296634Y-42480962D02*
X131596634Y-44732628D01*
X131596634Y-44732628D02*
X122503367Y-49982628D01*
D13*
%TO.C,U3*%
X135889999Y-89299999D02*
X135890000Y-85539999D01*
X135890000Y-85539999D02*
X137149999Y-85539999D01*
X142710000Y-85539999D02*
X141450001Y-85539999D01*
X142710001Y-89299999D02*
X142710000Y-85539999D01*
X135990000Y-90579999D02*
X135660000Y-90819999D01*
X135660000Y-90339999D01*
X135990000Y-90579999D01*
G36*
X135990000Y-90579999D02*
G01*
X135660000Y-90819999D01*
X135660000Y-90339999D01*
X135990000Y-90579999D01*
G37*
D10*
%TO.C,U5*%
X177469038Y-55203810D02*
X175217372Y-56503810D01*
X180467372Y-65597077D02*
X175217372Y-56503810D01*
X182719038Y-64297077D02*
X177469038Y-55203810D01*
X182719038Y-64297077D02*
X180467372Y-65597077D01*
D13*
%TO.C,C6*%
X130170000Y-84460000D02*
X131710000Y-84460001D01*
X130170000Y-84500001D02*
X131710000Y-84500001D01*
X130171000Y-84420001D02*
X131710000Y-84420001D01*
X130172000Y-84380001D02*
X131710000Y-84380000D01*
X130174000Y-84340001D02*
X131710000Y-84340001D01*
X130177000Y-84300001D02*
X131710000Y-84300001D01*
X130181000Y-84260001D02*
X131710000Y-84260002D01*
X130185000Y-84220001D02*
X131710000Y-84220001D01*
X130189000Y-84180002D02*
X131710000Y-84180001D01*
X130194000Y-84140001D02*
X131710000Y-84140001D01*
X130200000Y-84100001D02*
X131709999Y-84100001D01*
X130207000Y-84060001D02*
X131710000Y-84060001D01*
X130214000Y-84020001D02*
X131710000Y-84020001D01*
X130222000Y-83980001D02*
X131710000Y-83980001D01*
X130229999Y-83940001D02*
X131710000Y-83940000D01*
X130239000Y-83900001D02*
X131710000Y-83900001D01*
X130249000Y-83860001D02*
X131710000Y-83860001D01*
X130259000Y-83820002D02*
X131710000Y-83820002D01*
X130270000Y-83779001D02*
X131710000Y-83779001D01*
X130282000Y-83739000D02*
X131710000Y-83739001D01*
X130295000Y-83699001D02*
X131710000Y-83699001D01*
X130308000Y-83659001D02*
X131710000Y-83659000D01*
X130322000Y-83619001D02*
X131710000Y-83619001D01*
X130336000Y-83579001D02*
X131710000Y-83579001D01*
X130352000Y-83539002D02*
X131710000Y-83539002D01*
X130368000Y-83499001D02*
X131710000Y-83499001D01*
X130385000Y-83459002D02*
X131710000Y-83459001D01*
X130402000Y-83419001D02*
X131710000Y-83419001D01*
X130421000Y-83379001D02*
X131709999Y-83379001D01*
X130440000Y-83339001D02*
X131710000Y-83339001D01*
X130459999Y-83299001D02*
X131710000Y-83299001D01*
X130482000Y-83259001D02*
X131710000Y-83259001D01*
X130503000Y-83219000D02*
X131710000Y-83219000D01*
X130526000Y-83179001D02*
X131710000Y-83179001D01*
X130550000Y-83139001D02*
X131710000Y-83139001D01*
X130575000Y-83099001D02*
X131710000Y-83099002D01*
X130601000Y-83059001D02*
X131710000Y-83059001D01*
X130627999Y-83019001D02*
X131710000Y-83019001D01*
X130655000Y-82979001D02*
X131710000Y-82979001D01*
X130685000Y-82939001D02*
X131709999Y-82939001D01*
X130715000Y-82899001D02*
X131710000Y-82899001D01*
X130746000Y-82859001D02*
X131710000Y-82859001D01*
X130779000Y-82819001D02*
X131710000Y-82819001D01*
X130813000Y-82779001D02*
X131709999Y-82779001D01*
X130849000Y-82739001D02*
X131710000Y-82739001D01*
X130886000Y-82699001D02*
X131710000Y-82699001D01*
X130924000Y-82659002D02*
X131710000Y-82659002D01*
X130965000Y-82619001D02*
X131710000Y-82619000D01*
X131007000Y-82579001D02*
X131710000Y-82579001D01*
X131025000Y-87054776D02*
X131525000Y-87054776D01*
X131051000Y-82539001D02*
X131710000Y-82539001D01*
X131097000Y-82499001D02*
X131709999Y-82499001D01*
X131145000Y-82459001D02*
X134355000Y-82459001D01*
X131196000Y-82419001D02*
X134304000Y-82419001D01*
X131250000Y-82379001D02*
X134250000Y-82379001D01*
X131275000Y-87304776D02*
X131275000Y-86804776D01*
X131306999Y-82339001D02*
X134193001Y-82339001D01*
X131367000Y-82299001D02*
X134133000Y-82299001D01*
X131431000Y-82259001D02*
X134069000Y-82259001D01*
X131499000Y-82219001D02*
X134001000Y-82219001D01*
X131572000Y-82179001D02*
X133928000Y-82179001D01*
X131652000Y-82139001D02*
X133848000Y-82139001D01*
X131739000Y-82099001D02*
X133761000Y-82099001D01*
X131835000Y-82059001D02*
X133665000Y-82059001D01*
X131945000Y-82019001D02*
X133555000Y-82019001D01*
X132073000Y-81979001D02*
X133427000Y-81979001D01*
X132232000Y-81939001D02*
X133268000Y-81939001D01*
X132466000Y-81899001D02*
X133034000Y-81899001D01*
X133790000Y-82539001D02*
X134449000Y-82539001D01*
X133790000Y-82579001D02*
X134493000Y-82579001D01*
X133790000Y-82619000D02*
X134535000Y-82619001D01*
X133790000Y-82659002D02*
X134576000Y-82659002D01*
X133790000Y-82699001D02*
X134614000Y-82699001D01*
X133790000Y-82739001D02*
X134651000Y-82739001D01*
X133790000Y-82819001D02*
X134721000Y-82819001D01*
X133790000Y-82859001D02*
X134754000Y-82859001D01*
X133790000Y-82899001D02*
X134785000Y-82899001D01*
X133790000Y-82979001D02*
X134845000Y-82979001D01*
X133790000Y-83019001D02*
X134872001Y-83019001D01*
X133790000Y-83059001D02*
X134899000Y-83059001D01*
X133790000Y-83099002D02*
X134925000Y-83099001D01*
X133790000Y-83139001D02*
X134950000Y-83139001D01*
X133790000Y-83179001D02*
X134974000Y-83179001D01*
X133790000Y-83219000D02*
X134997000Y-83219000D01*
X133790000Y-83259001D02*
X135018000Y-83259001D01*
X133790000Y-83299001D02*
X135040001Y-83299001D01*
X133790000Y-83339001D02*
X135060000Y-83339001D01*
X133790000Y-83419001D02*
X135098000Y-83419001D01*
X133790000Y-83459001D02*
X135115000Y-83459002D01*
X133790000Y-83499001D02*
X135132000Y-83499001D01*
X133790000Y-83539002D02*
X135148000Y-83539002D01*
X133790000Y-83579001D02*
X135164000Y-83579001D01*
X133790000Y-83619001D02*
X135178000Y-83619001D01*
X133790000Y-83659000D02*
X135192000Y-83659001D01*
X133790000Y-83699001D02*
X135205000Y-83699001D01*
X133790000Y-83739001D02*
X135218000Y-83739000D01*
X133790000Y-83779001D02*
X135230000Y-83779001D01*
X133790000Y-83820002D02*
X135241000Y-83820002D01*
X133790000Y-83860001D02*
X135251000Y-83860001D01*
X133790000Y-83900001D02*
X135261000Y-83900001D01*
X133790000Y-83940000D02*
X135270001Y-83940001D01*
X133790000Y-83980001D02*
X135278000Y-83980001D01*
X133790000Y-84020001D02*
X135286000Y-84020001D01*
X133790000Y-84060001D02*
X135293000Y-84060001D01*
X133790000Y-84140001D02*
X135306000Y-84140001D01*
X133790000Y-84180001D02*
X135311000Y-84180002D01*
X133790000Y-84220001D02*
X135315000Y-84220001D01*
X133790000Y-84260002D02*
X135319000Y-84260001D01*
X133790000Y-84300001D02*
X135323000Y-84300001D01*
X133790000Y-84340001D02*
X135326000Y-84340001D01*
X133790000Y-84380000D02*
X135328000Y-84380001D01*
X133790000Y-84420001D02*
X135329000Y-84420001D01*
X133790000Y-84460001D02*
X135330000Y-84460000D01*
X133790000Y-84500001D02*
X135330000Y-84500001D01*
X133790001Y-82499001D02*
X134403000Y-82499001D01*
X133790001Y-82779001D02*
X134687000Y-82779001D01*
X133790001Y-82939001D02*
X134815000Y-82939001D01*
X133790001Y-83379001D02*
X135079000Y-83379001D01*
X133790001Y-84100001D02*
X135300000Y-84100001D01*
X135370001Y-84500001D02*
G75*
G02*
X130129999Y-84500001I-2620001J0D01*
G01*
X130129999Y-84500001D02*
G75*
G02*
X135370001Y-84500001I2620001J0D01*
G01*
%TO.C,D3*%
X124100000Y-120750000D02*
X124100000Y-127300000D01*
X124100000Y-127300000D02*
X124550000Y-127750000D01*
X124550000Y-127750000D02*
X129600000Y-127750000D01*
X125950000Y-121550000D02*
X127750000Y-121550000D01*
X125950000Y-126950000D02*
X127750000Y-126950000D01*
X129600000Y-120750000D02*
X124100000Y-120750000D01*
X129600000Y-120750000D02*
X129600000Y-127750000D01*
D10*
%TO.C,M2*%
X124250000Y-85300000D02*
X124250000Y-93300000D01*
X129400001Y-85300000D02*
X124250000Y-85300000D01*
X129400001Y-93300000D02*
X124250000Y-93300000D01*
X129400001Y-93300000D02*
X129400001Y-85300000D01*
D13*
%TO.C,R1*%
X127365000Y-80627064D02*
X127365000Y-80172936D01*
X128835000Y-80627064D02*
X128835000Y-80172936D01*
%TO.C,C14*%
X157759999Y-90799999D02*
X156250000Y-90799999D01*
X157759999Y-91520999D02*
X156471000Y-91520999D01*
X157759999Y-91960999D02*
X156735000Y-91960999D01*
X157759999Y-92120999D02*
X156863000Y-92120999D01*
X157759999Y-92400999D02*
X157147000Y-92400999D01*
X157760000Y-90399999D02*
X156220000Y-90399999D01*
X157760000Y-90439999D02*
X156220000Y-90440000D01*
X157760000Y-90479999D02*
X156221000Y-90479999D01*
X157760000Y-90520000D02*
X156222000Y-90519999D01*
X157760000Y-90559999D02*
X156224000Y-90559999D01*
X157760000Y-90599999D02*
X156227000Y-90599999D01*
X157760000Y-90639998D02*
X156231000Y-90639999D01*
X157760000Y-90679999D02*
X156235000Y-90679999D01*
X157760000Y-90719999D02*
X156239000Y-90719998D01*
X157760000Y-90759999D02*
X156244000Y-90759999D01*
X157760000Y-90839999D02*
X156257000Y-90839999D01*
X157760000Y-90879999D02*
X156264000Y-90879999D01*
X157760000Y-90919999D02*
X156272000Y-90919999D01*
X157760000Y-90960000D02*
X156279999Y-90959999D01*
X157760000Y-90999999D02*
X156289000Y-90999999D01*
X157760000Y-91039999D02*
X156299000Y-91039999D01*
X157760000Y-91079998D02*
X156309000Y-91079998D01*
X157760000Y-91120999D02*
X156320000Y-91120999D01*
X157760000Y-91160999D02*
X156332000Y-91161000D01*
X157760000Y-91200999D02*
X156345000Y-91200999D01*
X157760000Y-91241000D02*
X156358000Y-91240999D01*
X157760000Y-91280999D02*
X156372000Y-91280999D01*
X157760000Y-91320999D02*
X156386000Y-91320999D01*
X157760000Y-91360998D02*
X156402000Y-91360998D01*
X157760000Y-91400999D02*
X156418000Y-91400999D01*
X157760000Y-91440999D02*
X156435000Y-91440998D01*
X157760000Y-91480999D02*
X156452000Y-91480999D01*
X157760000Y-91560999D02*
X156490000Y-91560999D01*
X157760000Y-91600999D02*
X156509999Y-91600999D01*
X157760000Y-91640999D02*
X156532000Y-91640999D01*
X157760000Y-91681000D02*
X156553000Y-91681000D01*
X157760000Y-91720999D02*
X156576000Y-91720999D01*
X157760000Y-91760999D02*
X156600000Y-91760999D01*
X157760000Y-91800998D02*
X156625000Y-91800999D01*
X157760000Y-91840999D02*
X156651000Y-91840999D01*
X157760000Y-91880999D02*
X156677999Y-91880999D01*
X157760000Y-91920999D02*
X156705000Y-91920999D01*
X157760000Y-92000999D02*
X156765000Y-92000999D01*
X157760000Y-92040999D02*
X156796000Y-92040999D01*
X157760000Y-92080999D02*
X156829000Y-92080999D01*
X157760000Y-92160999D02*
X156899000Y-92160999D01*
X157760000Y-92200999D02*
X156936000Y-92200999D01*
X157760000Y-92240998D02*
X156974000Y-92240998D01*
X157760000Y-92281000D02*
X157015000Y-92280999D01*
X157760000Y-92320999D02*
X157057000Y-92320999D01*
X157760000Y-92360999D02*
X157101000Y-92360999D01*
X159084000Y-93000999D02*
X158516000Y-93000999D01*
X159318000Y-92960999D02*
X158282000Y-92960999D01*
X159477000Y-92920999D02*
X158123000Y-92920999D01*
X159605000Y-92880999D02*
X157995000Y-92880999D01*
X159715000Y-92840999D02*
X157885000Y-92840999D01*
X159811000Y-92800999D02*
X157789000Y-92800999D01*
X159898000Y-92760999D02*
X157702000Y-92760999D01*
X159978000Y-92720999D02*
X157622000Y-92720999D01*
X160051000Y-92680999D02*
X157549000Y-92680999D01*
X160119000Y-92640999D02*
X157481000Y-92640999D01*
X160183000Y-92600999D02*
X157417000Y-92600999D01*
X160243001Y-92560999D02*
X157356999Y-92560999D01*
X160275000Y-87595224D02*
X160275000Y-88095224D01*
X160300000Y-92520999D02*
X157300000Y-92520999D01*
X160354000Y-92480999D02*
X157246000Y-92480999D01*
X160405000Y-92440999D02*
X157195000Y-92440999D01*
X160453000Y-92400999D02*
X159840001Y-92400999D01*
X160499000Y-92360999D02*
X159840000Y-92360999D01*
X160525000Y-87845224D02*
X160025000Y-87845224D01*
X160543000Y-92320999D02*
X159840000Y-92320999D01*
X160585000Y-92280999D02*
X159840000Y-92281000D01*
X160626000Y-92240998D02*
X159840000Y-92240998D01*
X160664000Y-92200999D02*
X159840000Y-92200999D01*
X160701000Y-92160999D02*
X159840000Y-92160999D01*
X160737000Y-92120999D02*
X159840001Y-92120999D01*
X160771000Y-92080999D02*
X159840000Y-92080999D01*
X160804000Y-92040999D02*
X159840000Y-92040999D01*
X160835000Y-92000999D02*
X159840000Y-92000999D01*
X160865000Y-91960999D02*
X159840001Y-91960999D01*
X160895000Y-91920999D02*
X159840000Y-91920999D01*
X160922001Y-91880999D02*
X159840000Y-91880999D01*
X160949000Y-91840999D02*
X159840000Y-91840999D01*
X160975000Y-91800999D02*
X159840000Y-91800998D01*
X161000000Y-91760999D02*
X159840000Y-91760999D01*
X161024000Y-91720999D02*
X159840000Y-91720999D01*
X161047000Y-91681000D02*
X159840000Y-91681000D01*
X161068000Y-91640999D02*
X159840000Y-91640999D01*
X161090001Y-91600999D02*
X159840000Y-91600999D01*
X161110000Y-91560999D02*
X159840000Y-91560999D01*
X161129000Y-91520999D02*
X159840001Y-91520999D01*
X161148000Y-91480999D02*
X159840000Y-91480999D01*
X161165000Y-91440998D02*
X159840000Y-91440999D01*
X161182000Y-91400999D02*
X159840000Y-91400999D01*
X161198000Y-91360998D02*
X159840000Y-91360998D01*
X161214000Y-91320999D02*
X159840000Y-91320999D01*
X161228000Y-91280999D02*
X159840000Y-91280999D01*
X161242000Y-91240999D02*
X159840000Y-91241000D01*
X161255000Y-91200999D02*
X159840000Y-91200999D01*
X161268000Y-91161000D02*
X159840000Y-91160999D01*
X161280000Y-91120999D02*
X159840000Y-91120999D01*
X161291000Y-91079998D02*
X159840000Y-91079998D01*
X161301000Y-91039999D02*
X159840000Y-91039999D01*
X161311000Y-90999999D02*
X159840000Y-90999999D01*
X161320001Y-90959999D02*
X159840000Y-90960000D01*
X161328000Y-90919999D02*
X159840000Y-90919999D01*
X161336000Y-90879999D02*
X159840000Y-90879999D01*
X161343000Y-90839999D02*
X159840000Y-90839999D01*
X161350000Y-90799999D02*
X159840001Y-90799999D01*
X161356000Y-90759999D02*
X159840000Y-90759999D01*
X161361000Y-90719998D02*
X159840000Y-90719999D01*
X161365000Y-90679999D02*
X159840000Y-90679999D01*
X161369000Y-90639999D02*
X159840000Y-90639998D01*
X161373000Y-90599999D02*
X159840000Y-90599999D01*
X161376000Y-90559999D02*
X159840000Y-90559999D01*
X161378000Y-90519999D02*
X159840000Y-90520000D01*
X161379000Y-90479999D02*
X159840000Y-90479999D01*
X161380000Y-90399999D02*
X159840000Y-90399999D01*
X161380000Y-90440000D02*
X159840000Y-90439999D01*
X161420001Y-90399999D02*
G75*
G02*
X156179999Y-90399999I-2620001J0D01*
G01*
X156179999Y-90399999D02*
G75*
G02*
X161420001Y-90399999I2620001J0D01*
G01*
D10*
%TO.C,U8*%
X140340000Y-39800000D02*
X140340000Y-42400000D01*
X150840000Y-39800000D02*
X140340000Y-39800000D01*
X150840000Y-39800000D02*
X150840000Y-42400000D01*
X150840000Y-42400000D02*
X140340000Y-42400000D01*
%TD*%
M02*
