%TF.GenerationSoftware,KiCad,Pcbnew,8.0.6*%
%TF.CreationDate,2025-03-04T23:13:55+07:00*%
%TF.ProjectId,micromouse,6d696372-6f6d-46f7-9573-652e6b696361,rev?*%
%TF.SameCoordinates,Original*%
%TF.FileFunction,Copper,L2,Bot*%
%TF.FilePolarity,Positive*%
%FSLAX46Y46*%
G04 Gerber Fmt 4.6, Leading zero omitted, Abs format (unit mm)*
G04 Created by KiCad (PCBNEW 8.0.6) date 2025-03-04 23:13:55*
%MOMM*%
%LPD*%
G01*
G04 APERTURE LIST*
G04 Aperture macros list*
%AMRoundRect*
0 Rectangle with rounded corners*
0 $1 Rounding radius*
0 $2 $3 $4 $5 $6 $7 $8 $9 X,Y pos of 4 corners*
0 Add a 4 corners polygon primitive as box body*
4,1,4,$2,$3,$4,$5,$6,$7,$8,$9,$2,$3,0*
0 Add four circle primitives for the rounded corners*
1,1,$1+$1,$2,$3*
1,1,$1+$1,$4,$5*
1,1,$1+$1,$6,$7*
1,1,$1+$1,$8,$9*
0 Add four rect primitives between the rounded corners*
20,1,$1+$1,$2,$3,$4,$5,0*
20,1,$1+$1,$4,$5,$6,$7,0*
20,1,$1+$1,$6,$7,$8,$9,0*
20,1,$1+$1,$8,$9,$2,$3,0*%
G04 Aperture macros list end*
%TA.AperFunction,ComponentPad*%
%ADD10R,1.600000X1.600000*%
%TD*%
%TA.AperFunction,ComponentPad*%
%ADD11C,1.600000*%
%TD*%
%TA.AperFunction,ComponentPad*%
%ADD12C,1.800000*%
%TD*%
%TA.AperFunction,ComponentPad*%
%ADD13C,1.700000*%
%TD*%
%TA.AperFunction,ComponentPad*%
%ADD14R,1.308000X1.308000*%
%TD*%
%TA.AperFunction,ComponentPad*%
%ADD15C,1.308000*%
%TD*%
%TA.AperFunction,ComponentPad*%
%ADD16O,2.460000X1.230000*%
%TD*%
%TA.AperFunction,ComponentPad*%
%ADD17R,2.000000X1.905000*%
%TD*%
%TA.AperFunction,ComponentPad*%
%ADD18O,2.000000X1.905000*%
%TD*%
%TA.AperFunction,SMDPad,CuDef*%
%ADD19RoundRect,0.250000X-0.450000X0.350000X-0.450000X-0.350000X0.450000X-0.350000X0.450000X0.350000X0*%
%TD*%
%TA.AperFunction,SMDPad,CuDef*%
%ADD20RoundRect,0.250000X0.450000X-0.350000X0.450000X0.350000X-0.450000X0.350000X-0.450000X-0.350000X0*%
%TD*%
%TA.AperFunction,SMDPad,CuDef*%
%ADD21RoundRect,0.250000X-0.475000X0.337500X-0.475000X-0.337500X0.475000X-0.337500X0.475000X0.337500X0*%
%TD*%
%TA.AperFunction,SMDPad,CuDef*%
%ADD22RoundRect,0.125000X-0.125000X0.125000X-0.125000X-0.125000X0.125000X-0.125000X0.125000X0.125000X0*%
%TD*%
%TA.AperFunction,SMDPad,CuDef*%
%ADD23RoundRect,0.381000X0.762000X0.381000X-0.762000X0.381000X-0.762000X-0.381000X0.762000X-0.381000X0*%
%TD*%
%TA.AperFunction,SMDPad,CuDef*%
%ADD24RoundRect,0.381000X-0.762000X-0.381000X0.762000X-0.381000X0.762000X0.381000X-0.762000X0.381000X0*%
%TD*%
%TA.AperFunction,SMDPad,CuDef*%
%ADD25RoundRect,0.250000X-0.337500X-0.475000X0.337500X-0.475000X0.337500X0.475000X-0.337500X0.475000X0*%
%TD*%
%TA.AperFunction,SMDPad,CuDef*%
%ADD26RoundRect,0.250000X0.475000X-0.337500X0.475000X0.337500X-0.475000X0.337500X-0.475000X-0.337500X0*%
%TD*%
%TA.AperFunction,SMDPad,CuDef*%
%ADD27R,1.500000X1.500000*%
%TD*%
%TA.AperFunction,SMDPad,CuDef*%
%ADD28RoundRect,0.250000X0.350000X0.450000X-0.350000X0.450000X-0.350000X-0.450000X0.350000X-0.450000X0*%
%TD*%
%TA.AperFunction,ViaPad*%
%ADD29C,0.600000*%
%TD*%
%TA.AperFunction,Conductor*%
%ADD30C,0.500000*%
%TD*%
%TA.AperFunction,Conductor*%
%ADD31C,0.300000*%
%TD*%
%TA.AperFunction,Conductor*%
%ADD32C,0.800000*%
%TD*%
G04 APERTURE END LIST*
D10*
%TO.P,C13,1*%
%TO.N,/5V*%
X143550000Y-82100000D03*
D11*
%TO.P,C13,2*%
%TO.N,GND*%
X143550000Y-84100001D03*
%TD*%
D12*
%TO.P,M1,1,+*%
%TO.N,Net-(D2-K)*%
X164400000Y-88259998D03*
%TO.P,M1,2,-*%
%TO.N,Net-(D2-A)*%
X164400000Y-90800000D03*
%TD*%
D13*
%TO.P,U10,1,VCC_IN*%
%TO.N,unconnected-(U10-VCC_IN-Pad1)*%
X154150000Y-73650000D03*
%TO.P,U10,2,3.3V*%
%TO.N,/3V3*%
X151610000Y-73650000D03*
%TO.P,U10,3,GND*%
%TO.N,GND*%
X149070001Y-73650000D03*
%TO.P,U10,4,SCL*%
%TO.N,/SCL*%
X146530000Y-73650000D03*
%TO.P,U10,5,SDA*%
%TO.N,/SDA*%
X143990000Y-73650000D03*
%TO.P,U10,6,SYNC*%
%TO.N,unconnected-(U10-SYNC-Pad6)*%
X141450000Y-73650000D03*
%TO.P,U10,7,INTA*%
%TO.N,unconnected-(U10-INTA-Pad7)*%
X138910000Y-73650000D03*
%TO.P,U10,8,DRDY*%
%TO.N,unconnected-(U10-DRDY-Pad8)*%
X136369999Y-73650000D03*
%TD*%
D14*
%TO.P,SW1,1,A*%
%TO.N,/VBAT*%
X132300000Y-74050000D03*
D15*
%TO.P,SW1,2,B*%
%TO.N,Net-(BT1-+)*%
X132300000Y-76050001D03*
%TO.P,SW1,3,C*%
%TO.N,unconnected-(SW1A-C-Pad3)*%
X132300000Y-78050002D03*
D16*
%TO.P,SW1,S1*%
%TO.N,N/C*%
X132300000Y-71850002D03*
%TO.P,SW1,S2*%
X132300000Y-80250000D03*
%TD*%
D17*
%TO.P,U2,1,IN*%
%TO.N,/VBAT*%
X160000000Y-84500000D03*
D18*
%TO.P,U2,2,GND*%
%TO.N,GND*%
X160000000Y-81960000D03*
%TO.P,U2,3,OUT*%
%TO.N,/6V*%
X160000000Y-79420001D03*
%TD*%
D10*
%TO.P,C12,1*%
%TO.N,/6V*%
X160750000Y-73600000D03*
D11*
%TO.P,C12,2*%
%TO.N,GND*%
X162750000Y-73600000D03*
%TD*%
D10*
%TO.P,C15,1*%
%TO.N,Net-(D4-K)*%
X132750000Y-89294888D03*
D11*
%TO.P,C15,2*%
%TO.N,Net-(D4-A)*%
X132750000Y-91294889D03*
%TD*%
D12*
%TO.P,U6,1,VCC*%
%TO.N,/3V3*%
X168000000Y-48300000D03*
%TO.P,U6,2,GND*%
%TO.N,GND*%
X165800295Y-47030000D03*
%TO.P,U6,3,SCL*%
%TO.N,/SCL*%
X163600591Y-45760000D03*
%TO.P,U6,4,SDA*%
%TO.N,/SDA*%
X161400886Y-44490000D03*
%TD*%
D10*
%TO.P,C5,1*%
%TO.N,/VBAT*%
X143575000Y-76500000D03*
D11*
%TO.P,C5,2*%
%TO.N,GND*%
X143575000Y-78500001D03*
%TD*%
D12*
%TO.P,BT1,1,+*%
%TO.N,Net-(BT1-+)*%
X139300000Y-97200000D03*
%TO.P,BT1,2,-*%
%TO.N,GND*%
X139300000Y-94659998D03*
%TD*%
%TO.P,U7,1,VCC*%
%TO.N,/3V3*%
X114278205Y-57200444D03*
%TO.P,U7,2,GND*%
%TO.N,GND*%
X113008205Y-59400149D03*
%TO.P,U7,3,SCL*%
%TO.N,/SCL*%
X111738205Y-61599853D03*
%TO.P,U7,4,SDA*%
%TO.N,/SDA*%
X110468205Y-63799558D03*
%TD*%
%TO.P,U9,1,VCC*%
%TO.N,/3V3*%
X129799557Y-44500000D03*
%TO.P,U9,2,GND*%
%TO.N,GND*%
X127599852Y-45770000D03*
%TO.P,U9,3,SCL*%
%TO.N,/SCL*%
X125400149Y-47040000D03*
%TO.P,U9,4,SDA*%
%TO.N,/SDA*%
X123200443Y-48310000D03*
%TD*%
%TO.P,U5,1,VCC*%
%TO.N,/3V3*%
X180700000Y-63800000D03*
%TO.P,U5,2,GND*%
%TO.N,GND*%
X179430000Y-61600295D03*
%TO.P,U5,3,SCL*%
%TO.N,/SCL*%
X178160000Y-59400591D03*
%TO.P,U5,4,SDA*%
%TO.N,/SDA*%
X176890000Y-57200886D03*
%TD*%
D10*
%TO.P,C6,1*%
%TO.N,/VBAT*%
X132750000Y-85500001D03*
D11*
%TO.P,C6,2*%
%TO.N,GND*%
X132750000Y-83500000D03*
%TD*%
D12*
%TO.P,M2,1,+*%
%TO.N,Net-(D4-K)*%
X126800000Y-88029999D03*
%TO.P,M2,2,-*%
%TO.N,Net-(D4-A)*%
X126800000Y-90570001D03*
%TD*%
D10*
%TO.P,C14,1*%
%TO.N,Net-(D2-K)*%
X158800000Y-89399999D03*
D11*
%TO.P,C14,2*%
%TO.N,Net-(D2-A)*%
X158800000Y-91400000D03*
%TD*%
D12*
%TO.P,U8,1,VCC*%
%TO.N,/3V3*%
X149400000Y-41300000D03*
%TO.P,U8,2,GND*%
%TO.N,GND*%
X146860000Y-41300000D03*
%TO.P,U8,3,SCL*%
%TO.N,/SCL*%
X144320001Y-41300000D03*
%TO.P,U8,4,SDA*%
%TO.N,/SDA*%
X141780000Y-41300000D03*
%TD*%
D19*
%TO.P,R13,1*%
%TO.N,/3V3*%
X163200000Y-129200000D03*
%TO.P,R13,2*%
%TO.N,/SDA*%
X163200000Y-131200000D03*
%TD*%
D20*
%TO.P,R6,1*%
%TO.N,/RGB*%
X126900000Y-125200000D03*
%TO.P,R6,2*%
%TO.N,/3V3*%
X126900000Y-123200000D03*
%TD*%
D19*
%TO.P,R12,1*%
%TO.N,/3V3*%
X163200000Y-125300000D03*
%TO.P,R12,2*%
%TO.N,/SCL*%
X163200000Y-127300000D03*
%TD*%
%TO.P,R11,1*%
%TO.N,GND*%
X151250000Y-92350000D03*
%TO.P,R11,2*%
%TO.N,Net-(U4-IN3)*%
X151250000Y-94350000D03*
%TD*%
D21*
%TO.P,C7,1*%
%TO.N,/5V*%
X134100000Y-117225000D03*
%TO.P,C7,2*%
%TO.N,GND*%
X134100000Y-119300000D03*
%TD*%
%TO.P,C16,1*%
%TO.N,/BAT_ADC*%
X131300000Y-133762500D03*
%TO.P,C16,2*%
%TO.N,GND*%
X131300000Y-135837500D03*
%TD*%
D20*
%TO.P,R3,1*%
%TO.N,GND*%
X129000000Y-135700000D03*
%TO.P,R3,2*%
%TO.N,/BAT_ADC*%
X129000000Y-133700000D03*
%TD*%
%TO.P,R7,1*%
%TO.N,/PWM_A*%
X147450000Y-90500000D03*
%TO.P,R7,2*%
%TO.N,/3V3*%
X147450000Y-88500000D03*
%TD*%
%TO.P,R2,1*%
%TO.N,/BAT_ADC*%
X129000000Y-131800000D03*
%TO.P,R2,2*%
%TO.N,/VBAT*%
X129000000Y-129800000D03*
%TD*%
%TO.P,R10,1*%
%TO.N,/PWM_B*%
X151250000Y-98150000D03*
%TO.P,R10,2*%
%TO.N,/3V3*%
X151250000Y-96150000D03*
%TD*%
D22*
%TO.P,D2,1,K*%
%TO.N,Net-(D2-K)*%
X166800000Y-88500000D03*
%TO.P,D2,2,A*%
%TO.N,Net-(D2-A)*%
X166800000Y-90699998D03*
%TD*%
%TO.P,D4,1,K*%
%TO.N,Net-(D4-K)*%
X124000000Y-88200002D03*
%TO.P,D4,2,A*%
%TO.N,Net-(D4-A)*%
X124000000Y-90400000D03*
%TD*%
D21*
%TO.P,C10,1*%
%TO.N,/6V*%
X163249997Y-78425000D03*
%TO.P,C10,2*%
%TO.N,GND*%
X163249997Y-80500000D03*
%TD*%
D19*
%TO.P,R8,1*%
%TO.N,GND*%
X147450000Y-96100000D03*
%TO.P,R8,2*%
%TO.N,Net-(U4-IN2)*%
X147450000Y-98100000D03*
%TD*%
%TO.P,R5,1*%
%TO.N,/5V*%
X151250000Y-88550000D03*
%TO.P,R5,2*%
%TO.N,Net-(U4-IN4)*%
X151250000Y-90550000D03*
%TD*%
D23*
%TO.P,U1,1,TX*%
%TO.N,unconnected-(U1-TX-Pad1)*%
X154550000Y-116975000D03*
%TO.P,U1,2,RX*%
%TO.N,unconnected-(U1-RX-Pad2)*%
X154550000Y-119515000D03*
%TO.P,U1,3,IO1*%
%TO.N,/BUTTON*%
X154550000Y-122055000D03*
%TO.P,U1,4,IO2*%
%TO.N,/SCL*%
X154550000Y-124595000D03*
%TO.P,U1,5,IO3*%
%TO.N,/SDA*%
X154550000Y-127135000D03*
%TO.P,U1,6,IO4*%
%TO.N,/PWM_B*%
X154550000Y-129675000D03*
%TO.P,U1,7,IO5*%
%TO.N,/PWM_A*%
X154550000Y-132215000D03*
%TO.P,U1,8,IO6*%
%TO.N,unconnected-(U1-IO6-Pad8)*%
X154550000Y-134755000D03*
%TO.P,U1,9,IO7*%
%TO.N,unconnected-(U1-IO7-Pad9)*%
X154550000Y-137295000D03*
D24*
%TO.P,U1,10,IO8*%
%TO.N,unconnected-(U1-IO8-Pad10)*%
X136550000Y-137295000D03*
%TO.P,U1,11,IO9*%
%TO.N,unconnected-(U1-IO9-Pad11)*%
X136550000Y-134755000D03*
%TO.P,U1,12,IO10*%
%TO.N,/BAT_ADC*%
X136550000Y-132215000D03*
%TO.P,U1,13,IO11*%
%TO.N,unconnected-(U1-IO11-Pad13)*%
X136550000Y-129675000D03*
%TO.P,U1,14,IO12*%
%TO.N,unconnected-(U1-IO12-Pad14)*%
X136550000Y-127135000D03*
%TO.P,U1,15,IO13*%
%TO.N,/RGB*%
X136550000Y-124595000D03*
%TO.P,U1,16,3V3*%
%TO.N,/3V3*%
X136550000Y-122055000D03*
%TO.P,U1,17,GND*%
%TO.N,GND*%
X136550000Y-119515000D03*
%TO.P,U1,18,5V*%
%TO.N,/5V*%
X136550000Y-116975000D03*
%TD*%
D21*
%TO.P,C8,1*%
%TO.N,/6V*%
X165250000Y-78425000D03*
%TO.P,C8,2*%
%TO.N,GND*%
X165250000Y-80500000D03*
%TD*%
D25*
%TO.P,C17,1*%
%TO.N,/BUTTON*%
X166662500Y-119800000D03*
%TO.P,C17,2*%
%TO.N,GND*%
X168737500Y-119800000D03*
%TD*%
D19*
%TO.P,R4,1*%
%TO.N,/5V*%
X147450000Y-92300000D03*
%TO.P,R4,2*%
%TO.N,Net-(U4-IN1)*%
X147450000Y-94300000D03*
%TD*%
D26*
%TO.P,C4,1*%
%TO.N,/VBAT*%
X165300000Y-84375000D03*
%TO.P,C4,2*%
%TO.N,GND*%
X165300000Y-82300000D03*
%TD*%
%TO.P,C2,1*%
%TO.N,/VBAT*%
X163300000Y-84375000D03*
%TO.P,C2,2*%
%TO.N,GND*%
X163300000Y-82300000D03*
%TD*%
D27*
%TO.P,SW2,1,1*%
%TO.N,/BUTTON*%
X172100000Y-126300000D03*
%TO.P,SW2,2,2*%
%TO.N,GND*%
X172100000Y-118500002D03*
%TD*%
D28*
%TO.P,R9,1*%
%TO.N,/BUTTON*%
X168700000Y-124600000D03*
%TO.P,R9,2*%
%TO.N,/3V3*%
X166700000Y-124600000D03*
%TD*%
D29*
%TO.N,GND*%
X143250000Y-119515000D03*
X144900000Y-92565000D03*
X134100000Y-119300000D03*
X147450000Y-96100000D03*
X129000000Y-135700000D03*
X168737500Y-119800000D03*
X165750000Y-49750000D03*
X143250000Y-100250000D03*
X128100000Y-75550002D03*
X140300000Y-82037500D03*
X151250000Y-92350000D03*
X143000000Y-71535002D03*
X121535002Y-70785002D03*
X175000000Y-61500000D03*
X117500000Y-59500000D03*
X136550000Y-119515000D03*
X154100000Y-91295000D03*
%TO.N,/VBAT*%
X121750000Y-127000000D03*
%TO.N,/5V*%
X147250000Y-101000000D03*
X136550000Y-116975000D03*
X147450000Y-92300000D03*
X151250000Y-88550000D03*
%TO.N,/6V*%
X163249997Y-78425000D03*
X155750000Y-83670001D03*
%TO.N,/RGB*%
X128500000Y-126700000D03*
%TO.N,/3V3*%
X136550000Y-122055000D03*
X128500000Y-121800000D03*
X163200000Y-125300000D03*
X148000000Y-122055000D03*
X173382057Y-71367943D03*
X118500000Y-59000000D03*
%TO.N,Net-(D4-K)*%
X144900000Y-90025000D03*
%TO.N,Net-(D4-A)*%
X144900000Y-96375000D03*
%TO.N,Net-(U4-IN1)*%
X147450000Y-94300000D03*
%TO.N,Net-(U4-IN4)*%
X151250000Y-90550000D03*
%TO.N,/PWM_A*%
X147450000Y-90500000D03*
%TO.N,Net-(U4-IN2)*%
X147450000Y-98100000D03*
%TO.N,/PWM_B*%
X151250000Y-98150000D03*
%TO.N,/SCL*%
X174000000Y-59500000D03*
X160969669Y-48280331D03*
X116500000Y-61500000D03*
X153258949Y-76497017D03*
%TO.N,/SDA*%
X152500000Y-76750000D03*
X173000000Y-59500000D03*
X121750000Y-73000000D03*
X158726679Y-47023321D03*
%TO.N,Net-(BT1-+)*%
X129000000Y-82500000D03*
%TO.N,Net-(U4-IN3)*%
X151250000Y-94350000D03*
%TD*%
D30*
%TO.N,GND*%
X136517500Y-119482500D02*
X136550000Y-119515000D01*
X163300000Y-80550003D02*
X163249997Y-80500000D01*
X147450000Y-96100000D02*
X147500000Y-96100000D01*
X155205000Y-91295000D02*
X156750000Y-89750000D01*
X159687500Y-81960000D02*
X160000000Y-81960000D01*
X141250000Y-96609998D02*
X139300000Y-94659998D01*
X165800295Y-47030000D02*
X165800295Y-49699705D01*
X163300000Y-82300000D02*
X163300000Y-80550003D01*
X141250000Y-98750000D02*
X141250000Y-96609998D01*
X145750000Y-86300001D02*
X145750000Y-91715000D01*
X142750000Y-100250000D02*
X141250000Y-98750000D01*
X128100000Y-75550002D02*
X126250000Y-77400002D01*
X149070001Y-73650000D02*
X146955003Y-71535002D01*
X162750000Y-74731370D02*
X161750000Y-75731370D01*
X131162500Y-135700000D02*
X131300000Y-135837500D01*
X142362501Y-84100001D02*
X140300000Y-82037500D01*
X162960000Y-81960000D02*
X163300000Y-82300000D01*
X146955003Y-71535002D02*
X143000000Y-71535002D01*
D31*
X165800295Y-49699705D02*
X165750000Y-49750000D01*
D30*
X143550000Y-84100001D02*
X142362501Y-84100001D01*
X168737500Y-119800000D02*
X170800002Y-119800000D01*
X134315000Y-119515000D02*
X134100000Y-119300000D01*
X143550000Y-84100001D02*
X145750000Y-86300001D01*
X162750000Y-73600000D02*
X162750000Y-74731370D01*
X163249997Y-80500000D02*
X165250000Y-80500000D01*
X127599852Y-48650148D02*
X127599852Y-45770000D01*
X179430000Y-61600295D02*
X175100295Y-61600295D01*
X163300000Y-82300000D02*
X165300000Y-82300000D01*
X156750000Y-84897500D02*
X159687500Y-81960000D01*
X129000000Y-135700000D02*
X131162500Y-135700000D01*
X117500000Y-59500000D02*
X117500000Y-58750000D01*
X126250000Y-77400002D02*
X126250000Y-81750000D01*
X117500000Y-58750000D02*
X127599852Y-48650148D01*
X160000000Y-81960000D02*
X161750000Y-81960000D01*
X156750000Y-89750000D02*
X156750000Y-84897500D01*
X175100295Y-61600295D02*
X175000000Y-61500000D01*
X143250000Y-100250000D02*
X143250000Y-119515000D01*
X163300000Y-80575000D02*
X163325000Y-80575000D01*
X136335000Y-119300000D02*
X136517500Y-119482500D01*
X143250000Y-100250000D02*
X142750000Y-100250000D01*
X145750000Y-91715000D02*
X144900000Y-92565000D01*
X136550000Y-119515000D02*
X134315000Y-119515000D01*
X117500000Y-66750000D02*
X117500000Y-59500000D01*
X170800002Y-119800000D02*
X172100000Y-118500002D01*
X161750000Y-81960000D02*
X162960000Y-81960000D01*
X126250000Y-81750000D02*
X128000000Y-83500000D01*
X121535002Y-70785002D02*
X117500000Y-66750000D01*
X154100000Y-91295000D02*
X155205000Y-91295000D01*
X128000000Y-83500000D02*
X132750000Y-83500000D01*
X161750000Y-75731370D02*
X161750000Y-81960000D01*
X165250000Y-82250000D02*
X165300000Y-82300000D01*
D32*
%TO.N,/VBAT*%
X129000000Y-129800000D02*
X124550000Y-129800000D01*
X124550000Y-129800000D02*
X121750000Y-127000000D01*
X163175000Y-84500000D02*
X163300000Y-84375000D01*
X160000000Y-84500000D02*
X163175000Y-84500000D01*
X163300000Y-84375000D02*
X165300000Y-84375000D01*
D30*
%TO.N,/5V*%
X149000000Y-93500000D02*
X147800000Y-92300000D01*
X147250000Y-100096878D02*
X149000000Y-98346878D01*
X136300000Y-117225000D02*
X136550000Y-116975000D01*
X147800000Y-92300000D02*
X147450000Y-92300000D01*
D31*
X151200000Y-88550000D02*
X151250000Y-88550000D01*
D30*
X134100000Y-117225000D02*
X136300000Y-117225000D01*
X147250000Y-101000000D02*
X147250000Y-100096878D01*
X149000000Y-98346878D02*
X149000000Y-93500000D01*
%TO.N,/6V*%
X165250000Y-78425000D02*
X163249997Y-78425000D01*
X160000000Y-79500000D02*
X160000000Y-79420001D01*
X155750000Y-83670001D02*
X160000000Y-79420001D01*
%TO.N,/BUTTON*%
X154995000Y-122500000D02*
X166600000Y-122500000D01*
X166600000Y-122500000D02*
X166662500Y-122562500D01*
X170400000Y-124600000D02*
X172100000Y-126300000D01*
X166662500Y-122562500D02*
X168700000Y-124600000D01*
X168700000Y-124600000D02*
X170400000Y-124600000D01*
X166662500Y-119800000D02*
X166662500Y-122562500D01*
X154550000Y-122055000D02*
X154995000Y-122500000D01*
D32*
%TO.N,Net-(D2-K)*%
X164400000Y-88259998D02*
X166559998Y-88259998D01*
X166559998Y-88259998D02*
X166800000Y-88500000D01*
%TO.N,Net-(D2-A)*%
X166699998Y-90800000D02*
X166800000Y-90699998D01*
X164400000Y-90800000D02*
X166699998Y-90800000D01*
D31*
%TO.N,/RGB*%
X135944999Y-125200000D02*
X136549999Y-124595000D01*
X128550000Y-126750000D02*
X128500000Y-126700000D01*
X128500000Y-126700000D02*
X128400000Y-126700000D01*
X134394999Y-126750000D02*
X128550000Y-126750000D01*
X136549999Y-124595000D02*
X134394999Y-126750000D01*
X128400000Y-126700000D02*
X126900000Y-125200000D01*
D30*
%TO.N,/3V3*%
X151610000Y-73650000D02*
X148745002Y-70785002D01*
X128500000Y-121800000D02*
X136295000Y-121800000D01*
X128300000Y-121800000D02*
X126900000Y-123200000D01*
X163900000Y-124600000D02*
X165250000Y-124600000D01*
X165250000Y-127150000D02*
X165250000Y-124600000D01*
X149750000Y-98801472D02*
X149750000Y-96000000D01*
X147450000Y-88500000D02*
X149250000Y-88500000D01*
X163200000Y-125300000D02*
X163900000Y-124600000D01*
X129799557Y-47700443D02*
X129799557Y-44500000D01*
X149750000Y-96000000D02*
X149900000Y-96150000D01*
X149250000Y-88500000D02*
X149250000Y-80250000D01*
X163200000Y-129200000D02*
X165250000Y-127150000D01*
X136295000Y-121800000D02*
X136550000Y-122055000D01*
X151500000Y-73760000D02*
X151610000Y-73650000D01*
X173382057Y-71367943D02*
X153892057Y-71367943D01*
X151500000Y-78000000D02*
X151500000Y-73760000D01*
X149400000Y-41400000D02*
X149400000Y-41300000D01*
X118500000Y-59000000D02*
X129799557Y-47700443D01*
X149250000Y-80250000D02*
X151500000Y-78000000D01*
X153892057Y-71367943D02*
X151610000Y-73650000D01*
X148000000Y-100551472D02*
X149750000Y-98801472D01*
X149750000Y-89000000D02*
X149250000Y-88500000D01*
X122785002Y-70785002D02*
X118500000Y-66500000D01*
X165250000Y-124600000D02*
X166700000Y-124600000D01*
X118500000Y-66500000D02*
X118500000Y-59000000D01*
X149900000Y-96150000D02*
X151250000Y-96150000D01*
X128500000Y-121800000D02*
X128300000Y-121800000D01*
X149750000Y-96000000D02*
X149750000Y-89000000D01*
X148745002Y-70785002D02*
X122785002Y-70785002D01*
X148000000Y-122055000D02*
X148000000Y-100551472D01*
D32*
%TO.N,Net-(D4-K)*%
X132750000Y-89294888D02*
X134732388Y-89294888D01*
D30*
X126629997Y-88200002D02*
X126800000Y-88029999D01*
D32*
X131485111Y-88029999D02*
X132750000Y-89294888D01*
X126800000Y-88029999D02*
X131485111Y-88029999D01*
X124170003Y-88029999D02*
X124000000Y-88200002D01*
X134732388Y-89294888D02*
X135462500Y-90025000D01*
X126800000Y-88029999D02*
X124170003Y-88029999D01*
X144900000Y-90025000D02*
X135462500Y-90025000D01*
%TO.N,Net-(D4-A)*%
X144900000Y-96375000D02*
X143875000Y-96375000D01*
X140250000Y-92750000D02*
X134205111Y-92750000D01*
X126800000Y-90570001D02*
X127524888Y-91294889D01*
X126629999Y-90400000D02*
X126800000Y-90570001D01*
X127524888Y-91294889D02*
X132750000Y-91294889D01*
X134205111Y-92750000D02*
X132750000Y-91294889D01*
X124170001Y-90570001D02*
X124000000Y-90400000D01*
X126800000Y-90570001D02*
X124170001Y-90570001D01*
X143875000Y-96375000D02*
X140250000Y-92750000D01*
D30*
%TO.N,/BAT_ADC*%
X133285000Y-132215000D02*
X136550000Y-132215000D01*
X131237500Y-133700000D02*
X131300000Y-133762500D01*
X131737500Y-133762500D02*
X133285000Y-132215000D01*
X129000000Y-131800000D02*
X129000000Y-133700000D01*
X131300000Y-133762500D02*
X131737500Y-133762500D01*
X129000000Y-133700000D02*
X131237500Y-133700000D01*
D31*
%TO.N,/PWM_A*%
X146400000Y-91550000D02*
X147450000Y-90500000D01*
X151965000Y-132215000D02*
X146400000Y-126650000D01*
X146400000Y-126650000D02*
X146400000Y-91550000D01*
X154550000Y-132215000D02*
X151965000Y-132215000D01*
%TO.N,/PWM_B*%
X149500000Y-99900000D02*
X151250000Y-98150000D01*
X154550000Y-129675000D02*
X149500000Y-124625000D01*
X149500000Y-124625000D02*
X149500000Y-99900000D01*
%TO.N,/SCL*%
X157845001Y-124595001D02*
X160550000Y-127300000D01*
X160550000Y-127300000D02*
X163200000Y-127300000D01*
X116500000Y-58750000D02*
X125400149Y-49849851D01*
X154550000Y-124595001D02*
X157845001Y-124595001D01*
X174099409Y-59400591D02*
X174000000Y-59500000D01*
X153450000Y-79450000D02*
X153450000Y-76688068D01*
X134500000Y-72250000D02*
X133934998Y-72815002D01*
X152000000Y-122045001D02*
X154550000Y-124595001D01*
X145130000Y-72250000D02*
X134500000Y-72250000D01*
X116500000Y-66750000D02*
X116500000Y-61500000D01*
X153450000Y-79450000D02*
X153450000Y-100550000D01*
X153450000Y-76688068D02*
X153258949Y-76497017D01*
X125400149Y-49849851D02*
X125400149Y-47040000D01*
X152000000Y-102000000D02*
X152000000Y-122045001D01*
X153450000Y-100550000D02*
X152000000Y-102000000D01*
X122565002Y-72815002D02*
X116500000Y-66750000D01*
X116500000Y-61500000D02*
X116500000Y-58750000D01*
X178160000Y-59400591D02*
X174099409Y-59400591D01*
X163600591Y-45760000D02*
X161080260Y-48280331D01*
X146530000Y-73650000D02*
X145130000Y-72250000D01*
X161080260Y-48280331D02*
X160969669Y-48280331D01*
X133934998Y-72815002D02*
X122565002Y-72815002D01*
%TO.N,/SDA*%
X175299114Y-57200886D02*
X173000000Y-59500000D01*
X113768647Y-67100000D02*
X115850000Y-67100000D01*
X161400886Y-44490000D02*
X158867565Y-47023321D01*
X176890000Y-57200886D02*
X175299114Y-57200886D01*
X150750000Y-123335000D02*
X154550000Y-127135000D01*
X110468205Y-63799558D02*
X113768647Y-67100000D01*
X123200443Y-51299557D02*
X123200443Y-48310000D01*
X115850000Y-67100000D02*
X115850000Y-58650000D01*
X152500000Y-79750000D02*
X152500000Y-76750000D01*
X154550000Y-127135000D02*
X156385000Y-127135000D01*
X121750000Y-73000000D02*
X115850000Y-67100000D01*
X150750000Y-101750000D02*
X150750000Y-123335000D01*
X156385000Y-127135000D02*
X160450000Y-131200000D01*
X160450000Y-131200000D02*
X163200000Y-131200000D01*
X152500000Y-100000000D02*
X150750000Y-101750000D01*
X115850000Y-58650000D02*
X123200443Y-51299557D01*
X158867565Y-47023321D02*
X158726679Y-47023321D01*
X152500000Y-79750000D02*
X152500000Y-100000000D01*
D32*
%TO.N,Net-(BT1-+)*%
X129000000Y-78750000D02*
X131699999Y-76050001D01*
X131699999Y-76050001D02*
X132300000Y-76050001D01*
X129000000Y-82500000D02*
X129000000Y-78750000D01*
%TD*%
%TA.AperFunction,Conductor*%
%TO.N,GND*%
G36*
X109070126Y-64131872D02*
G01*
X109117673Y-64183068D01*
X109126926Y-64207994D01*
X109139046Y-64255855D01*
X109232280Y-64468406D01*
X109359221Y-64662705D01*
X109359224Y-64662709D01*
X109359226Y-64662711D01*
X109516421Y-64833471D01*
X109516424Y-64833473D01*
X109516427Y-64833476D01*
X109699570Y-64976022D01*
X109699576Y-64976026D01*
X109699579Y-64976028D01*
X109903702Y-65086494D01*
X110017692Y-65125626D01*
X110123220Y-65161855D01*
X110123222Y-65161855D01*
X110123224Y-65161856D01*
X110352156Y-65200058D01*
X110352157Y-65200058D01*
X110584253Y-65200058D01*
X110584254Y-65200058D01*
X110813186Y-65161856D01*
X110818149Y-65160599D01*
X110818462Y-65161838D01*
X110882237Y-65158948D01*
X110940405Y-65191704D01*
X113353972Y-67605272D01*
X113353973Y-67605273D01*
X113353976Y-67605275D01*
X113353978Y-67605277D01*
X113460520Y-67676465D01*
X113578903Y-67725501D01*
X113578907Y-67725501D01*
X113578908Y-67725502D01*
X113704575Y-67750500D01*
X113704578Y-67750500D01*
X115529192Y-67750500D01*
X115596231Y-67770185D01*
X115616873Y-67786819D01*
X120928277Y-73098223D01*
X120961762Y-73159546D01*
X120963815Y-73172012D01*
X120964630Y-73179246D01*
X120964632Y-73179255D01*
X121024210Y-73349521D01*
X121081378Y-73440503D01*
X121120184Y-73502262D01*
X121247738Y-73629816D01*
X121400478Y-73725789D01*
X121570745Y-73785368D01*
X121570750Y-73785369D01*
X121749996Y-73805565D01*
X121750000Y-73805565D01*
X121750004Y-73805565D01*
X121929249Y-73785369D01*
X121929252Y-73785368D01*
X121929255Y-73785368D01*
X122099522Y-73725789D01*
X122252262Y-73629816D01*
X122379816Y-73502262D01*
X122379816Y-73502261D01*
X122383705Y-73498373D01*
X122445028Y-73464888D01*
X122495579Y-73464437D01*
X122500933Y-73465502D01*
X131021500Y-73465502D01*
X131088539Y-73485187D01*
X131134294Y-73537991D01*
X131145500Y-73589502D01*
X131145500Y-74751870D01*
X131145501Y-74751876D01*
X131151908Y-74811483D01*
X131202202Y-74946328D01*
X131202206Y-74946335D01*
X131288452Y-75061544D01*
X131289767Y-75062859D01*
X131290657Y-75064490D01*
X131293768Y-75068645D01*
X131293170Y-75069092D01*
X131323252Y-75124182D01*
X131318268Y-75193874D01*
X131276396Y-75249807D01*
X131270983Y-75253637D01*
X131248161Y-75268887D01*
X131185039Y-75311064D01*
X131185038Y-75311065D01*
X131125960Y-75350538D01*
X128300540Y-78175958D01*
X128300534Y-78175965D01*
X128271839Y-78218912D01*
X128271839Y-78218913D01*
X128201985Y-78323455D01*
X128168046Y-78405393D01*
X128134106Y-78487330D01*
X128134103Y-78487342D01*
X128106913Y-78624038D01*
X128099500Y-78661304D01*
X128099500Y-82588695D01*
X128134103Y-82762658D01*
X128134106Y-82762667D01*
X128201983Y-82926540D01*
X128201990Y-82926553D01*
X128300535Y-83074034D01*
X128300538Y-83074038D01*
X128425961Y-83199461D01*
X128425965Y-83199464D01*
X128573446Y-83298009D01*
X128573459Y-83298016D01*
X128683984Y-83343796D01*
X128737334Y-83365894D01*
X128737336Y-83365894D01*
X128737341Y-83365896D01*
X128911304Y-83400499D01*
X128911307Y-83400500D01*
X128911309Y-83400500D01*
X129088693Y-83400500D01*
X129088694Y-83400499D01*
X129146682Y-83388964D01*
X129262658Y-83365896D01*
X129262661Y-83365894D01*
X129262666Y-83365894D01*
X129426547Y-83298013D01*
X129574035Y-83199464D01*
X129699464Y-83074035D01*
X129798013Y-82926547D01*
X129801753Y-82917519D01*
X129830748Y-82847516D01*
X129865894Y-82762666D01*
X129874127Y-82721279D01*
X129900499Y-82588695D01*
X129900500Y-82588693D01*
X129900500Y-79174361D01*
X129920185Y-79107322D01*
X129936814Y-79086685D01*
X130939607Y-78083891D01*
X131000930Y-78050407D01*
X131070622Y-78055391D01*
X131126555Y-78097263D01*
X131150759Y-78160131D01*
X131160296Y-78263050D01*
X131160296Y-78263052D01*
X131218846Y-78468837D01*
X131218849Y-78468843D01*
X131234365Y-78500003D01*
X131314219Y-78660372D01*
X131443159Y-78831116D01*
X131558891Y-78936620D01*
X131595171Y-78996328D01*
X131593411Y-79066176D01*
X131554168Y-79123984D01*
X131494751Y-79150728D01*
X131423783Y-79161968D01*
X131423782Y-79161968D01*
X131256799Y-79216224D01*
X131256796Y-79216225D01*
X131100350Y-79295939D01*
X130958299Y-79399146D01*
X130834146Y-79523299D01*
X130730939Y-79665350D01*
X130651225Y-79821796D01*
X130651224Y-79821799D01*
X130596968Y-79988782D01*
X130596968Y-79988785D01*
X130569500Y-80162209D01*
X130569500Y-80337790D01*
X130596968Y-80511214D01*
X130596968Y-80511217D01*
X130651224Y-80678200D01*
X130651225Y-80678203D01*
X130713030Y-80799500D01*
X130730939Y-80834649D01*
X130834145Y-80976699D01*
X130958301Y-81100855D01*
X131100351Y-81204061D01*
X131177083Y-81243157D01*
X131256796Y-81283774D01*
X131256799Y-81283775D01*
X131398156Y-81329704D01*
X131423787Y-81338032D01*
X131597208Y-81365500D01*
X131597209Y-81365500D01*
X133002791Y-81365500D01*
X133002792Y-81365500D01*
X133176213Y-81338032D01*
X133176216Y-81338031D01*
X133176217Y-81338031D01*
X133343200Y-81283775D01*
X133343203Y-81283774D01*
X133368544Y-81270862D01*
X133499649Y-81204061D01*
X133641699Y-81100855D01*
X133765855Y-80976699D01*
X133869061Y-80834649D01*
X133948774Y-80678203D01*
X133986899Y-80560867D01*
X134003031Y-80511217D01*
X134003031Y-80511216D01*
X134003032Y-80511213D01*
X134030500Y-80337792D01*
X134030500Y-80162208D01*
X134003032Y-79988787D01*
X134003031Y-79988783D01*
X134003031Y-79988782D01*
X133948775Y-79821799D01*
X133948774Y-79821796D01*
X133869060Y-79665350D01*
X133843452Y-79630104D01*
X133765855Y-79523301D01*
X133641699Y-79399145D01*
X133499649Y-79295939D01*
X133343203Y-79216225D01*
X133343200Y-79216224D01*
X133176215Y-79161968D01*
X133105249Y-79150728D01*
X133042114Y-79120799D01*
X133005183Y-79061487D01*
X133006181Y-78991624D01*
X133041107Y-78936620D01*
X133156841Y-78831116D01*
X133285781Y-78660372D01*
X133381151Y-78468842D01*
X133381151Y-78468839D01*
X133381153Y-78468837D01*
X133425857Y-78311717D01*
X133439704Y-78263050D01*
X133459446Y-78050002D01*
X133439704Y-77836954D01*
X133420131Y-77768163D01*
X133381153Y-77631166D01*
X133381150Y-77631160D01*
X133350641Y-77569890D01*
X133285781Y-77439632D01*
X133156841Y-77268888D01*
X133017254Y-77141638D01*
X132980972Y-77081927D01*
X132982733Y-77012080D01*
X133017251Y-76958367D01*
X133156841Y-76831115D01*
X133285781Y-76660371D01*
X133381151Y-76468841D01*
X133381151Y-76468838D01*
X133381153Y-76468836D01*
X133439703Y-76263051D01*
X133439704Y-76263048D01*
X133459446Y-76050001D01*
X133459446Y-76050000D01*
X133439704Y-75836953D01*
X133439703Y-75836950D01*
X133381153Y-75631165D01*
X133381150Y-75631159D01*
X133361908Y-75592516D01*
X133285781Y-75439631D01*
X133187724Y-75309783D01*
X133163033Y-75244423D01*
X133177598Y-75176088D01*
X133212366Y-75135791D01*
X133311546Y-75061546D01*
X133397796Y-74946331D01*
X133448091Y-74811483D01*
X133454500Y-74751873D01*
X133454499Y-73589501D01*
X133474184Y-73522463D01*
X133526987Y-73476708D01*
X133578499Y-73465502D01*
X133999069Y-73465502D01*
X134099088Y-73445606D01*
X134124742Y-73440503D01*
X134243125Y-73391467D01*
X134349667Y-73320279D01*
X134733127Y-72936819D01*
X134794450Y-72903334D01*
X134820808Y-72900500D01*
X135034744Y-72900500D01*
X135101783Y-72920185D01*
X135147538Y-72972989D01*
X135157482Y-73042147D01*
X135147127Y-73076901D01*
X135137185Y-73098223D01*
X135096096Y-73186335D01*
X135096093Y-73186344D01*
X135034937Y-73414586D01*
X135034935Y-73414596D01*
X135014340Y-73649999D01*
X135014340Y-73650000D01*
X135034935Y-73885403D01*
X135034937Y-73885413D01*
X135096093Y-74113655D01*
X135096095Y-74113659D01*
X135096096Y-74113663D01*
X135160827Y-74252478D01*
X135195964Y-74327830D01*
X135195966Y-74327834D01*
X135254461Y-74411373D01*
X135331504Y-74521401D01*
X135498598Y-74688495D01*
X135584234Y-74748458D01*
X135692164Y-74824032D01*
X135692166Y-74824033D01*
X135692169Y-74824035D01*
X135906336Y-74923903D01*
X136134591Y-74985063D01*
X136322917Y-75001539D01*
X136369998Y-75005659D01*
X136369999Y-75005659D01*
X136370000Y-75005659D01*
X136409233Y-75002226D01*
X136605407Y-74985063D01*
X136833662Y-74923903D01*
X137047829Y-74824035D01*
X137241400Y-74688495D01*
X137408494Y-74521401D01*
X137538425Y-74335839D01*
X137593001Y-74292216D01*
X137662499Y-74285022D01*
X137724854Y-74316545D01*
X137741572Y-74335838D01*
X137871505Y-74521401D01*
X138038599Y-74688495D01*
X138124235Y-74748458D01*
X138232165Y-74824032D01*
X138232167Y-74824033D01*
X138232170Y-74824035D01*
X138446337Y-74923903D01*
X138674592Y-74985063D01*
X138862918Y-75001539D01*
X138909999Y-75005659D01*
X138910000Y-75005659D01*
X138910001Y-75005659D01*
X138949234Y-75002226D01*
X139145408Y-74985063D01*
X139373663Y-74923903D01*
X139587830Y-74824035D01*
X139781401Y-74688495D01*
X139948495Y-74521401D01*
X140078426Y-74335841D01*
X140133002Y-74292217D01*
X140202500Y-74285023D01*
X140264855Y-74316546D01*
X140281575Y-74335842D01*
X140411500Y-74521395D01*
X140411505Y-74521401D01*
X140578599Y-74688495D01*
X140664235Y-74748458D01*
X140772165Y-74824032D01*
X140772167Y-74824033D01*
X140772170Y-74824035D01*
X140986337Y-74923903D01*
X141214592Y-74985063D01*
X141402918Y-75001539D01*
X141449999Y-75005659D01*
X141450000Y-75005659D01*
X141450001Y-75005659D01*
X141489234Y-75002226D01*
X141685408Y-74985063D01*
X141913663Y-74923903D01*
X142127830Y-74824035D01*
X142321401Y-74688495D01*
X142488495Y-74521401D01*
X142618426Y-74335841D01*
X142673002Y-74292217D01*
X142742500Y-74285023D01*
X142804855Y-74316546D01*
X142821575Y-74335842D01*
X142951500Y-74521395D01*
X142951505Y-74521401D01*
X143118599Y-74688495D01*
X143204235Y-74748458D01*
X143312165Y-74824032D01*
X143312167Y-74824033D01*
X143312170Y-74824035D01*
X143526337Y-74923903D01*
X143645101Y-74955725D01*
X143704761Y-74992089D01*
X143735291Y-75054936D01*
X143726997Y-75124312D01*
X143682512Y-75178190D01*
X143615960Y-75199465D01*
X143613008Y-75199500D01*
X142727129Y-75199500D01*
X142727123Y-75199501D01*
X142667516Y-75205908D01*
X142532671Y-75256202D01*
X142532664Y-75256206D01*
X142417455Y-75342452D01*
X142417452Y-75342455D01*
X142331206Y-75457664D01*
X142331202Y-75457671D01*
X142280908Y-75592517D01*
X142274501Y-75652116D01*
X142274501Y-75652123D01*
X142274500Y-75652135D01*
X142274500Y-77347870D01*
X142274501Y-77347876D01*
X142280908Y-77407483D01*
X142331202Y-77542328D01*
X142331206Y-77542335D01*
X142397701Y-77631160D01*
X142417454Y-77657546D01*
X142426548Y-77664353D01*
X142468417Y-77720285D01*
X142473402Y-77789976D01*
X142453814Y-77834737D01*
X142444870Y-77847511D01*
X142444865Y-77847519D01*
X142348734Y-78053674D01*
X142348730Y-78053683D01*
X142289860Y-78273390D01*
X142289858Y-78273401D01*
X142270034Y-78499998D01*
X142270034Y-78500003D01*
X142289858Y-78726600D01*
X142289860Y-78726611D01*
X142348730Y-78946318D01*
X142348735Y-78946332D01*
X142444863Y-79152479D01*
X142495974Y-79225473D01*
X143175000Y-78546447D01*
X143175000Y-78552662D01*
X143202259Y-78654395D01*
X143254920Y-78745607D01*
X143329394Y-78820081D01*
X143420606Y-78872742D01*
X143522339Y-78900001D01*
X143528553Y-78900001D01*
X142849526Y-79579026D01*
X142922513Y-79630133D01*
X142922521Y-79630137D01*
X143128668Y-79726265D01*
X143128682Y-79726270D01*
X143348389Y-79785140D01*
X143348400Y-79785142D01*
X143574998Y-79804967D01*
X143575002Y-79804967D01*
X143801599Y-79785142D01*
X143801610Y-79785140D01*
X144021317Y-79726270D01*
X144021331Y-79726265D01*
X144227478Y-79630137D01*
X144300471Y-79579025D01*
X143621447Y-78900001D01*
X143627661Y-78900001D01*
X143729394Y-78872742D01*
X143820606Y-78820081D01*
X143895080Y-78745607D01*
X143947741Y-78654395D01*
X143975000Y-78552662D01*
X143975000Y-78546448D01*
X144654024Y-79225472D01*
X144705136Y-79152479D01*
X144801264Y-78946332D01*
X144801269Y-78946318D01*
X144860139Y-78726611D01*
X144860141Y-78726600D01*
X144879966Y-78500003D01*
X144879966Y-78499998D01*
X144860141Y-78273401D01*
X144860139Y-78273390D01*
X144801269Y-78053683D01*
X144801265Y-78053674D01*
X144705133Y-77847517D01*
X144696189Y-77834744D01*
X144673861Y-77768538D01*
X144690870Y-77700771D01*
X144723451Y-77664354D01*
X144732546Y-77657546D01*
X144818796Y-77542331D01*
X144869091Y-77407483D01*
X144875500Y-77347873D01*
X144875499Y-75652128D01*
X144869091Y-75592517D01*
X144818796Y-75457669D01*
X144818795Y-75457668D01*
X144818793Y-75457664D01*
X144732547Y-75342455D01*
X144732544Y-75342452D01*
X144617335Y-75256206D01*
X144617328Y-75256202D01*
X144482482Y-75205908D01*
X144482483Y-75205908D01*
X144422883Y-75199501D01*
X144422881Y-75199500D01*
X144422873Y-75199500D01*
X144422865Y-75199500D01*
X144366993Y-75199500D01*
X144299954Y-75179815D01*
X144254199Y-75127011D01*
X144244255Y-75057853D01*
X144273280Y-74994297D01*
X144332058Y-74956523D01*
X144334900Y-74955725D01*
X144453663Y-74923903D01*
X144667830Y-74824035D01*
X144861401Y-74688495D01*
X145028495Y-74521401D01*
X145158426Y-74335841D01*
X145213002Y-74292217D01*
X145282500Y-74285023D01*
X145344855Y-74316546D01*
X145361575Y-74335842D01*
X145491500Y-74521395D01*
X145491505Y-74521401D01*
X145658599Y-74688495D01*
X145744235Y-74748458D01*
X145852165Y-74824032D01*
X145852167Y-74824033D01*
X145852170Y-74824035D01*
X146066337Y-74923903D01*
X146294592Y-74985063D01*
X146482918Y-75001539D01*
X146529999Y-75005659D01*
X146530000Y-75005659D01*
X146530001Y-75005659D01*
X146569234Y-75002226D01*
X146765408Y-74985063D01*
X146993663Y-74923903D01*
X147207830Y-74824035D01*
X147401401Y-74688495D01*
X147568495Y-74521401D01*
X147698732Y-74335403D01*
X147753307Y-74291780D01*
X147822805Y-74284586D01*
X147885160Y-74316109D01*
X147901880Y-74335405D01*
X147955073Y-74411373D01*
X147955074Y-74411373D01*
X148587038Y-73779409D01*
X148604076Y-73842993D01*
X148669902Y-73957007D01*
X148762994Y-74050099D01*
X148877008Y-74115925D01*
X148940591Y-74132962D01*
X148308626Y-74764925D01*
X148392422Y-74823599D01*
X148606508Y-74923429D01*
X148606517Y-74923433D01*
X148834674Y-74984567D01*
X148834685Y-74984569D01*
X149069999Y-75005157D01*
X149070003Y-75005157D01*
X149305316Y-74984569D01*
X149305327Y-74984567D01*
X149533484Y-74923433D01*
X149533493Y-74923429D01*
X149747579Y-74823600D01*
X149747583Y-74823598D01*
X149831374Y-74764926D01*
X149831374Y-74764925D01*
X149199410Y-74132962D01*
X149262994Y-74115925D01*
X149377008Y-74050099D01*
X149470100Y-73957007D01*
X149535926Y-73842993D01*
X149552963Y-73779409D01*
X150184926Y-74411373D01*
X150238120Y-74335405D01*
X150292697Y-74291781D01*
X150362196Y-74284588D01*
X150424550Y-74316110D01*
X150441268Y-74335404D01*
X150441575Y-74335842D01*
X150571501Y-74521396D01*
X150571506Y-74521402D01*
X150713181Y-74663077D01*
X150746666Y-74724400D01*
X150749500Y-74750758D01*
X150749500Y-77637769D01*
X150729815Y-77704808D01*
X150713181Y-77725450D01*
X148667052Y-79771578D01*
X148667049Y-79771581D01*
X148638660Y-79814068D01*
X148638661Y-79814069D01*
X148584914Y-79894508D01*
X148528343Y-80031082D01*
X148528340Y-80031092D01*
X148499500Y-80176079D01*
X148499500Y-87415818D01*
X148479815Y-87482857D01*
X148427011Y-87528612D01*
X148357853Y-87538556D01*
X148310404Y-87521357D01*
X148219340Y-87465190D01*
X148219334Y-87465186D01*
X148052797Y-87410001D01*
X148052795Y-87410000D01*
X147950010Y-87399500D01*
X146949998Y-87399500D01*
X146949980Y-87399501D01*
X146847203Y-87410000D01*
X146847200Y-87410001D01*
X146680668Y-87465185D01*
X146680663Y-87465187D01*
X146531342Y-87557289D01*
X146407289Y-87681342D01*
X146315187Y-87830663D01*
X146315185Y-87830668D01*
X146287349Y-87914670D01*
X146260001Y-87997203D01*
X146260001Y-87997204D01*
X146260000Y-87997204D01*
X146249500Y-88099983D01*
X146249500Y-88900001D01*
X146249501Y-88900019D01*
X146260000Y-89002796D01*
X146260001Y-89002799D01*
X146315185Y-89169331D01*
X146315187Y-89169336D01*
X146333767Y-89199459D01*
X146407287Y-89318655D01*
X146407289Y-89318657D01*
X146500951Y-89412319D01*
X146534436Y-89473642D01*
X146529452Y-89543334D01*
X146500951Y-89587681D01*
X146407289Y-89681342D01*
X146315187Y-89830663D01*
X146315185Y-89830668D01*
X146291553Y-89901986D01*
X146260001Y-89997203D01*
X146260001Y-89997204D01*
X146260000Y-89997204D01*
X146249500Y-90099983D01*
X146249500Y-90729191D01*
X146229815Y-90796230D01*
X146213181Y-90816872D01*
X145894722Y-91135331D01*
X145894718Y-91135336D01*
X145847374Y-91206195D01*
X145847372Y-91206198D01*
X145823539Y-91241864D01*
X145823533Y-91241875D01*
X145774499Y-91360255D01*
X145774497Y-91360261D01*
X145749500Y-91485928D01*
X145749500Y-95651638D01*
X145729815Y-95718677D01*
X145677011Y-95764432D01*
X145607853Y-95774376D01*
X145544297Y-95745351D01*
X145537819Y-95739319D01*
X145474038Y-95675538D01*
X145474034Y-95675535D01*
X145326553Y-95576990D01*
X145326540Y-95576983D01*
X145162667Y-95509106D01*
X145162658Y-95509103D01*
X144988694Y-95474500D01*
X144988691Y-95474500D01*
X144299362Y-95474500D01*
X144232323Y-95454815D01*
X144211681Y-95438181D01*
X140824039Y-92050538D01*
X140824038Y-92050537D01*
X140803297Y-92036679D01*
X140741634Y-91995477D01*
X140676547Y-91951987D01*
X140676540Y-91951983D01*
X140594607Y-91918046D01*
X140594606Y-91918046D01*
X140512666Y-91884105D01*
X140512658Y-91884103D01*
X140338696Y-91849500D01*
X140338692Y-91849500D01*
X140338691Y-91849500D01*
X134629472Y-91849500D01*
X134562433Y-91829815D01*
X134541791Y-91813181D01*
X134090446Y-91361835D01*
X134056961Y-91300512D01*
X134054599Y-91284961D01*
X134035635Y-91068197D01*
X133987537Y-90888692D01*
X133976741Y-90848400D01*
X133976738Y-90848391D01*
X133962040Y-90816872D01*
X133880568Y-90642155D01*
X133871586Y-90629328D01*
X133849261Y-90563126D01*
X133866271Y-90495359D01*
X133898852Y-90458942D01*
X133907546Y-90452434D01*
X133993796Y-90337219D01*
X134016609Y-90276055D01*
X134058480Y-90220121D01*
X134123944Y-90195704D01*
X134132791Y-90195388D01*
X134308026Y-90195388D01*
X134375065Y-90215073D01*
X134395707Y-90231707D01*
X134763036Y-90599035D01*
X134826659Y-90662658D01*
X134888466Y-90724465D01*
X135035946Y-90823009D01*
X135035950Y-90823011D01*
X135035953Y-90823013D01*
X135194518Y-90888692D01*
X135199834Y-90890894D01*
X135199838Y-90890894D01*
X135199839Y-90890895D01*
X135373805Y-90925500D01*
X135373808Y-90925500D01*
X144988693Y-90925500D01*
X144988694Y-90925499D01*
X145046682Y-90913964D01*
X145162658Y-90890896D01*
X145162661Y-90890894D01*
X145162666Y-90890894D01*
X145326547Y-90823013D01*
X145474035Y-90724464D01*
X145599464Y-90599035D01*
X145698013Y-90451547D01*
X145765894Y-90287666D01*
X145768722Y-90273452D01*
X145800499Y-90113695D01*
X145800500Y-90113693D01*
X145800500Y-89936306D01*
X145800499Y-89936304D01*
X145765896Y-89762341D01*
X145765893Y-89762332D01*
X145698016Y-89598459D01*
X145698009Y-89598446D01*
X145599464Y-89450965D01*
X145599461Y-89450961D01*
X145474038Y-89325538D01*
X145474034Y-89325535D01*
X145326553Y-89226990D01*
X145326540Y-89226983D01*
X145162667Y-89159106D01*
X145162658Y-89159103D01*
X144988694Y-89124500D01*
X144988691Y-89124500D01*
X135886861Y-89124500D01*
X135819822Y-89104815D01*
X135799180Y-89088181D01*
X135306427Y-88595426D01*
X135306422Y-88595422D01*
X135241635Y-88552134D01*
X135241185Y-88551833D01*
X135158935Y-88496875D01*
X135076351Y-88462668D01*
X134995054Y-88428993D01*
X134995046Y-88428991D01*
X134821084Y-88394388D01*
X134821080Y-88394388D01*
X134821079Y-88394388D01*
X134132791Y-88394388D01*
X134065752Y-88374703D01*
X134019997Y-88321899D01*
X134016609Y-88313721D01*
X133993797Y-88252559D01*
X133993793Y-88252552D01*
X133907547Y-88137343D01*
X133907544Y-88137340D01*
X133792335Y-88051094D01*
X133792328Y-88051090D01*
X133657482Y-88000796D01*
X133657483Y-88000796D01*
X133597883Y-87994389D01*
X133597881Y-87994388D01*
X133597873Y-87994388D01*
X133597865Y-87994388D01*
X132774362Y-87994388D01*
X132707323Y-87974703D01*
X132686681Y-87958069D01*
X132059146Y-87330534D01*
X132059141Y-87330530D01*
X132000072Y-87291063D01*
X132000071Y-87291062D01*
X131911655Y-87231984D01*
X131911653Y-87231983D01*
X131829718Y-87198045D01*
X131829717Y-87198045D01*
X131747777Y-87164104D01*
X131747769Y-87164102D01*
X131573807Y-87129499D01*
X131573803Y-87129499D01*
X131573802Y-87129499D01*
X127928991Y-87129499D01*
X127861952Y-87109814D01*
X127837762Y-87089482D01*
X127751787Y-86996089D01*
X127751777Y-86996080D01*
X127568634Y-86853534D01*
X127568628Y-86853530D01*
X127364504Y-86743063D01*
X127364495Y-86743060D01*
X127144984Y-86667701D01*
X126973282Y-86639049D01*
X126916049Y-86629499D01*
X126683951Y-86629499D01*
X126638164Y-86637139D01*
X126455015Y-86667701D01*
X126235504Y-86743060D01*
X126235495Y-86743063D01*
X126031371Y-86853530D01*
X126031365Y-86853534D01*
X125848222Y-86996080D01*
X125848212Y-86996089D01*
X125762238Y-87089482D01*
X125702351Y-87125473D01*
X125671009Y-87129499D01*
X124081307Y-87129499D01*
X123907342Y-87164102D01*
X123907326Y-87164107D01*
X123791456Y-87212101D01*
X123791457Y-87212102D01*
X123743457Y-87231985D01*
X123644739Y-87297947D01*
X123595967Y-87330534D01*
X123595964Y-87330537D01*
X123300540Y-87625960D01*
X123300534Y-87625967D01*
X123201988Y-87773453D01*
X123134105Y-87937335D01*
X123134103Y-87937343D01*
X123099500Y-88111305D01*
X123099500Y-88288698D01*
X123134103Y-88462660D01*
X123134105Y-88462668D01*
X123201988Y-88626550D01*
X123300534Y-88774036D01*
X123300540Y-88774043D01*
X123425958Y-88899461D01*
X123425965Y-88899467D01*
X123573451Y-88998013D01*
X123573452Y-88998013D01*
X123573453Y-88998014D01*
X123737334Y-89065897D01*
X123911303Y-89100501D01*
X123911307Y-89100502D01*
X123911308Y-89100502D01*
X124088693Y-89100502D01*
X124088694Y-89100501D01*
X124262666Y-89065897D01*
X124426547Y-88998014D01*
X124496316Y-88951395D01*
X124562991Y-88930519D01*
X124565205Y-88930499D01*
X125671009Y-88930499D01*
X125738048Y-88950184D01*
X125762238Y-88970516D01*
X125848212Y-89063908D01*
X125848222Y-89063917D01*
X126025819Y-89202147D01*
X126066632Y-89258857D01*
X126070307Y-89328630D01*
X126035675Y-89389313D01*
X126025819Y-89397853D01*
X125848222Y-89536082D01*
X125848212Y-89536091D01*
X125762238Y-89629484D01*
X125702351Y-89665475D01*
X125671009Y-89669501D01*
X124565202Y-89669501D01*
X124498163Y-89649816D01*
X124496395Y-89648658D01*
X124426547Y-89601988D01*
X124426543Y-89601986D01*
X124262666Y-89534105D01*
X124262658Y-89534103D01*
X124088696Y-89499500D01*
X124088692Y-89499500D01*
X123911308Y-89499500D01*
X123911303Y-89499500D01*
X123737341Y-89534103D01*
X123737333Y-89534105D01*
X123573451Y-89601988D01*
X123425965Y-89700534D01*
X123425958Y-89700540D01*
X123300540Y-89825958D01*
X123300534Y-89825965D01*
X123201988Y-89973451D01*
X123134105Y-90137333D01*
X123134103Y-90137341D01*
X123099500Y-90311303D01*
X123099500Y-90488696D01*
X123134103Y-90662658D01*
X123134105Y-90662666D01*
X123201986Y-90826545D01*
X123244984Y-90890896D01*
X123300536Y-90974036D01*
X123470537Y-91144036D01*
X123568365Y-91241864D01*
X123595967Y-91269466D01*
X123602811Y-91274039D01*
X123743454Y-91368014D01*
X123791453Y-91387896D01*
X123907335Y-91435896D01*
X124073000Y-91468848D01*
X124081305Y-91470500D01*
X124081309Y-91470501D01*
X124081310Y-91470501D01*
X125671009Y-91470501D01*
X125738048Y-91490186D01*
X125762238Y-91510518D01*
X125848212Y-91603910D01*
X125848222Y-91603919D01*
X126031365Y-91746465D01*
X126031371Y-91746469D01*
X126031374Y-91746471D01*
X126235497Y-91856937D01*
X126314629Y-91884103D01*
X126455015Y-91932298D01*
X126455017Y-91932298D01*
X126455019Y-91932299D01*
X126683951Y-91970501D01*
X126683952Y-91970501D01*
X126877541Y-91970501D01*
X126944580Y-91990186D01*
X126946432Y-91991399D01*
X126950853Y-91994353D01*
X127098341Y-92092902D01*
X127098343Y-92092903D01*
X127098347Y-92092905D01*
X127209077Y-92138770D01*
X127262222Y-92160783D01*
X127262224Y-92160783D01*
X127262229Y-92160785D01*
X127436192Y-92195388D01*
X127436195Y-92195389D01*
X127436197Y-92195389D01*
X131759952Y-92195389D01*
X131826991Y-92215074D01*
X131847628Y-92231703D01*
X131910861Y-92294936D01*
X132097266Y-92425457D01*
X132303504Y-92521628D01*
X132523308Y-92580524D01*
X132740073Y-92599488D01*
X132805141Y-92624940D01*
X132816946Y-92635335D01*
X133505647Y-93324035D01*
X133631076Y-93449464D01*
X133778564Y-93548013D01*
X133778565Y-93548013D01*
X133778566Y-93548014D01*
X133778568Y-93548015D01*
X133818685Y-93564632D01*
X133818686Y-93564632D01*
X133942445Y-93615895D01*
X134116415Y-93650499D01*
X134116419Y-93650500D01*
X134116420Y-93650500D01*
X134293803Y-93650500D01*
X138058098Y-93650500D01*
X138125137Y-93670185D01*
X138170892Y-93722989D01*
X138180836Y-93792147D01*
X138161907Y-93842322D01*
X138064515Y-93991391D01*
X137971317Y-94203862D01*
X137914361Y-94428779D01*
X137895202Y-94659992D01*
X137895202Y-94660003D01*
X137914361Y-94891216D01*
X137971317Y-95116133D01*
X138064515Y-95328604D01*
X138148812Y-95457630D01*
X138817036Y-94789405D01*
X138834075Y-94852991D01*
X138899901Y-94967005D01*
X138992993Y-95060097D01*
X139107007Y-95125923D01*
X139170590Y-95142960D01*
X138501201Y-95812349D01*
X138526227Y-95831827D01*
X138567040Y-95888538D01*
X138570715Y-95958311D01*
X138536084Y-96018994D01*
X138526228Y-96027534D01*
X138348218Y-96166085D01*
X138191016Y-96336852D01*
X138064075Y-96531151D01*
X137970842Y-96743699D01*
X137913866Y-96968691D01*
X137913864Y-96968702D01*
X137894700Y-97199993D01*
X137894700Y-97200006D01*
X137913864Y-97431297D01*
X137913866Y-97431308D01*
X137970842Y-97656300D01*
X138064075Y-97868848D01*
X138191016Y-98063147D01*
X138191019Y-98063151D01*
X138191021Y-98063153D01*
X138348216Y-98233913D01*
X138348219Y-98233915D01*
X138348222Y-98233918D01*
X138531365Y-98376464D01*
X138531371Y-98376468D01*
X138531374Y-98376470D01*
X138698860Y-98467109D01*
X138722872Y-98480104D01*
X138735497Y-98486936D01*
X138849487Y-98526068D01*
X138955015Y-98562297D01*
X138955017Y-98562297D01*
X138955019Y-98562298D01*
X139183951Y-98600500D01*
X139183952Y-98600500D01*
X139416048Y-98600500D01*
X139416049Y-98600500D01*
X139644981Y-98562298D01*
X139864503Y-98486936D01*
X140068626Y-98376470D01*
X140251784Y-98233913D01*
X140408979Y-98063153D01*
X140535924Y-97868849D01*
X140629157Y-97656300D01*
X140686134Y-97431305D01*
X140699044Y-97275500D01*
X140705300Y-97200006D01*
X140705300Y-97199993D01*
X140686135Y-96968702D01*
X140686133Y-96968691D01*
X140629157Y-96743699D01*
X140535924Y-96531151D01*
X140408983Y-96336852D01*
X140408980Y-96336849D01*
X140408979Y-96336847D01*
X140251784Y-96166087D01*
X140251779Y-96166083D01*
X140251777Y-96166081D01*
X140073773Y-96027535D01*
X140032960Y-95970825D01*
X140029285Y-95901052D01*
X140063917Y-95840369D01*
X140073771Y-95831830D01*
X140098797Y-95812350D01*
X140098798Y-95812348D01*
X139429410Y-95142960D01*
X139492993Y-95125923D01*
X139607007Y-95060097D01*
X139700099Y-94967005D01*
X139765925Y-94852991D01*
X139782962Y-94789407D01*
X140451186Y-95457631D01*
X140535482Y-95328609D01*
X140628682Y-95116133D01*
X140685637Y-94891222D01*
X140696609Y-94758809D01*
X140721763Y-94693624D01*
X140778165Y-94652385D01*
X140847908Y-94648187D01*
X140907867Y-94681367D01*
X143300966Y-97074466D01*
X143360036Y-97113933D01*
X143360039Y-97113936D01*
X143448447Y-97173009D01*
X143448453Y-97173013D01*
X143530393Y-97206953D01*
X143612334Y-97240895D01*
X143786303Y-97275499D01*
X143786307Y-97275500D01*
X143786308Y-97275500D01*
X144988693Y-97275500D01*
X144988694Y-97275499D01*
X145046682Y-97263964D01*
X145162658Y-97240896D01*
X145162661Y-97240894D01*
X145162666Y-97240894D01*
X145326547Y-97173013D01*
X145474035Y-97074464D01*
X145483313Y-97065186D01*
X145537819Y-97010681D01*
X145599142Y-96977196D01*
X145668834Y-96982180D01*
X145724767Y-97024052D01*
X145749184Y-97089516D01*
X145749500Y-97098362D01*
X145749500Y-126714069D01*
X145765544Y-126794724D01*
X145769019Y-126812192D01*
X145774499Y-126839744D01*
X145809807Y-126924986D01*
X145823535Y-126958127D01*
X145894723Y-127064669D01*
X145894726Y-127064673D01*
X151550327Y-132720274D01*
X151550330Y-132720276D01*
X151605723Y-132757288D01*
X151656873Y-132791465D01*
X151775256Y-132840501D01*
X151775260Y-132840501D01*
X151775261Y-132840502D01*
X151900928Y-132865500D01*
X151900931Y-132865500D01*
X152860788Y-132865500D01*
X152927827Y-132885185D01*
X152971876Y-132934405D01*
X153040883Y-133073546D01*
X153161009Y-133222989D01*
X153161010Y-133222990D01*
X153310453Y-133343116D01*
X153372547Y-133373912D01*
X153423859Y-133421333D01*
X153441388Y-133488968D01*
X153419569Y-133555343D01*
X153372547Y-133596088D01*
X153310453Y-133626883D01*
X153161010Y-133747009D01*
X153161009Y-133747010D01*
X153040883Y-133896453D01*
X153040881Y-133896456D01*
X152955694Y-134068221D01*
X152909419Y-134254291D01*
X152906500Y-134297345D01*
X152906500Y-135212656D01*
X152906501Y-135212659D01*
X152909418Y-135255701D01*
X152909418Y-135255702D01*
X152955694Y-135441778D01*
X153040881Y-135613543D01*
X153040883Y-135613546D01*
X153161009Y-135762989D01*
X153161010Y-135762990D01*
X153310453Y-135883116D01*
X153372547Y-135913912D01*
X153423859Y-135961333D01*
X153441388Y-136028968D01*
X153419569Y-136095343D01*
X153372547Y-136136088D01*
X153310453Y-136166883D01*
X153161012Y-136287007D01*
X153161002Y-136287018D01*
X153089300Y-136376218D01*
X153031957Y-136416137D01*
X152991854Y-136422527D01*
X138028535Y-136325990D01*
X137961624Y-136305874D01*
X137941654Y-136289674D01*
X137938989Y-136287009D01*
X137789546Y-136166883D01*
X137789543Y-136166881D01*
X137727453Y-136136088D01*
X137676140Y-136088667D01*
X137658610Y-136021032D01*
X137680430Y-135954657D01*
X137727453Y-135913912D01*
X137789543Y-135883118D01*
X137789543Y-135883117D01*
X137789547Y-135883116D01*
X137938990Y-135762990D01*
X138059116Y-135613547D01*
X138144307Y-135441775D01*
X138190581Y-135255704D01*
X138193500Y-135212657D01*
X138193499Y-134297344D01*
X138190581Y-134254296D01*
X138144307Y-134068225D01*
X138110246Y-133999547D01*
X138059118Y-133896456D01*
X138059116Y-133896453D01*
X137938990Y-133747010D01*
X137938989Y-133747009D01*
X137789546Y-133626883D01*
X137789543Y-133626881D01*
X137727453Y-133596088D01*
X137676140Y-133548667D01*
X137658610Y-133481032D01*
X137680430Y-133414657D01*
X137727453Y-133373912D01*
X137789543Y-133343118D01*
X137789543Y-133343117D01*
X137789547Y-133343116D01*
X137938990Y-133222990D01*
X138059116Y-133073547D01*
X138144307Y-132901775D01*
X138190581Y-132715704D01*
X138193500Y-132672657D01*
X138193499Y-131757344D01*
X138190581Y-131714296D01*
X138144307Y-131528225D01*
X138127006Y-131493340D01*
X138059118Y-131356456D01*
X138059116Y-131356453D01*
X137938990Y-131207010D01*
X137938989Y-131207009D01*
X137789546Y-131086883D01*
X137789543Y-131086881D01*
X137727453Y-131056088D01*
X137676140Y-131008667D01*
X137658610Y-130941032D01*
X137680430Y-130874657D01*
X137727453Y-130833912D01*
X137789543Y-130803118D01*
X137789543Y-130803117D01*
X137789547Y-130803116D01*
X137938990Y-130682990D01*
X138059116Y-130533547D01*
X138144307Y-130361775D01*
X138190581Y-130175704D01*
X138193500Y-130132657D01*
X138193499Y-129217344D01*
X138190581Y-129174296D01*
X138144307Y-128988225D01*
X138124651Y-128948592D01*
X138059118Y-128816456D01*
X138059116Y-128816453D01*
X137938990Y-128667010D01*
X137938989Y-128667009D01*
X137789546Y-128546883D01*
X137789543Y-128546881D01*
X137727453Y-128516088D01*
X137676140Y-128468667D01*
X137658610Y-128401032D01*
X137680430Y-128334657D01*
X137727453Y-128293912D01*
X137789543Y-128263118D01*
X137789543Y-128263117D01*
X137789547Y-128263116D01*
X137938990Y-128142990D01*
X138059116Y-127993547D01*
X138144307Y-127821775D01*
X138190581Y-127635704D01*
X138193500Y-127592657D01*
X138193499Y-126677344D01*
X138190581Y-126634296D01*
X138144307Y-126448225D01*
X138110745Y-126380554D01*
X138059118Y-126276456D01*
X138059116Y-126276453D01*
X137938990Y-126127010D01*
X137938989Y-126127009D01*
X137789546Y-126006883D01*
X137789543Y-126006881D01*
X137727453Y-125976088D01*
X137676140Y-125928667D01*
X137658610Y-125861032D01*
X137680430Y-125794657D01*
X137727453Y-125753912D01*
X137789543Y-125723118D01*
X137789543Y-125723117D01*
X137789547Y-125723116D01*
X137938990Y-125602990D01*
X138059116Y-125453547D01*
X138144307Y-125281775D01*
X138190581Y-125095704D01*
X138193500Y-125052657D01*
X138193499Y-124137344D01*
X138190581Y-124094296D01*
X138144307Y-123908225D01*
X138115182Y-123849500D01*
X138059118Y-123736456D01*
X138059116Y-123736453D01*
X137938990Y-123587010D01*
X137938989Y-123587009D01*
X137789546Y-123466883D01*
X137789543Y-123466881D01*
X137727453Y-123436088D01*
X137676140Y-123388667D01*
X137658610Y-123321032D01*
X137680430Y-123254657D01*
X137727453Y-123213912D01*
X137789543Y-123183118D01*
X137789543Y-123183117D01*
X137789547Y-123183116D01*
X137938990Y-123062990D01*
X138059116Y-122913547D01*
X138144307Y-122741775D01*
X138190581Y-122555704D01*
X138193500Y-122512657D01*
X138193499Y-121597344D01*
X138190581Y-121554296D01*
X138144307Y-121368225D01*
X138069331Y-121217049D01*
X138059118Y-121196456D01*
X138059116Y-121196453D01*
X137938990Y-121047010D01*
X137938989Y-121047009D01*
X137789546Y-120926883D01*
X137789543Y-120926881D01*
X137617778Y-120841694D01*
X137617771Y-120841691D01*
X137525223Y-120818675D01*
X137467469Y-120786022D01*
X136550000Y-119868553D01*
X135632527Y-120786023D01*
X135574773Y-120818676D01*
X135482228Y-120841691D01*
X135482221Y-120841694D01*
X135310456Y-120926881D01*
X135310453Y-120926883D01*
X135191940Y-121022147D01*
X135127356Y-121048806D01*
X135114253Y-121049500D01*
X128799972Y-121049500D01*
X128759017Y-121042542D01*
X128679254Y-121014631D01*
X128679249Y-121014630D01*
X128500004Y-120994435D01*
X128499996Y-120994435D01*
X128320746Y-121014631D01*
X128320745Y-121014631D01*
X128222748Y-121048921D01*
X128205987Y-121053496D01*
X128081092Y-121078340D01*
X128081088Y-121078341D01*
X127944508Y-121134914D01*
X127944496Y-121134921D01*
X127895270Y-121167811D01*
X127895271Y-121167812D01*
X127821581Y-121217049D01*
X126975449Y-122063181D01*
X126914126Y-122096666D01*
X126887768Y-122099500D01*
X126399998Y-122099500D01*
X126399980Y-122099501D01*
X126297203Y-122110000D01*
X126297200Y-122110001D01*
X126130668Y-122165185D01*
X126130663Y-122165187D01*
X125981342Y-122257289D01*
X125857289Y-122381342D01*
X125765187Y-122530663D01*
X125765185Y-122530668D01*
X125744325Y-122593620D01*
X125710001Y-122697203D01*
X125710001Y-122697204D01*
X125710000Y-122697204D01*
X125699500Y-122799983D01*
X125699500Y-123600001D01*
X125699501Y-123600019D01*
X125710000Y-123702796D01*
X125710001Y-123702799D01*
X125765185Y-123869331D01*
X125765187Y-123869336D01*
X125789174Y-123908225D01*
X125856296Y-124017048D01*
X125857289Y-124018657D01*
X125950951Y-124112319D01*
X125984436Y-124173642D01*
X125979452Y-124243334D01*
X125950951Y-124287681D01*
X125857289Y-124381342D01*
X125765187Y-124530663D01*
X125765186Y-124530666D01*
X125710001Y-124697203D01*
X125710001Y-124697204D01*
X125710000Y-124697204D01*
X125699500Y-124799983D01*
X125699500Y-125600001D01*
X125699501Y-125600019D01*
X125710000Y-125702796D01*
X125710001Y-125702799D01*
X125765185Y-125869331D01*
X125765187Y-125869336D01*
X125781965Y-125896537D01*
X125857288Y-126018656D01*
X125981344Y-126142712D01*
X126130666Y-126234814D01*
X126297203Y-126289999D01*
X126399991Y-126300500D01*
X127029191Y-126300499D01*
X127096230Y-126320183D01*
X127116872Y-126336818D01*
X127724397Y-126944343D01*
X127753758Y-126991070D01*
X127774210Y-127049521D01*
X127804586Y-127097864D01*
X127870184Y-127202262D01*
X127997738Y-127329816D01*
X128070444Y-127375500D01*
X128150474Y-127425787D01*
X128150478Y-127425789D01*
X128320745Y-127485368D01*
X128320750Y-127485369D01*
X128499996Y-127505565D01*
X128500000Y-127505565D01*
X128500004Y-127505565D01*
X128679249Y-127485369D01*
X128679252Y-127485368D01*
X128679255Y-127485368D01*
X128849522Y-127425789D01*
X128850488Y-127425181D01*
X128859523Y-127419506D01*
X128925494Y-127400500D01*
X134459070Y-127400500D01*
X134543614Y-127383682D01*
X134584743Y-127375501D01*
X134703126Y-127326465D01*
X134713609Y-127319460D01*
X134780284Y-127298582D01*
X134847665Y-127317065D01*
X134894356Y-127369043D01*
X134906500Y-127422561D01*
X134906500Y-127592655D01*
X134906501Y-127592660D01*
X134909418Y-127635701D01*
X134909418Y-127635702D01*
X134940161Y-127759323D01*
X134951589Y-127805274D01*
X134955694Y-127821778D01*
X135040881Y-127993543D01*
X135040883Y-127993546D01*
X135161009Y-128142989D01*
X135161010Y-128142990D01*
X135310453Y-128263116D01*
X135372547Y-128293912D01*
X135423859Y-128341333D01*
X135441388Y-128408968D01*
X135419569Y-128475343D01*
X135372547Y-128516088D01*
X135310453Y-128546883D01*
X135161010Y-128667009D01*
X135161009Y-128667010D01*
X135040883Y-128816453D01*
X135040881Y-128816456D01*
X134955694Y-128988221D01*
X134909419Y-129174291D01*
X134906500Y-129217345D01*
X134906500Y-130132656D01*
X134906501Y-130132659D01*
X134909418Y-130175701D01*
X134909418Y-130175702D01*
X134955694Y-130361778D01*
X135040881Y-130533543D01*
X135040883Y-130533546D01*
X135161009Y-130682989D01*
X135161010Y-130682990D01*
X135310453Y-130803116D01*
X135372547Y-130833912D01*
X135423859Y-130881333D01*
X135441388Y-130948968D01*
X135419569Y-131015343D01*
X135372547Y-131056088D01*
X135310453Y-131086883D01*
X135161010Y-131207009D01*
X135161009Y-131207010D01*
X135040883Y-131356453D01*
X135021472Y-131395594D01*
X134974051Y-131446907D01*
X134910384Y-131464500D01*
X133211080Y-131464500D01*
X133066092Y-131493340D01*
X133066082Y-131493343D01*
X132929511Y-131549912D01*
X132929498Y-131549919D01*
X132806584Y-131632048D01*
X132806580Y-131632051D01*
X131800450Y-132638181D01*
X131739127Y-132671666D01*
X131712769Y-132674500D01*
X130774998Y-132674500D01*
X130774980Y-132674501D01*
X130672203Y-132685000D01*
X130672200Y-132685001D01*
X130505668Y-132740185D01*
X130505663Y-132740187D01*
X130356342Y-132832289D01*
X130275451Y-132913181D01*
X130214128Y-132946666D01*
X130187770Y-132949500D01*
X130153958Y-132949500D01*
X130086919Y-132929815D01*
X130048420Y-132890598D01*
X130042712Y-132881344D01*
X129999049Y-132837681D01*
X129965564Y-132776358D01*
X129970548Y-132706666D01*
X129999049Y-132662319D01*
X130042712Y-132618656D01*
X130134814Y-132469334D01*
X130189999Y-132302797D01*
X130200500Y-132200009D01*
X130200499Y-131399992D01*
X130196051Y-131356453D01*
X130189999Y-131297203D01*
X130189998Y-131297200D01*
X130160112Y-131207010D01*
X130134814Y-131130666D01*
X130042712Y-130981344D01*
X129949049Y-130887681D01*
X129915564Y-130826358D01*
X129920548Y-130756666D01*
X129949049Y-130712319D01*
X129995474Y-130665894D01*
X130042712Y-130618656D01*
X130134814Y-130469334D01*
X130189999Y-130302797D01*
X130200500Y-130200009D01*
X130200499Y-129399992D01*
X130189999Y-129297203D01*
X130134814Y-129130666D01*
X130042712Y-128981344D01*
X129918656Y-128857288D01*
X129769334Y-128765186D01*
X129602797Y-128710001D01*
X129602795Y-128710000D01*
X129500010Y-128699500D01*
X128499998Y-128699500D01*
X128499980Y-128699501D01*
X128397203Y-128710000D01*
X128397200Y-128710001D01*
X128230668Y-128765185D01*
X128230663Y-128765187D01*
X128081342Y-128857289D01*
X128075451Y-128863181D01*
X128014128Y-128896666D01*
X127987770Y-128899500D01*
X124974362Y-128899500D01*
X124907323Y-128879815D01*
X124886681Y-128863181D01*
X122324041Y-126300540D01*
X122324034Y-126300534D01*
X122176548Y-126201988D01*
X122012666Y-126134105D01*
X122012658Y-126134103D01*
X121838696Y-126099500D01*
X121838692Y-126099500D01*
X121661308Y-126099500D01*
X121661303Y-126099500D01*
X121487341Y-126134103D01*
X121487333Y-126134105D01*
X121323451Y-126201988D01*
X121175965Y-126300534D01*
X121175958Y-126300540D01*
X121050540Y-126425958D01*
X121050534Y-126425965D01*
X120951988Y-126573451D01*
X120884105Y-126737333D01*
X120884103Y-126737341D01*
X120849500Y-126911303D01*
X120849500Y-127088696D01*
X120884103Y-127262658D01*
X120884105Y-127262666D01*
X120951988Y-127426548D01*
X121050534Y-127574034D01*
X121050540Y-127574041D01*
X123975961Y-130499462D01*
X124022663Y-130530667D01*
X124123447Y-130598009D01*
X124123453Y-130598013D01*
X124205393Y-130631953D01*
X124287334Y-130665895D01*
X124444718Y-130697200D01*
X124461303Y-130700499D01*
X124461307Y-130700500D01*
X124461308Y-130700500D01*
X124461309Y-130700500D01*
X127938770Y-130700500D01*
X128005809Y-130720185D01*
X128051564Y-130772989D01*
X128061508Y-130842147D01*
X128032483Y-130905703D01*
X128026451Y-130912181D01*
X127957289Y-130981342D01*
X127865187Y-131130663D01*
X127865186Y-131130666D01*
X127810001Y-131297203D01*
X127810001Y-131297204D01*
X127810000Y-131297204D01*
X127799500Y-131399983D01*
X127799500Y-132200001D01*
X127799501Y-132200019D01*
X127810000Y-132302796D01*
X127810001Y-132302799D01*
X127865185Y-132469331D01*
X127865187Y-132469336D01*
X127957289Y-132618657D01*
X128000951Y-132662320D01*
X128034435Y-132723643D01*
X128029450Y-132793335D01*
X128000951Y-132837680D01*
X127957289Y-132881342D01*
X127865187Y-133030663D01*
X127865185Y-133030668D01*
X127837349Y-133114670D01*
X127810001Y-133197203D01*
X127810001Y-133197204D01*
X127810000Y-133197204D01*
X127799500Y-133299983D01*
X127799500Y-134100001D01*
X127799501Y-134100019D01*
X127810000Y-134202796D01*
X127810001Y-134202799D01*
X127865185Y-134369331D01*
X127865187Y-134369336D01*
X127896024Y-134419331D01*
X127947549Y-134502867D01*
X127957289Y-134518657D01*
X128051304Y-134612672D01*
X128084789Y-134673995D01*
X128079805Y-134743687D01*
X128051305Y-134788034D01*
X127957682Y-134881657D01*
X127865643Y-135030875D01*
X127865641Y-135030880D01*
X127810494Y-135197302D01*
X127810493Y-135197309D01*
X127800000Y-135300013D01*
X127800000Y-135450000D01*
X130119000Y-135450000D01*
X130186039Y-135469685D01*
X130231794Y-135522489D01*
X130243000Y-135574000D01*
X130243000Y-135587500D01*
X132524999Y-135587500D01*
X132524999Y-135450028D01*
X132524998Y-135450013D01*
X132514505Y-135347302D01*
X132459358Y-135180880D01*
X132459356Y-135180875D01*
X132367315Y-135031654D01*
X132243344Y-134907683D01*
X132243341Y-134907681D01*
X132240339Y-134905829D01*
X132238713Y-134904021D01*
X132237677Y-134903202D01*
X132237817Y-134903024D01*
X132193617Y-134853880D01*
X132182397Y-134784917D01*
X132210243Y-134720836D01*
X132240344Y-134694754D01*
X132243656Y-134692712D01*
X132367712Y-134568656D01*
X132459814Y-134419334D01*
X132514999Y-134252797D01*
X132525500Y-134150009D01*
X132525499Y-134087228D01*
X132545183Y-134020190D01*
X132561813Y-133999552D01*
X133559548Y-133001819D01*
X133620871Y-132968334D01*
X133647229Y-132965500D01*
X134910384Y-132965500D01*
X134977423Y-132985185D01*
X135021472Y-133034406D01*
X135040883Y-133073546D01*
X135161009Y-133222989D01*
X135161010Y-133222990D01*
X135310453Y-133343116D01*
X135372547Y-133373912D01*
X135423859Y-133421333D01*
X135441388Y-133488968D01*
X135419569Y-133555343D01*
X135372547Y-133596088D01*
X135310453Y-133626883D01*
X135161010Y-133747009D01*
X135161009Y-133747010D01*
X135040883Y-133896453D01*
X135040881Y-133896456D01*
X134955694Y-134068221D01*
X134909419Y-134254291D01*
X134906500Y-134297345D01*
X134906500Y-135212656D01*
X134906501Y-135212659D01*
X134909418Y-135255701D01*
X134909418Y-135255702D01*
X134955694Y-135441778D01*
X135040881Y-135613543D01*
X135040883Y-135613546D01*
X135161009Y-135762989D01*
X135161010Y-135762990D01*
X135310453Y-135883116D01*
X135372547Y-135913912D01*
X135423859Y-135961333D01*
X135441388Y-136028968D01*
X135419569Y-136095343D01*
X135372547Y-136136088D01*
X135310456Y-136166882D01*
X135310454Y-136166883D01*
X135310453Y-136166884D01*
X135252563Y-136213416D01*
X135170112Y-136279693D01*
X135105528Y-136306351D01*
X135091625Y-136307042D01*
X132648200Y-136291277D01*
X132581289Y-136271161D01*
X132535876Y-136218063D01*
X132525000Y-136167280D01*
X132525000Y-136087500D01*
X130156000Y-136087500D01*
X130088961Y-136067815D01*
X130043206Y-136015011D01*
X130032000Y-135963500D01*
X130032000Y-135950000D01*
X127800001Y-135950000D01*
X127800001Y-136099971D01*
X127800002Y-136099991D01*
X127802313Y-136122616D01*
X127789543Y-136191308D01*
X127741662Y-136242192D01*
X127678155Y-136259213D01*
X126250000Y-136249999D01*
X126250000Y-139475500D01*
X126230315Y-139542539D01*
X126177511Y-139588294D01*
X126126000Y-139599500D01*
X118204428Y-139599500D01*
X118195582Y-139599184D01*
X118173622Y-139597613D01*
X117995442Y-139584869D01*
X117977931Y-139582351D01*
X117786212Y-139540646D01*
X117769236Y-139535662D01*
X117585390Y-139467090D01*
X117569298Y-139459740D01*
X117397095Y-139365711D01*
X117382210Y-139356146D01*
X117225132Y-139238558D01*
X117211762Y-139226972D01*
X117073027Y-139088237D01*
X117061441Y-139074867D01*
X116943849Y-138917784D01*
X116934288Y-138902904D01*
X116840259Y-138730701D01*
X116832909Y-138714609D01*
X116772091Y-138551551D01*
X116764334Y-138530755D01*
X116759355Y-138513797D01*
X116717647Y-138322063D01*
X116715130Y-138304556D01*
X116700816Y-138104418D01*
X116700500Y-138095572D01*
X116700500Y-133993713D01*
X120849500Y-133993713D01*
X120849500Y-134206286D01*
X120875324Y-134369336D01*
X120882754Y-134416243D01*
X120932276Y-134568656D01*
X120948444Y-134618414D01*
X121044951Y-134807820D01*
X121169890Y-134979786D01*
X121320213Y-135130109D01*
X121492179Y-135255048D01*
X121492181Y-135255049D01*
X121492184Y-135255051D01*
X121681588Y-135351557D01*
X121883757Y-135417246D01*
X122093713Y-135450500D01*
X122093714Y-135450500D01*
X122306286Y-135450500D01*
X122306287Y-135450500D01*
X122516243Y-135417246D01*
X122718412Y-135351557D01*
X122907816Y-135255051D01*
X122987292Y-135197309D01*
X123079786Y-135130109D01*
X123079788Y-135130106D01*
X123079792Y-135130104D01*
X123230104Y-134979792D01*
X123230106Y-134979788D01*
X123230109Y-134979786D01*
X123355048Y-134807820D01*
X123355047Y-134807820D01*
X123355051Y-134807816D01*
X123451557Y-134618412D01*
X123517246Y-134416243D01*
X123550500Y-134206287D01*
X123550500Y-133993713D01*
X123517246Y-133783757D01*
X123451557Y-133581588D01*
X123355051Y-133392184D01*
X123355049Y-133392181D01*
X123355048Y-133392179D01*
X123230109Y-133220213D01*
X123079786Y-133069890D01*
X122907820Y-132944951D01*
X122718414Y-132848444D01*
X122718413Y-132848443D01*
X122718412Y-132848443D01*
X122516243Y-132782754D01*
X122516241Y-132782753D01*
X122516240Y-132782753D01*
X122354957Y-132757208D01*
X122306287Y-132749500D01*
X122093713Y-132749500D01*
X122045042Y-132757208D01*
X121883760Y-132782753D01*
X121681585Y-132848444D01*
X121492179Y-132944951D01*
X121320213Y-133069890D01*
X121169890Y-133220213D01*
X121044951Y-133392179D01*
X120948444Y-133581585D01*
X120882753Y-133783760D01*
X120849500Y-133993713D01*
X116700500Y-133993713D01*
X116700500Y-119687486D01*
X132875001Y-119687486D01*
X132885494Y-119790197D01*
X132940641Y-119956619D01*
X132940643Y-119956624D01*
X133032684Y-120105845D01*
X133156654Y-120229815D01*
X133305875Y-120321856D01*
X133305880Y-120321858D01*
X133472302Y-120377005D01*
X133472309Y-120377006D01*
X133575019Y-120387499D01*
X133849999Y-120387499D01*
X133850000Y-120387498D01*
X133850000Y-119550000D01*
X132875001Y-119550000D01*
X132875001Y-119687486D01*
X116700500Y-119687486D01*
X116700500Y-116837483D01*
X132874500Y-116837483D01*
X132874500Y-117612501D01*
X132874501Y-117612519D01*
X132885000Y-117715296D01*
X132885001Y-117715299D01*
X132924184Y-117833543D01*
X132940186Y-117881834D01*
X133032288Y-118031156D01*
X133156344Y-118155212D01*
X133159628Y-118157237D01*
X133159653Y-118157253D01*
X133161445Y-118159246D01*
X133162011Y-118159693D01*
X133161934Y-118159789D01*
X133206379Y-118209199D01*
X133217603Y-118278161D01*
X133189761Y-118342244D01*
X133159665Y-118368326D01*
X133156660Y-118370179D01*
X133156655Y-118370183D01*
X133032684Y-118494154D01*
X132940643Y-118643375D01*
X132940641Y-118643380D01*
X132885494Y-118809802D01*
X132885493Y-118809809D01*
X132875000Y-118912513D01*
X132875000Y-119050000D01*
X134226000Y-119050000D01*
X134293039Y-119069685D01*
X134338794Y-119122489D01*
X134350000Y-119174000D01*
X134350000Y-120387499D01*
X134624972Y-120387499D01*
X134624986Y-120387498D01*
X134727697Y-120377005D01*
X134896915Y-120320932D01*
X134966743Y-120318530D01*
X135026785Y-120354262D01*
X135040390Y-120371841D01*
X135041305Y-120373272D01*
X135161363Y-120522632D01*
X135176580Y-120534864D01*
X136196447Y-119515000D01*
X136196447Y-119514999D01*
X136903553Y-119514999D01*
X136903553Y-119515000D01*
X137923417Y-120534864D01*
X137938635Y-120522631D01*
X138058692Y-120373275D01*
X138143834Y-120201602D01*
X138190081Y-120015640D01*
X138192999Y-119972604D01*
X138192999Y-119057394D01*
X138192998Y-119057390D01*
X138190082Y-119014367D01*
X138190082Y-119014365D01*
X138143834Y-118828397D01*
X138058692Y-118656724D01*
X137938637Y-118507369D01*
X137938629Y-118507362D01*
X137923418Y-118495133D01*
X136903553Y-119514999D01*
X136196447Y-119514999D01*
X135158694Y-118477247D01*
X135149343Y-118473942D01*
X135134251Y-118461090D01*
X135043344Y-118370183D01*
X135043341Y-118370181D01*
X135040339Y-118368329D01*
X135038713Y-118366521D01*
X135037677Y-118365702D01*
X135037817Y-118365524D01*
X134993617Y-118316380D01*
X134982397Y-118247417D01*
X135010243Y-118183336D01*
X135040344Y-118157254D01*
X135043656Y-118155212D01*
X135112765Y-118086103D01*
X135174088Y-118052618D01*
X135243780Y-118057602D01*
X135278133Y-118077136D01*
X135310453Y-118103116D01*
X135482225Y-118188307D01*
X135574775Y-118211323D01*
X135632530Y-118243977D01*
X136550000Y-119161447D01*
X136550001Y-119161447D01*
X137467470Y-118243976D01*
X137525222Y-118211323D01*
X137617775Y-118188307D01*
X137789547Y-118103116D01*
X137938990Y-117982990D01*
X138059116Y-117833547D01*
X138144307Y-117661775D01*
X138190581Y-117475704D01*
X138193500Y-117432657D01*
X138193499Y-116517344D01*
X138190581Y-116474296D01*
X138144307Y-116288225D01*
X138099730Y-116198344D01*
X138059118Y-116116456D01*
X138059116Y-116116453D01*
X137938990Y-115967010D01*
X137938989Y-115967009D01*
X137789546Y-115846883D01*
X137789543Y-115846881D01*
X137617778Y-115761694D01*
X137617776Y-115761693D01*
X137617775Y-115761693D01*
X137579939Y-115752283D01*
X137431708Y-115715419D01*
X137407105Y-115713751D01*
X137388657Y-115712500D01*
X137388654Y-115712500D01*
X135711343Y-115712500D01*
X135711340Y-115712501D01*
X135668298Y-115715418D01*
X135668297Y-115715418D01*
X135482221Y-115761694D01*
X135310456Y-115846881D01*
X135310453Y-115846883D01*
X135161010Y-115967009D01*
X135161009Y-115967010D01*
X135040884Y-116116452D01*
X135031320Y-116135736D01*
X134983897Y-116187047D01*
X134916261Y-116204574D01*
X134881232Y-116198344D01*
X134727797Y-116147501D01*
X134727795Y-116147500D01*
X134625010Y-116137000D01*
X133574998Y-116137000D01*
X133574980Y-116137001D01*
X133472203Y-116147500D01*
X133472200Y-116147501D01*
X133305668Y-116202685D01*
X133305663Y-116202687D01*
X133156342Y-116294789D01*
X133032289Y-116418842D01*
X132940187Y-116568163D01*
X132940186Y-116568166D01*
X132885001Y-116734703D01*
X132885001Y-116734704D01*
X132885000Y-116734704D01*
X132874500Y-116837483D01*
X116700500Y-116837483D01*
X116700500Y-115343713D01*
X129499500Y-115343713D01*
X129499500Y-115556286D01*
X129532033Y-115761694D01*
X129532754Y-115766243D01*
X129597987Y-115967010D01*
X129598444Y-115968414D01*
X129694951Y-116157820D01*
X129819890Y-116329786D01*
X129970213Y-116480109D01*
X130142179Y-116605048D01*
X130142181Y-116605049D01*
X130142184Y-116605051D01*
X130331588Y-116701557D01*
X130533757Y-116767246D01*
X130743713Y-116800500D01*
X130743714Y-116800500D01*
X130956286Y-116800500D01*
X130956287Y-116800500D01*
X131166243Y-116767246D01*
X131368412Y-116701557D01*
X131557816Y-116605051D01*
X131579789Y-116589086D01*
X131729786Y-116480109D01*
X131729788Y-116480106D01*
X131729792Y-116480104D01*
X131880104Y-116329792D01*
X131880106Y-116329788D01*
X131880109Y-116329786D01*
X132005048Y-116157820D01*
X132005047Y-116157820D01*
X132005051Y-116157816D01*
X132101557Y-115968412D01*
X132167246Y-115766243D01*
X132200500Y-115556287D01*
X132200500Y-115343713D01*
X132167246Y-115133757D01*
X132101557Y-114931588D01*
X132005051Y-114742184D01*
X132005049Y-114742181D01*
X132005048Y-114742179D01*
X131880109Y-114570213D01*
X131729786Y-114419890D01*
X131557820Y-114294951D01*
X131368414Y-114198444D01*
X131368413Y-114198443D01*
X131368412Y-114198443D01*
X131166243Y-114132754D01*
X131166241Y-114132753D01*
X131166240Y-114132753D01*
X131004957Y-114107208D01*
X130956287Y-114099500D01*
X130743713Y-114099500D01*
X130695042Y-114107208D01*
X130533760Y-114132753D01*
X130331585Y-114198444D01*
X130142179Y-114294951D01*
X129970213Y-114419890D01*
X129819890Y-114570213D01*
X129694951Y-114742179D01*
X129598444Y-114931585D01*
X129532753Y-115133760D01*
X129499500Y-115343713D01*
X116700500Y-115343713D01*
X116700500Y-97343713D01*
X129499500Y-97343713D01*
X129499500Y-97556286D01*
X129532753Y-97766239D01*
X129598444Y-97968414D01*
X129694951Y-98157820D01*
X129819890Y-98329786D01*
X129970213Y-98480109D01*
X130142179Y-98605048D01*
X130142181Y-98605049D01*
X130142184Y-98605051D01*
X130331588Y-98701557D01*
X130533757Y-98767246D01*
X130743713Y-98800500D01*
X130743714Y-98800500D01*
X130956286Y-98800500D01*
X130956287Y-98800500D01*
X131166243Y-98767246D01*
X131368412Y-98701557D01*
X131557816Y-98605051D01*
X131616662Y-98562297D01*
X131729786Y-98480109D01*
X131729788Y-98480106D01*
X131729792Y-98480104D01*
X131880104Y-98329792D01*
X131880106Y-98329788D01*
X131880109Y-98329786D01*
X132005048Y-98157820D01*
X132005047Y-98157820D01*
X132005051Y-98157816D01*
X132101557Y-97968412D01*
X132167246Y-97766243D01*
X132200500Y-97556287D01*
X132200500Y-97343713D01*
X132167246Y-97133757D01*
X132101557Y-96931588D01*
X132005051Y-96742184D01*
X132005049Y-96742181D01*
X132005048Y-96742179D01*
X131880109Y-96570213D01*
X131729786Y-96419890D01*
X131557820Y-96294951D01*
X131368414Y-96198444D01*
X131368413Y-96198443D01*
X131368412Y-96198443D01*
X131166243Y-96132754D01*
X131166241Y-96132753D01*
X131166240Y-96132753D01*
X131004957Y-96107208D01*
X130956287Y-96099500D01*
X130743713Y-96099500D01*
X130695042Y-96107208D01*
X130533760Y-96132753D01*
X130331585Y-96198444D01*
X130142179Y-96294951D01*
X129970213Y-96419890D01*
X129819890Y-96570213D01*
X129694951Y-96742179D01*
X129598444Y-96931585D01*
X129532753Y-97133760D01*
X129499500Y-97343713D01*
X116700500Y-97343713D01*
X116700500Y-83499997D01*
X131445034Y-83499997D01*
X131445034Y-83500002D01*
X131464858Y-83726599D01*
X131464860Y-83726610D01*
X131523730Y-83946317D01*
X131523734Y-83946326D01*
X131619866Y-84152483D01*
X131619869Y-84152487D01*
X131628810Y-84165257D01*
X131651137Y-84231463D01*
X131634126Y-84299231D01*
X131601553Y-84335642D01*
X131592458Y-84342451D01*
X131592451Y-84342458D01*
X131506206Y-84457665D01*
X131506202Y-84457672D01*
X131455908Y-84592518D01*
X131449501Y-84652117D01*
X131449501Y-84652124D01*
X131449500Y-84652136D01*
X131449500Y-86347871D01*
X131449501Y-86347877D01*
X131455908Y-86407484D01*
X131506202Y-86542329D01*
X131506206Y-86542336D01*
X131592452Y-86657545D01*
X131592455Y-86657548D01*
X131707664Y-86743794D01*
X131707671Y-86743798D01*
X131842517Y-86794092D01*
X131842516Y-86794092D01*
X131849444Y-86794836D01*
X131902127Y-86800501D01*
X133597872Y-86800500D01*
X133657483Y-86794092D01*
X133792331Y-86743797D01*
X133907546Y-86657547D01*
X133993796Y-86542332D01*
X134044091Y-86407484D01*
X134050500Y-86347874D01*
X134050499Y-84652129D01*
X134044091Y-84592518D01*
X134009584Y-84500001D01*
X133993797Y-84457672D01*
X133993793Y-84457665D01*
X133907548Y-84342457D01*
X133907546Y-84342456D01*
X133907546Y-84342455D01*
X133898450Y-84335646D01*
X133856581Y-84279714D01*
X133851597Y-84210023D01*
X133871191Y-84165253D01*
X133880136Y-84152478D01*
X133904608Y-84099998D01*
X142245034Y-84099998D01*
X142245034Y-84100003D01*
X142264858Y-84326600D01*
X142264860Y-84326611D01*
X142323730Y-84546318D01*
X142323735Y-84546332D01*
X142419863Y-84752479D01*
X142470974Y-84825473D01*
X143150000Y-84146447D01*
X143150000Y-84152662D01*
X143177259Y-84254395D01*
X143229920Y-84345607D01*
X143304394Y-84420081D01*
X143395606Y-84472742D01*
X143497339Y-84500001D01*
X143503553Y-84500001D01*
X142824526Y-85179026D01*
X142897513Y-85230133D01*
X142897521Y-85230137D01*
X143103668Y-85326265D01*
X143103682Y-85326270D01*
X143323389Y-85385140D01*
X143323400Y-85385142D01*
X143549998Y-85404967D01*
X143550002Y-85404967D01*
X143776599Y-85385142D01*
X143776610Y-85385140D01*
X143996317Y-85326270D01*
X143996331Y-85326265D01*
X144202478Y-85230137D01*
X144275471Y-85179025D01*
X143596447Y-84500001D01*
X143602661Y-84500001D01*
X143704394Y-84472742D01*
X143795606Y-84420081D01*
X143870080Y-84345607D01*
X143922741Y-84254395D01*
X143950000Y-84152662D01*
X143950000Y-84146448D01*
X144629024Y-84825472D01*
X144680136Y-84752479D01*
X144776264Y-84546332D01*
X144776269Y-84546318D01*
X144835139Y-84326611D01*
X144835141Y-84326600D01*
X144854966Y-84100003D01*
X144854966Y-84099998D01*
X144835141Y-83873401D01*
X144835139Y-83873390D01*
X144776269Y-83653683D01*
X144776265Y-83653674D01*
X144680133Y-83447517D01*
X144671189Y-83434744D01*
X144648861Y-83368538D01*
X144665870Y-83300771D01*
X144698451Y-83264354D01*
X144707546Y-83257546D01*
X144793796Y-83142331D01*
X144844091Y-83007483D01*
X144850500Y-82947873D01*
X144850499Y-81252128D01*
X144844091Y-81192517D01*
X144835506Y-81169500D01*
X144793797Y-81057671D01*
X144793793Y-81057664D01*
X144707547Y-80942455D01*
X144707544Y-80942452D01*
X144592335Y-80856206D01*
X144592328Y-80856202D01*
X144457482Y-80805908D01*
X144457483Y-80805908D01*
X144397883Y-80799501D01*
X144397881Y-80799500D01*
X144397873Y-80799500D01*
X144397864Y-80799500D01*
X142702129Y-80799500D01*
X142702123Y-80799501D01*
X142642516Y-80805908D01*
X142507671Y-80856202D01*
X142507664Y-80856206D01*
X142392455Y-80942452D01*
X142392452Y-80942455D01*
X142306206Y-81057664D01*
X142306202Y-81057671D01*
X142255908Y-81192517D01*
X142250319Y-81244507D01*
X142249501Y-81252123D01*
X142249500Y-81252135D01*
X142249500Y-82947870D01*
X142249501Y-82947876D01*
X142255908Y-83007483D01*
X142306202Y-83142328D01*
X142306206Y-83142335D01*
X142375184Y-83234476D01*
X142392454Y-83257546D01*
X142401548Y-83264353D01*
X142443417Y-83320285D01*
X142448402Y-83389976D01*
X142428814Y-83434737D01*
X142419870Y-83447511D01*
X142419865Y-83447519D01*
X142323734Y-83653674D01*
X142323730Y-83653683D01*
X142264860Y-83873390D01*
X142264858Y-83873401D01*
X142245034Y-84099998D01*
X133904608Y-84099998D01*
X133976264Y-83946331D01*
X133976269Y-83946317D01*
X134035139Y-83726610D01*
X134035141Y-83726599D01*
X134054966Y-83500002D01*
X134054966Y-83499997D01*
X134035141Y-83273400D01*
X134035139Y-83273389D01*
X133976269Y-83053682D01*
X133976264Y-83053668D01*
X133880136Y-82847521D01*
X133880132Y-82847513D01*
X133829025Y-82774526D01*
X133150000Y-83453551D01*
X133150000Y-83447339D01*
X133122741Y-83345606D01*
X133070080Y-83254394D01*
X132995606Y-83179920D01*
X132904394Y-83127259D01*
X132802661Y-83100000D01*
X132796448Y-83100000D01*
X133475472Y-82420974D01*
X133402478Y-82369863D01*
X133196331Y-82273735D01*
X133196317Y-82273730D01*
X132976610Y-82214860D01*
X132976599Y-82214858D01*
X132750002Y-82195034D01*
X132749998Y-82195034D01*
X132523400Y-82214858D01*
X132523389Y-82214860D01*
X132303682Y-82273730D01*
X132303673Y-82273734D01*
X132097516Y-82369866D01*
X132097512Y-82369868D01*
X132024526Y-82420973D01*
X132024526Y-82420974D01*
X132703553Y-83100000D01*
X132697339Y-83100000D01*
X132595606Y-83127259D01*
X132504394Y-83179920D01*
X132429920Y-83254394D01*
X132377259Y-83345606D01*
X132350000Y-83447339D01*
X132350000Y-83453552D01*
X131670974Y-82774526D01*
X131670973Y-82774526D01*
X131619868Y-82847512D01*
X131619866Y-82847516D01*
X131523734Y-83053673D01*
X131523730Y-83053682D01*
X131464860Y-83273389D01*
X131464858Y-83273400D01*
X131445034Y-83499997D01*
X116700500Y-83499997D01*
X116700500Y-78493713D01*
X120849500Y-78493713D01*
X120849500Y-78706286D01*
X120882603Y-78915295D01*
X120882754Y-78916243D01*
X120938527Y-79087895D01*
X120948444Y-79118414D01*
X121044951Y-79307820D01*
X121169890Y-79479786D01*
X121320213Y-79630109D01*
X121492179Y-79755048D01*
X121492181Y-79755049D01*
X121492184Y-79755051D01*
X121681588Y-79851557D01*
X121883757Y-79917246D01*
X122093713Y-79950500D01*
X122093714Y-79950500D01*
X122306286Y-79950500D01*
X122306287Y-79950500D01*
X122516243Y-79917246D01*
X122718412Y-79851557D01*
X122907816Y-79755051D01*
X122991634Y-79694154D01*
X123079786Y-79630109D01*
X123079788Y-79630106D01*
X123079792Y-79630104D01*
X123230104Y-79479792D01*
X123230106Y-79479788D01*
X123230109Y-79479786D01*
X123355048Y-79307820D01*
X123355047Y-79307820D01*
X123355051Y-79307816D01*
X123451557Y-79118412D01*
X123517246Y-78916243D01*
X123550500Y-78706287D01*
X123550500Y-78493713D01*
X123517246Y-78283757D01*
X123451557Y-78081588D01*
X123355051Y-77892184D01*
X123355049Y-77892181D01*
X123355048Y-77892179D01*
X123230109Y-77720213D01*
X123079786Y-77569890D01*
X122907820Y-77444951D01*
X122718414Y-77348444D01*
X122718413Y-77348443D01*
X122718412Y-77348443D01*
X122516243Y-77282754D01*
X122516241Y-77282753D01*
X122516240Y-77282753D01*
X122354957Y-77257208D01*
X122306287Y-77249500D01*
X122093713Y-77249500D01*
X122045042Y-77257208D01*
X121883760Y-77282753D01*
X121883757Y-77282754D01*
X121683312Y-77347883D01*
X121681585Y-77348444D01*
X121492179Y-77444951D01*
X121320213Y-77569890D01*
X121169890Y-77720213D01*
X121044951Y-77892179D01*
X120948444Y-78081585D01*
X120882753Y-78283760D01*
X120849500Y-78493713D01*
X116700500Y-78493713D01*
X116700500Y-73448745D01*
X116688452Y-73349522D01*
X116664037Y-73148449D01*
X116591643Y-72854734D01*
X116591642Y-72854731D01*
X116591641Y-72854727D01*
X116484371Y-72571882D01*
X116348486Y-72312977D01*
X116343792Y-72304033D01*
X116260263Y-72183020D01*
X116171952Y-72055078D01*
X116171947Y-72055072D01*
X115971353Y-71828648D01*
X115971351Y-71828646D01*
X115744927Y-71628052D01*
X115744921Y-71628047D01*
X115495973Y-71456212D01*
X115495964Y-71456206D01*
X115228117Y-71315628D01*
X114945272Y-71208358D01*
X114829820Y-71179902D01*
X114651551Y-71135963D01*
X114471371Y-71114085D01*
X114351254Y-71099500D01*
X114351252Y-71099500D01*
X114265892Y-71099500D01*
X110458676Y-71099500D01*
X110391637Y-71079815D01*
X110370995Y-71063181D01*
X107520117Y-68212303D01*
X107486632Y-68150980D01*
X107489327Y-68088005D01*
X107748881Y-67248298D01*
X107750044Y-67244737D01*
X108155066Y-66066760D01*
X108156353Y-66063195D01*
X108598186Y-64898381D01*
X108599551Y-64894948D01*
X108892220Y-64190840D01*
X108936127Y-64136493D01*
X109002448Y-64114510D01*
X109070126Y-64131872D01*
G37*
%TD.AperFunction*%
%TA.AperFunction,Conductor*%
G36*
X172205703Y-59703401D02*
G01*
X172241542Y-59756160D01*
X172274210Y-59849521D01*
X172278841Y-59856891D01*
X172370184Y-60002262D01*
X172497738Y-60129816D01*
X172542521Y-60157955D01*
X172609904Y-60200295D01*
X172650478Y-60225789D01*
X172758930Y-60263738D01*
X172820745Y-60285368D01*
X172820750Y-60285369D01*
X172999996Y-60305565D01*
X173000000Y-60305565D01*
X173000004Y-60305565D01*
X173179249Y-60285369D01*
X173179252Y-60285368D01*
X173179255Y-60285368D01*
X173349522Y-60225789D01*
X173390021Y-60200342D01*
X173434027Y-60172691D01*
X173501264Y-60153690D01*
X173565973Y-60172691D01*
X173650475Y-60225788D01*
X173820745Y-60285368D01*
X173820750Y-60285369D01*
X173999996Y-60305565D01*
X174000000Y-60305565D01*
X174000004Y-60305565D01*
X174179249Y-60285369D01*
X174179252Y-60285368D01*
X174179255Y-60285368D01*
X174349522Y-60225789D01*
X174502262Y-60129816D01*
X174544668Y-60087410D01*
X174605991Y-60053925D01*
X174632349Y-60051091D01*
X176844983Y-60051091D01*
X176912022Y-60070776D01*
X176948790Y-60107268D01*
X176963521Y-60129815D01*
X177051016Y-60263738D01*
X177051019Y-60263742D01*
X177051021Y-60263744D01*
X177208216Y-60434504D01*
X177208219Y-60434506D01*
X177208222Y-60434509D01*
X177391365Y-60577055D01*
X177391371Y-60577059D01*
X177391374Y-60577061D01*
X177595497Y-60687527D01*
X177709487Y-60726659D01*
X177815015Y-60762888D01*
X177815017Y-60762888D01*
X177815019Y-60762889D01*
X178043951Y-60801091D01*
X178043952Y-60801091D01*
X178062004Y-60801091D01*
X178129043Y-60820776D01*
X178174798Y-60873580D01*
X178184742Y-60942738D01*
X178175560Y-60974902D01*
X178163609Y-61002147D01*
X179076448Y-61246740D01*
X179029901Y-61293288D01*
X178964075Y-61407302D01*
X178930000Y-61534469D01*
X178930000Y-61666121D01*
X178947037Y-61729704D01*
X178034734Y-61485254D01*
X178025202Y-61600300D01*
X178044361Y-61831513D01*
X178101317Y-62056430D01*
X178194516Y-62268904D01*
X178321414Y-62463137D01*
X178478558Y-62633840D01*
X178478562Y-62633843D01*
X178661644Y-62776342D01*
X178661648Y-62776345D01*
X178831438Y-62868230D01*
X179076445Y-61953846D01*
X179122993Y-62000394D01*
X179237007Y-62066220D01*
X179364174Y-62100295D01*
X179495826Y-62100295D01*
X179559408Y-62083257D01*
X179313702Y-63000246D01*
X179313991Y-63000294D01*
X179313992Y-63000295D01*
X179331678Y-63000295D01*
X179398717Y-63019980D01*
X179444472Y-63072784D01*
X179454416Y-63141942D01*
X179445234Y-63174105D01*
X179370842Y-63343699D01*
X179313866Y-63568691D01*
X179313864Y-63568702D01*
X179294700Y-63799993D01*
X179294700Y-63800006D01*
X179313864Y-64031297D01*
X179313866Y-64031308D01*
X179370842Y-64256300D01*
X179464075Y-64468848D01*
X179591016Y-64663147D01*
X179591019Y-64663151D01*
X179591021Y-64663153D01*
X179748216Y-64833913D01*
X179748219Y-64833915D01*
X179748222Y-64833918D01*
X179931365Y-64976464D01*
X179931371Y-64976468D01*
X179931374Y-64976470D01*
X180135497Y-65086936D01*
X180249487Y-65126068D01*
X180355015Y-65162297D01*
X180355017Y-65162297D01*
X180355019Y-65162298D01*
X180583951Y-65200500D01*
X180583952Y-65200500D01*
X180816048Y-65200500D01*
X180816049Y-65200500D01*
X181044981Y-65162298D01*
X181264503Y-65086936D01*
X181468626Y-64976470D01*
X181469197Y-64976026D01*
X181530129Y-64928600D01*
X181651784Y-64833913D01*
X181808979Y-64663153D01*
X181935924Y-64468849D01*
X182029157Y-64256300D01*
X182053384Y-64160630D01*
X182088922Y-64100476D01*
X182151342Y-64069083D01*
X182220826Y-64076421D01*
X182275312Y-64120159D01*
X182288091Y-64143477D01*
X182504100Y-64663153D01*
X182574896Y-64833476D01*
X182600421Y-64894883D01*
X182601833Y-64898435D01*
X183019865Y-66000501D01*
X183043618Y-66063121D01*
X183044940Y-66066781D01*
X183449932Y-67244667D01*
X183451140Y-67248366D01*
X183710670Y-68088003D01*
X183711661Y-68157866D01*
X183679881Y-68212303D01*
X180829005Y-71063181D01*
X180767682Y-71096666D01*
X180741324Y-71099500D01*
X176848746Y-71099500D01*
X176698598Y-71117731D01*
X176548449Y-71135963D01*
X176429602Y-71165255D01*
X176254727Y-71208358D01*
X175971882Y-71315628D01*
X175704035Y-71456206D01*
X175704026Y-71456212D01*
X175455078Y-71628047D01*
X175455072Y-71628052D01*
X175228648Y-71828646D01*
X175228646Y-71828648D01*
X175028052Y-72055072D01*
X175028047Y-72055078D01*
X174856212Y-72304026D01*
X174856206Y-72304035D01*
X174715628Y-72571882D01*
X174608358Y-72854727D01*
X174570526Y-73008220D01*
X174535963Y-73148449D01*
X174521377Y-73268568D01*
X174499500Y-73448745D01*
X174499500Y-138095572D01*
X174499184Y-138104419D01*
X174484869Y-138304557D01*
X174482351Y-138322068D01*
X174440646Y-138513787D01*
X174435662Y-138530763D01*
X174367090Y-138714609D01*
X174359740Y-138730701D01*
X174265711Y-138902904D01*
X174256146Y-138917789D01*
X174138558Y-139074867D01*
X174126972Y-139088237D01*
X173988237Y-139226972D01*
X173974867Y-139238558D01*
X173817789Y-139356146D01*
X173802904Y-139365711D01*
X173630701Y-139459740D01*
X173614609Y-139467090D01*
X173430763Y-139535662D01*
X173413787Y-139540646D01*
X173222068Y-139582351D01*
X173204557Y-139584869D01*
X173023779Y-139597799D01*
X173004417Y-139599184D01*
X172995572Y-139599500D01*
X165124000Y-139599500D01*
X165056961Y-139579815D01*
X165011206Y-139527011D01*
X165000000Y-139475500D01*
X165000000Y-136500000D01*
X164999998Y-136499999D01*
X156122781Y-136442726D01*
X156055870Y-136422610D01*
X156026934Y-136396417D01*
X155938990Y-136287010D01*
X155789547Y-136166884D01*
X155789546Y-136166883D01*
X155789543Y-136166881D01*
X155727453Y-136136088D01*
X155676140Y-136088667D01*
X155658610Y-136021032D01*
X155680430Y-135954657D01*
X155727453Y-135913912D01*
X155789543Y-135883118D01*
X155789543Y-135883117D01*
X155789547Y-135883116D01*
X155938990Y-135762990D01*
X156059116Y-135613547D01*
X156144307Y-135441775D01*
X156190581Y-135255704D01*
X156193500Y-135212657D01*
X156193499Y-134297344D01*
X156190581Y-134254296D01*
X156144307Y-134068225D01*
X156110246Y-133999547D01*
X156107353Y-133993713D01*
X167649500Y-133993713D01*
X167649500Y-134206286D01*
X167675324Y-134369336D01*
X167682754Y-134416243D01*
X167732276Y-134568656D01*
X167748444Y-134618414D01*
X167844951Y-134807820D01*
X167969890Y-134979786D01*
X168120213Y-135130109D01*
X168292179Y-135255048D01*
X168292181Y-135255049D01*
X168292184Y-135255051D01*
X168481588Y-135351557D01*
X168683757Y-135417246D01*
X168893713Y-135450500D01*
X168893714Y-135450500D01*
X169106286Y-135450500D01*
X169106287Y-135450500D01*
X169316243Y-135417246D01*
X169518412Y-135351557D01*
X169707816Y-135255051D01*
X169787292Y-135197309D01*
X169879786Y-135130109D01*
X169879788Y-135130106D01*
X169879792Y-135130104D01*
X170030104Y-134979792D01*
X170030106Y-134979788D01*
X170030109Y-134979786D01*
X170155048Y-134807820D01*
X170155047Y-134807820D01*
X170155051Y-134807816D01*
X170251557Y-134618412D01*
X170317246Y-134416243D01*
X170350500Y-134206287D01*
X170350500Y-133993713D01*
X170317246Y-133783757D01*
X170251557Y-133581588D01*
X170155051Y-133392184D01*
X170155049Y-133392181D01*
X170155048Y-133392179D01*
X170030109Y-133220213D01*
X169879786Y-133069890D01*
X169707820Y-132944951D01*
X169518414Y-132848444D01*
X169518413Y-132848443D01*
X169518412Y-132848443D01*
X169316243Y-132782754D01*
X169316241Y-132782753D01*
X169316240Y-132782753D01*
X169154957Y-132757208D01*
X169106287Y-132749500D01*
X168893713Y-132749500D01*
X168845042Y-132757208D01*
X168683760Y-132782753D01*
X168481585Y-132848444D01*
X168292179Y-132944951D01*
X168120213Y-133069890D01*
X167969890Y-133220213D01*
X167844951Y-133392179D01*
X167748444Y-133581585D01*
X167682753Y-133783760D01*
X167649500Y-133993713D01*
X156107353Y-133993713D01*
X156059118Y-133896456D01*
X156059116Y-133896453D01*
X155938990Y-133747010D01*
X155938989Y-133747009D01*
X155789546Y-133626883D01*
X155789543Y-133626881D01*
X155727453Y-133596088D01*
X155676140Y-133548667D01*
X155658610Y-133481032D01*
X155680430Y-133414657D01*
X155727453Y-133373912D01*
X155789543Y-133343118D01*
X155789543Y-133343117D01*
X155789547Y-133343116D01*
X155938990Y-133222990D01*
X156059116Y-133073547D01*
X156144307Y-132901775D01*
X156190581Y-132715704D01*
X156193500Y-132672657D01*
X156193499Y-131757344D01*
X156190581Y-131714296D01*
X156144307Y-131528225D01*
X156127006Y-131493340D01*
X156059118Y-131356456D01*
X156059116Y-131356453D01*
X155938990Y-131207010D01*
X155938989Y-131207009D01*
X155789546Y-131086883D01*
X155789543Y-131086881D01*
X155727453Y-131056088D01*
X155676140Y-131008667D01*
X155658610Y-130941032D01*
X155680430Y-130874657D01*
X155727453Y-130833912D01*
X155789543Y-130803118D01*
X155789543Y-130803117D01*
X155789547Y-130803116D01*
X155938990Y-130682990D01*
X156059116Y-130533547D01*
X156144307Y-130361775D01*
X156190581Y-130175704D01*
X156193500Y-130132657D01*
X156193499Y-129217344D01*
X156190581Y-129174296D01*
X156144307Y-128988225D01*
X156124651Y-128948592D01*
X156059118Y-128816456D01*
X156059116Y-128816453D01*
X155938990Y-128667010D01*
X155938989Y-128667009D01*
X155789546Y-128546883D01*
X155789543Y-128546881D01*
X155727453Y-128516088D01*
X155676140Y-128468667D01*
X155658610Y-128401032D01*
X155680430Y-128334657D01*
X155727453Y-128293912D01*
X155789543Y-128263118D01*
X155789543Y-128263117D01*
X155789547Y-128263116D01*
X155938990Y-128142990D01*
X156059116Y-127993547D01*
X156070098Y-127971401D01*
X156117517Y-127920090D01*
X156185152Y-127902558D01*
X156251527Y-127924376D01*
X156268868Y-127938814D01*
X159944724Y-131614669D01*
X160032850Y-131702795D01*
X160035332Y-131705277D01*
X160141866Y-131776461D01*
X160141872Y-131776464D01*
X160141873Y-131776465D01*
X160260256Y-131825501D01*
X160260260Y-131825501D01*
X160260261Y-131825502D01*
X160385928Y-131850500D01*
X160385931Y-131850500D01*
X161984362Y-131850500D01*
X162051401Y-131870185D01*
X162089899Y-131909401D01*
X162157288Y-132018656D01*
X162281344Y-132142712D01*
X162430666Y-132234814D01*
X162597203Y-132289999D01*
X162699991Y-132300500D01*
X163700008Y-132300499D01*
X163700016Y-132300498D01*
X163700019Y-132300498D01*
X163756302Y-132294748D01*
X163802797Y-132289999D01*
X163969334Y-132234814D01*
X164118656Y-132142712D01*
X164242712Y-132018656D01*
X164334814Y-131869334D01*
X164389999Y-131702797D01*
X164400500Y-131600009D01*
X164400499Y-130799992D01*
X164389999Y-130697203D01*
X164334814Y-130530666D01*
X164242712Y-130381344D01*
X164149049Y-130287681D01*
X164115564Y-130226358D01*
X164120548Y-130156666D01*
X164149049Y-130112319D01*
X164242712Y-130018656D01*
X164334814Y-129869334D01*
X164389999Y-129702797D01*
X164400500Y-129600009D01*
X164400499Y-129112228D01*
X164420183Y-129045190D01*
X164436813Y-129024553D01*
X165832952Y-127628416D01*
X165889295Y-127544091D01*
X165915084Y-127505495D01*
X165919930Y-127493797D01*
X165948099Y-127425789D01*
X165971658Y-127368913D01*
X165986891Y-127292335D01*
X166000500Y-127223920D01*
X166000500Y-125896537D01*
X166020185Y-125829498D01*
X166072989Y-125783743D01*
X166142147Y-125773799D01*
X166163496Y-125778829D01*
X166197203Y-125789999D01*
X166299991Y-125800500D01*
X167100008Y-125800499D01*
X167100016Y-125800498D01*
X167100019Y-125800498D01*
X167157198Y-125794657D01*
X167202797Y-125789999D01*
X167369334Y-125734814D01*
X167518656Y-125642712D01*
X167612319Y-125549049D01*
X167673642Y-125515564D01*
X167743334Y-125520548D01*
X167787681Y-125549049D01*
X167881344Y-125642712D01*
X168030666Y-125734814D01*
X168197203Y-125789999D01*
X168299991Y-125800500D01*
X169100008Y-125800499D01*
X169100016Y-125800498D01*
X169100019Y-125800498D01*
X169157198Y-125794657D01*
X169202797Y-125789999D01*
X169369334Y-125734814D01*
X169518656Y-125642712D01*
X169642712Y-125518656D01*
X169710099Y-125409402D01*
X169762047Y-125362679D01*
X169815638Y-125350500D01*
X170037770Y-125350500D01*
X170104809Y-125370185D01*
X170125451Y-125386819D01*
X170813181Y-126074549D01*
X170846666Y-126135872D01*
X170849500Y-126162230D01*
X170849500Y-127097870D01*
X170849501Y-127097876D01*
X170855908Y-127157483D01*
X170906202Y-127292328D01*
X170906206Y-127292335D01*
X170992452Y-127407544D01*
X170992455Y-127407547D01*
X171107664Y-127493793D01*
X171107671Y-127493797D01*
X171242517Y-127544091D01*
X171242516Y-127544091D01*
X171249444Y-127544835D01*
X171302127Y-127550500D01*
X172897872Y-127550499D01*
X172957483Y-127544091D01*
X173092331Y-127493796D01*
X173207546Y-127407546D01*
X173293796Y-127292331D01*
X173344091Y-127157483D01*
X173350500Y-127097873D01*
X173350499Y-125502128D01*
X173344091Y-125442517D01*
X173331740Y-125409403D01*
X173293797Y-125307671D01*
X173293793Y-125307664D01*
X173207547Y-125192455D01*
X173207544Y-125192452D01*
X173092335Y-125106206D01*
X173092328Y-125106202D01*
X172957482Y-125055908D01*
X172957483Y-125055908D01*
X172897883Y-125049501D01*
X172897881Y-125049500D01*
X172897873Y-125049500D01*
X172897865Y-125049500D01*
X171962230Y-125049500D01*
X171895191Y-125029815D01*
X171874549Y-125013181D01*
X170878421Y-124017052D01*
X170878420Y-124017051D01*
X170769841Y-123944502D01*
X170755495Y-123934916D01*
X170755490Y-123934913D01*
X170618917Y-123878343D01*
X170618907Y-123878340D01*
X170473920Y-123849500D01*
X170473918Y-123849500D01*
X169815638Y-123849500D01*
X169748599Y-123829815D01*
X169710099Y-123790597D01*
X169642712Y-123681344D01*
X169518656Y-123557288D01*
X169393415Y-123480039D01*
X169369336Y-123465187D01*
X169369331Y-123465185D01*
X169340716Y-123455703D01*
X169202797Y-123410001D01*
X169202795Y-123410000D01*
X169100016Y-123399500D01*
X169100009Y-123399500D01*
X168612230Y-123399500D01*
X168545191Y-123379815D01*
X168524549Y-123363181D01*
X167449319Y-122287951D01*
X167415834Y-122226628D01*
X167413000Y-122200270D01*
X167413000Y-120971248D01*
X167432685Y-120904209D01*
X167463996Y-120873471D01*
X167462987Y-120872195D01*
X167468654Y-120867713D01*
X167468653Y-120867713D01*
X167468656Y-120867712D01*
X167592712Y-120743656D01*
X167594752Y-120740347D01*
X167596745Y-120738555D01*
X167597193Y-120737989D01*
X167597289Y-120738065D01*
X167646694Y-120693623D01*
X167715656Y-120682395D01*
X167779740Y-120710234D01*
X167805829Y-120740339D01*
X167807681Y-120743341D01*
X167807683Y-120743344D01*
X167931654Y-120867315D01*
X168080875Y-120959356D01*
X168080880Y-120959358D01*
X168247302Y-121014505D01*
X168247309Y-121014506D01*
X168350019Y-121024999D01*
X168487499Y-121024999D01*
X168987500Y-121024999D01*
X169124972Y-121024999D01*
X169124986Y-121024998D01*
X169227697Y-121014505D01*
X169394119Y-120959358D01*
X169394124Y-120959356D01*
X169543345Y-120867315D01*
X169667315Y-120743345D01*
X169759356Y-120594124D01*
X169759358Y-120594119D01*
X169814505Y-120427697D01*
X169814506Y-120427690D01*
X169824999Y-120324986D01*
X169825000Y-120324973D01*
X169825000Y-120050000D01*
X168987500Y-120050000D01*
X168987500Y-121024999D01*
X168487499Y-121024999D01*
X168487500Y-121024998D01*
X168487500Y-119550000D01*
X168987500Y-119550000D01*
X169824999Y-119550000D01*
X169824999Y-119297846D01*
X170850000Y-119297846D01*
X170856401Y-119357374D01*
X170856403Y-119357381D01*
X170906645Y-119492088D01*
X170906649Y-119492095D01*
X170992809Y-119607189D01*
X170992812Y-119607192D01*
X171107906Y-119693352D01*
X171107913Y-119693356D01*
X171242620Y-119743598D01*
X171242627Y-119743600D01*
X171302155Y-119750001D01*
X171302172Y-119750002D01*
X171850000Y-119750002D01*
X172350000Y-119750002D01*
X172897828Y-119750002D01*
X172897844Y-119750001D01*
X172957372Y-119743600D01*
X172957379Y-119743598D01*
X173092086Y-119693356D01*
X173092093Y-119693352D01*
X173207187Y-119607192D01*
X173207190Y-119607189D01*
X173293350Y-119492095D01*
X173293354Y-119492088D01*
X173343596Y-119357381D01*
X173343598Y-119357374D01*
X173349999Y-119297846D01*
X173350000Y-119297829D01*
X173350000Y-118750002D01*
X172350000Y-118750002D01*
X172350000Y-119750002D01*
X171850000Y-119750002D01*
X171850000Y-118750002D01*
X170850000Y-118750002D01*
X170850000Y-119297846D01*
X169824999Y-119297846D01*
X169824999Y-119275028D01*
X169824998Y-119275013D01*
X169814505Y-119172302D01*
X169759358Y-119005880D01*
X169759356Y-119005875D01*
X169667315Y-118856654D01*
X169543345Y-118732684D01*
X169394124Y-118640643D01*
X169394119Y-118640641D01*
X169227697Y-118585494D01*
X169227690Y-118585493D01*
X169124986Y-118575000D01*
X168987500Y-118575000D01*
X168987500Y-119550000D01*
X168487500Y-119550000D01*
X168487500Y-118575000D01*
X168350027Y-118575000D01*
X168350012Y-118575001D01*
X168247302Y-118585494D01*
X168080880Y-118640641D01*
X168080875Y-118640643D01*
X167931654Y-118732684D01*
X167807683Y-118856655D01*
X167807679Y-118856660D01*
X167805826Y-118859665D01*
X167804018Y-118861290D01*
X167803202Y-118862323D01*
X167803025Y-118862183D01*
X167753874Y-118906385D01*
X167684911Y-118917601D01*
X167620831Y-118889752D01*
X167594753Y-118859653D01*
X167594737Y-118859628D01*
X167592712Y-118856344D01*
X167468656Y-118732288D01*
X167345707Y-118656453D01*
X167319336Y-118640187D01*
X167319331Y-118640185D01*
X167317862Y-118639698D01*
X167152797Y-118585001D01*
X167152795Y-118585000D01*
X167050010Y-118574500D01*
X166274998Y-118574500D01*
X166274980Y-118574501D01*
X166172203Y-118585000D01*
X166172200Y-118585001D01*
X166005668Y-118640185D01*
X166005663Y-118640187D01*
X165856342Y-118732289D01*
X165732289Y-118856342D01*
X165640187Y-119005663D01*
X165640185Y-119005668D01*
X165623061Y-119057345D01*
X165585001Y-119172203D01*
X165585001Y-119172204D01*
X165585000Y-119172204D01*
X165574500Y-119274983D01*
X165574500Y-120325001D01*
X165574501Y-120325019D01*
X165585000Y-120427796D01*
X165585001Y-120427799D01*
X165640115Y-120594119D01*
X165640186Y-120594334D01*
X165732096Y-120743345D01*
X165732289Y-120743657D01*
X165856345Y-120867713D01*
X165862013Y-120872195D01*
X165860570Y-120874019D01*
X165899820Y-120917654D01*
X165912000Y-120971248D01*
X165912000Y-121625500D01*
X165892315Y-121692539D01*
X165839511Y-121738294D01*
X165788000Y-121749500D01*
X156317499Y-121749500D01*
X156250460Y-121729815D01*
X156204705Y-121677011D01*
X156193499Y-121625500D01*
X156193499Y-121597343D01*
X156193498Y-121597342D01*
X156190581Y-121554296D01*
X156144307Y-121368225D01*
X156069331Y-121217049D01*
X156059118Y-121196456D01*
X156059116Y-121196453D01*
X155938990Y-121047010D01*
X155938989Y-121047009D01*
X155789546Y-120926883D01*
X155789543Y-120926881D01*
X155727453Y-120896088D01*
X155676140Y-120848667D01*
X155658610Y-120781032D01*
X155680430Y-120714657D01*
X155727453Y-120673912D01*
X155789543Y-120643118D01*
X155789543Y-120643117D01*
X155789547Y-120643116D01*
X155938990Y-120522990D01*
X156059116Y-120373547D01*
X156144307Y-120201775D01*
X156190581Y-120015704D01*
X156193500Y-119972657D01*
X156193499Y-119057344D01*
X156190581Y-119014296D01*
X156144307Y-118828225D01*
X156096727Y-118732288D01*
X156059118Y-118656456D01*
X156059116Y-118656453D01*
X155938990Y-118507010D01*
X155938989Y-118507009D01*
X155789546Y-118386883D01*
X155789543Y-118386881D01*
X155727453Y-118356088D01*
X155676140Y-118308667D01*
X155658610Y-118241032D01*
X155680430Y-118174657D01*
X155727453Y-118133912D01*
X155789543Y-118103118D01*
X155789543Y-118103117D01*
X155789547Y-118103116D01*
X155938990Y-117982990D01*
X156059116Y-117833547D01*
X156124279Y-117702157D01*
X170850000Y-117702157D01*
X170850000Y-118250002D01*
X171850000Y-118250002D01*
X172350000Y-118250002D01*
X173350000Y-118250002D01*
X173350000Y-117702174D01*
X173349999Y-117702157D01*
X173343598Y-117642629D01*
X173343596Y-117642622D01*
X173293354Y-117507915D01*
X173293350Y-117507908D01*
X173207190Y-117392814D01*
X173207187Y-117392811D01*
X173092093Y-117306651D01*
X173092086Y-117306647D01*
X172957379Y-117256405D01*
X172957372Y-117256403D01*
X172897844Y-117250002D01*
X172350000Y-117250002D01*
X172350000Y-118250002D01*
X171850000Y-118250002D01*
X171850000Y-117250002D01*
X171302155Y-117250002D01*
X171242627Y-117256403D01*
X171242620Y-117256405D01*
X171107913Y-117306647D01*
X171107906Y-117306651D01*
X170992812Y-117392811D01*
X170992809Y-117392814D01*
X170906649Y-117507908D01*
X170906645Y-117507915D01*
X170856403Y-117642622D01*
X170856401Y-117642629D01*
X170850000Y-117702157D01*
X156124279Y-117702157D01*
X156144307Y-117661775D01*
X156190581Y-117475704D01*
X156193500Y-117432657D01*
X156193499Y-116517344D01*
X156190581Y-116474296D01*
X156144307Y-116288225D01*
X156099730Y-116198344D01*
X156059118Y-116116456D01*
X156059116Y-116116453D01*
X155938990Y-115967010D01*
X155938989Y-115967009D01*
X155789546Y-115846883D01*
X155789543Y-115846881D01*
X155617778Y-115761694D01*
X155617776Y-115761693D01*
X155617775Y-115761693D01*
X155579939Y-115752283D01*
X155431708Y-115715419D01*
X155407105Y-115713751D01*
X155388657Y-115712500D01*
X155388654Y-115712500D01*
X153711343Y-115712500D01*
X153711340Y-115712501D01*
X153668298Y-115715418D01*
X153668297Y-115715418D01*
X153482221Y-115761694D01*
X153310456Y-115846881D01*
X153310453Y-115846883D01*
X153161010Y-115967009D01*
X153161009Y-115967010D01*
X153040883Y-116116453D01*
X153040881Y-116116456D01*
X152955694Y-116288221D01*
X152909419Y-116474291D01*
X152906500Y-116517345D01*
X152906500Y-117432656D01*
X152906501Y-117432659D01*
X152909418Y-117475701D01*
X152909418Y-117475702D01*
X152955694Y-117661778D01*
X153040881Y-117833543D01*
X153040883Y-117833546D01*
X153161009Y-117982989D01*
X153161010Y-117982990D01*
X153310453Y-118103116D01*
X153372547Y-118133912D01*
X153423859Y-118181333D01*
X153441388Y-118248968D01*
X153419569Y-118315343D01*
X153372547Y-118356088D01*
X153310453Y-118386883D01*
X153161010Y-118507009D01*
X153161009Y-118507010D01*
X153040883Y-118656453D01*
X153040881Y-118656456D01*
X152955694Y-118828221D01*
X152909419Y-119014291D01*
X152906500Y-119057345D01*
X152906500Y-119972656D01*
X152906501Y-119972659D01*
X152909418Y-120015701D01*
X152909418Y-120015702D01*
X152955694Y-120201778D01*
X153040881Y-120373543D01*
X153040883Y-120373546D01*
X153161009Y-120522989D01*
X153161010Y-120522990D01*
X153310453Y-120643116D01*
X153372547Y-120673912D01*
X153423859Y-120721333D01*
X153441388Y-120788968D01*
X153419569Y-120855343D01*
X153372547Y-120896088D01*
X153310453Y-120926883D01*
X153161010Y-121047009D01*
X153161009Y-121047010D01*
X153040883Y-121196453D01*
X153040881Y-121196456D01*
X152955694Y-121368221D01*
X152909419Y-121554291D01*
X152906500Y-121597345D01*
X152906500Y-121732193D01*
X152886815Y-121799232D01*
X152834011Y-121844987D01*
X152764853Y-121854931D01*
X152701297Y-121825906D01*
X152694819Y-121819874D01*
X152686819Y-121811874D01*
X152653334Y-121750551D01*
X152650500Y-121724193D01*
X152650500Y-115343713D01*
X159049500Y-115343713D01*
X159049500Y-115556286D01*
X159082033Y-115761694D01*
X159082754Y-115766243D01*
X159147987Y-115967010D01*
X159148444Y-115968414D01*
X159244951Y-116157820D01*
X159369890Y-116329786D01*
X159520213Y-116480109D01*
X159692179Y-116605048D01*
X159692181Y-116605049D01*
X159692184Y-116605051D01*
X159881588Y-116701557D01*
X160083757Y-116767246D01*
X160293713Y-116800500D01*
X160293714Y-116800500D01*
X160506286Y-116800500D01*
X160506287Y-116800500D01*
X160716243Y-116767246D01*
X160918412Y-116701557D01*
X161107816Y-116605051D01*
X161129789Y-116589086D01*
X161279786Y-116480109D01*
X161279788Y-116480106D01*
X161279792Y-116480104D01*
X161430104Y-116329792D01*
X161430106Y-116329788D01*
X161430109Y-116329786D01*
X161555048Y-116157820D01*
X161555047Y-116157820D01*
X161555051Y-116157816D01*
X161651557Y-115968412D01*
X161717246Y-115766243D01*
X161750500Y-115556287D01*
X161750500Y-115343713D01*
X161717246Y-115133757D01*
X161651557Y-114931588D01*
X161555051Y-114742184D01*
X161555049Y-114742181D01*
X161555048Y-114742179D01*
X161430109Y-114570213D01*
X161279786Y-114419890D01*
X161107820Y-114294951D01*
X160918414Y-114198444D01*
X160918413Y-114198443D01*
X160918412Y-114198443D01*
X160716243Y-114132754D01*
X160716241Y-114132753D01*
X160716240Y-114132753D01*
X160554957Y-114107208D01*
X160506287Y-114099500D01*
X160293713Y-114099500D01*
X160245042Y-114107208D01*
X160083760Y-114132753D01*
X159881585Y-114198444D01*
X159692179Y-114294951D01*
X159520213Y-114419890D01*
X159369890Y-114570213D01*
X159244951Y-114742179D01*
X159148444Y-114931585D01*
X159082753Y-115133760D01*
X159049500Y-115343713D01*
X152650500Y-115343713D01*
X152650500Y-102320808D01*
X152670185Y-102253769D01*
X152686819Y-102233127D01*
X153955272Y-100964674D01*
X153955277Y-100964669D01*
X154026466Y-100858126D01*
X154075501Y-100739743D01*
X154100500Y-100614069D01*
X154100500Y-100485931D01*
X154100500Y-97343713D01*
X159049500Y-97343713D01*
X159049500Y-97556286D01*
X159082753Y-97766239D01*
X159148444Y-97968414D01*
X159244951Y-98157820D01*
X159369890Y-98329786D01*
X159520213Y-98480109D01*
X159692179Y-98605048D01*
X159692181Y-98605049D01*
X159692184Y-98605051D01*
X159881588Y-98701557D01*
X160083757Y-98767246D01*
X160293713Y-98800500D01*
X160293714Y-98800500D01*
X160506286Y-98800500D01*
X160506287Y-98800500D01*
X160716243Y-98767246D01*
X160918412Y-98701557D01*
X161107816Y-98605051D01*
X161166662Y-98562297D01*
X161279786Y-98480109D01*
X161279788Y-98480106D01*
X161279792Y-98480104D01*
X161430104Y-98329792D01*
X161430106Y-98329788D01*
X161430109Y-98329786D01*
X161555048Y-98157820D01*
X161555047Y-98157820D01*
X161555051Y-98157816D01*
X161651557Y-97968412D01*
X161717246Y-97766243D01*
X161750500Y-97556287D01*
X161750500Y-97343713D01*
X161717246Y-97133757D01*
X161651557Y-96931588D01*
X161555051Y-96742184D01*
X161555049Y-96742181D01*
X161555048Y-96742179D01*
X161430109Y-96570213D01*
X161279786Y-96419890D01*
X161107820Y-96294951D01*
X160918414Y-96198444D01*
X160918413Y-96198443D01*
X160918412Y-96198443D01*
X160716243Y-96132754D01*
X160716241Y-96132753D01*
X160716240Y-96132753D01*
X160554957Y-96107208D01*
X160506287Y-96099500D01*
X160293713Y-96099500D01*
X160245042Y-96107208D01*
X160083760Y-96132753D01*
X159881585Y-96198444D01*
X159692179Y-96294951D01*
X159520213Y-96419890D01*
X159369890Y-96570213D01*
X159244951Y-96742179D01*
X159148444Y-96931585D01*
X159082753Y-97133760D01*
X159049500Y-97343713D01*
X154100500Y-97343713D01*
X154100500Y-91399998D01*
X157494532Y-91399998D01*
X157494532Y-91400001D01*
X157514364Y-91626686D01*
X157514366Y-91626697D01*
X157573258Y-91846488D01*
X157573261Y-91846497D01*
X157669431Y-92052732D01*
X157669432Y-92052734D01*
X157799954Y-92239141D01*
X157960858Y-92400045D01*
X157960861Y-92400047D01*
X158147266Y-92530568D01*
X158353504Y-92626739D01*
X158573308Y-92685635D01*
X158735230Y-92699801D01*
X158799998Y-92705468D01*
X158800000Y-92705468D01*
X158800002Y-92705468D01*
X158856673Y-92700509D01*
X159026692Y-92685635D01*
X159246496Y-92626739D01*
X159452734Y-92530568D01*
X159639139Y-92400047D01*
X159800047Y-92239139D01*
X159930568Y-92052734D01*
X160026739Y-91846496D01*
X160085635Y-91626692D01*
X160105468Y-91400000D01*
X160085635Y-91173308D01*
X160032240Y-90974035D01*
X160026741Y-90953511D01*
X160026738Y-90953502D01*
X159996516Y-90888692D01*
X159930568Y-90747266D01*
X159921586Y-90734439D01*
X159899261Y-90668237D01*
X159916271Y-90600470D01*
X159948852Y-90564053D01*
X159957546Y-90557545D01*
X160043796Y-90442330D01*
X160094091Y-90307482D01*
X160100500Y-90247872D01*
X160100499Y-88552127D01*
X160094091Y-88492516D01*
X160082958Y-88462668D01*
X160043797Y-88357670D01*
X160043793Y-88357663D01*
X159970675Y-88259991D01*
X162994700Y-88259991D01*
X162994700Y-88260004D01*
X163013864Y-88491295D01*
X163013866Y-88491306D01*
X163070842Y-88716298D01*
X163164075Y-88928846D01*
X163291016Y-89123145D01*
X163291019Y-89123149D01*
X163291021Y-89123151D01*
X163448216Y-89293911D01*
X163448219Y-89293913D01*
X163448222Y-89293916D01*
X163625819Y-89432146D01*
X163666632Y-89488856D01*
X163670307Y-89558629D01*
X163635675Y-89619312D01*
X163625819Y-89627852D01*
X163448222Y-89766081D01*
X163448219Y-89766084D01*
X163291016Y-89936852D01*
X163164075Y-90131151D01*
X163070842Y-90343699D01*
X163013866Y-90568691D01*
X163013864Y-90568702D01*
X162994700Y-90799993D01*
X162994700Y-90800006D01*
X163013864Y-91031297D01*
X163013866Y-91031308D01*
X163070842Y-91256300D01*
X163164075Y-91468848D01*
X163291016Y-91663147D01*
X163291019Y-91663151D01*
X163291021Y-91663153D01*
X163448216Y-91833913D01*
X163448219Y-91833915D01*
X163448222Y-91833918D01*
X163631365Y-91976464D01*
X163631371Y-91976468D01*
X163631374Y-91976470D01*
X163835497Y-92086936D01*
X163947684Y-92125450D01*
X164055015Y-92162297D01*
X164055017Y-92162297D01*
X164055019Y-92162298D01*
X164283951Y-92200500D01*
X164283952Y-92200500D01*
X164516048Y-92200500D01*
X164516049Y-92200500D01*
X164744981Y-92162298D01*
X164964503Y-92086936D01*
X165168626Y-91976470D01*
X165178309Y-91968934D01*
X165243689Y-91918046D01*
X165351784Y-91833913D01*
X165385581Y-91797200D01*
X165437762Y-91740517D01*
X165497649Y-91704526D01*
X165528991Y-91700500D01*
X166788691Y-91700500D01*
X166788692Y-91700499D01*
X166962664Y-91665895D01*
X167057307Y-91626692D01*
X167126545Y-91598013D01*
X167251333Y-91514632D01*
X167274034Y-91499464D01*
X167499464Y-91274034D01*
X167598012Y-91126545D01*
X167665895Y-90962664D01*
X167700500Y-90788690D01*
X167700500Y-90611306D01*
X167665895Y-90437332D01*
X167603900Y-90287666D01*
X167598013Y-90273454D01*
X167580920Y-90247872D01*
X167499464Y-90125962D01*
X167499462Y-90125960D01*
X167499460Y-90125957D01*
X167374040Y-90000537D01*
X167369050Y-89997203D01*
X167226546Y-89901986D01*
X167226545Y-89901985D01*
X167226543Y-89901984D01*
X167062666Y-89834103D01*
X167062658Y-89834101D01*
X166888696Y-89799498D01*
X166888692Y-89799498D01*
X166711308Y-89799498D01*
X166711303Y-89799498D01*
X166537341Y-89834101D01*
X166537333Y-89834103D01*
X166402242Y-89890061D01*
X166354789Y-89899500D01*
X165528991Y-89899500D01*
X165461952Y-89879815D01*
X165437762Y-89859483D01*
X165351787Y-89766090D01*
X165351784Y-89766087D01*
X165174180Y-89627853D01*
X165133367Y-89571142D01*
X165129692Y-89501369D01*
X165164323Y-89440686D01*
X165174180Y-89432145D01*
X165351784Y-89293911D01*
X165409174Y-89231569D01*
X165437762Y-89200515D01*
X165497649Y-89164524D01*
X165528991Y-89160498D01*
X166135635Y-89160498D01*
X166202674Y-89180183D01*
X166223316Y-89196817D01*
X166225958Y-89199459D01*
X166225965Y-89199465D01*
X166373451Y-89298011D01*
X166373452Y-89298011D01*
X166373453Y-89298012D01*
X166537334Y-89365895D01*
X166711303Y-89400499D01*
X166711307Y-89400500D01*
X166711308Y-89400500D01*
X166888693Y-89400500D01*
X166888694Y-89400499D01*
X167062666Y-89365895D01*
X167226547Y-89298012D01*
X167374036Y-89199464D01*
X167499464Y-89074036D01*
X167598012Y-88926547D01*
X167665895Y-88762666D01*
X167700500Y-88588692D01*
X167700500Y-88411308D01*
X167665895Y-88237334D01*
X167598012Y-88073453D01*
X167583072Y-88051094D01*
X167499465Y-87925965D01*
X167499459Y-87925958D01*
X167134036Y-87560535D01*
X167101141Y-87538556D01*
X167038026Y-87496384D01*
X167038024Y-87496383D01*
X167038024Y-87496382D01*
X166986542Y-87461983D01*
X166986540Y-87461982D01*
X166904605Y-87428044D01*
X166904604Y-87428044D01*
X166822664Y-87394103D01*
X166822656Y-87394101D01*
X166648694Y-87359498D01*
X166648690Y-87359498D01*
X166648689Y-87359498D01*
X165528991Y-87359498D01*
X165461952Y-87339813D01*
X165437762Y-87319481D01*
X165351787Y-87226088D01*
X165351777Y-87226079D01*
X165168634Y-87083533D01*
X165168628Y-87083529D01*
X164964504Y-86973062D01*
X164964495Y-86973059D01*
X164744984Y-86897700D01*
X164573282Y-86869048D01*
X164516049Y-86859498D01*
X164283951Y-86859498D01*
X164238164Y-86867138D01*
X164055015Y-86897700D01*
X163835504Y-86973059D01*
X163835495Y-86973062D01*
X163631371Y-87083529D01*
X163631365Y-87083533D01*
X163448222Y-87226079D01*
X163448219Y-87226082D01*
X163291016Y-87396850D01*
X163164075Y-87591149D01*
X163070842Y-87803697D01*
X163013866Y-88028689D01*
X163013864Y-88028700D01*
X162994700Y-88259991D01*
X159970675Y-88259991D01*
X159957547Y-88242454D01*
X159957544Y-88242451D01*
X159842335Y-88156205D01*
X159842328Y-88156201D01*
X159707482Y-88105907D01*
X159707483Y-88105907D01*
X159647883Y-88099500D01*
X159647881Y-88099499D01*
X159647873Y-88099499D01*
X159647864Y-88099499D01*
X157952129Y-88099499D01*
X157952123Y-88099500D01*
X157892516Y-88105907D01*
X157757671Y-88156201D01*
X157757664Y-88156205D01*
X157642455Y-88242451D01*
X157642452Y-88242454D01*
X157556206Y-88357663D01*
X157556202Y-88357670D01*
X157505908Y-88492516D01*
X157499531Y-88551834D01*
X157499501Y-88552122D01*
X157499500Y-88552134D01*
X157499500Y-90247869D01*
X157499501Y-90247875D01*
X157505908Y-90307482D01*
X157556202Y-90442327D01*
X157556206Y-90442334D01*
X157642452Y-90557543D01*
X157642453Y-90557544D01*
X157651145Y-90564051D01*
X157693017Y-90619984D01*
X157698001Y-90689676D01*
X157678414Y-90734435D01*
X157669436Y-90747258D01*
X157669434Y-90747261D01*
X157573261Y-90953502D01*
X157573258Y-90953511D01*
X157514366Y-91173302D01*
X157514364Y-91173313D01*
X157494532Y-91399998D01*
X154100500Y-91399998D01*
X154100500Y-83669997D01*
X154944435Y-83669997D01*
X154944435Y-83670004D01*
X154964630Y-83849250D01*
X154964631Y-83849255D01*
X155024211Y-84019524D01*
X155074777Y-84099998D01*
X155120184Y-84172263D01*
X155247738Y-84299817D01*
X155400478Y-84395790D01*
X155469898Y-84420081D01*
X155570745Y-84455369D01*
X155570750Y-84455370D01*
X155749996Y-84475566D01*
X155750000Y-84475566D01*
X155750004Y-84475566D01*
X155929249Y-84455370D01*
X155929252Y-84455369D01*
X155929255Y-84455369D01*
X156099522Y-84395790D01*
X156252262Y-84299817D01*
X156379816Y-84172263D01*
X156475789Y-84019523D01*
X156475792Y-84019511D01*
X156478810Y-84013249D01*
X156480650Y-84014135D01*
X156503305Y-83978062D01*
X158315211Y-82166156D01*
X158376531Y-82132673D01*
X158446223Y-82137657D01*
X158502156Y-82179529D01*
X158525362Y-82234441D01*
X158535765Y-82300124D01*
X158535765Y-82300125D01*
X158606417Y-82517568D01*
X158710213Y-82721279D01*
X158843011Y-82904060D01*
X158866491Y-82969866D01*
X158850666Y-83037920D01*
X158800560Y-83086615D01*
X158786026Y-83093127D01*
X158757671Y-83103702D01*
X158757664Y-83103706D01*
X158642455Y-83189952D01*
X158642452Y-83189955D01*
X158556206Y-83305164D01*
X158556202Y-83305171D01*
X158505908Y-83440017D01*
X158499501Y-83499616D01*
X158499500Y-83499635D01*
X158499500Y-85500370D01*
X158499501Y-85500376D01*
X158505908Y-85559983D01*
X158556202Y-85694828D01*
X158556206Y-85694835D01*
X158642452Y-85810044D01*
X158642455Y-85810047D01*
X158757664Y-85896293D01*
X158757671Y-85896297D01*
X158892517Y-85946591D01*
X158892516Y-85946591D01*
X158899444Y-85947335D01*
X158952127Y-85953000D01*
X161047872Y-85952999D01*
X161107483Y-85946591D01*
X161242331Y-85896296D01*
X161357546Y-85810046D01*
X161443796Y-85694831D01*
X161494091Y-85559983D01*
X161499331Y-85511241D01*
X161526068Y-85446694D01*
X161583461Y-85406846D01*
X161622620Y-85400500D01*
X162495271Y-85400500D01*
X162534274Y-85406793D01*
X162672203Y-85452499D01*
X162774991Y-85463000D01*
X163825008Y-85462999D01*
X163825016Y-85462998D01*
X163825019Y-85462998D01*
X163881302Y-85457248D01*
X163927797Y-85452499D01*
X164094334Y-85397314D01*
X164234905Y-85310609D01*
X164302296Y-85292170D01*
X164365094Y-85310609D01*
X164505666Y-85397314D01*
X164672203Y-85452499D01*
X164774991Y-85463000D01*
X165825008Y-85462999D01*
X165825016Y-85462998D01*
X165825019Y-85462998D01*
X165881302Y-85457248D01*
X165927797Y-85452499D01*
X166094334Y-85397314D01*
X166243656Y-85305212D01*
X166367712Y-85181156D01*
X166459814Y-85031834D01*
X166514999Y-84865297D01*
X166525500Y-84762509D01*
X166525499Y-83987492D01*
X166521220Y-83945607D01*
X166514999Y-83884703D01*
X166514998Y-83884700D01*
X166488796Y-83805628D01*
X166459814Y-83718166D01*
X166367712Y-83568844D01*
X166243656Y-83444788D01*
X166240342Y-83442743D01*
X166238546Y-83440748D01*
X166237989Y-83440307D01*
X166238064Y-83440211D01*
X166193618Y-83390797D01*
X166182397Y-83321834D01*
X166210240Y-83257752D01*
X166240348Y-83231665D01*
X166243342Y-83229818D01*
X166367315Y-83105845D01*
X166459356Y-82956624D01*
X166459358Y-82956619D01*
X166514505Y-82790197D01*
X166514506Y-82790190D01*
X166524999Y-82687486D01*
X166525000Y-82687473D01*
X166525000Y-82550000D01*
X162075001Y-82550000D01*
X162075001Y-82687486D01*
X162085494Y-82790197D01*
X162140641Y-82956619D01*
X162140643Y-82956624D01*
X162232684Y-83105845D01*
X162356655Y-83229816D01*
X162356659Y-83229819D01*
X162359656Y-83231668D01*
X162361279Y-83233472D01*
X162362323Y-83234298D01*
X162362181Y-83234476D01*
X162406381Y-83283616D01*
X162417602Y-83352579D01*
X162389759Y-83416661D01*
X162359661Y-83442741D01*
X162356349Y-83444783D01*
X162356343Y-83444788D01*
X162237951Y-83563181D01*
X162176628Y-83596666D01*
X162150270Y-83599500D01*
X161622620Y-83599500D01*
X161555581Y-83579815D01*
X161509826Y-83527011D01*
X161499330Y-83488753D01*
X161494091Y-83440016D01*
X161443797Y-83305171D01*
X161443793Y-83305164D01*
X161357547Y-83189955D01*
X161357544Y-83189952D01*
X161242335Y-83103706D01*
X161242326Y-83103701D01*
X161213974Y-83093127D01*
X161158040Y-83051257D01*
X161133622Y-82985792D01*
X161148473Y-82917519D01*
X161156988Y-82904059D01*
X161289788Y-82721276D01*
X161393582Y-82517570D01*
X161464234Y-82300128D01*
X161478509Y-82210000D01*
X160490748Y-82210000D01*
X160512518Y-82172292D01*
X160550000Y-82032409D01*
X160550000Y-81887591D01*
X160512518Y-81747708D01*
X160490748Y-81710000D01*
X161478509Y-81710000D01*
X161464234Y-81619871D01*
X161393582Y-81402429D01*
X161289788Y-81198723D01*
X161155402Y-81013757D01*
X161029131Y-80887486D01*
X162024998Y-80887486D01*
X162035491Y-80990197D01*
X162090638Y-81156619D01*
X162090640Y-81156624D01*
X162182681Y-81305845D01*
X162216118Y-81339282D01*
X162249603Y-81400605D01*
X162244619Y-81470297D01*
X162233976Y-81492060D01*
X162140643Y-81643375D01*
X162140641Y-81643380D01*
X162085494Y-81809802D01*
X162085493Y-81809809D01*
X162075000Y-81912513D01*
X162075000Y-82050000D01*
X163050000Y-82050000D01*
X163050000Y-81630500D01*
X163036316Y-81616816D01*
X163002831Y-81555493D01*
X162999997Y-81529135D01*
X162999997Y-81169500D01*
X163499997Y-81169500D01*
X163513681Y-81183184D01*
X163547166Y-81244507D01*
X163550000Y-81270865D01*
X163550000Y-82050000D01*
X165050000Y-82050000D01*
X165050000Y-81630500D01*
X165036319Y-81616819D01*
X165002834Y-81555496D01*
X165000000Y-81529138D01*
X165000000Y-81169500D01*
X165500000Y-81169500D01*
X165513681Y-81183181D01*
X165547166Y-81244504D01*
X165550000Y-81270862D01*
X165550000Y-82050000D01*
X166524999Y-82050000D01*
X166524999Y-81912528D01*
X166524998Y-81912513D01*
X166514505Y-81809802D01*
X166459358Y-81643380D01*
X166459356Y-81643375D01*
X166367315Y-81494154D01*
X166333880Y-81460719D01*
X166300395Y-81399396D01*
X166305379Y-81329704D01*
X166316023Y-81307941D01*
X166409353Y-81156630D01*
X166409358Y-81156619D01*
X166464505Y-80990197D01*
X166464506Y-80990190D01*
X166474999Y-80887486D01*
X166475000Y-80887473D01*
X166475000Y-80750000D01*
X165500000Y-80750000D01*
X165500000Y-81169500D01*
X165000000Y-81169500D01*
X165000000Y-80750000D01*
X163499997Y-80750000D01*
X163499997Y-81169500D01*
X162999997Y-81169500D01*
X162999997Y-80750000D01*
X162024998Y-80750000D01*
X162024998Y-80887486D01*
X161029131Y-80887486D01*
X160993742Y-80852097D01*
X160909136Y-80790627D01*
X160866471Y-80735297D01*
X160860492Y-80665684D01*
X160893098Y-80603889D01*
X160909132Y-80589995D01*
X160994066Y-80528287D01*
X161155786Y-80366567D01*
X161290217Y-80181539D01*
X161394048Y-79977759D01*
X161432505Y-79859401D01*
X161464721Y-79760250D01*
X161464721Y-79760249D01*
X161464722Y-79760246D01*
X161500500Y-79534355D01*
X161500500Y-79305647D01*
X161464722Y-79079756D01*
X161464721Y-79079752D01*
X161464721Y-79079751D01*
X161394049Y-78862245D01*
X161389621Y-78853554D01*
X161290217Y-78658463D01*
X161155786Y-78473435D01*
X160994066Y-78311715D01*
X160809038Y-78177284D01*
X160775373Y-78160131D01*
X160605255Y-78073451D01*
X160494556Y-78037483D01*
X162024497Y-78037483D01*
X162024497Y-78812501D01*
X162024498Y-78812519D01*
X162034997Y-78915296D01*
X162034998Y-78915299D01*
X162083441Y-79061487D01*
X162090183Y-79081834D01*
X162182285Y-79231156D01*
X162306341Y-79355212D01*
X162309625Y-79357237D01*
X162309650Y-79357253D01*
X162311442Y-79359246D01*
X162312008Y-79359693D01*
X162311931Y-79359789D01*
X162356376Y-79409199D01*
X162367600Y-79478161D01*
X162339758Y-79542244D01*
X162309662Y-79568326D01*
X162306657Y-79570179D01*
X162306652Y-79570183D01*
X162182681Y-79694154D01*
X162090640Y-79843375D01*
X162090638Y-79843380D01*
X162035491Y-80009802D01*
X162035490Y-80009809D01*
X162024997Y-80112513D01*
X162024997Y-80250000D01*
X166474999Y-80250000D01*
X166474999Y-80112528D01*
X166474998Y-80112513D01*
X166464505Y-80009802D01*
X166409358Y-79843380D01*
X166409356Y-79843375D01*
X166317315Y-79694154D01*
X166193344Y-79570183D01*
X166193341Y-79570181D01*
X166190339Y-79568329D01*
X166188713Y-79566521D01*
X166187677Y-79565702D01*
X166187817Y-79565524D01*
X166143617Y-79516380D01*
X166132397Y-79447417D01*
X166160243Y-79383336D01*
X166190344Y-79357254D01*
X166193656Y-79355212D01*
X166317712Y-79231156D01*
X166409814Y-79081834D01*
X166464999Y-78915297D01*
X166475500Y-78812509D01*
X166475500Y-78493713D01*
X167649500Y-78493713D01*
X167649500Y-78706286D01*
X167682603Y-78915295D01*
X167682754Y-78916243D01*
X167738527Y-79087895D01*
X167748444Y-79118414D01*
X167844951Y-79307820D01*
X167969890Y-79479786D01*
X168120213Y-79630109D01*
X168292179Y-79755048D01*
X168292181Y-79755049D01*
X168292184Y-79755051D01*
X168481588Y-79851557D01*
X168683757Y-79917246D01*
X168893713Y-79950500D01*
X168893714Y-79950500D01*
X169106286Y-79950500D01*
X169106287Y-79950500D01*
X169316243Y-79917246D01*
X169518412Y-79851557D01*
X169707816Y-79755051D01*
X169791634Y-79694154D01*
X169879786Y-79630109D01*
X169879788Y-79630106D01*
X169879792Y-79630104D01*
X170030104Y-79479792D01*
X170030106Y-79479788D01*
X170030109Y-79479786D01*
X170155048Y-79307820D01*
X170155047Y-79307820D01*
X170155051Y-79307816D01*
X170251557Y-79118412D01*
X170317246Y-78916243D01*
X170350500Y-78706287D01*
X170350500Y-78493713D01*
X170317246Y-78283757D01*
X170251557Y-78081588D01*
X170155051Y-77892184D01*
X170155049Y-77892181D01*
X170155048Y-77892179D01*
X170030109Y-77720213D01*
X169879786Y-77569890D01*
X169707820Y-77444951D01*
X169518414Y-77348444D01*
X169518413Y-77348443D01*
X169518412Y-77348443D01*
X169316243Y-77282754D01*
X169316241Y-77282753D01*
X169316240Y-77282753D01*
X169154957Y-77257208D01*
X169106287Y-77249500D01*
X168893713Y-77249500D01*
X168845042Y-77257208D01*
X168683760Y-77282753D01*
X168683757Y-77282754D01*
X168483312Y-77347883D01*
X168481585Y-77348444D01*
X168292179Y-77444951D01*
X168120213Y-77569890D01*
X167969890Y-77720213D01*
X167844951Y-77892179D01*
X167748444Y-78081585D01*
X167682753Y-78283760D01*
X167649500Y-78493713D01*
X166475500Y-78493713D01*
X166475499Y-78037492D01*
X166464999Y-77934703D01*
X166409814Y-77768166D01*
X166317712Y-77618844D01*
X166193656Y-77494788D01*
X166100888Y-77437569D01*
X166044336Y-77402687D01*
X166044331Y-77402685D01*
X166042862Y-77402198D01*
X165877797Y-77347501D01*
X165877795Y-77347500D01*
X165775010Y-77337000D01*
X164724998Y-77337000D01*
X164724980Y-77337001D01*
X164622203Y-77347500D01*
X164622200Y-77347501D01*
X164455668Y-77402685D01*
X164455659Y-77402689D01*
X164315094Y-77489390D01*
X164247702Y-77507830D01*
X164184902Y-77489390D01*
X164044337Y-77402689D01*
X164044332Y-77402687D01*
X164044331Y-77402686D01*
X163877794Y-77347501D01*
X163877792Y-77347500D01*
X163775007Y-77337000D01*
X162724995Y-77337000D01*
X162724977Y-77337001D01*
X162622200Y-77347500D01*
X162622197Y-77347501D01*
X162455665Y-77402685D01*
X162455660Y-77402687D01*
X162306339Y-77494789D01*
X162182286Y-77618842D01*
X162090184Y-77768163D01*
X162090182Y-77768168D01*
X162068121Y-77834744D01*
X162034998Y-77934703D01*
X162034998Y-77934704D01*
X162034997Y-77934704D01*
X162024497Y-78037483D01*
X160494556Y-78037483D01*
X160387748Y-78002779D01*
X160218326Y-77975945D01*
X160161854Y-77967001D01*
X159838146Y-77967001D01*
X159762849Y-77978927D01*
X159612253Y-78002779D01*
X159612250Y-78002779D01*
X159394744Y-78073451D01*
X159190961Y-78177284D01*
X159085396Y-78253981D01*
X159005934Y-78311715D01*
X159005932Y-78311717D01*
X159005931Y-78311717D01*
X158844216Y-78473432D01*
X158844216Y-78473433D01*
X158844214Y-78473435D01*
X158786652Y-78552662D01*
X158709783Y-78658462D01*
X158605950Y-78862245D01*
X158535278Y-79079751D01*
X158535278Y-79079754D01*
X158499500Y-79305647D01*
X158499500Y-79534355D01*
X158499499Y-79534355D01*
X158534022Y-79752323D01*
X158525067Y-79821616D01*
X158499230Y-79859401D01*
X155441937Y-82916694D01*
X155405873Y-82939371D01*
X155406750Y-82941192D01*
X155400475Y-82944213D01*
X155247737Y-83040185D01*
X155120184Y-83167738D01*
X155024211Y-83320477D01*
X154964631Y-83490746D01*
X154964630Y-83490751D01*
X154944435Y-83669997D01*
X154100500Y-83669997D01*
X154100500Y-79385931D01*
X154100500Y-76623999D01*
X154100500Y-76623996D01*
X154075502Y-76498328D01*
X154075499Y-76498318D01*
X154067311Y-76478553D01*
X154058650Y-76444985D01*
X154044317Y-76317762D01*
X153984738Y-76147495D01*
X153888765Y-75994755D01*
X153761211Y-75867201D01*
X153708038Y-75833790D01*
X153608472Y-75771228D01*
X153438203Y-75711648D01*
X153438198Y-75711647D01*
X153258953Y-75691452D01*
X153258945Y-75691452D01*
X153079699Y-75711647D01*
X153079694Y-75711648D01*
X152909425Y-75771228D01*
X152756683Y-75867203D01*
X152703504Y-75920382D01*
X152642181Y-75953866D01*
X152601941Y-75955920D01*
X152500003Y-75944435D01*
X152499996Y-75944435D01*
X152388383Y-75957010D01*
X152319561Y-75944955D01*
X152268182Y-75897606D01*
X152250500Y-75833790D01*
X152250500Y-74914724D01*
X152270185Y-74847685D01*
X152303377Y-74813149D01*
X152372248Y-74764925D01*
X152481401Y-74688495D01*
X152648495Y-74521401D01*
X152778426Y-74335841D01*
X152833002Y-74292217D01*
X152902500Y-74285023D01*
X152964855Y-74316546D01*
X152981575Y-74335842D01*
X153111500Y-74521395D01*
X153111505Y-74521401D01*
X153278599Y-74688495D01*
X153364235Y-74748458D01*
X153472165Y-74824032D01*
X153472167Y-74824033D01*
X153472170Y-74824035D01*
X153686337Y-74923903D01*
X153914592Y-74985063D01*
X154102918Y-75001539D01*
X154149999Y-75005659D01*
X154150000Y-75005659D01*
X154150001Y-75005659D01*
X154189234Y-75002226D01*
X154385408Y-74985063D01*
X154613663Y-74923903D01*
X154827830Y-74824035D01*
X155021401Y-74688495D01*
X155188495Y-74521401D01*
X155324035Y-74327830D01*
X155423903Y-74113663D01*
X155485063Y-73885408D01*
X155505659Y-73650000D01*
X155485063Y-73414592D01*
X155423903Y-73186337D01*
X155324035Y-72972171D01*
X155318731Y-72964595D01*
X155188494Y-72778597D01*
X155021402Y-72611506D01*
X155021395Y-72611501D01*
X154827834Y-72475967D01*
X154827830Y-72475965D01*
X154775459Y-72451544D01*
X154613663Y-72376097D01*
X154613659Y-72376096D01*
X154613655Y-72376094D01*
X154561866Y-72362218D01*
X154502205Y-72325853D01*
X154471676Y-72263007D01*
X154479970Y-72193631D01*
X154524455Y-72139753D01*
X154591007Y-72118478D01*
X154593959Y-72118443D01*
X159657844Y-72118443D01*
X159724883Y-72138128D01*
X159770638Y-72190932D01*
X159780582Y-72260090D01*
X159751557Y-72323646D01*
X159714170Y-72349602D01*
X159715454Y-72351953D01*
X159707664Y-72356206D01*
X159592455Y-72442452D01*
X159592452Y-72442455D01*
X159506206Y-72557664D01*
X159506202Y-72557671D01*
X159455908Y-72692517D01*
X159449501Y-72752116D01*
X159449500Y-72752135D01*
X159449500Y-74447870D01*
X159449501Y-74447876D01*
X159455908Y-74507483D01*
X159506202Y-74642328D01*
X159506206Y-74642335D01*
X159592452Y-74757544D01*
X159592455Y-74757547D01*
X159707664Y-74843793D01*
X159707671Y-74843797D01*
X159842517Y-74894091D01*
X159842516Y-74894091D01*
X159849444Y-74894835D01*
X159902127Y-74900500D01*
X161597872Y-74900499D01*
X161657483Y-74894091D01*
X161792331Y-74843796D01*
X161907546Y-74757546D01*
X161914350Y-74748455D01*
X161970280Y-74706584D01*
X162039971Y-74701597D01*
X162084740Y-74721188D01*
X162097512Y-74730130D01*
X162097518Y-74730134D01*
X162303673Y-74826265D01*
X162303682Y-74826269D01*
X162523389Y-74885139D01*
X162523400Y-74885141D01*
X162749998Y-74904966D01*
X162750002Y-74904966D01*
X162976599Y-74885141D01*
X162976610Y-74885139D01*
X163196317Y-74826269D01*
X163196331Y-74826264D01*
X163402478Y-74730136D01*
X163475471Y-74679024D01*
X162796447Y-74000000D01*
X162802661Y-74000000D01*
X162904394Y-73972741D01*
X162995606Y-73920080D01*
X163070080Y-73845606D01*
X163122741Y-73754394D01*
X163150000Y-73652661D01*
X163150000Y-73646447D01*
X163829024Y-74325471D01*
X163880136Y-74252478D01*
X163976264Y-74046331D01*
X163976269Y-74046317D01*
X164035139Y-73826610D01*
X164035141Y-73826599D01*
X164054966Y-73600002D01*
X164054966Y-73599997D01*
X164035141Y-73373400D01*
X164035139Y-73373389D01*
X163976269Y-73153682D01*
X163976264Y-73153668D01*
X163880136Y-72947521D01*
X163880132Y-72947513D01*
X163829025Y-72874526D01*
X163150000Y-73553551D01*
X163150000Y-73547339D01*
X163122741Y-73445606D01*
X163070080Y-73354394D01*
X162995606Y-73279920D01*
X162904394Y-73227259D01*
X162802661Y-73200000D01*
X162796447Y-73200000D01*
X163475472Y-72520974D01*
X163402478Y-72469863D01*
X163196331Y-72373735D01*
X163196320Y-72373731D01*
X163153351Y-72362218D01*
X163093691Y-72325853D01*
X163063162Y-72263006D01*
X163071457Y-72193630D01*
X163115942Y-72139752D01*
X163182494Y-72118478D01*
X163185445Y-72118443D01*
X173082085Y-72118443D01*
X173123039Y-72125400D01*
X173175764Y-72143850D01*
X173202802Y-72153311D01*
X173202807Y-72153312D01*
X173382053Y-72173508D01*
X173382057Y-72173508D01*
X173382061Y-72173508D01*
X173561306Y-72153312D01*
X173561309Y-72153311D01*
X173561312Y-72153311D01*
X173731579Y-72093732D01*
X173884319Y-71997759D01*
X174011873Y-71870205D01*
X174107846Y-71717465D01*
X174167425Y-71547198D01*
X174168119Y-71541042D01*
X174187622Y-71367946D01*
X174187622Y-71367939D01*
X174167426Y-71188693D01*
X174167425Y-71188688D01*
X174135225Y-71096666D01*
X174107846Y-71018421D01*
X174011873Y-70865681D01*
X173884319Y-70738127D01*
X173828195Y-70702862D01*
X173731580Y-70642154D01*
X173561311Y-70582574D01*
X173561306Y-70582573D01*
X173382061Y-70562378D01*
X173382053Y-70562378D01*
X173202807Y-70582573D01*
X173202802Y-70582574D01*
X173123040Y-70610485D01*
X173082085Y-70617443D01*
X153818137Y-70617443D01*
X153673149Y-70646283D01*
X153673139Y-70646286D01*
X153536568Y-70702855D01*
X153536556Y-70702862D01*
X153489206Y-70734501D01*
X153489204Y-70734502D01*
X153413646Y-70784986D01*
X153413641Y-70784990D01*
X151921500Y-72277130D01*
X151860177Y-72310615D01*
X151823012Y-72312977D01*
X151610002Y-72294341D01*
X151609998Y-72294341D01*
X151396986Y-72312977D01*
X151328486Y-72299210D01*
X151298498Y-72277130D01*
X149333550Y-70312181D01*
X149300065Y-70250858D01*
X149305049Y-70181166D01*
X149346921Y-70125233D01*
X149412385Y-70100816D01*
X149421231Y-70100500D01*
X167565890Y-70100500D01*
X167565892Y-70100500D01*
X167693186Y-70066392D01*
X167807314Y-70000500D01*
X171797104Y-66010707D01*
X171797109Y-66010704D01*
X171807312Y-66000500D01*
X171807314Y-66000500D01*
X171900500Y-65907314D01*
X171966392Y-65793186D01*
X172000500Y-65665892D01*
X172000500Y-59797114D01*
X172020185Y-59730075D01*
X172072989Y-59684320D01*
X172142147Y-59674376D01*
X172205703Y-59703401D01*
G37*
%TD.AperFunction*%
%TA.AperFunction,Conductor*%
G36*
X148449811Y-71555187D02*
G01*
X148470453Y-71571821D01*
X148995508Y-72096876D01*
X149028993Y-72158199D01*
X149024009Y-72227891D01*
X148982137Y-72283824D01*
X148918636Y-72308085D01*
X148834684Y-72315430D01*
X148834674Y-72315432D01*
X148606517Y-72376566D01*
X148606508Y-72376570D01*
X148392420Y-72476401D01*
X148308626Y-72535072D01*
X148940591Y-73167037D01*
X148877008Y-73184075D01*
X148762994Y-73249901D01*
X148669902Y-73342993D01*
X148604076Y-73457007D01*
X148587038Y-73520590D01*
X147955073Y-72888625D01*
X147955073Y-72888626D01*
X147901880Y-72964595D01*
X147847304Y-73008220D01*
X147777805Y-73015414D01*
X147715451Y-72983892D01*
X147698730Y-72964595D01*
X147568494Y-72778597D01*
X147401402Y-72611506D01*
X147401395Y-72611501D01*
X147207834Y-72475967D01*
X147207830Y-72475965D01*
X147155459Y-72451544D01*
X146993663Y-72376097D01*
X146993659Y-72376096D01*
X146993655Y-72376094D01*
X146765413Y-72314938D01*
X146765403Y-72314936D01*
X146530001Y-72294341D01*
X146529999Y-72294341D01*
X146294590Y-72314937D01*
X146294589Y-72314937D01*
X146222008Y-72334384D01*
X146152158Y-72332720D01*
X146102236Y-72302290D01*
X145547130Y-71747183D01*
X145513645Y-71685860D01*
X145518629Y-71616168D01*
X145560501Y-71560235D01*
X145625965Y-71535818D01*
X145634811Y-71535502D01*
X148382772Y-71535502D01*
X148449811Y-71555187D01*
G37*
%TD.AperFunction*%
%TA.AperFunction,Conductor*%
G36*
X117658186Y-58614272D02*
G01*
X117714120Y-58656143D01*
X117738537Y-58721608D01*
X117731895Y-58771408D01*
X117714632Y-58820742D01*
X117714630Y-58820750D01*
X117694435Y-58999996D01*
X117694435Y-59000003D01*
X117714630Y-59179249D01*
X117714631Y-59179254D01*
X117742542Y-59259017D01*
X117749500Y-59299972D01*
X117749500Y-66573918D01*
X117749500Y-66573920D01*
X117749499Y-66573920D01*
X117778340Y-66718907D01*
X117778343Y-66718917D01*
X117815186Y-66807865D01*
X117822655Y-66877335D01*
X117791379Y-66939814D01*
X117731290Y-66975465D01*
X117661465Y-66972971D01*
X117612944Y-66942998D01*
X117186819Y-66516873D01*
X117153334Y-66455550D01*
X117150500Y-66429192D01*
X117150500Y-62005067D01*
X117169507Y-61939094D01*
X117225788Y-61849524D01*
X117225789Y-61849522D01*
X117285368Y-61679255D01*
X117294314Y-61599859D01*
X117305565Y-61500003D01*
X117305565Y-61499996D01*
X117285369Y-61320750D01*
X117285366Y-61320737D01*
X117225790Y-61150481D01*
X117225789Y-61150478D01*
X117194257Y-61100295D01*
X117169506Y-61060903D01*
X117150500Y-60994931D01*
X117150500Y-59070808D01*
X117170185Y-59003769D01*
X117186819Y-58983127D01*
X117349204Y-58820742D01*
X117527174Y-58642771D01*
X117588495Y-58609288D01*
X117658186Y-58614272D01*
G37*
%TD.AperFunction*%
%TA.AperFunction,Conductor*%
G36*
X115166082Y-58394801D02*
G01*
X115207743Y-58450891D01*
X115213016Y-58517980D01*
X115199500Y-58585928D01*
X115199500Y-66325500D01*
X115179815Y-66392539D01*
X115127011Y-66438294D01*
X115075500Y-66449500D01*
X114089455Y-66449500D01*
X114022416Y-66429815D01*
X114001774Y-66413181D01*
X111856698Y-64268105D01*
X111823213Y-64206782D01*
X111824174Y-64149983D01*
X111854336Y-64030875D01*
X111854336Y-64030874D01*
X111854339Y-64030863D01*
X111854340Y-64030855D01*
X111873505Y-63799564D01*
X111873505Y-63799551D01*
X111854340Y-63568260D01*
X111854338Y-63568249D01*
X111797362Y-63343257D01*
X111723190Y-63174163D01*
X111714287Y-63104863D01*
X111744264Y-63041751D01*
X111803603Y-63004864D01*
X111836746Y-63000353D01*
X111854253Y-63000353D01*
X111854254Y-63000353D01*
X112083186Y-62962151D01*
X112302708Y-62886789D01*
X112506831Y-62776323D01*
X112689989Y-62633766D01*
X112847184Y-62463006D01*
X112974129Y-62268702D01*
X113067362Y-62056153D01*
X113124339Y-61831158D01*
X113128821Y-61777071D01*
X113143505Y-61599859D01*
X113143505Y-61599846D01*
X113124340Y-61368555D01*
X113124338Y-61368544D01*
X113067362Y-61143552D01*
X112992971Y-60973959D01*
X112984068Y-60904659D01*
X113014045Y-60841547D01*
X113073384Y-60804660D01*
X113106527Y-60800149D01*
X113124211Y-60800149D01*
X113124215Y-60800148D01*
X113124500Y-60800100D01*
X112878793Y-59883111D01*
X112942379Y-59900149D01*
X113074031Y-59900149D01*
X113201198Y-59866074D01*
X113315212Y-59800248D01*
X113361758Y-59753701D01*
X113606766Y-60668084D01*
X113776551Y-60576202D01*
X113776560Y-60576196D01*
X113959642Y-60433697D01*
X113959646Y-60433694D01*
X114116790Y-60262991D01*
X114243688Y-60068758D01*
X114336887Y-59856284D01*
X114393843Y-59631367D01*
X114413003Y-59400154D01*
X114413003Y-59400143D01*
X114403470Y-59285108D01*
X113491167Y-59529557D01*
X113508205Y-59465975D01*
X113508205Y-59334323D01*
X113474130Y-59207156D01*
X113408304Y-59093142D01*
X113361756Y-59046594D01*
X114274594Y-58802000D01*
X114262643Y-58774754D01*
X114253740Y-58705453D01*
X114283718Y-58642341D01*
X114343057Y-58605455D01*
X114376199Y-58600944D01*
X114394253Y-58600944D01*
X114394254Y-58600944D01*
X114623186Y-58562742D01*
X114842708Y-58487380D01*
X115032383Y-58384732D01*
X115100709Y-58370138D01*
X115166082Y-58394801D01*
G37*
%TD.AperFunction*%
%TA.AperFunction,Conductor*%
G36*
X181029335Y-61463145D02*
G01*
X181067444Y-61508564D01*
X181497114Y-62383043D01*
X181509010Y-62451892D01*
X181481795Y-62516244D01*
X181424109Y-62555666D01*
X181354268Y-62557643D01*
X181326806Y-62546780D01*
X181264503Y-62513064D01*
X181264495Y-62513061D01*
X181044984Y-62437702D01*
X180873282Y-62409050D01*
X180816049Y-62399500D01*
X180797994Y-62399500D01*
X180730955Y-62379815D01*
X180685200Y-62327011D01*
X180675256Y-62257853D01*
X180684438Y-62225691D01*
X180696389Y-62198442D01*
X179783552Y-61953848D01*
X179830099Y-61907302D01*
X179895925Y-61793288D01*
X179930000Y-61666121D01*
X179930000Y-61534469D01*
X179912962Y-61470883D01*
X180825265Y-61715334D01*
X180834798Y-61600300D01*
X180834798Y-61600295D01*
X180832576Y-61573490D01*
X180846655Y-61505053D01*
X180895499Y-61455093D01*
X180963599Y-61439470D01*
X181029335Y-61463145D01*
G37*
%TD.AperFunction*%
%TA.AperFunction,Conductor*%
G36*
X179750684Y-59152924D02*
G01*
X179783155Y-59188120D01*
X179847828Y-59293404D01*
X179849813Y-59296751D01*
X179912750Y-59406810D01*
X180416127Y-60287069D01*
X180420463Y-60294650D01*
X180436654Y-60362618D01*
X180413529Y-60428550D01*
X180358430Y-60471513D01*
X180288850Y-60477867D01*
X180236659Y-60454060D01*
X180198354Y-60424247D01*
X180198351Y-60424244D01*
X180028560Y-60332358D01*
X179783552Y-61246741D01*
X179737007Y-61200196D01*
X179622993Y-61134370D01*
X179495826Y-61100295D01*
X179364174Y-61100295D01*
X179300588Y-61117333D01*
X179546296Y-60200342D01*
X179546013Y-60200295D01*
X179528322Y-60200295D01*
X179461283Y-60180610D01*
X179415528Y-60127806D01*
X179405584Y-60058648D01*
X179414766Y-60026485D01*
X179489157Y-59856891D01*
X179534141Y-59679255D01*
X179546134Y-59631896D01*
X179548905Y-59598455D01*
X179565300Y-59400597D01*
X179565300Y-59400585D01*
X179553921Y-59263263D01*
X179568002Y-59194827D01*
X179616847Y-59144868D01*
X179684948Y-59129247D01*
X179750684Y-59152924D01*
G37*
%TD.AperFunction*%
%TA.AperFunction,Conductor*%
G36*
X111565567Y-59216632D02*
G01*
X111604530Y-59274630D01*
X111609864Y-59322218D01*
X111603407Y-59400143D01*
X111612939Y-59515188D01*
X112525243Y-59270737D01*
X112508205Y-59334323D01*
X112508205Y-59465975D01*
X112542280Y-59593142D01*
X112608106Y-59707156D01*
X112654651Y-59753701D01*
X111741813Y-59998296D01*
X111753765Y-60025543D01*
X111762668Y-60094843D01*
X111732691Y-60157955D01*
X111673351Y-60194842D01*
X111640209Y-60199353D01*
X111622156Y-60199353D01*
X111576369Y-60206993D01*
X111393220Y-60237555D01*
X111173709Y-60312914D01*
X111173695Y-60312920D01*
X110970399Y-60422938D01*
X110902071Y-60437533D01*
X110836699Y-60412870D01*
X110795038Y-60356779D01*
X110790316Y-60287069D01*
X110803739Y-60252328D01*
X110812187Y-60237555D01*
X111350194Y-59296738D01*
X111352145Y-59293446D01*
X111380631Y-59247073D01*
X111432493Y-59200255D01*
X111501434Y-59188907D01*
X111565567Y-59216632D01*
G37*
%TD.AperFunction*%
%TA.AperFunction,Conductor*%
G36*
X150482003Y-40086441D02*
G01*
X150496274Y-40088014D01*
X150583111Y-40097591D01*
X150586876Y-40098066D01*
X151820181Y-40273405D01*
X151823969Y-40274005D01*
X152758043Y-40436854D01*
X153051030Y-40487934D01*
X153054853Y-40488662D01*
X154274636Y-40740995D01*
X154278437Y-40741843D01*
X155489719Y-41032330D01*
X155493400Y-41033274D01*
X156658010Y-41351525D01*
X156694961Y-41361623D01*
X156698699Y-41362707D01*
X157889403Y-41728609D01*
X157893048Y-41729793D01*
X159071627Y-42132856D01*
X159075233Y-42134152D01*
X160240648Y-42574022D01*
X160244221Y-42575435D01*
X161038784Y-42904170D01*
X161093203Y-42947988D01*
X161115295Y-43014273D01*
X161098044Y-43081980D01*
X161046926Y-43129611D01*
X161031639Y-43136031D01*
X160836390Y-43203061D01*
X160836381Y-43203064D01*
X160632257Y-43313531D01*
X160632251Y-43313535D01*
X160449108Y-43456081D01*
X160449105Y-43456084D01*
X160449102Y-43456086D01*
X160449102Y-43456087D01*
X160413013Y-43495290D01*
X160291902Y-43626852D01*
X160164961Y-43821151D01*
X160071728Y-44033699D01*
X160014752Y-44258691D01*
X160014750Y-44258702D01*
X159995586Y-44489993D01*
X159995586Y-44490006D01*
X160014751Y-44721301D01*
X160044917Y-44840425D01*
X160042292Y-44910245D01*
X160012392Y-44958546D01*
X158787229Y-46183709D01*
X158725906Y-46217194D01*
X158713431Y-46219248D01*
X158547429Y-46237951D01*
X158547424Y-46237952D01*
X158377155Y-46297532D01*
X158224416Y-46393505D01*
X158096863Y-46521058D01*
X158000890Y-46673797D01*
X157941310Y-46844066D01*
X157941309Y-46844071D01*
X157921114Y-47023317D01*
X157921114Y-47023324D01*
X157941309Y-47202570D01*
X157941310Y-47202575D01*
X158000890Y-47372844D01*
X158073740Y-47488783D01*
X158096863Y-47525583D01*
X158224417Y-47653137D01*
X158377157Y-47749110D01*
X158500161Y-47792151D01*
X158547424Y-47808689D01*
X158547429Y-47808690D01*
X158726675Y-47828886D01*
X158726679Y-47828886D01*
X158726683Y-47828886D01*
X158905928Y-47808690D01*
X158905931Y-47808689D01*
X158905934Y-47808689D01*
X159076201Y-47749110D01*
X159228941Y-47653137D01*
X159356495Y-47525583D01*
X159452468Y-47372843D01*
X159452469Y-47372837D01*
X159452471Y-47372836D01*
X159455492Y-47366565D01*
X159457155Y-47367366D01*
X159480273Y-47330557D01*
X160928686Y-45882144D01*
X160990007Y-45848661D01*
X161050639Y-45852202D01*
X161050934Y-45851040D01*
X161055897Y-45852296D01*
X161055901Y-45852296D01*
X161055905Y-45852298D01*
X161284837Y-45890500D01*
X161284838Y-45890500D01*
X161516934Y-45890500D01*
X161516935Y-45890500D01*
X161745867Y-45852298D01*
X161965389Y-45776936D01*
X161965396Y-45776932D01*
X161965399Y-45776931D01*
X162019845Y-45747466D01*
X162088173Y-45732870D01*
X162153545Y-45757532D01*
X162195206Y-45813622D01*
X162202439Y-45846280D01*
X162214456Y-45991301D01*
X162244622Y-46110425D01*
X162241997Y-46180245D01*
X162212097Y-46228546D01*
X160996078Y-47444565D01*
X160934755Y-47478050D01*
X160922281Y-47480104D01*
X160790419Y-47494961D01*
X160620147Y-47554541D01*
X160467406Y-47650515D01*
X160339853Y-47778068D01*
X160243880Y-47930807D01*
X160184300Y-48101076D01*
X160184299Y-48101081D01*
X160164104Y-48280327D01*
X160164104Y-48280334D01*
X160184299Y-48459580D01*
X160184300Y-48459585D01*
X160243880Y-48629854D01*
X160304047Y-48725608D01*
X160339853Y-48782593D01*
X160467407Y-48910147D01*
X160620147Y-49006120D01*
X160790414Y-49065699D01*
X160790419Y-49065700D01*
X160969665Y-49085896D01*
X160969669Y-49085896D01*
X160969673Y-49085896D01*
X161148918Y-49065700D01*
X161148921Y-49065699D01*
X161148924Y-49065699D01*
X161319191Y-49006120D01*
X161471931Y-48910147D01*
X161599485Y-48782593D01*
X161695458Y-48629853D01*
X161710210Y-48587692D01*
X161739569Y-48540966D01*
X163128391Y-47152144D01*
X163189712Y-47118661D01*
X163250344Y-47122202D01*
X163250639Y-47121040D01*
X163255602Y-47122296D01*
X163255606Y-47122296D01*
X163255610Y-47122298D01*
X163484542Y-47160500D01*
X163484543Y-47160500D01*
X163716639Y-47160500D01*
X163716640Y-47160500D01*
X163945572Y-47122298D01*
X164165094Y-47046936D01*
X164220032Y-47017204D01*
X164288355Y-47002610D01*
X164353728Y-47027271D01*
X164395390Y-47083361D01*
X164402623Y-47116020D01*
X164405027Y-47145039D01*
X164405028Y-47145040D01*
X165317333Y-46900588D01*
X165300295Y-46964174D01*
X165300295Y-47095826D01*
X165334370Y-47222993D01*
X165400196Y-47337007D01*
X165446741Y-47383552D01*
X164533903Y-47628147D01*
X164564811Y-47698609D01*
X164691709Y-47892842D01*
X164848853Y-48063545D01*
X164848857Y-48063548D01*
X165031939Y-48206047D01*
X165031943Y-48206050D01*
X165235992Y-48316476D01*
X165236001Y-48316479D01*
X165455434Y-48391811D01*
X165684288Y-48430000D01*
X165916301Y-48430000D01*
X165916305Y-48429999D01*
X165916590Y-48429951D01*
X165670883Y-47512962D01*
X165734469Y-47530000D01*
X165866121Y-47530000D01*
X165993288Y-47495925D01*
X166107302Y-47430099D01*
X166153848Y-47383552D01*
X166398856Y-48297935D01*
X166419209Y-48286921D01*
X166487537Y-48272325D01*
X166552909Y-48296987D01*
X166594571Y-48353078D01*
X166601803Y-48385735D01*
X166613864Y-48531296D01*
X166613866Y-48531308D01*
X166670842Y-48756300D01*
X166764075Y-48968848D01*
X166891016Y-49163147D01*
X166891019Y-49163151D01*
X166891021Y-49163153D01*
X167048216Y-49333913D01*
X167048219Y-49333915D01*
X167048222Y-49333918D01*
X167231365Y-49476464D01*
X167231371Y-49476468D01*
X167231374Y-49476470D01*
X167435497Y-49586936D01*
X167544288Y-49624284D01*
X167655015Y-49662297D01*
X167655017Y-49662297D01*
X167655019Y-49662298D01*
X167883951Y-49700500D01*
X167883952Y-49700500D01*
X168116048Y-49700500D01*
X168116049Y-49700500D01*
X168344981Y-49662298D01*
X168564503Y-49586936D01*
X168768626Y-49476470D01*
X168951784Y-49333913D01*
X169108979Y-49163153D01*
X169235924Y-48968849D01*
X169329157Y-48756300D01*
X169386134Y-48531305D01*
X169392077Y-48459585D01*
X169405300Y-48300006D01*
X169405300Y-48299993D01*
X169386135Y-48068702D01*
X169386131Y-48068682D01*
X169349633Y-47924557D01*
X169352257Y-47854737D01*
X169392213Y-47797419D01*
X169456814Y-47770802D01*
X169525550Y-47783336D01*
X169544223Y-47794905D01*
X169979902Y-48121563D01*
X169982979Y-48123946D01*
X170270905Y-48354284D01*
X170955651Y-48902075D01*
X170958606Y-48904515D01*
X171906403Y-49712799D01*
X171909272Y-49715324D01*
X172826232Y-50548399D01*
X172831246Y-50552954D01*
X172834084Y-50555616D01*
X173729245Y-51421690D01*
X173731999Y-51424439D01*
X174599575Y-52318206D01*
X174602242Y-52321041D01*
X175441350Y-53241596D01*
X175443913Y-53244498D01*
X175839722Y-53707083D01*
X176253707Y-54190910D01*
X176256191Y-54193906D01*
X177035915Y-55165293D01*
X177038303Y-55168366D01*
X177395537Y-55643197D01*
X177406533Y-55657812D01*
X177431106Y-55723217D01*
X177416418Y-55791526D01*
X177367132Y-55841049D01*
X177298895Y-55856065D01*
X177267183Y-55849642D01*
X177234983Y-55838588D01*
X177082359Y-55813120D01*
X177006049Y-55800386D01*
X176773951Y-55800386D01*
X176728164Y-55808026D01*
X176545015Y-55838588D01*
X176325504Y-55913947D01*
X176325495Y-55913950D01*
X176121371Y-56024417D01*
X176121365Y-56024421D01*
X175938222Y-56166967D01*
X175938219Y-56166970D01*
X175781016Y-56337738D01*
X175678792Y-56494207D01*
X175625646Y-56539564D01*
X175574983Y-56550386D01*
X175235043Y-56550386D01*
X175109375Y-56575383D01*
X175109369Y-56575385D01*
X174990989Y-56624419D01*
X174990980Y-56624424D01*
X174884445Y-56695609D01*
X174884441Y-56695612D01*
X172901775Y-58678277D01*
X172840452Y-58711762D01*
X172827988Y-58713815D01*
X172820752Y-58714630D01*
X172820744Y-58714632D01*
X172650478Y-58774210D01*
X172497737Y-58870184D01*
X172370184Y-58997737D01*
X172274211Y-59150476D01*
X172214631Y-59320745D01*
X172214630Y-59320749D01*
X172207696Y-59382296D01*
X172180629Y-59446710D01*
X172123034Y-59486265D01*
X172053197Y-59488402D01*
X171993291Y-59452444D01*
X171971785Y-59413371D01*
X171969500Y-59414318D01*
X171966390Y-59406810D01*
X171953436Y-59384374D01*
X171946405Y-59370173D01*
X171936412Y-59346255D01*
X171936412Y-59346254D01*
X171921741Y-59327256D01*
X171912497Y-59313467D01*
X171900500Y-59292685D01*
X171882161Y-59274346D01*
X171871699Y-59262454D01*
X171552684Y-58849347D01*
X171222896Y-58450891D01*
X170836115Y-57983574D01*
X170090675Y-57142524D01*
X169317219Y-56327164D01*
X168516632Y-55538426D01*
X167689831Y-54777213D01*
X167231808Y-54383293D01*
X166837775Y-54044407D01*
X166417612Y-53707083D01*
X165961394Y-53340812D01*
X165061737Y-52667266D01*
X164139817Y-52024530D01*
X163196689Y-51413338D01*
X162233432Y-50834390D01*
X162175187Y-50802012D01*
X161251144Y-50288346D01*
X160250980Y-49775846D01*
X160250973Y-49775842D01*
X160250958Y-49775835D01*
X159234009Y-49297440D01*
X159233990Y-49297431D01*
X159233984Y-49297429D01*
X158201474Y-48853711D01*
X157154498Y-48445145D01*
X156112735Y-48078702D01*
X156094327Y-48072227D01*
X155402074Y-47854737D01*
X155022137Y-47735369D01*
X153939196Y-47434969D01*
X152846667Y-47171352D01*
X151745907Y-46944844D01*
X151745899Y-46944842D01*
X151745896Y-46944842D01*
X150638076Y-46755683D01*
X149524484Y-46604094D01*
X148406413Y-46490251D01*
X147285145Y-46414285D01*
X146161929Y-46376280D01*
X146161927Y-46376280D01*
X145038073Y-46376280D01*
X145038071Y-46376280D01*
X143914854Y-46414285D01*
X142793586Y-46490251D01*
X141675515Y-46604094D01*
X140561923Y-46755683D01*
X139454092Y-46944844D01*
X138353332Y-47171352D01*
X137260803Y-47434969D01*
X136177862Y-47735369D01*
X135480885Y-47954344D01*
X135105673Y-48072227D01*
X135105665Y-48072229D01*
X135105658Y-48072232D01*
X134045501Y-48445145D01*
X132998525Y-48853711D01*
X131966015Y-49297429D01*
X131965998Y-49297436D01*
X131965991Y-49297440D01*
X130949042Y-49775835D01*
X130949019Y-49775846D01*
X129948855Y-50288346D01*
X128966581Y-50834382D01*
X128003315Y-51413335D01*
X127060176Y-52024534D01*
X126481150Y-52428214D01*
X126414898Y-52450406D01*
X126347166Y-52433257D01*
X126299457Y-52382212D01*
X126286919Y-52313476D01*
X126313533Y-52248874D01*
X126322542Y-52238824D01*
X130382509Y-48178859D01*
X130419201Y-48123945D01*
X130449435Y-48078697D01*
X130459558Y-48063545D01*
X130464641Y-48055938D01*
X130506723Y-47954344D01*
X130521216Y-47919355D01*
X130550057Y-47774360D01*
X130550057Y-47626525D01*
X130550057Y-45751198D01*
X130569742Y-45684159D01*
X130597895Y-45653344D01*
X130751341Y-45533913D01*
X130908536Y-45363153D01*
X131035481Y-45168849D01*
X131128714Y-44956300D01*
X131185691Y-44731305D01*
X131185692Y-44731297D01*
X131204857Y-44500006D01*
X131204857Y-44499993D01*
X131185692Y-44268702D01*
X131185690Y-44268691D01*
X131128714Y-44043699D01*
X131035481Y-43831151D01*
X130908540Y-43636852D01*
X130908537Y-43636849D01*
X130908536Y-43636847D01*
X130751341Y-43466087D01*
X130751336Y-43466083D01*
X130751334Y-43466081D01*
X130568191Y-43323535D01*
X130568185Y-43323531D01*
X130364061Y-43213064D01*
X130364052Y-43213061D01*
X130155352Y-43141413D01*
X130098336Y-43101027D01*
X130072206Y-43036228D01*
X130085258Y-42967588D01*
X130133347Y-42916900D01*
X130148195Y-42909557D01*
X130955799Y-42575426D01*
X130959329Y-42574030D01*
X132124786Y-42134144D01*
X132128351Y-42132863D01*
X133306970Y-41729786D01*
X133310578Y-41728614D01*
X134501316Y-41362702D01*
X134505023Y-41361627D01*
X135706614Y-41033270D01*
X135710264Y-41032334D01*
X136921576Y-40741840D01*
X136925353Y-40740997D01*
X138145157Y-40488659D01*
X138148958Y-40487936D01*
X139376040Y-40274003D01*
X139379808Y-40273406D01*
X140613131Y-40098065D01*
X140616880Y-40097592D01*
X140695736Y-40088896D01*
X140764529Y-40101114D01*
X140815797Y-40148584D01*
X140833261Y-40216236D01*
X140811377Y-40282591D01*
X140800558Y-40296131D01*
X140671018Y-40436849D01*
X140544075Y-40631151D01*
X140450842Y-40843699D01*
X140393866Y-41068691D01*
X140393864Y-41068702D01*
X140374700Y-41299993D01*
X140374700Y-41300006D01*
X140393864Y-41531297D01*
X140393866Y-41531308D01*
X140450842Y-41756300D01*
X140544075Y-41968848D01*
X140671016Y-42163147D01*
X140671018Y-42163149D01*
X140671021Y-42163153D01*
X140828216Y-42333913D01*
X140828219Y-42333915D01*
X140828222Y-42333918D01*
X141011365Y-42476464D01*
X141011371Y-42476468D01*
X141011374Y-42476470D01*
X141173682Y-42564307D01*
X141214652Y-42586479D01*
X141215497Y-42586936D01*
X141329487Y-42626068D01*
X141435015Y-42662297D01*
X141435017Y-42662297D01*
X141435019Y-42662298D01*
X141663951Y-42700500D01*
X141663952Y-42700500D01*
X141896048Y-42700500D01*
X141896049Y-42700500D01*
X142124981Y-42662298D01*
X142344503Y-42586936D01*
X142548626Y-42476470D01*
X142549170Y-42476047D01*
X142610129Y-42428600D01*
X142731784Y-42333913D01*
X142888979Y-42163153D01*
X142946191Y-42075582D01*
X142999337Y-42030226D01*
X143068568Y-42020802D01*
X143131904Y-42050304D01*
X143153809Y-42075582D01*
X143211022Y-42163153D01*
X143368217Y-42333913D01*
X143368220Y-42333915D01*
X143368223Y-42333918D01*
X143551366Y-42476464D01*
X143551372Y-42476468D01*
X143551375Y-42476470D01*
X143713683Y-42564307D01*
X143754653Y-42586479D01*
X143755498Y-42586936D01*
X143869488Y-42626068D01*
X143975016Y-42662297D01*
X143975018Y-42662297D01*
X143975020Y-42662298D01*
X144203952Y-42700500D01*
X144203953Y-42700500D01*
X144436049Y-42700500D01*
X144436050Y-42700500D01*
X144664982Y-42662298D01*
X144884504Y-42586936D01*
X145088627Y-42476470D01*
X145089171Y-42476047D01*
X145150130Y-42428600D01*
X145271785Y-42333913D01*
X145428980Y-42163153D01*
X145486490Y-42075126D01*
X145539636Y-42029770D01*
X145608867Y-42020346D01*
X145672203Y-42049848D01*
X145694108Y-42075127D01*
X145708812Y-42097633D01*
X146377037Y-41429408D01*
X146394075Y-41492993D01*
X146459901Y-41607007D01*
X146552993Y-41700099D01*
X146667007Y-41765925D01*
X146730590Y-41782962D01*
X146061201Y-42452351D01*
X146091649Y-42476050D01*
X146295697Y-42586476D01*
X146295706Y-42586479D01*
X146515139Y-42661811D01*
X146743993Y-42700000D01*
X146976007Y-42700000D01*
X147204860Y-42661811D01*
X147424293Y-42586479D01*
X147424301Y-42586476D01*
X147628355Y-42476047D01*
X147658797Y-42452351D01*
X147658798Y-42452350D01*
X146989410Y-41782962D01*
X147052993Y-41765925D01*
X147167007Y-41700099D01*
X147260099Y-41607007D01*
X147325925Y-41492993D01*
X147342962Y-41429409D01*
X148011185Y-42097632D01*
X148025891Y-42075125D01*
X148079037Y-42029768D01*
X148148268Y-42020344D01*
X148211604Y-42049846D01*
X148233508Y-42075123D01*
X148291021Y-42163153D01*
X148448216Y-42333913D01*
X148448219Y-42333915D01*
X148448222Y-42333918D01*
X148631365Y-42476464D01*
X148631371Y-42476468D01*
X148631374Y-42476470D01*
X148793682Y-42564307D01*
X148834652Y-42586479D01*
X148835497Y-42586936D01*
X148949487Y-42626068D01*
X149055015Y-42662297D01*
X149055017Y-42662297D01*
X149055019Y-42662298D01*
X149283951Y-42700500D01*
X149283952Y-42700500D01*
X149516048Y-42700500D01*
X149516049Y-42700500D01*
X149744981Y-42662298D01*
X149964503Y-42586936D01*
X150168626Y-42476470D01*
X150169170Y-42476047D01*
X150230129Y-42428600D01*
X150351784Y-42333913D01*
X150508979Y-42163153D01*
X150635924Y-41968849D01*
X150729157Y-41756300D01*
X150786134Y-41531305D01*
X150799846Y-41365826D01*
X150805300Y-41300006D01*
X150805300Y-41299993D01*
X150786135Y-41068702D01*
X150786133Y-41068691D01*
X150729157Y-40843699D01*
X150635924Y-40631151D01*
X150508983Y-40436852D01*
X150508980Y-40436849D01*
X150508979Y-40436847D01*
X150377179Y-40293674D01*
X150346259Y-40231022D01*
X150354119Y-40161596D01*
X150398266Y-40107441D01*
X150464684Y-40085750D01*
X150482003Y-40086441D01*
G37*
%TD.AperFunction*%
%TA.AperFunction,Conductor*%
G36*
X112840013Y-57219893D02*
G01*
X112877136Y-57279084D01*
X112881357Y-57302464D01*
X112892069Y-57431740D01*
X112892071Y-57431752D01*
X112949047Y-57656744D01*
X113023439Y-57826339D01*
X113032342Y-57895639D01*
X113002365Y-57958751D01*
X112943025Y-57995638D01*
X112909883Y-58000149D01*
X112892203Y-58000149D01*
X112891908Y-58000197D01*
X113137614Y-58917186D01*
X113074031Y-58900149D01*
X112942379Y-58900149D01*
X112815212Y-58934224D01*
X112701198Y-59000050D01*
X112654650Y-59046597D01*
X112409643Y-58132212D01*
X112409642Y-58132212D01*
X112315534Y-58183141D01*
X112247206Y-58197736D01*
X112181834Y-58173073D01*
X112140173Y-58116983D01*
X112135451Y-58047273D01*
X112152944Y-58005905D01*
X112654214Y-57244515D01*
X112707517Y-57199348D01*
X112776781Y-57190168D01*
X112840013Y-57219893D01*
G37*
%TD.AperFunction*%
%TA.AperFunction,Conductor*%
G36*
X127292845Y-46170099D02*
G01*
X127406859Y-46235925D01*
X127534026Y-46270000D01*
X127665678Y-46270000D01*
X127729261Y-46252962D01*
X127483555Y-47169951D01*
X127483843Y-47169999D01*
X127483844Y-47170000D01*
X127715859Y-47170000D01*
X127944712Y-47131811D01*
X128164145Y-47056479D01*
X128164154Y-47056476D01*
X128368203Y-46946050D01*
X128368207Y-46946047D01*
X128551289Y-46803548D01*
X128551293Y-46803545D01*
X128708437Y-46632842D01*
X128821248Y-46460172D01*
X128874395Y-46414815D01*
X128943626Y-46405391D01*
X129006962Y-46434893D01*
X129044293Y-46493953D01*
X129049057Y-46527993D01*
X129049057Y-47338212D01*
X129029372Y-47405251D01*
X129012738Y-47425893D01*
X126202428Y-50236203D01*
X126141105Y-50269688D01*
X126071413Y-50264704D01*
X126015480Y-50222832D01*
X125991063Y-50157368D01*
X126000185Y-50101071D01*
X126025650Y-50039595D01*
X126050649Y-49913920D01*
X126050649Y-48354284D01*
X126070334Y-48287245D01*
X126115633Y-48245229D01*
X126168768Y-48216474D01*
X126168769Y-48216472D01*
X126168775Y-48216470D01*
X126351933Y-48073913D01*
X126509128Y-47903153D01*
X126636073Y-47708849D01*
X126729306Y-47496300D01*
X126786283Y-47271305D01*
X126798344Y-47125735D01*
X126823498Y-47060553D01*
X126879899Y-47019314D01*
X126949643Y-47015116D01*
X126980939Y-47026922D01*
X127001290Y-47037935D01*
X127246297Y-46123551D01*
X127292845Y-46170099D01*
G37*
%TD.AperFunction*%
%TA.AperFunction,Conductor*%
G36*
X167176221Y-46141855D02*
G01*
X167849759Y-46583700D01*
X167957435Y-46654336D01*
X167960647Y-46656516D01*
X167984368Y-46673165D01*
X167985563Y-46674004D01*
X168029127Y-46728629D01*
X168036243Y-46798136D01*
X168004652Y-46860455D01*
X167944383Y-46895802D01*
X167914327Y-46899500D01*
X167883951Y-46899500D01*
X167838164Y-46907140D01*
X167655015Y-46937702D01*
X167435504Y-47013061D01*
X167435490Y-47013067D01*
X167380558Y-47042795D01*
X167312230Y-47057390D01*
X167246858Y-47032727D01*
X167205197Y-46976636D01*
X167197965Y-46943980D01*
X167195560Y-46914959D01*
X166283257Y-47159408D01*
X166300295Y-47095826D01*
X166300295Y-46964174D01*
X166266220Y-46837007D01*
X166200394Y-46722993D01*
X166153846Y-46676445D01*
X167066684Y-46431851D01*
X167035779Y-46361393D01*
X167004398Y-46313360D01*
X166984211Y-46246470D01*
X167003391Y-46179284D01*
X167055849Y-46133134D01*
X167124931Y-46122671D01*
X167176221Y-46141855D01*
G37*
%TD.AperFunction*%
%TA.AperFunction,Conductor*%
G36*
X164918214Y-44787800D02*
G01*
X165592379Y-45171852D01*
X165846877Y-45316832D01*
X165850228Y-45318812D01*
X165983271Y-45400236D01*
X166030176Y-45452020D01*
X166041638Y-45520944D01*
X166014018Y-45585122D01*
X165956085Y-45624180D01*
X165918542Y-45630000D01*
X165684293Y-45630000D01*
X165683998Y-45630048D01*
X165929704Y-46547037D01*
X165866121Y-46530000D01*
X165734469Y-46530000D01*
X165607302Y-46564075D01*
X165493288Y-46629901D01*
X165446740Y-46676448D01*
X165201733Y-45762063D01*
X165201732Y-45762062D01*
X165181380Y-45773077D01*
X165113052Y-45787672D01*
X165047680Y-45763009D01*
X165006019Y-45706918D01*
X164998787Y-45674265D01*
X164986725Y-45528695D01*
X164957059Y-45411546D01*
X164929748Y-45303699D01*
X164870596Y-45168848D01*
X164836515Y-45091151D01*
X164753028Y-44963365D01*
X164732842Y-44896477D01*
X164752022Y-44829292D01*
X164804480Y-44783141D01*
X164873562Y-44772678D01*
X164918214Y-44787800D01*
G37*
%TD.AperFunction*%
%TA.AperFunction,Conductor*%
G36*
X126427734Y-44788083D02*
G01*
X126470606Y-44843253D01*
X126476846Y-44912843D01*
X126459033Y-44956494D01*
X126364371Y-45101386D01*
X126333461Y-45171852D01*
X127246300Y-45416445D01*
X127199753Y-45462993D01*
X127133927Y-45577007D01*
X127099852Y-45704174D01*
X127099852Y-45835826D01*
X127116889Y-45899409D01*
X126204585Y-45654958D01*
X126204584Y-45654959D01*
X126202180Y-45683978D01*
X126177027Y-45749163D01*
X126120625Y-45790401D01*
X126050881Y-45794599D01*
X126019587Y-45782793D01*
X125964658Y-45753067D01*
X125964655Y-45753066D01*
X125964652Y-45753064D01*
X125964646Y-45753062D01*
X125964644Y-45753061D01*
X125745133Y-45677702D01*
X125573431Y-45649050D01*
X125516198Y-45639500D01*
X125284100Y-45639500D01*
X125284096Y-45639500D01*
X125283383Y-45639619D01*
X125283088Y-45639583D01*
X125278989Y-45639923D01*
X125278919Y-45639079D01*
X125214018Y-45631236D01*
X125160197Y-45586681D01*
X125139008Y-45520102D01*
X125157179Y-45452636D01*
X125198248Y-45411546D01*
X125349771Y-45318812D01*
X125353082Y-45316855D01*
X126293849Y-44780928D01*
X126361840Y-44764850D01*
X126427734Y-44788083D01*
G37*
%TD.AperFunction*%
%TA.AperFunction,Conductor*%
G36*
X128513435Y-43720415D02*
G01*
X128552763Y-43778166D01*
X128554625Y-43848010D01*
X128548315Y-43866069D01*
X128470400Y-44043699D01*
X128413423Y-44268691D01*
X128413421Y-44268703D01*
X128401360Y-44414263D01*
X128376207Y-44479448D01*
X128319805Y-44520686D01*
X128250061Y-44524884D01*
X128218766Y-44513078D01*
X128198412Y-44502063D01*
X127953404Y-45416446D01*
X127906859Y-45369901D01*
X127792845Y-45304075D01*
X127665678Y-45270000D01*
X127534026Y-45270000D01*
X127470440Y-45287038D01*
X127716148Y-44370047D01*
X127715865Y-44370000D01*
X127559587Y-44370000D01*
X127492548Y-44350315D01*
X127446793Y-44297511D01*
X127436849Y-44228353D01*
X127465874Y-44164797D01*
X127501618Y-44136385D01*
X127539945Y-44116116D01*
X127543367Y-44114374D01*
X128380264Y-43704877D01*
X128449129Y-43693094D01*
X128513435Y-43720415D01*
G37*
%TD.AperFunction*%
%TA.AperFunction,Conductor*%
G36*
X146213417Y-39794126D02*
G01*
X146280139Y-39814860D01*
X146325060Y-39868376D01*
X146333917Y-39937682D01*
X146303898Y-40000774D01*
X146270489Y-40027166D01*
X146091650Y-40123949D01*
X146061200Y-40147647D01*
X146730591Y-40817037D01*
X146667007Y-40834075D01*
X146552993Y-40899901D01*
X146459901Y-40992993D01*
X146394075Y-41107007D01*
X146377037Y-41170591D01*
X145708811Y-40502365D01*
X145694106Y-40524873D01*
X145640959Y-40570230D01*
X145571728Y-40579653D01*
X145508392Y-40550150D01*
X145486490Y-40524873D01*
X145428985Y-40436854D01*
X145428984Y-40436852D01*
X145428981Y-40436849D01*
X145428980Y-40436847D01*
X145271785Y-40266087D01*
X145271780Y-40266083D01*
X145271778Y-40266081D01*
X145088635Y-40123535D01*
X145088624Y-40123528D01*
X144922342Y-40033541D01*
X144911095Y-40027454D01*
X144861505Y-39978236D01*
X144846397Y-39910019D01*
X144870567Y-39844463D01*
X144926343Y-39802382D01*
X144968166Y-39794415D01*
X145598088Y-39784530D01*
X145601912Y-39784530D01*
X146213417Y-39794126D01*
G37*
%TD.AperFunction*%
%TA.AperFunction,Conductor*%
G36*
X148095488Y-39862810D02*
G01*
X148099344Y-39863053D01*
X148567732Y-39899877D01*
X148633021Y-39924756D01*
X148674497Y-39980983D01*
X148678989Y-40050709D01*
X148645072Y-40111794D01*
X148634175Y-40121349D01*
X148448218Y-40266085D01*
X148448216Y-40266086D01*
X148448216Y-40266087D01*
X148363955Y-40357620D01*
X148291015Y-40436854D01*
X148233509Y-40524874D01*
X148180363Y-40570230D01*
X148111132Y-40579654D01*
X148047796Y-40550152D01*
X148025892Y-40524874D01*
X148011186Y-40502365D01*
X147342962Y-41170589D01*
X147325925Y-41107007D01*
X147260099Y-40992993D01*
X147167007Y-40899901D01*
X147052993Y-40834075D01*
X146989409Y-40817037D01*
X147658797Y-40147647D01*
X147658797Y-40147645D01*
X147628360Y-40123955D01*
X147628345Y-40123945D01*
X147532873Y-40072278D01*
X147483283Y-40023059D01*
X147468175Y-39954842D01*
X147492346Y-39889287D01*
X147548122Y-39847206D01*
X147597722Y-39839361D01*
X148095488Y-39862810D01*
G37*
%TD.AperFunction*%
%TD*%
M02*
