M48
; DRILL file {KiCad 8.0.6} date 2025-03-04T23:13:56+0700
; FORMAT={-:-/ absolute / metric / decimal}
; #@! TF.CreationDate,2025-03-04T23:13:56+07:00
; #@! TF.GenerationSoftware,Kicad,Pcbnew,8.0.6
; #@! TF.FileFunction,Plated,1,2,PTH
FMAT,2
METRIC
; #@! TA.AperFunction,Plated,PTH,ViaDrill
T1C0.300
; #@! TA.AperFunction,Plated,PTH,ComponentDrill
T2C0.700
; #@! TA.AperFunction,Plated,PTH,ComponentDrill
T3C0.800
; #@! TA.AperFunction,Plated,PTH,ComponentDrill
T4C1.000
; #@! TA.AperFunction,Plated,PTH,ComponentDrill
T5C1.100
%
G90
G05
T1
X116.5Y-61.5
X117.5Y-59.5
X118.5Y-59.0
X121.535Y-70.785
X121.75Y-73.0
X121.75Y-127.0
X128.1Y-75.55
X128.5Y-121.8
X128.5Y-126.7
X129.0Y-82.5
X129.0Y-135.7
X134.1Y-119.3
X136.55Y-116.975
X136.55Y-119.515
X136.55Y-122.055
X140.3Y-82.037
X143.0Y-71.535
X143.25Y-100.25
X143.25Y-119.515
X144.9Y-90.025
X144.9Y-92.565
X144.9Y-96.375
X147.25Y-101.0
X147.45Y-90.5
X147.45Y-92.3
X147.45Y-94.3
X147.45Y-96.1
X147.45Y-98.1
X148.0Y-122.055
X151.25Y-88.55
X151.25Y-90.55
X151.25Y-92.35
X151.25Y-94.35
X151.25Y-98.15
X152.5Y-76.75
X153.259Y-76.497
X154.1Y-91.295
X155.75Y-83.67
X158.727Y-47.023
X160.97Y-48.28
X163.2Y-125.3
X163.25Y-78.425
X165.75Y-49.75
X168.737Y-119.8
X173.0Y-59.5
X173.382Y-71.368
X174.0Y-59.5
X175.0Y-61.5
T3
X132.3Y-74.05
X132.3Y-76.05
X132.3Y-78.05
X132.75Y-83.5
X132.75Y-85.5
X132.75Y-89.295
X132.75Y-91.295
X143.55Y-82.1
X143.55Y-84.1
X143.575Y-76.5
X143.575Y-78.5
X158.8Y-89.4
X158.8Y-91.4
X160.75Y-73.6
X162.75Y-73.6
T4
X110.468Y-63.8
X111.738Y-61.6
X113.008Y-59.4
X114.278Y-57.2
X123.2Y-48.31
X125.4Y-47.04
X126.8Y-88.03
X126.8Y-90.57
X127.6Y-45.77
X129.8Y-44.5
X136.37Y-73.65
X138.91Y-73.65
X139.3Y-94.66
X139.3Y-97.2
X141.45Y-73.65
X141.78Y-41.3
X143.99Y-73.65
X144.32Y-41.3
X146.53Y-73.65
X146.86Y-41.3
X149.07Y-73.65
X149.4Y-41.3
X151.61Y-73.65
X154.15Y-73.65
X161.401Y-44.49
X163.601Y-45.76
X164.4Y-88.26
X164.4Y-90.8
X165.8Y-47.03
X168.0Y-48.3
X176.89Y-57.201
X178.16Y-59.401
X179.43Y-61.6
X180.7Y-63.8
T5
X160.0Y-79.42
X160.0Y-81.96
X160.0Y-84.5
T2
G00X132.7Y-71.85
M15
G01X131.9Y-71.85
M16
G05
G00X132.7Y-80.25
M15
G01X131.9Y-80.25
M16
G05
M30
