%TF.GenerationSoftware,KiCad,Pcbnew,8.0.6*%
%TF.CreationDate,2025-03-04T23:13:57+07:00*%
%TF.ProjectId,micromouse,6d696372-6f6d-46f7-9573-652e6b696361,rev?*%
%TF.SameCoordinates,Original*%
%TF.FileFunction,Drillmap*%
%TF.FilePolarity,Positive*%
%FSLAX45Y45*%
G04 Gerber Fmt 4.5, Leading zero omitted, Abs format (unit mm)*
G04 Created by KiCad (PCBNEW 8.0.6) date 2025-03-04 23:13:57*
%MOMM*%
%LPD*%
G01*
G04 APERTURE LIST*
%ADD10C,0.050000*%
%ADD11C,0.200000*%
%ADD12C,0.220000*%
G04 APERTURE END LIST*
D10*
X17700000Y-7160000D02*
X18100000Y-7160000D01*
X16750000Y-6960000D02*
X12370000Y-6960000D01*
X10690000Y-6830000D02*
G75*
G02*
X18430000Y-6830000I3870000J-1130000D01*
G01*
X17500000Y-13810000D02*
G75*
G02*
X17300000Y-14010000I-200000J0D01*
G01*
X11820000Y-14010000D02*
G75*
G02*
X11620000Y-13810000I0J200000D01*
G01*
X11970000Y-5960000D02*
X11970000Y-6560000D01*
X11970000Y-5960000D02*
G75*
G02*
X17150000Y-5960000I2590000J-2000000D01*
G01*
X17150000Y-6560000D02*
X16750000Y-6960000D01*
X11020000Y-7160000D02*
X11420000Y-7160000D01*
X17500000Y-7360000D02*
G75*
G02*
X17700000Y-7160000I200000J0D01*
G01*
X11820000Y-14010000D02*
X17300000Y-14010000D01*
X11020000Y-7160000D02*
X10690000Y-6830000D01*
X17150000Y-5960000D02*
X17150000Y-6560000D01*
X11620000Y-13810000D02*
X11620000Y-7360000D01*
X11970000Y-6560000D02*
X12370000Y-6960000D01*
X11420000Y-7160000D02*
G75*
G02*
X11620000Y-7360000I0J-200000D01*
G01*
X18100000Y-7160000D02*
X18430000Y-6830000D01*
X17500000Y-13810000D02*
X17500000Y-7360000D01*
D11*
D12*
X12110000Y-7750000D02*
X12330000Y-7970000D01*
X12330000Y-7750000D02*
X12110000Y-7970000D01*
X12110000Y-13300000D02*
X12330000Y-13520000D01*
X12330000Y-13300000D02*
X12110000Y-13520000D01*
X12975000Y-9635000D02*
X13195000Y-9855000D01*
X13195000Y-9635000D02*
X12975000Y-9855000D01*
X12975000Y-11435000D02*
X13195000Y-11655000D01*
X13195000Y-11435000D02*
X12975000Y-11655000D01*
X15930000Y-9635000D02*
X16150000Y-9855000D01*
X16150000Y-9635000D02*
X15930000Y-9855000D01*
X15930000Y-11435000D02*
X16150000Y-11655000D01*
X16150000Y-11435000D02*
X15930000Y-11655000D01*
X16790000Y-7750000D02*
X17010000Y-7970000D01*
X17010000Y-7750000D02*
X16790000Y-7970000D01*
X16790000Y-13300000D02*
X17010000Y-13520000D01*
X17010000Y-13300000D02*
X16790000Y-13520000D01*
D11*
X10948277Y-14323984D02*
X10948277Y-14123984D01*
X10948277Y-14123984D02*
X10995896Y-14123984D01*
X10995896Y-14123984D02*
X11024467Y-14133508D01*
X11024467Y-14133508D02*
X11043515Y-14152555D01*
X11043515Y-14152555D02*
X11053039Y-14171603D01*
X11053039Y-14171603D02*
X11062563Y-14209698D01*
X11062563Y-14209698D02*
X11062563Y-14238269D01*
X11062563Y-14238269D02*
X11053039Y-14276365D01*
X11053039Y-14276365D02*
X11043515Y-14295412D01*
X11043515Y-14295412D02*
X11024467Y-14314460D01*
X11024467Y-14314460D02*
X10995896Y-14323984D01*
X10995896Y-14323984D02*
X10948277Y-14323984D01*
X11148277Y-14323984D02*
X11148277Y-14190650D01*
X11148277Y-14228746D02*
X11157801Y-14209698D01*
X11157801Y-14209698D02*
X11167324Y-14200174D01*
X11167324Y-14200174D02*
X11186372Y-14190650D01*
X11186372Y-14190650D02*
X11205420Y-14190650D01*
X11272086Y-14323984D02*
X11272086Y-14190650D01*
X11272086Y-14123984D02*
X11262562Y-14133508D01*
X11262562Y-14133508D02*
X11272086Y-14143031D01*
X11272086Y-14143031D02*
X11281610Y-14133508D01*
X11281610Y-14133508D02*
X11272086Y-14123984D01*
X11272086Y-14123984D02*
X11272086Y-14143031D01*
X11395896Y-14323984D02*
X11376848Y-14314460D01*
X11376848Y-14314460D02*
X11367324Y-14295412D01*
X11367324Y-14295412D02*
X11367324Y-14123984D01*
X11500658Y-14323984D02*
X11481610Y-14314460D01*
X11481610Y-14314460D02*
X11472086Y-14295412D01*
X11472086Y-14295412D02*
X11472086Y-14123984D01*
X11729229Y-14323984D02*
X11729229Y-14123984D01*
X11729229Y-14123984D02*
X11795896Y-14266841D01*
X11795896Y-14266841D02*
X11862562Y-14123984D01*
X11862562Y-14123984D02*
X11862562Y-14323984D01*
X12043515Y-14323984D02*
X12043515Y-14219222D01*
X12043515Y-14219222D02*
X12033991Y-14200174D01*
X12033991Y-14200174D02*
X12014943Y-14190650D01*
X12014943Y-14190650D02*
X11976848Y-14190650D01*
X11976848Y-14190650D02*
X11957801Y-14200174D01*
X12043515Y-14314460D02*
X12024467Y-14323984D01*
X12024467Y-14323984D02*
X11976848Y-14323984D01*
X11976848Y-14323984D02*
X11957801Y-14314460D01*
X11957801Y-14314460D02*
X11948277Y-14295412D01*
X11948277Y-14295412D02*
X11948277Y-14276365D01*
X11948277Y-14276365D02*
X11957801Y-14257317D01*
X11957801Y-14257317D02*
X11976848Y-14247793D01*
X11976848Y-14247793D02*
X12024467Y-14247793D01*
X12024467Y-14247793D02*
X12043515Y-14238269D01*
X12138753Y-14190650D02*
X12138753Y-14390650D01*
X12138753Y-14200174D02*
X12157801Y-14190650D01*
X12157801Y-14190650D02*
X12195896Y-14190650D01*
X12195896Y-14190650D02*
X12214943Y-14200174D01*
X12214943Y-14200174D02*
X12224467Y-14209698D01*
X12224467Y-14209698D02*
X12233991Y-14228746D01*
X12233991Y-14228746D02*
X12233991Y-14285888D01*
X12233991Y-14285888D02*
X12224467Y-14304936D01*
X12224467Y-14304936D02*
X12214943Y-14314460D01*
X12214943Y-14314460D02*
X12195896Y-14323984D01*
X12195896Y-14323984D02*
X12157801Y-14323984D01*
X12157801Y-14323984D02*
X12138753Y-14314460D01*
X12319705Y-14304936D02*
X12329229Y-14314460D01*
X12329229Y-14314460D02*
X12319705Y-14323984D01*
X12319705Y-14323984D02*
X12310182Y-14314460D01*
X12310182Y-14314460D02*
X12319705Y-14304936D01*
X12319705Y-14304936D02*
X12319705Y-14323984D01*
X12319705Y-14200174D02*
X12329229Y-14209698D01*
X12329229Y-14209698D02*
X12319705Y-14219222D01*
X12319705Y-14219222D02*
X12310182Y-14209698D01*
X12310182Y-14209698D02*
X12319705Y-14200174D01*
X12319705Y-14200174D02*
X12319705Y-14219222D01*
X10487500Y-14552500D02*
X10687500Y-14752500D01*
X10687500Y-14552500D02*
X10487500Y-14752500D01*
X10938753Y-14563031D02*
X10948277Y-14553508D01*
X10948277Y-14553508D02*
X10967324Y-14543984D01*
X10967324Y-14543984D02*
X11014944Y-14543984D01*
X11014944Y-14543984D02*
X11033991Y-14553508D01*
X11033991Y-14553508D02*
X11043515Y-14563031D01*
X11043515Y-14563031D02*
X11053039Y-14582079D01*
X11053039Y-14582079D02*
X11053039Y-14601127D01*
X11053039Y-14601127D02*
X11043515Y-14629698D01*
X11043515Y-14629698D02*
X10929229Y-14743984D01*
X10929229Y-14743984D02*
X11053039Y-14743984D01*
X11138753Y-14724936D02*
X11148277Y-14734460D01*
X11148277Y-14734460D02*
X11138753Y-14743984D01*
X11138753Y-14743984D02*
X11129229Y-14734460D01*
X11129229Y-14734460D02*
X11138753Y-14724936D01*
X11138753Y-14724936D02*
X11138753Y-14743984D01*
X11224467Y-14563031D02*
X11233991Y-14553508D01*
X11233991Y-14553508D02*
X11253039Y-14543984D01*
X11253039Y-14543984D02*
X11300658Y-14543984D01*
X11300658Y-14543984D02*
X11319705Y-14553508D01*
X11319705Y-14553508D02*
X11329229Y-14563031D01*
X11329229Y-14563031D02*
X11338753Y-14582079D01*
X11338753Y-14582079D02*
X11338753Y-14601127D01*
X11338753Y-14601127D02*
X11329229Y-14629698D01*
X11329229Y-14629698D02*
X11214943Y-14743984D01*
X11214943Y-14743984D02*
X11338753Y-14743984D01*
X11462562Y-14543984D02*
X11481610Y-14543984D01*
X11481610Y-14543984D02*
X11500658Y-14553508D01*
X11500658Y-14553508D02*
X11510182Y-14563031D01*
X11510182Y-14563031D02*
X11519705Y-14582079D01*
X11519705Y-14582079D02*
X11529229Y-14620174D01*
X11529229Y-14620174D02*
X11529229Y-14667793D01*
X11529229Y-14667793D02*
X11519705Y-14705888D01*
X11519705Y-14705888D02*
X11510182Y-14724936D01*
X11510182Y-14724936D02*
X11500658Y-14734460D01*
X11500658Y-14734460D02*
X11481610Y-14743984D01*
X11481610Y-14743984D02*
X11462562Y-14743984D01*
X11462562Y-14743984D02*
X11443515Y-14734460D01*
X11443515Y-14734460D02*
X11433991Y-14724936D01*
X11433991Y-14724936D02*
X11424467Y-14705888D01*
X11424467Y-14705888D02*
X11414943Y-14667793D01*
X11414943Y-14667793D02*
X11414943Y-14620174D01*
X11414943Y-14620174D02*
X11424467Y-14582079D01*
X11424467Y-14582079D02*
X11433991Y-14563031D01*
X11433991Y-14563031D02*
X11443515Y-14553508D01*
X11443515Y-14553508D02*
X11462562Y-14543984D01*
X11653039Y-14543984D02*
X11672086Y-14543984D01*
X11672086Y-14543984D02*
X11691134Y-14553508D01*
X11691134Y-14553508D02*
X11700658Y-14563031D01*
X11700658Y-14563031D02*
X11710182Y-14582079D01*
X11710182Y-14582079D02*
X11719705Y-14620174D01*
X11719705Y-14620174D02*
X11719705Y-14667793D01*
X11719705Y-14667793D02*
X11710182Y-14705888D01*
X11710182Y-14705888D02*
X11700658Y-14724936D01*
X11700658Y-14724936D02*
X11691134Y-14734460D01*
X11691134Y-14734460D02*
X11672086Y-14743984D01*
X11672086Y-14743984D02*
X11653039Y-14743984D01*
X11653039Y-14743984D02*
X11633991Y-14734460D01*
X11633991Y-14734460D02*
X11624467Y-14724936D01*
X11624467Y-14724936D02*
X11614943Y-14705888D01*
X11614943Y-14705888D02*
X11605420Y-14667793D01*
X11605420Y-14667793D02*
X11605420Y-14620174D01*
X11605420Y-14620174D02*
X11614943Y-14582079D01*
X11614943Y-14582079D02*
X11624467Y-14563031D01*
X11624467Y-14563031D02*
X11633991Y-14553508D01*
X11633991Y-14553508D02*
X11653039Y-14543984D01*
X11805420Y-14743984D02*
X11805420Y-14610650D01*
X11805420Y-14629698D02*
X11814943Y-14620174D01*
X11814943Y-14620174D02*
X11833991Y-14610650D01*
X11833991Y-14610650D02*
X11862563Y-14610650D01*
X11862563Y-14610650D02*
X11881610Y-14620174D01*
X11881610Y-14620174D02*
X11891134Y-14639222D01*
X11891134Y-14639222D02*
X11891134Y-14743984D01*
X11891134Y-14639222D02*
X11900658Y-14620174D01*
X11900658Y-14620174D02*
X11919705Y-14610650D01*
X11919705Y-14610650D02*
X11948277Y-14610650D01*
X11948277Y-14610650D02*
X11967324Y-14620174D01*
X11967324Y-14620174D02*
X11976848Y-14639222D01*
X11976848Y-14639222D02*
X11976848Y-14743984D01*
X12072086Y-14743984D02*
X12072086Y-14610650D01*
X12072086Y-14629698D02*
X12081610Y-14620174D01*
X12081610Y-14620174D02*
X12100658Y-14610650D01*
X12100658Y-14610650D02*
X12129229Y-14610650D01*
X12129229Y-14610650D02*
X12148277Y-14620174D01*
X12148277Y-14620174D02*
X12157801Y-14639222D01*
X12157801Y-14639222D02*
X12157801Y-14743984D01*
X12157801Y-14639222D02*
X12167324Y-14620174D01*
X12167324Y-14620174D02*
X12186372Y-14610650D01*
X12186372Y-14610650D02*
X12214943Y-14610650D01*
X12214943Y-14610650D02*
X12233991Y-14620174D01*
X12233991Y-14620174D02*
X12243515Y-14639222D01*
X12243515Y-14639222D02*
X12243515Y-14743984D01*
X12633991Y-14534460D02*
X12462563Y-14791603D01*
X12891134Y-14543984D02*
X12910182Y-14543984D01*
X12910182Y-14543984D02*
X12929229Y-14553508D01*
X12929229Y-14553508D02*
X12938753Y-14563031D01*
X12938753Y-14563031D02*
X12948277Y-14582079D01*
X12948277Y-14582079D02*
X12957801Y-14620174D01*
X12957801Y-14620174D02*
X12957801Y-14667793D01*
X12957801Y-14667793D02*
X12948277Y-14705888D01*
X12948277Y-14705888D02*
X12938753Y-14724936D01*
X12938753Y-14724936D02*
X12929229Y-14734460D01*
X12929229Y-14734460D02*
X12910182Y-14743984D01*
X12910182Y-14743984D02*
X12891134Y-14743984D01*
X12891134Y-14743984D02*
X12872086Y-14734460D01*
X12872086Y-14734460D02*
X12862563Y-14724936D01*
X12862563Y-14724936D02*
X12853039Y-14705888D01*
X12853039Y-14705888D02*
X12843515Y-14667793D01*
X12843515Y-14667793D02*
X12843515Y-14620174D01*
X12843515Y-14620174D02*
X12853039Y-14582079D01*
X12853039Y-14582079D02*
X12862563Y-14563031D01*
X12862563Y-14563031D02*
X12872086Y-14553508D01*
X12872086Y-14553508D02*
X12891134Y-14543984D01*
X13043515Y-14724936D02*
X13053039Y-14734460D01*
X13053039Y-14734460D02*
X13043515Y-14743984D01*
X13043515Y-14743984D02*
X13033991Y-14734460D01*
X13033991Y-14734460D02*
X13043515Y-14724936D01*
X13043515Y-14724936D02*
X13043515Y-14743984D01*
X13176848Y-14543984D02*
X13195896Y-14543984D01*
X13195896Y-14543984D02*
X13214944Y-14553508D01*
X13214944Y-14553508D02*
X13224467Y-14563031D01*
X13224467Y-14563031D02*
X13233991Y-14582079D01*
X13233991Y-14582079D02*
X13243515Y-14620174D01*
X13243515Y-14620174D02*
X13243515Y-14667793D01*
X13243515Y-14667793D02*
X13233991Y-14705888D01*
X13233991Y-14705888D02*
X13224467Y-14724936D01*
X13224467Y-14724936D02*
X13214944Y-14734460D01*
X13214944Y-14734460D02*
X13195896Y-14743984D01*
X13195896Y-14743984D02*
X13176848Y-14743984D01*
X13176848Y-14743984D02*
X13157801Y-14734460D01*
X13157801Y-14734460D02*
X13148277Y-14724936D01*
X13148277Y-14724936D02*
X13138753Y-14705888D01*
X13138753Y-14705888D02*
X13129229Y-14667793D01*
X13129229Y-14667793D02*
X13129229Y-14620174D01*
X13129229Y-14620174D02*
X13138753Y-14582079D01*
X13138753Y-14582079D02*
X13148277Y-14563031D01*
X13148277Y-14563031D02*
X13157801Y-14553508D01*
X13157801Y-14553508D02*
X13176848Y-14543984D01*
X13357801Y-14629698D02*
X13338753Y-14620174D01*
X13338753Y-14620174D02*
X13329229Y-14610650D01*
X13329229Y-14610650D02*
X13319706Y-14591603D01*
X13319706Y-14591603D02*
X13319706Y-14582079D01*
X13319706Y-14582079D02*
X13329229Y-14563031D01*
X13329229Y-14563031D02*
X13338753Y-14553508D01*
X13338753Y-14553508D02*
X13357801Y-14543984D01*
X13357801Y-14543984D02*
X13395896Y-14543984D01*
X13395896Y-14543984D02*
X13414944Y-14553508D01*
X13414944Y-14553508D02*
X13424467Y-14563031D01*
X13424467Y-14563031D02*
X13433991Y-14582079D01*
X13433991Y-14582079D02*
X13433991Y-14591603D01*
X13433991Y-14591603D02*
X13424467Y-14610650D01*
X13424467Y-14610650D02*
X13414944Y-14620174D01*
X13414944Y-14620174D02*
X13395896Y-14629698D01*
X13395896Y-14629698D02*
X13357801Y-14629698D01*
X13357801Y-14629698D02*
X13338753Y-14639222D01*
X13338753Y-14639222D02*
X13329229Y-14648746D01*
X13329229Y-14648746D02*
X13319706Y-14667793D01*
X13319706Y-14667793D02*
X13319706Y-14705888D01*
X13319706Y-14705888D02*
X13329229Y-14724936D01*
X13329229Y-14724936D02*
X13338753Y-14734460D01*
X13338753Y-14734460D02*
X13357801Y-14743984D01*
X13357801Y-14743984D02*
X13395896Y-14743984D01*
X13395896Y-14743984D02*
X13414944Y-14734460D01*
X13414944Y-14734460D02*
X13424467Y-14724936D01*
X13424467Y-14724936D02*
X13433991Y-14705888D01*
X13433991Y-14705888D02*
X13433991Y-14667793D01*
X13433991Y-14667793D02*
X13424467Y-14648746D01*
X13424467Y-14648746D02*
X13414944Y-14639222D01*
X13414944Y-14639222D02*
X13395896Y-14629698D01*
X13605420Y-14543984D02*
X13567325Y-14543984D01*
X13567325Y-14543984D02*
X13548277Y-14553508D01*
X13548277Y-14553508D02*
X13538753Y-14563031D01*
X13538753Y-14563031D02*
X13519706Y-14591603D01*
X13519706Y-14591603D02*
X13510182Y-14629698D01*
X13510182Y-14629698D02*
X13510182Y-14705888D01*
X13510182Y-14705888D02*
X13519706Y-14724936D01*
X13519706Y-14724936D02*
X13529229Y-14734460D01*
X13529229Y-14734460D02*
X13548277Y-14743984D01*
X13548277Y-14743984D02*
X13586372Y-14743984D01*
X13586372Y-14743984D02*
X13605420Y-14734460D01*
X13605420Y-14734460D02*
X13614944Y-14724936D01*
X13614944Y-14724936D02*
X13624467Y-14705888D01*
X13624467Y-14705888D02*
X13624467Y-14658269D01*
X13624467Y-14658269D02*
X13614944Y-14639222D01*
X13614944Y-14639222D02*
X13605420Y-14629698D01*
X13605420Y-14629698D02*
X13586372Y-14620174D01*
X13586372Y-14620174D02*
X13548277Y-14620174D01*
X13548277Y-14620174D02*
X13529229Y-14629698D01*
X13529229Y-14629698D02*
X13519706Y-14639222D01*
X13519706Y-14639222D02*
X13510182Y-14658269D01*
X13795896Y-14543984D02*
X13757801Y-14543984D01*
X13757801Y-14543984D02*
X13738753Y-14553508D01*
X13738753Y-14553508D02*
X13729229Y-14563031D01*
X13729229Y-14563031D02*
X13710182Y-14591603D01*
X13710182Y-14591603D02*
X13700658Y-14629698D01*
X13700658Y-14629698D02*
X13700658Y-14705888D01*
X13700658Y-14705888D02*
X13710182Y-14724936D01*
X13710182Y-14724936D02*
X13719706Y-14734460D01*
X13719706Y-14734460D02*
X13738753Y-14743984D01*
X13738753Y-14743984D02*
X13776848Y-14743984D01*
X13776848Y-14743984D02*
X13795896Y-14734460D01*
X13795896Y-14734460D02*
X13805420Y-14724936D01*
X13805420Y-14724936D02*
X13814944Y-14705888D01*
X13814944Y-14705888D02*
X13814944Y-14658269D01*
X13814944Y-14658269D02*
X13805420Y-14639222D01*
X13805420Y-14639222D02*
X13795896Y-14629698D01*
X13795896Y-14629698D02*
X13776848Y-14620174D01*
X13776848Y-14620174D02*
X13738753Y-14620174D01*
X13738753Y-14620174D02*
X13719706Y-14629698D01*
X13719706Y-14629698D02*
X13710182Y-14639222D01*
X13710182Y-14639222D02*
X13700658Y-14658269D01*
X13891134Y-14543984D02*
X13891134Y-14582079D01*
X13967325Y-14543984D02*
X13967325Y-14582079D01*
X14262563Y-14820174D02*
X14253039Y-14810650D01*
X14253039Y-14810650D02*
X14233991Y-14782079D01*
X14233991Y-14782079D02*
X14224468Y-14763031D01*
X14224468Y-14763031D02*
X14214944Y-14734460D01*
X14214944Y-14734460D02*
X14205420Y-14686841D01*
X14205420Y-14686841D02*
X14205420Y-14648746D01*
X14205420Y-14648746D02*
X14214944Y-14601127D01*
X14214944Y-14601127D02*
X14224468Y-14572555D01*
X14224468Y-14572555D02*
X14233991Y-14553508D01*
X14233991Y-14553508D02*
X14253039Y-14524936D01*
X14253039Y-14524936D02*
X14262563Y-14515412D01*
X14367325Y-14629698D02*
X14348277Y-14620174D01*
X14348277Y-14620174D02*
X14338753Y-14610650D01*
X14338753Y-14610650D02*
X14329229Y-14591603D01*
X14329229Y-14591603D02*
X14329229Y-14582079D01*
X14329229Y-14582079D02*
X14338753Y-14563031D01*
X14338753Y-14563031D02*
X14348277Y-14553508D01*
X14348277Y-14553508D02*
X14367325Y-14543984D01*
X14367325Y-14543984D02*
X14405420Y-14543984D01*
X14405420Y-14543984D02*
X14424468Y-14553508D01*
X14424468Y-14553508D02*
X14433991Y-14563031D01*
X14433991Y-14563031D02*
X14443515Y-14582079D01*
X14443515Y-14582079D02*
X14443515Y-14591603D01*
X14443515Y-14591603D02*
X14433991Y-14610650D01*
X14433991Y-14610650D02*
X14424468Y-14620174D01*
X14424468Y-14620174D02*
X14405420Y-14629698D01*
X14405420Y-14629698D02*
X14367325Y-14629698D01*
X14367325Y-14629698D02*
X14348277Y-14639222D01*
X14348277Y-14639222D02*
X14338753Y-14648746D01*
X14338753Y-14648746D02*
X14329229Y-14667793D01*
X14329229Y-14667793D02*
X14329229Y-14705888D01*
X14329229Y-14705888D02*
X14338753Y-14724936D01*
X14338753Y-14724936D02*
X14348277Y-14734460D01*
X14348277Y-14734460D02*
X14367325Y-14743984D01*
X14367325Y-14743984D02*
X14405420Y-14743984D01*
X14405420Y-14743984D02*
X14424468Y-14734460D01*
X14424468Y-14734460D02*
X14433991Y-14724936D01*
X14433991Y-14724936D02*
X14443515Y-14705888D01*
X14443515Y-14705888D02*
X14443515Y-14667793D01*
X14443515Y-14667793D02*
X14433991Y-14648746D01*
X14433991Y-14648746D02*
X14424468Y-14639222D01*
X14424468Y-14639222D02*
X14405420Y-14629698D01*
X14681610Y-14743984D02*
X14681610Y-14543984D01*
X14767325Y-14743984D02*
X14767325Y-14639222D01*
X14767325Y-14639222D02*
X14757801Y-14620174D01*
X14757801Y-14620174D02*
X14738753Y-14610650D01*
X14738753Y-14610650D02*
X14710182Y-14610650D01*
X14710182Y-14610650D02*
X14691134Y-14620174D01*
X14691134Y-14620174D02*
X14681610Y-14629698D01*
X14891134Y-14743984D02*
X14872087Y-14734460D01*
X14872087Y-14734460D02*
X14862563Y-14724936D01*
X14862563Y-14724936D02*
X14853039Y-14705888D01*
X14853039Y-14705888D02*
X14853039Y-14648746D01*
X14853039Y-14648746D02*
X14862563Y-14629698D01*
X14862563Y-14629698D02*
X14872087Y-14620174D01*
X14872087Y-14620174D02*
X14891134Y-14610650D01*
X14891134Y-14610650D02*
X14919706Y-14610650D01*
X14919706Y-14610650D02*
X14938753Y-14620174D01*
X14938753Y-14620174D02*
X14948277Y-14629698D01*
X14948277Y-14629698D02*
X14957801Y-14648746D01*
X14957801Y-14648746D02*
X14957801Y-14705888D01*
X14957801Y-14705888D02*
X14948277Y-14724936D01*
X14948277Y-14724936D02*
X14938753Y-14734460D01*
X14938753Y-14734460D02*
X14919706Y-14743984D01*
X14919706Y-14743984D02*
X14891134Y-14743984D01*
X15072087Y-14743984D02*
X15053039Y-14734460D01*
X15053039Y-14734460D02*
X15043515Y-14715412D01*
X15043515Y-14715412D02*
X15043515Y-14543984D01*
X15224468Y-14734460D02*
X15205420Y-14743984D01*
X15205420Y-14743984D02*
X15167325Y-14743984D01*
X15167325Y-14743984D02*
X15148277Y-14734460D01*
X15148277Y-14734460D02*
X15138753Y-14715412D01*
X15138753Y-14715412D02*
X15138753Y-14639222D01*
X15138753Y-14639222D02*
X15148277Y-14620174D01*
X15148277Y-14620174D02*
X15167325Y-14610650D01*
X15167325Y-14610650D02*
X15205420Y-14610650D01*
X15205420Y-14610650D02*
X15224468Y-14620174D01*
X15224468Y-14620174D02*
X15233991Y-14639222D01*
X15233991Y-14639222D02*
X15233991Y-14658269D01*
X15233991Y-14658269D02*
X15138753Y-14677317D01*
X15310182Y-14734460D02*
X15329230Y-14743984D01*
X15329230Y-14743984D02*
X15367325Y-14743984D01*
X15367325Y-14743984D02*
X15386372Y-14734460D01*
X15386372Y-14734460D02*
X15395896Y-14715412D01*
X15395896Y-14715412D02*
X15395896Y-14705888D01*
X15395896Y-14705888D02*
X15386372Y-14686841D01*
X15386372Y-14686841D02*
X15367325Y-14677317D01*
X15367325Y-14677317D02*
X15338753Y-14677317D01*
X15338753Y-14677317D02*
X15319706Y-14667793D01*
X15319706Y-14667793D02*
X15310182Y-14648746D01*
X15310182Y-14648746D02*
X15310182Y-14639222D01*
X15310182Y-14639222D02*
X15319706Y-14620174D01*
X15319706Y-14620174D02*
X15338753Y-14610650D01*
X15338753Y-14610650D02*
X15367325Y-14610650D01*
X15367325Y-14610650D02*
X15386372Y-14620174D01*
X15462563Y-14820174D02*
X15472087Y-14810650D01*
X15472087Y-14810650D02*
X15491134Y-14782079D01*
X15491134Y-14782079D02*
X15500658Y-14763031D01*
X15500658Y-14763031D02*
X15510182Y-14734460D01*
X15510182Y-14734460D02*
X15519706Y-14686841D01*
X15519706Y-14686841D02*
X15519706Y-14648746D01*
X15519706Y-14648746D02*
X15510182Y-14601127D01*
X15510182Y-14601127D02*
X15500658Y-14572555D01*
X15500658Y-14572555D02*
X15491134Y-14553508D01*
X15491134Y-14553508D02*
X15472087Y-14524936D01*
X15472087Y-14524936D02*
X15462563Y-14515412D01*
X15824468Y-14820174D02*
X15814944Y-14810650D01*
X15814944Y-14810650D02*
X15795896Y-14782079D01*
X15795896Y-14782079D02*
X15786372Y-14763031D01*
X15786372Y-14763031D02*
X15776849Y-14734460D01*
X15776849Y-14734460D02*
X15767325Y-14686841D01*
X15767325Y-14686841D02*
X15767325Y-14648746D01*
X15767325Y-14648746D02*
X15776849Y-14601127D01*
X15776849Y-14601127D02*
X15786372Y-14572555D01*
X15786372Y-14572555D02*
X15795896Y-14553508D01*
X15795896Y-14553508D02*
X15814944Y-14524936D01*
X15814944Y-14524936D02*
X15824468Y-14515412D01*
X15900658Y-14610650D02*
X15900658Y-14743984D01*
X15900658Y-14629698D02*
X15910182Y-14620174D01*
X15910182Y-14620174D02*
X15929230Y-14610650D01*
X15929230Y-14610650D02*
X15957801Y-14610650D01*
X15957801Y-14610650D02*
X15976849Y-14620174D01*
X15976849Y-14620174D02*
X15986372Y-14639222D01*
X15986372Y-14639222D02*
X15986372Y-14743984D01*
X16110182Y-14743984D02*
X16091134Y-14734460D01*
X16091134Y-14734460D02*
X16081611Y-14724936D01*
X16081611Y-14724936D02*
X16072087Y-14705888D01*
X16072087Y-14705888D02*
X16072087Y-14648746D01*
X16072087Y-14648746D02*
X16081611Y-14629698D01*
X16081611Y-14629698D02*
X16091134Y-14620174D01*
X16091134Y-14620174D02*
X16110182Y-14610650D01*
X16110182Y-14610650D02*
X16138753Y-14610650D01*
X16138753Y-14610650D02*
X16157801Y-14620174D01*
X16157801Y-14620174D02*
X16167325Y-14629698D01*
X16167325Y-14629698D02*
X16176849Y-14648746D01*
X16176849Y-14648746D02*
X16176849Y-14705888D01*
X16176849Y-14705888D02*
X16167325Y-14724936D01*
X16167325Y-14724936D02*
X16157801Y-14734460D01*
X16157801Y-14734460D02*
X16138753Y-14743984D01*
X16138753Y-14743984D02*
X16110182Y-14743984D01*
X16233992Y-14610650D02*
X16310182Y-14610650D01*
X16262563Y-14543984D02*
X16262563Y-14715412D01*
X16262563Y-14715412D02*
X16272087Y-14734460D01*
X16272087Y-14734460D02*
X16291134Y-14743984D01*
X16291134Y-14743984D02*
X16310182Y-14743984D01*
X16529230Y-14610650D02*
X16529230Y-14810650D01*
X16529230Y-14620174D02*
X16548277Y-14610650D01*
X16548277Y-14610650D02*
X16586373Y-14610650D01*
X16586373Y-14610650D02*
X16605420Y-14620174D01*
X16605420Y-14620174D02*
X16614944Y-14629698D01*
X16614944Y-14629698D02*
X16624468Y-14648746D01*
X16624468Y-14648746D02*
X16624468Y-14705888D01*
X16624468Y-14705888D02*
X16614944Y-14724936D01*
X16614944Y-14724936D02*
X16605420Y-14734460D01*
X16605420Y-14734460D02*
X16586373Y-14743984D01*
X16586373Y-14743984D02*
X16548277Y-14743984D01*
X16548277Y-14743984D02*
X16529230Y-14734460D01*
X16738753Y-14743984D02*
X16719706Y-14734460D01*
X16719706Y-14734460D02*
X16710182Y-14715412D01*
X16710182Y-14715412D02*
X16710182Y-14543984D01*
X16900658Y-14743984D02*
X16900658Y-14639222D01*
X16900658Y-14639222D02*
X16891135Y-14620174D01*
X16891135Y-14620174D02*
X16872087Y-14610650D01*
X16872087Y-14610650D02*
X16833992Y-14610650D01*
X16833992Y-14610650D02*
X16814944Y-14620174D01*
X16900658Y-14734460D02*
X16881611Y-14743984D01*
X16881611Y-14743984D02*
X16833992Y-14743984D01*
X16833992Y-14743984D02*
X16814944Y-14734460D01*
X16814944Y-14734460D02*
X16805420Y-14715412D01*
X16805420Y-14715412D02*
X16805420Y-14696365D01*
X16805420Y-14696365D02*
X16814944Y-14677317D01*
X16814944Y-14677317D02*
X16833992Y-14667793D01*
X16833992Y-14667793D02*
X16881611Y-14667793D01*
X16881611Y-14667793D02*
X16900658Y-14658269D01*
X16967325Y-14610650D02*
X17043515Y-14610650D01*
X16995896Y-14543984D02*
X16995896Y-14715412D01*
X16995896Y-14715412D02*
X17005420Y-14734460D01*
X17005420Y-14734460D02*
X17024468Y-14743984D01*
X17024468Y-14743984D02*
X17043515Y-14743984D01*
X17186373Y-14734460D02*
X17167325Y-14743984D01*
X17167325Y-14743984D02*
X17129230Y-14743984D01*
X17129230Y-14743984D02*
X17110182Y-14734460D01*
X17110182Y-14734460D02*
X17100658Y-14715412D01*
X17100658Y-14715412D02*
X17100658Y-14639222D01*
X17100658Y-14639222D02*
X17110182Y-14620174D01*
X17110182Y-14620174D02*
X17129230Y-14610650D01*
X17129230Y-14610650D02*
X17167325Y-14610650D01*
X17167325Y-14610650D02*
X17186373Y-14620174D01*
X17186373Y-14620174D02*
X17195896Y-14639222D01*
X17195896Y-14639222D02*
X17195896Y-14658269D01*
X17195896Y-14658269D02*
X17100658Y-14677317D01*
X17367325Y-14743984D02*
X17367325Y-14543984D01*
X17367325Y-14734460D02*
X17348277Y-14743984D01*
X17348277Y-14743984D02*
X17310182Y-14743984D01*
X17310182Y-14743984D02*
X17291135Y-14734460D01*
X17291135Y-14734460D02*
X17281611Y-14724936D01*
X17281611Y-14724936D02*
X17272087Y-14705888D01*
X17272087Y-14705888D02*
X17272087Y-14648746D01*
X17272087Y-14648746D02*
X17281611Y-14629698D01*
X17281611Y-14629698D02*
X17291135Y-14620174D01*
X17291135Y-14620174D02*
X17310182Y-14610650D01*
X17310182Y-14610650D02*
X17348277Y-14610650D01*
X17348277Y-14610650D02*
X17367325Y-14620174D01*
X17443516Y-14820174D02*
X17453039Y-14810650D01*
X17453039Y-14810650D02*
X17472087Y-14782079D01*
X17472087Y-14782079D02*
X17481611Y-14763031D01*
X17481611Y-14763031D02*
X17491135Y-14734460D01*
X17491135Y-14734460D02*
X17500658Y-14686841D01*
X17500658Y-14686841D02*
X17500658Y-14648746D01*
X17500658Y-14648746D02*
X17491135Y-14601127D01*
X17491135Y-14601127D02*
X17481611Y-14572555D01*
X17481611Y-14572555D02*
X17472087Y-14553508D01*
X17472087Y-14553508D02*
X17453039Y-14524936D01*
X17453039Y-14524936D02*
X17443516Y-14515412D01*
M02*
