M48
; DRILL file {KiCad 8.0.6} date 2025-01-24T00:07:22+0700
; FORMAT={-:-/ absolute / metric / decimal}
; #@! TF.CreationDate,2025-01-24T00:07:22+07:00
; #@! TF.GenerationSoftware,Kicad,Pcbnew,8.0.6
; #@! TF.FileFunction,Plated,1,2,PTH
FMAT,2
METRIC
; #@! TA.AperFunction,Plated,PTH,ViaDrill
T1C0.300
; #@! TA.AperFunction,Plated,PTH,ComponentDrill
T2C0.300
; #@! TA.AperFunction,Plated,PTH,ComponentDrill
T3C0.600
; #@! TA.AperFunction,Plated,PTH,ComponentDrill
T4C0.800
; #@! TA.AperFunction,Plated,PTH,ComponentDrill
T5C0.889
; #@! TA.AperFunction,Plated,PTH,ComponentDrill
T6C0.900
; #@! TA.AperFunction,Plated,PTH,ComponentDrill
T7C0.990
; #@! TA.AperFunction,Plated,PTH,ComponentDrill
T8C1.000
; #@! TA.AperFunction,Plated,PTH,ComponentDrill
T9C1.100
; #@! TA.AperFunction,Plated,PTH,ComponentDrill
T10C1.300
; #@! TA.AperFunction,Plated,PTH,ComponentDrill
T11C1.397
; #@! TA.AperFunction,Plated,PTH,ComponentDrill
T12C2.200
; #@! TA.AperFunction,Plated,PTH,ComponentDrill
T13C3.200
%
G90
G05
T1
X95.5Y-67.0
X97.5Y-66.0
X99.5Y-95.1
X99.5Y-95.9
X99.5Y-96.7
X99.5Y-97.5
X107.5Y-46.5
X108.5Y-95.9
X109.5Y-96.7
X110.5Y-97.5
X112.25Y-114.25
X112.5Y-64.0
X112.75Y-84.75
X113.0Y-88.0
X113.25Y-83.75
X113.366Y-87.25
X113.45Y-70.55
X113.72Y-82.78
X113.866Y-81.8
X114.0Y-86.5
X115.06Y-62.94
X116.5Y-78.5
X116.5Y-89.175
X117.5Y-79.5
X119.0Y-110.5
X119.0Y-119.0
X121.0Y-46.5
X124.5Y-89.66
X124.5Y-102.0
X126.0Y-76.0
X129.5Y-59.369
X132.0Y-46.5
X132.25Y-61.5
X133.664Y-56.725
X133.8Y-115.095
X133.975Y-57.475
X136.5Y-108.5
X138.855Y-86.25
X139.5Y-104.0
X140.11Y-76.0
X142.0Y-104.0
X142.966Y-118.939
X143.5Y-117.635
X144.0Y-95.5
X144.3Y-122.0
X146.0Y-78.0
X146.0Y-106.975
X147.0Y-77.5
X147.0Y-107.0
X148.0Y-77.0
X148.5Y-107.0
X149.0Y-76.7
X150.0Y-76.0
X151.0Y-75.5
X151.5Y-91.0
X151.5Y-92.0
X151.8Y-75.0
X152.0Y-97.5
X152.75Y-89.689
X152.75Y-90.5
X153.5Y-80.35
X154.5Y-81.5
X154.5Y-96.5
X159.05Y-95.5
X160.5Y-66.5
X163.79Y-83.28
X164.0Y-82.031
X164.5Y-84.0
X165.2Y-69.18
X165.5Y-88.239
X167.0Y-82.0
X180.21Y-120.21
X181.0Y-99.0
X181.5Y-107.5
X182.0Y-99.0
X183.0Y-76.0
X183.0Y-99.0
X183.5Y-74.0
X184.0Y-118.6
X187.5Y-102.0
X191.25Y-86.5
X194.0Y-109.0
X197.0Y-64.0
X197.0Y-83.5
X197.0Y-88.0
X197.0Y-91.5
X197.0Y-95.0
X199.5Y-60.5
X211.5Y-99.5
X222.859Y-65.0
X233.0Y-65.0
T2
X127.75Y-101.175
X127.75Y-101.775
X128.45Y-101.175
X128.45Y-101.775
X129.15Y-101.175
X129.15Y-101.775
X138.425Y-115.9
X138.425Y-117.0
X138.425Y-118.1
X139.625Y-115.9
X139.625Y-117.0
X139.625Y-118.1
T4
X124.38Y-106.5
X132.0Y-106.5
T5
X72.985Y-66.11
X72.985Y-68.65
X73.0Y-63.585
X78.975Y-74.875
X81.515Y-74.895
X84.055Y-74.875
X205.525Y-107.985
X205.525Y-110.525
X205.54Y-105.46
X211.515Y-116.75
X214.055Y-116.77
X216.595Y-116.75
T6
X78.325Y-55.805
X78.325Y-60.545
X84.675Y-55.825
X84.685Y-60.565
X210.865Y-97.68
X210.865Y-102.42
X217.215Y-97.7
X217.225Y-102.44
T7
X73.245Y-44.5
X77.745Y-44.5
X231.763Y-44.5
X236.263Y-44.5
T8
X73.016Y-107.485
X77.881Y-108.46
X84.471Y-103.101
X85.744Y-120.213
X85.78Y-94.721
X90.609Y-121.188
X90.644Y-95.697
X93.94Y-50.0
X96.48Y-50.0
X97.199Y-115.829
X97.235Y-90.337
X98.507Y-107.449
X99.02Y-50.0
X101.56Y-50.0
X103.372Y-108.425
X104.95Y-70.37
X104.95Y-72.91
X104.95Y-75.45
X104.95Y-77.99
X104.95Y-80.53
X104.95Y-83.07
X104.95Y-85.61
X104.95Y-88.15
X107.44Y-50.0
X109.963Y-103.065
X109.98Y-50.0
X112.52Y-50.0
X115.06Y-50.0
X120.86Y-50.0
X123.4Y-50.0
X125.94Y-50.0
X128.48Y-50.0
X134.18Y-50.0
X136.72Y-50.0
X139.26Y-50.0
X141.8Y-50.0
X143.855Y-59.16
X144.34Y-50.0
X146.395Y-59.16
X146.88Y-50.0
X148.935Y-59.16
X149.42Y-50.0
X151.475Y-59.16
X151.96Y-50.0
X154.015Y-59.16
X154.5Y-50.0
X156.555Y-59.16
X159.095Y-59.16
X168.6Y-53.08
X168.6Y-55.62
X168.6Y-58.16
X168.6Y-60.7
X168.6Y-63.24
X168.6Y-65.78
X168.6Y-68.32
X168.6Y-70.86
X168.6Y-73.4
X168.6Y-75.94
X168.6Y-78.48
X168.6Y-81.02
X168.6Y-83.56
X168.6Y-86.1
X168.6Y-88.64
X168.6Y-91.18
X168.6Y-93.72
X168.6Y-96.26
X168.6Y-98.8
X168.6Y-101.34
X168.6Y-103.88
X168.6Y-106.42
X194.0Y-53.08
X194.0Y-55.62
X194.0Y-58.16
X194.0Y-60.7
X194.0Y-63.24
X194.0Y-65.78
X194.0Y-68.32
X194.0Y-70.86
X194.0Y-73.4
X194.0Y-75.94
X194.0Y-78.48
X194.0Y-81.02
X194.0Y-83.56
X194.0Y-86.1
X194.0Y-88.64
X194.0Y-91.18
X194.0Y-93.72
X194.0Y-96.26
X194.0Y-98.8
X194.0Y-101.34
X194.0Y-103.88
X194.0Y-106.42
X205.286Y-75.204
X210.151Y-76.18
X216.741Y-70.82
X217.994Y-62.496
X218.014Y-87.932
X222.859Y-63.472
X222.879Y-88.907
X229.449Y-58.112
X229.469Y-83.548
X230.722Y-75.224
X235.587Y-76.2
X242.177Y-70.84
T9
X144.0Y-100.0
X144.0Y-104.5
X150.5Y-100.0
X150.5Y-104.5
T10
X71.995Y-46.99
X79.005Y-46.99
X121.75Y-89.66
X121.75Y-94.66
X122.0Y-71.0
X122.0Y-76.0
X134.25Y-89.66
X134.25Y-94.66
X134.5Y-71.0
X134.5Y-76.0
X230.513Y-46.99
X237.523Y-46.99
T11
X75.15Y-61.06
X75.15Y-71.19
X87.85Y-61.045
X87.85Y-71.205
X207.69Y-102.935
X207.69Y-113.065
X220.39Y-102.92
X220.39Y-113.08
T12
X139.71Y-59.97
X139.71Y-94.57
X163.24Y-59.97
X163.24Y-94.57
T13
X65.5Y-47.0
X65.5Y-126.0
X244.0Y-47.0
X244.0Y-126.0
T3
G00X147.48Y-124.4
M15
G01X147.48Y-125.0
M16
G05
G00X147.48Y-128.2
M15
G01X147.48Y-128.8
M16
G05
G00X156.12Y-124.4
M15
G01X156.12Y-125.0
M16
G05
G00X156.12Y-128.2
M15
G01X156.12Y-128.8
M16
G05
M30
