%TF.GenerationSoftware,KiCad,Pcbnew,8.0.6*%
%TF.CreationDate,2025-01-24T00:07:20+07:00*%
%TF.ProjectId,esp_gamepad_v2,6573705f-6761-46d6-9570-61645f76322e,rev?*%
%TF.SameCoordinates,Original*%
%TF.FileFunction,Soldermask,Bot*%
%TF.FilePolarity,Negative*%
%FSLAX46Y46*%
G04 Gerber Fmt 4.6, Leading zero omitted, Abs format (unit mm)*
G04 Created by KiCad (PCBNEW 8.0.6) date 2025-01-24 00:07:20*
%MOMM*%
%LPD*%
G01*
G04 APERTURE LIST*
%ADD10C,3.800000*%
%ADD11C,1.800000*%
%ADD12C,1.701800*%
%ADD13C,6.250000*%
%ADD14C,2.300000*%
%ADD15C,1.650000*%
%ADD16O,3.200000X1.900000*%
%ADD17C,2.000000*%
%ADD18C,2.100000*%
%ADD19C,1.750000*%
%ADD20O,1.100000X1.700000*%
%ADD21C,6.400000*%
%ADD22C,1.778000*%
%ADD23C,2.286000*%
%ADD24R,1.600000X1.600000*%
%ADD25O,1.600000X1.600000*%
%ADD26R,7.340000X6.350000*%
G04 APERTURE END LIST*
D10*
%TO.C,U1*%
X139710000Y-59970000D03*
X139710000Y-94570000D03*
D11*
X143855000Y-59160000D03*
D10*
X163240000Y-59970000D03*
X163240000Y-94570000D03*
D11*
X146395000Y-59160000D03*
X148935000Y-59160000D03*
X151475000Y-59160000D03*
X154015000Y-59160000D03*
X156555000Y-59160000D03*
X159095000Y-59160000D03*
%TD*%
%TO.C,U4*%
X104950000Y-70370000D03*
X104950000Y-72910000D03*
X104950000Y-75450000D03*
X104950000Y-77990000D03*
X104950000Y-80530000D03*
X104950000Y-83070000D03*
X104950000Y-85610000D03*
X104950000Y-88150000D03*
%TD*%
%TO.C,J3*%
X134180000Y-50000000D03*
X136720000Y-50000000D03*
X139260000Y-50000000D03*
X141800000Y-50000000D03*
X144340000Y-50000000D03*
X146880000Y-50000000D03*
X149420000Y-50000000D03*
X151960000Y-50000000D03*
X154500000Y-50000000D03*
%TD*%
%TO.C,J1*%
X93940000Y-50000000D03*
X96480000Y-50000000D03*
X99020000Y-50000000D03*
X101560000Y-50000000D03*
%TD*%
D12*
%TO.C,SW7*%
X218403092Y-79764571D03*
D13*
X222292179Y-83653658D03*
D14*
X219675884Y-86269953D03*
D15*
X229469313Y-83547592D03*
D12*
X226181266Y-87542745D03*
D11*
X218014183Y-87931654D03*
X222879078Y-88907461D03*
%TD*%
D16*
%TO.C,SW12*%
X121750000Y-89660000D03*
X134250000Y-89660000D03*
X121750000Y-94660000D03*
X134250000Y-94660000D03*
%TD*%
D12*
%TO.C,SW10*%
X86168436Y-86554327D03*
D13*
X90057523Y-90443414D03*
D14*
X87441228Y-93059709D03*
D15*
X97234657Y-90337348D03*
D12*
X93946610Y-94332501D03*
D11*
X85779527Y-94721410D03*
X90644422Y-95697217D03*
%TD*%
D17*
%TO.C,SW13*%
X150500000Y-104500000D03*
X144000000Y-104500000D03*
X150500000Y-100000000D03*
X144000000Y-100000000D03*
%TD*%
D18*
%TO.C,SW1*%
X71995000Y-46990000D03*
X79005000Y-46990000D03*
D19*
X73245000Y-44500000D03*
X77745000Y-44500000D03*
%TD*%
D18*
%TO.C,SW2*%
X230512767Y-46989995D03*
X237522767Y-46989995D03*
D19*
X231762767Y-44499995D03*
X236262767Y-44499995D03*
%TD*%
D12*
%TO.C,SW9*%
X98896358Y-99282249D03*
D13*
X102785445Y-103171336D03*
D14*
X100169150Y-105787631D03*
D15*
X109962579Y-103065270D03*
D12*
X106674532Y-107060423D03*
D11*
X98507449Y-107449332D03*
X103372344Y-108425139D03*
%TD*%
D12*
%TO.C,SW3*%
X218382991Y-54328828D03*
D13*
X222272078Y-58217915D03*
D14*
X219655783Y-60834210D03*
D15*
X229449212Y-58111849D03*
D12*
X226161165Y-62107002D03*
D11*
X217994082Y-62495911D03*
X222858977Y-63471718D03*
%TD*%
D20*
%TO.C,P1*%
X147480000Y-124700000D03*
X147480000Y-128500000D03*
X156120000Y-124700000D03*
X156120000Y-128500000D03*
%TD*%
D21*
%TO.C,H3*%
X65500000Y-126000000D03*
%TD*%
D11*
%TO.C,U2*%
X168600000Y-53080000D03*
X168600000Y-55620000D03*
X168600000Y-58160000D03*
X168600000Y-60700000D03*
X168600000Y-63240000D03*
X168600000Y-65780000D03*
X168600000Y-68320000D03*
X168600000Y-70860000D03*
X168600000Y-73400000D03*
X168600000Y-75940000D03*
X168600000Y-78480000D03*
X168600000Y-81020000D03*
X168600000Y-83560000D03*
X168600000Y-86100000D03*
X168600000Y-88640000D03*
X168600000Y-91180000D03*
X168600000Y-93720000D03*
X168600000Y-96260000D03*
X168600000Y-98800000D03*
X168600000Y-101340000D03*
X168600000Y-103880000D03*
X168600000Y-106420000D03*
X194000000Y-106420000D03*
X194000000Y-103880000D03*
X194000000Y-101340000D03*
X194000000Y-98800000D03*
X194000000Y-96260000D03*
X194000000Y-93720000D03*
X194000000Y-91180000D03*
X194000000Y-88640000D03*
X194000000Y-86100000D03*
X194000000Y-83560000D03*
X194000000Y-81020000D03*
X194000000Y-78480000D03*
X194000000Y-75940000D03*
X194000000Y-73400000D03*
X194000000Y-70860000D03*
X194000000Y-68320000D03*
X194000000Y-65780000D03*
X194000000Y-63240000D03*
X194000000Y-60700000D03*
X194000000Y-58160000D03*
X194000000Y-55620000D03*
X194000000Y-53080000D03*
%TD*%
D21*
%TO.C,H1*%
X65500000Y-47000000D03*
%TD*%
D12*
%TO.C,SW14*%
X86133080Y-112045527D03*
D13*
X90022167Y-115934614D03*
D14*
X87405872Y-118550909D03*
D15*
X97199301Y-115828548D03*
D12*
X93911254Y-119823701D03*
D11*
X85744171Y-120212610D03*
X90609066Y-121188417D03*
%TD*%
D21*
%TO.C,H4*%
X244000000Y-126000000D03*
%TD*%
D16*
%TO.C,SW4*%
X134500000Y-76000000D03*
X122000000Y-76000000D03*
X134500000Y-71000000D03*
X122000000Y-71000000D03*
%TD*%
D12*
%TO.C,SW5*%
X205675170Y-67036649D03*
D13*
X209564257Y-70925736D03*
D14*
X206947962Y-73542031D03*
D15*
X216741391Y-70819670D03*
D12*
X213453344Y-74814823D03*
D11*
X205286261Y-75203732D03*
X210151156Y-76179539D03*
%TD*%
D22*
%TO.C,U6*%
X210864845Y-97680200D03*
X217214845Y-97700000D03*
X210864845Y-102420200D03*
X217224845Y-102440200D03*
X211514845Y-116750000D03*
X214054845Y-116770000D03*
X216594845Y-116750000D03*
D23*
X207689845Y-102935200D03*
X207689845Y-113065200D03*
X220389845Y-113080000D03*
X220389845Y-102920000D03*
D22*
X205539845Y-105460000D03*
X205524845Y-107985200D03*
X205524845Y-110525200D03*
%TD*%
D12*
%TO.C,SW8*%
X73405158Y-99317605D03*
D13*
X77294245Y-103206692D03*
D14*
X74677950Y-105822987D03*
D15*
X84471379Y-103100626D03*
D12*
X81183332Y-107095779D03*
D11*
X73016249Y-107484688D03*
X77881144Y-108460495D03*
%TD*%
%TO.C,J4*%
X120860000Y-50000000D03*
X123400000Y-50000000D03*
X125940000Y-50000000D03*
X128480000Y-50000000D03*
%TD*%
D22*
%TO.C,U3*%
X78325000Y-55805000D03*
X84675000Y-55824800D03*
X78325000Y-60545000D03*
X84685000Y-60565000D03*
X78975000Y-74874800D03*
X81515000Y-74894800D03*
X84055000Y-74874800D03*
D23*
X75150000Y-61060000D03*
X75150000Y-71190000D03*
X87850000Y-71204800D03*
X87850000Y-61044800D03*
D22*
X73000000Y-63584800D03*
X72985000Y-66110000D03*
X72985000Y-68650000D03*
%TD*%
D21*
%TO.C,H2*%
X244000000Y-47000000D03*
%TD*%
D11*
%TO.C,J2*%
X107440000Y-50000000D03*
X109980000Y-50000000D03*
X112520000Y-50000000D03*
X115060000Y-50000000D03*
%TD*%
D12*
%TO.C,SW6*%
X231110913Y-67056750D03*
D13*
X235000000Y-70945837D03*
D14*
X232383705Y-73562132D03*
D15*
X242177134Y-70839771D03*
D12*
X238889087Y-74834924D03*
D11*
X230722004Y-75223833D03*
X235586899Y-76199640D03*
%TD*%
D24*
%TO.C,SW11*%
X124380000Y-106500000D03*
D25*
X132000000Y-106500000D03*
%TD*%
D26*
%TO.C,BT1*%
X190830000Y-119000000D03*
X112170000Y-119000000D03*
%TD*%
M02*
