%TF.GenerationSoftware,KiCad,Pcbnew,8.0.6*%
%TF.CreationDate,2025-01-24T00:07:20+07:00*%
%TF.ProjectId,esp_gamepad_v2,6573705f-6761-46d6-9570-61645f76322e,rev?*%
%TF.SameCoordinates,Original*%
%TF.FileFunction,Soldermask,Top*%
%TF.FilePolarity,Negative*%
%FSLAX46Y46*%
G04 Gerber Fmt 4.6, Leading zero omitted, Abs format (unit mm)*
G04 Created by KiCad (PCBNEW 8.0.6) date 2025-01-24 00:07:20*
%MOMM*%
%LPD*%
G01*
G04 APERTURE LIST*
G04 Aperture macros list*
%AMRoundRect*
0 Rectangle with rounded corners*
0 $1 Rounding radius*
0 $2 $3 $4 $5 $6 $7 $8 $9 X,Y pos of 4 corners*
0 Add a 4 corners polygon primitive as box body*
4,1,4,$2,$3,$4,$5,$6,$7,$8,$9,$2,$3,0*
0 Add four circle primitives for the rounded corners*
1,1,$1+$1,$2,$3*
1,1,$1+$1,$4,$5*
1,1,$1+$1,$6,$7*
1,1,$1+$1,$8,$9*
0 Add four rect primitives between the rounded corners*
20,1,$1+$1,$2,$3,$4,$5,0*
20,1,$1+$1,$4,$5,$6,$7,0*
20,1,$1+$1,$6,$7,$8,$9,0*
20,1,$1+$1,$8,$9,$2,$3,0*%
G04 Aperture macros list end*
%ADD10C,3.800000*%
%ADD11C,1.800000*%
%ADD12RoundRect,0.250000X-0.450000X0.262500X-0.450000X-0.262500X0.450000X-0.262500X0.450000X0.262500X0*%
%ADD13C,1.701800*%
%ADD14C,6.250000*%
%ADD15C,2.300000*%
%ADD16C,1.650000*%
%ADD17RoundRect,0.250000X0.450000X-0.262500X0.450000X0.262500X-0.450000X0.262500X-0.450000X-0.262500X0*%
%ADD18RoundRect,0.243750X-0.243750X-0.456250X0.243750X-0.456250X0.243750X0.456250X-0.243750X0.456250X0*%
%ADD19O,3.200000X1.900000*%
%ADD20RoundRect,0.250000X-0.262500X-0.450000X0.262500X-0.450000X0.262500X0.450000X-0.262500X0.450000X0*%
%ADD21RoundRect,0.250000X-0.250000X-0.475000X0.250000X-0.475000X0.250000X0.475000X-0.250000X0.475000X0*%
%ADD22C,2.000000*%
%ADD23C,2.100000*%
%ADD24C,1.750000*%
%ADD25RoundRect,0.150000X-0.825000X-0.150000X0.825000X-0.150000X0.825000X0.150000X-0.825000X0.150000X0*%
%ADD26R,2.410000X3.300000*%
%ADD27RoundRect,0.250000X0.475000X-0.250000X0.475000X0.250000X-0.475000X0.250000X-0.475000X-0.250000X0*%
%ADD28RoundRect,0.062500X-0.387500X-0.062500X0.387500X-0.062500X0.387500X0.062500X-0.387500X0.062500X0*%
%ADD29R,2.400000X1.800000*%
%ADD30RoundRect,0.250001X-0.924999X0.499999X-0.924999X-0.499999X0.924999X-0.499999X0.924999X0.499999X0*%
%ADD31RoundRect,0.200000X-0.200000X0.750000X-0.200000X-0.750000X0.200000X-0.750000X0.200000X0.750000X0*%
%ADD32RoundRect,0.200000X0.200000X0.400000X-0.200000X0.400000X-0.200000X-0.400000X0.200000X-0.400000X0*%
%ADD33RoundRect,0.200000X-0.200000X-0.400000X0.200000X-0.400000X0.200000X0.400000X-0.200000X0.400000X0*%
%ADD34RoundRect,0.190000X-0.190000X-0.410000X0.190000X-0.410000X0.190000X0.410000X-0.190000X0.410000X0*%
%ADD35RoundRect,0.190000X0.190000X0.410000X-0.190000X0.410000X-0.190000X-0.410000X0.190000X-0.410000X0*%
%ADD36RoundRect,0.175000X0.175000X0.425000X-0.175000X0.425000X-0.175000X-0.425000X0.175000X-0.425000X0*%
%ADD37RoundRect,0.175000X-0.175000X-0.425000X0.175000X-0.425000X0.175000X0.425000X-0.175000X0.425000X0*%
%ADD38O,1.100000X1.700000*%
%ADD39C,6.400000*%
%ADD40RoundRect,0.250000X-0.475000X0.250000X-0.475000X-0.250000X0.475000X-0.250000X0.475000X0.250000X0*%
%ADD41RoundRect,0.243750X-0.456250X0.243750X-0.456250X-0.243750X0.456250X-0.243750X0.456250X0.243750X0*%
%ADD42C,1.778000*%
%ADD43C,2.286000*%
%ADD44RoundRect,0.250000X0.250000X0.475000X-0.250000X0.475000X-0.250000X-0.475000X0.250000X-0.475000X0*%
%ADD45R,2.700000X3.600000*%
%ADD46R,1.600000X1.600000*%
%ADD47O,1.600000X1.600000*%
G04 APERTURE END LIST*
D10*
%TO.C,U1*%
X139710000Y-59970000D03*
X139710000Y-94570000D03*
D11*
X143855000Y-59160000D03*
D10*
X163240000Y-59970000D03*
X163240000Y-94570000D03*
D11*
X146395000Y-59160000D03*
X148935000Y-59160000D03*
X151475000Y-59160000D03*
X154015000Y-59160000D03*
X156555000Y-59160000D03*
X159095000Y-59160000D03*
%TD*%
%TO.C,U4*%
X104950000Y-70370000D03*
X104950000Y-72910000D03*
X104950000Y-75450000D03*
X104950000Y-77990000D03*
X104950000Y-80530000D03*
X104950000Y-83070000D03*
X104950000Y-85610000D03*
X104950000Y-88150000D03*
%TD*%
D12*
%TO.C,R18*%
X126000000Y-115125000D03*
X126000000Y-116950000D03*
%TD*%
D11*
%TO.C,J3*%
X134180000Y-50000000D03*
X136720000Y-50000000D03*
X139260000Y-50000000D03*
X141800000Y-50000000D03*
X144340000Y-50000000D03*
X146880000Y-50000000D03*
X149420000Y-50000000D03*
X151960000Y-50000000D03*
X154500000Y-50000000D03*
%TD*%
%TO.C,J1*%
X93940000Y-50000000D03*
X96480000Y-50000000D03*
X99020000Y-50000000D03*
X101560000Y-50000000D03*
%TD*%
D13*
%TO.C,SW7*%
X218403092Y-79764571D03*
D14*
X222292179Y-83653658D03*
D15*
X219675884Y-86269953D03*
D16*
X229469313Y-83547592D03*
D13*
X226181266Y-87542745D03*
%TD*%
D17*
%TO.C,R15*%
X201500000Y-96912500D03*
X201500000Y-95087500D03*
%TD*%
D18*
%TO.C,D1*%
X129125000Y-123500000D03*
X131000000Y-123500000D03*
%TD*%
D17*
%TO.C,R16*%
X201500000Y-89912500D03*
X201500000Y-88087500D03*
%TD*%
D19*
%TO.C,SW12*%
X121750000Y-89660000D03*
X134250000Y-89660000D03*
X121750000Y-94660000D03*
X134250000Y-94660000D03*
%TD*%
D12*
%TO.C,R19*%
X163500000Y-118587500D03*
X163500000Y-120412500D03*
%TD*%
D17*
%TO.C,R5*%
X172000000Y-75825000D03*
X172000000Y-74000000D03*
%TD*%
D20*
%TO.C,R13*%
X114675000Y-95500000D03*
X116500000Y-95500000D03*
%TD*%
D13*
%TO.C,SW10*%
X86168436Y-86554327D03*
D14*
X90057523Y-90443414D03*
D15*
X87441228Y-93059709D03*
D16*
X97234657Y-90337348D03*
D13*
X93946610Y-94332501D03*
%TD*%
D20*
%TO.C,R14*%
X161175000Y-100000000D03*
X163000000Y-100000000D03*
%TD*%
D17*
%TO.C,R17*%
X201500000Y-93412500D03*
X201500000Y-91587500D03*
%TD*%
D21*
%TO.C,C1*%
X107600000Y-53000000D03*
X109500000Y-53000000D03*
%TD*%
D22*
%TO.C,SW13*%
X150500000Y-104500000D03*
X144000000Y-104500000D03*
X150500000Y-100000000D03*
X144000000Y-100000000D03*
%TD*%
D23*
%TO.C,SW1*%
X71995000Y-46990000D03*
X79005000Y-46990000D03*
D24*
X73245000Y-44500000D03*
X77745000Y-44500000D03*
%TD*%
D23*
%TO.C,SW2*%
X230512767Y-46989995D03*
X237522767Y-46989995D03*
D24*
X231762767Y-44499995D03*
X236262767Y-44499995D03*
%TD*%
D25*
%TO.C,U7*%
X136550000Y-115095000D03*
X136550000Y-116365000D03*
X136550000Y-117635000D03*
X136550000Y-118905000D03*
X141500000Y-118905000D03*
X141500000Y-117635000D03*
X141500000Y-116365000D03*
X141500000Y-115095000D03*
D26*
X139025000Y-117000000D03*
%TD*%
D27*
%TO.C,C6*%
X109000000Y-72450000D03*
X109000000Y-70550000D03*
%TD*%
D28*
%TO.C,U5*%
X126550000Y-100500000D03*
X126550000Y-101150000D03*
X126550000Y-101800000D03*
X126550000Y-102450000D03*
X130350000Y-102450000D03*
X130350000Y-101800000D03*
X130350000Y-101150000D03*
X130350000Y-100500000D03*
D29*
X128450000Y-101475000D03*
%TD*%
D30*
%TO.C,C12*%
X173300000Y-117250000D03*
X173300000Y-120500000D03*
%TD*%
D13*
%TO.C,SW9*%
X98896358Y-99282249D03*
D14*
X102785445Y-103171336D03*
D15*
X100169150Y-105787631D03*
D16*
X109962579Y-103065270D03*
D13*
X106674532Y-107060423D03*
%TD*%
D20*
%TO.C,R9*%
X114675000Y-97500000D03*
X116500000Y-97500000D03*
%TD*%
D31*
%TO.C,Q1*%
X118050000Y-113000000D03*
X119950000Y-113000000D03*
X119000000Y-116000000D03*
%TD*%
D13*
%TO.C,SW3*%
X218382991Y-54328828D03*
D14*
X222272078Y-58217915D03*
D15*
X219655783Y-60834210D03*
D16*
X229449212Y-58111849D03*
D13*
X226161165Y-62107002D03*
%TD*%
D32*
%TO.C,P1*%
X154550000Y-124620000D03*
D33*
X149050000Y-124620000D03*
D34*
X150280000Y-124620000D03*
D35*
X153320000Y-124620000D03*
D36*
X152300000Y-124620000D03*
D37*
X151300000Y-124620000D03*
D38*
X147480000Y-124700000D03*
X147480000Y-128500000D03*
X156120000Y-124700000D03*
X156120000Y-128500000D03*
%TD*%
D20*
%TO.C,R10*%
X114675000Y-91500000D03*
X116500000Y-91500000D03*
%TD*%
D21*
%TO.C,C2*%
X94100000Y-53000000D03*
X96000000Y-53000000D03*
%TD*%
D39*
%TO.C,H3*%
X65500000Y-126000000D03*
%TD*%
D40*
%TO.C,C8*%
X123300000Y-115100000D03*
X123300000Y-117000000D03*
%TD*%
D17*
%TO.C,R3*%
X97500000Y-70325000D03*
X97500000Y-68500000D03*
%TD*%
D40*
%TO.C,C9*%
X163300000Y-123050000D03*
X163300000Y-124950000D03*
%TD*%
D20*
%TO.C,R12*%
X116675000Y-100000000D03*
X118500000Y-100000000D03*
%TD*%
D11*
%TO.C,U2*%
X168600000Y-53080000D03*
X168600000Y-55620000D03*
X168600000Y-58160000D03*
X168600000Y-60700000D03*
X168600000Y-63240000D03*
X168600000Y-65780000D03*
X168600000Y-68320000D03*
X168600000Y-70860000D03*
X168600000Y-73400000D03*
X168600000Y-75940000D03*
X168600000Y-78480000D03*
X168600000Y-81020000D03*
X168600000Y-83560000D03*
X168600000Y-86100000D03*
X168600000Y-88640000D03*
X168600000Y-91180000D03*
X168600000Y-93720000D03*
X168600000Y-96260000D03*
X168600000Y-98800000D03*
X168600000Y-101340000D03*
X168600000Y-103880000D03*
X168600000Y-106420000D03*
X194000000Y-106420000D03*
X194000000Y-103880000D03*
X194000000Y-101340000D03*
X194000000Y-98800000D03*
X194000000Y-96260000D03*
X194000000Y-93720000D03*
X194000000Y-91180000D03*
X194000000Y-88640000D03*
X194000000Y-86100000D03*
X194000000Y-83560000D03*
X194000000Y-81020000D03*
X194000000Y-78480000D03*
X194000000Y-75940000D03*
X194000000Y-73400000D03*
X194000000Y-70860000D03*
X194000000Y-68320000D03*
X194000000Y-65780000D03*
X194000000Y-63240000D03*
X194000000Y-60700000D03*
X194000000Y-58160000D03*
X194000000Y-55620000D03*
X194000000Y-53080000D03*
%TD*%
D41*
%TO.C,D5*%
X163300000Y-113500000D03*
X163300000Y-115375000D03*
%TD*%
D39*
%TO.C,H1*%
X65500000Y-47000000D03*
%TD*%
D13*
%TO.C,SW14*%
X86133080Y-112045527D03*
D14*
X90022167Y-115934614D03*
D15*
X87405872Y-118550909D03*
D16*
X97199301Y-115828548D03*
D13*
X93911254Y-119823701D03*
%TD*%
D39*
%TO.C,H4*%
X244000000Y-126000000D03*
%TD*%
D17*
%TO.C,R8*%
X201500000Y-65912500D03*
X201500000Y-64087500D03*
%TD*%
D12*
%TO.C,R2*%
X95500000Y-68500000D03*
X95500000Y-70325000D03*
%TD*%
D18*
%TO.C,D3*%
X129125000Y-119500000D03*
X131000000Y-119500000D03*
%TD*%
D19*
%TO.C,SW4*%
X134500000Y-76000000D03*
X122000000Y-76000000D03*
X134500000Y-71000000D03*
X122000000Y-71000000D03*
%TD*%
D13*
%TO.C,SW5*%
X205675170Y-67036649D03*
D14*
X209564257Y-70925736D03*
D15*
X206947962Y-73542031D03*
D16*
X216741391Y-70819670D03*
D13*
X213453344Y-74814823D03*
%TD*%
D18*
%TO.C,D2*%
X129125000Y-121500000D03*
X131000000Y-121500000D03*
%TD*%
D42*
%TO.C,U6*%
X210864845Y-97680200D03*
X217214845Y-97700000D03*
X210864845Y-102420200D03*
X217224845Y-102440200D03*
X211514845Y-116750000D03*
X214054845Y-116770000D03*
X216594845Y-116750000D03*
D43*
X207689845Y-102935200D03*
X207689845Y-113065200D03*
X220389845Y-113080000D03*
X220389845Y-102920000D03*
D42*
X205539845Y-105460000D03*
X205524845Y-107985200D03*
X205524845Y-110525200D03*
%TD*%
D30*
%TO.C,C13*%
X169300000Y-117250000D03*
X169300000Y-120500000D03*
%TD*%
D17*
%TO.C,R7*%
X201500000Y-85412500D03*
X201500000Y-83587500D03*
%TD*%
%TO.C,R6*%
X175000000Y-75825000D03*
X175000000Y-74000000D03*
%TD*%
D13*
%TO.C,SW8*%
X73405158Y-99317605D03*
D14*
X77294245Y-103206692D03*
D15*
X74677950Y-105822987D03*
D16*
X84471379Y-103100626D03*
D13*
X81183332Y-107095779D03*
%TD*%
D20*
%TO.C,R4*%
X116175000Y-70500000D03*
X118000000Y-70500000D03*
%TD*%
D21*
%TO.C,C4*%
X134600000Y-53000000D03*
X136500000Y-53000000D03*
%TD*%
D40*
%TO.C,C7*%
X126000000Y-119600000D03*
X126000000Y-121500000D03*
%TD*%
D12*
%TO.C,R1*%
X201500000Y-60500000D03*
X201500000Y-62325000D03*
%TD*%
D11*
%TO.C,J4*%
X120860000Y-50000000D03*
X123400000Y-50000000D03*
X125940000Y-50000000D03*
X128480000Y-50000000D03*
%TD*%
D18*
%TO.C,D4*%
X129125000Y-117500000D03*
X131000000Y-117500000D03*
%TD*%
D44*
%TO.C,C5*%
X146000000Y-61500000D03*
X144100000Y-61500000D03*
%TD*%
D21*
%TO.C,C3*%
X121100000Y-53000000D03*
X123000000Y-53000000D03*
%TD*%
D42*
%TO.C,U3*%
X78325000Y-55805000D03*
X84675000Y-55824800D03*
X78325000Y-60545000D03*
X84685000Y-60565000D03*
X78975000Y-74874800D03*
X81515000Y-74894800D03*
X84055000Y-74874800D03*
D43*
X75150000Y-61060000D03*
X75150000Y-71190000D03*
X87850000Y-71204800D03*
X87850000Y-61044800D03*
D42*
X73000000Y-63584800D03*
X72985000Y-66110000D03*
X72985000Y-68650000D03*
%TD*%
D40*
%TO.C,C10*%
X160800000Y-118550000D03*
X160800000Y-120450000D03*
%TD*%
D45*
%TO.C,L1*%
X147500000Y-117500000D03*
X155800000Y-117500000D03*
%TD*%
D39*
%TO.C,H2*%
X244000000Y-47000000D03*
%TD*%
D11*
%TO.C,J2*%
X107440000Y-50000000D03*
X109980000Y-50000000D03*
X112520000Y-50000000D03*
X115060000Y-50000000D03*
%TD*%
D13*
%TO.C,SW6*%
X231110913Y-67056750D03*
D14*
X235000000Y-70945837D03*
D15*
X232383705Y-73562132D03*
D16*
X242177134Y-70839771D03*
D13*
X238889087Y-74834924D03*
%TD*%
D30*
%TO.C,C11*%
X177300000Y-117250000D03*
X177300000Y-120500000D03*
%TD*%
D20*
%TO.C,R11*%
X114675000Y-93500000D03*
X116500000Y-93500000D03*
%TD*%
D46*
%TO.C,SW11*%
X124380000Y-106500000D03*
D47*
X132000000Y-106500000D03*
%TD*%
M02*
