M48
; DRILL file {KiCad 8.0.6} date 2025-01-24T00:07:22+0700
; FORMAT={-:-/ absolute / metric / decimal}
; #@! TF.CreationDate,2025-01-24T00:07:22+07:00
; #@! TF.GenerationSoftware,Kicad,Pcbnew,8.0.6
; #@! TF.FileFunction,NonPlated,1,2,NPTH
FMAT,2
METRIC
; #@! TA.AperFunction,NonPlated,NPTH,ComponentDrill
T1C1.702
; #@! TA.AperFunction,NonPlated,NPTH,ComponentDrill
T2C2.300
; #@! TA.AperFunction,NonPlated,NPTH,ComponentDrill
T3C6.250
%
G90
G05
T1
X73.405Y-99.318
X81.183Y-107.096
X86.133Y-112.046
X86.168Y-86.554
X93.911Y-119.824
X93.947Y-94.333
X98.896Y-99.282
X106.675Y-107.06
X205.675Y-67.037
X213.453Y-74.815
X218.383Y-54.329
X218.403Y-79.765
X226.161Y-62.107
X226.181Y-87.543
X231.111Y-67.057
X238.889Y-74.835
T2
X74.678Y-105.823
X87.406Y-118.551
X87.441Y-93.06
X100.169Y-105.788
X206.948Y-73.542
X219.656Y-60.834
X219.676Y-86.27
X232.384Y-73.562
T3
X77.294Y-103.207
X90.022Y-115.935
X90.058Y-90.443
X102.785Y-103.171
X209.564Y-70.926
X222.272Y-58.218
X222.292Y-83.654
X235.0Y-70.946
M30
