%TF.GenerationSoftware,KiCad,Pcbnew,8.0.6*%
%TF.CreationDate,2025-01-24T00:07:23+07:00*%
%TF.ProjectId,esp_gamepad_v2,6573705f-6761-46d6-9570-61645f76322e,rev?*%
%TF.SameCoordinates,Original*%
%TF.FileFunction,Drillmap*%
%TF.FilePolarity,Positive*%
%FSLAX45Y45*%
G04 Gerber Fmt 4.5, Leading zero omitted, Abs format (unit mm)*
G04 Created by KiCad (PCBNEW 8.0.6) date 2025-01-24 00:07:23*
%MOMM*%
%LPD*%
G01*
G04 APERTURE LIST*
%ADD10C,0.050000*%
%ADD11C,0.200000*%
%ADD12C,0.170180*%
%ADD13C,0.230000*%
%ADD14C,0.625000*%
G04 APERTURE END LIST*
D10*
X6053553Y-12596447D02*
X6053553Y-4705803D01*
X24398223Y-13096446D02*
X6553553Y-13096447D01*
X24901777Y-4703554D02*
X24898223Y-12596446D01*
X6053553Y-4705803D02*
G75*
G02*
X6553553Y-4205803I500000J0D01*
G01*
X6553553Y-4205803D02*
X24401777Y-4203554D01*
X24401777Y-4203554D02*
G75*
G02*
X24901776Y-4703554I-7J-500006D01*
G01*
X6553553Y-13096447D02*
G75*
G02*
X6053553Y-12596447I-3J499997D01*
G01*
X24898223Y-12596446D02*
G75*
G02*
X24398223Y-13096443I-499993J-4D01*
G01*
D11*
D12*
X7255426Y-9846671D02*
X7425606Y-10016851D01*
X7425606Y-9846671D02*
X7255426Y-10016851D01*
X8033243Y-10624488D02*
X8203423Y-10794668D01*
X8203423Y-10624488D02*
X8033243Y-10794668D01*
X8528218Y-11119463D02*
X8698398Y-11289643D01*
X8698398Y-11119463D02*
X8528218Y-11289643D01*
X8531754Y-8570343D02*
X8701934Y-8740523D01*
X8701934Y-8570343D02*
X8531754Y-8740523D01*
X9306035Y-11897280D02*
X9476215Y-12067460D01*
X9476215Y-11897280D02*
X9306035Y-12067460D01*
X9309571Y-9348160D02*
X9479751Y-9518340D01*
X9479751Y-9348160D02*
X9309571Y-9518340D01*
X9804546Y-9843135D02*
X9974726Y-10013315D01*
X9974726Y-9843135D02*
X9804546Y-10013315D01*
X10582363Y-10620952D02*
X10752543Y-10791132D01*
X10752543Y-10620952D02*
X10582363Y-10791132D01*
X20482427Y-6618575D02*
X20652607Y-6788755D01*
X20652607Y-6618575D02*
X20482427Y-6788755D01*
X21260244Y-7396392D02*
X21430424Y-7566572D01*
X21430424Y-7396392D02*
X21260244Y-7566572D01*
X21753209Y-5347793D02*
X21923389Y-5517973D01*
X21923389Y-5347793D02*
X21753209Y-5517973D01*
X21755219Y-7891367D02*
X21925399Y-8061547D01*
X21925399Y-7891367D02*
X21755219Y-8061547D01*
X22531026Y-6125610D02*
X22701206Y-6295790D01*
X22701206Y-6125610D02*
X22531026Y-6295790D01*
X22533037Y-8669185D02*
X22703217Y-8839365D01*
X22703217Y-8669185D02*
X22533037Y-8839365D01*
X23026001Y-6620585D02*
X23196181Y-6790765D01*
X23196181Y-6620585D02*
X23026001Y-6790765D01*
X23803819Y-7398402D02*
X23973999Y-7568582D01*
X23973999Y-7398402D02*
X23803819Y-7568582D01*
D13*
X7582795Y-10582299D02*
G75*
G02*
X7352795Y-10582299I-115000J0D01*
G01*
X7352795Y-10582299D02*
G75*
G02*
X7582795Y-10582299I115000J0D01*
G01*
X8855587Y-11855091D02*
G75*
G02*
X8625587Y-11855091I-115000J0D01*
G01*
X8625587Y-11855091D02*
G75*
G02*
X8855587Y-11855091I115000J0D01*
G01*
X8859123Y-9305971D02*
G75*
G02*
X8629123Y-9305971I-115000J0D01*
G01*
X8629123Y-9305971D02*
G75*
G02*
X8859123Y-9305971I115000J0D01*
G01*
X10131915Y-10578763D02*
G75*
G02*
X9901915Y-10578763I-115000J0D01*
G01*
X9901915Y-10578763D02*
G75*
G02*
X10131915Y-10578763I115000J0D01*
G01*
X20809796Y-7354203D02*
G75*
G02*
X20579796Y-7354203I-115000J0D01*
G01*
X20579796Y-7354203D02*
G75*
G02*
X20809796Y-7354203I115000J0D01*
G01*
X22080578Y-6083421D02*
G75*
G02*
X21850578Y-6083421I-115000J0D01*
G01*
X21850578Y-6083421D02*
G75*
G02*
X22080578Y-6083421I115000J0D01*
G01*
X22082588Y-8626995D02*
G75*
G02*
X21852588Y-8626995I-115000J0D01*
G01*
X21852588Y-8626995D02*
G75*
G02*
X22082588Y-8626995I115000J0D01*
G01*
X23353370Y-7356213D02*
G75*
G02*
X23123370Y-7356213I-115000J0D01*
G01*
X23123370Y-7356213D02*
G75*
G02*
X23353370Y-7356213I115000J0D01*
G01*
D14*
X7729424Y-10008169D02*
X7729424Y-10633169D01*
X7416924Y-10320669D02*
X8041924Y-10320669D01*
X9002217Y-11280961D02*
X9002217Y-11905961D01*
X8689717Y-11593461D02*
X9314717Y-11593461D01*
X9005752Y-8731841D02*
X9005752Y-9356841D01*
X8693252Y-9044341D02*
X9318252Y-9044341D01*
X10278545Y-10004634D02*
X10278545Y-10629634D01*
X9966045Y-10317134D02*
X10591045Y-10317134D01*
X20956426Y-6780074D02*
X20956426Y-7405074D01*
X20643926Y-7092574D02*
X21268926Y-7092574D01*
X22227208Y-5509292D02*
X22227208Y-6134291D01*
X21914708Y-5821791D02*
X22539708Y-5821791D01*
X22229218Y-8052866D02*
X22229218Y-8677866D01*
X21916718Y-8365366D02*
X22541718Y-8365366D01*
X23500000Y-6782084D02*
X23500000Y-7407084D01*
X23187500Y-7094584D02*
X23812500Y-7094584D01*
D11*
X6311830Y-13410430D02*
X6311830Y-13210430D01*
X6311830Y-13210430D02*
X6359449Y-13210430D01*
X6359449Y-13210430D02*
X6388021Y-13219954D01*
X6388021Y-13219954D02*
X6407068Y-13239002D01*
X6407068Y-13239002D02*
X6416592Y-13258049D01*
X6416592Y-13258049D02*
X6426116Y-13296145D01*
X6426116Y-13296145D02*
X6426116Y-13324716D01*
X6426116Y-13324716D02*
X6416592Y-13362811D01*
X6416592Y-13362811D02*
X6407068Y-13381859D01*
X6407068Y-13381859D02*
X6388021Y-13400907D01*
X6388021Y-13400907D02*
X6359449Y-13410430D01*
X6359449Y-13410430D02*
X6311830Y-13410430D01*
X6511830Y-13410430D02*
X6511830Y-13277097D01*
X6511830Y-13315192D02*
X6521354Y-13296145D01*
X6521354Y-13296145D02*
X6530878Y-13286621D01*
X6530878Y-13286621D02*
X6549925Y-13277097D01*
X6549925Y-13277097D02*
X6568973Y-13277097D01*
X6635640Y-13410430D02*
X6635640Y-13277097D01*
X6635640Y-13210430D02*
X6626116Y-13219954D01*
X6626116Y-13219954D02*
X6635640Y-13229478D01*
X6635640Y-13229478D02*
X6645163Y-13219954D01*
X6645163Y-13219954D02*
X6635640Y-13210430D01*
X6635640Y-13210430D02*
X6635640Y-13229478D01*
X6759449Y-13410430D02*
X6740402Y-13400907D01*
X6740402Y-13400907D02*
X6730878Y-13381859D01*
X6730878Y-13381859D02*
X6730878Y-13210430D01*
X6864211Y-13410430D02*
X6845163Y-13400907D01*
X6845163Y-13400907D02*
X6835640Y-13381859D01*
X6835640Y-13381859D02*
X6835640Y-13210430D01*
X7092783Y-13410430D02*
X7092783Y-13210430D01*
X7092783Y-13210430D02*
X7159449Y-13353287D01*
X7159449Y-13353287D02*
X7226116Y-13210430D01*
X7226116Y-13210430D02*
X7226116Y-13410430D01*
X7407068Y-13410430D02*
X7407068Y-13305668D01*
X7407068Y-13305668D02*
X7397544Y-13286621D01*
X7397544Y-13286621D02*
X7378497Y-13277097D01*
X7378497Y-13277097D02*
X7340402Y-13277097D01*
X7340402Y-13277097D02*
X7321354Y-13286621D01*
X7407068Y-13400907D02*
X7388021Y-13410430D01*
X7388021Y-13410430D02*
X7340402Y-13410430D01*
X7340402Y-13410430D02*
X7321354Y-13400907D01*
X7321354Y-13400907D02*
X7311830Y-13381859D01*
X7311830Y-13381859D02*
X7311830Y-13362811D01*
X7311830Y-13362811D02*
X7321354Y-13343764D01*
X7321354Y-13343764D02*
X7340402Y-13334240D01*
X7340402Y-13334240D02*
X7388021Y-13334240D01*
X7388021Y-13334240D02*
X7407068Y-13324716D01*
X7502306Y-13277097D02*
X7502306Y-13477097D01*
X7502306Y-13286621D02*
X7521354Y-13277097D01*
X7521354Y-13277097D02*
X7559449Y-13277097D01*
X7559449Y-13277097D02*
X7578497Y-13286621D01*
X7578497Y-13286621D02*
X7588021Y-13296145D01*
X7588021Y-13296145D02*
X7597544Y-13315192D01*
X7597544Y-13315192D02*
X7597544Y-13372335D01*
X7597544Y-13372335D02*
X7588021Y-13391383D01*
X7588021Y-13391383D02*
X7578497Y-13400907D01*
X7578497Y-13400907D02*
X7559449Y-13410430D01*
X7559449Y-13410430D02*
X7521354Y-13410430D01*
X7521354Y-13410430D02*
X7502306Y-13400907D01*
X7683259Y-13391383D02*
X7692783Y-13400907D01*
X7692783Y-13400907D02*
X7683259Y-13410430D01*
X7683259Y-13410430D02*
X7673735Y-13400907D01*
X7673735Y-13400907D02*
X7683259Y-13391383D01*
X7683259Y-13391383D02*
X7683259Y-13410430D01*
X7683259Y-13286621D02*
X7692783Y-13296145D01*
X7692783Y-13296145D02*
X7683259Y-13305668D01*
X7683259Y-13305668D02*
X7673735Y-13296145D01*
X7673735Y-13296145D02*
X7683259Y-13286621D01*
X7683259Y-13286621D02*
X7683259Y-13305668D01*
D12*
X5880873Y-13653857D02*
X6051053Y-13824037D01*
X6051053Y-13653857D02*
X5880873Y-13824037D01*
D11*
X6416592Y-13830430D02*
X6302306Y-13830430D01*
X6359449Y-13830430D02*
X6359449Y-13630430D01*
X6359449Y-13630430D02*
X6340402Y-13659002D01*
X6340402Y-13659002D02*
X6321354Y-13678049D01*
X6321354Y-13678049D02*
X6302306Y-13687573D01*
X6502306Y-13811383D02*
X6511830Y-13820907D01*
X6511830Y-13820907D02*
X6502306Y-13830430D01*
X6502306Y-13830430D02*
X6492783Y-13820907D01*
X6492783Y-13820907D02*
X6502306Y-13811383D01*
X6502306Y-13811383D02*
X6502306Y-13830430D01*
X6578497Y-13630430D02*
X6711830Y-13630430D01*
X6711830Y-13630430D02*
X6626116Y-13830430D01*
X6826116Y-13630430D02*
X6845164Y-13630430D01*
X6845164Y-13630430D02*
X6864211Y-13639954D01*
X6864211Y-13639954D02*
X6873735Y-13649478D01*
X6873735Y-13649478D02*
X6883259Y-13668526D01*
X6883259Y-13668526D02*
X6892783Y-13706621D01*
X6892783Y-13706621D02*
X6892783Y-13754240D01*
X6892783Y-13754240D02*
X6883259Y-13792335D01*
X6883259Y-13792335D02*
X6873735Y-13811383D01*
X6873735Y-13811383D02*
X6864211Y-13820907D01*
X6864211Y-13820907D02*
X6845164Y-13830430D01*
X6845164Y-13830430D02*
X6826116Y-13830430D01*
X6826116Y-13830430D02*
X6807068Y-13820907D01*
X6807068Y-13820907D02*
X6797544Y-13811383D01*
X6797544Y-13811383D02*
X6788021Y-13792335D01*
X6788021Y-13792335D02*
X6778497Y-13754240D01*
X6778497Y-13754240D02*
X6778497Y-13706621D01*
X6778497Y-13706621D02*
X6788021Y-13668526D01*
X6788021Y-13668526D02*
X6797544Y-13649478D01*
X6797544Y-13649478D02*
X6807068Y-13639954D01*
X6807068Y-13639954D02*
X6826116Y-13630430D01*
X6968973Y-13649478D02*
X6978497Y-13639954D01*
X6978497Y-13639954D02*
X6997544Y-13630430D01*
X6997544Y-13630430D02*
X7045164Y-13630430D01*
X7045164Y-13630430D02*
X7064211Y-13639954D01*
X7064211Y-13639954D02*
X7073735Y-13649478D01*
X7073735Y-13649478D02*
X7083259Y-13668526D01*
X7083259Y-13668526D02*
X7083259Y-13687573D01*
X7083259Y-13687573D02*
X7073735Y-13716145D01*
X7073735Y-13716145D02*
X6959449Y-13830430D01*
X6959449Y-13830430D02*
X7083259Y-13830430D01*
X7168973Y-13830430D02*
X7168973Y-13697097D01*
X7168973Y-13716145D02*
X7178497Y-13706621D01*
X7178497Y-13706621D02*
X7197544Y-13697097D01*
X7197544Y-13697097D02*
X7226116Y-13697097D01*
X7226116Y-13697097D02*
X7245164Y-13706621D01*
X7245164Y-13706621D02*
X7254687Y-13725668D01*
X7254687Y-13725668D02*
X7254687Y-13830430D01*
X7254687Y-13725668D02*
X7264211Y-13706621D01*
X7264211Y-13706621D02*
X7283259Y-13697097D01*
X7283259Y-13697097D02*
X7311830Y-13697097D01*
X7311830Y-13697097D02*
X7330878Y-13706621D01*
X7330878Y-13706621D02*
X7340402Y-13725668D01*
X7340402Y-13725668D02*
X7340402Y-13830430D01*
X7435640Y-13830430D02*
X7435640Y-13697097D01*
X7435640Y-13716145D02*
X7445164Y-13706621D01*
X7445164Y-13706621D02*
X7464211Y-13697097D01*
X7464211Y-13697097D02*
X7492783Y-13697097D01*
X7492783Y-13697097D02*
X7511830Y-13706621D01*
X7511830Y-13706621D02*
X7521354Y-13725668D01*
X7521354Y-13725668D02*
X7521354Y-13830430D01*
X7521354Y-13725668D02*
X7530878Y-13706621D01*
X7530878Y-13706621D02*
X7549925Y-13697097D01*
X7549925Y-13697097D02*
X7578497Y-13697097D01*
X7578497Y-13697097D02*
X7597545Y-13706621D01*
X7597545Y-13706621D02*
X7607068Y-13725668D01*
X7607068Y-13725668D02*
X7607068Y-13830430D01*
X7997545Y-13620907D02*
X7826116Y-13878049D01*
X8254687Y-13630430D02*
X8273735Y-13630430D01*
X8273735Y-13630430D02*
X8292783Y-13639954D01*
X8292783Y-13639954D02*
X8302307Y-13649478D01*
X8302307Y-13649478D02*
X8311830Y-13668526D01*
X8311830Y-13668526D02*
X8321354Y-13706621D01*
X8321354Y-13706621D02*
X8321354Y-13754240D01*
X8321354Y-13754240D02*
X8311830Y-13792335D01*
X8311830Y-13792335D02*
X8302307Y-13811383D01*
X8302307Y-13811383D02*
X8292783Y-13820907D01*
X8292783Y-13820907D02*
X8273735Y-13830430D01*
X8273735Y-13830430D02*
X8254687Y-13830430D01*
X8254687Y-13830430D02*
X8235640Y-13820907D01*
X8235640Y-13820907D02*
X8226116Y-13811383D01*
X8226116Y-13811383D02*
X8216592Y-13792335D01*
X8216592Y-13792335D02*
X8207068Y-13754240D01*
X8207068Y-13754240D02*
X8207068Y-13706621D01*
X8207068Y-13706621D02*
X8216592Y-13668526D01*
X8216592Y-13668526D02*
X8226116Y-13649478D01*
X8226116Y-13649478D02*
X8235640Y-13639954D01*
X8235640Y-13639954D02*
X8254687Y-13630430D01*
X8407069Y-13811383D02*
X8416592Y-13820907D01*
X8416592Y-13820907D02*
X8407069Y-13830430D01*
X8407069Y-13830430D02*
X8397545Y-13820907D01*
X8397545Y-13820907D02*
X8407069Y-13811383D01*
X8407069Y-13811383D02*
X8407069Y-13830430D01*
X8540402Y-13630430D02*
X8559450Y-13630430D01*
X8559450Y-13630430D02*
X8578497Y-13639954D01*
X8578497Y-13639954D02*
X8588021Y-13649478D01*
X8588021Y-13649478D02*
X8597545Y-13668526D01*
X8597545Y-13668526D02*
X8607069Y-13706621D01*
X8607069Y-13706621D02*
X8607069Y-13754240D01*
X8607069Y-13754240D02*
X8597545Y-13792335D01*
X8597545Y-13792335D02*
X8588021Y-13811383D01*
X8588021Y-13811383D02*
X8578497Y-13820907D01*
X8578497Y-13820907D02*
X8559450Y-13830430D01*
X8559450Y-13830430D02*
X8540402Y-13830430D01*
X8540402Y-13830430D02*
X8521354Y-13820907D01*
X8521354Y-13820907D02*
X8511830Y-13811383D01*
X8511830Y-13811383D02*
X8502307Y-13792335D01*
X8502307Y-13792335D02*
X8492783Y-13754240D01*
X8492783Y-13754240D02*
X8492783Y-13706621D01*
X8492783Y-13706621D02*
X8502307Y-13668526D01*
X8502307Y-13668526D02*
X8511830Y-13649478D01*
X8511830Y-13649478D02*
X8521354Y-13639954D01*
X8521354Y-13639954D02*
X8540402Y-13630430D01*
X8778497Y-13630430D02*
X8740402Y-13630430D01*
X8740402Y-13630430D02*
X8721354Y-13639954D01*
X8721354Y-13639954D02*
X8711830Y-13649478D01*
X8711830Y-13649478D02*
X8692783Y-13678049D01*
X8692783Y-13678049D02*
X8683259Y-13716145D01*
X8683259Y-13716145D02*
X8683259Y-13792335D01*
X8683259Y-13792335D02*
X8692783Y-13811383D01*
X8692783Y-13811383D02*
X8702307Y-13820907D01*
X8702307Y-13820907D02*
X8721354Y-13830430D01*
X8721354Y-13830430D02*
X8759450Y-13830430D01*
X8759450Y-13830430D02*
X8778497Y-13820907D01*
X8778497Y-13820907D02*
X8788021Y-13811383D01*
X8788021Y-13811383D02*
X8797545Y-13792335D01*
X8797545Y-13792335D02*
X8797545Y-13744716D01*
X8797545Y-13744716D02*
X8788021Y-13725668D01*
X8788021Y-13725668D02*
X8778497Y-13716145D01*
X8778497Y-13716145D02*
X8759450Y-13706621D01*
X8759450Y-13706621D02*
X8721354Y-13706621D01*
X8721354Y-13706621D02*
X8702307Y-13716145D01*
X8702307Y-13716145D02*
X8692783Y-13725668D01*
X8692783Y-13725668D02*
X8683259Y-13744716D01*
X8864211Y-13630430D02*
X8997545Y-13630430D01*
X8997545Y-13630430D02*
X8911830Y-13830430D01*
X9111830Y-13630430D02*
X9130878Y-13630430D01*
X9130878Y-13630430D02*
X9149926Y-13639954D01*
X9149926Y-13639954D02*
X9159450Y-13649478D01*
X9159450Y-13649478D02*
X9168973Y-13668526D01*
X9168973Y-13668526D02*
X9178497Y-13706621D01*
X9178497Y-13706621D02*
X9178497Y-13754240D01*
X9178497Y-13754240D02*
X9168973Y-13792335D01*
X9168973Y-13792335D02*
X9159450Y-13811383D01*
X9159450Y-13811383D02*
X9149926Y-13820907D01*
X9149926Y-13820907D02*
X9130878Y-13830430D01*
X9130878Y-13830430D02*
X9111830Y-13830430D01*
X9111830Y-13830430D02*
X9092783Y-13820907D01*
X9092783Y-13820907D02*
X9083259Y-13811383D01*
X9083259Y-13811383D02*
X9073735Y-13792335D01*
X9073735Y-13792335D02*
X9064211Y-13754240D01*
X9064211Y-13754240D02*
X9064211Y-13706621D01*
X9064211Y-13706621D02*
X9073735Y-13668526D01*
X9073735Y-13668526D02*
X9083259Y-13649478D01*
X9083259Y-13649478D02*
X9092783Y-13639954D01*
X9092783Y-13639954D02*
X9111830Y-13630430D01*
X9254688Y-13630430D02*
X9254688Y-13668526D01*
X9330878Y-13630430D02*
X9330878Y-13668526D01*
X9626116Y-13906621D02*
X9616592Y-13897097D01*
X9616592Y-13897097D02*
X9597545Y-13868526D01*
X9597545Y-13868526D02*
X9588021Y-13849478D01*
X9588021Y-13849478D02*
X9578497Y-13820907D01*
X9578497Y-13820907D02*
X9568973Y-13773287D01*
X9568973Y-13773287D02*
X9568973Y-13735192D01*
X9568973Y-13735192D02*
X9578497Y-13687573D01*
X9578497Y-13687573D02*
X9588021Y-13659002D01*
X9588021Y-13659002D02*
X9597545Y-13639954D01*
X9597545Y-13639954D02*
X9616592Y-13611383D01*
X9616592Y-13611383D02*
X9626116Y-13601859D01*
X9807069Y-13830430D02*
X9692783Y-13830430D01*
X9749926Y-13830430D02*
X9749926Y-13630430D01*
X9749926Y-13630430D02*
X9730878Y-13659002D01*
X9730878Y-13659002D02*
X9711831Y-13678049D01*
X9711831Y-13678049D02*
X9692783Y-13687573D01*
X9978497Y-13630430D02*
X9940402Y-13630430D01*
X9940402Y-13630430D02*
X9921354Y-13639954D01*
X9921354Y-13639954D02*
X9911831Y-13649478D01*
X9911831Y-13649478D02*
X9892783Y-13678049D01*
X9892783Y-13678049D02*
X9883259Y-13716145D01*
X9883259Y-13716145D02*
X9883259Y-13792335D01*
X9883259Y-13792335D02*
X9892783Y-13811383D01*
X9892783Y-13811383D02*
X9902307Y-13820907D01*
X9902307Y-13820907D02*
X9921354Y-13830430D01*
X9921354Y-13830430D02*
X9959450Y-13830430D01*
X9959450Y-13830430D02*
X9978497Y-13820907D01*
X9978497Y-13820907D02*
X9988021Y-13811383D01*
X9988021Y-13811383D02*
X9997545Y-13792335D01*
X9997545Y-13792335D02*
X9997545Y-13744716D01*
X9997545Y-13744716D02*
X9988021Y-13725668D01*
X9988021Y-13725668D02*
X9978497Y-13716145D01*
X9978497Y-13716145D02*
X9959450Y-13706621D01*
X9959450Y-13706621D02*
X9921354Y-13706621D01*
X9921354Y-13706621D02*
X9902307Y-13716145D01*
X9902307Y-13716145D02*
X9892783Y-13725668D01*
X9892783Y-13725668D02*
X9883259Y-13744716D01*
X10235640Y-13830430D02*
X10235640Y-13630430D01*
X10321354Y-13830430D02*
X10321354Y-13725668D01*
X10321354Y-13725668D02*
X10311831Y-13706621D01*
X10311831Y-13706621D02*
X10292783Y-13697097D01*
X10292783Y-13697097D02*
X10264212Y-13697097D01*
X10264212Y-13697097D02*
X10245164Y-13706621D01*
X10245164Y-13706621D02*
X10235640Y-13716145D01*
X10445164Y-13830430D02*
X10426116Y-13820907D01*
X10426116Y-13820907D02*
X10416593Y-13811383D01*
X10416593Y-13811383D02*
X10407069Y-13792335D01*
X10407069Y-13792335D02*
X10407069Y-13735192D01*
X10407069Y-13735192D02*
X10416593Y-13716145D01*
X10416593Y-13716145D02*
X10426116Y-13706621D01*
X10426116Y-13706621D02*
X10445164Y-13697097D01*
X10445164Y-13697097D02*
X10473735Y-13697097D01*
X10473735Y-13697097D02*
X10492783Y-13706621D01*
X10492783Y-13706621D02*
X10502307Y-13716145D01*
X10502307Y-13716145D02*
X10511831Y-13735192D01*
X10511831Y-13735192D02*
X10511831Y-13792335D01*
X10511831Y-13792335D02*
X10502307Y-13811383D01*
X10502307Y-13811383D02*
X10492783Y-13820907D01*
X10492783Y-13820907D02*
X10473735Y-13830430D01*
X10473735Y-13830430D02*
X10445164Y-13830430D01*
X10626116Y-13830430D02*
X10607069Y-13820907D01*
X10607069Y-13820907D02*
X10597545Y-13801859D01*
X10597545Y-13801859D02*
X10597545Y-13630430D01*
X10778497Y-13820907D02*
X10759450Y-13830430D01*
X10759450Y-13830430D02*
X10721354Y-13830430D01*
X10721354Y-13830430D02*
X10702307Y-13820907D01*
X10702307Y-13820907D02*
X10692783Y-13801859D01*
X10692783Y-13801859D02*
X10692783Y-13725668D01*
X10692783Y-13725668D02*
X10702307Y-13706621D01*
X10702307Y-13706621D02*
X10721354Y-13697097D01*
X10721354Y-13697097D02*
X10759450Y-13697097D01*
X10759450Y-13697097D02*
X10778497Y-13706621D01*
X10778497Y-13706621D02*
X10788021Y-13725668D01*
X10788021Y-13725668D02*
X10788021Y-13744716D01*
X10788021Y-13744716D02*
X10692783Y-13763764D01*
X10864212Y-13820907D02*
X10883259Y-13830430D01*
X10883259Y-13830430D02*
X10921354Y-13830430D01*
X10921354Y-13830430D02*
X10940402Y-13820907D01*
X10940402Y-13820907D02*
X10949926Y-13801859D01*
X10949926Y-13801859D02*
X10949926Y-13792335D01*
X10949926Y-13792335D02*
X10940402Y-13773287D01*
X10940402Y-13773287D02*
X10921354Y-13763764D01*
X10921354Y-13763764D02*
X10892783Y-13763764D01*
X10892783Y-13763764D02*
X10873735Y-13754240D01*
X10873735Y-13754240D02*
X10864212Y-13735192D01*
X10864212Y-13735192D02*
X10864212Y-13725668D01*
X10864212Y-13725668D02*
X10873735Y-13706621D01*
X10873735Y-13706621D02*
X10892783Y-13697097D01*
X10892783Y-13697097D02*
X10921354Y-13697097D01*
X10921354Y-13697097D02*
X10940402Y-13706621D01*
X11016593Y-13906621D02*
X11026116Y-13897097D01*
X11026116Y-13897097D02*
X11045164Y-13868526D01*
X11045164Y-13868526D02*
X11054688Y-13849478D01*
X11054688Y-13849478D02*
X11064212Y-13820907D01*
X11064212Y-13820907D02*
X11073735Y-13773287D01*
X11073735Y-13773287D02*
X11073735Y-13735192D01*
X11073735Y-13735192D02*
X11064212Y-13687573D01*
X11064212Y-13687573D02*
X11054688Y-13659002D01*
X11054688Y-13659002D02*
X11045164Y-13639954D01*
X11045164Y-13639954D02*
X11026116Y-13611383D01*
X11026116Y-13611383D02*
X11016593Y-13601859D01*
X11378497Y-13906621D02*
X11368973Y-13897097D01*
X11368973Y-13897097D02*
X11349926Y-13868526D01*
X11349926Y-13868526D02*
X11340402Y-13849478D01*
X11340402Y-13849478D02*
X11330878Y-13820907D01*
X11330878Y-13820907D02*
X11321354Y-13773287D01*
X11321354Y-13773287D02*
X11321354Y-13735192D01*
X11321354Y-13735192D02*
X11330878Y-13687573D01*
X11330878Y-13687573D02*
X11340402Y-13659002D01*
X11340402Y-13659002D02*
X11349926Y-13639954D01*
X11349926Y-13639954D02*
X11368973Y-13611383D01*
X11368973Y-13611383D02*
X11378497Y-13601859D01*
X11454688Y-13697097D02*
X11454688Y-13830430D01*
X11454688Y-13716145D02*
X11464212Y-13706621D01*
X11464212Y-13706621D02*
X11483259Y-13697097D01*
X11483259Y-13697097D02*
X11511831Y-13697097D01*
X11511831Y-13697097D02*
X11530878Y-13706621D01*
X11530878Y-13706621D02*
X11540402Y-13725668D01*
X11540402Y-13725668D02*
X11540402Y-13830430D01*
X11664212Y-13830430D02*
X11645164Y-13820907D01*
X11645164Y-13820907D02*
X11635640Y-13811383D01*
X11635640Y-13811383D02*
X11626116Y-13792335D01*
X11626116Y-13792335D02*
X11626116Y-13735192D01*
X11626116Y-13735192D02*
X11635640Y-13716145D01*
X11635640Y-13716145D02*
X11645164Y-13706621D01*
X11645164Y-13706621D02*
X11664212Y-13697097D01*
X11664212Y-13697097D02*
X11692783Y-13697097D01*
X11692783Y-13697097D02*
X11711831Y-13706621D01*
X11711831Y-13706621D02*
X11721354Y-13716145D01*
X11721354Y-13716145D02*
X11730878Y-13735192D01*
X11730878Y-13735192D02*
X11730878Y-13792335D01*
X11730878Y-13792335D02*
X11721354Y-13811383D01*
X11721354Y-13811383D02*
X11711831Y-13820907D01*
X11711831Y-13820907D02*
X11692783Y-13830430D01*
X11692783Y-13830430D02*
X11664212Y-13830430D01*
X11788021Y-13697097D02*
X11864212Y-13697097D01*
X11816593Y-13630430D02*
X11816593Y-13801859D01*
X11816593Y-13801859D02*
X11826116Y-13820907D01*
X11826116Y-13820907D02*
X11845164Y-13830430D01*
X11845164Y-13830430D02*
X11864212Y-13830430D01*
X12083259Y-13697097D02*
X12083259Y-13897097D01*
X12083259Y-13706621D02*
X12102307Y-13697097D01*
X12102307Y-13697097D02*
X12140402Y-13697097D01*
X12140402Y-13697097D02*
X12159450Y-13706621D01*
X12159450Y-13706621D02*
X12168974Y-13716145D01*
X12168974Y-13716145D02*
X12178497Y-13735192D01*
X12178497Y-13735192D02*
X12178497Y-13792335D01*
X12178497Y-13792335D02*
X12168974Y-13811383D01*
X12168974Y-13811383D02*
X12159450Y-13820907D01*
X12159450Y-13820907D02*
X12140402Y-13830430D01*
X12140402Y-13830430D02*
X12102307Y-13830430D01*
X12102307Y-13830430D02*
X12083259Y-13820907D01*
X12292783Y-13830430D02*
X12273735Y-13820907D01*
X12273735Y-13820907D02*
X12264212Y-13801859D01*
X12264212Y-13801859D02*
X12264212Y-13630430D01*
X12454688Y-13830430D02*
X12454688Y-13725668D01*
X12454688Y-13725668D02*
X12445164Y-13706621D01*
X12445164Y-13706621D02*
X12426116Y-13697097D01*
X12426116Y-13697097D02*
X12388021Y-13697097D01*
X12388021Y-13697097D02*
X12368974Y-13706621D01*
X12454688Y-13820907D02*
X12435640Y-13830430D01*
X12435640Y-13830430D02*
X12388021Y-13830430D01*
X12388021Y-13830430D02*
X12368974Y-13820907D01*
X12368974Y-13820907D02*
X12359450Y-13801859D01*
X12359450Y-13801859D02*
X12359450Y-13782811D01*
X12359450Y-13782811D02*
X12368974Y-13763764D01*
X12368974Y-13763764D02*
X12388021Y-13754240D01*
X12388021Y-13754240D02*
X12435640Y-13754240D01*
X12435640Y-13754240D02*
X12454688Y-13744716D01*
X12521355Y-13697097D02*
X12597545Y-13697097D01*
X12549926Y-13630430D02*
X12549926Y-13801859D01*
X12549926Y-13801859D02*
X12559450Y-13820907D01*
X12559450Y-13820907D02*
X12578497Y-13830430D01*
X12578497Y-13830430D02*
X12597545Y-13830430D01*
X12740402Y-13820907D02*
X12721355Y-13830430D01*
X12721355Y-13830430D02*
X12683259Y-13830430D01*
X12683259Y-13830430D02*
X12664212Y-13820907D01*
X12664212Y-13820907D02*
X12654688Y-13801859D01*
X12654688Y-13801859D02*
X12654688Y-13725668D01*
X12654688Y-13725668D02*
X12664212Y-13706621D01*
X12664212Y-13706621D02*
X12683259Y-13697097D01*
X12683259Y-13697097D02*
X12721355Y-13697097D01*
X12721355Y-13697097D02*
X12740402Y-13706621D01*
X12740402Y-13706621D02*
X12749926Y-13725668D01*
X12749926Y-13725668D02*
X12749926Y-13744716D01*
X12749926Y-13744716D02*
X12654688Y-13763764D01*
X12921355Y-13830430D02*
X12921355Y-13630430D01*
X12921355Y-13820907D02*
X12902307Y-13830430D01*
X12902307Y-13830430D02*
X12864212Y-13830430D01*
X12864212Y-13830430D02*
X12845164Y-13820907D01*
X12845164Y-13820907D02*
X12835640Y-13811383D01*
X12835640Y-13811383D02*
X12826116Y-13792335D01*
X12826116Y-13792335D02*
X12826116Y-13735192D01*
X12826116Y-13735192D02*
X12835640Y-13716145D01*
X12835640Y-13716145D02*
X12845164Y-13706621D01*
X12845164Y-13706621D02*
X12864212Y-13697097D01*
X12864212Y-13697097D02*
X12902307Y-13697097D01*
X12902307Y-13697097D02*
X12921355Y-13706621D01*
X12997545Y-13906621D02*
X13007069Y-13897097D01*
X13007069Y-13897097D02*
X13026116Y-13868526D01*
X13026116Y-13868526D02*
X13035640Y-13849478D01*
X13035640Y-13849478D02*
X13045164Y-13820907D01*
X13045164Y-13820907D02*
X13054688Y-13773287D01*
X13054688Y-13773287D02*
X13054688Y-13735192D01*
X13054688Y-13735192D02*
X13045164Y-13687573D01*
X13045164Y-13687573D02*
X13035640Y-13659002D01*
X13035640Y-13659002D02*
X13026116Y-13639954D01*
X13026116Y-13639954D02*
X13007069Y-13611383D01*
X13007069Y-13611383D02*
X12997545Y-13601859D01*
X6051053Y-14029127D02*
G75*
G02*
X5851053Y-14029127I-100000J0D01*
G01*
X5851053Y-14029127D02*
G75*
G02*
X6051053Y-14029127I100000J0D01*
G01*
X6302306Y-13939658D02*
X6311830Y-13930134D01*
X6311830Y-13930134D02*
X6330878Y-13920610D01*
X6330878Y-13920610D02*
X6378497Y-13920610D01*
X6378497Y-13920610D02*
X6397544Y-13930134D01*
X6397544Y-13930134D02*
X6407068Y-13939658D01*
X6407068Y-13939658D02*
X6416592Y-13958706D01*
X6416592Y-13958706D02*
X6416592Y-13977753D01*
X6416592Y-13977753D02*
X6407068Y-14006325D01*
X6407068Y-14006325D02*
X6292783Y-14120610D01*
X6292783Y-14120610D02*
X6416592Y-14120610D01*
X6502306Y-14101563D02*
X6511830Y-14111087D01*
X6511830Y-14111087D02*
X6502306Y-14120610D01*
X6502306Y-14120610D02*
X6492783Y-14111087D01*
X6492783Y-14111087D02*
X6502306Y-14101563D01*
X6502306Y-14101563D02*
X6502306Y-14120610D01*
X6578497Y-13920610D02*
X6702306Y-13920610D01*
X6702306Y-13920610D02*
X6635640Y-13996801D01*
X6635640Y-13996801D02*
X6664211Y-13996801D01*
X6664211Y-13996801D02*
X6683259Y-14006325D01*
X6683259Y-14006325D02*
X6692783Y-14015848D01*
X6692783Y-14015848D02*
X6702306Y-14034896D01*
X6702306Y-14034896D02*
X6702306Y-14082515D01*
X6702306Y-14082515D02*
X6692783Y-14101563D01*
X6692783Y-14101563D02*
X6683259Y-14111087D01*
X6683259Y-14111087D02*
X6664211Y-14120610D01*
X6664211Y-14120610D02*
X6607068Y-14120610D01*
X6607068Y-14120610D02*
X6588021Y-14111087D01*
X6588021Y-14111087D02*
X6578497Y-14101563D01*
X6826116Y-13920610D02*
X6845164Y-13920610D01*
X6845164Y-13920610D02*
X6864211Y-13930134D01*
X6864211Y-13930134D02*
X6873735Y-13939658D01*
X6873735Y-13939658D02*
X6883259Y-13958706D01*
X6883259Y-13958706D02*
X6892783Y-13996801D01*
X6892783Y-13996801D02*
X6892783Y-14044420D01*
X6892783Y-14044420D02*
X6883259Y-14082515D01*
X6883259Y-14082515D02*
X6873735Y-14101563D01*
X6873735Y-14101563D02*
X6864211Y-14111087D01*
X6864211Y-14111087D02*
X6845164Y-14120610D01*
X6845164Y-14120610D02*
X6826116Y-14120610D01*
X6826116Y-14120610D02*
X6807068Y-14111087D01*
X6807068Y-14111087D02*
X6797544Y-14101563D01*
X6797544Y-14101563D02*
X6788021Y-14082515D01*
X6788021Y-14082515D02*
X6778497Y-14044420D01*
X6778497Y-14044420D02*
X6778497Y-13996801D01*
X6778497Y-13996801D02*
X6788021Y-13958706D01*
X6788021Y-13958706D02*
X6797544Y-13939658D01*
X6797544Y-13939658D02*
X6807068Y-13930134D01*
X6807068Y-13930134D02*
X6826116Y-13920610D01*
X7016592Y-13920610D02*
X7035640Y-13920610D01*
X7035640Y-13920610D02*
X7054687Y-13930134D01*
X7054687Y-13930134D02*
X7064211Y-13939658D01*
X7064211Y-13939658D02*
X7073735Y-13958706D01*
X7073735Y-13958706D02*
X7083259Y-13996801D01*
X7083259Y-13996801D02*
X7083259Y-14044420D01*
X7083259Y-14044420D02*
X7073735Y-14082515D01*
X7073735Y-14082515D02*
X7064211Y-14101563D01*
X7064211Y-14101563D02*
X7054687Y-14111087D01*
X7054687Y-14111087D02*
X7035640Y-14120610D01*
X7035640Y-14120610D02*
X7016592Y-14120610D01*
X7016592Y-14120610D02*
X6997544Y-14111087D01*
X6997544Y-14111087D02*
X6988021Y-14101563D01*
X6988021Y-14101563D02*
X6978497Y-14082515D01*
X6978497Y-14082515D02*
X6968973Y-14044420D01*
X6968973Y-14044420D02*
X6968973Y-13996801D01*
X6968973Y-13996801D02*
X6978497Y-13958706D01*
X6978497Y-13958706D02*
X6988021Y-13939658D01*
X6988021Y-13939658D02*
X6997544Y-13930134D01*
X6997544Y-13930134D02*
X7016592Y-13920610D01*
X7168973Y-14120610D02*
X7168973Y-13987277D01*
X7168973Y-14006325D02*
X7178497Y-13996801D01*
X7178497Y-13996801D02*
X7197544Y-13987277D01*
X7197544Y-13987277D02*
X7226116Y-13987277D01*
X7226116Y-13987277D02*
X7245164Y-13996801D01*
X7245164Y-13996801D02*
X7254687Y-14015848D01*
X7254687Y-14015848D02*
X7254687Y-14120610D01*
X7254687Y-14015848D02*
X7264211Y-13996801D01*
X7264211Y-13996801D02*
X7283259Y-13987277D01*
X7283259Y-13987277D02*
X7311830Y-13987277D01*
X7311830Y-13987277D02*
X7330878Y-13996801D01*
X7330878Y-13996801D02*
X7340402Y-14015848D01*
X7340402Y-14015848D02*
X7340402Y-14120610D01*
X7435640Y-14120610D02*
X7435640Y-13987277D01*
X7435640Y-14006325D02*
X7445164Y-13996801D01*
X7445164Y-13996801D02*
X7464211Y-13987277D01*
X7464211Y-13987277D02*
X7492783Y-13987277D01*
X7492783Y-13987277D02*
X7511830Y-13996801D01*
X7511830Y-13996801D02*
X7521354Y-14015848D01*
X7521354Y-14015848D02*
X7521354Y-14120610D01*
X7521354Y-14015848D02*
X7530878Y-13996801D01*
X7530878Y-13996801D02*
X7549925Y-13987277D01*
X7549925Y-13987277D02*
X7578497Y-13987277D01*
X7578497Y-13987277D02*
X7597545Y-13996801D01*
X7597545Y-13996801D02*
X7607068Y-14015848D01*
X7607068Y-14015848D02*
X7607068Y-14120610D01*
X7997545Y-13911087D02*
X7826116Y-14168229D01*
X8254687Y-13920610D02*
X8273735Y-13920610D01*
X8273735Y-13920610D02*
X8292783Y-13930134D01*
X8292783Y-13930134D02*
X8302307Y-13939658D01*
X8302307Y-13939658D02*
X8311830Y-13958706D01*
X8311830Y-13958706D02*
X8321354Y-13996801D01*
X8321354Y-13996801D02*
X8321354Y-14044420D01*
X8321354Y-14044420D02*
X8311830Y-14082515D01*
X8311830Y-14082515D02*
X8302307Y-14101563D01*
X8302307Y-14101563D02*
X8292783Y-14111087D01*
X8292783Y-14111087D02*
X8273735Y-14120610D01*
X8273735Y-14120610D02*
X8254687Y-14120610D01*
X8254687Y-14120610D02*
X8235640Y-14111087D01*
X8235640Y-14111087D02*
X8226116Y-14101563D01*
X8226116Y-14101563D02*
X8216592Y-14082515D01*
X8216592Y-14082515D02*
X8207068Y-14044420D01*
X8207068Y-14044420D02*
X8207068Y-13996801D01*
X8207068Y-13996801D02*
X8216592Y-13958706D01*
X8216592Y-13958706D02*
X8226116Y-13939658D01*
X8226116Y-13939658D02*
X8235640Y-13930134D01*
X8235640Y-13930134D02*
X8254687Y-13920610D01*
X8407069Y-14101563D02*
X8416592Y-14111087D01*
X8416592Y-14111087D02*
X8407069Y-14120610D01*
X8407069Y-14120610D02*
X8397545Y-14111087D01*
X8397545Y-14111087D02*
X8407069Y-14101563D01*
X8407069Y-14101563D02*
X8407069Y-14120610D01*
X8540402Y-13920610D02*
X8559450Y-13920610D01*
X8559450Y-13920610D02*
X8578497Y-13930134D01*
X8578497Y-13930134D02*
X8588021Y-13939658D01*
X8588021Y-13939658D02*
X8597545Y-13958706D01*
X8597545Y-13958706D02*
X8607069Y-13996801D01*
X8607069Y-13996801D02*
X8607069Y-14044420D01*
X8607069Y-14044420D02*
X8597545Y-14082515D01*
X8597545Y-14082515D02*
X8588021Y-14101563D01*
X8588021Y-14101563D02*
X8578497Y-14111087D01*
X8578497Y-14111087D02*
X8559450Y-14120610D01*
X8559450Y-14120610D02*
X8540402Y-14120610D01*
X8540402Y-14120610D02*
X8521354Y-14111087D01*
X8521354Y-14111087D02*
X8511830Y-14101563D01*
X8511830Y-14101563D02*
X8502307Y-14082515D01*
X8502307Y-14082515D02*
X8492783Y-14044420D01*
X8492783Y-14044420D02*
X8492783Y-13996801D01*
X8492783Y-13996801D02*
X8502307Y-13958706D01*
X8502307Y-13958706D02*
X8511830Y-13939658D01*
X8511830Y-13939658D02*
X8521354Y-13930134D01*
X8521354Y-13930134D02*
X8540402Y-13920610D01*
X8702307Y-14120610D02*
X8740402Y-14120610D01*
X8740402Y-14120610D02*
X8759450Y-14111087D01*
X8759450Y-14111087D02*
X8768973Y-14101563D01*
X8768973Y-14101563D02*
X8788021Y-14072991D01*
X8788021Y-14072991D02*
X8797545Y-14034896D01*
X8797545Y-14034896D02*
X8797545Y-13958706D01*
X8797545Y-13958706D02*
X8788021Y-13939658D01*
X8788021Y-13939658D02*
X8778497Y-13930134D01*
X8778497Y-13930134D02*
X8759450Y-13920610D01*
X8759450Y-13920610D02*
X8721354Y-13920610D01*
X8721354Y-13920610D02*
X8702307Y-13930134D01*
X8702307Y-13930134D02*
X8692783Y-13939658D01*
X8692783Y-13939658D02*
X8683259Y-13958706D01*
X8683259Y-13958706D02*
X8683259Y-14006325D01*
X8683259Y-14006325D02*
X8692783Y-14025372D01*
X8692783Y-14025372D02*
X8702307Y-14034896D01*
X8702307Y-14034896D02*
X8721354Y-14044420D01*
X8721354Y-14044420D02*
X8759450Y-14044420D01*
X8759450Y-14044420D02*
X8778497Y-14034896D01*
X8778497Y-14034896D02*
X8788021Y-14025372D01*
X8788021Y-14025372D02*
X8797545Y-14006325D01*
X8921354Y-13920610D02*
X8940402Y-13920610D01*
X8940402Y-13920610D02*
X8959450Y-13930134D01*
X8959450Y-13930134D02*
X8968973Y-13939658D01*
X8968973Y-13939658D02*
X8978497Y-13958706D01*
X8978497Y-13958706D02*
X8988021Y-13996801D01*
X8988021Y-13996801D02*
X8988021Y-14044420D01*
X8988021Y-14044420D02*
X8978497Y-14082515D01*
X8978497Y-14082515D02*
X8968973Y-14101563D01*
X8968973Y-14101563D02*
X8959450Y-14111087D01*
X8959450Y-14111087D02*
X8940402Y-14120610D01*
X8940402Y-14120610D02*
X8921354Y-14120610D01*
X8921354Y-14120610D02*
X8902307Y-14111087D01*
X8902307Y-14111087D02*
X8892783Y-14101563D01*
X8892783Y-14101563D02*
X8883259Y-14082515D01*
X8883259Y-14082515D02*
X8873735Y-14044420D01*
X8873735Y-14044420D02*
X8873735Y-13996801D01*
X8873735Y-13996801D02*
X8883259Y-13958706D01*
X8883259Y-13958706D02*
X8892783Y-13939658D01*
X8892783Y-13939658D02*
X8902307Y-13930134D01*
X8902307Y-13930134D02*
X8921354Y-13920610D01*
X9159450Y-13920610D02*
X9121354Y-13920610D01*
X9121354Y-13920610D02*
X9102307Y-13930134D01*
X9102307Y-13930134D02*
X9092783Y-13939658D01*
X9092783Y-13939658D02*
X9073735Y-13968229D01*
X9073735Y-13968229D02*
X9064211Y-14006325D01*
X9064211Y-14006325D02*
X9064211Y-14082515D01*
X9064211Y-14082515D02*
X9073735Y-14101563D01*
X9073735Y-14101563D02*
X9083259Y-14111087D01*
X9083259Y-14111087D02*
X9102307Y-14120610D01*
X9102307Y-14120610D02*
X9140402Y-14120610D01*
X9140402Y-14120610D02*
X9159450Y-14111087D01*
X9159450Y-14111087D02*
X9168973Y-14101563D01*
X9168973Y-14101563D02*
X9178497Y-14082515D01*
X9178497Y-14082515D02*
X9178497Y-14034896D01*
X9178497Y-14034896D02*
X9168973Y-14015848D01*
X9168973Y-14015848D02*
X9159450Y-14006325D01*
X9159450Y-14006325D02*
X9140402Y-13996801D01*
X9140402Y-13996801D02*
X9102307Y-13996801D01*
X9102307Y-13996801D02*
X9083259Y-14006325D01*
X9083259Y-14006325D02*
X9073735Y-14015848D01*
X9073735Y-14015848D02*
X9064211Y-14034896D01*
X9254688Y-13920610D02*
X9254688Y-13958706D01*
X9330878Y-13920610D02*
X9330878Y-13958706D01*
X9626116Y-14196801D02*
X9616592Y-14187277D01*
X9616592Y-14187277D02*
X9597545Y-14158706D01*
X9597545Y-14158706D02*
X9588021Y-14139658D01*
X9588021Y-14139658D02*
X9578497Y-14111087D01*
X9578497Y-14111087D02*
X9568973Y-14063467D01*
X9568973Y-14063467D02*
X9568973Y-14025372D01*
X9568973Y-14025372D02*
X9578497Y-13977753D01*
X9578497Y-13977753D02*
X9588021Y-13949182D01*
X9588021Y-13949182D02*
X9597545Y-13930134D01*
X9597545Y-13930134D02*
X9616592Y-13901563D01*
X9616592Y-13901563D02*
X9626116Y-13892039D01*
X9730878Y-14006325D02*
X9711831Y-13996801D01*
X9711831Y-13996801D02*
X9702307Y-13987277D01*
X9702307Y-13987277D02*
X9692783Y-13968229D01*
X9692783Y-13968229D02*
X9692783Y-13958706D01*
X9692783Y-13958706D02*
X9702307Y-13939658D01*
X9702307Y-13939658D02*
X9711831Y-13930134D01*
X9711831Y-13930134D02*
X9730878Y-13920610D01*
X9730878Y-13920610D02*
X9768973Y-13920610D01*
X9768973Y-13920610D02*
X9788021Y-13930134D01*
X9788021Y-13930134D02*
X9797545Y-13939658D01*
X9797545Y-13939658D02*
X9807069Y-13958706D01*
X9807069Y-13958706D02*
X9807069Y-13968229D01*
X9807069Y-13968229D02*
X9797545Y-13987277D01*
X9797545Y-13987277D02*
X9788021Y-13996801D01*
X9788021Y-13996801D02*
X9768973Y-14006325D01*
X9768973Y-14006325D02*
X9730878Y-14006325D01*
X9730878Y-14006325D02*
X9711831Y-14015848D01*
X9711831Y-14015848D02*
X9702307Y-14025372D01*
X9702307Y-14025372D02*
X9692783Y-14044420D01*
X9692783Y-14044420D02*
X9692783Y-14082515D01*
X9692783Y-14082515D02*
X9702307Y-14101563D01*
X9702307Y-14101563D02*
X9711831Y-14111087D01*
X9711831Y-14111087D02*
X9730878Y-14120610D01*
X9730878Y-14120610D02*
X9768973Y-14120610D01*
X9768973Y-14120610D02*
X9788021Y-14111087D01*
X9788021Y-14111087D02*
X9797545Y-14101563D01*
X9797545Y-14101563D02*
X9807069Y-14082515D01*
X9807069Y-14082515D02*
X9807069Y-14044420D01*
X9807069Y-14044420D02*
X9797545Y-14025372D01*
X9797545Y-14025372D02*
X9788021Y-14015848D01*
X9788021Y-14015848D02*
X9768973Y-14006325D01*
X10045164Y-14120610D02*
X10045164Y-13920610D01*
X10130878Y-14120610D02*
X10130878Y-14015848D01*
X10130878Y-14015848D02*
X10121354Y-13996801D01*
X10121354Y-13996801D02*
X10102307Y-13987277D01*
X10102307Y-13987277D02*
X10073735Y-13987277D01*
X10073735Y-13987277D02*
X10054688Y-13996801D01*
X10054688Y-13996801D02*
X10045164Y-14006325D01*
X10254688Y-14120610D02*
X10235640Y-14111087D01*
X10235640Y-14111087D02*
X10226116Y-14101563D01*
X10226116Y-14101563D02*
X10216593Y-14082515D01*
X10216593Y-14082515D02*
X10216593Y-14025372D01*
X10216593Y-14025372D02*
X10226116Y-14006325D01*
X10226116Y-14006325D02*
X10235640Y-13996801D01*
X10235640Y-13996801D02*
X10254688Y-13987277D01*
X10254688Y-13987277D02*
X10283259Y-13987277D01*
X10283259Y-13987277D02*
X10302307Y-13996801D01*
X10302307Y-13996801D02*
X10311831Y-14006325D01*
X10311831Y-14006325D02*
X10321354Y-14025372D01*
X10321354Y-14025372D02*
X10321354Y-14082515D01*
X10321354Y-14082515D02*
X10311831Y-14101563D01*
X10311831Y-14101563D02*
X10302307Y-14111087D01*
X10302307Y-14111087D02*
X10283259Y-14120610D01*
X10283259Y-14120610D02*
X10254688Y-14120610D01*
X10435640Y-14120610D02*
X10416593Y-14111087D01*
X10416593Y-14111087D02*
X10407069Y-14092039D01*
X10407069Y-14092039D02*
X10407069Y-13920610D01*
X10588021Y-14111087D02*
X10568974Y-14120610D01*
X10568974Y-14120610D02*
X10530878Y-14120610D01*
X10530878Y-14120610D02*
X10511831Y-14111087D01*
X10511831Y-14111087D02*
X10502307Y-14092039D01*
X10502307Y-14092039D02*
X10502307Y-14015848D01*
X10502307Y-14015848D02*
X10511831Y-13996801D01*
X10511831Y-13996801D02*
X10530878Y-13987277D01*
X10530878Y-13987277D02*
X10568974Y-13987277D01*
X10568974Y-13987277D02*
X10588021Y-13996801D01*
X10588021Y-13996801D02*
X10597545Y-14015848D01*
X10597545Y-14015848D02*
X10597545Y-14034896D01*
X10597545Y-14034896D02*
X10502307Y-14053944D01*
X10673735Y-14111087D02*
X10692783Y-14120610D01*
X10692783Y-14120610D02*
X10730878Y-14120610D01*
X10730878Y-14120610D02*
X10749926Y-14111087D01*
X10749926Y-14111087D02*
X10759450Y-14092039D01*
X10759450Y-14092039D02*
X10759450Y-14082515D01*
X10759450Y-14082515D02*
X10749926Y-14063467D01*
X10749926Y-14063467D02*
X10730878Y-14053944D01*
X10730878Y-14053944D02*
X10702307Y-14053944D01*
X10702307Y-14053944D02*
X10683259Y-14044420D01*
X10683259Y-14044420D02*
X10673735Y-14025372D01*
X10673735Y-14025372D02*
X10673735Y-14015848D01*
X10673735Y-14015848D02*
X10683259Y-13996801D01*
X10683259Y-13996801D02*
X10702307Y-13987277D01*
X10702307Y-13987277D02*
X10730878Y-13987277D01*
X10730878Y-13987277D02*
X10749926Y-13996801D01*
X10826116Y-14196801D02*
X10835640Y-14187277D01*
X10835640Y-14187277D02*
X10854688Y-14158706D01*
X10854688Y-14158706D02*
X10864212Y-14139658D01*
X10864212Y-14139658D02*
X10873735Y-14111087D01*
X10873735Y-14111087D02*
X10883259Y-14063467D01*
X10883259Y-14063467D02*
X10883259Y-14025372D01*
X10883259Y-14025372D02*
X10873735Y-13977753D01*
X10873735Y-13977753D02*
X10864212Y-13949182D01*
X10864212Y-13949182D02*
X10854688Y-13930134D01*
X10854688Y-13930134D02*
X10835640Y-13901563D01*
X10835640Y-13901563D02*
X10826116Y-13892039D01*
X11188021Y-14196801D02*
X11178497Y-14187277D01*
X11178497Y-14187277D02*
X11159450Y-14158706D01*
X11159450Y-14158706D02*
X11149926Y-14139658D01*
X11149926Y-14139658D02*
X11140402Y-14111087D01*
X11140402Y-14111087D02*
X11130878Y-14063467D01*
X11130878Y-14063467D02*
X11130878Y-14025372D01*
X11130878Y-14025372D02*
X11140402Y-13977753D01*
X11140402Y-13977753D02*
X11149926Y-13949182D01*
X11149926Y-13949182D02*
X11159450Y-13930134D01*
X11159450Y-13930134D02*
X11178497Y-13901563D01*
X11178497Y-13901563D02*
X11188021Y-13892039D01*
X11264212Y-13987277D02*
X11264212Y-14120610D01*
X11264212Y-14006325D02*
X11273735Y-13996801D01*
X11273735Y-13996801D02*
X11292783Y-13987277D01*
X11292783Y-13987277D02*
X11321354Y-13987277D01*
X11321354Y-13987277D02*
X11340402Y-13996801D01*
X11340402Y-13996801D02*
X11349926Y-14015848D01*
X11349926Y-14015848D02*
X11349926Y-14120610D01*
X11473735Y-14120610D02*
X11454688Y-14111087D01*
X11454688Y-14111087D02*
X11445164Y-14101563D01*
X11445164Y-14101563D02*
X11435640Y-14082515D01*
X11435640Y-14082515D02*
X11435640Y-14025372D01*
X11435640Y-14025372D02*
X11445164Y-14006325D01*
X11445164Y-14006325D02*
X11454688Y-13996801D01*
X11454688Y-13996801D02*
X11473735Y-13987277D01*
X11473735Y-13987277D02*
X11502307Y-13987277D01*
X11502307Y-13987277D02*
X11521354Y-13996801D01*
X11521354Y-13996801D02*
X11530878Y-14006325D01*
X11530878Y-14006325D02*
X11540402Y-14025372D01*
X11540402Y-14025372D02*
X11540402Y-14082515D01*
X11540402Y-14082515D02*
X11530878Y-14101563D01*
X11530878Y-14101563D02*
X11521354Y-14111087D01*
X11521354Y-14111087D02*
X11502307Y-14120610D01*
X11502307Y-14120610D02*
X11473735Y-14120610D01*
X11597545Y-13987277D02*
X11673735Y-13987277D01*
X11626116Y-13920610D02*
X11626116Y-14092039D01*
X11626116Y-14092039D02*
X11635640Y-14111087D01*
X11635640Y-14111087D02*
X11654688Y-14120610D01*
X11654688Y-14120610D02*
X11673735Y-14120610D01*
X11892783Y-13987277D02*
X11892783Y-14187277D01*
X11892783Y-13996801D02*
X11911831Y-13987277D01*
X11911831Y-13987277D02*
X11949926Y-13987277D01*
X11949926Y-13987277D02*
X11968974Y-13996801D01*
X11968974Y-13996801D02*
X11978497Y-14006325D01*
X11978497Y-14006325D02*
X11988021Y-14025372D01*
X11988021Y-14025372D02*
X11988021Y-14082515D01*
X11988021Y-14082515D02*
X11978497Y-14101563D01*
X11978497Y-14101563D02*
X11968974Y-14111087D01*
X11968974Y-14111087D02*
X11949926Y-14120610D01*
X11949926Y-14120610D02*
X11911831Y-14120610D01*
X11911831Y-14120610D02*
X11892783Y-14111087D01*
X12102307Y-14120610D02*
X12083259Y-14111087D01*
X12083259Y-14111087D02*
X12073735Y-14092039D01*
X12073735Y-14092039D02*
X12073735Y-13920610D01*
X12264212Y-14120610D02*
X12264212Y-14015848D01*
X12264212Y-14015848D02*
X12254688Y-13996801D01*
X12254688Y-13996801D02*
X12235640Y-13987277D01*
X12235640Y-13987277D02*
X12197545Y-13987277D01*
X12197545Y-13987277D02*
X12178497Y-13996801D01*
X12264212Y-14111087D02*
X12245164Y-14120610D01*
X12245164Y-14120610D02*
X12197545Y-14120610D01*
X12197545Y-14120610D02*
X12178497Y-14111087D01*
X12178497Y-14111087D02*
X12168974Y-14092039D01*
X12168974Y-14092039D02*
X12168974Y-14072991D01*
X12168974Y-14072991D02*
X12178497Y-14053944D01*
X12178497Y-14053944D02*
X12197545Y-14044420D01*
X12197545Y-14044420D02*
X12245164Y-14044420D01*
X12245164Y-14044420D02*
X12264212Y-14034896D01*
X12330878Y-13987277D02*
X12407069Y-13987277D01*
X12359450Y-13920610D02*
X12359450Y-14092039D01*
X12359450Y-14092039D02*
X12368974Y-14111087D01*
X12368974Y-14111087D02*
X12388021Y-14120610D01*
X12388021Y-14120610D02*
X12407069Y-14120610D01*
X12549926Y-14111087D02*
X12530878Y-14120610D01*
X12530878Y-14120610D02*
X12492783Y-14120610D01*
X12492783Y-14120610D02*
X12473735Y-14111087D01*
X12473735Y-14111087D02*
X12464212Y-14092039D01*
X12464212Y-14092039D02*
X12464212Y-14015848D01*
X12464212Y-14015848D02*
X12473735Y-13996801D01*
X12473735Y-13996801D02*
X12492783Y-13987277D01*
X12492783Y-13987277D02*
X12530878Y-13987277D01*
X12530878Y-13987277D02*
X12549926Y-13996801D01*
X12549926Y-13996801D02*
X12559450Y-14015848D01*
X12559450Y-14015848D02*
X12559450Y-14034896D01*
X12559450Y-14034896D02*
X12464212Y-14053944D01*
X12730878Y-14120610D02*
X12730878Y-13920610D01*
X12730878Y-14111087D02*
X12711831Y-14120610D01*
X12711831Y-14120610D02*
X12673735Y-14120610D01*
X12673735Y-14120610D02*
X12654688Y-14111087D01*
X12654688Y-14111087D02*
X12645164Y-14101563D01*
X12645164Y-14101563D02*
X12635640Y-14082515D01*
X12635640Y-14082515D02*
X12635640Y-14025372D01*
X12635640Y-14025372D02*
X12645164Y-14006325D01*
X12645164Y-14006325D02*
X12654688Y-13996801D01*
X12654688Y-13996801D02*
X12673735Y-13987277D01*
X12673735Y-13987277D02*
X12711831Y-13987277D01*
X12711831Y-13987277D02*
X12730878Y-13996801D01*
X12807069Y-14196801D02*
X12816593Y-14187277D01*
X12816593Y-14187277D02*
X12835640Y-14158706D01*
X12835640Y-14158706D02*
X12845164Y-14139658D01*
X12845164Y-14139658D02*
X12854688Y-14111087D01*
X12854688Y-14111087D02*
X12864212Y-14063467D01*
X12864212Y-14063467D02*
X12864212Y-14025372D01*
X12864212Y-14025372D02*
X12854688Y-13977753D01*
X12854688Y-13977753D02*
X12845164Y-13949182D01*
X12845164Y-13949182D02*
X12835640Y-13930134D01*
X12835640Y-13930134D02*
X12816593Y-13901563D01*
X12816593Y-13901563D02*
X12807069Y-13892039D01*
X5951053Y-14249127D02*
X5951053Y-14449127D01*
X5851053Y-14349127D02*
X6051053Y-14349127D01*
X6397544Y-14240610D02*
X6359449Y-14240610D01*
X6359449Y-14240610D02*
X6340402Y-14250134D01*
X6340402Y-14250134D02*
X6330878Y-14259658D01*
X6330878Y-14259658D02*
X6311830Y-14288229D01*
X6311830Y-14288229D02*
X6302306Y-14326325D01*
X6302306Y-14326325D02*
X6302306Y-14402515D01*
X6302306Y-14402515D02*
X6311830Y-14421563D01*
X6311830Y-14421563D02*
X6321354Y-14431087D01*
X6321354Y-14431087D02*
X6340402Y-14440610D01*
X6340402Y-14440610D02*
X6378497Y-14440610D01*
X6378497Y-14440610D02*
X6397544Y-14431087D01*
X6397544Y-14431087D02*
X6407068Y-14421563D01*
X6407068Y-14421563D02*
X6416592Y-14402515D01*
X6416592Y-14402515D02*
X6416592Y-14354896D01*
X6416592Y-14354896D02*
X6407068Y-14335848D01*
X6407068Y-14335848D02*
X6397544Y-14326325D01*
X6397544Y-14326325D02*
X6378497Y-14316801D01*
X6378497Y-14316801D02*
X6340402Y-14316801D01*
X6340402Y-14316801D02*
X6321354Y-14326325D01*
X6321354Y-14326325D02*
X6311830Y-14335848D01*
X6311830Y-14335848D02*
X6302306Y-14354896D01*
X6502306Y-14421563D02*
X6511830Y-14431087D01*
X6511830Y-14431087D02*
X6502306Y-14440610D01*
X6502306Y-14440610D02*
X6492783Y-14431087D01*
X6492783Y-14431087D02*
X6502306Y-14421563D01*
X6502306Y-14421563D02*
X6502306Y-14440610D01*
X6588021Y-14259658D02*
X6597544Y-14250134D01*
X6597544Y-14250134D02*
X6616592Y-14240610D01*
X6616592Y-14240610D02*
X6664211Y-14240610D01*
X6664211Y-14240610D02*
X6683259Y-14250134D01*
X6683259Y-14250134D02*
X6692783Y-14259658D01*
X6692783Y-14259658D02*
X6702306Y-14278706D01*
X6702306Y-14278706D02*
X6702306Y-14297753D01*
X6702306Y-14297753D02*
X6692783Y-14326325D01*
X6692783Y-14326325D02*
X6578497Y-14440610D01*
X6578497Y-14440610D02*
X6702306Y-14440610D01*
X6883259Y-14240610D02*
X6788021Y-14240610D01*
X6788021Y-14240610D02*
X6778497Y-14335848D01*
X6778497Y-14335848D02*
X6788021Y-14326325D01*
X6788021Y-14326325D02*
X6807068Y-14316801D01*
X6807068Y-14316801D02*
X6854687Y-14316801D01*
X6854687Y-14316801D02*
X6873735Y-14326325D01*
X6873735Y-14326325D02*
X6883259Y-14335848D01*
X6883259Y-14335848D02*
X6892783Y-14354896D01*
X6892783Y-14354896D02*
X6892783Y-14402515D01*
X6892783Y-14402515D02*
X6883259Y-14421563D01*
X6883259Y-14421563D02*
X6873735Y-14431087D01*
X6873735Y-14431087D02*
X6854687Y-14440610D01*
X6854687Y-14440610D02*
X6807068Y-14440610D01*
X6807068Y-14440610D02*
X6788021Y-14431087D01*
X6788021Y-14431087D02*
X6778497Y-14421563D01*
X7016592Y-14240610D02*
X7035640Y-14240610D01*
X7035640Y-14240610D02*
X7054687Y-14250134D01*
X7054687Y-14250134D02*
X7064211Y-14259658D01*
X7064211Y-14259658D02*
X7073735Y-14278706D01*
X7073735Y-14278706D02*
X7083259Y-14316801D01*
X7083259Y-14316801D02*
X7083259Y-14364420D01*
X7083259Y-14364420D02*
X7073735Y-14402515D01*
X7073735Y-14402515D02*
X7064211Y-14421563D01*
X7064211Y-14421563D02*
X7054687Y-14431087D01*
X7054687Y-14431087D02*
X7035640Y-14440610D01*
X7035640Y-14440610D02*
X7016592Y-14440610D01*
X7016592Y-14440610D02*
X6997544Y-14431087D01*
X6997544Y-14431087D02*
X6988021Y-14421563D01*
X6988021Y-14421563D02*
X6978497Y-14402515D01*
X6978497Y-14402515D02*
X6968973Y-14364420D01*
X6968973Y-14364420D02*
X6968973Y-14316801D01*
X6968973Y-14316801D02*
X6978497Y-14278706D01*
X6978497Y-14278706D02*
X6988021Y-14259658D01*
X6988021Y-14259658D02*
X6997544Y-14250134D01*
X6997544Y-14250134D02*
X7016592Y-14240610D01*
X7168973Y-14440610D02*
X7168973Y-14307277D01*
X7168973Y-14326325D02*
X7178497Y-14316801D01*
X7178497Y-14316801D02*
X7197544Y-14307277D01*
X7197544Y-14307277D02*
X7226116Y-14307277D01*
X7226116Y-14307277D02*
X7245164Y-14316801D01*
X7245164Y-14316801D02*
X7254687Y-14335848D01*
X7254687Y-14335848D02*
X7254687Y-14440610D01*
X7254687Y-14335848D02*
X7264211Y-14316801D01*
X7264211Y-14316801D02*
X7283259Y-14307277D01*
X7283259Y-14307277D02*
X7311830Y-14307277D01*
X7311830Y-14307277D02*
X7330878Y-14316801D01*
X7330878Y-14316801D02*
X7340402Y-14335848D01*
X7340402Y-14335848D02*
X7340402Y-14440610D01*
X7435640Y-14440610D02*
X7435640Y-14307277D01*
X7435640Y-14326325D02*
X7445164Y-14316801D01*
X7445164Y-14316801D02*
X7464211Y-14307277D01*
X7464211Y-14307277D02*
X7492783Y-14307277D01*
X7492783Y-14307277D02*
X7511830Y-14316801D01*
X7511830Y-14316801D02*
X7521354Y-14335848D01*
X7521354Y-14335848D02*
X7521354Y-14440610D01*
X7521354Y-14335848D02*
X7530878Y-14316801D01*
X7530878Y-14316801D02*
X7549925Y-14307277D01*
X7549925Y-14307277D02*
X7578497Y-14307277D01*
X7578497Y-14307277D02*
X7597545Y-14316801D01*
X7597545Y-14316801D02*
X7607068Y-14335848D01*
X7607068Y-14335848D02*
X7607068Y-14440610D01*
X7997545Y-14231087D02*
X7826116Y-14488229D01*
X8254687Y-14240610D02*
X8273735Y-14240610D01*
X8273735Y-14240610D02*
X8292783Y-14250134D01*
X8292783Y-14250134D02*
X8302307Y-14259658D01*
X8302307Y-14259658D02*
X8311830Y-14278706D01*
X8311830Y-14278706D02*
X8321354Y-14316801D01*
X8321354Y-14316801D02*
X8321354Y-14364420D01*
X8321354Y-14364420D02*
X8311830Y-14402515D01*
X8311830Y-14402515D02*
X8302307Y-14421563D01*
X8302307Y-14421563D02*
X8292783Y-14431087D01*
X8292783Y-14431087D02*
X8273735Y-14440610D01*
X8273735Y-14440610D02*
X8254687Y-14440610D01*
X8254687Y-14440610D02*
X8235640Y-14431087D01*
X8235640Y-14431087D02*
X8226116Y-14421563D01*
X8226116Y-14421563D02*
X8216592Y-14402515D01*
X8216592Y-14402515D02*
X8207068Y-14364420D01*
X8207068Y-14364420D02*
X8207068Y-14316801D01*
X8207068Y-14316801D02*
X8216592Y-14278706D01*
X8216592Y-14278706D02*
X8226116Y-14259658D01*
X8226116Y-14259658D02*
X8235640Y-14250134D01*
X8235640Y-14250134D02*
X8254687Y-14240610D01*
X8407069Y-14421563D02*
X8416592Y-14431087D01*
X8416592Y-14431087D02*
X8407069Y-14440610D01*
X8407069Y-14440610D02*
X8397545Y-14431087D01*
X8397545Y-14431087D02*
X8407069Y-14421563D01*
X8407069Y-14421563D02*
X8407069Y-14440610D01*
X8492783Y-14259658D02*
X8502307Y-14250134D01*
X8502307Y-14250134D02*
X8521354Y-14240610D01*
X8521354Y-14240610D02*
X8568973Y-14240610D01*
X8568973Y-14240610D02*
X8588021Y-14250134D01*
X8588021Y-14250134D02*
X8597545Y-14259658D01*
X8597545Y-14259658D02*
X8607069Y-14278706D01*
X8607069Y-14278706D02*
X8607069Y-14297753D01*
X8607069Y-14297753D02*
X8597545Y-14326325D01*
X8597545Y-14326325D02*
X8483259Y-14440610D01*
X8483259Y-14440610D02*
X8607069Y-14440610D01*
X8778497Y-14307277D02*
X8778497Y-14440610D01*
X8730878Y-14231087D02*
X8683259Y-14373944D01*
X8683259Y-14373944D02*
X8807069Y-14373944D01*
X8968973Y-14240610D02*
X8930878Y-14240610D01*
X8930878Y-14240610D02*
X8911830Y-14250134D01*
X8911830Y-14250134D02*
X8902307Y-14259658D01*
X8902307Y-14259658D02*
X8883259Y-14288229D01*
X8883259Y-14288229D02*
X8873735Y-14326325D01*
X8873735Y-14326325D02*
X8873735Y-14402515D01*
X8873735Y-14402515D02*
X8883259Y-14421563D01*
X8883259Y-14421563D02*
X8892783Y-14431087D01*
X8892783Y-14431087D02*
X8911830Y-14440610D01*
X8911830Y-14440610D02*
X8949926Y-14440610D01*
X8949926Y-14440610D02*
X8968973Y-14431087D01*
X8968973Y-14431087D02*
X8978497Y-14421563D01*
X8978497Y-14421563D02*
X8988021Y-14402515D01*
X8988021Y-14402515D02*
X8988021Y-14354896D01*
X8988021Y-14354896D02*
X8978497Y-14335848D01*
X8978497Y-14335848D02*
X8968973Y-14326325D01*
X8968973Y-14326325D02*
X8949926Y-14316801D01*
X8949926Y-14316801D02*
X8911830Y-14316801D01*
X8911830Y-14316801D02*
X8892783Y-14326325D01*
X8892783Y-14326325D02*
X8883259Y-14335848D01*
X8883259Y-14335848D02*
X8873735Y-14354896D01*
X9178497Y-14440610D02*
X9064211Y-14440610D01*
X9121354Y-14440610D02*
X9121354Y-14240610D01*
X9121354Y-14240610D02*
X9102307Y-14269182D01*
X9102307Y-14269182D02*
X9083259Y-14288229D01*
X9083259Y-14288229D02*
X9064211Y-14297753D01*
X9254688Y-14240610D02*
X9254688Y-14278706D01*
X9330878Y-14240610D02*
X9330878Y-14278706D01*
X9626116Y-14516801D02*
X9616592Y-14507277D01*
X9616592Y-14507277D02*
X9597545Y-14478706D01*
X9597545Y-14478706D02*
X9588021Y-14459658D01*
X9588021Y-14459658D02*
X9578497Y-14431087D01*
X9578497Y-14431087D02*
X9568973Y-14383467D01*
X9568973Y-14383467D02*
X9568973Y-14345372D01*
X9568973Y-14345372D02*
X9578497Y-14297753D01*
X9578497Y-14297753D02*
X9588021Y-14269182D01*
X9588021Y-14269182D02*
X9597545Y-14250134D01*
X9597545Y-14250134D02*
X9616592Y-14221563D01*
X9616592Y-14221563D02*
X9626116Y-14212039D01*
X9730878Y-14326325D02*
X9711831Y-14316801D01*
X9711831Y-14316801D02*
X9702307Y-14307277D01*
X9702307Y-14307277D02*
X9692783Y-14288229D01*
X9692783Y-14288229D02*
X9692783Y-14278706D01*
X9692783Y-14278706D02*
X9702307Y-14259658D01*
X9702307Y-14259658D02*
X9711831Y-14250134D01*
X9711831Y-14250134D02*
X9730878Y-14240610D01*
X9730878Y-14240610D02*
X9768973Y-14240610D01*
X9768973Y-14240610D02*
X9788021Y-14250134D01*
X9788021Y-14250134D02*
X9797545Y-14259658D01*
X9797545Y-14259658D02*
X9807069Y-14278706D01*
X9807069Y-14278706D02*
X9807069Y-14288229D01*
X9807069Y-14288229D02*
X9797545Y-14307277D01*
X9797545Y-14307277D02*
X9788021Y-14316801D01*
X9788021Y-14316801D02*
X9768973Y-14326325D01*
X9768973Y-14326325D02*
X9730878Y-14326325D01*
X9730878Y-14326325D02*
X9711831Y-14335848D01*
X9711831Y-14335848D02*
X9702307Y-14345372D01*
X9702307Y-14345372D02*
X9692783Y-14364420D01*
X9692783Y-14364420D02*
X9692783Y-14402515D01*
X9692783Y-14402515D02*
X9702307Y-14421563D01*
X9702307Y-14421563D02*
X9711831Y-14431087D01*
X9711831Y-14431087D02*
X9730878Y-14440610D01*
X9730878Y-14440610D02*
X9768973Y-14440610D01*
X9768973Y-14440610D02*
X9788021Y-14431087D01*
X9788021Y-14431087D02*
X9797545Y-14421563D01*
X9797545Y-14421563D02*
X9807069Y-14402515D01*
X9807069Y-14402515D02*
X9807069Y-14364420D01*
X9807069Y-14364420D02*
X9797545Y-14345372D01*
X9797545Y-14345372D02*
X9788021Y-14335848D01*
X9788021Y-14335848D02*
X9768973Y-14326325D01*
X10045164Y-14440610D02*
X10045164Y-14240610D01*
X10130878Y-14440610D02*
X10130878Y-14335848D01*
X10130878Y-14335848D02*
X10121354Y-14316801D01*
X10121354Y-14316801D02*
X10102307Y-14307277D01*
X10102307Y-14307277D02*
X10073735Y-14307277D01*
X10073735Y-14307277D02*
X10054688Y-14316801D01*
X10054688Y-14316801D02*
X10045164Y-14326325D01*
X10254688Y-14440610D02*
X10235640Y-14431087D01*
X10235640Y-14431087D02*
X10226116Y-14421563D01*
X10226116Y-14421563D02*
X10216593Y-14402515D01*
X10216593Y-14402515D02*
X10216593Y-14345372D01*
X10216593Y-14345372D02*
X10226116Y-14326325D01*
X10226116Y-14326325D02*
X10235640Y-14316801D01*
X10235640Y-14316801D02*
X10254688Y-14307277D01*
X10254688Y-14307277D02*
X10283259Y-14307277D01*
X10283259Y-14307277D02*
X10302307Y-14316801D01*
X10302307Y-14316801D02*
X10311831Y-14326325D01*
X10311831Y-14326325D02*
X10321354Y-14345372D01*
X10321354Y-14345372D02*
X10321354Y-14402515D01*
X10321354Y-14402515D02*
X10311831Y-14421563D01*
X10311831Y-14421563D02*
X10302307Y-14431087D01*
X10302307Y-14431087D02*
X10283259Y-14440610D01*
X10283259Y-14440610D02*
X10254688Y-14440610D01*
X10435640Y-14440610D02*
X10416593Y-14431087D01*
X10416593Y-14431087D02*
X10407069Y-14412039D01*
X10407069Y-14412039D02*
X10407069Y-14240610D01*
X10588021Y-14431087D02*
X10568974Y-14440610D01*
X10568974Y-14440610D02*
X10530878Y-14440610D01*
X10530878Y-14440610D02*
X10511831Y-14431087D01*
X10511831Y-14431087D02*
X10502307Y-14412039D01*
X10502307Y-14412039D02*
X10502307Y-14335848D01*
X10502307Y-14335848D02*
X10511831Y-14316801D01*
X10511831Y-14316801D02*
X10530878Y-14307277D01*
X10530878Y-14307277D02*
X10568974Y-14307277D01*
X10568974Y-14307277D02*
X10588021Y-14316801D01*
X10588021Y-14316801D02*
X10597545Y-14335848D01*
X10597545Y-14335848D02*
X10597545Y-14354896D01*
X10597545Y-14354896D02*
X10502307Y-14373944D01*
X10673735Y-14431087D02*
X10692783Y-14440610D01*
X10692783Y-14440610D02*
X10730878Y-14440610D01*
X10730878Y-14440610D02*
X10749926Y-14431087D01*
X10749926Y-14431087D02*
X10759450Y-14412039D01*
X10759450Y-14412039D02*
X10759450Y-14402515D01*
X10759450Y-14402515D02*
X10749926Y-14383467D01*
X10749926Y-14383467D02*
X10730878Y-14373944D01*
X10730878Y-14373944D02*
X10702307Y-14373944D01*
X10702307Y-14373944D02*
X10683259Y-14364420D01*
X10683259Y-14364420D02*
X10673735Y-14345372D01*
X10673735Y-14345372D02*
X10673735Y-14335848D01*
X10673735Y-14335848D02*
X10683259Y-14316801D01*
X10683259Y-14316801D02*
X10702307Y-14307277D01*
X10702307Y-14307277D02*
X10730878Y-14307277D01*
X10730878Y-14307277D02*
X10749926Y-14316801D01*
X10826116Y-14516801D02*
X10835640Y-14507277D01*
X10835640Y-14507277D02*
X10854688Y-14478706D01*
X10854688Y-14478706D02*
X10864212Y-14459658D01*
X10864212Y-14459658D02*
X10873735Y-14431087D01*
X10873735Y-14431087D02*
X10883259Y-14383467D01*
X10883259Y-14383467D02*
X10883259Y-14345372D01*
X10883259Y-14345372D02*
X10873735Y-14297753D01*
X10873735Y-14297753D02*
X10864212Y-14269182D01*
X10864212Y-14269182D02*
X10854688Y-14250134D01*
X10854688Y-14250134D02*
X10835640Y-14221563D01*
X10835640Y-14221563D02*
X10826116Y-14212039D01*
X11188021Y-14516801D02*
X11178497Y-14507277D01*
X11178497Y-14507277D02*
X11159450Y-14478706D01*
X11159450Y-14478706D02*
X11149926Y-14459658D01*
X11149926Y-14459658D02*
X11140402Y-14431087D01*
X11140402Y-14431087D02*
X11130878Y-14383467D01*
X11130878Y-14383467D02*
X11130878Y-14345372D01*
X11130878Y-14345372D02*
X11140402Y-14297753D01*
X11140402Y-14297753D02*
X11149926Y-14269182D01*
X11149926Y-14269182D02*
X11159450Y-14250134D01*
X11159450Y-14250134D02*
X11178497Y-14221563D01*
X11178497Y-14221563D02*
X11188021Y-14212039D01*
X11264212Y-14307277D02*
X11264212Y-14440610D01*
X11264212Y-14326325D02*
X11273735Y-14316801D01*
X11273735Y-14316801D02*
X11292783Y-14307277D01*
X11292783Y-14307277D02*
X11321354Y-14307277D01*
X11321354Y-14307277D02*
X11340402Y-14316801D01*
X11340402Y-14316801D02*
X11349926Y-14335848D01*
X11349926Y-14335848D02*
X11349926Y-14440610D01*
X11473735Y-14440610D02*
X11454688Y-14431087D01*
X11454688Y-14431087D02*
X11445164Y-14421563D01*
X11445164Y-14421563D02*
X11435640Y-14402515D01*
X11435640Y-14402515D02*
X11435640Y-14345372D01*
X11435640Y-14345372D02*
X11445164Y-14326325D01*
X11445164Y-14326325D02*
X11454688Y-14316801D01*
X11454688Y-14316801D02*
X11473735Y-14307277D01*
X11473735Y-14307277D02*
X11502307Y-14307277D01*
X11502307Y-14307277D02*
X11521354Y-14316801D01*
X11521354Y-14316801D02*
X11530878Y-14326325D01*
X11530878Y-14326325D02*
X11540402Y-14345372D01*
X11540402Y-14345372D02*
X11540402Y-14402515D01*
X11540402Y-14402515D02*
X11530878Y-14421563D01*
X11530878Y-14421563D02*
X11521354Y-14431087D01*
X11521354Y-14431087D02*
X11502307Y-14440610D01*
X11502307Y-14440610D02*
X11473735Y-14440610D01*
X11597545Y-14307277D02*
X11673735Y-14307277D01*
X11626116Y-14240610D02*
X11626116Y-14412039D01*
X11626116Y-14412039D02*
X11635640Y-14431087D01*
X11635640Y-14431087D02*
X11654688Y-14440610D01*
X11654688Y-14440610D02*
X11673735Y-14440610D01*
X11892783Y-14307277D02*
X11892783Y-14507277D01*
X11892783Y-14316801D02*
X11911831Y-14307277D01*
X11911831Y-14307277D02*
X11949926Y-14307277D01*
X11949926Y-14307277D02*
X11968974Y-14316801D01*
X11968974Y-14316801D02*
X11978497Y-14326325D01*
X11978497Y-14326325D02*
X11988021Y-14345372D01*
X11988021Y-14345372D02*
X11988021Y-14402515D01*
X11988021Y-14402515D02*
X11978497Y-14421563D01*
X11978497Y-14421563D02*
X11968974Y-14431087D01*
X11968974Y-14431087D02*
X11949926Y-14440610D01*
X11949926Y-14440610D02*
X11911831Y-14440610D01*
X11911831Y-14440610D02*
X11892783Y-14431087D01*
X12102307Y-14440610D02*
X12083259Y-14431087D01*
X12083259Y-14431087D02*
X12073735Y-14412039D01*
X12073735Y-14412039D02*
X12073735Y-14240610D01*
X12264212Y-14440610D02*
X12264212Y-14335848D01*
X12264212Y-14335848D02*
X12254688Y-14316801D01*
X12254688Y-14316801D02*
X12235640Y-14307277D01*
X12235640Y-14307277D02*
X12197545Y-14307277D01*
X12197545Y-14307277D02*
X12178497Y-14316801D01*
X12264212Y-14431087D02*
X12245164Y-14440610D01*
X12245164Y-14440610D02*
X12197545Y-14440610D01*
X12197545Y-14440610D02*
X12178497Y-14431087D01*
X12178497Y-14431087D02*
X12168974Y-14412039D01*
X12168974Y-14412039D02*
X12168974Y-14392991D01*
X12168974Y-14392991D02*
X12178497Y-14373944D01*
X12178497Y-14373944D02*
X12197545Y-14364420D01*
X12197545Y-14364420D02*
X12245164Y-14364420D01*
X12245164Y-14364420D02*
X12264212Y-14354896D01*
X12330878Y-14307277D02*
X12407069Y-14307277D01*
X12359450Y-14240610D02*
X12359450Y-14412039D01*
X12359450Y-14412039D02*
X12368974Y-14431087D01*
X12368974Y-14431087D02*
X12388021Y-14440610D01*
X12388021Y-14440610D02*
X12407069Y-14440610D01*
X12549926Y-14431087D02*
X12530878Y-14440610D01*
X12530878Y-14440610D02*
X12492783Y-14440610D01*
X12492783Y-14440610D02*
X12473735Y-14431087D01*
X12473735Y-14431087D02*
X12464212Y-14412039D01*
X12464212Y-14412039D02*
X12464212Y-14335848D01*
X12464212Y-14335848D02*
X12473735Y-14316801D01*
X12473735Y-14316801D02*
X12492783Y-14307277D01*
X12492783Y-14307277D02*
X12530878Y-14307277D01*
X12530878Y-14307277D02*
X12549926Y-14316801D01*
X12549926Y-14316801D02*
X12559450Y-14335848D01*
X12559450Y-14335848D02*
X12559450Y-14354896D01*
X12559450Y-14354896D02*
X12464212Y-14373944D01*
X12730878Y-14440610D02*
X12730878Y-14240610D01*
X12730878Y-14431087D02*
X12711831Y-14440610D01*
X12711831Y-14440610D02*
X12673735Y-14440610D01*
X12673735Y-14440610D02*
X12654688Y-14431087D01*
X12654688Y-14431087D02*
X12645164Y-14421563D01*
X12645164Y-14421563D02*
X12635640Y-14402515D01*
X12635640Y-14402515D02*
X12635640Y-14345372D01*
X12635640Y-14345372D02*
X12645164Y-14326325D01*
X12645164Y-14326325D02*
X12654688Y-14316801D01*
X12654688Y-14316801D02*
X12673735Y-14307277D01*
X12673735Y-14307277D02*
X12711831Y-14307277D01*
X12711831Y-14307277D02*
X12730878Y-14316801D01*
X12807069Y-14516801D02*
X12816593Y-14507277D01*
X12816593Y-14507277D02*
X12835640Y-14478706D01*
X12835640Y-14478706D02*
X12845164Y-14459658D01*
X12845164Y-14459658D02*
X12854688Y-14431087D01*
X12854688Y-14431087D02*
X12864212Y-14383467D01*
X12864212Y-14383467D02*
X12864212Y-14345372D01*
X12864212Y-14345372D02*
X12854688Y-14297753D01*
X12854688Y-14297753D02*
X12845164Y-14269182D01*
X12845164Y-14269182D02*
X12835640Y-14250134D01*
X12835640Y-14250134D02*
X12816593Y-14221563D01*
X12816593Y-14221563D02*
X12807069Y-14212039D01*
M02*
