%TF.GenerationSoftware,KiCad,Pcbnew,8.0.6*%
%TF.CreationDate,2025-01-24T00:07:20+07:00*%
%TF.ProjectId,esp_gamepad_v2,6573705f-6761-46d6-9570-61645f76322e,rev?*%
%TF.SameCoordinates,Original*%
%TF.FileFunction,Paste,Top*%
%TF.FilePolarity,Positive*%
%FSLAX46Y46*%
G04 Gerber Fmt 4.6, Leading zero omitted, Abs format (unit mm)*
G04 Created by KiCad (PCBNEW 8.0.6) date 2025-01-24 00:07:20*
%MOMM*%
%LPD*%
G01*
G04 APERTURE LIST*
G04 Aperture macros list*
%AMRoundRect*
0 Rectangle with rounded corners*
0 $1 Rounding radius*
0 $2 $3 $4 $5 $6 $7 $8 $9 X,Y pos of 4 corners*
0 Add a 4 corners polygon primitive as box body*
4,1,4,$2,$3,$4,$5,$6,$7,$8,$9,$2,$3,0*
0 Add four circle primitives for the rounded corners*
1,1,$1+$1,$2,$3*
1,1,$1+$1,$4,$5*
1,1,$1+$1,$6,$7*
1,1,$1+$1,$8,$9*
0 Add four rect primitives between the rounded corners*
20,1,$1+$1,$2,$3,$4,$5,0*
20,1,$1+$1,$4,$5,$6,$7,0*
20,1,$1+$1,$6,$7,$8,$9,0*
20,1,$1+$1,$8,$9,$2,$3,0*%
G04 Aperture macros list end*
%ADD10RoundRect,0.250000X-0.450000X0.262500X-0.450000X-0.262500X0.450000X-0.262500X0.450000X0.262500X0*%
%ADD11RoundRect,0.250000X0.450000X-0.262500X0.450000X0.262500X-0.450000X0.262500X-0.450000X-0.262500X0*%
%ADD12RoundRect,0.243750X-0.243750X-0.456250X0.243750X-0.456250X0.243750X0.456250X-0.243750X0.456250X0*%
%ADD13RoundRect,0.250000X-0.262500X-0.450000X0.262500X-0.450000X0.262500X0.450000X-0.262500X0.450000X0*%
%ADD14RoundRect,0.250000X-0.250000X-0.475000X0.250000X-0.475000X0.250000X0.475000X-0.250000X0.475000X0*%
%ADD15RoundRect,0.545793X-0.556707X-0.961707X0.556707X-0.961707X0.556707X0.961707X-0.556707X0.961707X0*%
%ADD16RoundRect,0.150000X-0.825000X-0.150000X0.825000X-0.150000X0.825000X0.150000X-0.825000X0.150000X0*%
%ADD17RoundRect,0.250000X0.475000X-0.250000X0.475000X0.250000X-0.475000X0.250000X-0.475000X-0.250000X0*%
%ADD18RoundRect,0.351875X-0.606875X-0.351875X0.606875X-0.351875X0.606875X0.351875X-0.606875X0.351875X0*%
%ADD19RoundRect,0.062500X-0.387500X-0.062500X0.387500X-0.062500X0.387500X0.062500X-0.387500X0.062500X0*%
%ADD20RoundRect,0.250001X-0.924999X0.499999X-0.924999X-0.499999X0.924999X-0.499999X0.924999X0.499999X0*%
%ADD21RoundRect,0.200000X-0.200000X0.750000X-0.200000X-0.750000X0.200000X-0.750000X0.200000X0.750000X0*%
%ADD22RoundRect,0.200000X0.200000X0.400000X-0.200000X0.400000X-0.200000X-0.400000X0.200000X-0.400000X0*%
%ADD23RoundRect,0.200000X-0.200000X-0.400000X0.200000X-0.400000X0.200000X0.400000X-0.200000X0.400000X0*%
%ADD24RoundRect,0.190000X-0.190000X-0.410000X0.190000X-0.410000X0.190000X0.410000X-0.190000X0.410000X0*%
%ADD25RoundRect,0.190000X0.190000X0.410000X-0.190000X0.410000X-0.190000X-0.410000X0.190000X-0.410000X0*%
%ADD26RoundRect,0.175000X0.175000X0.425000X-0.175000X0.425000X-0.175000X-0.425000X0.175000X-0.425000X0*%
%ADD27RoundRect,0.175000X-0.175000X-0.425000X0.175000X-0.425000X0.175000X0.425000X-0.175000X0.425000X0*%
%ADD28O,1.100000X1.700000*%
%ADD29RoundRect,0.250000X-0.475000X0.250000X-0.475000X-0.250000X0.475000X-0.250000X0.475000X0.250000X0*%
%ADD30RoundRect,0.243750X-0.456250X0.243750X-0.456250X-0.243750X0.456250X-0.243750X0.456250X0.243750X0*%
%ADD31RoundRect,0.250000X0.250000X0.475000X-0.250000X0.475000X-0.250000X-0.475000X0.250000X-0.475000X0*%
%ADD32R,2.700000X3.600000*%
G04 APERTURE END LIST*
D10*
%TO.C,R18*%
X126000000Y-115125000D03*
X126000000Y-116950000D03*
%TD*%
D11*
%TO.C,R15*%
X201500000Y-96912500D03*
X201500000Y-95087500D03*
%TD*%
D12*
%TO.C,D1*%
X129125000Y-123500000D03*
X131000000Y-123500000D03*
%TD*%
D11*
%TO.C,R16*%
X201500000Y-89912500D03*
X201500000Y-88087500D03*
%TD*%
D10*
%TO.C,R19*%
X163500000Y-118587500D03*
X163500000Y-120412500D03*
%TD*%
D11*
%TO.C,R5*%
X172000000Y-75825000D03*
X172000000Y-74000000D03*
%TD*%
D13*
%TO.C,R13*%
X114675000Y-95500000D03*
X116500000Y-95500000D03*
%TD*%
%TO.C,R14*%
X161175000Y-100000000D03*
X163000000Y-100000000D03*
%TD*%
D11*
%TO.C,R17*%
X201500000Y-93412500D03*
X201500000Y-91587500D03*
%TD*%
D14*
%TO.C,C1*%
X107600000Y-53000000D03*
X109500000Y-53000000D03*
%TD*%
D15*
%TO.C,U7*%
X139022500Y-117007500D03*
D16*
X136550000Y-115095000D03*
X136550000Y-116365000D03*
X136550000Y-117635000D03*
X136550000Y-118905000D03*
X141500000Y-118905000D03*
X141500000Y-117635000D03*
X141500000Y-116365000D03*
X141500000Y-115095000D03*
%TD*%
D17*
%TO.C,C6*%
X109000000Y-72450000D03*
X109000000Y-70550000D03*
%TD*%
D18*
%TO.C,U5*%
X128450000Y-101475000D03*
X128450000Y-101475000D03*
D19*
X126550000Y-100500000D03*
X126550000Y-101150000D03*
X126550000Y-101800000D03*
X126550000Y-102450000D03*
X130350000Y-102450000D03*
X130350000Y-101800000D03*
X130350000Y-101150000D03*
X130350000Y-100500000D03*
%TD*%
D20*
%TO.C,C12*%
X173300000Y-117250000D03*
X173300000Y-120500000D03*
%TD*%
D13*
%TO.C,R9*%
X114675000Y-97500000D03*
X116500000Y-97500000D03*
%TD*%
D21*
%TO.C,Q1*%
X118050000Y-113000000D03*
X119950000Y-113000000D03*
X119000000Y-116000000D03*
%TD*%
D22*
%TO.C,P1*%
X154550000Y-124620000D03*
D23*
X149050000Y-124620000D03*
D24*
X150280000Y-124620000D03*
D25*
X153320000Y-124620000D03*
D26*
X152300000Y-124620000D03*
D27*
X151300000Y-124620000D03*
D28*
X147480000Y-124700000D03*
X147480000Y-128500000D03*
X156120000Y-124700000D03*
X156120000Y-128500000D03*
%TD*%
D13*
%TO.C,R10*%
X114675000Y-91500000D03*
X116500000Y-91500000D03*
%TD*%
D14*
%TO.C,C2*%
X94100000Y-53000000D03*
X96000000Y-53000000D03*
%TD*%
D29*
%TO.C,C8*%
X123300000Y-115100000D03*
X123300000Y-117000000D03*
%TD*%
D11*
%TO.C,R3*%
X97500000Y-70325000D03*
X97500000Y-68500000D03*
%TD*%
D29*
%TO.C,C9*%
X163300000Y-123050000D03*
X163300000Y-124950000D03*
%TD*%
D13*
%TO.C,R12*%
X116675000Y-100000000D03*
X118500000Y-100000000D03*
%TD*%
D30*
%TO.C,D5*%
X163300000Y-113500000D03*
X163300000Y-115375000D03*
%TD*%
D11*
%TO.C,R8*%
X201500000Y-65912500D03*
X201500000Y-64087500D03*
%TD*%
D10*
%TO.C,R2*%
X95500000Y-68500000D03*
X95500000Y-70325000D03*
%TD*%
D12*
%TO.C,D3*%
X129125000Y-119500000D03*
X131000000Y-119500000D03*
%TD*%
%TO.C,D2*%
X129125000Y-121500000D03*
X131000000Y-121500000D03*
%TD*%
D20*
%TO.C,C13*%
X169300000Y-117250000D03*
X169300000Y-120500000D03*
%TD*%
D11*
%TO.C,R7*%
X201500000Y-85412500D03*
X201500000Y-83587500D03*
%TD*%
%TO.C,R6*%
X175000000Y-75825000D03*
X175000000Y-74000000D03*
%TD*%
D13*
%TO.C,R4*%
X116175000Y-70500000D03*
X118000000Y-70500000D03*
%TD*%
D14*
%TO.C,C4*%
X134600000Y-53000000D03*
X136500000Y-53000000D03*
%TD*%
D29*
%TO.C,C7*%
X126000000Y-119600000D03*
X126000000Y-121500000D03*
%TD*%
D10*
%TO.C,R1*%
X201500000Y-60500000D03*
X201500000Y-62325000D03*
%TD*%
D12*
%TO.C,D4*%
X129125000Y-117500000D03*
X131000000Y-117500000D03*
%TD*%
D31*
%TO.C,C5*%
X146000000Y-61500000D03*
X144100000Y-61500000D03*
%TD*%
D14*
%TO.C,C3*%
X121100000Y-53000000D03*
X123000000Y-53000000D03*
%TD*%
D29*
%TO.C,C10*%
X160800000Y-118550000D03*
X160800000Y-120450000D03*
%TD*%
D32*
%TO.C,L1*%
X147500000Y-117500000D03*
X155800000Y-117500000D03*
%TD*%
D20*
%TO.C,C11*%
X177300000Y-117250000D03*
X177300000Y-120500000D03*
%TD*%
D13*
%TO.C,R11*%
X114675000Y-93500000D03*
X116500000Y-93500000D03*
%TD*%
M02*
